<svg xmlns="http://www.w3.org/2000/svg" width="300" height="300"><g transform="translate(-297.736 -173.32)"><title>Layer 1</title><path d="M347.488 304.637c-26.407 0-47.81 21.432-47.81 47.839s21.403 47.81 47.81 47.81c26.407 0 47.839-21.403 47.839-47.81 0-26.407-21.432-47.839-47.839-47.839zm0 2.186c25.189 0 45.615 20.455 45.615 45.644 0 25.19-20.426 45.615-45.615 45.615-25.189 0-45.615-20.426-45.615-45.615 0-25.19 20.426-45.644 45.615-45.644zm-.059 1.258c-.836 0-1.67.322-2.306.959-1.275 1.274-1.275 3.338 0 4.612s3.339 1.274 4.612 0c1.273-1.274 1.273-3.339 0-4.612-.637-.636-1.471-.959-2.306-.959zm-16.39 2.971c-.082.436-.165.862-.39 1.318-.224.456-.593.94-1.139 1.587-.544.647-1.261 1.468-2.127 2.306-.864.838-1.868 1.688-2.876 2.546 1.143-.382 2.286-.755 3.355-1.049 1.069-.292 2.061-.498 3.056-.54.994-.04 2.001.087 2.995.21.586-.817 1.153-1.656 1.976-2.426.824-.769 1.911-1.49 2.905-2.097.994-.606 1.92-1.097 2.846-1.587-1.13 0-2.277.009-3.265.03-.987.021-1.824.063-2.695.09-.871.028-1.77.038-2.546-.03-.775-.068-1.444-.21-2.097-.359l.001.001zm33.097 0c-.654.15-1.291.291-2.067.359-.775.068-1.674.058-2.545.03-.872-.027-1.74-.069-2.727-.09-.986-.02-2.104-.03-3.235-.03.927.491 1.853.982 2.847 1.587.994.606 2.051 1.328 2.876 2.097.823.77 1.421 1.609 2.007 2.426.994-.123 1.972-.25 2.966-.21.994.04 1.986.247 3.056.54 1.069.292 2.24.667 3.384 1.049-1.007-.858-2.041-1.709-2.905-2.546-.866-.838-1.582-1.659-2.127-2.306-.545-.647-.913-1.131-1.139-1.587-.225-.456-.308-.882-.39-1.318v-.001zm-16.659 4.852c-20.186 0-36.538 16.352-36.538 36.538 0 20.186 16.352 36.577 36.538 36.577 20.186 0 36.577-16.39 36.577-36.577 0-20.186-16.391-36.538-36.577-36.538zm.269 1.497c19.065 0 34.506 15.47 34.506 34.535 0 19.065-15.441 34.535-34.506 34.535-19.065 0-34.535-15.47-34.535-34.535 0-19.065 15.47-34.535 34.535-34.535zm-.269 2.426c-18.01 0-32.618 14.608-32.618 32.618s14.608 32.647 32.618 32.647 32.646-14.636 32.646-32.647c0-18.01-14.635-32.618-32.646-32.618zm-29.292.09c-1.801 0-3.235 1.464-3.235 3.265-.001 1.801 1.432 3.265 3.235 3.265 1.801 0 3.265-1.464 3.265-3.265 0-1.802-1.464-3.266-3.265-3.265zm58.258.24c-.836 0-1.67.321-2.306.959-1.275 1.274-1.275 3.339 0 4.612 1.274 1.274 3.339 1.274 4.612 0 1.274-1.274 1.274-3.338 0-4.612-.637-.637-1.471-.959-2.306-.959zm-28.841 1.228c.816.038 1.613.062 2.426.12.813.058 1.648.143 2.456.24.809.096 1.615.201 2.216.389.601.188.984.437 1.287.778.304.342.526.782.569 1.258.044.477-.084.99-.359 1.976-.274.987-.71 2.452-1.198 3.954-.488 1.502-1.041 3.067-1.378 3.984-.337.917-.448 1.191-.629 1.408-.181.218-.411.371-.719.63-.309.258-.693.593-.809.988-.115.394.018.832.24 1.198s.522.686.869.898c.346.212.738.311 1.138.21.4-.101.822-.417 1.05-.749.226-.333.258-.67.24-.959-.019-.289-.105-.517-.12-.839-.013-.323.05-.73.329-1.558.28-.828.766-2.092 1.348-3.475.583-1.381 1.26-2.877 1.858-4.014.597-1.136 1.121-1.898 1.618-2.337.496-.438.952-.564 1.438-.54.487.024 1.008.197 1.677.509.669.313 1.488.757 2.426 1.378.939.621 1.998 1.414 2.695 1.976.698.564 1.031.912 1.378 1.258l.33.3c.347.346.695.68 1.258 1.378.564.698 1.326 1.757 1.947 2.695s1.095 1.757 1.408 2.426c.312.669.455 1.191.479 1.677.024.486-.071.941-.509 1.438s-1.2 1.021-2.337 1.618c-1.136.597-2.662 1.275-4.044 1.858-1.381.582-2.617 1.098-3.445 1.378-.828.279-1.235.313-1.558.299-.323-.013-.58-.101-.868-.12-.289-.018-.627.043-.959.27-.333.226-.648.618-.749 1.018-.102.399.027.791.24 1.139.212.346.502.647.868.868.366.221.803.385 1.198.269.395-.116.76-.501 1.018-.809.258-.308.412-.567.629-.749.217-.181.492-.292 1.408-.629.917-.337 2.482-.89 3.984-1.378 1.502-.488 2.937-.893 3.924-1.168.987-.274 1.5-.403 1.976-.359.476.043.916.236 1.258.539.341.304.591.716.778 1.318.188.602.323 1.408.42 2.216.096.809.151 1.614.21 2.426.058.813.111 1.64.15 2.456-.038.817-.092 1.614-.15 2.426-.058.813-.113 1.617-.21 2.426-.097.809-.232 1.615-.42 2.216-.188.602-.437 1.014-.778 1.318-.342.303-.781.496-1.258.54-.476.043-.99-.056-1.976-.33s-2.422-.71-3.924-1.198c-1.502-.488-3.067-1.041-3.984-1.378-.916-.337-1.191-.448-1.408-.629-.217-.181-.371-.441-.629-.749-.259-.309-.624-.664-1.018-.779-.395-.115-.832.018-1.198.24-.366.221-.657.522-.868.868-.213.347-.341.739-.24 1.139.101.4.416.793.749 1.018.332.227.669.289.959.269l.868-.12c.322-.013.729.051 1.558.33.828.28 2.063.766 3.445 1.348 1.381.583 2.907 1.26 4.044 1.858 1.136.597 1.898 1.121 2.337 1.618.438.496.533.952.509 1.438-.024.487-.167 1.008-.479 1.677-.313.669-.787 1.488-1.408 2.426-.621.939-1.383 1.998-1.947 2.695-.564.698-.912 1.031-1.258 1.378l-.33.3c-.346.346-.68.694-1.378 1.258-.698.563-1.757 1.356-2.695 1.976-.938.621-1.757 1.065-2.426 1.378-.669.313-1.191.485-1.677.509-.486.024-.941-.071-1.438-.509-.496-.438-1.02-1.2-1.618-2.337-.596-1.136-1.275-2.662-1.858-4.044-.582-1.381-1.069-2.646-1.348-3.475-.279-.828-.343-1.205-.329-1.528.013-.323.1-.58.12-.868.018-.289-.013-.627-.24-.959-.227-.333-.649-.648-1.05-.75-.399-.101-.791.028-1.138.24-.347.212-.647.503-.869.869-.221.365-.355.803-.24 1.198.116.395.5.73.809.988.308.258.538.442.719.658.181.217.292.491.629 1.408.337.916.89 2.452 1.378 3.954.488 1.502.924 2.968 1.198 3.954.275.987.404 1.5.359 1.976-.043.476-.266.916-.569 1.258-.303.342-.685.591-1.287.779-.602.188-1.407.292-2.216.389-.809.096-1.645.182-2.456.24-.813.058-1.61.111-2.426.15-.817-.038-1.644-.092-2.456-.15-.813-.058-1.618-.144-2.426-.24-.809-.097-1.615-.202-2.216-.389-.603-.188-.985-.437-1.288-.779-.304-.342-.526-.781-.569-1.258-.043-.476.084-.99.359-1.976.275-.986.681-2.452 1.168-3.954.487-1.502 1.041-3.037 1.378-3.954.336-.916.477-1.19.659-1.408.181-.217.411-.401.719-.658.309-.259.693-.593.809-.988.116-.395-.048-.833-.269-1.198-.222-.366-.493-.658-.839-.869-.347-.212-.769-.34-1.168-.24-.4.102-.793.417-1.018.75-.226.332-.259.669-.24.959.018.288.105.545.12.868.013.322-.05.7-.33 1.528-.279.828-.796 2.093-1.378 3.475-.583 1.381-1.23 2.907-1.827 4.044-.597 1.136-1.121 1.898-1.618 2.337-.496.438-.982.533-1.467.509-.486-.024-.978-.196-1.648-.509-.669-.313-1.517-.757-2.456-1.378-.938-.621-1.968-1.414-2.666-1.976-.698-.564-1.061-.912-1.408-1.258l-.299-.3c-.347-.346-.695-.68-1.258-1.378-.564-.698-1.326-1.757-1.947-2.695s-1.095-1.757-1.408-2.426c-.313-.669-.485-1.191-.51-1.677-.025-.486.102-.941.54-1.438.438-.496 1.2-1.021 2.337-1.618 1.136-.597 2.632-1.275 4.014-1.858 1.381-.582 2.646-1.069 3.475-1.348.828-.279 1.235-.343 1.558-.33.322.013.55.101.839.12.288.019.626-.043.959-.269.333-.226.678-.618.778-1.018.102-.4-.027-.792-.24-1.139-.212-.347-.502-.647-.868-.868-.366-.221-.803-.356-1.198-.24-.395.115-.76.471-1.018.779-.258.308-.412.567-.629.749-.217.181-.491.291-1.408.629-.916.336-2.482.889-3.984 1.378-1.502.488-2.937.924-3.924 1.198-.987.274-1.531.373-2.007.33-.476-.043-.887-.237-1.228-.54-.342-.304-.621-.716-.809-1.318-.188-.602-.293-1.407-.389-2.216-.096-.809-.182-1.614-.24-2.426-.058-.812-.082-1.61-.12-2.426.038-.816.062-1.644.12-2.456.058-.812.144-1.617.24-2.426.097-.808.201-1.615.389-2.216.188-.602.467-1.014.809-1.318.341-.303.751-.496 1.228-.539.476-.043 1.02.085 2.007.359.987.274 2.422.681 3.924 1.168 1.502.487 3.067 1.041 3.984 1.378.916.336 1.19.448 1.408.629.217.181.371.441.629.749.259.308.624.693 1.018.809.395.115.832-.048 1.198-.269.366-.221.658-.522.868-.868.213-.347.341-.739.24-1.139-.101-.4-.446-.793-.778-1.018-.333-.227-.67-.289-.959-.27-.289.019-.516.105-.839.12-.323.013-.729-.02-1.558-.299-.828-.279-2.093-.796-3.475-1.378-1.382-.583-2.877-1.259-4.014-1.858-1.136-.597-1.898-1.121-2.337-1.618-.438-.497-.564-.952-.54-1.438.024-.486.197-1.008.51-1.677.312-.669.786-1.488 1.408-2.426.62-.938 1.384-1.998 1.947-2.695.563-.698.911-1.031 1.258-1.378l.299-.3c.347-.346.71-.695 1.408-1.258.698-.563 1.727-1.356 2.666-1.976.939-.621 1.787-1.065 2.456-1.378.669-.312 1.162-.485 1.648-.509.486-.023.972.101 1.467.54.496.438 1.021 1.2 1.618 2.337.597 1.136 1.244 2.632 1.827 4.014.583 1.382 1.098 2.646 1.378 3.475.28.827.344 1.235.33 1.558-.013.322-.101.55-.12.839-.018.289.013.626.24.959.226.332.618.648 1.018.749.4.101.821.003 1.168-.21.346-.212.617-.532.839-.898.221-.366.385-.804.269-1.198-.115-.395-.5-.731-.809-.988-.308-.259-.537-.413-.719-.63-.181-.217-.322-.491-.659-1.408-.337-.916-.89-2.482-1.378-3.984-.488-1.502-.894-2.967-1.168-3.954-.275-.987-.403-1.5-.359-1.976.043-.476.266-.916.569-1.258.303-.341.685-.59 1.288-.778.601-.188 1.407-.293 2.216-.389.808-.097 1.614-.182 2.426-.24.812-.058 1.64-.082 2.456-.12zm-6.44 1.976c-.159.011-.281.045-.39.089-.218.089-.373.241-.509.39.34-.028.69-.052 1.078.03.388.082.836.249 1.408.569.572.32 1.283.789 1.917 1.049.633.258 1.17.332 1.648.359.477.027.891.013 1.288 0 .397.013.781.027 1.258 0 .477-.028 1.045-.102 1.677-.359.634-.259 1.345-.728 1.917-1.049.572-.32.99-.488 1.378-.569.388-.081.738-.058 1.078-.03-.136-.149-.262-.302-.479-.39-.218-.088-.539-.114-.988-.059-.45.055-1.023.168-1.587.269-.566.103-1.1.185-1.618.24-.518.055-1.031.083-1.467.12l-1.168.12-1.168-.12c-.436-.036-.95-.065-1.467-.12-.517-.055-1.052-.137-1.618-.24-.565-.102-1.168-.215-1.618-.269-.224-.028-.41-.041-.569-.03h.001zm-7.428 2.276l-.27.03c-.382.078-.851.301-1.228.629s-.638.774-.928 1.288c-.29.514-.604 1.096-.958 1.707-.356.612-.77 1.245-1.198 1.767-.429.521-.877.953-1.318 1.378l-.3.3c-.402.463-.789.921-1.288 1.378-.498.456-1.086.901-1.677 1.288-.591.386-1.18.731-1.677 1.049-.497.316-.92.625-1.228 1.018-.308.393-.512.871-.569 1.258-.057.386.025.662.12.958.26-.373.539-.728.929-1.108.389-.382.917-.786 1.468-1.108.55-.323 1.119-.574 1.737-1.018.619-.446 1.281-1.073 1.797-1.587.517-.515.883-.923 1.258-1.318l.3-.3c.375-.395.741-.805 1.228-1.348.486-.543 1.086-1.215 1.497-1.858.411-.642.635-1.231.928-1.797.294-.567.659-1.119 1.018-1.528.36-.409.72-.68 1.078-.959-.225-.059-.458-.127-.719-.12l.003-.001zm27.404 0c-.16.024-.331.076-.479.12.365.269.737.559 1.108.959.37.4.74.909 1.049 1.467.308.558.56 1.137.988 1.767.428.631 1.056 1.328 1.558 1.858.5.529.872.903 1.257 1.288l.3.299c.385.385.788.788 1.318 1.288.529.5 1.196 1.099 1.827 1.528.631.428 1.209.681 1.767.988.559.309 1.098.678 1.497 1.049.4.371.659.743.929 1.108.086-.298.187-.603.12-.988-.068-.385-.282-.843-.599-1.228-.318-.385-.752-.685-1.258-.988-.506-.303-1.105-.617-1.707-.988-.602-.371-1.197-.815-1.707-1.258-.51-.443-.935-.895-1.348-1.348l-.288-.383c-.453-.414-.905-.837-1.348-1.348-.443-.51-.888-1.105-1.258-1.707-.371-.602-.656-1.202-.959-1.707-.304-.505-.604-.91-.988-1.228-.385-.317-.873-.532-1.258-.599-.193-.034-.349-.054-.509-.03l-.013.081zm-47.053 1.648c-.799.799-1.593 1.593-2.276 2.306-.683.713-1.26 1.341-1.858 1.976-.597.635-1.23 1.267-1.827 1.767s-1.169.871-1.737 1.228c.25.366.525.716.688 1.198.164.481.227 1.104.3 1.947.072.843.139 1.911.12 3.115-.019 1.203-.134 2.515-.24 3.834.539-1.078 1.098-2.152 1.648-3.115.548-.962 1.094-1.814 1.767-2.546.674-.732 1.457-1.331 2.247-1.947-.164-.992-.308-1.989-.269-3.115.038-1.126.265-2.403.539-3.535.274-1.131.59-2.114.899-3.115l-.001.001zm67.124 2.067c.38 1.143.785 2.286 1.078 3.355.292 1.069.497 2.061.539 3.056.04.994-.087 2.001-.21 2.995.818.586 1.627 1.153 2.396 1.976.77.823 1.49 1.882 2.097 2.876.606.994 1.098 1.92 1.587 2.846 0-1.13-.009-2.248-.03-3.235-.021-.987-.063-1.824-.09-2.695-.027-.872-.037-1.77.031-2.546.067-.776.239-1.444.389-2.097-.436-.082-.891-.165-1.348-.39-.456-.224-.941-.593-1.587-1.138-.647-.545-1.439-1.262-2.276-2.128-.838-.864-1.718-1.867-2.576-2.876v.001zm-34.027.958c-.187-.005-.395.018-.54.269-.145.25-.23.725-.24 1.438-.011.712.059 1.678 0 2.785-.058 1.107-.251 2.351-.689 3.445-.438 1.093-1.143 2.017-1.917 2.695-.775.679-1.605 1.114-2.486 1.139-.881.023-1.791-.354-2.726-1.018-.934-.664-1.887-1.608-2.695-2.456-.809-.847-1.501-1.602-2.007-1.858-.505-.256-.851-.021-1.198.21l-.299.299c-.231.347-.465.693-.21 1.198s1.009 1.168 1.858 1.976c.847.809 1.792 1.762 2.456 2.695.664.934 1.043 1.875 1.018 2.756-.024.881-.429 1.711-1.108 2.486-.68.775-1.633 1.479-2.726 1.917-1.093.438-2.337.601-3.445.659-1.107.058-2.073.019-2.785.03-.713.011-1.188.095-1.438.24-.25.144-.275.353-.269.539.005.187.041.348.089.51-.048.161-.084.322-.089.509-.005.186.019.395.269.539.25.145.725.2 1.438.21.712.011 1.678-.028 2.785.03 1.107.058 2.352.22 3.445.659 1.093.438 2.046 1.142 2.726 1.917.679.775 1.084 1.635 1.108 2.516.024.881-.354 1.791-1.018 2.726-.664.934-1.608 1.887-2.456 2.695-.847.809-1.602 1.471-1.858 1.976-.255.505-.021.851.21 1.198l.299.299c.347.231.693.465 1.198.21.506-.255 1.198-.98 2.007-1.827.809-.847 1.762-1.822 2.695-2.486.935-.664 1.845-1.043 2.726-1.018.881.024 1.711.459 2.486 1.139.775.679 1.479 1.603 1.917 2.695.438 1.093.632 2.337.689 3.445.058 1.107-.011 2.073 0 2.785.011.712.095 1.188.24 1.438s.353.274.54.269c.186-.005.347-.041.509-.089.161.048.322.084.509.089.187.005.395-.019.539-.269.145-.25.23-.726.24-1.438.011-.712-.059-1.678 0-2.785.059-1.107.221-2.352.659-3.445.438-1.093 1.142-2.017 1.917-2.695.775-.679 1.635-1.115 2.516-1.139.881-.024 1.791.354 2.726 1.018.934.664 1.887 1.639 2.695 2.486.809.847 1.471 1.572 1.976 1.827.505.255.851.021 1.198-.21l.299-.299c.232-.347.465-.693.21-1.198s-.98-1.168-1.827-1.976c-.847-.809-1.822-1.762-2.486-2.695-.664-.935-1.043-1.845-1.018-2.726.024-.882.46-1.741 1.139-2.516.68-.775 1.603-1.479 2.695-1.917 1.093-.439 2.367-.601 3.475-.659 1.108-.058 2.073-.019 2.785-.03.712-.011 1.158-.065 1.408-.21.25-.144.305-.353.3-.539-.005-.187-.072-.348-.12-.509.048-.162.115-.323.12-.51.005-.186-.05-.394-.3-.539-.25-.145-.695-.23-1.408-.24-.712-.011-1.678.029-2.785-.03-1.107-.059-2.382-.221-3.475-.659-1.093-.438-2.017-1.142-2.695-1.917-.679-.775-1.115-1.605-1.139-2.486-.023-.881.355-1.822 1.018-2.756.664-.934 1.639-1.887 2.486-2.695.847-.809 1.572-1.471 1.827-1.976.255-.505.021-.851-.21-1.198l-.299-.299c-.347-.231-.693-.465-1.198-.21-.506.255-1.167 1.009-1.976 1.858-.809.847-1.762 1.791-2.695 2.456-.935.664-1.845 1.043-2.726 1.018-.881-.024-1.741-.459-2.516-1.139-.775-.68-1.479-1.603-1.917-2.695-.438-1.093-.601-2.337-.659-3.445-.058-1.107.011-2.073 0-2.785-.01-.713-.095-1.188-.24-1.438-.144-.251-.352-.274-.539-.269-.187.005-.348.041-.509.089-.162-.048-.323-.084-.509-.089zm.629 12.7c4.839 0 8.776 3.908 8.776 8.746 0 4.839-3.938 8.776-8.776 8.776-4.84 0-8.746-3.938-8.746-8.776 0-4.839 3.907-8.746 8.746-8.746zm-28.726 1.917c-.15.136-.301.291-.389.509-.089.218-.115.509-.06.958.055.45.197 1.052.3 1.618.102.566.154 1.1.209 1.618.055.518.113 1.002.15 1.438l.089 1.198-.089 1.168c-.037.436-.096.95-.15 1.467-.055.518-.107 1.022-.209 1.587-.103.565-.245 1.168-.3 1.618-.055.45-.029.771.06.988.088.218.24.343.389.479-.028-.34-.053-.69.03-1.078.082-.388.279-.806.599-1.378.32-.572.76-1.283 1.018-1.917.259-.634.333-1.2.359-1.677.027-.477.014-.862 0-1.258.014-.397.027-.811 0-1.288s-.101-1.045-.359-1.677c-.259-.634-.699-1.315-1.018-1.887-.32-.572-.518-1.02-.599-1.408-.082-.388-.058-.738-.03-1.078zm57.213 0c.027.34.052.69-.03 1.078-.082.388-.28.836-.599 1.408-.32.571-.76 1.254-1.019 1.887-.258.633-.332 1.2-.359 1.677-.027.477-.013.891 0 1.288-.013.396-.027.78 0 1.258.028.477.102 1.045.359 1.677.26.633.699 1.345 1.019 1.917.319.571.517.99.599 1.378.082.388.057.738.03 1.078.15-.136.3-.262.389-.479.088-.218.114-.54.059-.988-.055-.45-.197-1.052-.299-1.618-.103-.565-.185-1.07-.24-1.587-.055-.518-.083-1.031-.12-1.467l-.09-1.168.09-1.198c.036-.437.065-.92.12-1.438.055-.518.137-1.052.24-1.618.103-.566.245-1.168.299-1.618.055-.45.029-.741-.059-.958-.089-.219-.24-.373-.389-.51v.001zm-70.297 3.864c-.835 0-1.67.321-2.306.959-1.274 1.274-1.274 3.338 0 4.612s3.338 1.274 4.612 0 1.274-3.339 0-4.612c-.637-.637-1.471-.959-2.306-.959zm82.585 0c-.835 0-1.67.321-2.306.959-1.274 1.274-1.274 3.339 0 4.612 1.274 1.274 3.339 1.274 4.612 0 1.274-1.274 1.274-3.338 0-4.612-.637-.637-1.471-.959-2.306-.959zm-82.144 9.393c0 1.13-.021 2.248 0 3.235.021.987.062 1.855.089 2.726.028.871.038 1.77-.03 2.546-.068.776-.21 1.413-.359 2.067.436.082.862.165 1.318.389.456.224.941.593 1.587 1.139.647.544 1.469 1.262 2.306 2.127.838.865 1.688 1.868 2.546 2.876-.382-1.143-.755-2.286-1.049-3.355-.292-1.069-.498-2.062-.539-3.056-.041-.994.087-1.972.21-2.966-.818-.586-1.627-1.183-2.396-2.007-.77-.824-1.49-1.882-2.097-2.876h-.031c-.606-.994-1.068-1.92-1.558-2.846l.002.001zm82.192 0c-.491.926-.981 1.852-1.587 2.846-.607.994-1.328 2.051-2.097 2.876-.77.823-1.58 1.421-2.396 2.007.123.994.25 1.972.21 2.966-.04.994-.247 1.986-.54 3.056-.293 1.069-.697 2.211-1.078 3.355.858-1.007 1.739-2.011 2.576-2.876.838-.865 1.629-1.582 2.276-2.127.647-.545 1.131-.913 1.587-1.139.456-.225.912-.308 1.348-.39-.15-.653-.321-1.29-.389-2.067-.068-.775-.058-1.674-.03-2.545.027-.872.069-1.74.089-2.727.021-.987.031-2.105.031-3.235zm-67.785 7.099c-.087.298-.157.603-.09.988.067.384.281.872.599 1.258.318.385.723.655 1.228.958.506.303 1.105.617 1.707.988.602.371 1.227.815 1.737 1.258.51.443.904.895 1.318 1.348l.33.299c.452.414.905.838 1.348 1.348.443.511.857 1.106 1.228 1.707.371.602.685 1.202.988 1.707.304.506.603.911.988 1.228.385.318.843.562 1.228.629.385.067.69-.032.988-.12-.366-.269-.737-.528-1.108-.928-.371-.401-.74-.939-1.049-1.497-.308-.559-.53-1.137-.959-1.767-.428-.631-1.057-1.298-1.558-1.827-.5-.53-.903-.934-1.288-1.318l-.3-.3c-.385-.385-.758-.757-1.288-1.258-.529-.5-1.196-1.129-1.827-1.558-.631-.428-1.238-.681-1.797-.988-.558-.308-1.068-.678-1.468-1.049-.4-.371-.688-.743-.958-1.108l.003.002zm53.35 0c-.269.365-.529.737-.929 1.108-.4.37-.939.74-1.497 1.049-.559.308-1.137.56-1.767.988-.631.428-1.298 1.027-1.827 1.528-.53.5-.933.903-1.318 1.288l-.3.299c-.384.385-.757.758-1.258 1.288-.5.53-1.129 1.227-1.558 1.858-.428.631-.68 1.209-.988 1.768-.308.559-.678 1.097-1.049 1.497-.37.4-.742.659-1.108.929.299.086.604.187.988.12.385-.067.873-.311 1.258-.629s.685-.723.988-1.228c.304-.506.589-1.105.959-1.707.371-.602.816-1.197 1.258-1.707.443-.511.895-.935 1.348-1.348l.3-.3c.414-.452.838-.905 1.348-1.348.511-.443 1.105-.887 1.707-1.258.602-.37 1.202-.684 1.707-.988.505-.303.94-.603 1.258-.988.318-.385.531-.843.599-1.228.067-.385-.033-.69-.12-.988l.002-.003zm-55.593 12.652c-.835 0-1.67.321-2.306.959-1.274 1.274-1.274 3.339 0 4.612 1.274 1.274 3.339 1.274 4.612 0 1.274-1.274 1.274-3.338 0-4.612-.637-.637-1.471-.959-2.306-.959zm57.692 0c-.835 0-1.67.321-2.306.959-1.274 1.274-1.274 3.339 0 4.612 1.274 1.274 3.339 1.274 4.612 0 1.274-1.274 1.274-3.338 0-4.612-.637-.637-1.471-.959-2.306-.959zm-30.135.868c-.477.027-1.014.071-1.648.33-.634.258-1.345.728-1.917 1.049-.572.319-1.02.518-1.408.599-.388.082-.738.027-1.078 0 .136.15.291.3.509.389.218.088.509.114.959.059.45-.054 1.052-.167 1.618-.269.566-.102 1.1-.185 1.618-.24.518-.055 1.002-.083 1.438-.12l1.198-.12 1.168.12c.436.037.95.065 1.468.12.518.055 1.052.138 1.618.24.565.103 1.139.216 1.587.269.45.055.771.029.988-.059.218-.088.343-.24.479-.389-.34.027-.69.082-1.078 0-.388-.082-.806-.28-1.378-.599-.572-.32-1.283-.79-1.917-1.049-.633-.259-1.2-.303-1.677-.33-.477-.028-.861-.013-1.258 0-.397-.013-.811-.028-1.288 0zm-21.806 7.009c1.007.858 2.011 1.709 2.876 2.546.865.838 1.582 1.659 2.127 2.306.544.647.913 1.131 1.139 1.587.224.456.307.882.389 1.318.654-.15 1.321-.291 2.097-.359s1.675-.058 2.546-.03c.871.027 1.708.069 2.695.089.987.021 2.105.031 3.235.031-.926-.491-1.852-.982-2.846-1.587-.994-.607-2.051-1.328-2.875-2.097-.823-.77-1.391-1.58-1.976-2.396-.994.123-2.001.22-2.995.179-.994-.04-1.986-.246-3.056-.539-1.069-.293-2.211-.667-3.355-1.049v.001zm46.19 0c-1.143.382-2.316.755-3.384 1.049-1.069.292-2.062.498-3.056.539-.994.041-1.972-.057-2.966-.179-.586.817-1.183 1.627-2.007 2.396-.824.77-1.882 1.491-2.876 2.097-.994.606-1.92 1.097-2.846 1.587 1.13 0 2.277-.009 3.265-.03.987-.021 1.824-.063 2.695-.09.871-.027 1.77-.038 2.546.03.776.068 1.413.21 2.067.359.082-.435.165-.862.389-1.318.224-.456.593-.94 1.139-1.587.544-.647 1.262-1.469 2.127-2.306.865-.837 1.898-1.688 2.905-2.546l.002-.001zm-23.78 4.313c-.835 0-1.67.321-2.306.959-1.274 1.274-1.274 3.338 0 4.612s3.338 1.274 4.612 0 1.274-3.339 0-4.612c-.637-.637-1.471-.959-2.306-.959z" fill="#5f274a" stroke="#0a0b0c" stroke-width=".321" stroke-linecap="round" stroke-linejoin="round"/><g fill="#5f274a" stroke="#0a0b0c" stroke-width=".321" stroke-linecap="round" stroke-linejoin="round"><path d="M465.959 288.055c-.781 0-1.408.627-1.408 1.408 0 .781.627 1.408 1.408 1.408.781 0 1.408-.627 1.408-1.408 0-.781-.626-1.408-1.408-1.408zm-3.067 4.793c-.815 0-1.468.653-1.468 1.467 0 .815.653 1.467 1.468 1.467s1.467-.653 1.467-1.467c0-.815-.653-1.467-1.467-1.467zm-3.265 4.673c-1.027 0-1.858.83-1.858 1.858 0 1.027.83 1.858 1.858 1.858 1.027 0 1.858-.83 1.858-1.858 0-1.027-.83-1.858-1.858-1.858zm-2.306 5.692c-1.039 0-1.887.847-1.887 1.887s.847 1.887 1.887 1.887 1.887-.847 1.887-1.887-.847-1.887-1.887-1.887zm-2.875 6.529c-1.295 0-2.337 1.042-2.337 2.337 0 1.295 1.042 2.367 2.337 2.367 1.295 0 2.337-1.072 2.337-2.367s-1.042-2.337-2.337-2.337zm-2.935 6.919c-1.241 0-2.247 1.005-2.247 2.247 0 1.241 1.005 2.247 2.247 2.247 1.241 0 2.247-1.005 2.247-2.247 0-1.241-1.005-2.247-2.247-2.247zm74.735 3.804c.354.49.691.975 1.018 1.587.327.613.637 1.361.569 2.097-.068.735-.512 1.451-1.139 2.037-.627.586-1.443 1.046-2.097 1.468-.654.422-1.146.828-1.528 1.618-.381.79-.64 1.939-.749 2.905-.109.967-.068 1.751-.3 2.636-.231.886-.743 1.873-1.887 3.085-1.143 1.212-2.932 2.627-5.002 3.893-2.069 1.266-4.424 2.399-6.29 3.175-1.865.776-3.232 1.206-4.403 1.587-1.171.381-2.135.722-3.115 1.049 1.634-.027 3.259-.055 5.302-.299 2.043-.245 4.482-.722 7.369-1.648 2.887-.927 6.23-2.321 8.926-3.804 2.696-1.485 4.747-3.074 6.23-4.763 1.485-1.69 2.388-3.469 2.905-5.062.518-1.593.657-2.979.479-4.463-.176-1.484-.661-3.074-1.288-4.164-.626-1.09-1.389-1.688-2.247-2.098-.858-.408-1.803-.62-2.756-.839l.003.002zm-15.144 1.534c-.742.061-1.348.408-1.947.749.327.068.668.146.988.33.32.184.632.476.809.899.176.422.208.954.12 1.438-.089.483-.313.912-.599 1.348-.287.435-.628.883-.839 1.408-.211.523-.291 1.135-.21 1.707.082.571.327 1.107.599 1.767.272.66.58 1.443.689 2.247.108.803.008 1.613-.21 2.546-.218.933-.564 1.986-1.108 2.905-.544.919-1.297 1.719-2.067 2.426-.77.707-1.56 1.317-2.186 1.827-.627.51-1.064.909-1.528 1.318 1.062-.423 2.11-.819 3.594-1.587 1.485-.769 3.381-1.897 4.912-3.115 1.532-1.218 2.695-2.544 3.594-4.014.898-1.471 1.538-3.086 1.797-4.524.259-1.436.154-2.702-.18-3.892-.334-1.191-.904-2.313-1.558-3.205-.653-.892-1.393-1.541-2.216-1.976-.823-.436-1.713-.66-2.456-.599h-.001zm35.196 1.018c.109.844.215 1.713-.18 2.666-.395.954-1.304 1.991-2.367 2.726-1.061.735-2.274 1.154-3.295 1.618-1.021.463-1.837.982-2.396 2.127-.558 1.143-.873 2.922-1.228 4.284-.354 1.362-.767 2.306-1.707 3.355-.94 1.049-2.387 2.181-4.553 3.325-2.164 1.143-5.03 2.29-8.027 3.175-2.996.885-6.124 1.513-8.807 1.976-2.683.463-4.932.757-6.949.988-2.015.232-3.803.405-5.601.569 1.036.136 2.067.286 4.164.299 2.097.013 5.264-.108 9.226-.449 3.963-.341 8.726-.918 13.179-1.858 4.453-.94 8.591-2.238 11.829-3.654 3.24-1.417 5.581-2.951 7.338-4.612 1.757-1.661 2.934-3.463 3.535-5.152.599-1.689.623-3.253.419-4.793-.204-1.538-.635-3.044-1.438-4.133-.803-1.091-1.974-1.776-3.145-2.456l.004-.002zm-96.426 1.378c-1.42 0-2.576 1.126-2.576 2.546s1.157 2.576 2.576 2.576c1.42 0 2.576-1.156 2.576-2.576 0-1.42-1.156-2.546-2.576-2.546zm39.51 1.258c-.865.048-1.451.23-2.037.509-.586.28-1.166.667-1.737 1.049.518.013 1.044.02 1.528.149.483.129.92.356 1.438.689.518.334 1.099.783 1.767 1.198.667.415 1.424.824 2.037 1.049.612.225 1.082.261 1.497.389.415.129.768.333.959.51.191.176.237.307.21.389-.028.082-.113.135-.269.059-.157-.075-.394-.27-.659-.359-.266-.088-.556-.086-.868-.059-.313.027-.634.076-.839.24-.204.163-.301.458-.389.629-.089.171-.17.216-.45.269-.279.055-.751.103-1.288.3-.539.197-1.16.559-1.528.839-.368.279-.483.464-.45.839.035.374.208.943.569 1.468.36.524.91 1.016 1.318 1.288.408.272.701.331.898.419.198.089.293.22.3.479l-.09.959c0 .32.107.577.359.809.252.232.657.433 1.228.569.572.136 1.316.19 1.976.359.66.171 1.234.448 1.737.809.504.36.922.812 1.228 1.228.307.415.488.809.569 1.108.082.299.065.506-.03.629-.096.122-.259.158-.45.09-.191-.069-.395-.231-.749-.51-.355-.279-.854-.678-1.378-1.018-.524-.34-1.082-.629-1.648-.778-.566-.149-1.14-.167-1.528-.18-.388-.013-.601-.036-.839.12-.239.156-.508.496-.719.659-.211.163-.369.169-.689.21-.32.04-.793.108-1.378.299-.586.191-1.282.497-1.677.749s-.489.459-.359.929c.129.47.501 1.198.868 1.797.368.599.741 1.065 1.108 1.528-.476.272-.962.537-1.528.958-.565.423-1.229 1.012-1.827 1.558-.598.545-1.134 1.069-1.677 1.587.543.519 1.079 1.012 1.677 1.558.599.545 1.262 1.135 1.827 1.558.566.423 1.052.686 1.528.959-.367.463-.74.929-1.108 1.528-.368.599-.739 1.328-.868 1.797-.129.47-.036.677.359.929.395.252 1.092.558 1.677.749.586.191 1.057.259 1.378.3.32.04.478.046.689.209.211.164.48.503.719.659.238.156.45.133.839.12.387-.013.962-.03 1.528-.18.565-.15 1.123-.438 1.648-.778.524-.34 1.024-.709 1.378-.988.354-.279.558-.472.749-.54.191-.068.354-.032.45.09.095.123.112.359.03.659-.081.299-.263.662-.569 1.078-.307.415-.724.867-1.228 1.228-.503.36-1.077.638-1.737.808-.66.171-1.405.224-1.976.359-.572.137-.977.338-1.228.569-.252.232-.359.519-.359.839l.09.958c-.008.259-.102.391-.3.479-.198.088-.49.117-.898.389-.408.273-.958.795-1.318 1.318-.361.524-.535 1.063-.569 1.438-.034.375.081.56.45.839.368.28.989.641 1.528.839.538.198 1.009.245 1.288.3.279.055.36.129.45.299.088.171.185.436.389.599.204.164.525.213.839.24.312.028.603.029.868-.059.266-.089.502-.255.659-.33.156-.075.242-.052.269.03.027.082-.019.213-.21.39-.191.176-.543.38-.959.509-.415.129-.885.195-1.497.419-.612.225-1.37.634-2.037 1.049-.667.416-1.25.835-1.767 1.168-.518.334-.955.56-1.438.689-.484.129-1.01.166-1.528.18.572.381 1.152.739 1.737 1.018.586.279 1.172.461 2.037.509.865.048 1.996-.039 2.935-.21.939-.17 1.697-.411 2.486-.779.79-.367 1.625-.844 2.367-1.438.742-.591 1.397-1.305 2.037-2.067.64-.762 1.257-1.578 1.767-2.456.511-.878.91-1.826 1.168-2.785.259-.96.379-1.936.42-3.025.04-1.09-.003-2.276-.18-3.475-.177-1.198-.496-2.403-.959-3.594-.463-1.191-1.053-2.369-1.707-3.295-.654-.926-1.36-1.597-2.007-2.067-.647-.47-1.244-.756-1.707-.988-.463-.232-.781-.406-1.108-.599.327-.192.645-.397 1.108-.629.463-.232 1.06-.519 1.707-.988.647-.47 1.353-1.111 2.007-2.037.654-.926 1.244-2.133 1.707-3.325.463-1.191.781-2.367.959-3.565.177-1.198.22-2.415.18-3.504-.041-1.09-.161-2.066-.42-3.025-.259-.959-.658-1.907-1.168-2.785-.511-.878-1.127-1.694-1.767-2.456-.64-.762-1.295-1.474-2.037-2.067-.742-.592-1.576-1.07-2.367-1.438-.79-.367-1.547-.609-2.486-.778-.939-.171-2.07-.258-2.935-.21v-.003zm-30.25 1.887c.027.858.077 1.69.03 2.636-.047.946-.196 2.002-.359 3.235-.163 1.233-.359 2.658-.509 4.223-.15 1.566-.241 3.259-.33 5.002-.088 1.743-.162 3.54-.21 5.182-.047 1.642-.076 3.143-.089 4.643.013 1.499.042 3.001.089 4.643.048 1.642.122 3.408.21 5.152.089 1.743.179 3.436.33 5.002.149 1.566.346 3.021.509 4.254.164 1.233.313 2.258.359 3.205.048.947-.001 1.808-.03 2.666l3.265-3.235c-.164-1.417-.323-2.822-.479-4.313-.156-1.491-.308-3.058-.389-4.433-.082-1.375-.096-2.577-.15-3.864l-.21-3.924c-.055-1.26-.054-2.396-.06-3.235-.008-.838 0-1.371 0-1.917s-.008-1.109 0-1.947c.008-.838.006-1.975.06-3.235l.21-3.924c.055-1.286.068-2.459.15-3.834.082-1.375.233-2.942.389-4.433.156-1.491.315-2.927.479-4.343l-3.265-3.205v-.001zm-10.783 4.702c-1.474 0-2.666 1.191-2.666 2.666 0 1.474 1.191 2.666 2.666 2.666 1.474 0 2.666-1.191 2.666-2.666 0-1.475-1.191-2.666-2.666-2.666zm14.588 3.384c0 .287.013.569.059 1.018.048.45.13 1.052.3 1.618.171.565.409 1.089.839 1.648.428.559 1.05 1.147 1.737 1.767.687.619 1.451 1.275 2.186 1.887.735.612 1.438 1.18 2.186 1.677.749.496 1.534.914 2.486 1.378.954.463 2.076.973 3.295 1.348 1.218.374 2.54.595 3.685.779 1.143.183 2.118.347 2.935.449.817.103 1.49.172 2.157.24l.929-.509c-.75-.096-1.48-.184-2.426-.299-.946-.116-2.101-.249-3.115-.42-1.014-.17-1.891-.383-2.756-.629-.866-.245-1.72-.516-2.516-.809-.797-.292-1.55-.589-2.157-.929-.606-.34-1.053-.736-1.558-1.139-.504-.402-1.051-.837-1.677-1.348-.627-.51-1.333-1.089-2.007-1.797-.674-.707-1.311-1.541-1.917-2.426-.606-.885-1.182-1.827-1.618-2.426-.436-.599-.749-.833-1.049-1.078l.001-.001zm-27.854.15c.082.436.175.871.21 1.348.034.477.015.984-.21 1.618-.224.634-.655 1.403-1.288 2.037-.634.634-1.474 1.149-2.666 1.707-1.191.559-2.751 1.145-3.984 1.587-1.233.443-2.154.732-2.876 1.018-.722.287-1.236.58-1.618.988-.382.408-.621.918-.689 1.408-.068.491.038.951.12 1.467.081.518.139 1.115.18 1.707.04.593.046 1.196.059 1.797-.013.601-.019 1.204-.059 1.797-.041.593-.099 1.16-.18 1.677-.082.518-.188.978-.12 1.467.068.491.308 1.029.689 1.438.382.408.895.673 1.618.959.722.286 1.643.576 2.876 1.018 1.233.443 2.792 1.059 3.984 1.618 1.191.559 2.033 1.074 2.666 1.707.634.634 1.064 1.374 1.288 2.007.225.634.243 1.141.21 1.618-.035.477-.128.913-.21 1.348.571-.259 1.14-.496 1.677-.959.538-.463 1.051-1.159 1.378-1.737.327-.579.467-1.047.419-1.707-.047-.66-.296-1.5-.719-2.127-.422-.627-1.007-1.049-1.497-1.348-.49-.299-.876-.482-1.258-.658.423-.477.86-.951 1.14-1.318.279-.368.406-.618.209-.958-.197-.34-.735-.756-1.348-1.049-.613-.293-1.299-.46-2.007-.569-.708-.109-1.434-.171-1.917-.15-.483.021-.743.114-.988.21.177-.245.35-.5.33-.779-.021-.279-.23-.589-.509-.778-.28-.191-.626-.251-1.049-.21-.422.04-.927.182-1.438.359-.511.176-1.015.386-1.438.509-.422.123-.751.169-1.078.21.191-.245.385-.509.569-.809.183-.299.37-.628.479-.988.108-.361.146-.749.179-1.049l.09-.749-.09-.779c-.034-.3-.071-.658-.179-1.018-.109-.36-.296-.719-.479-1.018 0-.479-.192-.671-.383-.959.327.041.656.087 1.078.21.422.123.927.332 1.438.509.511.177 1.016.319 1.438.359.422.041.769-.018 1.049-.21.279-.19.489-.499.509-.778.021-.279-.152-.534-.33-.779.245.096.505.19.988.21.483.021 1.209-.011 1.917-.12.708-.108 1.394-.276 2.007-.569.613-.292 1.15-.737 1.348-1.078.197-.34.07-.59-.21-.958-.279-.367-.716-.841-1.139-1.318.382-.176.768-.358 1.258-.658.491-.299 1.075-.722 1.497-1.348.423-.627.672-1.436.719-2.097.048-.66-.092-1.159-.419-1.737-.327-.579-.84-1.244-1.378-1.707-.538-.463-1.106-.73-1.677-.988l-.186.149zm22.046 2.013c-.803.899-1.6 1.795-2.396 2.606-.797.811-1.576 1.525-2.367 2.247-.082.586-.165 1.191-.389 1.797-.225.606-.615 1.225-1.078 1.797-.464.572-1 1.1-1.558 1.618.571.504 1.139.994 1.587 1.497.45.504.777 1.016.988 1.528.211.512.294 1.038.389 1.558-.095.52-.178 1.016-.389 1.528-.212.512-.54 1.024-.988 1.528-.45.504-1.016 1.024-1.587 1.528.558.518 1.095 1.016 1.558 1.587.463.572.853 1.191 1.078 1.797.224.607.308 1.212.389 1.797.79.722 1.57 1.436 2.367 2.247.796.81 1.593 1.707 2.396 2.606l-.12-2.186c-.055-.939-.139-2.192-.18-3.295-.041-1.103-.046-2.076-.059-3.145-.013-1.069-.03-2.243-.03-3.265 0-1.022.015-1.866.03-2.726-.013-.859-.03-1.734-.03-2.756 0-1.022.015-2.196.03-3.265.013-1.069.019-2.043.059-3.145.041-1.103.126-2.355.18-3.295l.12-2.186v-.002zm-9.016 2.576c-1.723 0-3.145 1.392-3.145 3.115 0 1.724 1.422 3.115 3.145 3.115 1.724 0 3.115-1.391 3.115-3.115 0-1.723-1.391-3.115-3.115-3.115zm16.055 2.816c-.511.021-1.002.24-1.288.389-.287.15-.382.219-.389.599-.008.381.064 1.079.33 1.618.266.539.714.929 1.648 1.378.933.45 2.375.942 3.744 1.378 1.369.436 2.688.819 3.954 1.139 1.266.32 2.467.575 3.325.779.858.204 1.349.363 2.037.479.687.115 1.56.195 2.486.269.926.075 1.925.126 2.905.18l1.018-1.108c-1.307-.123-2.617-.223-4.074-.51-1.457-.286-3.071-.732-4.433-1.168-1.362-.435-2.465-.872-3.684-1.438-1.218-.565-2.55-1.283-3.565-1.917-1.014-.633-1.71-1.19-2.337-1.558-.627-.367-1.167-.529-1.677-.509l.001-.002zm-64.028 1.054c-.245.15-.492.308-.689.54-.197.231-.353.529-.359.958-.008.428.145.978.389 1.468.245.49.605.933.959 1.348.355.415.695.803 1.049 1.198-.49.367-.975.741-1.438 1.198-.462.456-.912 1.011-1.348 1.558.436.546.886 1.071 1.348 1.528.464.457.948.83 1.438 1.198-.354.395-.694.782-1.049 1.198-.354.415-.713.858-.959 1.348-.245.49-.396 1.039-.389 1.467.008.428.162.756.359.988.197.231.444.359.689.509.191-.408.402-.813.749-1.228.348-.415.85-.838 1.408-1.198.559-.361 1.168-.642 2.067-.929.899-.286 2.064-.567 3.085-.778 1.022-.212 1.881-.366 2.785-.51.906-.143 1.866-.285 2.486-.359.619-.075.912-.076 1.198-.089l-.059-3.145.059-3.175c-.286-.013-.579-.015-1.198-.09s-1.581-.217-2.486-.359c-.905-.143-1.765-.298-2.785-.509-1.021-.212-2.186-.463-3.085-.749-.898-.287-1.509-.598-2.067-.958-.558-.361-1.06-.783-1.408-1.198-.347-.415-.558-.819-.749-1.228v-.001zm155.373 1.827c-.81.024-1.689.068-2.636.15-3.788.328-8.855 1.097-14.646 2.037-5.792.939-12.307 2.067-17.435 2.666-5.124.6-8.851.66-12.163.839-3.311.178-6.217.476-9.106.75 2.889.272 5.795.541 9.106.719 3.311.178 7.037.268 12.163.868 5.124.599 11.636 1.697 17.435 2.636 5.793.939 10.86 1.71 14.646 2.037 3.788.327 6.288.221 8.986-.569 2.698-.791 5.596-2.262 8.267-3.325 2.671-1.063 5.126-1.712 7.578-2.367-2.453-.655-4.908-1.333-7.578-2.396-2.671-1.063-5.569-2.534-8.267-3.325-2.023-.593-3.92-.789-6.35-.719v.001zm-110.899.45c-.408.272-.813.54-1.378.839-.565.3-1.278.628-2.306.988s-2.355.764-3.744 1.139c-1.389.374-2.838.728-4.193.959-1.355.232-2.61.34-3.624.45-1.014.108-1.784.22-2.546.33v2.546c.763.108 1.532.22 2.546.329 1.014.109 2.269.219 3.624.45 1.355.232 2.805.585 4.193.959 1.389.375 2.716.777 3.744 1.139 1.028.361 1.742.689 2.306.988.566.3.969.566 1.378.839l1.618-1.528c-.395-.299-.794-.586-1.168-.898-.375-.313-.729-.628-.988-.988-.259-.361-.43-.782-.539-1.108-.109-.327-.152-.577-.18-.809-.027-.232-.03-.423-.03-.629 0-.206.003-.427.03-.659.028-.232.071-.482.18-.809.109-.327.28-.717.539-1.078.259-.36.614-.705.988-1.018.375-.312.774-.599 1.168-.898l-1.618-1.528v-.001zm3.145 2.426c-2.013 0-3.654 1.642-3.654 3.654 0 2.013 1.642 3.654 3.654 3.654s3.624-1.642 3.624-3.654-1.612-3.654-3.624-3.654zm17.138.15c-.398.002-.703.111-.958.3-.34.251-.612.652-.899 1.198-.286.545-.568 1.235-.868 1.917.3.682.583 1.342.868 1.887.287.545.559.976.899 1.228.34.252.745.328 1.378.24.634-.089 1.506-.343 2.337-.629.831-.287 1.612-.59 2.756-.869 1.143-.279 2.633-.544 3.954-.749 1.321-.204 2.487-.344 3.624-.419 1.137-.076 2.241-.077 3.085-.09.844-.013 1.435-.062 2.007-.09l.03-.509-.03-.539c-.572-.028-1.163-.077-2.007-.09-.844-.013-1.949-.014-3.085-.09-1.137-.075-2.303-.215-3.624-.419-1.321-.205-2.81-.47-3.954-.75-1.143-.279-1.925-.582-2.756-.868-.83-.286-1.703-.541-2.337-.629-.158-.022-.287-.031-.419-.03l-.001-.001zm-46.641.21c-1.718 0-3.115 1.368-3.115 3.085 0 1.718 1.398 3.115 3.115 3.115 1.718 0 3.115-1.398 3.115-3.115 0-1.718-1.397-3.085-3.115-3.085zm64.699 4.223c-.981.055-1.979.105-2.905.18-.926.075-1.798.183-2.486.299-.688.116-1.179.245-2.037.45-.858.204-2.059.458-3.325.778s-2.585.703-3.954 1.139c-1.369.436-2.811.929-3.744 1.378-.933.45-1.382.841-1.648 1.378-.266.538-.336 1.237-.33 1.618.008.381.103.45.389.599.287.15.748.369 1.258.39.511.02 1.081-.142 1.707-.51.627-.367 1.322-.924 2.337-1.558 1.014-.633 2.345-1.351 3.565-1.917 1.218-.565 2.322-.972 3.685-1.408 1.362-.435 2.976-.912 4.433-1.198 1.457-.287 2.766-.386 4.074-.509l-1.018-1.108v-.002zm22.496 1.318c-2.097.013-3.129.133-4.164.269 1.797.164 3.586.338 5.601.569 2.016.232 4.266.526 6.949.988 2.683.463 5.81 1.092 8.807 1.976 2.996.886 5.862 2.031 8.027 3.175 2.165 1.143 3.614 2.276 4.553 3.325.939 1.049 1.353 1.993 1.707 3.355.354 1.362.67 3.139 1.228 4.284.558 1.143 1.375 1.664 2.396 2.127 1.021.463 2.232.882 3.295 1.618 1.062.735 1.972 1.803 2.367 2.756.395.954.288 1.791.18 2.636 1.171-.682 2.342-1.367 3.145-2.456.803-1.09 1.234-2.595 1.438-4.133.204-1.538.179-3.104-.42-4.793s-1.778-3.491-3.535-5.152c-1.757-1.661-4.098-3.197-7.338-4.612-3.241-1.417-7.379-2.714-11.828-3.654-4.453-.939-9.217-1.516-13.179-1.858-3.962-.34-7.128-.433-9.226-.419l-.004-.002zm-20.579.689c-.667.068-1.34.138-2.157.24-.817.103-1.791.236-2.935.419-1.143.184-2.465.405-3.684.779-1.219.375-2.342.885-3.295 1.348-.953.463-1.737.881-2.486 1.378-.749.496-1.451 1.095-2.186 1.707-.735.612-1.499 1.237-2.186 1.858-.688.619-1.308 1.209-1.737 1.767-.429.558-.668 1.082-.839 1.648-.17.565-.252 1.198-.3 1.648-.047.449-.059.732-.059 1.018.3-.245.612-.509 1.049-1.108.436-.599 1.011-1.541 1.618-2.426.606-.886 1.243-1.718 1.917-2.426.674-.708 1.38-1.286 2.007-1.797.626-.511 1.173-.946 1.677-1.348.503-.402.952-.768 1.558-1.108.606-.34 1.36-.636 2.157-.929.797-.292 1.652-.593 2.516-.839.865-.245 1.742-.459 2.756-.629 1.014-.171 2.169-.304 3.115-.42.946-.115 1.677-.204 2.426-.299l-.929-.479-.001-.002zm16.592 1.797c.981.327 1.944.637 3.115 1.018 1.171.382 2.538.811 4.403 1.587 1.866.776 4.22 1.908 6.29 3.175 2.069 1.266 3.858 2.682 5.002 3.893 1.143 1.212 1.655 2.23 1.887 3.115.232.885.191 1.639.299 2.606.109.967.368 2.145.75 2.935s.873 1.195 1.528 1.618c.654.422 1.47.852 2.097 1.438.626.586 1.07 1.331 1.139 2.067.068.735-.243 1.454-.569 2.067-.327.612-.664 1.097-1.018 1.587.953-.218 1.898-.43 2.756-.839.858-.409 1.62-1.007 2.247-2.097.626-1.09 1.111-2.679 1.288-4.164.177-1.484.038-2.87-.479-4.463-.518-1.593-1.422-3.374-2.905-5.062-1.484-1.689-3.534-3.278-6.23-4.763-2.696-1.485-6.04-2.878-8.926-3.804-2.887-.926-5.325-1.373-7.369-1.618-2.043-.245-3.667-.272-5.302-.3l-.003.004zm-53.312.988c-1.723 0-3.145 1.392-3.145 3.115 0 1.723 1.421 3.145 3.145 3.145s3.115-1.421 3.115-3.145c0-1.723-1.391-3.115-3.115-3.115zm55.564 1.707c.463.408.901.807 1.528 1.318.626.511 1.418 1.12 2.186 1.827.77.708 1.522 1.507 2.067 2.426.544.919.89 1.973 1.108 2.905.218.933.318 1.743.21 2.546-.109.803-.417 1.586-.689 2.247-.272.66-.517 1.226-.599 1.797-.081.572-.001 1.153.21 1.677s.552.972.839 1.408c.286.435.51.865.599 1.348.088.483.058 1.016-.12 1.438-.177.422-.489.745-.809.929-.32.183-.661.231-.988.299.599.34 1.205.687 1.947.749.742.061 1.632-.163 2.456-.599.824-.435 1.563-1.085 2.216-1.976.654-.891 1.224-2.014 1.558-3.205.334-1.191.438-2.458.18-3.893-.26-1.437-.899-3.052-1.797-4.523-.899-1.47-2.064-2.795-3.594-4.014-1.533-1.218-3.428-2.316-4.912-3.085-1.485-.769-2.533-1.195-3.594-1.618l.001.002zm-55.296 7.338c-1.474 0-2.666 1.191-2.666 2.666 0 1.474 1.191 2.666 2.666 2.666 1.474 0 2.666-1.191 2.666-2.666 0-1.474-1.191-2.666-2.666-2.666zm1.528 8.057c-1.419 0-2.576 1.156-2.576 2.576 0 1.42 1.157 2.576 2.576 2.576s2.577-1.157 2.577-2.576c0-1.42-1.156-2.576-2.577-2.576zm1.707 8.327c-1.241 0-2.247 1.005-2.247 2.247 0 1.241 1.005 2.247 2.247 2.247 1.241 0 2.247-1.005 2.247-2.247 0-1.241-1.005-2.247-2.247-2.247zm2.935 6.739c-1.295 0-2.337 1.042-2.337 2.337 0 1.295 1.042 2.337 2.337 2.337 1.295 0 2.337-1.042 2.337-2.337 0-1.295-1.042-2.337-2.337-2.337zm2.875 7.428c-1.039 0-1.887.847-1.887 1.887s.847 1.887 1.887 1.887 1.887-.847 1.887-1.887-.847-1.887-1.887-1.887zm2.306 5.751c-1.027 0-1.858.83-1.858 1.858 0 1.027.83 1.858 1.858 1.858 1.027 0 1.858-.83 1.858-1.858 0-1.027-.83-1.858-1.858-1.858zm3.265 5.452c-.815 0-1.468.653-1.468 1.468s.653 1.497 1.468 1.497 1.467-.683 1.467-1.497c0-.815-.653-1.468-1.467-1.468zm2.971 4.888c-.781 0-1.438.626-1.438 1.408 0 .781.657 1.408 1.438 1.408.781 0 1.408-.627 1.408-1.408 0-.781-.626-1.408-1.408-1.408zM399.151 175.239c-1.09-.027-2.287.351-3.295 1.018s-1.833 1.628-2.337 2.486c-.504.858-.698 1.623-.779 2.127-.082.504-.035.746-.24 1.018-.204.272-.642.574-.928 1.228-.287.654-.444 1.642-.39 2.486.056.844.319 1.533.809 2.337.491.803 1.231 1.735 1.707 2.306.477.572.698.803.63 1.049-.069.245-.442.493-.659.778-.218.287-.281.605.06 1.108.34.504 1.086 1.209 1.917 1.767.83.559 1.737.954 2.636 1.049.898.096 1.79-.117 2.485-.24.695-.123 1.179-.155 1.588-.059.408.095.751.316.629.629-.123.313-.708.741-1.049 1.258-.341.518-.455 1.141-.51 1.618-.054.476-.049.779.06.929.109.15.337.15.719.15.382 0 .931.022 1.558.09.626.068 1.337.179 1.827.179s.749-.117.898-.089c.15.027.172.173.24.419.068.245.172.572.54.749.368.177.997.223 1.827-.089.83-.313 1.868-.961 3.025-1.677 1.158-.717 2.439-1.492 3.475-2.037 1.035-.544 1.827-.866 2.726-1.049.899-.183 1.898-.235 2.456-.18.559.055.678.21.569.509-.109.3-.436.725-.599 1.078-.164.355-.158.654.21.899.367.245 1.084.46 1.737.569.653.108 1.237.09 1.768-.06.531-.15 1.032-.435 1.618-.749.585-.313 1.272-.648 2.007-.839.735-.191 1.503-.237 2.756-.06s2.984.572 4.673 1.198 3.358 1.49 4.883 2.606c1.525 1.117 2.892 2.5 4.103 3.984 1.212 1.484 2.252 3.066 3.056 4.822.803 1.757 1.367 3.692 1.707 5.272.34 1.58.449 2.807.449 4.074 0 1.266-.108 2.571-.449 4.015-.341 1.444-.91 3.002-1.318 4.132-.408 1.13-.657 1.837-1.078 2.695-.423.858-1.018 1.871-1.618 2.905v2.546c.49-.49.988-.985 1.587-1.858.599-.871 1.299-2.113 2.007-3.775.707-1.661 1.441-3.752 1.917-5.931.476-2.179.716-4.444.539-6.8-.177-2.356-.795-4.8-1.707-7.129-.913-2.328-2.118-4.561-3.684-6.59-1.566-2.029-3.496-3.855-5.661-5.272-2.165-1.417-4.583-2.404-6.68-3.085-2.097-.681-3.853-1.035-5.991-1.198-2.138-.163-4.642-.133-7.039.031-2.396.163-4.707.435-7.009.599-2.301.164-4.596.201-6.23.12-1.634-.082-2.587-.267-3.594-.689-1.008-.423-2.089-1.083-3.205-1.887-1.117-.803-2.276-1.751-3.175-2.785-.899-1.035-1.522-2.167-1.917-3.325-.395-1.157-.558-2.331-.45-3.475.108-1.143.482-2.238 1.108-3.205.627-.967 1.511-1.808 2.247-2.216.735-.408 1.323-.384 1.827-.18.504.205.929.578 1.378.959.45.381.918.757 1.408 1.139.164-.354.333-.702.21-1.288-.123-.585-.534-1.41-1.228-2.037-.695-.626-1.666-1.051-2.756-1.078l.001.004zm66.108 3.594c-.419.037-.856.139-1.258.33-.803.381-1.462 1.097-1.858 2.186-.395 1.09-.51 2.535-.21 4.074.299 1.539.999 3.148 2.007 4.822 1.007 1.675 2.328 3.425 3.445 5.182 1.117 1.757 2.018 3.534 2.726 5.331.708 1.797 1.214 3.624 1.528 5.421.313 1.797.433 3.572.42 5.152-.013 1.58-.167 2.954-.33 4.343l-.42-.24c0-.491.003-.978.031-1.767.028-.79.084-1.892.03-2.995-.055-1.103-.22-2.197-.629-3.205-.409-1.007-1.049-1.911-1.797-2.905-.75-.994-1.593-2.08-2.546-2.816-.954-.735-2.012-1.124-3.115-1.288-1.103-.164-2.263-.104-3.325.21-1.062.312-2.031.871-2.726 1.648-.695.775-1.117 1.751-1.198 2.486-.082.735.182 1.223.509 1.318.327.095.724-.202 1.078-.569.354-.368.659-.798 1.108-1.139.45-.341 1.062-.583 1.648-.569.586.013 1.133.281 1.378.539.244.259.182.528.059.869-.123.34-.286.749-.15 1.049.136.299.564.481 1.108.509.544.027 1.204-.096 1.858-.15.654-.055 1.305-.033 2.067.24.763.272 1.623.797 2.276 1.737.654.939 1.102 2.284 1.198 3.714.096 1.43-.145 2.938-.389 4.463h1.15c-.137.707-.278 1.416-.659 2.546-.382 1.13-1.01 2.666-1.827 4.014-.817 1.349-1.816 2.513-2.306 3.235s-.46 1.013-.269 1.108c.191.095.54-.011.988-.42.45-.408.98-1.119 1.648-2.127.667-1.007 1.459-2.325 2.127-3.714.667-1.389 1.222-2.843 1.767-4.313l1.558.33c.355-.817.713-1.636 1.258-3.475.544-1.838 1.258-4.702 1.858-6.5.599-1.797 1.078-2.524 1.827-3.205.75-.681 1.772-1.318 2.276-1.767.504-.45.494-.716.629-.988.137-.272.42-.561.869-.929.45-.367 1.062-.814 1.648-1.018.585-.204 1.136-.144 1.707-.09-.491-.571-.957-1.171-1.528-1.648-.572-.476-1.25-.846-2.216-.928-.967-.082-2.23.152-3.265.778-1.035.627-1.83 1.652-2.456 2.905-.627 1.253-1.089 2.717-1.348 4.284-.259 1.566-.303 3.223-.479 4.763-.176 1.539-.493 2.96-.779 3.954-.287.994-.561 1.555-.778 1.827-.219.272-.357.248-.33-.12.027-.367.22-1.067.33-2.007.108-.939.117-2.124.089-3.445-.027-1.321-.086-2.791-.359-4.343-.272-1.553-.754-3.161-1.408-4.973-.654-1.812-1.46-3.818-1.976-5.302-.518-1.485-.754-2.469-.959-3.804-.204-1.334-.383-3.025-.479-4.074-.095-1.049-.108-1.444-.299-1.648-.191-.204-.566-.207-.839-.179-.272.027-.436.073-.599-.09-.164-.164-.335-.544-.389-1.198-.055-.654.003-1.571.179-2.306.177-.735.498-1.291.839-1.618.34-.327.697-.43 1.078-.54-.463-.435-.923-.857-1.618-1.049-.347-.095-.75-.127-1.168-.089l-.014.184zm52.536 3.385c-1.671.718-3.325 1.426-4.612 2.007-1.288.581-2.211 1.026-2.875 1.497-.664.472-1.074.967-1.497 1.467-.366-.289-.729-.59-1.288-.629-.559-.038-1.323.187-2.007.658-.683.472-1.293 1.192-1.707 1.858-.414.665-.627 1.26-.839 1.858-.866.405-1.744.803-2.486 1.467-.742.665-1.351 1.595-1.976 2.876-.626 1.281-1.267 2.925-2.067 4.553-.799 1.628-1.755 3.234-2.636 4.702-.881 1.468-1.688 2.813-2.486 4.133 1.324-.795 2.663-1.607 4.133-2.486 1.47-.879 3.075-1.836 4.702-2.636 1.628-.798 3.272-1.441 4.553-2.067 1.281-.626 2.211-1.236 2.876-1.976.664-.741 1.063-1.619 1.467-2.486.597-.212 1.192-.425 1.858-.839.664-.414 1.385-1.024 1.858-1.707.472-.683.698-1.419.658-1.976-.037-.558-.339-.922-.629-1.288.501-.424 1.026-.863 1.497-1.528.473-.664.916-1.559 1.497-2.846.583-1.285 1.285-2.946 2.007-4.612zm-31.602.419c-.189 0-.383.017-.569.031-.247.016-.485.059-.719.089-.934.126-1.767.317-2.576.51.732.153 1.469.31 2.067.599.597.289 1.073.698 1.467 1.228.395.529.715 1.172.868 1.827.154.655.122 1.318.18 1.858.058.539.205.956.629 1.438.424.481 1.144 1.029 1.858 1.587-.5.115-1.004.239-1.408.509-.404.269-.721.693-.778 1.348-.058.655.147 1.538.629 2.367.481.828 1.231 1.607 1.858 2.426.626.819 1.125 1.671 1.318 2.576.193.905.075 1.867-.06 2.695-.134.828-.306 1.534-.479 2.247l-1.378-2.186c-.096 1.136-.204 2.258-.868 3.654-.664 1.397-1.882 3.053-3.384 4.883s-3.27 3.844-5.032 5.721c-1.762 1.878-3.531 3.613-4.643 5.062-1.112 1.449-1.565 2.598-2.037 3.744 1.15-.467 2.293-.927 3.744-2.037 1.451-1.11 3.215-2.88 5.092-4.643 1.878-1.762 3.862-3.53 5.692-5.032 1.829-1.502 3.486-2.72 4.883-3.384 1.397-.665 2.548-.773 3.685-.868l-2.3-1.342c.712-.173 1.419-.345 2.247-.479.828-.135 1.761-.222 2.666-.031.905.193 1.788.662 2.606 1.288.819.626 1.568 1.405 2.396 1.887.828.482 1.712.658 2.367.599.655-.058 1.078-.344 1.348-.749.269-.405.394-.907.509-1.408.559.712 1.106 1.403 1.587 1.827.481.424.899.571 1.438.629.54.059 1.202.026 1.858.18.655.154 1.298.503 1.827.898.53.395.969.842 1.258 1.438.289.598.445 1.335.599 2.067.193-.809.384-1.612.509-2.546.126-.934.176-1.997-.209-3.056s-1.208-2.113-2.276-3.085c-1.069-.972-2.4-1.872-3.864-2.546-1.464-.674-3.076-1.145-4.433-1.348-1.358-.202-2.435-.141-3.744.09-1.309.231-2.847.647-4.223 1.139-1.377.491-2.615 1.053-3.685 1.737-1.069.684-1.955 1.483-2.726 2.157l-2.067 1.797-1.587-.45-.45-1.587 1.797-2.037c.674-.77 1.473-1.687 2.157-2.756.683-1.069 1.246-2.307 1.737-3.684.491-1.377.907-2.884 1.139-4.193.231-1.309.291-2.416.09-3.775-.203-1.357-.674-2.969-1.348-4.433-.675-1.464-1.543-2.765-2.516-3.834-.973-1.069-2.056-1.921-3.115-2.306-.596-.217-1.17-.298-1.737-.299l.113-.035zm-68.293 14.828c-.128 0-.295.042-.509.12-.429.157-1.063.508-1.887 1.018-.824.511-1.83 1.165-2.905 2.097-1.075.934-2.229 2.137-3.175 3.445-.947 1.307-1.694 2.736-2.306 4.103-.613 1.369-1.092 2.679-1.378 4.014-.286 1.334-.393 2.684-.42 3.984-.027 1.301.023 2.552.18 3.654.156 1.103.435 2.052.749 2.876.313.824.661 1.533.988 2.037.327.504.613.812.839.988.224.177.397.209.479.12.082-.088.09-.289-.06-.629s-.474-.808-.808-1.408c-.334-.599-.695-1.341-.899-1.947-.204-.606-.257-1.089-.359-1.947-.103-.858-.233-2.098-.24-3.384-.008-1.287.132-2.61.479-4.074s.89-3.066 1.558-4.523c.667-1.457 1.448-2.782 2.456-4.014 1.007-1.233 2.249-2.361 3.325-3.205 1.075-.844 1.991-1.392 2.726-1.827.735-.435 1.304-.764 1.528-.988.225-.224.104-.337-.059-.419-.082-.041-.172-.089-.3-.09zm-23.78 4.373c-.619.001-1.243.051-1.917.18-1.348.259-2.827.768-3.984 1.558-1.158.79-2.018 1.876-2.576 3.265-.559 1.389-.809 3.066-.809 4.673 0 1.606.272 3.123.749 4.403.477 1.28 1.141 2.331 1.917 3.325.776.994 1.667 1.936 2.157 3.025.491 1.09.586 2.336.3 3.384-.286 1.049-.972 1.901-1.707 2.337-.735.436-1.519.43-2.186.24-.667-.191-1.203-.55-1.707-1.108l-1.497-1.887c-.518-.572-1.087-.964-1.767-1.168-.681-.204-1.473-.207-2.276-.03-.803.176-1.629.536-2.337 1.108-.708.571-1.296 1.342-1.827 2.186-.531.844-.981 1.743-1.497 2.247-.518.503-1.114.61-1.767.569-.654-.041-1.367-.229-1.858-.569-.491-.341-.749-.828-.899-1.318-.15-.491-.201-.978-.12-1.467.082-.491.291-.978.51-1.467-.681.299-1.364.615-1.827 1.078-.464.463-.681 1.089-.75 1.648-.068.558.038 1.046.27 1.618.231.571.568 1.212 1.168 1.797.599.586 1.457 1.103 2.396 1.348.939.244 1.972.231 2.966 0 .994-.232 1.95-.67 2.726-1.528.775-.858 1.359-2.143 1.767-3.056.408-.913.651-1.463 1.018-1.858s.873-.643 1.528-.629c.653.013 1.441.305 1.917.808.476.504.648 1.212.839 1.947.191.736.392 1.497.719 2.097.327.599.762 1.04 1.348 1.408.585.368 1.34.637 2.157.719.817.082 1.691-.006 2.576-.359.885-.354 1.775-.956 2.456-1.677.681-.722 1.171-1.565 1.348-2.546.176-.981.046-2.118-.39-3.235-.435-1.117-1.188-2.213-1.976-3.235-.79-1.021-1.614-1.947-2.337-2.846-.722-.898-1.331-1.781-1.767-2.666-.435-.885-.716-1.772-.688-2.726.027-.953.351-1.955.868-2.935.517-.981 1.236-1.95 1.917-2.576.68-.626 1.337-.928 1.976-1.078.64-.15 1.258-.15 1.707 0 .45.15.722.441 1.198.51.476.067 1.163-.077 1.707-.24.544-.164.956-.338 1.378-.27.422.069.849.373 1.258.959.408.586.809 1.454 1.108 2.666.3 1.212.493 2.772.479 4.433-.013 1.661-.245 3.428-.3 5.062-.055 1.634.065 3.117.569 4.493.504 1.375 1.395 2.636 2.456 3.684 1.062 1.049 2.32 1.901 3.504 2.337 1.185.436 2.276.458 3.175.39s1.586-.239 2.157-.659c.571-.421 1.037-1.09 1.497-1.767-.488-.058-.986-.121-1.707-.299-.72-.179-1.666-.472-2.756-.839-1.09-.368-2.315-.79-3.295-1.198-.981-.408-1.723-.796-2.337-1.258-.612-.463-1.102-1.016-1.348-1.737-.244-.723-.223-1.611-.059-2.905.164-1.294.469-2.992.659-4.912.191-1.92.253-4.074.09-5.721-.163-1.648-.55-2.785-1.108-3.684-.559-.899-1.274-1.563-2.186-2.216-.912-.654-2.018-1.305-3.175-1.618-.579-.157-1.178-.21-1.797-.21l.002-.002zm28.247.988c-.257.017-.51.129-.658.39-.199.347-.251.933-.12 1.797.131.865.433 2.012.749 3.115.315 1.103.667 2.188.929 3.025.261.837.436 1.438.629 2.037.037-.545.087-1.097.089-1.737.002-.64-.047-1.394-.059-2.157-.013-.763.019-1.544.03-2.306.008-.763-.009-1.49-.059-2.097-.052-.607-.137-1.091-.359-1.438-.223-.348-.581-.568-.929-.63h-.24zm6.41 2.337c-.237.317-.468.622-.809 1.108-.34.487-.779 1.146-1.139 1.827-.358.681-.641 1.38-.839 2.097-.197.717-.324 1.459-.359 1.976-.035.52.03.82.24 1.139.209.318.575.652 1.018.75.444.097.947-.039 1.438-.18s.976-.297 1.438-.45c-.122.481-.243.96-.299 1.467-.058.508-.059 1.032.12 1.497.177.466.521.878 1.018 1.078.497.201 1.135.201 1.917-.03.781-.231 1.724-.693 2.516-1.139.791-.445 1.437-.857 2.007-1.378.569-.521 1.051-1.147 1.528-1.767-.412-.472-.829-.964-1.288-1.258-.46-.294-.96-.392-1.467-.509.043-.444.077-.91.059-1.408-.015-.498-.088-1.028-.24-1.558-.151-.53-.375-1.05-.599-1.558-.59-.011-1.169-.031-1.707 0s-1.031.105-1.438.21c-.406.104-.751.254-1.078.389-.298-.554-.589-1.113-.929-1.497-.339-.384-.727-.594-1.108-.809l.001.001zm-11.502.929c-.325.293-.622.599-.868 1.049-.247.45-.43 1.072-.599 1.677-.349-.059-.69-.138-1.108-.15-.42-.011-.907.032-1.438.12-.532.089-1.103.219-1.677.359-.106.545-.24 1.097-.269 1.648-.031.551.025 1.097.12 1.587.092.49.248.925.389 1.348-.469.226-.964.45-1.348.839-.384.389-.661.947-.959 1.497.601.499 1.187.995 1.858 1.378.67.382 1.407.639 2.276.899.87.26 1.883.516 2.695.568.814.054 1.446-.083 1.887-.389.44-.305.678-.765.749-1.258.071-.494-.042-1.015-.21-1.497-.168-.482-.374-.935-.599-1.378.484.046.959.09 1.467.12.51.03 1.057.043 1.467-.15.411-.193.676-.572.809-.929.133-.356.119-.67-.03-1.168-.149-.497-.429-1.202-.779-1.858-.35-.656-.757-1.272-1.258-1.858-.5-.585-1.088-1.128-1.528-1.528-.439-.4-.747-.672-1.049-.929v.001zm83.064 7.878c.055.572.114 1.151-.09 1.737-.204.586-.68 1.168-1.049 1.618-.367.45-.626.763-.898.899s-.569.095-1.018.599c-.45.504-1.056 1.558-1.737 2.306-.682.749-1.438 1.198-3.235 1.797s-4.632 1.342-6.47 1.887c-1.838.544-2.658.904-3.475 1.258l.288 1.629c-1.47.544-2.954 1.099-4.343 1.767-1.389.667-2.707 1.459-3.714 2.127-1.007.667-1.719 1.198-2.127 1.648-.408.45-.515.827-.42 1.018.096.191.417.22 1.139-.269.722-.491 1.857-1.519 3.205-2.337 1.349-.818 2.883-1.445 4.014-1.827 1.13-.381 1.868-.494 2.577-.63l.149 1.139c1.525-.244 3.064-.484 4.494-.389 1.429.096 2.744.515 3.684 1.168.939.654 1.495 1.513 1.767 2.276.273.763.265 1.444.21 2.097-.055.654-.147 1.282-.12 1.827.028.544.18 1.002.479 1.139.3.136.738-.027 1.078-.15.34-.123.58-.216.839.03.259.245.526.822.54 1.408.013.586-.229 1.168-.569 1.618-.34.45-.771.754-1.139 1.108-.368.355-.664.781-.569 1.108.096.327.583.561 1.318.479.735-.082 1.71-.503 2.486-1.198.776-.695 1.364-1.664 1.677-2.726.313-1.062.343-2.192.18-3.295-.164-1.103-.523-2.192-1.258-3.145-.736-.953-1.821-1.797-2.816-2.546-.994-.749-1.898-1.389-2.905-1.797-1.007-.408-2.132-.574-3.235-.629-1.103-.055-2.206.003-2.995.03-.79.028-1.277.03-1.767.03l-.24-.419c1.389-.164 2.793-.316 4.373-.33 1.58-.013 3.324.106 5.122.42 1.797.312 3.624.82 5.421 1.528 1.797.707 3.575 1.639 5.331 2.756 1.757 1.117 3.507 2.407 5.182 3.414 1.675 1.007 3.284 1.737 4.822 2.037 1.539.299 3.015.185 4.103-.21 1.09-.395 1.775-1.083 2.157-1.887.381-.803.46-1.732.269-2.426-.191-.695-.643-1.154-1.078-1.618-.109.381-.213.768-.54 1.108-.327.34-.882.632-1.618.809-.735.176-1.652.234-2.306.179-.654-.055-1.035-.226-1.198-.389-.163-.164-.117-.327-.089-.599.028-.272.024-.648-.18-.839-.204-.191-.599-.174-1.648-.269-1.049-.096-2.739-.306-4.074-.51-1.334-.204-2.32-.41-3.804-.928-1.485-.518-3.461-1.353-5.272-2.007-1.812-.654-3.45-1.136-5.002-1.408-1.553-.272-3.022-.333-4.343-.359-1.321-.027-2.505-.019-3.445.089-.939.109-1.639.333-2.007.359-.367.028-.392-.141-.12-.359s.833-.493 1.827-.778c.994-.287 2.415-.572 3.954-.749 1.539-.177 3.197-.251 4.763-.51 1.566-.259 3.06-.721 4.313-1.348 1.253-.626 2.279-1.421 2.905-2.456.627-1.035.831-2.298.749-3.265-.082-.967-.451-1.615-.928-2.186-.477-.571-1.046-1.068-1.618-1.558l.042-.103zm-75.453.779c-.54.01-1.02.113-1.467.269-.449.156-.867.383-1.258.689-.39.305-.75.678-1.018 1.078-.268.401-.421.828-.509 1.198-.088.37-.124.687-.09.959.034.271.122.488.21.719.278-.218.573-.423.868-.629.295-.207.582-.42.839-.54.257-.12.478-.146.689-.179.211-.035.423-.062.689-.031.265.032.586.131.898.27.312.139.614.308.868.568.255.262.448.587.569.899.123.312.183.63.18.929-.005.298-.053.59-.09.868l-.09.778c-.034.244-.102.482-.15.719.333-.135.684-.285 1.078-.539.394-.255.828-.632 1.198-1.049.37-.418.656-.867.839-1.318.183-.451.287-.899.269-1.378-.015-.478-.14-1-.299-1.438-.159-.438-.378-.783-.629-1.108-.251-.326-.546-.635-.869-.899-.322-.265-.673-.483-1.139-.629-.465-.146-1.048-.219-1.587-.21l-.001.001zm14.771 2.216c-.607.047-1.315.169-2.066.299-.751.131-1.552.249-2.306.359-.754.111-1.466.224-2.097.33-.632.105-1.176.204-1.707.33.623.093 1.258.207 2.127.33.869.122 1.975.256 3.115.389 1.141.133 2.3.249 3.175.24.875-.011 1.488-.137 1.797-.389.31-.253.328-.626.21-.959-.118-.334-.4-.615-.779-.779-.38-.164-.861-.197-1.468-.15zm21.748 1.078c-.041 1.13-.067 2.267-.21 3.295s-.4 1.944-.809 2.816c-.408.871-.99 1.687-1.827 2.606-.837.919-1.927 1.956-2.995 2.876-1.069.919-2.096 1.729-2.995 2.695-.898.967-1.681 2.101-1.947 3.115-.265 1.014-.013 1.904.3 2.516.313.613.683.945 1.078 1.108.395.163.816.173 1.108.03.293-.143.476-.453.599-.868l.299-1.408c.129-.456.339-.835.809-1.467.47-.634 1.214-1.5 2.127-2.276.912-.776 1.999-1.442 2.905-2.157.906-.715 1.606-1.477 2.247-2.396.64-.919 1.204-1.998 1.558-3.025.355-1.028.498-2.03.389-2.935-.108-.906-.474-1.714-.959-2.456-.483-.743-1.078-1.413-1.677-2.067v-.002zm-38.254 1.618c-.133-.009-.289.011-.419.03-.518.075-.96.376-1.198.689-.239.312-.264.63-.27.868-.008.239.011.386-.12.658-.129.273-.389.67-.839 1.078-.449.409-1.088.828-1.707 1.168-.619.341-1.229.597-1.767.719-.538.123-1.001.125-1.497.09-.496-.034-1.032-.111-1.467-.179-.435-.069-.768-.112-1.108-.18.055.395.09.784.24 1.139s.392.668.719.988c.327.32.76.632 1.168.959-.191.082-.389.162-.539.359-.151.197-.255.527-.33.929-.075.402-.11.88-.09 1.288.021.408.104.745.09 1.078-.013.334-.13.678-.24 1.018.3-.082.599-.159.898-.18.3-.02.583-.001 1.018.06.436.061 1.024.15 1.528.09.504-.061.935-.281 1.288-.54.355-.259.627-.555.899-.868.082.15.159.295.33.479.17.184.422.389.749.539.327.15.741.242 1.108.27.368.027.708-.003 1.049-.031-.272-.626-.563-1.258-.719-1.858-.157-.599-.2-1.164-.18-1.797.021-.633.129-1.318.3-2.067.17-.749.428-1.572.658-2.186.232-.613.419-1.017.63-1.228.211-.21.427-.229.658-.329.232-.101.496-.293.659-.599.163-.307.227-.728.179-1.108-.047-.381-.218-.73-.599-.988-.286-.195-.678-.334-1.078-.359l-.001-.001zm9.643.059c-.541-.022-.966.076-1.318.269-.47.259-.776.685-.899 1.168-.122.484-.085 1.03.031 1.528.115.497.302.945.479 1.408-.476-.095-.964-.188-1.467-.269-.504-.082-1.008-.15-1.438 0-.429.15-.758.528-.929.868-.17.34-.185.658-.09 1.168.096.511.29 1.199.569 1.887.279.688.642 1.374 1.078 2.007.436.634.953 1.235 1.348 1.677.395.443.657.703.929.988.354-.259.696-.506.988-.928.292-.423.547-1.002.778-1.587.34.095.663.185 1.078.24.415.055.93.063 1.467.03.538-.035 1.121-.098 1.707-.18.164-.531.301-1.073.389-1.618.089-.544.101-1.121.06-1.618-.04-.497-.114-.912-.21-1.348.491-.176.985-.371 1.408-.719.423-.347.754-.861 1.108-1.378-.544-.558-1.081-1.108-1.707-1.558-.626-.449-1.319-.791-2.157-1.139-.838-.347-1.833-.703-2.636-.839-.2-.034-.388-.052-.569-.059h.001zm-22.707.12c-.261.013-.509.035-.719.09-.421.108-.744.334-.988.629s-.397.665-.359 1.049c.037.383.26.755.569.959.309.204.69.223 1.139.21.448-.013.967-.055 1.528-.18.56-.126 1.168-.308 1.827-.539.659-.231 1.357-.489 1.917-.689l1.468-.539c.485-.171 1.038-.343 1.587-.54-.354-.047-.701-.096-1.139-.12l-1.587-.059c-.621-.028-1.356-.096-2.127-.15-.771-.054-1.584-.096-2.247-.12-.332-.011-.608-.011-.868 0zm14.943 5.272c-.055.599-.111 1.199-.18 2.037-.067.838-.149 1.922-.209 3.025-.062 1.103-.099 2.221-.031 3.085.068.865.261 1.48.54 1.827.279.348.655.451.988.389.334-.061.606-.282.749-.629.143-.347.149-.831.06-1.438-.089-.606-.266-1.334-.45-2.097-.184-.762-.376-1.574-.54-2.337-.163-.762-.299-1.487-.449-2.127-.151-.639-.316-1.192-.479-1.737v.001zm46.574 3.295c-.9.121-1.791.235-3.056.569-1.264.335-2.892.879-4.403 1.438-1.512.559-2.904 1.119-3.954 1.677-1.05.559-1.746 1.13-2.396 1.587-.65.457-1.252.821-1.737 1.288-.487.467-.883 1.035-1.139 1.618-.255.583-.383 1.173-.479 1.858-.097.683-.158 1.458.03 2.127.188.669.622 1.214.988 1.648.366.433.66.75.959 1.049l.33.3c.299.298.585.592 1.018.959.433.365 1.008.8 1.677.988.669.187 1.443.126 2.127.03.683-.097 1.275-.224 1.858-.479.583-.255 1.15-.622 1.618-1.108.467-.487.83-1.087 1.288-1.737.457-.65.999-1.347 1.558-2.396.559-1.05 1.119-2.442 1.677-3.954.559-1.512 1.131-3.142 1.467-4.403.337-1.261.444-2.16.569-3.056v-.002zm-52.718 4.505c-.354.45-.705.912-.868 1.497-.164.586-.12 1.309.03 2.127.15.818.412 1.716.569 2.546.156.831.194 1.598.03 2.157-.164.559-.522.91-.958 1.168-.436.259-.943.414-1.318.359-.375-.055-.616-.312-.569-.898.048-.586.401-1.493.659-2.276.258-.783.429-1.441.539-2.216.109-.776.151-1.662.09-2.337-.061-.675-.226-1.139-.389-1.587-.259.476-.517.947-.959 1.587-.443.64-1.088 1.447-1.707 2.216-.62.77-1.236 1.522-1.467 2.367-.232.843-.061 1.777.15 2.546.211.77.487 1.366 1.168 1.767.681.402 1.758.622 2.935.629 1.178.007 2.456-.203 3.504-.659 1.049-.456 1.861-1.166 2.276-1.976.415-.811.411-1.709.03-2.696-.382-.987-1.145-2.071-1.737-2.876-.592-.803-1.011-1.327-1.318-1.858-.307-.531-.498-1.07-.689-1.587zm21.145.389c-.469.052-.991.239-1.558.659-.567.421-1.187 1.102-1.797 1.767.434.299.878.595 1.258.959.38.363.7.781 1.018 1.168.319.387.649.722.988.929.339.207.705.286.959.299.255.013.391-.014.479-.12.088-.104.106-.281.09-.389l-.12-.479c-.061-.306-.121-.852-.09-1.378.031-.526.143-1.009.33-1.467.186-.458.43-.89.689-1.318-.319-.17-.622-.358-.988-.479-.367-.122-.79-.2-1.258-.15v-.001zm3.714.54l-.21.059c-.265.13-.573.45-.809.839-.236.39-.389.842-.389 1.438s.147 1.365.33 2.097c.183.732.39 1.423.809 2.247.419.823 1.056 1.755 1.797 2.756.742 1.002 1.601 2.069 2.486 2.966.886.896 1.791 1.618 2.306 2.037.515.42.634.543.749.659l.299.299c.116.116.241.234.659.75.419.515 1.142 1.421 2.037 2.306.895.886 1.964 1.744 2.966 2.486 1.002.742 1.932 1.378 2.756 1.797.823.419 1.545.626 2.276.808.731.183 1.47.33 2.067.33.597 0 1.048-.153 1.438-.389.39-.236.739-.543.868-.809.13-.265.053-.473-.15-.569-.202-.096-.541-.076-.839.031-.298.105-.559.286-.958.329-.4.044-.942-.047-1.587-.24s-1.402-.478-2.337-1.018c-.934-.539-2.052-1.325-3.145-2.216-1.093-.89-2.162-1.881-2.995-2.666-.833-.784-1.419-1.359-2.007-1.946l-.3-.33c-.587-.588-1.192-1.174-1.976-2.007-.784-.833-1.745-1.903-2.636-2.995-.89-1.093-1.707-2.211-2.247-3.145-.539-.935-.796-1.691-.988-2.337-.193-.646-.312-1.158-.269-1.558.043-.4.223-.69.33-.988.105-.299.127-.607.03-.809-.072-.151-.183-.233-.359-.21v-.002zm32.886 2.247c-.706.013-1.445.153-2.216.419-1.028.355-2.106.918-3.025 1.558s-1.681 1.371-2.396 2.276c-.715.906-1.38 1.994-2.157 2.906-.776.912-1.674 1.656-2.306 2.126-.633.47-1.011.65-1.467.779l-1.408.33c-.415.122-.726.306-.868.599-.143.293-.104.683.059 1.078.164.395.466.795 1.078 1.108.612.313 1.532.535 2.546.269 1.014-.266 2.118-1.019 3.085-1.917.967-.899 1.777-1.927 2.695-2.995.919-1.069 1.956-2.187 2.876-3.025.919-.838 1.735-1.419 2.606-1.827.872-.408 1.788-.635 2.816-.779 1.028-.142 2.164-.198 3.295-.24-.654-.599-1.295-1.194-2.037-1.677-.742-.483-1.581-.849-2.486-.959-.226-.027-.453-.034-.688-.03h-.002zm-37.017 3.684c-1.035.708-2.061 1.429-3.205 2.247-1.143.817-2.413 1.753-4.223 2.516-1.812.763-4.173 1.356-6.829 1.887-2.655.531-5.612 1.005-8.717 1.318-3.105.313-6.355.471-9.405.839-3.05.368-5.884.923-9.165 1.618-3.282.695-7.031 1.516-10.093 2.456-3.063.939-5.451 2.012-7.698 3.265-2.247 1.253-4.334 2.682-6.65 4.493-2.315 1.811-4.852 4.006-6.949 6.32-2.097 2.315-3.766 4.77-5.032 7.099-1.266 2.328-2.121 4.534-2.666 6.89-.544 2.356-.771 4.863-.689 7.069.082 2.206.454 4.106.959 5.931.504 1.825 1.138 3.565 1.737 4.912.599 1.349 1.176 2.312 2.007 3.414.831 1.103 1.914 2.355 3.235 3.445 1.321 1.09 2.864 2.01 4.553 2.785 1.689.776 3.504 1.402 5.152 1.648 1.648.245 3.142.114 4.313-.09 1.171-.204 2.04-.484 2.816-.839.776-.354 1.445-.792 2.127-1.228l-2.516-2.367c-1.225.491-2.461.966-3.864 1.198-1.402.232-2.99.202-4.433-.179-1.444-.381-2.744-1.1-3.834-1.917-1.09-.818-1.95-1.734-2.726-3.205-.776-1.47-1.462-3.485-1.858-5.392-.395-1.906-.522-3.682-.359-5.301.164-1.621.602-3.101 1.228-4.612.626-1.512 1.441-3.053 2.367-4.373.926-1.321 1.985-2.438 3.115-3.295 1.13-.858 2.352-1.465 3.714-1.887 1.362-.423 2.846-.651 4.343-.868-.898-.436-1.784-.858-2.846-1.049-1.062-.191-2.296-.148-3.535.179-1.239.327-2.497.926-3.355 1.497-.858.572-1.304 1.133-1.767 1.677-.163-.382-.351-.765-.719-.929-.368-.164-.931-.13-1.707.359-.776.491-1.745 1.416-2.426 2.546s-1.068 2.488-1.108 3.714c-.04 1.226.266 2.322.389 3.085.123.763.056 1.179 0 1.587-.272-.272-.547-.547-.928-.479-.382.068-.88.472-1.139 1.288-.259.818-.281 2.042-.09 3.295.191 1.253.601 2.53 1.078 3.565.477 1.035 1.016 1.836 1.438 2.516.422.682.728 1.25.809 1.618.082.368-.036.547-.24.479-.204-.068-.49-.386-.899-.958-.408-.571-.947-1.402-1.438-2.396-.49-.994-.931-2.143-1.258-3.504-.327-1.362-.544-2.941-.599-4.493-.055-1.553.046-3.09.359-4.793.313-1.702.833-3.562 1.378-5.032.544-1.47 1.121-2.535 2.007-3.624.886-1.09 2.096-2.225 3.445-3.056 1.348-.831 2.849-1.361 3.924-1.797 1.075-.435 1.718-.753 2.127-1.258.408-.503.571-1.188.599-1.677.027-.49-.092-.797-.419-.988-.327-.191-.858-.28-1.348-.389-.491-.109-.918-.24-1.108-.389-.191-.15-.14-.305.269-.509.408-.205 1.148-.45 2.157-.45 1.007 0 2.262.231 3.325.45 1.062.218 1.933.422 2.396.449.463.028.525-.104.539-.389.013-.286-.015-.74.12-.958.136-.218.428-.207.959.12.531.327 1.305.964 2.067 1.618.763.654 1.538 1.312 2.396 1.707.859.395 1.794.529 2.516.569.722.041 1.206.006 1.587-.24.381-.245.667-.683 1.198-.929.531-.244 1.321-.291 2.247-.509.926-.218 1.976-.618 2.577-.958.599-.34.75-.645 1.049-.809.3-.163.774-.166 1.018-.479.245-.313.257-.939.12-1.648-.135-.707-.441-1.506-.658-2.037-.218-.531-.362-.797-.24-.988.123-.19.533-.315.778-.629.245-.313.343-.796.031-1.408-.313-.612-1.049-1.348-1.797-1.797-.75-.45-1.508-.605-2.516-.658-1.007-.055-2.274-.009-2.995-.09-.723-.082-.913-.291-.899-.509.013-.219.229-.463.868-.75.64-.286 1.713-.639 2.966-.898 1.253-.259 2.688-.411 4.103-.33 1.417.082 2.807.42 4.074 1.018 1.266.599 2.415 1.476 3.355 2.306.94.831 1.688 1.609 2.396 2.127.708.518 1.364.75 1.827.899.463.15.733.201 1.018.419.286.218.61.621.868.689.26.068.439-.172.63-.389.19-.218.392-.427.719-.359.327.068.778.395 1.677.45.898.054 2.232-.148 2.995-.42.762-.272.953-.602 1.049-1.078.095-.476.095-1.108 0-1.558-.095-.45-.272-.738-.3-.929-.027-.191.087-.296.359-.569.272-.272.681-.707.749-1.198.068-.491-.193-1.027-.629-1.558-.435-.531-1.035-1.059-1.648-1.467-.612-.408-1.242-.682-1.528-.928-.286-.245-.242-.46.18-.569.422-.109 1.237-.109 2.216 0 .981.108 2.137.343 3.445.778 1.307.435 2.764 1.065 4.044 1.528 1.281.463 2.38.754 3.265.809.885.055 1.538-.123 1.947-.45.408-.327.571-.811.749-1.139.176-.327.37-.506.778-.629.409-.123 1.048-.163 1.797-.599.75-.435 1.626-1.266 2.007-1.797.381-.531.248-.771-.12-1.139-.367-.368-.991-.858-1.618-1.348.791-.518 1.579-1.04 2.636-1.707 1.057-.667 2.384-1.487 3.235-2.127.851-.64 1.239-1.095 1.618-1.558l-1.348-.839-.002-.002zm2.695 1.078c-.36.035-.88.22-1.348.539-.469.319-.888.751-1.139 1.168-.251.418-.341.829-.419 1.168l-.21.899c.258.075.504.144.898.299l1.497.599c.567.221 1.181.441 1.737.569.557.129 1.058.174 1.438.12.381-.055.635-.215.719-.45.085-.234-.013-.532-.24-.898-.227-.366-.595-.796-.959-1.288-.363-.492-.695-1.04-.898-1.467l-.39-.959c-.125-.218-.329-.334-.688-.3h.001zm10.754 1.018c-.216.302-.432.617-.689 1.018-.257.401-.542.895-.809 1.378-.265.482-.51.942-.539 1.288-.029.345.14.573.33.749.19.175.398.32.629.479.231.159.489.347.749.54.197.264.408.516.569.749.161.232.274.439.45.629.174.19.403.358.749.33.345-.029.806-.272 1.288-.54.483-.266.977-.552 1.378-.808.401-.257.716-.473 1.018-.689l-.779-.749c-.302-.298-.655-.657-.928-.959-.273-.302-.457-.549-.63-.779l-.299-.299c-.23-.173-.476-.326-.779-.599-.302-.274-.66-.657-.959-.958l-.749-.779zm-6.65 4.612c-.376.241-.776.478-1.108.868-.333.39-.608.949-.689 1.618-.081.669.044 1.457.15 2.247.106.79.176 1.574.24 2.186.064.612.109 1.052.15 1.497.446.042.914.086 1.528.15.612.064 1.367.134 2.157.24.789.106 1.607.232 2.276.15.669-.082 1.198-.358 1.587-.689.389-.333.628-.704.868-1.078-.395-.337-.779-.68-1.198-1.108-.419-.428-.866-.96-1.198-1.408-.333-.448-.557-.822-.779-1.198l-.299-.3c-.376-.221-.75-.447-1.198-.778-.448-.333-.98-.779-1.408-1.198-.428-.419-.742-.804-1.078-1.198zm33.912 2.337c-1.74.016-3.428.242-5.062.599-2.179.476-4.239 1.179-5.901 1.887-1.661.708-2.933 1.408-3.804 2.007-.871.599-1.337 1.097-1.827 1.587h2.516c1.035-.599 2.077-1.195 2.935-1.618.858-.423 1.536-.67 2.666-1.078 1.13-.408 2.72-.978 4.164-1.318 1.444-.34 2.747-.45 4.014-.45 1.266 0 2.494.109 4.074.45 1.58.34 3.515.904 5.272 1.707 1.757.803 3.338 1.843 4.822 3.056s2.867 2.608 3.984 4.133 1.95 3.194 2.576 4.883c.626 1.689 1.051 3.39 1.228 4.643.176 1.253.101 2.05-.09 2.785-.19.735-.496 1.421-.809 2.007-.312.586-.629 1.056-.778 1.587-.15.531-.139 1.114-.03 1.767.108.654.324 1.399.569 1.767.244.367.514.343.868.179.354-.163.778-.49 1.078-.599.299-.108.484.011.539.569.055.559.003 1.558-.179 2.456-.183.899-.504 1.691-1.049 2.726-.544 1.035-1.321 2.317-2.037 3.475-.716 1.157-1.364 2.195-1.677 3.025-.313.831-.297 1.46-.12 1.827.176.368.503.472.749.54.245.068.392.09.419.24.028.15-.059.438-.059.929 0 .491.112 1.201.179 1.827.069.626.09 1.176.09 1.558 0 .381-.03.58.12.688.15.109.482.115.958.06.476-.055 1.1-.169 1.618-.509.518-.341.915-.896 1.228-1.018.313-.123.534.19.629.599.096.408.063.892-.059 1.587-.123.694-.335 1.617-.24 2.516.096.898.519 1.775 1.078 2.606.558.83 1.263 1.606 1.767 1.947.504.34.793.247 1.078.03.286-.218.564-.561.809-.629.244-.069.446.152 1.018.629.571.476 1.503 1.217 2.306 1.707.803.49 1.492.725 2.337.778.844.055 1.862-.073 2.516-.359.654-.286.956-.724 1.228-.928.272-.204.515-.188 1.018-.27.504-.082 1.269-.274 2.127-.778.858-.504 1.789-1.329 2.456-2.337.667-1.007 1.046-2.206 1.018-3.295-.028-1.09-.452-2.061-1.078-2.756-.627-.695-1.451-1.106-2.037-1.228-.586-.123-.935.046-1.288.21.38.49.756.988 1.139 1.438.38.449.784.843.988 1.348.204.503.228 1.121-.18 1.858-.408.735-1.25 1.59-2.216 2.216-.967.626-2.061 1-3.205 1.108-1.143.108-2.347-.055-3.504-.45s-2.29-1.018-3.325-1.917c-1.035-.899-1.982-2.059-2.785-3.175-.803-1.117-1.435-2.167-1.858-3.175-.422-1.007-.637-1.96-.719-3.594-.082-1.634-.043-3.959.12-6.26.163-2.301.466-4.583.629-6.979.164-2.396.194-4.901.031-7.039-.164-2.137-.518-3.923-1.198-6.02-.681-2.097-1.699-4.515-3.115-6.68-1.417-2.165-3.243-4.065-5.272-5.631-2.029-1.566-4.261-2.802-6.59-3.714-2.328-.913-4.744-1.5-7.099-1.677-.589-.044-1.188-.065-1.767-.06l.001.001zm-36.931 4.493c-.135.578-.273 1.133-.629 1.797-.357.664-.924 1.432-1.467 1.947-.544.516-1.047.779-1.408.929-.361.149-.576.184-.899.179-.322-.005-.767-.04-1.108-.21-.342-.168-.589-.47-.839-.778-.029.588-.057 1.183.15 1.707s.656.986 1.108 1.228c.453.242.914.249 1.379.269.023.467.057.923.299 1.378.242.454.704.901 1.228 1.108.524.207 1.09.179 1.677.15-.308-.25-.611-.497-.779-.839-.168-.341-.174-.785-.179-1.108-.005-.322-.001-.507.15-.868.15-.361.444-.893.959-1.438.516-.543 1.253-1.112 1.917-1.468.664-.356 1.249-.495 1.827-.629-.26-.126-.526-.246-.868-.3-.342-.053-.772-.028-1.168 0-.397.028-.77.056-1.139.09.036-.368.092-.742.12-1.139.028-.396.022-.826-.03-1.168-.053-.341-.174-.579-.3-.839l.001.001zm11.109 1.228l-.21.03c-.234.085-.395.339-.45.719-.055.381-.009.912.12 1.467.129.557.349 1.141.569 1.707.22.567.443 1.104.599 1.497.156.394.255.641.33.899l.898-.21c.34-.078.721-.169 1.139-.42.418-.251.849-.639 1.168-1.108.319-.468.536-1.018.569-1.378.035-.359-.112-.533-.33-.659l-.928-.389c-.428-.204-1.006-.565-1.497-.929-.493-.363-.922-.731-1.288-.959-.275-.171-.487-.272-.689-.269l-.001.001zm11.655 3.235c-.428.258-.86.532-1.318.719-.458.187-.942.299-1.468.33-.526.031-1.102-.029-1.408-.09-.306-.06-.34-.132-.45-.15-.108-.016-.284.003-.389.09-.105.088-.164.254-.15.509.013.254.092.618.299.959.207.339.542.639.929.958.387.319.835.637 1.198 1.018.363.38.659.823.959 1.258.665-.612 1.316-1.23 1.737-1.797.421-.566.608-1.089.659-1.558.051-.469-.028-.862-.151-1.228-.122-.366-.279-.7-.449-1.018zm15.604.419c-.256-.025-.529.068-.719.3-.252.31-.38.892-.389 1.767-.011.875.106 2.035.24 3.175.133 1.141.297 2.246.419 3.115.123.869.207 1.504.3 2.127.126-.531.254-1.076.359-1.707.105-.632.189-1.342.299-2.097.111-.754.259-1.525.389-2.276.131-.751.252-1.49.3-2.097.047-.607.014-1.088-.15-1.467-.164-.38-.475-.66-.809-.779l-.24-.059zm-22.285.929c-.463.379-.948.737-1.587 1.587-.64.851-1.429 2.178-2.097 3.235-.667 1.057-1.189 1.846-1.707 2.636-.49-.626-.981-1.25-1.348-1.618-.368-.367-.637-.471-1.168-.089-.531.382-1.331 1.258-1.767 2.007-.436.749-.507 1.359-.629 1.767-.123.408-.303.601-.629.778-.327.177-.782.34-1.108.749-.327.408-.534 1.062-.479 1.947.054.886.376 2.015.839 3.295.463 1.28 1.092 2.707 1.528 4.014.435 1.307.669 2.494.778 3.475.109.981.08 1.765-.03 2.186-.109.423-.294.466-.54.18-.244-.286-.549-.915-.959-1.528-.408-.612-.936-1.212-1.467-1.648-.531-.436-1.068-.697-1.558-.629-.49.068-.926.476-1.198.749-.272.272-.378.416-.568.389-.191-.028-.45-.234-.899-.33-.45-.095-1.081-.095-1.558 0-.476.096-.806.286-1.078 1.049-.272.763-.504 2.096-.45 2.995.055.899.382 1.38.45 1.707.068.327-.111.498-.33.689-.218.191-.457.401-.389.659l.66.868c.218.286.269.525.419.988.149.463.411 1.149.929 1.858.518.707 1.296 1.427 2.127 2.367.831.939 1.707 2.089 2.306 3.355s.907 2.657.988 4.074c.082 1.417-.071 2.851-.33 4.103-.259 1.253-.612 2.325-.898 2.966-.287.64-.501.855-.719.868-.219.013-.427-.177-.51-.899-.081-.722-.035-1.957-.089-2.966-.055-1.007-.21-1.767-.659-2.516-.45-.749-1.185-1.484-1.797-1.797-.612-.313-1.124-.215-1.438.031-.313.244-.438.626-.629.749s-.427-.021-.958-.24c-.531-.218-1.359-.523-2.067-.659-.708-.136-1.304-.095-1.618.15-.313.244-.346.718-.509 1.017-.164.3-.469.42-.809 1.018-.34.6-.71 1.651-.929 2.576-.218.927-.264 1.716-.509 2.247-.245.531-.683.818-.929 1.198-.245.382-.311.867-.269 1.587.041.722.174 1.688.569 2.546.395.859 1.053 1.604 1.707 2.367.654.763 1.321 1.536 1.648 2.067.327.531.308.822.089.959-.218.137-.642.106-.928.12-.287.013-.417.077-.39.54.027.463.202 1.334.42 2.396.218 1.062.479 2.317.479 3.325 0 1.007-.245 1.778-.45 2.186-.204.408-.389.46-.539.269-.15-.191-.281-.618-.39-1.108-.108-.49-.198-1.051-.389-1.378-.19-.327-.468-.447-.959-.419-.49.027-1.173.19-1.677.599-.503.408-.822 1.081-1.258 2.157-.435 1.075-.997 2.576-1.827 3.924-.83 1.348-1.936 2.529-3.025 3.414-1.09.885-2.154 1.462-3.624 2.007-1.47.544-3.361 1.065-5.062 1.378-1.702.312-3.21.413-4.763.359-1.553-.055-3.161-.272-4.523-.599-1.362-.327-2.481-.738-3.475-1.228-.994-.491-1.855-1.059-2.426-1.468-.571-.409-.861-.665-.928-.868-.069-.205.082-.352.449-.27.368.082.936.386 1.618.809.681.422 1.481.961 2.516 1.438 1.035.476 2.312.888 3.565 1.078 1.253.191 2.478.17 3.295-.09.818-.258 1.22-.756 1.288-1.139.068-.381-.207-.656-.479-.928.408-.055.825-.092 1.587.03.763.122 1.889.4 3.115.359 1.226-.041 2.553-.398 3.684-1.078 1.13-.682 2.056-1.68 2.546-2.456.491-.776.553-1.34.389-1.707-.163-.368-.546-.525-.928-.689.544-.463 1.075-.939 1.648-1.797.571-.858 1.171-2.115 1.497-3.355.327-1.239.4-2.442.209-3.504-.19-1.062-.642-1.976-1.078-2.876-.218 1.498-.416 3.012-.839 4.373-.422 1.362-1.058 2.584-1.917 3.714-.858 1.13-1.944 2.16-3.265 3.085-1.321.926-2.891 1.74-4.403 2.367-1.512.626-2.963 1.065-4.583 1.228-1.62.164-3.395.065-5.301-.33-1.907-.395-3.951-1.081-5.421-1.858-1.47-.776-2.358-1.666-3.175-2.756-.817-1.09-1.565-2.391-1.947-3.834-.381-1.444-.411-3.031-.179-4.433.231-1.402.738-2.608 1.228-3.834l-2.396-2.876c-.436.681-.874 1.38-1.228 2.157-.354.776-.635 1.645-.839 2.816-.204 1.171-.335 2.636-.09 4.284.244 1.648.871 3.463 1.648 5.152.776 1.689 1.697 3.262 2.785 4.583 1.09 1.321 2.342 2.404 3.445 3.235 1.103.831 2.067 1.408 3.414 2.007 1.349.599 3.087 1.203 4.912 1.707 1.825.504 3.725.907 5.931.988 2.206.082 4.713-.144 7.069-.689 2.356-.545 4.561-1.429 6.89-2.695 2.328-1.266 4.784-2.905 7.099-5.002 2.315-2.097 4.479-4.634 6.29-6.949 1.811-2.315 3.27-4.433 4.523-6.68 1.253-2.247 2.296-4.634 3.235-7.698.94-3.063 1.762-6.782 2.456-10.064.695-3.282 1.28-6.115 1.648-9.165.368-3.05.525-6.331.839-9.436.313-3.105.787-6.031 1.318-8.686.531-2.655 1.124-5.048 1.887-6.859.763-1.812 1.669-3.05 2.486-4.193.818-1.144 1.538-2.17 2.247-3.205l-.809-1.348.026.329zm16.87 1.15c-.518.355-1.03.716-1.378 1.139-.347.423-.512.918-.689 1.408-.435-.095-.881-.198-1.378-.24-.496-.04-1.073-.029-1.618.06-.544.088-1.056.256-1.587.419-.082.586-.175 1.169-.21 1.707-.034.539-.025 1.023.031 1.438.055.415.174.768.269 1.108-.586.232-1.195.456-1.618.75-.423.292-.67.634-.929.987.286.273.576.565 1.018.959.443.395 1.044.913 1.677 1.348.634.436 1.289.77 1.976 1.049.687.28 1.406.504 1.917.599.511.096.827.081 1.168-.089.34-.171.689-.5.839-.929.149-.428.081-.963 0-1.467-.082-.504-.174-.991-.269-1.468.463.176.94.363 1.438.479.496.115 1.014.183 1.497.059.483-.122.91-.428 1.168-.898.259-.47.345-1.114.21-1.917-.137-.803-.492-1.768-.839-2.606-.348-.838-.689-1.56-1.139-2.186-.45-.627-1-1.163-1.558-1.707l.003-.001zm10.179 1.288c-.619.476-1.246.959-1.767 1.528-.521.57-.933 1.245-1.378 2.037-.445.792-.937 1.704-1.168 2.486-.231.782-.23 1.421-.03 1.917.2.497.613.841 1.078 1.018.466.178.99.207 1.497.15.508-.058.987-.178 1.467-.3-.151.462-.278.917-.42 1.408-.141.491-.277.995-.179 1.438.097.443.401.81.719 1.018.317.209.65.275 1.168.24.519-.035 1.231-.162 1.947-.359.716-.197 1.416-.479 2.097-.839.681-.359 1.34-.797 1.827-1.139.486-.341.821-.571 1.139-.809-.215-.381-.454-.769-.839-1.108-.384-.34-.914-.631-1.467-.929.135-.327.256-.642.359-1.049.104-.405.179-.899.21-1.438.03-.538.01-1.146 0-1.737-.508-.223-.997-.448-1.528-.599-.531-.15-1.089-.222-1.587-.24-.498-.015-.935.046-1.378.09-.118-.507-.245-1.038-.54-1.497-.294-.459-.756-.876-1.228-1.288h.001zm-51.222.599c-.372.004-.769.027-1.168.06-.799.067-1.587.205-2.127.359-.54.153-.849.335-1.139.509 0-.269.027-.543-.33-.629-.357-.086-1.067 0-1.558.24-.491.241-.791.612-1.108.988-.317.376-.682.742-1.049 1.108l-.629-1.558c-.424 0-.844.005-1.497.12-.655.115-1.53.351-2.127.658-.597.309-.92.693-1.228 1.078l-.929-1.049c-.269.309-.528.614-1.049 1.018-.519.405-1.299.907-1.858 1.408-.558.501-.894 1.027-1.049 1.528-.154.501-.127.997-.09 1.497-.174-.096-.327-.208-.539-.15-.212.058-.465.276-.599.719-.135.443-.158 1.101-.12 2.007.038.905.12 2.067.12 3.145 0 1.078-.092 2.086-.42 2.876-.328.79-.877 1.348-1.377 1.618-.501.269-.944.25-1.078 0-.135-.25.03-.723.299-1.378.269-.655.644-1.493.779-2.186.134-.693.047-1.25-.031-1.827-.077-.578-.151-1.17-.209-1.767-.444.018-.874.024-1.288.15-.414.126-.814.368-1.198.599 0-.655.005-1.321-.12-1.947-.126-.626-.363-1.218-.719-1.767-.357-.548-.826-1.057-1.288-1.558-.404.328-.814.661-1.198.988-.386.328-.758.661-.988.988-.232.328-.324.661-.42.988-.25-.481-.505-.969-.929-1.528-.424-.558-1.005-1.19-1.707-1.528-.703-.336-1.513-.375-2.186-.509-.674-.135-1.228-.368-1.767-.599.078.424.173.835-.03 1.288-.202.452-.694.944-1.108 1.648-.414.703-.751 1.639-.809 2.216-.058.578.163.785.24.959.077.173.002.311-.21.33-.212.018-.554-.08-.958.21-.404.288-.866.969-1.078 1.797-.212.827-.176 1.813-.359 2.516-.183.703-.591 1.116-.659 1.858-.067.741.194 1.826.569 2.606.376.779.855 1.25 1.049 1.558.192.308.115.44.269.749.154.308.559.792 1.078 1.139s1.149.55 1.707.569l1.467-.12c.443.038.876.317 1.078.539.202.221.18.402-.06.45-.241.048-.704-.048-1.408 0-.703.048-1.635.249-2.396.509-.76.26-1.365.58-1.558.868-.193.289.032.527.09.719.058.193-.054.345-.419.75-.366.404-.997 1.076-.958 1.558.038.481.746.778 1.228 1.049.481.269.74.511 1.049.839.308.327.671.714 1.288.868.616.154 1.489.066 2.067-.03.577-.097.865-.181 1.049-.21.182-.029.245-.011-1.497 1.827-1.743 1.839-5.303 5.496-8.866 9.136l1.677 1.558.299.299 1.587 1.648c3.63-3.552 7.272-7.099 9.106-8.836 1.839-1.743 1.886-1.651 1.858-1.467-.029.183-.144.471-.24 1.049s-.184 1.421-.03 2.037c.154.616.571.981.898 1.288.328.309.569.567.839 1.049s.567 1.19 1.049 1.228c.482.039 1.153-.592 1.558-.958.404-.365.526-.447.719-.389.193.058.43.253.719.06.289-.194.639-.797.899-1.558s.431-1.663.479-2.367c.048-.704-.048-1.197 0-1.438.048-.242.258-.233.479-.031.221.202.471.606.509 1.049l-.12 1.468c.018.559.222 1.217.569 1.737s.83.925 1.139 1.078c.308.154.441.047.749.24.309.193.808.673 1.587 1.049.78.376 1.864.637 2.606.569.741-.067 1.124-.475 1.827-.658.703-.183 1.718-.118 2.546-.33.828-.212 1.478-.674 1.767-1.078.289-.404.22-.776.24-.988.018-.212.127-.287.3-.21.173.077.41.328.988.269.577-.058 1.484-.425 2.186-.839.703-.414 1.194-.876 1.648-1.078.451-.202.865-.136 1.288-.059-.231-.54-.435-1.063-.569-1.737-.135-.674-.202-1.484-.54-2.186-.336-.704-.969-1.314-1.528-1.737-.558-.425-1.016-.679-1.497-.929.328-.096.632-.188.959-.42.328-.231.661-.603.988-.988.328-.384.661-.794.988-1.198-.5-.462-1.009-.901-1.558-1.257-.548-.357-1.142-.624-1.767-.75-.626-.125-1.292-.12-1.947-.12.232-.385.474-.753.599-1.168.126-.414.13-.875.15-1.318-.597-.058-1.189-.103-1.767-.179-.577-.077-1.133-.195-1.827-.06-.693.135-1.502.509-2.157.779-.654.269-1.158.434-1.408.299-.25-.134-.269-.577 0-1.078.27-.5.828-1.051 1.618-1.378.79-.327 1.827-.419 2.905-.419 1.078 0 2.211.111 3.115.149.906.038 1.563.014 2.007-.12.444-.135.661-.387.719-.599.059-.212-.023-.396-.12-.569.501.039.998.094 1.497-.059.501-.154.997-.521 1.498-1.078.5-.559 1.003-1.337 1.407-1.858.405-.52.711-.779 1.019-1.049l-1.049-.929c.384-.308.77-.602 1.078-1.198.308-.597.542-1.502.659-2.157.115-.655.12-1.074.12-1.497l-1.558-.629c.366-.366.733-.731 1.108-1.049.376-.318.748-.588.988-1.078.241-.492.356-1.201.269-1.558-.086-.357-.359-.359-.629-.359.173-.289.355-.569.509-1.108.154-.54.263-1.328.33-2.127.067-.799.094-1.631.059-2.186-.034-.555-.109-.838-.179-1.139-.302-.071-.613-.145-1.168-.18-.278-.017-.617-.034-.988-.03h.003zm45.318 8.597c-.478-.015-.927.057-1.378.24-.451.183-.9.469-1.318.839-.418.37-.794.835-1.049 1.228-.254.394-.404.716-.539 1.049.237-.047.474-.085.719-.12l.778-.089c.278-.037.6-.086.899-.09.298-.002.586.028.898.15.312.122.637.314.899.569.261.254.459.587.599.898.139.312.238.603.269.869.031.266.006.508-.03.719-.035.21-.09.402-.21.658-.12.257-.303.573-.509.868-.208.295-.443.561-.659.839.231.088.477.176.749.21s.559.028.929-.059c.37-.089.797-.242 1.198-.51.401-.267.802-.658 1.108-1.049.306-.39.533-.779.689-1.228.156-.449.229-.958.24-1.497.011-.54-.035-1.122-.18-1.587-.146-.465-.394-.816-.659-1.139-.265-.322-.573-.617-.899-.868-.326-.251-.67-.439-1.108-.599-.438-.159-.958-.283-1.438-.299l.001-.001zm-15.183 2.367c-.239.007-.426.049-.599.12-.347.143-.567.446-.629.779-.061.334.042.709.389.988.347.279.933.441 1.797.509.865.068 1.982.032 3.085-.03 1.103-.061 2.187-.142 3.025-.21.838-.068 1.438-.126 2.037-.18-.544-.163-1.097-.329-1.737-.479-.64-.15-1.364-.286-2.127-.449-.763-.164-1.544-.356-2.306-.54-.763-.183-1.52-.36-2.127-.45-.303-.044-.57-.066-.809-.059zm12.911 2.186c-.293.014-.579.087-.809.21-.307.164-.498.398-.599.629-.101.232-.088.449-.299.659-.211.211-.644.428-1.258.659-.614.232-1.408.489-2.157.659-.75.17-1.464.249-2.097.269-.634.021-1.198-.024-1.797-.18s-1.231-.416-1.858-.688c-.028.34-.058.681-.03 1.049.028.368.12.751.269 1.078.15.327.355.578.539.749.184.17.33.248.479.33-.312.272-.61.544-.868.898-.259.354-.478.814-.539 1.318-.062.504.029 1.062.089 1.497.061.436.11.75.09 1.049-.021.3-.099.599-.18.899.34-.109.685-.226 1.018-.24.335-.013.64.069 1.049.089.409.021.916-.015 1.318-.089.402-.076.702-.21.899-.359.197-.149.278-.319.359-.51.327.409.668.812.988 1.139.32.327.635.569.988.719.354.151.743.216 1.139.27-.068-.341-.142-.703-.21-1.139-.068-.436-.146-.941-.179-1.438-.035-.497-.033-.99.089-1.528.123-.538.379-1.147.719-1.767.341-.62.79-1.228 1.198-1.677.408-.45.776-.74 1.049-.869.272-.129.421-.113.659-.12.238-.008.555-.031.868-.269.313-.238.644-.681.719-1.198.075-.518-.101-1.117-.359-1.497-.259-.382-.607-.551-.988-.599h-.299zm9.882.868c-.64.002-1.192.022-1.737.06.599.193 1.199.398 2.037.659.838.262 1.923.584 3.025.899 1.103.315 2.221.617 3.085.749.865.131 1.45.08 1.797-.12.347-.199.451-.551.389-.898-.061-.348-.282-.676-.629-.899-.348-.223-.832-.338-1.438-.389-.607-.051-1.334-.038-2.097-.03-.763.008-1.544.011-2.306 0-.763-.013-1.487-.033-2.127-.03v-.001zm-29.052.959c-.452.004-.883.092-1.288.3-.811.415-1.521 1.258-1.976 2.306-.456 1.049-.635 2.297-.629 3.475.008 1.178.227 2.284.629 2.966.402.681.968.957 1.737 1.168.77.211 1.731.351 2.576.12.844-.232 1.567-.848 2.337-1.467.77-.619 1.577-1.235 2.216-1.677.64-.443 1.111-.7 1.587-.958-.45-.164-.884-.329-1.558-.389-.674-.061-1.59-.02-2.367.089-.776.109-1.403.281-2.186.54-.783.259-1.72.582-2.306.629-.586.048-.844-.195-.899-.569-.055-.374.102-.882.359-1.318.26-.435.64-.795 1.198-.959.559-.163 1.296-.127 2.127.031l2.576.599c.818.15 1.541.164 2.127 0 .586-.164 1.018-.515 1.467-.869-.517-.191-1.027-.382-1.558-.688-.531-.307-1.083-.726-1.887-1.318-.803-.592-1.858-1.356-2.846-1.737-.493-.191-.985-.274-1.438-.27v-.001zm27.614.989c-.185-.008-.361.023-.54.089-.356.134-.765.427-.958.839-.193.411-.179.928-.15 1.438.03.51.074 1.013.12 1.497-.442-.224-.866-.461-1.348-.629-.482-.168-1.004-.281-1.497-.21-.493.071-.953.338-1.258.779-.305.44-.473 1.044-.419 1.858.054.814.31 1.826.569 2.695.26.869.516 1.606.898 2.276.383.67.908 1.286 1.408 1.887.55-.298 1.079-.605 1.467-.988.388-.384.612-.849.839-1.318.424.14.858.266 1.348.359.49.093 1.037.15 1.587.12.551-.031 1.102-.133 1.648-.24.141-.574.27-1.145.359-1.677.089-.532.131-1.019.12-1.438-.013-.419-.059-.79-.12-1.139.606-.169 1.197-.322 1.648-.569.45-.247.755-.573 1.049-.899-.256-.301-.529-.609-.929-1.049-.4-.439-.942-1.028-1.528-1.528-.585-.499-1.202-.908-1.858-1.258-.655-.35-1.329-.63-1.827-.778-.248-.075-.444-.113-.629-.12l-.001.001zm15.039 3.653l-.15.12c-.225.225-.553.793-.988 1.528-.436.736-.953 1.62-1.797 2.695-.844 1.075-2.002 2.318-3.235 3.325-1.233 1.008-2.556 1.789-4.014 2.456-1.457.668-3.059 1.241-4.523 1.588-1.464.347-2.786.486-4.074.479-1.287-.008-2.527-.168-3.384-.27-.858-.102-1.341-.155-1.947-.359-.607-.204-1.318-.565-1.917-.898-.599-.334-1.068-.63-1.408-.779-.341-.15-.57-.141-.659-.059-.088.082-.057.224.12.45.177.224.515.512 1.018.839.504.327 1.183.705 2.007 1.018.824.312 1.772.562 2.876.719 1.103.156 2.354.207 3.654.179 1.301-.027 2.649-.133 3.984-.419 1.334-.287 2.675-.766 4.044-1.378 1.369-.613 2.766-1.36 4.074-2.306 1.307-.947 2.512-2.069 3.445-3.145.933-1.075 1.616-2.082 2.127-2.905.511-.824.862-1.489 1.018-1.917.156-.429.112-.646.031-.809-.061-.123-.167-.207-.3-.15h.001zm-22.439.33l-.569 1.587-.509 1.467c-.2.56-.458 1.259-.689 1.917-.231.659-.444 1.267-.569 1.827-.126.561-.166 1.05-.179 1.497-.013.449.007.86.21 1.168.203.309.575.532.959.569.383.037.783-.115 1.078-.359.295-.244.49-.597.599-1.018.108-.421.113-.926.089-1.587-.023-.661-.065-1.476-.12-2.247-.054-.771-.123-1.476-.15-2.097l-.03-1.587c-.024-.438-.072-.785-.12-1.139v.001zm-98.726 1.528c-.453-.021-.915-.004-1.348.03-1.729.137-3.21.728-4.463 1.707-1.253.98-2.268 2.355-2.935 3.744-.667 1.389-.985 2.772-.958 3.984.028 1.212.414 2.254.958 3.235.544.981 1.236 1.904 2.216 2.667.981.762 2.247 1.35 3.594 1.527 1.348.177 2.797-.046 3.954-.659 1.157-.612 2.026-1.604 2.516-2.666.49-1.062.602-2.208.18-3.325s-1.371-2.195-2.337-2.726c-.966-.531-1.967-.509-2.756-.21-.79.3-1.39.858-1.797 1.497-.409.64-.611 1.37-.569 2.037.04.667.312 1.299.599 1.707.286.408.582.586.569.749-.013.164-.335.313-.689.3-.355-.013-.754-.198-1.258-.54-.504-.34-1.108-.849-1.558-1.558-.45-.707-.749-1.623-.749-2.576 0-.953.302-1.952.928-2.905.627-.953 1.595-1.836 2.726-2.367 1.13-.531 2.413-.707 3.624-.599 1.212.108 2.334.479 3.355 1.078 1.021.599 1.954 1.438 2.636 2.337.681.899 1.119 1.882 1.378 3.025.259 1.143.335 2.453.24 3.624-.095 1.171-.359 2.195-.659 3.025-.3.831-.632 1.47-.958 2.097l2.127 1.797c.408-.735.817-1.487 1.198-2.426.382-.939.724-2.08.929-3.565.204-1.484.261-3.314-.12-5.002-.381-1.689-1.189-3.24-2.306-4.643-1.117-1.402-2.535-2.639-4.223-3.414-1.266-.582-2.684-.925-4.044-.988l-.002.002zm90.579 3.355c-.678.461-1.347.927-1.767 1.497-.421.571-.59 1.258-.659 2.157-.067.899-.016 2.021.42 3.205.436 1.185 1.258 2.442 2.306 3.504 1.049 1.062 2.309 1.922 3.685 2.426 1.375.504 2.859.654 4.493.599 1.634-.055 3.43-.315 5.092-.33 1.661-.013 3.191.21 4.403.51 1.212.299 2.08.669 2.666 1.078.586.408.89.866.959 1.288.068.422-.077.803-.24 1.348-.164.544-.338 1.231-.269 1.707.068.476.359.749.509 1.198.15.449.15 1.097 0 1.737-.15.64-.452 1.266-1.078 1.947-.626.681-1.565 1.399-2.546 1.917-.981.518-1.982.841-2.935.868-.954.027-1.87-.253-2.756-.689-.885-.436-1.737-1.016-2.636-1.737-.899-.722-1.824-1.577-2.846-2.367-1.021-.79-2.148-1.512-3.265-1.947-1.117-.436-2.225-.566-3.205-.389-.981.177-1.824.667-2.546 1.348-.722.681-1.324 1.541-1.677 2.426-.354.885-.472 1.789-.389 2.606.082.817.351 1.541.719 2.127.367.586.839 1.021 1.438 1.348.599.327 1.331.558 2.067.749.735.191 1.473.333 1.976.809.503.476.765 1.293.778 1.947.013.654-.234 1.16-.629 1.528-.395.367-.914.58-1.827.988-.913.408-2.198 1.021-3.056 1.797-.858.776-1.296 1.732-1.528 2.726-.232.994-.275 2.026-.03 2.966.245.939.762 1.767 1.348 2.367.586.599 1.256.966 1.827 1.198.572.231 1.059.337 1.618.269.558-.068 1.185-.315 1.648-.778.463-.463.749-1.146 1.049-1.827-.491.218-.978.427-1.468.509-.491.082-.978.03-1.467-.12-.491-.15-.978-.379-1.318-.868-.34-.491-.528-1.234-.569-1.887-.04-.654.065-1.22.569-1.737.503-.518 1.402-.997 2.247-1.528.844-.532 1.645-1.12 2.216-1.827.572-.708.931-1.533 1.108-2.337.176-.804.174-1.596-.03-2.276-.204-.682-.627-1.25-1.198-1.767-.572-.518-1.299-.964-1.858-1.467-.559-.504-.948-1.07-1.139-1.737-.191-.667-.196-1.451.24-2.186.435-.736 1.318-1.421 2.367-1.707 1.049-.287 2.265-.161 3.355.329 1.09.49 2.061 1.351 3.056 2.127.994.776 2.015 1.47 3.295 1.947 1.28.477 2.796.75 4.403.75 1.606 0 3.314-.281 4.702-.839 1.389-.559 2.475-1.419 3.265-2.576.79-1.158 1.269-2.606 1.528-3.954.259-1.349.283-2.587-.03-3.744-.313-1.157-.965-2.232-1.619-3.145-.653-.912-1.288-1.658-2.185-2.216-.899-.559-2.067-.945-3.714-1.108-1.649-.164-3.801-.101-5.722.089-1.92.191-3.588.526-4.883.689-1.294.164-2.214.155-2.934-.09-.723-.244-1.245-.734-1.707-1.348-.462-.613-.85-1.356-1.258-2.337-.408-.981-.86-2.206-1.228-3.295-.367-1.09-.659-2.035-.839-2.756-.178-.721-.242-1.219-.299-1.707h-.001zm-87.071 15.221l-1.318 1.947c.552.351 1.12.687 1.707 1.078.588.392 1.213.825 1.797 1.288.584.464 1.12.976 1.558 1.408.437.432.768.799 1.049 1.108l.719.809.33.3.809.749c.309.281.676.612 1.108 1.049.431.437.914.975 1.378 1.558.463.583.896 1.21 1.288 1.797.39.588.757 1.125 1.108 1.677l1.917-1.318-.42-.809c-.177-.345-.401-.794-.749-1.348s-.819-1.225-1.318-1.887c-.499-.662-1.031-1.329-1.558-1.917-.525-.588-1.049-1.088-1.558-1.587l-.3-.299c-.498-.509-1-1.032-1.587-1.558-.588-.526-1.255-1.059-1.917-1.558-.662-.5-1.303-.94-1.858-1.289-.554-.348-1.032-.601-1.378-.778l-.808-.42zm20.397 6.11c-.853-.009-1.684.048-2.426.15-1.484.205-2.625.547-3.565.929-.939.381-1.661.79-2.396 1.198l1.797 2.127c.626-.327 1.236-.659 2.067-.959.83-.299 1.884-.564 3.056-.658 1.171-.096 2.481-.018 3.624.24 1.143.259 2.127.697 3.025 1.378.899.681 1.707 1.614 2.306 2.636.599 1.021.969 2.143 1.078 3.355.109 1.213-.038 2.524-.569 3.654-.531 1.13-1.443 2.069-2.396 2.695-.953.626-1.952.929-2.905.929-.953 0-1.868-.3-2.576-.75-.708-.449-1.217-1.053-1.558-1.558-.34-.503-.496-.904-.509-1.258-.013-.354.106-.645.269-.659.164-.013.371.253.779.539.408.287 1.04.589 1.707.63.667.04 1.367-.191 2.007-.599.64-.409 1.198-1.007 1.497-1.797.299-.79.351-1.759-.18-2.726-.531-.967-1.639-1.914-2.756-2.337-1.117-.423-2.263-.311-3.325.179-1.062.491-2.023 1.359-2.636 2.516-.612 1.158-.866 2.605-.689 3.954.177 1.348.766 2.584 1.528 3.565.763.981 1.685 1.701 2.666 2.247.981.544 2.023.902 3.235.929 1.212.027 2.595-.291 3.984-.958 1.389-.667 2.794-1.682 3.775-2.935.981-1.253 1.541-2.734 1.677-4.463.137-1.729-.152-3.703-.928-5.392-.776-1.689-2.042-3.107-3.445-4.223-1.402-1.117-2.954-1.925-4.643-2.306-.844-.191-1.723-.262-2.576-.269l.002-.002zm-15.624 2.492c-.454.111-.92.195-1.438.33-.518.135-1.093.319-1.648.509-.554.19-1.081.385-1.467.719-.386.335-.614.785-.749 1.198-.134.413-.17.804-.09 1.108.079.305.267.519.45.749l.299.33c.231.182.474.34.779.42.305.079.665.075 1.078-.06.412-.134.865-.392 1.198-.778.334-.386.559-.913.749-1.467.19-.554.343-1.131.479-1.648.136-.517.246-.956.359-1.408z"/></g></g></svg>