<svg xmlns="http://www.w3.org/2000/svg" display="none">
  <symbol id="smiley-neutral" viewBox="0 0 1024 1024">
    <path d="M512 1024c282.77 0 512-229.23 512-512S794.77 0 512 0 0 229.23 0 512s229.23 512 512 512zm0-928c229.75 0 416 186.25 416 416S741.75 928 512 928 96 741.75 96 512 282.25 96 512 96zM256 320c0 35.346 28.654 64 64 64s64-28.654 64-64-28.654-64-64-64-64 28.654-64 64zm384 0c0 35.346 28.654 64 64 64s64-28.654 64-64-28.654-64-64-64-64 28.654-64 64zM384 704h256v64H384v-64z"/>
  </symbol>
  <symbol id="smiley-neutral2" viewBox="0 0 1024 1024">
    <path d="M512 0C229.23 0 0 229.23 0 512s229.226 512 512 512c282.77 0 512-229.23 512-512S794.77 0 512 0zm128 768H384v-64h256v64zm64-512c35.346 0 64 28.654 64 64s-28.654 64-64 64-64-28.654-64-64c0-35.346 28.654-64 64-64zm-384 0c35.346 0 64 28.654 64 64s-28.654 64-64 64-64-28.654-64-64c0-35.346 28.654-64 64-64z"/>
  </symbol>
</svg>
