<svg xmlns="http://www.w3.org/2000/svg" display="none">
  <symbol id="ampersand" viewBox="0 0 1024 1024">
    <path d="M434.592 960.224c227.264 0 427.872-125.952 427.872-335.84 0-76.576-35.808-123.488-50.816-148.192-12.512-14.816-12.512-27.168 17.504-29.632 117.344-17.28 194.752-81.504 194.752-204.96 0-66.688-54.944-146.88-154.816-146.88-47.424 0-105.376 45.632-105.376 95.008 0 27.2 27.968 59.648 67.904 59.648 44.96 0 70.432-47.296 62.944-67.072-2.464-12.352-10.464-27.168 6.976-27.168 32.512 0 69.952 41.984 69.952 81.504 0 69.152-64.928 116.672-167.328 116.672-54.944 0-102.368-33.888-154.816-33.888-132.352 0-209.76 104.896-209.76 196.288 0 103.712 79.904 153.088 139.84 153.088 67.392 0 87.392-39.488 87.392-71.616 0-37.024-22.496-61.728-69.952-61.728-37.44 0-54.944 39.488-52.448 59.264 2.496 9.888-4.992 17.28-12.512 17.28-9.984 0-39.936-32.096-39.936-74.048 0-29.664 20-127.136 124.864-127.136 112.352 0 190.624 102.4 190.624 186.368 0 118.528-133.216 244.512-360.448 244.512-227.264 0-357.088-103.712-357.088-254.368 0-69.152 29.984-133.344 67.392-160.512 15.008-9.888 22.496-7.392 29.984 4.928 17.504 12.352 57.44 45.632 82.4 45.632 32.48 0 49.952-40.672 49.952-75.296 0-29.632-34.944-49.984-64.896-49.984s-49.952 17.888-62.432 22.816c-17.472-27.168-27.456-61.728-27.456-88.896 0-79.008 57.44-128.608 112.384-128.608 47.424 0 87.392 37.216 79.904 84.16-2.496 12.352-2.496 22.208 2.496 22.208 19.968 0 64.896-29.632 64.896-83.968 0-76.544-57.408-116.064-132.352-116.064-122.336 0-197.248 86.432-197.248 177.824 0 54.304 19.968 103.712 52.448 145.696C97.44 409.472.064 493.44.064 641.632c.032 125.952 87.424 318.592 434.528 318.592z"/>
  </symbol>
  <symbol id="apple" viewBox="0 0 1024 1024">
    <path d="M791.498 544.092C790.204 414.41 897.256 352.216 902.04 349.126c-60.152-88.02-153.85-100.078-187.242-101.472-79.742-8.074-155.596 46.948-196.066 46.948-40.368 0-102.818-45.754-168.952-44.552-86.916 1.292-167.058 50.538-211.812 128.38-90.304 156.698-23.126 388.84 64.89 515.926 43.008 62.204 94.292 132.076 161.626 129.58 64.842-2.588 89.362-41.958 167.756-41.958s100.428 41.958 169.05 40.67c69.774-1.296 113.982-63.398 156.692-125.796 49.39-72.168 69.726-142.038 70.924-145.626-1.548-.706-136.06-52.236-137.408-207.134zm-128.936-380.57C698.3 120.164 722.422 60.01 715.842 0c-51.478 2.096-113.878 34.29-150.81 77.55-33.142 38.376-62.148 99.626-54.374 158.436 57.466 4.484 116.128-29.204 151.904-72.464z"/>
  </symbol>
  <symbol id="arrow-down" viewBox="0 0 1024 1024">
    <path d="M384 0v512L192 320 0 512l512 512 512-512-192-192-192 192V0z"/>
  </symbol>
  <symbol id="arrow-left" viewBox="0 0 1024 1024">
    <path d="M1024 384H512l192-192L512 0 0 512l512 512 192-192-192-192h512z"/>
  </symbol>
  <symbol id="arrow-right" viewBox="0 0 1024 1024">
    <path d="M0 640h512L320 832l192 192 512-512L512 0 320 192l192 192H0z"/>
  </symbol>
  <symbol id="arrow-up" viewBox="0 0 1024 1024">
    <path d="M640 1024V512l192 192 192-192L512 0 0 512l192 192 192-192v512z"/>
  </symbol>
  <symbol id="asterisk" viewBox="0 0 1024 1024">
    <path d="M998.994 330.016l-88.276-150.748-349.03 245.814L601.074 0H421.805l40.743 425.082L112.16 179.268 22.528 330.016 410.94 512 22.527 692.625 112.16 844.73l350.39-245.812L421.805 1024h179.268L561.69 598.916 910.717 844.73l88.276-152.105L611.938 512z"/>
  </symbol>
  <symbol id="asterisk2" viewBox="0 0 1024 1024">
    <path d="M515.584 1024q58.88 0 84.48-37.12t25.6-72.96q0-25.6-14.08-53.76t-30.72-70.4-33.28-104.96-21.76-157.44q84.48 53.76 133.12 107.52t81.92 94.72 58.88 66.56 66.56 25.6q53.76 0 80.64-34.56t26.88-72.96q0-35.84-15.36-57.6t-38.4-34.56q-17.92-10.24-47.36-11.52t-75.52-8.96-111.36-26.88T530.944 512q89.6-43.52 154.88-62.72t111.36-26.88 75.52-8.96 47.36-11.52q23.04-12.8 38.4-34.56t15.36-57.6q0-38.4-26.88-72.96t-80.64-34.56q-40.96 0-66.56 25.6t-58.88 66.56-81.92 94.72-133.12 107.52q5.12-94.72 21.76-157.44t34.56-104.96 32-70.4 14.08-53.76q0-35.84-25.6-72.96T518.144 0t-84.48 37.12-25.6 72.96q0 25.6 14.08 53.76t30.72 70.4 33.28 104.96 21.76 157.44q-84.48-53.76-133.12-107.52t-81.92-94.72-58.88-66.56-66.56-25.6q-53.76 0-80.64 34.56t-26.88 72.96q0 35.84 15.36 57.6t38.4 34.56q17.92 10.24 46.08 11.52t74.24 8.96 112.64 26.88T502.784 512q-92.16 43.52-157.44 62.72t-111.36 26.88-75.52 8.96-47.36 11.52q-23.04 12.8-38.4 34.56t-15.36 57.6q0 38.4 26.88 72.96t80.64 34.56q40.96 0 66.56-25.6t58.88-66.56 81.92-94.72 133.12-107.52q-5.12 94.72-20.48 157.44t-33.28 104.96-32 70.4-14.08 53.76q0 35.84 25.6 72.96t84.48 37.12z"/>
  </symbol>
  <symbol id="asterism" viewBox="0 0 1024 1024">
    <path d="M477 .156l18.313 190.875L337.97 80.66l-40.25 68.28 174.404 81.095-174.406 81.72 40.25 67.688 157.342-110.38L477 459.94h80.5l-17.688-190.875 156.72 110.375 39.624-67.688-173.78-81.72 173.78-81.093-39.625-68.28L539.817 191.03 557.5.157H477zM179.28 564.22l18.282 190.874L40.25 644.72 0 713l174.406 81.125L0 875.813 40.25 943.5l157.313-110.375L179.28 1024h80.5l-17.686-190.875L398.814 943.5l39.623-67.688-173.78-81.687L438.437 713l-39.626-68.28-156.715 110.374L259.78 564.22h-80.5zm585.47 0l18.28 190.874L625.72 644.72 585.47 713l174.405 81.125-174.406 81.688 40.25 67.687 157.31-110.375L764.75 1024h80.5l-17.688-190.875L984.282 943.5l39.625-67.688-173.78-81.687L1023.905 713l-39.625-68.28-156.717 110.374L845.25 564.22h-80.5z"/>
  </symbol>
  <symbol id="asterism2" viewBox="0 0 1024 1024">
    <path d="M511.36 460.8q26.496 0 38.016-16.705t11.52-32.833q0-11.52-6.337-24.192t-13.83-31.68q-7.49-19.01-14.98-47.233-7.49-28.225-9.8-70.85 38.01 24.193 59.9 48.385t36.86 42.624 26.49 29.952 29.95 11.52q24.19 0 36.29-15.553t12.09-32.833q0-16.128-6.91-25.92t-17.28-15.554q-8.07-4.608-21.32-5.185t-33.99-4.033-50.11-12.097-69.7-28.225q40.32-19.584 69.7-28.225t50.11-12.097 33.98-4.033 21.31-5.185q10.37-5.76 17.28-15.553t6.91-25.92q0-17.28-12.094-32.834t-36.27-15.55q-18.43 0-29.95 11.52T612.7 132.47t-36.86 42.63-59.9 48.38q2.31-42.62 9.79-70.85t15.56-47.23q8.06-19.01 14.4-31.68t6.335-24.19q0-16.13-11.52-32.83t-38-16.72-38.016 16.7-11.52 32.84q0 11.52 6.336 24.19t13.824 31.68q7.48 19.01 14.97 47.24 7.49 28.22 9.79 70.84-38.01-24.19-59.9-48.38t-36.86-42.62-26.49-29.96-29.95-11.52q-24.19 0-36.29 15.55t-12.09 32.84q0 16.13 6.91 25.92t17.28 15.55q8.07 4.61 20.74 5.18t33.41 4.03 50.69 12.1 70.27 28.22q-41.47 19.58-70.85 28.22t-50.11 12.09-33.98 4.032-21.31 5.187q-10.37 5.76-17.28 15.553t-6.913 25.93q0 17.28 12.1 32.83t36.29 15.55q18.43 0 29.95-11.52t26.5-29.95 36.862-42.62 59.902-48.38q-2.304 42.62-9.22 70.85t-14.973 47.23q-8.066 19.01-14.4 31.68t-6.34 24.19q0 16.125 11.52 32.83t38.02 16.71zM206.208 1024q26.496 0 38.016-16.705t11.52-32.833q0-11.52-6.337-24.192t-13.824-31.68q-7.49-19.01-14.976-47.233-7.49-28.225-9.793-70.85 38.016 24.193 59.904 48.385t36.864 42.624 26.496 29.952 29.952 11.52q24.192 0 36.29-15.553t12.096-32.833q0-16.128-6.912-25.92t-17.28-15.554q-8.064-4.608-21.313-5.185t-33.98-4.033-50.11-12.097-69.69-28.225q40.32-19.584 69.7-28.225t50.12-12.097 33.99-4.033 21.32-5.185q10.37-5.76 17.28-15.553t6.91-25.92q0-17.28-12.1-32.834t-36.29-15.55q-18.43 0-29.95 11.52t-26.5 29.95-36.86 42.63-59.903 48.39q2.304-42.62 9.79-70.85t15.55-47.23q8.07-19.01 14.4-31.68t6.34-24.19q0-16.13-11.52-32.83t-38.014-16.7-38.012 16.71-11.52 32.84q0 11.52 6.335 24.19T178 668.62q7.49 19.01 14.975 47.23 7.49 28.23 9.795 70.85-38.02-24.19-59.91-48.38T106 695.68t-26.5-29.96-29.96-11.52q-24.19 0-36.29 15.552T1.16 702.58q0 16.128 6.91 25.92t17.28 15.554q8.064 4.6 20.736 5.18t33.408 4.03 50.69 12.097 70.27 28.23q-41.47 19.59-70.85 28.23t-50.11 12.1-33.985 4.04-21.32 5.19q-10.37 5.76-17.28 15.55T0 884.61q0 17.28 12.097 32.833T48.387 933q18.43 0 29.95-11.52t26.497-29.952 36.864-42.623 59.904-48.382q-2.304 42.623-9.216 70.85T177.41 918.6q-8.064 19.01-14.4 31.68t-6.338 24.192q0 16.123 11.52 32.83t38.014 16.7zm612.352 0q26.496 0 38.016-16.703 11.52-16.705 11.52-32.833 0-11.52-6.337-24.192t-13.83-31.68q-7.49-19.01-14.98-47.233-7.49-28.23-9.8-70.85 38.01 24.19 59.9 48.38t36.86 42.62 26.49 29.95 29.95 11.52q24.19 0 36.29-15.56 12.09-15.56 12.09-32.84 0-16.13-6.92-25.92t-17.28-15.56q-8.06-4.61-21.31-5.19t-33.99-4.03-50.11-12.09-69.7-28.23q40.32-19.59 69.7-28.23t50.115-12.09 33.986-4.037 21.32-5.183q10.37-5.76 17.28-15.56t6.916-25.92q0-17.28-12.094-32.833-12.095-15.55-36.29-15.55-18.43 0-29.95 11.52t-26.494 29.95-36.865 42.623-59.9 48.388q2.307-42.62 9.796-70.85t15.55-47.23q8.07-19.01 14.4-31.68t6.34-24.19q0-16.13-11.52-32.832t-38.01-16.7-38.01 16.71-11.52 32.835q0 11.52 6.333 24.19t13.823 31.68q7.49 19.01 14.98 47.24 7.49 28.223 9.8 70.85-38.02-24.195-59.907-48.387t-36.87-42.623-26.497-29.95-29.96-11.52q-24.19 0-36.29 15.55t-12.1 32.84q0 16.13 6.91 25.92t17.28 15.56q8.066 4.605 20.74 5.18t33.41 4.03 50.69 12.1 70.28 28.24q-41.47 19.587-70.85 28.23t-50.11 12.094-33.98 4.03-21.31 5.183q-10.37 5.76-17.28 15.552t-6.91 25.92q0 17.28 12.093 32.83t36.29 15.55q18.43 0 29.95-11.52t26.5-29.95 36.86-42.63 59.905-48.39q-2.31 42.62-9.22 70.85t-14.98 47.23q-8.07 19.01-14.4 31.68t-6.34 24.19q0 16.13 11.52 32.83 11.52 16.71 38.013 16.71z"/>
  </symbol>
  <symbol id="at" viewBox="0 0 1024 1024">
    <path d="M955.008 768C998.88 692.64 1024 605.504 1024 512 1024 229.248 794.752 0 512 0S0 229.248 0 512s229.248 512 512 512c141.376 0 269.376-57.248 361.984-150.016L783.36 783.36C713.888 852.992 617.888 896 512 896c-211.744 0-384-172.256-384-384s172.256-384 384-384 384 172.256 384 384c0 45.504-8.736 88.992-23.36 129.504L871.616 640H768V257.376H512c-141.376 0-256 114.624-256 256s114.624 256 256 256c58.752 0 112.256-20.64 155.488-53.888C690.752 746.496 726.24 768 768 768h187.008zM640 448.256v65.12c0 70.624-57.504 128-128 128s-128-57.376-128-128 57.504-128 128-128h128v62.88z"/>
  </symbol>
  <symbol id="badge" viewBox="0 0 1024 1024">
    <path d="M256 0c-47.146 0-85.334 38.186-85.334 85.334V298.88c0 29.866 12.374 56.982 32.214 76.374l92.8 92.8C232.106 526.528 192 610.56 192 704c0 176.64 143.36 320 320 320 176.618 0 320-143.36 320-320 0-93.44-40.106-177.472-103.658-235.968l92.8-92.8c19.84-19.392 32.214-46.506 32.214-76.374l-.002-213.524C853.354 38.188 815.168 0 768.02 0H256zm256 533.334c7.466 0 13.654 4.714 15.786 11.306L566.612 640h99.626c8.96 0 16.426 9.6 16.426 18.346 0 5.334-2.56 10.026-6.634 12.8l-83.84 56.96s26.88 101.334 27.754 104.32c.618 1.494.832 3.2.832 4.906 0 8.96-7.254 16-16.426 16-4.032 0-7.894-1.472-10.666-3.84L512 785.706l-81.706 63.786c-2.774 2.346-6.614 3.84-10.666 3.84-9.174 0-16.426-7.04-16.426-16 0-1.706.214-3.414.854-4.906.854-2.986 28.16-103.872 28.16-103.872l-84.266-57.386c-4.054-2.774-6.614-7.466-6.614-12.8 0-8.746 7.466-18.346 16.426-18.346h99.626l38.826-95.36c2.132-6.614 8.32-11.328 15.786-11.328zm-149.334-384v149.334c0 23.466-19.2 42.666-42.666 42.666s-42.666-19.2-42.666-42.666V149.334c0-23.466 19.2-42.666 42.666-42.666s42.666 19.198 42.666 42.666zm192 0v192C554.666 364.8 535.466 384 512 384s-42.666-19.2-42.666-42.666v-192c0-23.466 19.2-42.666 42.666-42.666 23.466-.002 42.666 19.198 42.666 42.666zm192 0v149.334c0 23.466-19.2 42.666-42.666 42.666s-42.666-19.2-42.666-42.666V149.334c0-23.466 19.2-42.666 42.666-42.666s42.666 19.198 42.666 42.666z"/>
  </symbol>
  <symbol id="barecode" viewBox="0 0 1024 1024">
    <path d="M0 128h128v640H0zm192 0h64v640h-64zm128 0h64v640h-64zm192 0h64v640h-64zm256 0h64v640h-64zm192 0h64v640h-64zm-320 0h32v640h-32zm-192 0h32v640h-32zm416 0h32v640h-32zM0 832h64v64H0zm192 0h64v64h-64zm128 0h64v64h-64zm320 0h64v64h-64zm320 0h64v64h-64zm-192 0h128v64H768zm-320 0h128v64H448z"/>
  </symbol>
  <symbol id="bin" viewBox="0 0 1024 1024">
    <path d="M906.666 213.334H768v-128C768 38.188 729.814 0 682.666 0H341.334C294.188 0 256 38.186 256 85.334v128H117.334c-29.44 0-53.334 23.892-53.334 53.332S87.894 320 117.334 320h32v618.666c0 47.146 38.186 85.334 85.334 85.334h554.666c47.146 0 85.334-38.186 85.334-85.334L874.666 320h32c29.44 0 53.334-23.894 53.334-53.334s-23.894-53.332-53.334-53.332zm-245.332 0H362.666V153.6a46.8 46.8 0 0 1 46.934-46.934h204.8a46.8 46.8 0 0 1 46.934 46.934v59.734zM362.666 362.666v512c0 23.466-19.2 42.666-42.666 42.666s-42.666-19.2-42.666-42.666v-512C277.334 339.2 296.534 320 320 320s42.666 19.2 42.666 42.666zm192 0v512c0 23.466-19.2 42.666-42.666 42.666s-42.666-19.2-42.666-42.666v-512C469.334 339.2 488.534 320 512 320s42.666 19.2 42.666 42.666zm192 0v512c0 23.466-19.2 42.666-42.666 42.666s-42.666-19.2-42.666-42.666v-512C661.334 339.2 680.534 320 704 320s42.666 19.2 42.666 42.666z"/>
  </symbol>
  <symbol id="birthday-cake" viewBox="0 0 1024 1024">
    <path d="M1024 804.57V1024H0V804.57q25.714 0 48.57-8t33.715-15.713 26.857-21.43q17.143-15.428 29.43-21.713t32.285-6.286 31.714 6.286 30 21.714q16.58 14.286 26.86 21.714t33.15 15.43 49.15 8q25.713 0 48.57-8.287t33.143-15.43 27.43-21.428q12-10.857 18.57-15.43t17.715-8.57 24.857-4q20 0 32.287 6.286t29.43 21.714q16 13.714 26.858 21.43t33.71 15.713 48.57 8 48.57-8 33.714-15.714 26.85-21.43q17.144-15.428 29.43-21.713t32.286-6.286q19.43 0 31.714 6.286t29.43 21.714q16 13.714 26.85 21.43t33.714 15.713 48.57 8zm0-182.856v109.714q-20 0-31.714-6.286t-30-21.714q-16.57-14.286-26.857-21.714t-33.15-15.43-48.57-8q-26.29 0-49.15 8t-33.145 15.43-26.858 21.714q-12.57 10.857-18.86 15.43t-17.71 8.57-25.14 4q-20 0-32.287-6.287t-29.43-21.71q-16.57-14.28-26.856-21.71t-33.143-15.43-49.14-8q-25.713 0-48.57 8.29T430.286 682t-27.43 21.43q-12 10.856-18.57 15.428t-17.714 8.57-24.85 4q-20 0-32.28-6.285T280 703.43q-16-13.715-26.857-21.43t-33.714-15.714-48.58-8q-26.29 0-49.15 8t-33.142 15.43-26.85 21.714q-17.143 15.424-29.43 21.71T0 731.43V621.714Q0 576 32 544t77.714-32h36.57V256H292.57v256h146.29V256h146.286v256H731.43V256h146.285v256h36.57Q960 512 992 544t32 77.715zM292.57 128q0 44-20.57 67.714t-52.57 23.714q-30.287 0-51.715-21.43t-21.43-51.713q0-16.57 5.43-29.143t13.43-19.43 17.713-16 17.714-18 13.43-25.428T219.43-.002q21.714 0 47.43 42.286t25.713 85.714zm292.573 0q0 44-20.57 67.714T512 219.428q-30.285 0-51.713-21.43t-21.43-51.713q0-16.57 5.43-29.143t13.43-19.43 17.713-16 17.714-18 13.43-25.428T512-.002q21.714 0 47.43 42.286t25.713 85.714zm292.57 0q0 44-20.57 67.714t-52.57 23.714q-30.287 0-51.715-21.43t-21.43-51.713q0-16.57 5.43-29.143t13.43-19.43 17.713-16 17.72-18 13.43-25.428 5.43-38.286q21.72 0 47.43 42.286t25.72 85.714z"/>
  </symbol>
  <symbol id="book" viewBox="0 0 1024 1024">
    <path d="M512 192S384 64 0 64v768c388 0 512 128 512 128s124-128 512-128V64c-384 0-512 128-512 128zm-384 0c162.688 13.632 262.496 51.264 320 81.76v515.488c-57.504-30.368-157.312-68-320-81.76V192zm768 515.488c-162.752 13.76-262.496 51.328-320 81.76V273.76c57.504-30.496 157.248-68.128 320-81.76v515.488z"/>
  </symbol>
  <symbol id="bookmark" viewBox="0 0 1024 1024">
    <path d="M292.813 755.2c-12.083 0-24.27-4.25-33.997-12.902L-.256 512l273.46-243.098c21.093-18.688 53.452-16.896 72.242 4.25s16.896 53.504-4.25 72.294L153.856 512 326.81 665.702c21.144 18.79 23.04 51.15 4.25 72.294-10.09 11.418-24.17 17.204-38.25 17.204zm457.984-.102L1024.257 512 765.183 281.702c-21.146-18.79-53.504-16.896-72.243 4.25-18.79 21.146-16.895 53.504 4.25 72.294L870.146 512l-187.34 166.502c-21.147 18.79-23.04 51.15-4.25 72.294C688.64 762.214 702.72 768 716.8 768c12.083 0 24.27-4.25 33.997-12.903zm-239.514 72.55l102.4-614.4c4.66-27.904-14.182-54.272-42.086-58.93-28.006-4.71-54.323 14.18-58.88 42.085l-102.4 614.4c-4.66 27.904 14.182 54.272 42.086 58.93 2.867.462 5.632.667 8.448.667 24.58 0 46.29-17.766 50.436-42.752z"/>
  </symbol>
  <symbol id="bubbles" viewBox="0 0 1024 1024">
    <path d="M480 0c265.096 0 480 173.914 480 388.448S745.096 776.896 480 776.896a595.29 595.29 0 0 1-74.834-4.71C302.06 874.88 182.994 893.294 64 896v-25.134c64.252-31.354 116-88.466 116-153.734 0-9.106-.712-18.048-2.03-26.794C69.412 619.124 0 510.35 0 388.448 0 173.914 214.904 0 480 0zm516 870.686c0 55.942 36.314 104.898 92 131.772V1024c-103.126-2.318-197.786-18.102-287.142-106.126a521.363 521.363 0 0 1-64.858 4.04c-95.47 0-183.408-25.758-253.614-69.04 144.674-.506 281.26-46.854 384.834-130.672 52.208-42.252 93.394-91.826 122.414-147.348C1020.4 515.988 1036 453.272 1036 388.448c0-10.448-.45-20.836-1.258-31.168C1107.312 417.214 1152 498.902 1152 588.956c0 104.488-60.158 197.722-154.24 258.764a152.354 152.354 0 0 0-1.76 22.966z"/>
  </symbol>
  <symbol id="bubbles2" viewBox="0 0 1024 1024">
    <path d="M957.066 822.462c0 39.555 22.615 73.797 55.634 90.57v13.854c-9.236 1.252-18.665 1.947-28.262 1.947-59.11 0-112.435-24.812-150.154-64.563-22.782 6.065-46.954 9.346-71.962 9.346-138.276 0-250.35-99.64-250.35-222.533S624.047 428.55 762.322 428.55s250.35 99.64 250.35 222.533c0 48.123-17.19 92.658-46.37 129.07a101.1 101.1 0 0 0-9.262 42.336zm-500.7-783.345c242.06 0 438.974 156.997 444.927 352.492-42.754-19.057-90.043-29.127-138.944-29.127-83.064 0-161.534 29.068-220.92 81.864-61.59 54.742-95.497 128.15-95.497 206.732 0 38.832 8.29 76.41 24.117 111.07l-13.685.196a546.885 546.885 0 0 1-69.403-4.396c-95.606 95.607-209.71 112.74-320.03 115.273V849.83c59.583-29.18 111.266-82.366 111.266-143.117 0-8.484-.67-16.8-1.892-24.952-100.67-66.285-165.01-167.565-165.01-281.03C11.3 201.01 210.55 39.117 456.366 39.117z"/>
  </symbol>
  <symbol id="calendar" viewBox="0 0 1024 1024">
    <path d="M832 128v65.504c0 70.752-57.248 128-128 128s-128-57.248-128-128V128H448v65.504c0 70.752-57.248 128-128 128s-128-57.248-128-128V128H0v896h1024V128H832zM320 896H192V768h128v128zm0-256H192V512h128v128zm256 256H448V768h128v128zm0-256H448V512h128v128zm128 256V768h128L704 896zm128-256H704V512h128v128zM256 192V64c0-35.36 28.64-64 64-64s64 28.64 64 64v128c0 35.36-28.64 64-64 64s-64-28.64-64-64zm384 0V64c0-35.36 28.64-64 64-64s64 28.64 64 64v128c0 35.36-28.64 64-64 64s-64-28.64-64-64z"/>
  </symbol>
  <symbol id="cart" viewBox="0 0 1024 1024">
    <path d="M665.6 870.4c0 56.525 45.773 102.4 102.4 102.4 56.525 0 102.4-45.875 102.4-102.4 0-56.627-45.875-102.4-102.4-102.4-56.627 0-102.4 45.773-102.4 102.4zm-512 0c0 56.525 45.824 102.4 102.4 102.4 56.474 0 102.4-45.875 102.4-102.4 0-56.627-45.926-102.4-102.4-102.4-56.576 0-102.4 45.773-102.4 102.4zm181.606-247.194l566.682-161.894C912.69 458.19 921.6 446.515 921.6 435.2V153.6H204.8V71.68c0-11.264-9.267-20.48-20.43-20.48H20.43C9.215 51.2 0 60.416 0 71.68v81.92h102.4l97.792 458.598 4.608 48.282v84.43c0 11.212 9.216 20.48 20.48 20.48h675.84c11.264 0 20.48-9.32 20.48-20.48V665.6H345.702c-58.88 0-60.11-28.21-10.496-42.394z"/>
  </symbol>
  <symbol id="checkmark" viewBox="0 0 1024 1024">
    <path d="M864 128L384 608 160 384 0 544l384 384 640-640z"/>
  </symbol>
  <symbol id="checkmark2" viewBox="0 0 1024 1024">
    <path d="M309.86 504.406c2.012 60.504 27.09 137.974 78.816 211.01 136.578-209.322 273.622-408.44 363.868-619.178L965.55 0C795.272 277.482 628.568 584.096 491.24 834.854c-73.74 129.596-192.526 258.18-269.032 146.552-46.75-140.082-69.066-227.184-140.29-336.856z"/>
  </symbol>
  <symbol id="checkmark-hollow" viewBox="0 0 1024 1024">
    <path d="M397.44 917.696L-.416 526.08 196.96 331.808l200.48 197.344 429.632-422.848 197.376 194.272-627.008 617.12zM107.904 526.112l289.536 284.96 518.656-510.496-89.024-87.648L397.44 635.776 196.96 438.432l-89.024 87.648z"/>
  </symbol>
  <symbol id="chevron-right" viewBox="0 0 1024 1024">
    <path d="M345.786 13.355l-117.6 117.6 381.05 381.05-381.05 381.052 117.6 117.6L844.43 512.012z"/>
  </symbol>
  <symbol id="chevron-right2" viewBox="0 0 1024 1024">
    <path d="M286.688 891.808c-13.728 13.888-13.728 36.256 0 50.112s35.904 13.888 49.6 0l400.896-404.832c13.728-13.888 13.728-36.288 0-50.112L336.288 82.08c-13.728-13.888-35.904-13.888-49.6 0s-13.728 36.256 0 50.112L652.256 512 286.688 891.808z"/>
  </symbol>
  <symbol id="chevron-right3" viewBox="0 0 1024 1024">
    <path d="M300.74 1012.312L802.075 510.98 300.74 9.645 260.637 49.75l461.226 461.227-461.226 461.226z"/>
  </symbol>
  <symbol id="code" viewBox="0 0 1024 1024">
    <path d="M292.813 755.2c-12.083 0-24.27-4.25-33.997-12.902L-.256 512l273.46-243.098c21.093-18.688 53.452-16.896 72.242 4.25s16.896 53.504-4.25 72.294L153.856 512 326.81 665.702c21.144 18.79 23.04 51.15 4.25 72.294-10.09 11.418-24.17 17.204-38.25 17.204zm457.984-.102L1024.257 512 765.183 281.702c-21.146-18.79-53.504-16.896-72.243 4.25-18.79 21.146-16.895 53.504 4.25 72.294L870.146 512l-187.34 166.502c-21.147 18.79-23.04 51.15-4.25 72.294C688.64 762.214 702.72 768 716.8 768c12.083 0 24.27-4.25 33.997-12.903zm-239.514 72.55l102.4-614.4c4.66-27.904-14.182-54.272-42.086-58.93-28.006-4.71-54.323 14.18-58.88 42.085l-102.4 614.4c-4.66 27.904 14.182 54.272 42.086 58.93 2.867.462 5.632.667 8.448.667 24.58 0 46.29-17.766 50.436-42.752z"/>
  </symbol>
  <symbol id="arrow-up" viewBox="0 0 1024 1024">
    <path d="M640 1024V512l192 192 192-192L512 0 0 512l192 192 192-192v512z"/>
  </symbol>
  <symbol id="enlarge" viewBox="0 0 1024 1024">
    <path d="M1024 0H608l160 160-192 192 96 96 192-192 160 160zm0 1024V608L864 768 672 576l-96 96 192 192-160 160zM0 1024h416L256 864l192-192-96-96-192 192L0 608zM0 0v416l160-160 192 192 96-96-192-192L416 0z"/>
  </symbol>
  <symbol id="eye" viewBox="0 0 1024 1024">
    <path d="M512 184C288.682 184 95.118 314.042 0 504c95.118 189.958 288.682 320 512 320 223.312 0 416.876-130.042 512-320-95.116-189.958-288.688-320-512-320zm252.45 169.704C824.612 392.078 875.592 443.478 913.884 504c-38.292 60.522-89.274 111.922-149.436 150.296C688.854 702.514 601.558 728 512 728c-89.56 0-176.858-25.486-252.452-73.704C199.39 615.924 148.41 564.524 110.116 504c38.292-60.524 89.274-111.924 149.434-150.296 3.918-2.5 7.876-4.922 11.86-7.3C261.45 373.732 256 403.226 256 434c0 141.382 114.616 256 256 256 141.384 0 256-114.618 256-256 0-30.774-5.452-60.268-15.408-87.598a481.379 481.379 0 0 1 11.858 7.302zM512 408c0 53.02-42.98 96-96 96s-96-42.98-96-96 42.98-96 96-96 96 42.982 96 96z"/>
  </symbol>
  <symbol id="eye-blocked" viewBox="0 0 1024 1024">
    <path d="M848.415 35.703L675.896 208.222C623.958 192.468 568.948 184 512 184 288.682 184 95.118 314.042 0 504c41.122 82.124 100.648 153.04 173.022 207.096L14.06 870.058l67.882 67.884 835.441-835.441zM416 312c42.24 0 78.082 27.294 90.92 65.196L385.196 498.92C347.294 486.082 320 450.24 320 408c0-53.02 42.98-96 96-96zM110.116 504c38.292-60.524 89.274-111.924 149.434-150.296 3.918-2.5 7.876-4.922 11.862-7.3C261.45 373.732 256 403.226 256 434c0 54.89 17.286 105.738 46.7 147.418l-60.924 60.924C189.33 605.5 144.574 558.46 110.116 504zM768 434c0-27.166-4.256-53.334-12.102-77.898L434.09 677.91C458.658 685.752 484.832 690 512 690c141.382 0 256-114.618 256-256zm62.026-152.026l-69.362 69.362c1.264.786 2.53 1.568 3.786 2.368C824.612 392.078 875.592 443.478 913.884 504c-38.292 60.522-89.274 111.922-149.436 150.296C688.854 702.514 601.558 728 512 728a468.97 468.97 0 0 1-113.962-14.04l-76.894 76.894C380.862 812.316 445.094 824 512 824c223.31 0 416.876-130.042 512-320-45.022-89.916-112.118-166.396-193.974-222.026z"/>
  </symbol>
  <symbol id="shrink" viewBox="0 0 1024 1024">
    <path d="M576 448h416L832 288l192-192-96-96-192 192L576 32zm0 128v416l160-160 192 192 96-96-192-192 160-160zm-128-.004H32l160 160-192 192 96 96 192-192 160 160zM448 448V32L288 192 96 0 0 96l192 192L32 448z"/>
  </symbol>
</svg>
