<svg xmlns="http://www.w3.org/2000/svg" display="none">
  <symbol id="arrow-up" viewBox="0 0 1024 1024">
    <path d="M640 1024V512l192 192 192-192L512 0 0 512l192 192 192-192v512z"/>
  </symbol>
  <symbol id="enlarge" viewBox="0 0 1024 1024">
    <path d="M1024 0H608l160 160-192 192 96 96 192-192 160 160zm0 1024V608L864 768 672 576l-96 96 192 192-160 160zM0 1024h416L256 864l192-192-96-96-192 192L0 608zM0 0v416l160-160 192 192 96-96-192-192L416 0z"/>
  </symbol>
  <symbol id="shrink" viewBox="0 0 1024 1024">
    <path d="M576 448h416L832 288l192-192-96-96-192 192L576 32zm0 128v416l160-160 192 192 96-96-192-192 160-160zm-128-.004H32l160 160-192 192 96 96 192-192 160 160zM448 448V32L288 192 96 0 0 96l192 192L32 448z"/>
  </symbol>
</svg>
