<svg xmlns="http://www.w3.org/2000/svg" display="none">
  <symbol id="arrow-up" viewBox="0 0 1024 1024">
    <path d="M640 1024V512l192 192 192-192L512 0 0 512l192 192 192-192v512z"/>
  </symbol>
  <symbol id="enlarge" viewBox="0 0 1024 1024">
    <path d="M1024 0H608l160 160-192 192 96 96 192-192 160 160zm0 1024V608L864 768 672 576l-96 96 192 192-160 160zM0 1024h416L256 864l192-192-96-96-192 192L0 608zM0 0v416l160-160 192 192 96-96-192-192L416 0z"/>
  </symbol>
  <symbol id="eye" viewBox="0 0 1024 1024">
    <path d="M512 184C288.682 184 95.118 314.042 0 504c95.118 189.958 288.682 320 512 320 223.312 0 416.876-130.042 512-320-95.116-189.958-288.688-320-512-320zm252.45 169.704C824.612 392.078 875.592 443.478 913.884 504c-38.292 60.522-89.274 111.922-149.436 150.296C688.854 702.514 601.558 728 512 728c-89.56 0-176.858-25.486-252.452-73.704C199.39 615.924 148.41 564.524 110.116 504c38.292-60.524 89.274-111.924 149.434-150.296 3.918-2.5 7.876-4.922 11.86-7.3C261.45 373.732 256 403.226 256 434c0 141.382 114.616 256 256 256 141.384 0 256-114.618 256-256 0-30.774-5.452-60.268-15.408-87.598a481.379 481.379 0 0 1 11.858 7.302zM512 408c0 53.02-42.98 96-96 96s-96-42.98-96-96 42.98-96 96-96 96 42.982 96 96z"/>
  </symbol>
  <symbol id="eye-blocked" viewBox="0 0 1024 1024">
    <path d="M848.415 35.703L675.896 208.222C623.958 192.468 568.948 184 512 184 288.682 184 95.118 314.042 0 504c41.122 82.124 100.648 153.04 173.022 207.096L14.06 870.058l67.882 67.884 835.441-835.441zM416 312c42.24 0 78.082 27.294 90.92 65.196L385.196 498.92C347.294 486.082 320 450.24 320 408c0-53.02 42.98-96 96-96zM110.116 504c38.292-60.524 89.274-111.924 149.434-150.296 3.918-2.5 7.876-4.922 11.862-7.3C261.45 373.732 256 403.226 256 434c0 54.89 17.286 105.738 46.7 147.418l-60.924 60.924C189.33 605.5 144.574 558.46 110.116 504zM768 434c0-27.166-4.256-53.334-12.102-77.898L434.09 677.91C458.658 685.752 484.832 690 512 690c141.382 0 256-114.618 256-256zm62.026-152.026l-69.362 69.362c1.264.786 2.53 1.568 3.786 2.368C824.612 392.078 875.592 443.478 913.884 504c-38.292 60.522-89.274 111.922-149.436 150.296C688.854 702.514 601.558 728 512 728a468.97 468.97 0 0 1-113.962-14.04l-76.894 76.894C380.862 812.316 445.094 824 512 824c223.31 0 416.876-130.042 512-320-45.022-89.916-112.118-166.396-193.974-222.026z"/>
  </symbol>
  <symbol id="shrink" viewBox="0 0 1024 1024">
    <path d="M576 448h416L832 288l192-192-96-96-192 192L576 32zm0 128v416l160-160 192 192 96-96-192-192 160-160zm-128-.004H32l160 160-192 192 96 96 192-192 160 160zM448 448V32L288 192 96 0 0 96l192 192L32 448z"/>
  </symbol>
</svg>
