<svg xmlns="http://www.w3.org/2000/svg" viewBox="0 0 450 655"><title>Silos 163v</title><path d="M192 92.5c-13.4 2.2-25.6 7.9-30.7 14.3-1.8 2.3-3.3 4.4-3.3 4.8 0 .4-.7 1.5-1.5 2.4-.9 1-1.8 2.6-2 3.6-.3 1.1-1.3 4.8-2.3 8.4-3.1 10.7-.8 30.7 4.9 42 2.9 5.9 9.8 14.5 10.7 13.5 1.2-1.2 1-3.5-.3-3.5-1.7 0-5.8-8.6-5.6-11.8 0-1.4-.3-2.1-1-1.6-1.1.6-.9 2.8.5 6.9.4 1.1 0 .7-.9-.9-.9-1.5-1.4-3.7-1.2-4.8.3-1-.7-4.5-2.3-7.7-2.7-5.4-3.1-10.1-.9-10.1.5 0 .9-.5.9-1 0-.6-.9-1-2-1-1.8 0-2-.7-2-8.5 0-4.7.4-8.5.8-8.5.5 0 .8-1 .8-2.2-.1-1.4.6-2.4 1.7-2.6 1.6-.3 1.7-.1.7 1.8-.6 1.1-.9 2.6-.6 3.3.2.7.5.3.5-.8.1-1.7.3-1.8 1.2-.5.8 1.2.9.9.4-.9-.6-2-.4-2.3 1-1.7 1.3.5 1.6.2 1.1-1-.3-.8-.6-1.7-.6-2 0-.2-.6-.1-1.4.2-.8.3-1.7.1-2.1-.5-.7-1.3 1.5-8.1 2.7-8.1.4 0 .8-.6.8-1.4 0-.7 1.1-2.5 2.5-4 1.3-1.4 2.1-2.6 1.8-2.6-.4 0 .2-.6 1.2-1.4 1.5-1.1 2.1-1.1 3.7.3 1 .8 1.8 2.1 1.8 2.8 0 .7.5 1.3 1.1 1.3.6 0 .8-.7.5-1.6-1.4-3.8-1.7-6.2-.7-6.8.6-.4 1.1-.2 1.1.3 0 .6.5 1.1 1.1 1.1.6 0 .9-.7.5-1.5-.6-1.7.9-2.1 1.9-.5.9 1.5 2.5 1.2 1.9-.4-.3-.8-.1-1.7.5-2.1.6-.3 1.1-.2 1.1.3s1.7.6 3.9.2c2.5-.4 4.4-.3 5.1.4.8.8.9.6.4-.7-.5-1.3-1.4-1.7-3.1-1.4-3.2.6-1.6-.9 1.9-1.7 1.8-.4 3.2-.1 4.3 1.1 1.6 1.6 1.8 1.6 3.2-.3 1.2-1.6 2.6-1.9 10.7-1.9 10.7.1 12.6 1 12.6 6.1 0 2.8-.4 3.4-2.2 3.4-2.3.1-2.3.1.2 1.5 2.3 1.2 2.6 1.2 3.2-.8.3-1.2.6-3.7.7-5.5.1-2.7.4-3.2 1.9-2.8.9.3 3 .7 4.6 1 3.8.7 7.1 3.6 5.4 4.9-.9.6-.5.7 1 .4 2.4-.6 6.5 2 5.6 3.5-.3.4.2.8 1.2.8 1.3 0 1.5.6 1 3.2-.3 1.7-1.4 4-2.3 5-.9 1-1.1 1.8-.5 1.8.6 0 1.8-1.2 2.5-2.6 1.7-3.2 2.4-2.4 4.9 5.6 1.8 5.6 2.5 20 1.1 21.4-.8.8-.9 1.3-1.2 7.3-.1 2.4-.6 3.3-1.8 3.3-1.3 0-1.4.3-.5 1.2 1.6 1.6 1.5 3-.9 11-1.3 4.4-2.4 6.6-3.1 6.2-.7-.4-.8-.3-.4.4 1.3 2.1-5.8 14.5-12.3 21.4-6.6 7.1-8 7.8-10.1 5.2-.8-.8-3-2.3-4.9-3.2l-3.6-1.6 6.5-.6c8-.8 8.9-1.2 11.7-5.3 2.5-3.8 3.1-6.8 3.8-20.2.3-5.5.8-12.5 1-15.5.4-5.5 3.7-16.2 5.8-19 1.1-1.3 1-1.3-.7 0-1.8 1.4-1.9 1.3-1.3-.3.4-1.1.3-1.6-.4-1.2-.6.4-1.3-.2-1.5-1.2-.7-2.7-5.8-5.5-9.9-5.5-2.5 0-3.6-.5-4-1.9-.4-1-1.1-1.9-1.6-1.9s-.9-.9-.9-2.1c0-1.1-.4-1.7-1-1.4-.5.3-2.6.1-4.6-.4-2.3-.6-4.3-.7-5.4-.1-1.1.6-2.1.5-2.8-.2-.9-.9-1.2-.9-1.2 0 0 .7-.7 1.2-1.5 1.2s-2 .8-2.6 1.8c-.9 1.5-2.2 1.7-7.3 1.4-6.1-.4-6.1-.4-9.3 3.6-1.9 2.4-4.3 4.2-6.1 4.5-6.8 1.4-10.3 14-6.7 23.7.9 2.5 2.2 6.9 2.9 9.8.8 2.8 2.5 7 3.9 9.1 1.8 2.8 2.3 4.1 1.4 4.4-.7.3-.2.6 1 .6 3.6.2 3.7 2 .1 3.5-2.2 1-3.8 1.1-5 .5-1.1-.6-1.8-.6-1.8 0 0 .5.6 1.2 1.3 1.4.7.3.5.6-.5.6-1 .1-1.8.5-1.8 1s-1.2 1.2-2.7 1.6c-7.2 1.8-28.3 20.2-35.4 30.8-2.1 3.2-3.9 6.2-3.9 6.7s-1.1 2.9-2.4 5.2c-4.2 7.7-10.4 24.8-17.9 49.3-1.3 4.3-3 12.5-2.8 14 0 .2-.6 2.3-1.4 4.6-.8 2.3-1.5 5.8-1.5 7.9 0 2-.3 4-.7 4.4-.4.3-.8 1.4-.9 2.4-.3 1.4-1.2 6.5-2.8 14.7-.1.5-.4 1.4-.7 2-.4.5-.9 2.2-1.3 3.7-.6 2.6-.1 3.2 2.4 3 .3 0 3 .8 6 1.7 4.3 1.4 5.5 2.3 5.3 3.7-.1 1.1-1.1 6.6-2.1 12.4-1.1 5.8-1.7 10.7-1.5 11 .3.3 2.8.9 5.6 1.5l5.1 1 1.8 7.4c1 4.1 3.6 10.7 5.8 14.8l4.1 7.4-6.1 19.2c-9.4 29.6-11.2 36.9-11.3 47.6l-.2 9.5 3.5.8c5.1 1.1 11.7 2 18 2.3 3 .1 6.5.3 7.6.4 2 .1 2.2.8 2.7 10.4.3 5.6 1.3 15.6 2.1 22.2 1.5 11.9 2.1 39.9 1 44.3-.6 2.2-4.4 3.2-4.4 1.2 0-.6-.7-1-1.6-1-1.3 0-1.4.6-.8 3.2 1 4.5.5 13.8-1.1 20.1-1.5 5.8-.7 8.4 2.8 9.1 1.2.3 6.8.7 12.3.9 12.3.5 15.3 1.9 27.4 13.2 7.8 7.4 10.4 8.7 12.8 6.3 1.8-1.8 1.4-7.9-.7-12.4-2.3-4.7-10.1-12.4-19.1-18.8-11.3-8-10.5-6.8-8.6-12.2 2.1-6.2 2.1-6.4-1-6.4-2 0-2.4-.4-2-1.8 1.2-3.7 3.5-15.3 5.6-28.2 2.5-15.2 10.7-55 11.4-55.7.3-.3 2.5.4 4.9 1.6 2.4 1.1 5.3 2.1 6.5 2.1 1.1 0 4.4.5 7.1 1.1l5 1.1-.6 12.6c-.5 10.8-.2 14.5 1.7 24.2 1.3 6.3 2.6 11.7 2.9 12 .3.3.6 2.3.6 4.5.1 3.6 1.4 21.4 1.8 24 .1.5-1.5.9-3.5.9-4-.1-4.7 1-2.8 4.6 1.4 2.6 2 15.4 1 21.5-1.4 9 .5 10.7 11 9.3 3-.4 8.7-.8 12.7-.9 6.8-.2 7.6.1 14.8 4.1 4.1 2.4 8.3 5.1 9.3 6 1.9 1.7 8.7 4 12 4 3.5 0 5.2-2.5 4.2-6.3-1.2-4-8.9-11.3-14.6-13.7-2.3-1-7.8-4.1-12.2-6.8-4.4-2.8-9-5.3-10.2-5.7-1.5-.5-1.9-1.2-1.5-2.3 1.1-2.8 2.4-10.6 1.9-11.4-.3-.4-1.8-.6-3.4-.4-2.4.3-2.8 0-2.1-1.3.8-1.5 1.9-8.5 2.6-15.8.2-1.8 1-7 1.9-11.5.8-4.6 2-12.8 2.6-18.2.6-5.5 2.2-15.4 3.5-22.2 1.4-6.7 2.5-12.4 2.5-12.8 0-.3.8-.6 1.8-.6 2.7 0 3-.6 2.2-5.3-.5-2.3-1-9.3-1.3-15.4-.3-6.2-.8-11.6-1-12-.8-1.3-2.6-24.4-3.2-40.8-.4-8.3-1-19.7-1.5-25.5-1.1-12.3-1.4-34.5-.6-35.9.4-.6 1.9-.3 3.9.9 5 2.9 16.3 3.6 22.8 1.5 10.2-3.4 16-8.4 17.9-15.4 2.2-8.2 2.2-14.5.1-24.6-3-14.4-3.7-16.4-7.5-22.3-3.1-4.8-6.4-13.7-5.5-14.6.6-.6 11.2 1.5 13.3 2.6 1.2.6 2.2.6 2.9-.1.6-.6.8-1.1.4-1.1s-.1-1.3.8-3c.8-1.6 1.5-3.1 1.4-3.2-.1-.2.4-2.3 1.1-4.7 1.2-4.4 4.9-12.2 5.1-10.8.1.4.2 1.2.3 1.8.2 2.5 27.9 11.4 38.4 12.5 6.1.6 7.5.4 9.2-1.1 2.3-2.1 3.4-6 3.9-13.8.1-2.6.3-2.7 5.4-2.7 2.9 0 7.8-.4 10.8-.9 3-.5 7.5-1.2 10.2-1.6 4.1-.5 4.7-.9 4.7-3 0-2.6-4.2-4.7-8.2-4-5.9 1-50.8 1.4-50.8.5 0-.6 1.4-1.9 3.1-2.9 2.4-1.5 3.8-1.7 5.6-1 1.5.6 3.1.5 4.3-.1 1.1-.6 5.1-.8 8.9-.6 10.9.7 17.3-2.1 14-6-1.2-1.4-3.7-1.6-19.9-1.1-17.6.4-18.9.6-27.5 3.6-8.1 2.9-9.8 3.1-16.9 2.7-4.3-.3-8.1-.7-8.3-1-.6-.6 16-9.2 23.5-12.2 3.7-1.4 7.7-3.4 8.9-4.4 2.1-1.6 2.1-2 .9-4.6-.8-1.6-2.1-6.6-2.9-11.1l-1.4-8.3 4.1.8c5.2.9 36.2.8 39.8-.1 1.8-.5 2.9-1.6 3.2-3 .3-1.2 1-5 1.7-8.4 1.3-7.1.4-6.5 15.7-9.9 7.6-1.7 9.4-3.2 7.1-6-1.5-1.8-3.3-1.6-19.4 1.6-2.7.5-10.6 1.6-17.5 2.5-6.9.8-13.5 1.8-14.7 2.1-3.5 1-2.7-.9 1.2-3 1.9-1.1 3.5-2.3 3.5-2.7 0-.4 1.9-1 4.3-1.4 8.1-1.2 13.5-3.6 14.2-6.3 1.2-4.8.6-4.9-18-1-7.2 1.5-12.4 4.2-19.1 9.8-3.2 2.8-9.5 7.5-13.9 10.5-10.4 7.2-13.6 9.6-37.5 28.3-11 8.6-19.1 13.5-22.3 13.5-1.6 0-5.6-1.9-10-4.8-3.9-2.7-7.3-5-7.5-5.1-.1-.1 2.6-3 6-6.6 11.7-12 19.6-32.2 21.6-55.3 1.3-14.9-2.1-29-8.2-34.2-1.4-1.3-2.6-2.7-2.6-3.2 0-1.2-9.8-6.1-12.3-6.1-1.2 0-4.2-.6-6.7-1.4-5.6-1.6-18.2-1.7-28-.1zm19 23.8c0 .2-.9 2.2-2 4.5-1.1 2.2-2 4.6-2 5.2 0 .6-.4.9-.9.6-.4-.3-.6-1.8-.3-3.2.3-1.9.1-2.5-.7-2-2.2 1.4-.9 11.6 1.5 11.6 1 0 1.4-1.3 1.4-4 0-4.5 3.5-12.4 5-11.5.6.3.1 1.9-1.1 3.4-1.4 2-2.2 4.5-2.2 7.9-.1 2.8-.5 4.9-.8 4.6-.4-.2-.9.1-1.1.7-.2.6-1.3.3-2.8-.9-2.1-1.7-2.4-2.8-2.4-8 0-3.4-.4-5.8-.9-5.5-1 .6-.4 9.7.9 12.8.7 1.8.6 1.8-.9.6-.9-.7-1.7-2.4-1.7-3.6 0-3.2-1-5.6-2.1-4.9-.5.3-.9-.3-.9-1.4 0-2.4 2.9-5 6.6-6.2 2.9-.8 7.4-1.3 7.4-.7zm5.5 3.8c.4.6-.2 1.9-1.4 3-2 1.9-2.6 3.4-3.4 8.9-.3 1.4-.5.7-.6-1.8-.2-6.9 3.4-13.5 5.4-10.1zm-21.3 1.5c.4.3.5 1 .2 1.7-.8 2.2 2.4 8.4 5.8 11.1 2.6 2 2.9 2.6 1.4 2.6-2.6 0-8.5-6.8-9.2-10.8-.4-1.8-1-3-1.4-2.5-1.6 1.6.4 6.7 4.1 10.4 4.3 4.3 2.8 5.4-1.9 1.4-2.9-2.4-5.9-10.5-4.7-12.6.4-.5.1-.9-.4-.9-1.5 0-1.4 5.5.3 9.4.7 1.8 2.6 4.2 4.1 5.4 3 2.4 2.7 3.7-.9 4.4-3.9.8-7.5-2.9-9-9.2-1.1-4.5-1.4-4.9-1.5-2.3-.1 4.4 1.5 8.4 4.5 10.9 1.5 1.2 2.2 2.4 1.6 2.8-1 .6-6.6-4.1-6.8-5.8 0-.6-.4-2.3-.9-3.9-.9-3.5.9-8.5 4.4-11.4 1.9-1.7 3.3-2.1 6.1-1.7 1.9.3 3.8.8 4.2 1zm21.8 4.1c-1.2 1.6-2 4.1-2 6.4 0 2.2-.5 3.9-1 3.9-.7 0-.9-1.5-.6-3.8.8-6.2 3-10.7 4.7-9.6.5.3 0 1.7-1.1 3.1zm13.3 2.3c3.1 3.5 3.4 5 1 5-1.7.1-1.7.1 0 1.1 2 1.2 2.2 3.7.2 6.2-1.3 1.8-1.4 1.8-2.5-.2-.7-1.5-.8-3.7-.2-7.2.6-3 .6-4.7.1-4.2s-1.2 3.2-1.6 6c-.5 4.3-.8 5-2.4 4.6-1.1-.3-2-1.5-2-2.9-.1-1.3-.2-3-.3-3.7-.1-.6.5-2.2 1.2-3.5.8-1.2 1.2-2.5.9-2.8-1-1-3.7 5.4-3.7 8.6 0 1.8-.4 2.9-1 2.5-1.5-.9-1.2-6.3.6-9.3l1.6-2.7-2.1 2.4c-1.3 1.4-2.1 3.7-2.1 5.8 0 2.2-.4 3.2-1.1 2.7-1.6-1-.1-7.5 2.4-10.2 2.9-3.1 7.2-2.3 11 1.8zm-51.8 2c-.9 3 1.1 9 4.1 12.2 2.2 2.2 2.4 2.8 1.1 2.8-2.4 0-6.5-6.8-7.2-12.3-.6-4-.5-4.7 1-4.7 1.2 0 1.5.5 1 2zm28.3 1.1c-.3.8-.7.3-1.1-1-.4-1.7-.3-2.1.5-1.3.5.5.8 1.6.6 2.3zm-31.8 2.3c0 4.8 3.1 10.3 6.9 12.2 1.2.7 1.8 1.5 1.3 1.8-4 2.4-12.1-10.3-10.5-16.4.9-3.5 2.3-2.1 2.3 2.4zm-3.5 2.4c-.6.6 2.2 6 5.2 10.1 2.4 3.1 2.4 3.2.4 2.2-4-2.2-9.4-12.8-6.5-12.8.8 0 1.2.2.9.5zm55.4 6.6c3 1.6 3.2 2 2.8 6.3-.5 6.8-6 9.6-11.5 5.7-1.2-.8-2.2-1.2-2.3-.7 0 .4-.4-.2-.9-1.4s-.7-4.5-.6-7.2c.2-2.9 0-4.8-.5-4.5-1.3.8-1.1 8.5.5 15.6 1.7 7.6 2.7 16.8 1.8 16.8-.4 0-1.3-.9-2-2-1-1.6-1.7-1.8-3.1-1.1-2.1 1.2-3.2.5-2.4-1.5.6-1.6-1.3-1.9-2.2-.4-1.1 1.9 1.5 4 4.1 3.4 1.7-.4 2.6-.1 3 1 .3.9 1.2 1.6 1.9 1.6 1.5 0 2.7 3.7 1.5 4.5-.5.3-2 .6-3.4.7-2 .2-2.6.8-2.6 2.7 0 2.4.1 2.4 1.4.5 1.2-1.5 1.7-1.7 2.7-.7 1.9 1.9 3.7 1.6 4.9-.8.9-1.6.8-2.3-.3-3.2-.9-.8-1.7-4-2.1-9.2-.4-4.4-.9-9.4-1.2-11-.5-2.5-.4-2.8.7-1.8.7.7 2.2 1.3 3.2 1.3 1.6 0 1.7.3.7 1.5s-1 1.5.4 1.5c.9 0 1.6.4 1.6 1 0 1.5 1.7 1.2 2.4-.5.3-.8 0-1.4-.6-1.2-.6.1-1.3-.4-1.5-1.1-.3-.7.3-1.2 1.4-1.2 1.1 0 2.5-.6 3.2-1.3 1.1-1 1.2.9.6 10.8-.7 12.9-2.7 19.5-6.3 21.4-3.1 1.6-13.6 1.3-18.4-.5-5.5-2.1-10.8-7.8-10.8-11.6 0-1.5-.4-2.8-1-2.8-2.7 0 .5 10.5 3.9 12.9 1.4 1 4.3 2.4 6.4 3.2 3.5 1.2 3.7 1.5 3.1 4.4-.9 4.5-1.9 5-5.9 2.7-1.9-1.2-4.6-2.2-5.8-2.2-2.8.1-13.7-1.7-14.3-2.3-.2-.2.3-2 1.1-4 1.4-3.3 1.4-3.7 0-3.7-.8 0-1.5.8-1.5 1.8s-.7 2.7-1.6 3.8c-.8 1-1.3 1.4-1 .7.4-.6-.3-1.5-1.5-1.8-1.4-.5-1.9-1.3-1.6-2.6.6-2.4.9-2.4-4.8.6-6.6 3.6-13.5 8.4-13.5 9.5 0 .6-.4 1-.9 1-1.2 0-10.1 9-10.1 10.2 0 .5-.4.7-.9.3-.5-.3-1.3 0-1.7.6-.4.8-.3.9.4.5s1.2-.5 1.2-.2c0 .9-4.9 5.5-7 6.6-1.1.6-2 1.6-2 2.3 0 .8.4.7 1-.3.5-.8 1.2-1.1 1.7-.7.9 1-1.8 2.8-3 2-.5-.3-.6.5-.2 1.8.4 1.6.3 2-.3 1.1-.7-1.1-1-1.1-1.5.3-.4.9-.3 1.3.3 1 1.7-1 1.1.7-.7 2.2-1 .8-1.3 1.2-.6.9.7-.4.9.1.6 1.3-.3 1.1-1.3 2.1-2.4 2.4-1.1.3-1.8 1.3-1.8 2.4.1 1.6.2 1.6.6 0 .2-.9.9-1.7 1.5-1.7.5 0 .8.3.6.8-.1.4-1.6 4.1-3.2 8.2s-3.3 7.9-3.9 8.5c-.7.7-.8.4-.4-.8.4-1.1.3-1.6-.4-1.1-.6.3-.8 1.7-.5 3 .6 2.4-1.1 7.4-2.6 7.4-.5 0-.7.8-.4 1.8.8 2.4-3.8 16.5-4.9 15.5-.5-.5-.4-.1.3.8 1.6 2.1-.2 11.5-2.4 12.3-.8.3-1.4 1.3-1.4 2.1 0 .9.5 1.3 1 1 .6-.4.8-1.1.5-1.6-.4-.5-.1-.9.4-.9 1.3 0 1.3.5.2 5-.5 1.9-1.2 5.3-1.5 7.5-1.4 11.4-1.7 12.2-3.6 11-.9-.6-.9-1 .1-1.6 1.1-.7 1-.9-.3-.9-2.2 0-3.2-1.6-2.3-3.8.5-1.4.7-1.4 1.5-.2s1 1 1-.8c0-1.3.4-2 1-1.7.6.4 1-.7 1-2.7-.1-3-.2-3.1-1.4-1.5-2 2.5-2.8-.2-1-3.4.7-1.3 1.3-3.5 1.4-4.9 0-3.7 8.3-33.9 12.4-45 4-11.2 13.2-30 14.7-30 .5 0 1.3-.8 1.6-1.8.7-1.9 14.4-15.7 18.7-18.7 1.5-1.1 4.4-3.3 6.4-4.9 3.2-2.5 12.2-7.1 17.5-8.9 2-.7 2.2.4.5 2.2-1.1 1-1 1.2.2.9 2.2-.5 3.9-3 4-5.8 0-2.4 3.9-17.3 5.6-21.4.6-1.5.4-1.8-.8-1.3-.9.3-2.4 0-3.3-.6-2.2-1.7-.7-5.7 3.2-8.2 5.4-3.7 18.9-8.9 20.4-7.9.5.3.9.1.9-.5 0-1.1 11.5 2.6 16.9 5.3zm-55.9.5c0 .5 1.2 2.3 2.6 4 1.9 2.3 3.4 3.1 5.7 3.1 2.4 0 2.8.3 1.7 1-1.2.8-1.2 1-.1 1 1.1 0 1.1.3.1 1.5-2.3 2.8-11-.1-11-3.7 0-.5 1-.2 2.3.6 3.1 1.9 6.7 2.9 6.7 1.8 0-.5-1.2-1.2-2.7-1.5-1.6-.3-3.8-1.5-5-2.7-2.3-2.1-3.1-6-1.3-6 .6 0 1 .4 1 .9zm178 3.9c0 2.1-4 4.2-11 5.8-4.1 1-8.2 2.6-9 3.5-.8.9-2.4 1.8-3.5 2-1.3.3-2.1 1.4-2.3 2.9-.5 5-1.3 7.1-3.3 9.1-1.1 1.1-1.7 2.4-1.4 3 1 1.5 2.6-.1 4.7-4.7 1.2-2.8 2.7-4.6 4.1-4.9 4.6-1 14.4-2.5 20.2-3 3.3-.4 9.4-1.3 13.5-2.1 9.4-1.8 15.9-2.2 16-.9.1.5-3.2 1.6-7.2 2.3-4 .7-9.1 1.8-11.3 2.4-2.2.7-4.2 1.2-4.5 1.3-.3.1-2.7.5-5.5.9-10.2 1.5-10.1 1.5-9.9 4.4.1 1.5.2 2.8.4 2.9.2.3.3 3.5.1 8l-.1 2.6-14.2-.6c-7.9-.3-15.1-.9-16.1-1.2-1.4-.6-1.7-1.8-1.6-6.9.2-7.1 1.4-11 3.1-10 .6.4.9.3.5-.2-.7-1.2 1-3.2 5.8-7 5.5-4.3 9-5.9 16.6-7.8 8.1-2 9.8-2 10.5-.1.4.8 1.1 1.5 1.6 1.5.7 0 .6-.5-.1-1.3-.6-.8-.8-1.7-.4-2 .9-1 4.3-.9 4.3.1zm-165.3 8.9c.2.6-.5 1.4-1.6 1.8-1.2.3-2.1 1.1-2.1 1.6s1.4.2 3.1-.6c3.4-1.8 4.8-1.5 2.5.4-.8.7-1.2 1.9-.9 2.7.3.8 0 1.4-.6 1.4s-1.1-.5-1.1-1.1c0-.5-.4-.8-.9-.5-1.3.8-4.2-.4-3.5-1.5.4-.8-.8-1.3-2.7-1.1-.4.1-1.5-.8-2.4-1.8-1.8-1.9-1.7-2 2.2-1.4 2.6.3 4.4.1 4.8-.6.8-1.3 2.7-.9 3.2.7zm-6.2 6.3c2.2 1.1 4.5 2 5.2 2 .7 0 1.3.4 1.3 1 0 1.4-2 1.2-5.4-.5-3.9-2-4.6-1.8-1.7.5 1.3 1.1 3.2 2 4.2 2 1.3 0 1.9.7 1.9 2.2 0 2-.1 2-1.8.5-1-1-2.2-1.7-2.7-1.7s.1.9 1.3 2c2.3 2.2 2.9 4 1.3 4-1.1 0-6.5-8.7-7.3-11.8-.4-1.2-.5-2.2-.4-2.2.1 0 1.9.9 4.1 2zm177.5 4.9c0 1.6-1.1 2-6.2 2.7-8.5 1.1-8.2 1.1-8.6-.9-.2-.9.1-1.7.7-1.7s1.1.6 1.1 1.2c0 .9.3 1 .8.2.6-.9 7.3-2.9 11-3.3.6 0 1.2.8 1.2 1.8zm-49.8 7.9c-.4 3.9-.4 6.9 0 6.6.5-.3.8.7.8 2.3 0 5 .4 7.3 1.3 7.3.4 0 .6 1.8.4 4-.2 2.1 0 3.7.5 3.4.4-.3.8-.2.8.3 0 .4.3 1.8.6 3 .5 1.7-.1 2.5-2.5 3.7-3.5 1.8-3.3 2.1-3.6-5.9 0-2.8-.7-10.6-1.5-17.4l-1.3-12.4 2.4-1.8c1.3-1 2.5-1.4 2.7-1 .1.4-.1 4-.6 7.9zm-5.8 1.4c.4 3.5.8 7 .8 7.8 0 .8.4 4 .8 7 .5 3 1 8.2 1.2 11.5.1 4.9-.1 6.1-1.5 6.3-1.4.3-1.7-.5-1.6-5.5 0-3.2-.4-11.2-1-17.8-1.3-14.7-1.3-15.5-.2-15.5.4 0 1.1 2.8 1.5 6.2zM354 172c0 1.7-3.7 3-8.4 3-3.4 0-4.6-.4-4.6-1.5 0-1.8 2.6-2 3.3-.3.3.8.6.6.6-.5.1-1.3 1-1.7 4.6-1.7 2.5 0 4.5.4 4.5 1zm-57.6 14.3c0 6.3.4 11.3.9 11 .4-.2.7.3.7 1.1 0 .9-.4 1.6-1 1.6-.5 0-1 .5-1 1.1 0 .5.5.7 1 .4.6-.3 1-.1 1 .4 0 .6-.4 1.1-.9 1.1-.6 0-.6 1.2 0 3.2 1.1 4.1 1.1 4.1-.1 3.3-.5-.3-1-.3-1 .2 0 .4-2.1 2-4.8 3.4-4.4 2.5-5.6 2.7-17.5 2.7-10.1.1-14.4.5-20.1 2.2-5.4 1.6-7.9 2-9.2 1.2-1.6-.9-1.3-1.2 2-2.6 9.2-3.8 15.2-4.7 29.1-4.1 13.7.6 16.1.3 14.8-1.8-1.3-2.1-1.1-5.7.4-5.7.7 0 1.3-.5 1.3-1.1 0-.5-.4-.8-1-.4-.5.3-.8-.7-.7-2.5.1-1.6.4-3 .8-3 .3 0 .6-1.8.7-4 .2-2.3.7-5.2 1.2-6.6.6-1.4 1-3.1 1-3.8 0-1.4-2.7-1.5-4.8-.2-.6.4-1.6.4-2.2.1-.5-.3-1-.2-1 .4 0 .5-1.4 1.9-3 3.1-2.6 1.9-3.3 2-4.8.8-1.5-1.1-1.6-1.1-.4.3 1.1 1.5.9 2-1.4 3.8-1.5 1.2-3.4 1.9-4.1 1.6-.8-.2-1.2-.1-.9.4.3.5-.7 1.4-2.3 2.1-1.9.7-2.8 1.7-2.4 2.6.3.8 0 1.4-.6 1.4s-1.1-.6-1.1-1.2c0-.7-.7-.2-1.6 1-.8 1.2-2.2 2.2-3 2.2-.8 0-1.4.7-1.4 1.5s.4 1.5 1 1.5c1.8 0 8.5-5.1 9.2-7.1.4-1 1.3-1.9 1.9-1.9.8 0 .8.4-.1 1.5-3.4 4.1 2.8 0 10.1-6.7 2.2-2.1 5.4-4.7 7.1-6 2.6-1.8 3-1.9 2.5-.5-.3.9-.2 1.7.3 1.7 1.2 0-1 5.2-2.7 6.3-.7.4-2.6 2-4.3 3.5-1.7 1.6-5.3 3.6-8 4.6-2.8 1-5 2.3-5 2.8 0 .7.5.6 1.4-.1.8-.6 2.7-1.3 4.4-1.4 1.6-.1 2.8-.5 2.6-.8-.2-.3.7-1.1 2-1.7 1.9-.9 2.5-.8 3 .4.3.9-.8 2.1-3.2 3.4-2.5 1.4-2.9 1.9-1.2 1.4 1.4-.3 4-1.8 5.9-3.2 2.7-2 3.3-2.2 2.8-.8-.4 1-.7 3.6-.7 5.8 0 3.6-.2 3.9-1.6 2.7-.8-.7-2.5-1.3-3.7-1.4-1.2-.1-3.5-.5-5.1-1-2-.5-2.7-.5-2.2.3.3.6 0 1.3-.6 1.6-.7.3-.1.4 1.5.1 1.5-.3 2.7-.1 2.7.3 0 .5 1 .8 2.3.7 1.3-.2 3.4.4 4.8 1.1 2.3 1.4 2.2 1.4-1.7.9-2.3-.4-7.4-.7-11.3-.7-7.1-.1-7.2-.1-7.8-2.9-.3-1.6-1-2.9-1.5-2.9-.6 0-.8.7-.4 1.5.3.8.2 1.4-.2 1.4-2.2-.4-4.2.2-3.8 1 .3.5 1.5.7 2.5.4 1-.3 2.1-.1 2.4.4.3.5-.4.9-1.6 1-1.2.1-3.2.4-4.4.8-1.5.5-2.3.3-2.3-.4 0-.6-.4-1.1-1-1.1-.5 0-.6.8-.3 1.7.6 1.6.5 1.6-1.1.4-1.7-1.4-1.7-1.6 0-2.8.9-.7 2.1-1 2.7-.6.6.3.7.1.3-.5-.5-.8.1-1.2 1.5-1.2 1.8 0 1.9-.2.9-1.5-1.1-1.3-1.4-1.4-2.4 0-1.8 2.3-12.9 7.6-13.9 6.6-.5-.5-.1-1.2 1.2-1.6 1.1-.3 2.7-1.2 3.3-1.8 2.8-2.6 6.9-4.7 8-4.1.6.4.8.3.5-.3-.4-.6 3-3.9 7.6-7.4 4.5-3.5 9.3-7.4 10.7-8.6 1.4-1.3 2.8-2.3 3.2-2.3.3 0 1.3-.6 2-1.3 4.3-4.2 15.3-11.6 16.1-10.8.5.5 1 6.1 1.1 12.4zm56.7-8.1c-.6 1.7-1.9 2.4-5 2.9-3.3.4-4.1.3-3.6-.9.3-.7.5-1.7.5-2.2 0-.8 2.6-1.4 7.2-1.9 1.4-.1 1.6.3.9 2.1zm-9.3.5c-.5 2.5-2.8 2.8-2.8.4 0-1.2.6-2.1 1.6-2.1.9 0 1.4.7 1.2 1.7zm-125.6 2.5c-.6.6-1.5.8-1.9.4-.4-.4-.1-1.1.7-1.6 1.9-1.2 2.7-.3 1.2 1.2zm-45.5 7.9c.5 1.6.8 1.8 1.5.7.8-1 .9-1 .5.2-.2.8-1.2 1.5-2.3 1.5-6.9 0-19.1 12-25.8 25.3-1.5 2.9-3.6 6.2-4.6 7.2-1.1 1.1-2 2.3-2.1 2.7-.2 2.3-4.7 10.2-5.4 9.5-.5-.4-.5-.2-.1.5s-.1 2.4-1 3.8-1.3 2.5-1 2.5c.4 0-.1 1.1-1 2.5s-1.3 2.5-.9 2.5c.3 0-.1.7-.9 1.6-.9.8-1.6 2.1-1.6 2.7 0 .7.4.6 1-.3.8-1.3 1-1.2 1 .2 0 1-.9 2.7-2 3.8-2 2-2.7 3.6-1.2 2.6.4-.2.8.4.9 1.4.1 1.1-.2 2.2-.8 2.5-.5.4-.6-.2-.2-1.2.4-1.3.3-1.5-.6-.7-.6.6-1.2 2.7-1.3 4.7-.1 2-.5 3.4-1.1 3-.5-.3-.6.4-.2 1.7.5 1.6.4 2-.5 1.5s-1-.1-.5 1.5c.4 1.4.2 2.5-.5 3-.7.4-1.3 2.2-1.4 3.9 0 1.7-.5 3.1-1 3.1-.4 0-.6.9-.3 2s.1 2-.4 2-.7 1.3-.5 3c.2 1.6 0 3-.4 3s-1 .9-1.3 2c-.3 1.2 0 2 .8 2 .7 0 1.5.7 1.9 1.5.3.8.1 1.5-.3 1.5-.5 0-1.1-.6-1.4-1.3-.7-1.8-1.4-.6-2.1 3.3-.3 1.9-1.3 5.7-2.1 8.4s-1.5 6-1.5 7.4c0 2 .3 2.2 1.4 1.3 2-1.7 2.5-.4 2.2 6.7-.1 4.9.1 6.1 1.2 5.7.7-.2 1.1-.1.9.3-.3.4.1 1.2.8 1.8.9.9 1.2.6 1.3-1.7 0-1.6-.4-2.7-.9-2.4-.5.4-.9-.1-.9-1s.5-1.3 1.1-.9c.7.4.9 0 .6-1.2-2-7.4-1.7-9.3 1.4-7.1 2 1.5 3.3 6.4 1.9 7.2-.5.3-1 1.1-1 1.6 0 .6.4.7 1 .4.6-.4.7 1.1.3 4.1-.4 3.4-.3 4.5.5 4 .7-.4 1.2-1.4 1.2-2.2 0-.8.4-1.4.9-1.4.9 0 .6-4.8-.5-7.8-.7-2.3.6-3.3 2.3-1.7 2 2.1 2.8 1.2 1.3-1.5-.8-1.5-1.8-2-3.1-1.7-1 .3-1.9.1-1.9-.4 0-1.2-5.9-4.1-7-3.4-1.7 1.1-2-3.3-.5-9 1.8-7.2 2.5-8 2.2-2.7-.1 2.3-.5 4.2-.8 4.2-.4 0-.9.8-1.2 1.9-.6 2.3 4.8 6 5.6 3.9.3-.7.6-.5.6.6.1 1.1.4 1.6.8 1.3.3-.4 1.7 0 3 .8 1.8 1.2 2.8 1.3 4.1.5 1.6-1.1 1.6-1.1 0-.6-1.9.6-3.6-1.3-2.1-2.3.9-.5 2.3-9.5 2.8-17.9.1-1.8.5-3.5.8-3.9.4-.3-.1-1.2-1.1-2-1.5-1.3-1.5-1.4 0-.9 1.2.3 2-.4 2.7-2.6 1.2-3.4.2-6.4-1-3.2-.7 1.7-.8 1.7-.8-.4-.1-1.2.5-2.2 1.3-2.2 1.5 0 2.9-2.7 2.1-4-.3-.5-1.6-.5-2.8-.1-2.1.8-3.1 3.5-4.1 10.6-.1 1.1-.8 3.7-1.5 5.8-1.3 3.8-.6 10.1.9 9.2.5-.3.5-1.7-.1-3.2-.5-1.4-.8-2.6-.7-2.7.2-.1 1.2-.8 2.2-1.6 1.1-.8 1.7-1 1.3-.4-.3.6-.9 3.1-1.2 5.5-.8 6.9-1.6 9.9-2.6 9.9-1.1 0-1.1-1.1 0-2.9.6-.9.6-2.2 0-3.3-1.6-3.1-2.5-2-2.5 2.9 0 3.9-.3 4.8-1.7 4.7-.9-.1-1.7.2-1.7.8 0 .5-.4.7-.8.4-1-.6.4-12.3 1.8-14.8s1.3-2.8-1-2.8c-2.1 0-2.7-1.5-1-2.5.6-.3 1-.1 1 .4 0 .6.4 1.1 1 1.1s.6-.9 0-2.6c-1-2.6-.7-7.1.6-8.3.4-.3.4 1.1 0 3.1-.4 2.1-.4 3.8-.1 3.8.7 0 2.1-3.7 2.9-8 .7-3.3.6-3.4-.9-1.5-1.6 1.9-1.6 1.9-.9-1 .4-1.7 1.6-4.2 2.7-5.6 1-1.5 1.9-4.2 2-6 .1-1.9.6-3.7 1.1-4 .5-.4.9-2 1-3.7 0-1.7.4-2.8.9-2.5.8.5.9-.5.9-5.7-.1-3.2 0-3.3.8-1 .8 2.5.8 2.5.9-.5.1-1.7.9-5.3 2-8 2.7-7.2 6.2-15.9 6.6-16.3.4-.5-.5 15.4-1.1 19.6-.3 2-.9 3-1.6 2.6-.7-.4-.8-.2-.4.5.4.6.3 1.7-.3 2.4-.5.7-1.2 2.4-1.4 3.7-.3 1.4-1 3.6-1.5 5-.6 1.4-1.7 4.8-2.6 7.6-.8 2.7-1.8 5.8-2.2 6.7-.4 1.2-.1 1.7 1 1.7.9 0 1.6-.8 1.6-1.9 0-3.6 1.1-5.3 2.6-4 1.1.9 1.4.7 1.4-1 0-1.2-.4-1.9-1-1.6-1.5.9-1.3 0 1.7-9.2 2.7-8.2 4.9-11.1 4.1-5.3-.3 1.6-.1 3 .4 3 .4 0 .8 1.8.8 3.9 0 2.2.4 4.1.9 4.3.6.1 1.2 1.4 1.4 2.8.3 1.4 1.4 5 2.5 8.1 1.5 4.2 1.7 6.1.9 7.5-.6 1-1.4 3.8-1.7 6-.5 3.3-.3 4.4 1.1 5.3 1.6 1 1.7 1.5.5 4.8-.7 2.1-1.1 5.3-.9 7.2.3 2.2.1 3.1-.6 2.6-.6-.3-1.1.1-1.1 1s.9 1.9 2 2.2c1.1.3 2 1.3 2 2.2 0 1.6-2.6 10.6-9.1 32.1-1.7 5.8-4.4 14.8-6 20-6.9 23.3-7.3 24.5-7.7 22.2-.2-1.2-.7-2.2-1.2-2.2-.9 0-2.3-3.7-2.3-6.2 0-1-.4-1.5-.8-1.2-1.2.7-3.1-4.5-2.4-6.4.3-.9.1-1.8-.5-2.2-1.4-.9-1.8-6.2-.5-6.7.6-.2 1.8.2 2.7.9 1.9 1.5 2.8 4.7 1.3 4.7-.5 0-.9-.6-.7-1.4.1-.7-.3-1.7-.9-2.1-.8-.4-.9-.3-.5.4s.2 1.2-.5 1.2-.2 1.1 1.1 2.5c1.6 1.7 1.9 2.5.9 2.5-1.2 0-1.1.2.1 1 1 .6 1.1 1 .3 1-.7 0-1.3.4-1.3 1 0 .5.6 1 1.4 1 1.7 0 2.7-3.4 2.1-7.8-.2-1.7 0-3.2.5-3.2 1.5 0 2.2 1.9 2.2 6.6.1 2.4.5 4.4 1 4.4.8 0 1.2-3.1.8-5.9-.1-.8.4-1.7 1.1-2.1.6-.4.8-1.3.5-1.9-.4-.6-1.2-.9-1.7-.5-.5.3-.8 0-.7-.7.2-.8-1-1.4-3.1-1.6-1.9-.2-4.4-.9-5.5-1.6-1.2-.7-3.9-1.4-6.1-1.6-2.2-.1-4.1-.6-4.3-1.1-.2-.6-1-1-1.8-1-1.7 0-1.1-8.3 1.2-16.8 1.3-4.8 1.7-5.2 3.7-4.6 1.2.3 2.4.8 2.5.9.7.6-1.1 20.5-1.8 20.5-.4 0-1.2-1.2-1.8-2.6-.7-1.4-.8-2.3-.2-1.9.6.4 1-.9 1-3.2 0-2.1.3-5.5.7-7.7.5-3.1.3-3.8-.8-3.4-.8.3-1.3 1.3-1.1 2.3.2 1-.1 1.4-.7 1-.8-.4-.8.2-.1 2 .7 1.9.7 2.4-.2 1.9-.8-.5-.9.2-.5 2.4.3 1.7.2 3.2-.2 3.4-1.5.5-1.7 4.3-.3 4 .7-.1 1.5.5 1.8 1.3.9 2.2 3.9 1.8 5.2-.8 1.1-2.2 1.1-2.2 1.1-.1.1 1.8 2.8 4.2 3.6 3.2 1.9-2.4 2.5-5.7 1.9-11.1l-.6-6.2 2.9 3c2.4 2.6 2.8 3.5 2.2 6.7-.3 2.1-1.1 4.4-1.8 5.1-.6.8-.8 1.7-.4 2 .3.4-.2.7-1.3.7-1.5 0-1.6.2-.5.9 1.9 1.2 5-2.7 5.8-7.4.8-5.2 2.3-3.2 2.3 3.1 0 3.4-.4 5.3-1 4.9-.5-.3-1-.1-1 .4 0 1.4 1.3 1.4 2.8-.1.9-.9 1.2-.9 1.2.3 0 .8-.5 2-1.1 2.6-.7.7-.7 1.3-.1 1.7.6.3 1.3-.8 1.7-2.6.3-1.8 1.1-5.8 1.7-8.8.6-3 1.7-7 2.5-8.9 1.3-2.8 1.3-3.5.2-4.2-1.1-.7-1.1-.9.1-.9.9 0 1.6-1 1.8-2.5.1-1.4.9-3.9 1.7-5.5.9-1.7 1.2-3 .8-3-1.1.1-4.4 2.7-4.4 3.4 0 .3-.2 2-.6 3.6-.6 3.5-2.3 5-2.4 2.3 0-1-.2-3.5-.3-5.6-.1-2.9.4-4.3 1.9-5.5 2.6-2.2 2.3-7.2-.6-7.2-1 0-1.9.7-1.9 1.5s.7 1.5 1.5 1.5 1.5.7 1.5 1.5c0 2.4-1.7 1.6-5.8-2.8-1.9-2-4-2.3-2.3-.3.9 1 .8 1.5-.2 1.9-1 .4-1.4 2.5-1.3 7.5.1 3.9.4 7.4.9 7.8.4.4.7-.2.7-1.4s.6-2.2 1.3-2.3c.6 0 .8-.2.2-.5-.5-.2-.8-2.7-.7-5.4.3-4.2.6-4.9 1.8-3.9 1.7 1.4 1.8 4.9.2 4.9-.8 0-.9.3-.3.8.6.4 1.2 2.2 1.3 3.9.3 2.6 0 3.3-1.4 3.3-2.5 0-.2 2.3 2.8 2.7 2.8.4 4.9 2.3 2.6 2.3-1.9 0-3 2.4-2.2 4.5.9 2.1-.5 6.7-1.7 6-.7-.5-.7-1.1 0-1.9.8-.9-.5-2.7-4.9-6.8-3.3-3-6.2-5.3-6.5-5-.3.3-.5-.3-.5-1.3s-.3-1.6-.6-1.3c-.3.3-1.6-.5-2.9-1.8-1.5-1.5-3.6-2.4-5.5-2.4-1.6 0-3-.5-3-1 0-.6-.8-1-1.8-1-2.5 0-12.7-3.7-11.5-4.1 1.3-.5 4.8-13.6 5.2-19.3.1-1.5.4-1.6 1.6-.6.8.7 1.2 1.6.9 2.1-.3.5-.2.9.3.8 2-.3 3 .2 3 1.6 0 1.1-.6 1.3-2.1.9-1.6-.5-1.8-.3-1 .6.7.7 1 3.6.8 7.3-.3 3.4-.1 6.7.3 7.4.8 1.1 6.3 2.7 6.3 1.8 0-.2.3-1 .6-1.8.3-.9-.3-1.6-1.8-2-2.2-.6-2.2-.5-.4.8 1.4 1.1 1.6 1.5.5 1.5-.8 0-1.9-.4-2.5-.8-1.7-1.1-2.6-4.9-1.4-5.7.5-.3 1-2 .9-3.8-.1-2.7 1.1-9 2.5-13.2.1-.6.6-2.6.9-4.5 2.1-11.7 3.8-22.1 4.3-26 1-7.6 8.2-29.1 16.6-49 2.3-5.6 6.3-12.7 8.7-15.4 5.4-6 15.8-16.6 16.4-16.6.3 0 3.2-1.8 6.4-3.9 6.8-4.7 7.3-4.8 8-2zm36.6 6.2c-.3.5-.1.7.5.4.9-.6 14.8 7.2 16.1 9.1 1 1.3 6.5 4.7 7.4 4.4.4-.1.7.4.7 1.2 0 .8.7 1.7 1.6 2 1.4.5 1.5.4.4-.9-1.7-2.1-.8-1.9 4.4 1 2.5 1.4 4.7 2.1 5 1.6.8-1.2 6.6-3.2 6.6-2.3 0 1.2-9.1 5.2-10.3 4.5-.6-.3-.7-.1-.3.6.4.6 0 1.4-.9 1.7-1.1.4-2.8-.5-4.9-2.5-1.7-1.7-3.7-3.1-4.3-3.1-.6 0-1.3-.3-1.5-.8-.5-1.1-8.8-7.5-8.8-6.7 0 .4-2.7-1.6-6.1-4.4-3.3-2.8-6.4-5.1-6.8-5.1-.4 0-.7-.9-.8-2.1-.2-1.7.1-1.8 1.2-.9.8.7 1.2 1.7.8 2.3zm-32.3-.9c0 .8.7 1.6 1.5 2 .8.3 1.5.1 1.5-.3 0-.5-.6-1.2-1.2-1.4-.8-.4-.7-.6.4-.6 2.4-.1 4.9 1 4.3 1.9-.3.5-.1 1.1.5 1.5 1.8 1.1 1 4.1-1.5 5.5-1.4.7-2.3 1.5-2 1.8.2.3 1.1-.1 2-.8 1.8-1.5 1.9-.7.3 2.3-1.3 2.6-4.7 5.7-6.1 5.7-.5 0-1.5.7-2.2 1.6-.6.9-2.4 1.6-3.8 1.6-1.5 0-2.7.4-2.7.9s-.7.9-1.5.9-1.5.4-1.5 1c0 2.3 9 0 12.4-3.2 1.1-1 2.4-1.8 2.9-1.8.9 0 5.6-5.2 7.4-8.4.7-1.2 1.2-3.8 1.3-5.9 0-3.5.1-3.6 2-2.5 3 1.9 2.6 7.1-1 13.5s-6.9 9.9-9 9.5c-1.3-.2-1.3-.2 0 .7 1.2.8.7 1.3-2.5 2.7-4 1.6-4 1.7-1.5 2.6 1.4.5 3.8.7 5.3.4 1.5-.3 2.6-.2 2.3.3-.8 1.3 4.8 0 5.9-1.4.6-.6 2.2-1.5 3.7-1.8 3.3-.9 9-5.5 8.2-6.8-.3-.5-.1-.9.5-.9 3.2 0 4.3-8.4 1.7-12.2-1.8-2.6-2-3.8-.6-3.8.6 0 1 .8 1 1.7 0 .9.7 2.5 1.6 3.4.9 1 1.8 2.9 1.9 4.1.1 1.3.3 2.6.4 3 0 .5 1.1.8 2.4.8 1.2 0 3.1.7 4.1 1.5 1.7 1.3 1.8 1.5.3 1.5-.9 0-1.7-.6-1.7-1.3 0-.6-.5-.4-1.1.6-.6.9-1.4 1.5-1.8 1.3-.4-.3-.8.8-.9 2.5-.1 3.4-1.9 9.4-3.7 12.4-.7 1.1-1.6 3.3-1.9 4.8-.6 2.4-.9 2.7-2.1 1.7-.8-.7-1.5-.9-1.5-.5s-.6.3-1.2-.2c-.7-.6-2.4-.9-3.8-.8-1.4.1-3.3-.2-4.4-.7-1.3-.7-1.7-.7-1.4.3.4 1.2 8.3 4.1 9.1 3.3.2-.3 1.7.2 3.3 1.1 1.6.8 3.7 1.5 4.7 1.5.9 0 1.7.4 1.7 1 0 .5.7.7 1.5.4 1.3-.6 8.7.7 20.5 3.6 20.1 4.8 25.9 5.5 26.7 3.1.3-.9 1.4-2.5 2.5-3.7 2.1-2.4 4.9-12.2 3.7-13-.5-.3-1.4 1.5-2.1 4-.7 2.6-1.5 4.6-1.9 4.6-.3 0-1.4 1.8-2.4 4-2.3 5.1-2.6 5.1-23 0-8.8-2.2-16.8-4-17.7-4-2.4 0-2.3-2.4.1-5.8 1.1-1.5 2.2-4.5 2.6-6.6.3-2.2 1-4.5 1.6-5.2.6-.8.7-1.4 0-1.8-1.1-.7-1.6-.1-2.5 3.6-.3 1.6-1.1 2.8-1.6 2.8-.6 0-.6-.9 0-2.6 1.2-3.1 1.2-3.4.1-3.4-1.2 0-3.6 7.1-4 11.5-.1.5-.6.3-1.1-.5-.5-.8-1-1.1-1-.5 0 .5.4 1.6.9 2.4.7 1.1 1 1.1 1.7 0 .5-.8.9-2 1.1-2.8.2-1.7 2.1-3.6 2.8-2.9 1 .9-5.1 10.8-6.6 10.8-.5 0-.9-1-1-2.3 0-1.5-.2-1.7-.6-.7-.7 1.8-2.4 3-3.4 2.4-.4-.2 1.1-4.5 3.2-9.6s3.9-10.3 3.9-11.6c0-2.7 1.9-2.8 5.3-.1 2.1 1.6 3 1.8 4.7.9 1.1-.6 2.4-.9 2.9-.6.4.3 4.1 1 8.2 1.6 11.3 1.6 11.9 1.8 11.2 3.6-.3.9-1.2 1.3-2.2.9-.9-.4-2.5-.8-3.6-1.1-1.1-.2-3.2-.6-4.7-1-1.6-.3-2.8-.2-2.8.3s.6 1 1.3 1.1c2.1.2 10.7 2.3 10.7 2.7 0 1.3-1.4 3.4-2 3-.4-.3-2.5-.7-4.6-1.1-2.2-.3-5.2-1.2-6.8-2-1.6-.8-3.6-1.4-4.5-1.4-1.4-.1-1.4-.2.1-1.4 2-1.4 1.4-2.6-1.3-2.6-1.3 0-1.6.7-1.4 2.6.1 1.4.6 2.9 1.1 3.3 1.4 1.1 7.5 2.9 12.7 3.6 4 .5 4.6.9 3.6 2.1-.8 1-2.5 1.2-6.8.8-3.1-.4-6.3-1-7.2-1.5-1.7-.9-4.4.4-3.6 1.8.3.5 3.6 1 7.2 1.1 7.6.2 9.1.8 7.5 2.7-.8.9-2.4 1.2-4.8.9-2-.3-5-.6-6.7-.7-3.4-.2-5.7-2.7-5-5.4.3-1 0-.8-.7.5-.9 1.9-.9 2.5.3 3.3 1 .8.8.9-.8.4-1.3-.3-2.3-.2-2.3.3 0 1.3 5.8 3.3 6.5 2.2.3-.4 2.4.1 4.7 1.2 2.3 1.1 5.1 2.1 6.3 2.3 1.2.1 2.8.6 3.6 1.1.8.5 1.9.9 2.4.9.6 0 2.9.4 5.2.9 4.8.9 8.3.1 8.3-1.8 0-.8.7-1.9 1.5-2.6.8-.7 1.5-2.1 1.5-3.1 0-1.1.6-1.9 1.3-1.9.9 0 .9-.2-.1-.9-1.1-.6-1.1-1.3 0-3.7.7-1.6 1.7-3.2 2.2-3.5.5-.4.5-1.2.1-1.9-.6-.9-1.4-.2-2.6 2.1-1 1.9-1.8 4-1.9 4.8 0 .8-.8 2-1.7 2.8-1.7 1.4-1.7 1.4 0 .9.9-.3 1.7-.1 1.7.4s-.8 1.4-1.7 1.9c-1.1.6-1.3 1.1-.5 1.1s.6.8-.7 2.2c-1.9 2-2.4 2.1-7.2 1-2.8-.7-6.1-1.2-7.5-1.2-3.1 0-3-.5.5-4.5 1.6-1.8 3.9-6 5.2-9.4 1.3-3.4 3-6.1 3.6-6.1 1.6 0 1.7-.5-.7 5.8-2.2 5.8-4.6 10-7 12-1.3 1.2-1.3 1.3.4.7 1.1-.3 2.3 0 2.9.7.7 1 .8.9.4-.3-.3-.8.1-2.6.9-4 .7-1.3 1.3-1.8 1.4-1.1 0 1.8 1.7.6 3-2.1 1.1-2.1 1.1-2.1-.4-.3-.9 1.1-1.8 1.7-2.1 1.4-.9-.8 1.9-5.5 3.1-5.1 1.6.5 3.8-2.3 2.4-3.2-.5-.3-1 .1-1 .9 0 .9-.4 1.6-1 1.6-1.2 0-1.3-1.2-.1-4.3.8-1.9 1.5-2.3 3.5-2 2.9.6 3 .7 1.6 3.4-.6 1.1-.8 2.5-.4 3.1.5.7 1.2-.1 1.9-2.3.9-2.6 1.8-3.5 4-3.7 3.4-.4 5.4 1.3 3.7 3-1.5 1.5-1.6 4.8-.2 4.8.6 0 1-.9 1-2 0-3.6 2-5.7 5.1-5.2 1.6.2 2.9.8 2.9 1.2 0 .5 1 .6 2.3.3l2.2-.6-2.3 2.3c-1.3 1.2-2.1 2.5-1.7 2.8.3.3 1.7-.7 3-2.3 4.7-6 3.8-1.5-3 14-1.2 2.7-3.2 7.8-4.5 11.3-2.1 5.8-2.5 6.3-4.7 5.7-2.1-.5-2.3-.3-1.8 2.2.3 1.6.8 4.4 1.1 6.3.3 1.9 1.3 4.3 2.1 5.2 2.3 2.5.2 2.2-5.1-.7-2.5-1.4-5.4-2.5-6.5-2.5-1.1 0-2.3-.5-2.6-1-.3-.6-1.9-1-3.4-1-1.6 0-4.8-.7-7.2-1.6-2.4-.8-7.1-1.8-10.4-2.1-8.2-.7-11.7-2.6-11.1-6 .6-3 1.7-4.3 2.3-2.5.3.6.8 1 1.3.7.7-.4 30 2.9 34.1 3.9.9.2 2.1.1 2.6-.3 1.5-1 5.1-9.2 6.4-14.6.6-2.8 1.6-5.5 2.1-6.2 1.3-1.7 4.8-11.6 4.3-12.1-.9-.9-3.6 2.1-3.1 3.4.6 1.4-4.1 12.4-5.2 12.4-.4 0-.8 1.7-.8 3.8-.1 2.1-1.1 5.7-2.2 7.9-1.8 3.5-2.5 4-4.9 3.6-1.5-.2-7-.8-12.1-1.3s-9.6-1.1-10-1.4c-.4-.2-3.6-.7-7.2-1-3.6-.4-12.3-1.6-19.5-2.8-7.1-1.2-15.1-2.1-17.7-2.2-2.7-.1-4.8-.4-4.8-.8 0-1.1-6.1-2.1-7.1-1.1-.5.5 1.6 1.5 5.1 2.5 3.3.9 5.7 1.1 5.4.6-.4-.6.1-.8 1.2-.4 1.1.3 4.1 1 6.7 1.5 2.6.5 5 1.1 5.3 1.4.3.3-.1 1.8-.9 3.4-.8 1.5-2.1 6.1-2.7 10.1-.8 4.9-1.5 7-2.3 6.6-.8-.5-.7-.2.1.7 1.6 1.8 1.5 3.2-.2 2.6-1.1-.4-1.3-.1-.9 1.1.4.9 1.1 2 1.6 2.3.6.4.5 1.4-.2 2.5-.7 1.3-1 1.4-1.1.5 0-.8-.3-1.1-.6-.8-.4.4-.1 1.3.6 2.2.8 1 .9 1.5.1 1.5-.6 0-1.1.8-1.1 1.7 0 1.5.2 1.6 1 .3.8-1.2 1-1.1 1 .7 0 1.3-.5 2.3-1.1 2.3-.6 0-.8.7-.5 1.6.3.8.2 1.2-.4.9-.6-.3-1-.1-1 .4 0 .6.6 1.1 1.3 1.1.9 0 .9.2 0 .8-.6.4-1.2 2.5-1.3 4.7-.3 5.5 0 6.3 1.1 4 .7-1.6.8-1.4.3 1-.3 1.6-.9 3.1-1.2 3.2-.4.2-.6 4.3-.5 9.3.1 4.9-.1 9-.6 9-1.1 0-1.3-2.3-1.1-10.5.1-7.8-.7-8.4-1.5-.9-.3 2.7-.8 6.7-1.2 8.9-.4 2.2-.6 4.6-.4 5.2.1.7-.6 1.3-1.6 1.3s-2.8.3-4.1.6c-1.7.5-2.1.3-1.7-.9.4-.9 1.4-1.3 2.6-1 1.3.4 1.9 0 1.9-1.1s-.4-1.4-1.2-.9c-.7.4-2.3.6-3.5.5-1.7-.3-2 .1-1.6 1.7.7 2.7-1.4 2.8-2.2.2-.3-1.1-1.6-2.3-2.8-2.6-1.2-.4-3.9-1.8-5.9-3.2-3.1-2.1-3.8-3.2-3.8-5.8 0-3.2-2.3-5.5-3.5-3.5-.4.6-.1 1 .4 1 .6 0 1.1.5 1.1 1.1 0 .6-.7.9-1.5.5-.8-.3-1.5-.2-1.5.3s.9 1.1 2 1.4c1.2.3 2 1.4 2 2.6 0 1.2.4 2.1.9 2.1 1.1 0 .9 1.9-.3 3.8-.5.9-.2 2 1 3 1.7 1.6 1.7 1.6.5-.1-1-1.2-1.1-2-.2-3 .6-.8.7-1.7.3-2.2-.4-.4 0-.6.8-.3s1.5 1.3 1.5 2.3c0 1.5.8 2 3.9 2.2 2.1.1 4.3.9 5 1.7 1.4 1.9 6.7 2.7 8.5 1.2 1.2-.9 1.2-.8.1 1.1-.8 1.2-1.7 2-2.1 1.7-.4-.2-1 0-1.4.6-.9 1.4-2.6 1.3-2.2-.2.1-.6-.7-1.4-1.8-1.6-1.6-.3-1.8-.1-.7.9 1.8 2 1.5 2.8-1 2.2-2.1-.4-2.1-.3-.5.7 2.8 1.8 8.2-.6 13.5-5.9 2.5-2.5 4.2-3.7 3.7-2.6-.4 1.1-.9 4-1.1 6.5-.4 5.7-1 9.3-2.4 15.4-.6 2.6-1.1 7.7-1.2 11.2-.1 3.5-.4 6.4-.5 6.4-.4 0-3-6.3-3.1-7.4 0-.5-.8-1.4-1.7-1.9-1.6-.8-1.4-1.2 1.1-3.3 1.6-1.3 2.3-2.3 1.7-2.4-.7 0-1.3.4-1.3.8 0 1.6-4.8 1.1-5.4-.6-.3-.9-.9-2.3-1.2-3.1-.5-1-.2-1.2.8-.9 4.2 1.7 11.8-6.5 11.8-12.7v-2.6l-2.7 1.9c-1.6 1-4.3 2.5-6 3.3-3.9 1.6-4.5 3.3-.7 1.9 3.6-1.4 3.9-1.3 1.9 1-1 1.1-1.3 2-.8 2 1 0 2.5-2.4 2.7-4.4.1-.5 1.1-1.5 2.4-2.4 2.3-1.5 2.3-1.5 1.6 1.4-.8 3.5-6.2 9.4-8.6 9.4-.9 0-2.9-.5-4.5-1.2-1.5-.6-3.2-1.2-3.8-1.3-.5 0-.9-.7-.7-1.5.3-1-.2-.9-1.7.4-1.1 1-1.7 2.4-1.3 3 .3.6.7 1.3.8 1.6 0 .3.4 1.3.9 2.3.6 1.4 1 1.5 1.5.6.5-.7.2-1.8-.6-2.6-1.7-1.8-1.8-3.6-.2-3.1 2 .7 10.5 13.5 12.9 19.7 1.3 3.1 2.7 5.9 3.2 6.2.8.6.6 5.2-.8 16.4-.3 2.7-.7 7-1 9.5-.5 6.2-1.5 9.1-2.9 8.3-.6-.3-.6 0 .2.8 2.2 2.4 1.3 4.8-2.8 7.5-3.7 2.5-12.5 5.1-11.5 3.4.3-.5-.3-1.1-1.2-1.5-1-.3-1.9-.1-2.1.4-.2.6-.8 1.1-1.3 1.1-.6 0-.7-.6-.2-1.3 1.3-2.1 1.2-3.6-.3-3-.8.3-1.1.9-.8 1.5.3.5-.3.4-1.5-.4-1.2-.7-2.1-1.6-2.1-2.1 0-.4.5-.5 1-.2 1.8 1.1 1-1.2-1-3-1.6-1.4-1.7-2-.8-2.7 1-.6.9-.8-.2-.8-.9 0-2.1.5-2.7 1.1-1.2 1.2-.6 4.9.8 4.9.5 0 .9.6.9 1.4 0 2.5 5.8 6.5 10.5 7.2 4.7.7 9.9-1 13.9-4.5 1.7-1.5 1.8-1.4 1.1 4-1.2 9.8-2 12.4-3.7 12.4-.8 0-2.2.5-2.9 1.1-2.3 1.8-4.8 2.4-5.5 1.3-.4-.6-1-.6-1.9.1-.8.7-2.4.9-3.7.4-2.9-.9-6.9-3.9-6.2-4.7.3-.3-.4-1-1.5-1.7-1.2-.6-2.1-1.9-2.1-3 0-2.3-1.6-3.5-2.3-1.8-.5 1.6 1.8 7.6 3.9 9.9.8.9 1.2 2.4.8 3.3-.9 2.3-2.7 2-1.9-.4.4-1.1.2-2-.4-2-.6 0-1.1.5-1.1 1.1 0 .6-.8.9-1.8.7-1.6-.5-1.7-.2-.8 1.8.6 1.2 1.3 2.1 1.5 1.8.2-.2 1.1.5 2 1.5 1.5 1.6 9.2 6.1 10.6 6.1.3 0 .3-.5 0-1-.7-1.2-.3-1.2 1.9-.4.9.3 1.3 1.1.9 1.8s-.1.7.9-.1c.8-.7 1.7-1.1 2-.8.2.3.5-.1.5-.9 0-1.1-1.2-1.4-4.8-1.1-2.9.2-5.1-.1-5.5-.7-.5-.7-.1-.9.9-.5 1 .3 1.7.3 1.7-.1s2.9-.8 6.5-.7c3.6 0 6.5-.1 6.5-.3 0-.2-.7-1-1.5-1.9-1.2-1.1-1.9-1.2-2.9-.4-1.6 1.3-9.6 1.2-11.3-.1-.7-.5-1.7-.7-2.3-.3-.6.3-1-.3-1-1.5 0-1.7.4-2 1.8-1.4 4.3 1.9 9.9 1.6 14.9-.9l5.1-2.4.5 2.3c.2 1.3.1 2.4-.3 2.4s-1.1 2-1.4 4.5c-.4 2.5-1.1 4.5-1.5 4.5-.5 0-.6 1.1-.4 2.4.6 2.9-1 4.1-3 2.2-.8-.8-2.4-1.2-3.5-.9-2.7.7-11.1-2.2-15.8-5.3-3.4-2.4-7.3-2.6-5.9-.4 1.3 2.1 15.5 7.9 19.7 8.1 3.8.2 8.8 2.9 8.8 4.8 0 .7-18.2.5-27-.4-3.6-.3-8.5-1.4-11-2.4-7.3-3-18.2-5.3-19.4-4.1-.7.7-.4 1 .7 1 1.5 0 1.7.7 1.2 4.7-.6 5.1-1.7 6.9-3.5 5.8-1.4-.9-.3-12.2 1.6-15.2.8-1.3 2.5-2.5 3.9-2.9 1.4-.3 2.5-1 2.5-1.5s.6-.9 1.4-.9c.8 0 1.3.9 1.2 2.4-.1 1.9-.4 2.2-1.8 1.5-1.7-.9-5.8.7-5.8 2.2 0 .8 8.8-.1 11.5-1.2 1.9-.7 1.9-.8-.2-.8-2.2-.1-3.4-2.1-1.2-2.1.5 0 .7-.5.4-1.1-.7-1-.8-36.4-.2-48.9.3-6.7 3.3-18 4.8-18 .5 0 .6-.6.4-1.3-.6-1.4 2.7-15.3 3.9-16.4.4-.5.5.3.2 1.7-.7 2.8-1.4 14.9-2 32.7-.3 6.8-.8 12.8-1.3 13.5-.4.7-.8 5.7-.9 11-.1 5.3-.4 10-.7 10.5-1 1.9-.6 16.1.6 20.2 1.2 4 2.9 4.8 2.1 1.1-1.3-6.1-1.5-9.4-.5-8 .9 1.3 1.1 1.3 1.1-.2 0-.9-.4-1.9-.9-2.2-.5-.3-.9-2.7-.8-5.3 0-2.6.2-4.2.5-3.5.2.7 1.2 1.7 2.2 2.2 1.6.9 1.8.5 2.2-3.5.2-2.8-.1-4.5-.8-4.5-.6 0-1 1.6-.9 3.5 0 1.9-.3 3.5-.7 3.5-.8 0-1.2-3.1-.9-5.8.1-.6-.3-1.2-.9-1.2-.7 0-.8-.6-.2-1.8.5-.9.9-3.3.8-5.2-.1-1.9.2-4.1.7-4.7.6-.9.4-1.5-.6-1.9-1.4-.5-1.4-.9-.3-2.7 1.4-2.2 2.9-16 2.7-24.7 0-2.5.5-4.8 1.2-5.2.9-.6.9-.8 0-.8-1.7 0-.8-22.3 1.3-30.5.1-.6 1.6-5.2 3.3-10.3 1.7-5.2 3.1-10 3.1-10.7 0-.7.7-1.6 1.5-1.9.9-.3 1.5-1.6 1.4-2.8-.5-6.1 0-7.8 2.6-7.8 1.5 0 3.8-1.2 5.2-2.6 2.2-2.2 4.2-2.8 12.6-4 10.6-1.5 11.6-1.2 11.7 2.8 0 1.4-.8 1.8-3.7 1.8-4.3 0-3.9 1.1.6 1.2 3.4.1 3.2 1.8-.2 1.8-1.2 0-2.8.4-3.6.9-1.5 1-5.3-1.7-4.5-3.1.3-.5 1.2-.4 2 .3 1 .8 1.4.8 1.4.1 0-1.9-3.8-3.3-7.2-2.7-1.8.3-3.3.7-3.5.8-.1.1 1.3 1.9 3 4 2 2.4 4.2 3.9 5.7 4 1.4 0 2.8.6 3.3 1.2s1.1.4 1.7-.7c.6-.9 1.7-1.5 2.5-1.2.9.4 1.8-.1 2.2-1.2.3-1.1 1.7-3 3-4.3 1.3-1.4 2.3-3.6 2.3-5.3 0-1.7.4-2.7 1-2.3.6.3 1 .2 1-.3 0-1.3-1.2-2.2-2.2-1.6-.5.3-3.7.7-7.1 1-3.4.2-8.7.6-11.7 1-3 .3-7 .6-8.8.5-2.9-.1-3.2.1-2.6 2.3.5 2.1.1 2.5-2.7 3.1-4 .9-5.9-1.2-5.9-6.6 0-6.3 1.6-8.5 7.2-9.7 2.7-.7 5.8-1.2 6.8-1.2s2.2-.5 2.6-1.1c.6-1.1-4-.7-10.1.7-3.7.9 5.9-6.9 14.6-11.8 7-4 8.5-4.5 9.2-3.3 1.1 2 .5 6.6-.8 6.3-.5-.2-.9-1-.7-1.8.2-1.2 0-1.1-1.1.2-.7.9-2.2 1.7-3.3 1.6-2.6-.1-11.4 3.9-11.4 5.1 0 .7.8.7 2.3.2 4.8-2 6.3-2.5 7.7-2.7 2.9-.4 8.5-.7 9.5-.4 1.9.5 3.5 0 3.5-1.1 0-.8-.4-.8-1.4 0-1 .9-1.5.8-2-.4-.5-1.5.3-1.8 4.7-1.8 1.2 0 1.7-.8 1.7-2.8 0-1.5.5-3.1 1.2-3.5 1.5-1-1.9-3.4-4.9-3.4-5.1 0-22.8 10-31.2 17.5l-3.9 3.6-.7-3.1c-.8-3.7 1.2-10.3 3-9.6 1.4.5 3.5-1.2 3.5-2.9 0-.5-.7-.1-1.5.9-.8 1.1-1.5 1.5-1.5.9 0-2.3 16.5-14.5 23.7-17.4 5.4-2.2 5.6-2.2 6.9-.4.8 1 1.7 1.5 2.1 1.2.4-.4.1-1.3-.5-1.9-1.9-1.9-1.4-3 .9-1.7 1.4.7 1.9 1.7 1.6 3-.7 2.6 1.2 2.4 2.2-.3.5-1.3 1-1.7 1.5-1 .4.6 1.3.9 2.1.6.8-.4 1.3-.9 1-1.4-.2-.4.5-1.7 1.6-2.8 1.1-1.2 1.5-2.2.9-2.2-.5 0-1-.7-1-1.5 0-1.8 1.6-2 2.3-.3.3.8.6.6.6-.5.1-1.6-.8-1.9-5.9-1.9-5.3 0-7.3.3-6.6.9.4.4 2.4.6 4.5.4 3.2-.2 3.9.1 4.4 1.8.3 1.3 0 2.1-.8 2.1-.7 0-1.8.7-2.5 1.5-1.5 1.8-4.5 2.1-3.4.3 1-1.6-5.3-.4-10.9 2.1-2.5 1.2-5.2 2.1-5.9 2-.7 0 1-1.1 3.7-2.4 5.4-2.6 5.2-3.1-.8-1.4-2.6.7-4.1 1.8-4.7 3.5-.6 1.4-1.7 2.4-3 2.4-1.1 0-2 .7-2 1.6 0 .8-.4 1.3-.9.9-.6-.3-1.4.3-2 1.2-.6 1-1.1 1.5-1.1 1.1 0-.4-2 1.4-4.4 4-3.3 3.5-4.8 4.4-5.6 3.6-1.2-1.2-2.8-6.5-3.7-12.2-.3-1.7-.9-3.2-1.3-3.2s-.7-1.4-.8-3c-.1-2.5.3-3 2.3-3 1.3 0 2.7-.4 3-1 .4-.6-.6-.8-2.4-.6-2.6.3-3 0-3.4-2.8-.2-1.7-.5-8.7-.6-15.6-.1-12.1 0-12.4 1.7-10.1 2.5 3.7 7.7 8.2 12.5 10.9 11.6 6.6 16.5 8.9 17.5 8.3.7-.4-2.4-2.6-7.4-5.2-4.8-2.4-9.5-4.8-10.5-5.4-1-.5-2-1.8-2.3-2.8-.3-1.4-1-1.7-2.6-1.2-1.9.6-2 .3-1.5-2.7.4-2.3.2-2.9-.4-1.8-.5.8-.7 1.9-.5 2.5.3.5-.6-.4-2-2-1.4-1.7-2.6-3.8-2.6-4.8 0-4.3 12.1-23.9 13.8-22.3.2.3-1.1 2.5-3 4.8-3.6 4.5-5.3 7.8-3.9 7.8.4 0 1.3-1 2-2.3 2.4-4.5 3.8-6.7 5.4-8.4.8-1 1.5-2.3 1.4-2.8-.2-1.2 9.9-6.5 12.5-6.5 1 0 1.8.6 1.8 1.4zm111.6 3.1c-1.5 2.3-4.5 3.7-3.1 1.5.3-.6 0-1-.7-1s.1-1.1 1.7-2.4c3.4-2.8 4.5-1.7 2.1 1.9zm-101.2-1c-.4.8-1.1 1.2-1.6.9-.6-.4-.5-1 .3-1.5 1.9-1.2 1.9-1.1 1.3.6zm14.6 5.4c3.3 6.3-4 17.7-12.8 20-10.4 2.7-10.1 2.9-4.5-2.5 6.6-6.5 10.9-13.8 10.7-18.6l-.1-3.7 2.8 1.5c1.6.8 3.3 2.3 3.9 3.3zm6.2-4.1c.3.8 12.5 10 20.8 15.6 3 2.1 5.7 4 6 4.3.9.9-8.5-.9-9.4-1.8-.6-.5-1.8-.9-2.9-.9-1.1 0-1.5-.4-1.1-1.2.4-.7.3-.8-.5-.4-1.3.9-5.3-.2-4.7-1.3.3-.4-.8-1.2-2.2-1.9-2.5-1-7.3-7.2-5.7-7.2.4 0-.1-.7-.9-1.6-1.7-1.7-2.1-4.4-.7-4.4.5 0 1.1.3 1.3.8zm13.8 18.6c0 .3-.4.8-1 1.1-.5.3-1 .1-1-.4 0-.6.5-1.1 1-1.1.6 0 1 .2 1 .4zm48.2 1.9c.6.9.8.9.8-.1 0-.8 1.9-1.2 6.1-1.2h6.2l-3.8 2.5c-3.4 2.4-4.3 2.5-12.3 2.1-4.8-.2-9.9-.5-11.4-.5-5.1-.2-2.9-1.9 3.5-2.8 9.5-1.3 10.1-1.3 10.9 0zm75.6 1.2c.6.2 1.2 1.2 1.2 2.1 0 1.3-1.4 1.6-9.7 1.5-19.6-.3-19.7-.2-25.7 6.5-3.9 4.5-4.5 7.2-.7 3.8 1.8-1.7 4.3-1.9 31.5-2.2 20.4-.2 29.6.1 29.6.8 0 1.6-3.1 2.5-4 1.1-.5-1-.9-.9-1.3.2-.7 1.8-10.3 2.7-27.9 2.8-7 0-13 .4-13.3 1-.4.5 2.6.9 7.3.9 7.1 0 8 .2 8.5 2 .7 2.9-.6 3.3-7.9 2.5-8.6-.9-8.3.9.4 2.1 4.9.7 6.7 1.3 6.7 2.4 0 1.2-1.1 1.4-5 1.2-2.7-.2-5.8-.6-6.7-.8-1-.3-1.8-.1-1.8.4 0 1.3 7.6 3.1 10.2 2.4 1.4-.3 1.9-.1 1.6.9-.2.7-1.9 1.7-3.8 2.2-3.6.9-8.3.1-22-4-13.9-4.2-16.7-5.3-19.4-7.8-2.3-2.1-2.4-2.7-1.5-5.7 3.2-9.7 3.9-10.5 13.7-14 7.6-2.7 34.5-4.2 40-2.3zm3.7.4c.3.5.1 1.2-.5 1.6-.5.3-1-.1-1-.9 0-1.8.6-2.1 1.5-.7zm-58.8 6.2l3.2-.2-2.5 6.8c-1.4 3.7-4.3 10.8-6.3 15.8-2.1 4.9-4.2 10.1-4.6 11.4-.5 1.7-1 2-1.8 1.2-.6-.6-2.8-1.1-4.9-1.1-4.4 0-4.6-.6-1.8-5.5 1.1-2 1.7-4.1 1.4-4.7-.4-.7-.2-.8.4-.4.8.5 1.2-.1 1.2-1.6 0-1.4.6-3.3 1.4-4.3.8-1.1 1.2-2.5.9-3.2-.3-.7 0-1.3.6-1.3s1.1-.8 1.1-1.8c0-.9 1.1-4.1 2.5-7.1 2-4.3 2.8-5.2 4.3-4.6.9.4 3.1.7 4.9.6zm-82.8 26.8c.9.6 1 1.1.2 1.5-.6.4-1.1 1.8-1.1 3.2 0 1.4-.5 3.4-1 4.4-.6 1.2-.7 2.1 0 2.5 1.2.7 1.1 9.3-.1 10.1-.5.3-.9 1.3-.8 2.2 0 1.4.2 1.3.8-.3.5-1.1.7 1.9.5 7-.3 4.9-.5 13.6-.5 19.3-.1 8.6-.4 10.1-1.5 9.1-1.9-1.6-1.7.1.3 2.3 1.5 1.7 1.5 1.8 0 1.8-1 0-1.7.4-1.7 1 0 1.6 30.1.5 31.1-1.2.6-.9.9-.9.9-.1 0 .9 2.1 1.1 7.7.9 4.6-.3 8.6 0 9.8.7 1.1.6 2.3 1.1 2.7 1.2.3 0 1 .3 1.4.7 1.6 1.6 2.2.7 1.1-1.7-1.2-2.5-2.7-3.4-2.7-1.5 0 .5-.4 1-1 1-.5 0-.7-.7-.3-1.6.3-.8-.4-2.8-1.6-4.4-2.3-3.1-2.8-6-1-6 .6 0 .8.9.4 2-.4 1.3-.2 2 .5 1.8.7-.2 1.4.5 1.5 1.5.4 2.2 1.3 3.3 2.1 2.5.3-.4-.1-1.9-.9-3.5-.8-1.5-2.2-6.2-3.2-10.3-2.2-9.8-2.3-10-3.3-10-2.9 0-6.3 7.1-3.7 7.7.6.2 1-.5 1-1.4 0-2.7 2.1-2.5 3.4.3.9 2 .9 3 0 4-1.4 1.7-3.2 1.8-2.6.1.2-.6 1-1.1 1.6-.9 1.3.2 1.5-1.4.2-2.2-.5-.3-1.2.1-1.5 1-.5 1.2-1.3 1.4-3.4 1-2.5-.6-2.5-.6.7 1.4 1.9 1.2 4.3 2.2 5.3 2.3 1.7.1 1.8.2.3 1.3-1.1.9-1.5 2.2-1.2 4.3.3 1.7.1 3.1-.4 3.1s-.9.6-.9 1.4c0 2.1-7.1 2.7-9.2.8-1.5-1.3-1.8-1.3-1.9-.1 0 .8-.4.6-.9-.6-.7-1.7-.9-1.7-.9-.3-.1 1-.7 1.9-1.3 1.9-.7.1-2.2.2-3.3.3-1.1.1-3.3.6-4.9 1.1-1.9.5-3.6.4-4.8-.4-1.1-.7-1.8-.7-1.8-.1 0 .5-.5 1-1.1 1-.5 0-.8-.4-.5-.8.3-.5-1.6-.8-4.1-.8l-4.6.1.1-10.5c.4-24.4 1.3-47.6 1.8-49.3.4-1.1 1.2-1.6 2.1-1.3.8.3 2.8.6 4.4.6 2.6 0 2.9.3 2.5 2.7-2.6 16.4-3.6 22.7-4.1 28.1-.5 4.6-1.1 6.2-2 5.8-.7-.2-1.6.1-1.8.8-.4 1 .1 1.2 1.4.9 1.7-.5 1.9 0 1.9 4 0 4.7-1.6 7-3.1 4.6-.7-1.1-.9-1-.9.3 0 1 .5 1.8 1 1.8.6 0 1 .5 1 1.1 0 .6-.7.9-1.5.5-1.1-.4-1.5.1-1.5 1.9 0 3.3 1.1 3.1 3.5-.8 3.2-5 5-4.2 5 2-.1 3.6.3 5.3 1.2 5.3.8 0 1.2-1.7 1-5.8-.2-5.2 0-5.7 1.9-5.8 2-.2 2.1.3 1.8 6.7-.1 3.8.1 6.9.5 6.9 1 0 2.1-5.9 2.1-10.9 0-3.3.1-3.3 3.5-2.8 2.3.4 3.3.2 2.9-.4-.3-.6-4-.9-8.2-.8l-7.7.2.3-12.9c.2-7.1.5-13 .7-13.2.1-.2 1.9.4 3.8 1.2 3.5 1.4 3.6 1.5 2.4 4.8-.7 1.8-1.4 3.5-1.7 3.8-.3.3-.6 3-.8 6-.2 3.5-.9 5.9-2 6.7-.8.7-1.3 1.6-.9 1.9.4.4 1.4.1 2.4-.7 1.1-.9 1.4-1 .9-.2-.4.8-.1 1.3.9 1.3 1.3 0 1.5-.5.9-2.3-1.1-3-.8-6.8 1.2-13.7 1.4-5.2 1.9-5.8 3.4-5 1.7.9 1.8 1.2.2 4.2-1.8 3.6-3 15.7-1.6 15.9.5 0 1.9.2 3.2.3 2.6.3 2.7 0 .7-2-1.3-1.4-1.5-1.4-1.5.1 0 .9-.5 1.3-1 1-1.2-.7-.6-5.1 1.6-13.3 1-3.7 1.9-5.2 3.2-5.2 3.3 0 4.1 1.3 2.7 4-.9 1.5-1.5 1.9-1.5 1 0-1.1-.4-1-1.2.4-.9 1.5-.8 2.1.2 2.4.7.3.8.7.3 1.1-1.7 1-2.6 8.1-1.1 8.1.7 0 1.4-1.1 1.4-2.5.1-1.4 1.2-5 2.4-7.9 1.9-4.7 2.4-5.2 4.6-4.8 2.9.5 2.9.8.5 4.8-1.1 1.8-2 4.9-2.2 7-.1 2.2-.7 4.5-1.2 5.1-.5.7-.6 1.3-.3 1.3 1.6 0 3.3-2.7 3.8-6.1.9-5.4 3.5-10.9 5.2-10.9.8 0 2.6.4 3.9.9 2.4.9 2.8 2 4.2 10.1.2 1.4.8 4.2 1.4 6.3.5 2 .7 4.6.4 5.6-.3 1 0 2.2.6 2.5.6.4 1.1 1.9 1.1 3.3s.7 4 1.6 5.9c1.5 3.1 1.5 3.7 0 6.9-.9 1.9-2.1 3.5-2.6 3.5-.6 0-1 .7-1 1.5 0 .9.9 1.5 2.3 1.4 2.1 0 2.1-.1.2-.9-2-.8-1.8-1.1.8-1.4.6 0 1.9-2.2 2.8-4.9 1.8-5.3 2.9-5.2 2.9.4 0 3.2-.3 3.7-1.7 3.2-1.6-.6-1.6-.5-.4 1 1.2 1.5 1 1.8-2 2.9-5.2 1.9-7.5 1.7-7.1-.7.1-1.1.3-3.2.3-4.8 0-2.4.3-2.6 2.5-2.1 1.5.4 2.4.2 2.4-.6 0-.6-.5-.8-1-.5-.6.3-1.3 0-1.5-.8-.8-1.9-17.4-2.2-32.5-.6-15.5 1.6-17.9 1.5-22.3-1.1-5.4-3.2-6-4.8-4.8-13.8.5-4.2 1.2-12 1.6-17.2 1.1-16.7 4.8-36 7-36 .5 0 1.6.4 2.4.9zm21.6 12.1c5 1 12.8 3 17.4 4.4 4.7 1.4 9.2 2.6 10 2.6.8 0 3.4.9 5.7 2.1l4.2 2-.3 10c-.3 12.4.6 20.5 2.4 20.1.7-.1 1.5.7 1.8 1.8.6 2.4 2.3 2.7 2.3.4 0-2 1.6-.9 2.3 1.6.4 1.7.1 1.9-1.7 1.4-1.4-.3-2.7.1-3.5 1-1.2 1.4-1 1.6 1.6 1.6 1.6 0 3.4.5 4.1 1.2.9.9 1.1.3.8-2.9-.3-3-.1-4 .8-3.7 1.4.5 1.9 9.1.6 9.9-.8.5-11.3-1.3-14.6-2.5-1.5-.6-2.3-2-2.7-4.7-.4-2.1-1.6-7.9-2.7-12.8-1.2-5-2.1-10.2-2-11.8.1-3.4-4.1-6.2-10.8-7.2-2.6-.3-5.4-.8-6.2-1-.8-.2-3.3-.7-5.5-1.1-7.5-1.4-15-4.9-15-7 0-1.2.6-1.8 1.5-1.5.8.1 2.4.4 3.5.6 1.1.2 3.5.8 5.3 1.3 1.8.6 3.2.7 3.2.2 0-.5-1.5-1.4-3.2-1.9-2.6-.7-2.8-.9-1-1 1.2-.1 3 .7 4.1 1.8 2.1 2.1 6.5 3.7 13.1 4.5 2.5.4 5.8 1.3 7.4 2.1 1.8.9 3.3 1.2 4 .6 1.4-1.1 5.9.5 5.1 1.9-.4.7-1.3.6-2.6-.1-1.2-.6-2.3-.9-2.5-.6-.2.2.7 3 2 6.3 1.3 3.2 2.1 6 1.7 6.2-1.1.4 0 6.2 1.1 6.2.6 0 .8-.7.4-1.5-.3-.8-.2-2.3.1-3.3.6-1.4.8-1.3 1.4.8.5 1.5.6-.1.5-4-.2-6-.4-6.5-2.4-6.4-1.2.1-1.9-.3-1.6-.7.3-.5 1.1-.9 1.9-.9.7 0 1.6-.7 1.9-1.6.8-2.1.8-3.4-.1-3.2-.5 0-2.5-.6-4.5-1.5-4.2-1.9-6.2-2.2-5.3-.7.3.6-.1.7-.9.4-.9-.3-1.4-1-1.1-1.4.3-.4-.6-1-1.9-1.2-1.9-.4-2.3-.1-1.9 1.1.4 1-.2.8-1.6-.7-2.6-2.7-3.3-2.8-2.4-.5.6 1.7.5 1.7-1.4 0-1.2-1-3.4-2-5.1-2.2-1.6-.2-4.7-1.1-6.7-1.9-3.1-1.3-4.1-1.4-5.3-.4-1.3 1.1-1.5 1-.9-.5.3-.9.2-1.7-.3-1.7-.6 0-1 .4-1 1 0 .5-.9 1-2 1-1.3 0-2-.7-2-2 0-2.4-.8-2.4 10.5 0zm-102.8 7.2c-.3.8-.6.5-.6-.6-.1-1.1.2-1.7.5-1.3.3.3.4 1.2.1 1.9zm61.9 4.3c1.1 2.7-.2 3.7-1.4 1.1-.7-1.6-.8-2.6-.1-2.6.5 0 1.2.7 1.5 1.5zm-2.8 3.3c.3 3.4-1.2 4.5-2.1 1.4-.2-.9-.8-2.5-1.2-3.6-.6-1.4-.4-1.7 1.1-1.4 1.3.2 2 1.3 2.2 3.6zm85.8 1.5c1.3.7 5.5 12.7 5.3 15.1-.1.6-.7-.7-1.3-2.8-.7-2.2-1.8-4.2-2.4-4.4-.7-.2-.3 1.7.9 4.7 1.2 2.8 2.6 4.8 3.1 4.5.5-.3.6.7.4 2.2-.3 1.5-.1 3.5.4 4.4.8 1.5.6 1.6-1.8 1-6.6-1.8-7-2.1-7.5-6.3-.5-3.7-.2-22.4.4-23.7.1-.3.4.6.6 2 .3 1.4 1.1 2.9 1.9 3.3zM135 279.4c0 .2-.9.6-2 .9-1.1.3-2 .1-2-.4s.9-.9 2-.9 2 .2 2 .4zm-2 8.1c0 1.2-1.9 1.2-2.3 0-.4-.9-.1-1.2.9-.8.7.3 1.4.7 1.4.8zm-3 6.5c-.8.5-1.7.7-1.9.4-.3-.3.1-.9.9-1.4.8-.5 1.7-.7 1.9-.4.3.3-.1.9-.9 1.4zm65.7 6.2c-.3.7-.5.2-.5-1.2s.2-1.9.5-1.3c.2.7.2 1.9 0 2.5zm-89.7.8c0 .5-.4 1-1 1-.5 0-1-.5-1-1 0-.6.5-1 1-1 .6 0 1 .4 1 1zm81.9 7.7c0 2.5-.1 2.6-.9.8-1.2-2.7-1.2-3.5 0-3.5.6 0 1 1.2.9 2.7zm64.2 5c.6 1.7.4 2-1.2 1.6-1-.3-1.6-.9-1.3-1.4.3-.5 0-.9-.6-.9s-.8-.5-.5-1.1c1-1.5 2.7-.6 3.6 1.8zm-124.1-.2c0 .8-.7 1.5-1.5 1.5-.9 0-1.2-.6-.9-1.5.4-.8 1-1.5 1.5-1.5s.9.7.9 1.5zm44 .5c0 .5-.2 1-.4 1-.3 0-.8-.5-1.1-1-.3-.6-.1-1 .4-1 .6 0 1.1.4 1.1 1zm26.5 4.8c1.7 1.4 2.1 2.2 1.3 3.5-.6 1.1-.5 1.7.1 1.7.5 0 1.1-.6 1.3-1.2.4-1 1-1 3.1-.1 1.5.7 2.7 1.7 2.7 2.3 0 .6-.5.8-1.1.5-.7-.5-.8.5-.4 2.9.4 2.1.3 3.6-.2 3.6s-1 1.7-1.1 3.7c-.1 2-.7 4-1.3 4.4-.8.5-.8.8 0 1.4 1.2.7 1.3 17.5.1 17.5-.3 0-.6.9-.7 2-.1 1.1.3 2 .8 2 .6 0 .8.4.5.8-.9 1.5-1.8 7.5-2.1 14.7-.3 6.5-1.1 13.1-2.1 18-.2 1.1-.9 4.9-1.4 8.3-.6 3.5-1.2 6.8-1.5 7.2-.3.5-.8 3.5-1.1 6.7-.3 3.2-1.2 9.6-2 14.3-.9 4.7-1.9 11-2.5 14-1.3 8-2.8 15-3.4 16-.7 1.1 2.2 3.3 3.4 2.6.5-.4 1.3-.2 1.6.4.4.6 1.6.8 2.7.4 1.4-.4 1.8-.2 1.4.5-.4.6 0 1.1.8 1.1 2 0 2-1.4.1-3.4-.8-.8-1.5-1.9-1.5-2.5 0-.6-.5-1.1-1-1.1-.6 0-1 .7-.8 1.6.2 1-.3 1.9-1 2.1-.8.3-1-.1-.5-1.2.5-1.5.3-1.6-1.5-.6-2.7 1.4-3.7 1.4-2.5-.2.9-1.1 4.8-17.2 5.6-22.7.3-2.4.4-2.3 1.9 1 2 4.6 4.8 7 9.3 8 4.1.9 10.1-.4 12.8-2.8 1.6-1.4 1.7-1.3 1.1 1.9-.3 1.9-1.3 5.7-2.1 8.6l-1.4 5.2-3.2-1.1c-1.8-.6-3.6-1.4-4.2-1.8-1.4-1-8.2-2-8.9-1.3-.3.3.4 2.3 1.4 4.4 1.1 2.1 2 4.9 2 6.3 0 2.3-.3 2.4-3.7 1.9-2.1-.3-4.9-1.1-6.3-1.6-1.4-.6-3.1-1.1-3.9-1.1-.8-.1-2.3-1.7-3.4-3.6-1-1.9-2.3-3.9-2.8-4.5-1.5-1.5-1 1.8.6 3.9 2.1 2.7 2 5.3 0 3.6-.8-.7-1.5-1.8-1.5-2.5s-1.2-2.9-2.6-5c-2-3.1-2.4-4.3-1.5-5.9 2.1-4.4 5.2-21.9 6.6-37.1.4-3.9 1.1-8.4 1.6-10 .5-1.7 1.3-7.5 1.9-13 .5-5.5 1.7-16.8 2.6-25 .8-8.3 1.6-17.2 1.6-19.8.1-2.6.5-5 1-5.3.4-.3.8-3.1.9-6.2 0-3.1.4-8 .8-10.7 1-7.6 2.1-2.1 1.6 8.4-1.8 43.3-3.9 66.3-7 79.1-1.3 5.2-3.3 15.6-4.5 23-1.2 7.4-2.4 14.2-2.7 15-1.6 4.4-.7 8 1.3 4.9.4-.7 1.2-.1 2 1.7l1.3 2.9-.6-3.5c-.4-1.9-.9-3.7-1.3-4-1.2-.8 1.8-17.4 3.3-18.5 1.8-1.3 3.2-5.5 1.8-5.5-.5 0-1.2.8-1.4 1.7-1.6 6.2 1-10 2.8-17.7 2.3-9.3 4.1-21.8 3.6-25.3-.1-.9.3-1.7.8-1.7.6 0 1.1.6 1.1 1.4 0 .8.3 1.7.8 1.9.4.3.7-.7.7-2.3.1-2-.3-2.6-1.4-2.2-1.1.4-1.3-.4-.8-4.9.3-3 .8-10.6 1.1-16.9.2-6.3.5-12 .7-12.5.1-.6-.1-2.1-.5-3.4-.5-1.5-.4-2.1.2-1.7.5.3 1.2-.1 1.6-.9.3-.8 0-1.7-.6-2.1-.7-.4-.6-.9.3-1.5 1-.6 1.1-.9.2-.9-.7 0-1.3-.7-1.3-1.6 0-.8.5-1.2 1-.9.6.3 1-.1 1-1s.5-1.3 1-1c.6.3 1-.1 1-.9 0-1.9-1.1-2.1-2.7-.5-.9.9-1.1.1-.9-2.9.2-2.2.7-4.5 1.1-5.2.5-.7.4-1.1-.1-.8-.5.3-1.6-1.6-2.5-4.3-.8-2.7-1.4-4.9-1.1-4.9.2 0 1.4.8 2.7 1.8zm70.5 2c0 1-.7 2.7-1.6 3.8-1.5 1.8-1.5 1.8-1-.6.3-1.4.6-3.1.6-3.8 0-.6.5-1.2 1-1.2.6 0 1 .8 1 1.8zm4.1-.6c.2 2 .2 2.1-.5 4.8-.7 2.4-.6 2.4.8.6.9-1.1 1.6-2.8 1.6-3.8s.4-1.8.9-1.8c2.2 0 1.9 2-1.1 6.5-6.1 9.2-22.5 14-31.7 9.2-1.9-.9-3.9-1.7-4.4-1.7-.6 0-1.9-.7-2.9-1.7-1.4-1.3-1.8-1.3-1.8-.2 0 1.6-4.3-3.2-6.6-7.5-1.6-2.8-1.6-2.9 1-2.4 1.4.3 2.3.1 2-.3-.3-.5.6-.9 2-.9 1.7 0 2.6.6 2.6 1.6 0 .8.5 1.2 1 .9.6-.3 1 .1 1 .9 0 .9-.4 1.6-1 1.6-.5 0-1 .6-1 1.2 0 1.6 3.9 6.7 4 5.2 0-.5-.5-1.5-1.2-2.2-.8-.8-.8-1.5.1-2.6.6-.7 1-2.6.7-4.1-.4-2.1-.1-2.6 1.2-2.3 1 .2 1.8 1.4 2 3.1.2 1.5.7 2.7 1.1 2.7.5 0 .7 1.7.5 3.7-.2 2.5 0 3.2.7 2.3 1.2-2 1.1-6.2-.1-9.4-.8-2.2-.7-2.6.9-2.6 1.5 0 2 .9 2.3 4.5.2 2.5-.1 5-.5 5.4-.5.5-.5 1.1 0 1.4.5.3 1.4-.3 2.1-1.4.7-1 .9-1.9.4-1.9-.4 0-.6-1.8-.4-4 .3-2.7.9-4 1.9-4 1.2 0 1.4 1.1 1.1 4.9-.4 6 1.1 7.6 6.7 7.5 4.2-.1 9.6-2.8 9.4-4.8 0-.7-.2-.6-.6.1-.6 1.6-2.3 1.7-2.3.3 0-.6 1.1-1.6 2.5-2.2 1.6-.7 2.7-2.2 3.1-4.5.6-3.2 2.3-4.6 2.5-2.1zm-51 11c-.2 5.1-.6 9.5-1.1 9.8-.4.3-1 1.2-1.3 2-.3.8-.6-3.6-.5-9.8 0-9.7.2-11.2 1.7-11.2 1.4 0 1.6 1.2 1.2 9.2zm-11.8.5c-.4 8.5 1.3 16.4 3.7 17.1.9.2 1.1 0 .5-.5-1.3-1.1-1.9-6-2-16.3 0-8.3 0-8.5 2.5-8.8l2.5-.3v11.3c0 11 .1 11.3 2.2 11.6 3.3.5 4.5-3.6 4.1-13.6-.2-4.5-.1-8.2.2-8.2.3 0 1.6 2.4 2.9 5.2 1.8 4.1 2.2 6.1 1.6 9.7-.3 2.5-.7 5.4-.8 6.3-.1 1-.5 1.8-.9 1.8s-.8.5-.8 1.2-1.7 2.9-3.7 5-3.5 4-3.2 4.2c.3.3 2.1 0 4.2-.6 3-.9 3.5-1.4 2.7-2.9-.7-1.1-.7-2 0-2.4.5-.3 1 .2 1 1.1 0 2.9 1.2.7 1.5-2.8.2-1.8.6-4.4 1-5.8.4-1.4.8-4.1 1-6 .2-1.9.3-3.9.4-4.4.1-.6.4-.6 1 0 .6.5.5 3.3 0 6.8-.6 3.3-.8 8.3-.5 11.3.5 4.8.2 5.5-2.2 7.8-1.5 1.4-2.2 2.5-1.6 2.5.5 0 1.6-.6 2.3-1.3 1-1 1.1-.7.6 1.5-.4 1.5-.8 3.9-.9 5.2 0 1.3-.4 2.2-.8 1.9-.5-.2-.8 0-.8.5 0 .6-1.6 2-3.6 3.2-3.4 1.9-4 2-7.2.7l-3.5-1.4 2.1-2.1c1.2-1.2 2.2-2.8 2.2-3.5-.1-.8-.5-.7-1.3.4-.7.9-1.8 1.4-2.5 1.2-.7-.3-1 .1-.6 1.1.3.9.2 1.6-.3 1.6-1 0-5.3-9.6-5.3-11.8 0-.6-.6-1.1-1.2-1-.8.2-1.4-.9-1.4-2.7-.2-2.9-.2-2.9.3-.2.7 4.1 2.3 2.2 2.3-2.6 0-2.7-.3-3.7-.9-2.9-.5.9-1 0-1.5-2.9-.4-2.3-.3-4.5.2-4.8.5-.3 1.2-3.8 1.6-7.6.7-6 1.2-10.2 1.5-11.3.1-.2.5-.1.9.2.5.3.7 4 .5 8.3zm-88.2 15.8c.5 8.3 0 12.7-1.2 11.9-.6-.3-.9-1.5-.6-2.5.3-1 .2-1.8-.2-1.7-1.6.2-2.2-.3-1.4-1.5.4-.6.6-4.1.4-7.7-.2-5.8-.1-6.3 1.2-5 .9.8 1.7 3.7 1.8 6.5zm85.4 17.7c.7 4.1 5.3 12.8 6.8 12.8.5 0 .6-.4.3-.8-.3-.5.1-.9.8-.9.8 0 1.2.6.9 1.4-.7 1.8 2.2 1.7 3.7-.2.7-.8 1.6-1.3 2-1 .4.2 1.8-.7 3-2 3.2-3.4 4-3.1 2.9.7-.5 1.8-.9 4.9-.9 7 0 2.7-.6 4.2-2.6 5.7-1.4 1.1-3.2 1.7-4 1.4-.8-.3-1.4 0-1.4.6 0 1.3 5.2 1.1 6.3-.4.5-.6.7-.1.4 1.2-.3 1.3-.1 2.6.4 2.9 1.5.9.1 2.2-4.4 4.6-4.1 2.1-10.1 3.3-9.2 1.8.2-.4-.8-1.6-2.3-2.7-4.9-3.6-5.8-9.5-5.3-33.6.1-4.9 1.7-4 2.6 1.5zm25.4 6.5c0 3.2.3 8.6.7 12.1.5 5.4.4 6.1-1 5.6-.9-.3-1.6-.1-1.6.5s.7 1.1 1.6 1.1c1.4 0 1.6 1 1.2 6.4-.2 3.6-.1 6.3.2 6.1.4-.2-.1 4.8-1.2 11.3-1 6.4-2 13.7-2.3 16.1-.8 7.4-1.7 11.1-2.5 10.6-.5-.3-.6.4-.3 1.5.9 3.4-.7 11-2.3 11-.8 0-1.4-.9-1.4-2s.5-2 1-2c.7 0 .6-.8-.2-2.3-1.1-2.1-1.2-2-2 1.8-.6 2.8-.5 4.1.3 4.4.6.2 1.8 1.2 2.7 2.2.9 1 1.9 1.6 2.3 1.3.4-.2 1.6.6 2.6 1.8 1 1.3 2.7 2.8 3.8 3.4 2.8 1.6 3 3.4.3 3.5-2.3.1-2.3.1.2.8 1.8.5 2.7.3 3.1-.8.4-1 .8-1.1 1.2-.4 1.2 1.9-.3 4-2.9 4-1.3 0-2.7-.4-3-.8-.3-.5-1-.6-1.6-.3-.7.4-.8.2-.4-.4.4-.7.1-1.2-.8-1.2-.8 0-3.9-1-6.9-2.1-5-1.9-5.5-2.4-5.2-4.8.2-1.4.8-3.7 1.3-5.1 1-2.6 2.8-13.2 3.7-21.3.3-2.7.7-5.2.9-5.6.2-.3.6-3.5.7-7 .1-3.5.8-9.3 1.5-12.9.7-3.7 1-7 .8-7.4-1-1.6.8-9.8 2-9.1.7.5.7.2-.1-.8-1.3-1.6-.9-10.3.7-14.5.6-1.4 1-4.3 1-6.5 0-2.1.4-3.9.9-3.9s.9 2.6 1 5.7zM206 399.2c.1 1.8 6.2 6.9 7.6 6.4.9-.3 2.6-.6 3.8-.6 2.3 0 6.6-3.3 6.6-5.1 0-.5-1.2-.2-2.7.7l-2.8 1.6 2.5-2c3.5-2.9 5-1.1 4.3 5-.4 3.4-1 4.8-2.4 5.1-1.1.3-1.9 1-1.9 1.6 0 .6.7.8 1.6.4 1.3-.5 1.5.1 1.1 3.7-.4 4.1-2.5 7-5.1 7-3 0-8.9-2.4-11.5-4.6-4.5-3.8-8.9-17.1-6.2-18.8.4-.3 1.2-2.9 1.6-5.8l.7-5.3 1.4 5c.7 2.7 1.3 5.3 1.4 5.7zm-77.6 10c-.4 11.1-.5 17-.1 23.7.2 2.7-.3 3.5-2.2 4.2-2.3.9-2.3.9-.7-1.6 2.2-3.4 2-4.3-.4-1.5-1.1 1.3-2 3.1-2 4.2 0 1-.4 1.8-1 1.8-.5 0-1 .9-1 1.9 0 1.7.4 1.5 3-1 2.7-2.8 5-3.2 5-.9 0 1.2-6.9 4.4-9.5 4.5-1.5 0-2.1.8-2.3 3.2-.2 1.7-1 3.7-1.8 4.3-1.6 1.4-1.9 3.5-.4 2.5.7-.4.8 1 .5 4-.5 3.5-.2 4.7 1 5.1.8.3 1.5 1 1.5 1.5 0 .6-1 .4-2.2-.2-1.3-.7-2.5-1.3-2.8-1.3-.3-.1-.4-1-.3-2.1.1-1.1.3-4 .3-6.5.1-4.6 3.4-19.9 5-22.8.5-1 2.1-5.5 3.6-10.2 1.4-4.7 3-9.4 3.5-10.5.4-1.1 1.3-4.6 2-7.8.7-3.1 1.3-5.7 1.5-5.7.1 0 0 5.1-.2 11.2zm72.1 5.8c-.2 1.1.1 2.3.7 2.6.7.4.8.2.4-.4-.4-.7-.2-1.2.4-1.2.6 0 .8 1 .4 2.4-.4 1.8.2 2.9 2.6 5 4.3 3.6 7.4 4.2 13.2 2.3 4.6-1.5 4.9-1.5 4.2.1-.3.9-.6 2.7-.5 4 .1 2.7-1.5 6.2-2.9 6.2-.5 0-.7-.7-.4-1.5.5-1.1.2-1.3-1-.9-.9.3-1.6.9-1.6 1.3s-1.2.8-2.7.9c-3.5.3-3.6.5-1.3 2.5 1.6 1.3 2 1.4 2 .3 0-1.8 3-3 4.3-1.7.5.5 1.6.7 2.4.4 1.3-.5 1.2 0-.2 2.8-2.4 4.8-5.4 6.9-8.7 6.2-1.7-.3-2.8-.1-2.8.6 0 .6-.7 1.1-1.5 1.1-.9 0-1.2-.6-.9-1.5.4-.8 1.7-1.5 3.1-1.5 2.9 0 8-2.8 8.8-4.8 1-2.6-.1-2.3-3.5.8-2.2 2.1-3.9 2.9-5.6 2.6-1.3-.3-2.4 0-2.4.6s-1 .8-2.5.4c-2-.5-2.3-.3-1.9 1.1.5 1.5.4 1.5-.4.3-.8-1-.7-1.9.1-2.9.9-1.2.9-1.3 0-.7-.7.4-2.1.2-3-.3-1.7-1-1.7-1 .1-1.1 1.7 0 1.6-.3-.8-3.4-1.4-2-2.2-3.7-1.6-4.1.6-.4.6-1.5 0-3.1-.6-1.4-.7-3.1-.3-3.6.3-.6.8-4.1.9-7.7.2-3.6.6-7.7 1-9.1l.7-2.5.8 2.8c.4 1.6.6 3.7.4 4.7zm36.4 18c2 13.1 2.5 26.6 1.2 27.4-.9.6-.7 1.2.6 2.2 1 .7 1.3 1.4.8 1.4-.6 0-2.3-1.4-3.9-3.1-1.6-1.7-4-3.8-5.3-4.6-1.2-.8-2-1.9-1.7-2.5.3-.5 1.3-.3 2.3.6 3.1 2.8 3.4 1.7.6-2s-2.8-5.8 0-3c2.6 2.6 2.8 1.9.6-1.8-2.9-4.6-2.7-6.5.4-3.6 1.3 1.2 2.2 2.6 2 3.1-.3.4 0 1.1.6 1.5.8.4.9.3.5-.4s-.3-1.2.2-1.2.9-.6.9-1.4c0-.8-.5-1.2-1.1-1-.6.2-1.9-.8-2.8-2.3-1.4-2.5-1.4-3.6-.2-10.3.7-4.1 1.4-9.3 1.5-11.5l.1-4 .8 4.5c.5 2.5 1.3 7.9 1.9 12zm-74.4 3.8c-.3.3-1.1 0-1.8-.7-.9-1-.8-1.1.6-.5 1 .3 1.5.9 1.2 1.2zM126.2 459c-.1 2.7-.9 4.8-2 5.6-2.7 2.1-3.6 1.6-1.8-1.1.9-1.3 1.6-4.1 1.6-6 0-2.5.4-3.5 1.3-3.2.8.2 1.1 1.9.9 4.7zm6.8.1c0 1.7-.5 4-1.1 5.1-.9 1.7-1.3 1.8-2.1.7-.7-1.1-.8-.9-.6.6.3 1.7 1.2 2.1 6.1 2.3 4.8.3 5.6.1 5.1-1.2-.4-1.1-1.6-1.4-4.1-1.1-2.4.3-3.3.1-3-.8.2-.7.9-1.1 1.4-1 .6.1.8-1.3.6-3.2l-.3-3.4 3.7 1.3c3.4 1.1 3.9 1.8 4.3 5.2.9 6.6.4 7.5-4.4 6.9-2.2-.3-7.9-.8-12.6-1.1-12.2-.7-12-.6-12-2.7 0-1.1.4-1.5 1.2-1.1 1.6 1 7.9 1.6 10.3 1 2-.5 2.5-2.2 2.8-8.9.1-1.1.9-1.7 2.4-1.7 1.9 0 2.3.5 2.3 3.1zm83 4.9c5 1.6 15 6.6 14.5 7.2-.3.3.8.4 2.5.2 1.6-.2 3 .1 3 .6 0 .6-.4 1-.9 1s-.7.9-.4 1.9c.3 1.1-.4 5.9-1.5 10.8-1.2 4.8-2.4 11.6-2.8 15-.4 3.5-1 6.3-1.4 6.3-1.5 0-1.9-1.4-.8-2.7.8-1.1.7-1.2-.6-.7-2 .8-2 1.8-.1 3.8 1.9 1.8 1.9 6.1 0 15.1-1.4 6.5-3.6 23.7-3.6 27.7 0 1.5-.9 1.8-5.2 1.8-7.5 0-8-.6-8.5-10-.3-6-.1-8.1.7-7.6.6.4.8 1.2.5 1.8-.4.6-.1.9.7.6 2.3-.8 1.7-4.3-.6-4.1-1.7.2-2-.5-2.3-4.5-.2-2.6-1.4-9-2.8-14.2-3.3-12.5-4.2-21.9-2.3-23.1 1.2-.7 1.2-.9 0-.9-1.1 0-1.2-1.3-.6-6.8 1.1-8.9 1.1-19.2.1-22l-.9-2.3 5.4 2.1c3 1.2 6.5 2.5 7.9 3zm-47.7-2.9c7.9.1 10.7.5 10.7 1.4 0 .7-.7 1.5-1.5 1.9-.8.3-1.5 1.2-1.5 2.1 0 .8-1.1 6.1-2.5 11.8-2.2 9.4-9.5 46.4-13.4 68.5-1.3 7.5-1.9 9.1-3.1 8.6-.8-.4-3.4-1.1-5.8-1.6-4.2-1-4.3-1.1-3.6-4.1.4-1.8.7-7.4.7-12.5s.4-9.5.8-9.8c.5-.3.4-1.4-.1-2.4-.6-1.1-.9-2.3-.8-2.7.2-1-1.1-16.2-1.8-20.1-.3-1.5-.9-4.5-1.4-6.7-.5-2.2-.7-9.6-.4-16.5.3-6.9.5-13.9.5-15.7l-.2-3.2 6.3.4c3.5.2 11.1.5 17.1.6zm39 92.5c1 .3 1.3 1.8 1.1 4.8l-.4 4.3 5.7.2c3.2 0 6.5.4 7.5.7 2 .6 2.5-.4 3.1-5.1.2-1.9 1-3.1 2.2-3.4 1.5-.2 1.7.1 1.1 2-.4 1.3-.9 3.3-1 4.3-.1 1.1-2.2 3.7-4.6 5.8-3.6 3.2-4.9 3.8-8.9 3.8-5.5 0-6.7-.7-6.7-4 0-1.4-.4-5.1-.8-8.3-.8-5.9-.7-6.1 1.7-5.1zm15.6 1c1 .9-2.2 3.2-3.9 2.9-1-.2-3.1.1-4.7.6-2.2.7-1.7.8 2.9.6 4.3-.3 5.5 0 5.1 1-.3.9-2.4 1.3-6.3 1.3h-5.8l.4-3.3c.1-1.7.3-3.5.3-3.9.1-.6 11.2.1 12 .8zm-78.1 3.6c-.3 3.7 0 4.3 1.7 4.4 1.1 0 4.1.4 6.7.8l4.6.8-3.4 3c-3.2 2.9-3.6 3-4.8 1.3-.7-.9-2.7-1.8-4.6-1.9l-3.3-.2-.1-6.2c-.1-5.4.1-6.2 1.7-6.2 1.6 0 1.8.7 1.5 4.2zm18.6-3.4c.7 1.2-1.6 8.2-2.7 8.2-.5 0-.7-1.4-.3-3.1.3-1.7.6-3.8.6-4.5 0-1.5 1.6-1.9 2.4-.6zm-9.7 1.6c.3.3 1.4.6 2.4.6.9 0 1.9.7 2.2 1.4.4 1.1.1 1.3-1.1.9-1.5-.6-1.6-.5-.2 1.2 1.4 1.7 1.3 1.8-2.5 1.1-2.2-.4-4.9-.9-6-1-1.1-.2-1.9-.6-1.7-.9.1-.4.2-1.5.2-2.6 0-1.5.6-1.8 3-1.6 1.7.1 3.3.5 3.7.9zm6.1 13.3c-3.1 3.4-4.2 6.7-3 8.9.7 1.3 1.1 1 1.6-1.9.4-1.9 1.6-4.6 2.7-6.1 1.7-2.2 2.3-2.4 4.4-1.4 2.9 1.3 3.1 2.1 1.1 3.7-.8.7-1.7 3-2.1 5.2-.6 3.6-.9 3.8-3.2 3.3-1.4-.4-6.6-.8-11.7-.9-5-.1-9.5-.3-9.9-.4-.8-.1-.2-6.2.9-10.3.4-1.5.9-1.5 4.9-.2 5.1 1.8 6.2 3.7 3.4 6.3-1.3 1.2-1.7 2.1-1 2.6.6.3 1.1.2 1.1-.3s1-1.2 2.2-1.5c1.2-.4 1.9-.9 1.5-1.3-1-1.1 3.3-8.1 5.7-9.2 3.5-1.6 4.3.5 1.4 3.5zm66.9-1.6c.8.8.6 2-.9 4.5-1.1 1.9-1.5 3.4-.9 3.4s1.5-.8 2-1.8c2.6-4.4 2.5-4.4 10.7.1 9.5 5.1 11.8 6.7 12.3 8.7 1.2 4.6 1.2 6.1.2 7.4-1 1.2-2 .9-6.4-2-2.8-1.9-6-3.7-7-4-1-.3-1.6-1.1-1.4-1.7.5-1.5-2-6.7-3.4-6.7-.5 0-.3 1.3.6 3 .8 1.6 1.5 3.1 1.5 3.5 0 .3-2.7.5-6 .5-4.6 0-6.2-.4-6.7-1.6-.3-.8-.1-2 .6-2.7 1.4-1.4 1.4-4 0-3.1-.8.4-.9 0-.4-1.5.4-1.4.2-2.1-.6-2.1-.7 0-.2-1.1 1.1-2.5 2.6-2.8 3.1-3 4.7-1.4zm-52.6 7c1.2 1.6 2.8 2.9 3.5 2.9 2 0 2.7 1.9 1.4 3.5-.8.9-.9 2.9-.5 5.5.8 4.6.1 4.9-3.8 1.5-2.2-2-2.6-2.9-1.8-4.3.6-1.1.6-2.4 0-3.3-.5-.7-.9-2.5-.9-3.8 0-1.4-.8-3.3-1.7-4.3-1.5-1.6-1.5-1.8-.1-1.3.9.4 2.6 2 3.9 3.6zm33.9-2.2c0 .6 1.6.7 3.5.4 3.1-.5 3.5-.4 2.9 1.3-.5 1.5-.3 1.4 1-.4 1-1.2 2.2-2.2 2.8-2.2.6 0 .5.7-.3 1.7-1 1.1-1 1.4-.1.9.9-.5 1.2.5 1.2 4.3v5l-4.5.7c-6.9 1-9.5 0-9.5-3.7 0-1.7.4-2.8.8-2.5.4.2.6-1.1.4-3-.3-2.1 0-3.4.7-3.4.6 0 1.1.4 1.1.9zm-37.4 3.8c-.4 1.3-.2 3.1.3 4.1.5 1 .6 2.4.2 3.1-.7 1-1.3 1-3.2-.1-1.3-.7-2.5-1.4-2.7-1.5-.2-.1.2-1.2.9-2.5 1.4-2.4 1.6-3 1.8-5.3.1-.9.7-1.2 1.7-.8 1.1.4 1.4 1.3 1 3zm12.5 5.7c-.1.4 1 1.8 2.4 3.2 2.7 2.7 3.1 3.9 1.4 5-.7.4-.9 2.1-.5 4.6.6 3.7.5 3.8-1.4 2.8-1.2-.6-2.4-1.8-2.7-2.6-.3-.8-1.2-1.4-2-1.4-1.3 0-1.3-.3-.3-1.5.8-1 1-2.9.7-5.2-.4-2.1-.2-4.2.5-5 1-1.3 2.1-1.2 1.9.1zm73.3 6.1c1 4.1 4.6 6.3 4.6 2.9 0-1-.6-1.4-1.4-1.1-1.4.6-3.2-2.1-2.1-3.1 1.1-1.1 6.3 5.1 6.7 7.9.4 2.5.1 2.9-1.9 2.9s-2.3-.4-1.8-2c.4-1.1.2-2-.4-2-.6 0-1.1.7-1.1 1.5 0 2-.6 1.9-4.6-.6-3.5-2.1-4.1-3.3-2.4-4.4 1.3-.8 1.3-6.2 0-7-.6-.4-.8-1.1-.4-1.6.8-1.3 3.9 2.9 4.8 6.6zm-65.5 7.9c1.5 4 .6 6.2-1.9 4.6-1.2-.8-1.2-1.2-.2-1.8 1-.7 1-1.1-.3-2.2-1.8-1.5-2-5.3-.3-4.8.7.3 1.9 2.1 2.7 4.2z"/><path d="M206.7 117.7c-.4.3-.7 1.1-.7 1.7 0 .6.5.5 1.2-.2.6-.6.9-1.4.7-1.7-.3-.3-.9-.2-1.2.2zM184.5 124c-1 1.5.3 7.8 2.1 10.6 1 1.4 3 3.2 4.5 4 3.6 1.8 4.5 1.8 2.9-.1-.7-.8-1.8-1.5-2.4-1.5-1.9 0-5.5-6.3-5.8-10.3-.2-4-.4-4.2-1.3-2.7zM226 128.1c0 .5.5.7 1 .4.6-.3 1-.8 1-1.1 0-.2-.4-.4-1-.4-.5 0-1 .5-1 1.1zM224.7 132.7c-1.1 1-.8 5.3.3 5.3.6 0 1-1.4 1-3 0-3.1-.2-3.5-1.3-2.3zM230.2 137.5c0 1.6.2 2.2.5 1.2.2-.9.2-2.3 0-3-.3-.6-.5.1-.5 1.8zM208.2 143.8c.1 2.3.5 3.9.9 3.6 1-.6.6-6-.4-7.1-.4-.3-.6 1.2-.5 3.5zM205.7 142.3c-.4 1.1-1.5 1.7-2.5 1.5-2.1-.3-9.2 4.7-9.2 6.4 0 .6.7.4 1.8-.4 2.8-2.6 8.9-4.7 10-3.6 1.4 1.4 2-.2 1.2-3.2-.5-2.2-.7-2.3-1.3-.7zM215.8 143.4c-.3 1.5-.1 2.3.5 1.9 1.8-1.1 6.6-.5 8.9 1.1 2.1 1.5 2 1.6-3.5 1-3.8-.4-5.7-.3-5.7.5 0 .5.7.8 1.5.5 1-.4 1.5 0 1.5 1.5 0 3.2 3 3.9 5.1 1.3.9-1.2 2.3-2.1 3.1-1.9.7.2 1 .2.5 0-.4-.3-.5-.8-.2-1.3.7-1.1-3.7-5.6-6.2-6.2-1.2-.3-2.4-.1-2.7.6-.3.8-.7.7-1.4-.2-.7-1.1-1.1-.8-1.4 1.2zM186 149.4c0 1.6 2.8 4.2 3.6 3.3.3-.3-.4-1.5-1.5-2.6-1.4-1.4-2.1-1.7-2.1-.7zM200.8 150.4c-3.6 1.9-7.4 4.6-6.5 4.6.4 0 2.4-.9 4.5-2l3.7-2 1.4 2c1.8 2.7 4 2.5 5.1-.6.6-1.4 1.4-2.2 2-1.9.5.3 1 .1 1-.4 0-1.6-8.1-1.3-11.2.3zM191.5 157.1c.3 3.6.9 4.3 2.8 3.2 1.3-.7 1.2-1.2-.8-3.5l-2.3-2.6.3 2.9zM197.3 157.1c1.1.6 4.4 1.3 7.6 1.6 4.5.4 5.9.2 7-1.1 1.3-1.6 1.2-1.6-1.2-.5-2.1 1-3.9 1-7.8.1-6.2-1.5-8-1.5-5.6-.1zM198.3 161c.5 3.1 1.7 3.6 1.7.7 0-1.5-.4-2.7-1-2.7-.5 0-.9.9-.7 2zM206.9 163.1c-.8 1.7-.8 2 .2 1.7.7-.2 1.3-1.2 1.5-2.1.3-2.3-.3-2.1-1.7.4zM191.6 162.9c-.4.7-.5 1.5-.2 1.8.9.9 1.9-.4 1.4-1.8-.4-1.1-.6-1.1-1.2 0zM196.2 165.9c-1.1.6-.9.9.6 1.3s1.9.2 1.5-.8c-.6-1.6-.4-1.6-2.1-.5zM222.5 165.8c-1.2.9-1.8 3.2-.7 3.2 1.6 0 3-1.6 2.4-2.7-.4-.7-1.2-.9-1.7-.5zM222.1 176.7c-.1 1.2.4 2.5.9 2.8 1.2.7 1.2-.2 0-3-.8-1.9-.9-1.9-.9.2zM202 177c0 .5.5 1 1.1 1 .5 0 .7-.5.4-1-.3-.6-.8-1-1.1-1-.2 0-.4.4-.4 1zM176 183c-.8.5-1.2 1.1-.9 1.4.2.3 1.1.1 1.9-.4.8-.5 1.2-1.1.9-1.4-.2-.3-1.1-.1-1.9.4zM176.6 186.7c-.6 1.4-.5 1.5.5.6.7-.7 1-1.5.7-1.8-.3-.3-.9.2-1.2 1.2zM124.6 235.6c-.8 2.1-.8 2.4.3 2.4.5 0 1.1-.9 1.4-2 .6-2.4-.8-2.7-1.7-.4zM122 243.1c0 .5.5.7 1 .4.6-.3 1-.8 1-1.1 0-.2-.4-.4-1-.4-.5 0-1 .5-1 1.1zM317.6 159.2c-.8 3.2-.7 3.8.5 3.8.5 0 .7-.5.4-1.1-.4-.5.1-1.9 1.1-3 1.5-1.6 1.5-1.9.2-1.9-.9 0-1.8 1-2.2 2.2zM314.5 165c-.3.5.1 1 1 1s1.3-.5 1-1c-.3-.6-.8-1-1-1-.2 0-.7.4-1 1zM329 172.9c0 .6.4 1.3 1 1.6.6.3.7-.1.4-.9-.7-1.8-1.4-2.1-1.4-.7zM302 173c0 .5.5 1 1.1 1 .5 0 .7-.5.4-1-.3-.6-.8-1-1.1-1-.2 0-.4.4-.4 1zM305.1 193.6c0 1.1.3 1.4.6.6.3-.7.2-1.6-.1-1.9-.3-.4-.6.2-.5 1.3zM305.5 201.1c-.4.6-.4 1.3-.1 1.6.3.4.6.1.6-.6s.5-.9 1.2-.5.8.3.4-.4c-.9-1.5-1.3-1.5-2.1-.1zM291 180c1.9 1.3 3 1.3 3 0 0-.6-1-1-2.2-1-1.9 0-2 .2-.8 1zM283 184.1c0 .5.5.7 1 .4.6-.3 1-.8 1-1.1 0-.2-.4-.4-1-.4-.5 0-1 .5-1 1.1zM284.8 188.8c-2.1 1.4-3.6 2.7-3.4 2.9.5.5 8.6-4.5 8.6-5.2 0-.9-1.5-.3-5.2 2.3zM293 204.1c0 .5.5.7 1 .4.6-.3 1-.8 1-1.1 0-.2-.4-.4-1-.4-.5 0-1 .5-1 1.1zM266 206c0 .5.7 1 1.5 1s1.5-.5 1.5-1c0-.6-.7-1-1.5-1s-1.5.4-1.5 1zM271.8 206.7c.7.3 1.6.2 1.9-.1.4-.3-.2-.6-1.3-.5-1.1 0-1.4.3-.6.6zM269.5 209c.3.5.8 1 1.1 1 .2 0 .4-.5.4-1 0-.6-.5-1-1.1-1-.5 0-.7.4-.4 1zM139.7 260c-.3 1.1-.2 2.2.3 2.5.4.3 1-.6 1.2-2 .6-3-.7-3.4-1.5-.5zM141.7 267.4c.4 1.7.3 1.8-.6.6-.8-1.2-1-1-.9 1 .3 4.4-.2 8.1-.9 7.7-.5-.3-.9.5-.9 1.6-.1 1.2-.9 5.1-1.8 8.7-2.7 10.3-3.4 15-2.4 15 .5 0 .2.7-.7 1.6-1.5 1.5-1.5 1.8.1 3.5.9 1 2.1 1.6 2.5 1.3.5-.3.6.2.2 1.1-.5 1.3-.7 1.4-1.4.3-.6-.9-.9-.4-.9 1.4 0 1.6.5 2.8 1.1 2.8.6 0 .7.5.2 1.2-.4.7-.6 2.2-.4 3.2.2 1.5-.2 1.8-1.8 1.3-1.2-.3-2.3-.2-2.6.3-.3.4.6 1 1.9 1.2 2.9.6 5-2.6 5.1-7.5 0-1.8.4-3.8.9-4.6.6-1 .3-1.9-1-2.8-1-.8-1.7-2-1.6-2.6.2-.7.4-2.8.4-4.7-.1-4.9 5.1-24.6 6.7-26 .3-.3.7-2.1.9-4.1.2-2.5-.2-3.6-1.1-3.6-.9 0-1.3.8-1 2.1zM135 274.5c0 .8.5 1.5 1 1.5.6 0 1-.7 1-1.5s-.4-1.5-1-1.5c-.5 0-1 .7-1 1.5z"/><path d="M143.2 275.7c-.5 1-1.7 5.4-2.7 9.8-.9 4.4-2.1 8.8-2.6 9.7-.6 1.2-.6 1.8.1 1.8 1 0 .9 3.5-.2 4.6-.8.7 2.4 4.2 3.4 3.7.4-.2.9.6 1.3 1.7.3 1.1 1.4 2 2.3 2 1.1 0 .5-1.1-2.1-3.8-2.1-2.1-3.5-4.1-3.2-4.3.2-.3.7-2.2.9-4.2.3-2.1.7-4.1.9-4.5.3-.4.8-3.2 1.1-6.3.4-3.1 1.1-7.1 1.6-8.8 1-3.4.6-4.1-.8-1.4zM125 278.1c0 .5.5.7 1 .4.6-.3 1-.8 1-1.1 0-.2-.4-.4-1-.4-.5 0-1 .5-1 1.1z"/><path d="M145.2 290.2c-1.5 1.5-1.6 3.1 0 2.6.6-.2 1.2-1.2 1.4-2.1.3-2 .2-2.1-1.4-.5zM144 295.4c0 .9.5 1.6 1 1.6.6 0 1-.4 1-.9 0-.6-.4-1.3-1-1.6-.5-.3-1 .1-1 .9zM144.5 299c-.3.5-.2 1 .4 1 .5 0 1.3-.5 1.6-1 .3-.6.2-1-.4-1-.5 0-1.3.4-1.6 1zM145.1 301.8c0 .4.4 1.6.8 2.6.7 1.9.8 1.9 1.3-.1.4-1.4 0-2.4-.8-2.7-.8-.3-1.4-.2-1.3.2zM139.9 307.6c0 .5-.2 1.9-.3 3.1-.1 1.2.1 2 .6 1.7.4-.3.8.7.7 2.3-.1 1.5-.1 4.6 0 6.8.2 3.6.3 3.8 1.2 1.6.5-1.3.8-4.3.6-6.7-.3-3.5-.1-4.1 1-3.2 1.8 1.4 1.6 7.7-.3 12.3-.8 2-1.3 3.9-1 4.2.9 1 3.3-2.2 2.9-3.8-.3-.9 0-2 .6-2.3.6-.4 1.1-1.7 1.1-3 0-1.2.5-2.7 1.2-3.4.9-.9 0-2.2-3.5-5.8-2.6-2.6-4.7-4.3-4.8-3.8zM102.1 325.6c0 1.1.3 1.4.6.6.3-.7.2-1.6-.1-1.9-.3-.4-.6.2-.5 1.3zM104.1 329.6c0 1.1.3 1.4.6.6.3-.7.2-1.6-.1-1.9-.3-.4-.6.2-.5 1.3zM126 335.5c-.8 3.3 3.1 9.5 5.9 9.5.7 0-.1-1.1-1.8-2.5-1.6-1.4-3.2-3.8-3.4-5.3-.2-1.5-.5-2.3-.7-1.7zM133.6 345.5c-.3.9 0 1.5.9 1.5s1.2-.6.9-1.5c-.4-.8-.7-1.5-.9-1.5-.2 0-.5.7-.9 1.5zM126.2 352.5c0 1.6.2 2.2.5 1.2.2-.9.2-2.3 0-3-.3-.6-.5.1-.5 1.8zM129.5 379c.3.5.8 1 1.1 1 .2 0 .4-.5.4-1 0-.6-.5-1-1.1-1-.5 0-.7.4-.4 1zM126 381.7c.1 1.3 3 4.8 3 3.6 0-.6.3-1.8.6-2.7.4-1.2 0-1.6-1.5-1.6-1.2 0-2.1.3-2.1.7zM238.5 215c-.3.5-.1 1 .4 1 .6 0 1.1-.5 1.1-1 0-.6-.2-1-.4-1-.3 0-.8.4-1.1 1zM170.4 198.2c.8 4.2-3.1 13.1-5.4 12.5-1.8-.5-3.4 1-3.8 3.5-.4 2.5.8 2.2 5-1.2 7.1-5.9 10.8-18 5.6-18-1.8 0-2 .4-1.4 3.2zM179.5 201.1c-1.1 1.7.1 2.1 1.5.4.8-.9.8-1.5.2-1.5-.6 0-1.4.5-1.7 1.1z"/><path d="M166.6 202.7c-.6 1.4-.5 1.5.5.6.7-.7 1-1.5.7-1.8-.3-.3-.9.2-1.2 1.2zM176 204.5c-.7.9-1.1 1.7-.9 2 .3.2 1-.5 1.7-1.5 1.4-2.4 1-2.6-.8-.5zM164 206.8c0 1.2.4 2.2.9 2.2 1 0 .9-2.6-.2-3.6-.4-.4-.7.2-.7 1.4zM176.9 207.7c-1.3 1.6-1.2 1.7.4.4 1.6-1.3 2.1-2.1 1.3-2.1-.2 0-1 .8-1.7 1.7zM172.7 210.4c-1.9 2.9-1.4 3.5 1 1.1.8-.8 1.3-2 1.1-2.6-.2-.7-1.2 0-2.1 1.5zM153.2 214.7c.9.2 1.8 1 2 1.8.4 1.8 9.1 8.8 14.9 11.9 5.6 3.1 18.1 7.8 18.8 7.1.7-.7-3.1-3.4-4.9-3.5-.8 0-3.2-.9-5.3-2-2-1.1-4.2-2-4.8-2-1.5 0-9.6-5.7-14.6-10.2-2.4-2.1-5.1-3.7-6-3.7-1.6.1-1.6.2-.1.6zM206.4 218.5c.4 1.8.3 2.5-.2 1.7-.7-1-1.3-.8-2.7.8-1 1.1-1.4 2-.9 2 1.7 0-9.1 6.7-11.9 7.4-2.5.6-3 2.6-.6 2.6.6 0 .8-.4.4-.9-.3-.6 1.5-1.3 3.9-1.6 5.1-.8 10.9-5.5 10-8-.4-.8-.1-1.5.5-1.5s1.1.8 1.2 1.7c.1 1 .6.3 1.2-1.5.8-2.5.7-3.6-.3-4.5-1-1-1.1-.6-.6 1.8zM149.8 219.7c-.2 1-.1 2.9.3 4.3.7 2.6 1.1 1.9 1.3-3 .1-3.3-.9-4.1-1.6-1.3zM152.5 219.9c-.5 1 5.4 6.1 7 6.1.5 0-.6-1.1-2.5-2.5s-2.8-2.5-2.1-2.5c.7 0 .9-.5.6-1-.8-1.3-2.2-1.3-3-.1zM217 220c0 .5.5 1 1 1 .6 0 1-.5 1-1 0-.6-.4-1-1-1-.5 0-1 .4-1 1zM172.5 223c-.3.5-.1 1 .4 1 .6 0 1.1-.5 1.1-1 0-.6-.2-1-.4-1-.3 0-.8.4-1.1 1zM268.7 225.7c-.4.3-.7 1.1-.7 1.7 0 .6.5.5 1.2-.2.6-.6.9-1.4.7-1.7-.3-.3-.9-.2-1.2.2zM155.6 226.9c-1 1.5-1.5 1.1 6.9 4.6 3.9 1.5 9.5 3.9 12.5 5.3 3 1.3 6.9 3 8.5 3.7 1.7.7 7.3 2.1 12.5 3 5.2.9 10.5 1.8 11.7 2.2 1.3.3 2.3.1 2.3-.5s-1.9-1.4-4.2-1.8c-5-.9-4.8-.9-7.1-1.8-.9-.5-2.3-.6-3.1-.3-.8.3-1.7-.1-2-1-.5-1.2-1.5-1.4-4.1-1-2.6.4-4.9-.2-9.7-2.6-3.5-1.7-6.6-3-7.1-2.9-.4.1-3.4-1.1-6.7-2.8-3.3-1.6-6.6-3-7.4-3-.8 0-1.6-.5-1.8-1.2-.3-.9-.6-.9-1.2.1zm36.1 13.7c-.3.3-1.2.4-1.9.1-.8-.3-.5-.6.6-.6 1.1-.1 1.7.2 1.3.5zM221.3 227.9c.1 1.2.7 2.1 1.4 2.1 1.7 0 1.6-1.5-.1-3-1.2-.9-1.5-.8-1.3.9zM204 229.9c0 .7-.5.9-1.2.5-.7-.5-.8-.3-.3.6.6 1 .1 1.2-2.1.7-2.5-.5-3-.2-3.1 1.4-.1 1.3.2 1.7 1 1.2.7-.4 1.8-.8 2.6-1 1.9-.2 4.6-3.1 3.8-3.9-.4-.4-.7-.2-.7.5zM267 230.1c0 .5.5.7 1 .4.6-.3 1-.8 1-1.1 0-.2-.4-.4-1-.4-.5 0-1 .5-1 1.1zM253.7 231.3c-1.1 2.9-.9 4.3.4 3 .6-.6.9-1.9.7-2.9-.3-1.8-.4-1.8-1.1-.1zM192.5 233c-.3.5.1 1 1 1s1.3-.5 1-1c-.3-.6-.8-1-1-1-.2 0-.7.4-1 1zM274.8 233.7c.7.3 1.6.2 1.9-.1.4-.3-.2-.6-1.3-.5-1.1 0-1.4.3-.6.6zM148.3 234.7c-.7.2-1.3.9-1.3 1.4 0 .6.8.6 1.9-.1 2.6-1.3 3.4.8 1.2 3.4-1.5 1.8-1.5 1.8.9 1.1 1.4-.4 3.2-1.4 4-2.3.8-.9 1.1-1.4.6-1-.4.4-1.7-.2-2.9-1.3-2.2-2-2.4-2.1-4.4-1.2zM165 235.8c0 1.1 4 3.3 5 2.7.4-.3 1.1.1 1.3.7.3.8.6.6.6-.5.1-1-.6-1.7-1.8-1.7-1.1 0-2.3-.5-2.6-1-.7-1.2-2.5-1.3-2.5-.2zM270.7 240.2c-1.3 2.9-2 5.4-1.5 5.6.4.2.3 1.3-.4 2.5-1 2-1 2.1.6.8.9-.8 1.5-2 1.2-2.7-.3-.7 0-1.4.5-1.6.6-.2 1.1-1 1.2-1.8.2-.8.6-2.1 1-2.8.5-.6.5-1.7.2-2.2-.3-.6-.1-1 .4-1 .6 0 1.1-.5 1.1-1 0-2.6-2.1-.5-4.3 4.2z"/><path d="M183 236.4c0 .2.7.7 1.6 1 .8.3 1.2.2.9-.4-.6-1-2.5-1.4-2.5-.6zM250.7 239.1c-2 3.6-1.3 5.5.9 2.5 1.2-1.7 2-5.6 1.2-5.6-.2 0-1.1 1.4-2.1 3.1zM147 240.5c0 1.4.5 2.5 1.1 2.5.6 0 .9.6.6 1.2-.2.7 0 2.1.4 3 .6 1 .5 1.9-.1 2.3-1.4.8-1.3 3.5.1 3.5.6 0 .9-.7.6-1.4-.4-1.1-.1-1.3 1-.9 1.3.5 1.5.2 1-1.8-.4-1.3-.7-3.4-.7-4.7 0-1.2-.5-2.1-1.2-2-.8.2-1.3-.7-1.2-2 0-1.2-.3-2.2-.8-2.2-.4 0-.8 1.1-.8 2.5zM173.4 239.2c.1.7 2 2.3 4.2 3.5 4.2 2.4 5.9 2.9 4.9 1.3-.3-.6.1-.7.9-.4.9.3 1.6.1 1.6-.5s-1.6-1.1-3.6-1.1c-2.1 0-3.3-.4-2.9-1 .3-.6-.5-1-1.9-1-1.3 0-2.7-.5-2.9-1-.3-.6-.4-.5-.3.2zM157.3 241.4c.2.6 1.1 1.2 2.1 1.4.9.2 2.8 1.5 4.3 2.8 1.4 1.3 4.4 2.9 6.5 3.6 2.2.6 4.5 1.9 5.1 2.8.7.9 2.8 1.7 4.7 1.8 2.7.2 3.2 0 2-.9-1.2-.9-1.1-1 .8-.6 1.2.3 2 .1 1.6-.4-.7-1.2-4.4-1.2-4.4.1 0 .5-.7.7-1.5.4-.8-.4-1.5-1.2-1.5-2 0-.7-.9-1.8-2-2.4-1.5-.8-2-.8-2 .1 0 .8-.4.8-1.5-.1-.8-.7-1.2-1.6-.9-2.1.3-.5-.2-.9-1.1-.9-1.2 0-1.5.5-1.1 1.6.6 1.5.4 1.5-1.1.3-3.3-2.6-4.2-3.7-3.6-4.3.4-.3-.6-.6-2.1-.6s-2.5-.4-2.2-.8c.3-.5-.2-.9-1-.9s-1.3.5-1.1 1.1zM154.9 241.4c-.3.4-.4 4.6-.2 9.4.3 7.6-.5 16.7-2.3 25.2-1 4.7 1.3.6 3.2-5.5 2.3-8 2.4-8.4 1.4-10.9-.5-1.3-.3-3.7.6-6.1 1.1-3.3 1.1-4.4-.1-7-.7-1.6-1.5-3.6-1.7-4.3-.2-.7-.6-1.1-.9-.8zM186 244.8c0 1.5 2 1.9 7.8 1.6 3-.1 5 .1 4.7.7-.4.5-.1.9.4.9.6 0 1.1-.6 1.1-1.4 0-1-1-1.4-2.9-1.4-1.5.1-3.3-.2-4-.6-.6-.4-1.1-.1-1.1.6 0 .8-.3.9-.8.3-.9-1.3-5.2-1.9-5.2-.7zM211.4 245.8c.4.6 2.3 1.4 4.4 1.7 2 .4 7.3 1.5 11.7 2.6 8.4 2 18.8 3.6 26.8 4.2 3.9.3 5 0 5.8-1.5.6-1.1.8-2.2.5-2.5-.3-.3-.1-1.4.5-2.4.6-1.2.6-1.9 0-1.9-.5 0-1.5 1.6-2.1 3.6l-1.2 3.7-7.4-.7c-4-.4-9.5-1.3-12.1-2.1-2.6-.8-6.5-1.5-8.5-1.5s-3.9-.4-4.2-.9c-.3-.4-2.6-1.1-5.1-1.4-2.5-.4-5.7-1-7.1-1.3-1.9-.5-2.5-.3-2 .4zM201.5 247c.3.5.8 1 1.1 1 .2 0 .4-.5.4-1 0-.6-.5-1-1.1-1-.5 0-.7.4-.4 1zM204.3 247.6c.3.4 1.7.8 2.9 1 1.3.2 3.7.6 5.3.9l3 .5-3-1.5c-2.9-1.4-9.4-2.1-8.2-.9zM160.2 250.6c-1 1.1-.9 1.5.5 2.3 3.2 1.6 9.3 1.7 9.3.1 0-.5-1.4-.7-3-.5-1.7.2-2.8 0-2.5-.5 1-1.6-2.9-2.9-4.3-1.4zM216 250c0 1.2 3.7 1.4 4.4.2.2-.4-.6-.9-2-1-1.3-.1-2.4.3-2.4.8zM266.5 252c-.3.5-.2 1 .4 1 .5 0 1.3-.5 1.6-1 .3-.6.2-1-.4-1-.5 0-1.3.4-1.6 1z"/><path d="M158 254c0 1.4 2.9 3.2 4.8 2.8 1.5-.2 1.2-.6-1.4-1.9-1.9-.9-3.4-1.3-3.4-.9zM172 253.9c0 .6-.5 1.1-1.2 1.1-2 0-7.9 5.1-7.2 6.2.4.6.3.8-.3.5-.6-.4-1.3.2-1.6 1.2-.3 1.2.1 2.2 1.1 2.6 1.8.7 3.2-1.2 2.4-3.3-.3-1-.1-1.3.6-.8.6.3 1.4.2 1.7-.4.4-.6.2-.9-.3-.8-.6.2-.9-.2-.8-.7 0-.6.7-.9 1.4-.9.6.1 1.2-.2 1.2-.6 0-.4 1.1-1.1 2.5-1.4 2.6-.7 3.2-2 1.5-3.1-.5-.3-1-.1-1 .4zM181.5 254.7c-1.1.3-2.4 1-3 1.5-.7.8-.4.9.8.4 1-.3 3.3-.6 5-.6 2.4 0 2.8-.3 1.7-1-.8-.5-1.7-.9-2-.9-.3.1-1.4.3-2.5.6zM265.6 254.9c-.4.7-.5 1.5-.2 1.8.9.9 1.9-.4 1.4-1.8-.4-1.1-.6-1.1-1.2 0zM157.6 258.3c.2.7 1.4 1.3 2.5 1.4 2.1.2 2.1.1.3-1.2-2.4-1.8-3.5-1.9-2.8-.2zM222.7 258.5c.4 1.1 1.8 1.5 4.7 1.4 4.2-.1 17.8 2.2 25.1 4.4 2.2.6 4.6 1.1 5.3 1.2.8 0 2 .9 2.8 2 .9 1.2 1.8 1.5 2.4.9.6-.6-.3-2.3-2.6-4.7-3.4-3.6-5.9-5.2-3.4-2.2 1.8 2.1.6 3-1.4 1-2.7-2.7-7.1-3.5-9-1.7-1.5 1.5-1.6 1.5-1.6 0 0-.9-1.1-1.8-2.5-2-1.3-.3-2.2-.1-1.9.3.3.5-1.2.6-3.3.2-2.1-.3-5.9-.7-8.6-.7-2.6-.1-4.7-.4-4.7-.9 0-.4-.4-.7-1-.7-.5 0-.7.7-.3 1.5zM150 260.5c-.1 1.6-.3 3.8-.5 4.7-.2.9.2 1.9.9 2.1.8.3 1.1-.7.8-3.2-.5-5.5-.9-6.9-1.2-3.6z"/><path d="M170.5 259.1c-1.1 1.6-.1 1.9 1.3.3.7-.8.8-1.4.3-1.4s-1.3.5-1.6 1.1zM260.7 263.1c.7.7 1.5 1 1.8.7.3-.3-.2-.9-1.2-1.2-1.4-.6-1.5-.5-.6.5zM181.6 265.5c.5 1.1-.1 1.5-2 1.5-2.7 0-3.3 1.4-1.7 3.9.7 1.1 1.4.9 3.6-1.2 2.7-2.4 3-5.7.6-5.7-.6 0-.8.7-.5 1.5zM195.5 266.1c-.4.6-.4 1.3-.1 1.6.3.4.6.1.6-.6s.5-.9 1-.6c.6.3 1 .1 1-.4 0-1.4-1.7-1.4-2.5 0zM185.1 267.7c0 1.1.3 1.3.6.5.2-.6 1-.9 1.5-.6.7.4.8.2.4-.4-1.1-1.8-2.6-1.4-2.5.5zM188.7 268.6c-.3.5.1 1.8.9 2.9.8 1 1.4 1.5 1.4.9 0-.5.7 0 1.5 1 .8 1.1 1.5 1.6 1.6 1 0-.5.2-2 .4-3.4s.1-1.9-.1-1.3c-.8 1.8-2.5 1.6-3.9-.4-.7-.9-1.4-1.2-1.8-.7zM172.6 270.5c-.8.8-1.9 1.5-2.5 1.5-.6 0-1.1.5-1.1 1 0 .7.6.7 1.9 0 2.5-1.3 3.1-1.3 3.1.1 0 .5-.4.8-.9.5-.4-.3-1.6.1-2.7.8-1 .8-2.4 1.1-3.1.9-.8-.3-2.3.3-3.4 1.3l-2.1 1.9 2.4.6c3.9 1 13.5-5.7 12.4-8.7-.7-1.8-2.1-1.8-4 .1zm-5.1 6.4c.3.6-.3.9-1.4.8-1.1 0-1.7-.5-1.5-.9.7-1.1 2.2-1 2.9.1zM192.7 277.9c-.4 1.7-.3 2.1.5 1.3.5-.5.8-1.6.6-2.3-.3-.8-.7-.3-1.1 1zM158.7 279.7c-1.1 1-.8 2.5.3 1.8.6-.3 1-.4 1-.2 0 .3-1.5 1.4-3.4 2.5-3.9 2.3-6.6 6.2-4.1 5.8.8-.1 2.1-.8 2.8-1.6 1-1 .9-1.1-.2-.5-1 .6-1.2.4-.7-.4.4-.6 1.3-1.1 1.9-.9 1.6.3 8.7-4.2 8.7-5.5 0-.5-.9-.2-2 .8-1.9 1.7-2.6 1.2-2.1-1.8.1-.9-1.3-.9-2.2 0zM188.9 286.6c-1 1.2-.8 1.9.9 3.6 2.5 2.5 2.7 2.4 3.5-1.7.5-2.5.2-3.1-1.3-3.2-1-.1-2.4.5-3.1 1.3zm3.1.4c0 .5-.4 1-1 1-.5 0-1-.5-1-1 0-.6.5-1 1-1 .6 0 1 .4 1 1zM174.3 290.7c-7.2.5-6.7 2.2.5 2.1 8.8-.1 8.5-.2 7.9 3.7-.3 1.9-.2 3.5.3 3.5 1.2 0 2.4-4.6 1.5-5.9-.3-.6-.1-1.1.5-1.1 1.7 0 2.3 2.7 1 5-1 1.8-.9 2.1.2 1.8.7-.3 1.4-1.7 1.6-3.1.2-1.5.8-2.7 1.3-2.7 1.2 0 1.2 3.7-.1 4.5-1.5.9-1.2 2.2.6 2.9.8.3 1.3.2 1-.3-.3-.5.1-2.6 1-4.7.9-2.2 1.3-3.6 1-3.3-.4.4-2.9-.2-5.7-1.2-2.7-1.1-5.5-1.8-6.2-1.7-.6.1-3.6.3-6.4.5z"/><path d="M167.5 296.1c-1.6.4-4.1 1-5.5 1.3-3.7.9-7.1 4.1-6.4 6 .6 1.5.8 1.4 2.3-.2 2.1-2.5 7.7-4.2 12.9-4 2.3.1 4.5-.2 4.9-.5.3-.4 1.2-.2 2 .4 1.1.9 1.3.7 1-1.2-.2-1.3-1-2.4-1.8-2.4s-1.3.6-1.1 1.2c.3 1.7-3.5 1.7-4.5 0-.6-1-1.7-1.2-3.8-.6zM156 307.6c0 .8.5 1.2 1 .9.6-.3 1-1 1-1.6 0-.5-.4-.9-1-.9-.5 0-1 .7-1 1.6zM153 308c0 .5.5 1 1.1 1 .5 0 .7-.5.4-1-.3-.6-.8-1-1.1-1-.2 0-.4.4-.4 1zM156.5 316c-.3.5-.2 1 .4 1 .5 0 1.3-.5 1.6-1 .3-.6.2-1-.4-1-.5 0-1.3.4-1.6 1zM159.6 319.8c-.4.8-.5 3.8-.1 6.8.9 7.3 4.1 11.1 10 11.9 2.4.4 4.9.5 5.5.3 1.2-.4-8.5-6.2-10.5-6.3-.5-.1-.9-.6-.7-1.3.1-.7-.2-1.2-.7-1.2-.4 0-.7-1.1-.6-2.5.2-1.4-.1-2.5-.5-2.5-.5 0-1-1.5-1.2-3.3-.2-2.2-.6-2.8-1.2-1.9zM151.1 328c-.1 1.4-.5 3.4-.7 4.5-.3 1.1-.9 8.4-1.4 16.2-.5 7.8-1.4 16.8-2 20-1.6 8.1-1.8 11.5-2 31-.1 11.3-.5 17.3-1.2 17.3-.6 0-.8-.9-.5-1.9.2-1 .1-2.5-.4-3.2-.6-.9-.9-.2-.9 2.2 0 2.2.6 3.9 1.3 4.2 1.4.5 1.4 1.1.2 13.7-.3 3-.6 8.5-.8 12.1-.1 3.7-.8 7.3-1.4 8.1-1 1.1-.8 1.4.7 1.5 1.5.1 2-.7 2.4-5 .7-6.3 1.4-16.8 2.1-34.2 1.1-27.1 1.6-36.1 2-39 .2-1.7.4-4.5.4-6.3.1-3.8 2.1-3.5 2.1.3 0 1.3.5 2.7 1.1 3.1.6.3.9 1.7.6 3-.2 1.3.1 2.5.7 2.8.7.3.7.5-.1.5-2 .1-1.5 2.9.7 4.8 1.1 1 2 2.9 2 4.3s.4 3.2 1 4c.6 1 0 2.3-2.3 4.5-1.8 1.7-4 3.6-4.9 4.1-1.5.8-1.4 1 .7 2 1.8.9 2.2.9 1.9-.1-.5-1.3 5.3-8.1 6.2-7.2.7.6-.7 3.7-1.7 3.7-.4 0-1.3.9-1.9 1.9-.9 1.8-.7 1.9 4.5 1.7 6.3-.3 7.3-.9 5.5-3.1-.7-.8-.9-1.5-.6-1.5.4 0 .1-.7-.6-1.5-2.2-2.4-3.4-4-3.5-4.5-.1-.3-.6-1.8-1.2-3.3-.6-1.6-1.1-3.2-1.1-3.7s-.6-1-1.2-1.3c-1-.4-1-.7-.1-1.8 1.8-1.8 2.1-1.3 3.6 5.6.6 2.7 3 7.5 3.8 7.5 1.2 0 1.2-.2-.6-4.2-.8-2-1.6-4.7-1.9-6.2-.3-1.5-1-3.3-1.6-4-.5-.7-1.2-2.6-1.4-4.2-.3-1.6-.7-3.8-.9-4.9-1.7-7-2-7.6-3-6.6-.7.7-.5 1.7.5 3.3.8 1.3 1.5 3.8 1.4 5.6-.1 1.7.2 3.2.7 3.2.4 0 .7.4.7 1 0 .5-.4 1-.9 1s-1.7-2.6-2.6-5.8c-.9-3.1-2.2-6.3-2.7-7-.8-.9-.6-1.6.7-2.6 1.5-1 1.6-1.6.6-3.2-1.1-1.8-1.2-1.7-.6.3.5 1.6.2 2.3-.8 2.3-1.2 0-1.5-1.3-1.4-6.1.1-5.2.3-5.8 1.4-4.3.7 1 1.3 2.3 1.3 3 0 .7.8 1.9 1.8 2.6.9.7 2.2 2.6 2.7 4.3.6 1.6 2 3.4 3.3 4 1.2.5 2.2 1.3 2.2 1.8 0 .4-.4.5-1 .2-.5-.3-1-.2-1 .3 0 .9 3.3 9.8 5.1 13.7 3.1 6.5 5.6 21.2 4 22.8-1.5 1.5-1.4 2.7.4 2.7.8 0 1.7-1.2 2-2.8.3-1.5 1.2-3.9 1.9-5.4 1.3-2.4 1.2-2.7-.5-3.1-1.3-.4-1.7-1-1.3-2.2.4-1 .1-2.1-.7-2.6-1-.6-1-.9-.2-.9.9 0 1-.7.3-2.6-1.3-3.2-1.3-4.4 0-4.4.5 0 .7.7.4 1.5-.4.8-.1 1.5.4 1.5 1.1 0 1.2.8 1.3 6.2.1 1.6.5 2.8.9 2.8 1.2 0 2-2.9.9-3.5-.5-.4-.7-1-.4-1.5.6-1-2.5-9.3-3.3-8.6-.3.3-1 .1-1.7-.4-.8-.7-1.1-.1-.8 2.3.4 3.1.3 3.1-1.2-.8-.8-2.2-1.7-5.3-2.1-7-.3-1.6-.8-3.4-1.3-4-1.1-1.5-1.2-6.7-.1-6 .6.3 1 1.3 1 2.1s.5 1.2 1.1.8c.6-.4.9.1.7 1.3-.2 1.1.3 2.7 1.1 3.6 1.1 1.4 1.1 2 0 3.4-1.2 1.5-1.2 1.6.3 1.1 1-.4 1.9-.1 2.2.9.4.9.9 1.3 1.2 1 .3-.3-.2-2.1-1.1-3.9-.9-1.8-1.9-4.4-2.1-5.8-.3-1.4-1.1-3-1.8-3.5-.7-.6-1.5-1.8-1.9-2.8-.3-.9-1.2-1.7-1.9-1.6-1 0-1 .2 0 .6.6.2 1 .9.6 1.4-1 1.7-2.5.9-3.6-2.2-.6-1.6-1.3-2.7-1.6-2.4-.9.8-7.2-10.7-6.5-11.8.3-.6.1-.7-.5-.3-.9.5-1.2-.7-1.2-4.1l.1-4.8 3.2 5c5.8 9 15.8 21.6 16.7 21 .6-.3.8 0 .5.7-.3.7.6 2.5 1.9 3.9 1.4 1.5 2.3 2.9 2 3.2-.2.2.1 1.7.7 3.3 2.4 6.2 4 16 3.4 21.4-.7 6.1-2.3 11-3.6 11-.5 0-.9.7-.9 1.5s.3 1.5.6 1.5c1.1 0 3.3-2.8 2.7-3.4-.4-.3-.1-.6.5-.6.7 0 1.2-.9 1.2-2.1 0-1.1.3-1.8.8-1.6.4.3.8-.6.9-2 .1-1.9-.1-2.2-.8-1.2-1.4 2.2-1 .4.5-2.6.9-1.7 1.6-2.2 1.9-1.3.4 1 .6 1 .6 0 .1-.7-.5-1.5-1.2-1.8-.9-.3-1.2-1.6-.9-3.5.9-5.8-3.6-18.4-9.5-27.1-1.8-2.6-3.3-5.1-3.3-5.4 0-1.4-8.3-10.4-9.1-9.8-.5.3-.9 0-.9-.6s-1.5-3.2-3.2-5.8c-2.6-3.7-3.4-6.1-3.9-11.2-.3-3.6-.7-5.4-.8-4zm3.9 53.6c0 .8-.4 1.2-1 .9-.5-.3-1-1-1-1.6 0-.5.5-.9 1-.9.6 0 1 .7 1 1.6zm7 15.4c0 .5-.5 1-1.1 1-.5 0-.7-.5-.4-1 .3-.6.8-1 1.1-1 .2 0 .4.4.4 1zm-2 2.9c0 1.2-2 2.5-2.7 1.8-.7-.7.6-2.7 1.8-2.7.5 0 .9.4.9.9zM155.2 329.4c.7.8 1.5 1.2 1.7 1.1.5-.6-1-2.5-2-2.5-.5 0-.4.6.3 1.4z"/><path d="M168 331c0 .5.5 1 1.1 1 .5 0 .7-.5.4-1-.3-.6-.8-1-1.1-1-.2 0-.4.4-.4 1zM174.4 330.8c.3.6-.2 1.2-1.1 1.4-1.2.2-1.4.6-.7 1.1.7.4 1.7 0 2.3-.7.9-1.1.9-1.6 0-2.2-.7-.4-.9-.3-.5.4zM156.7 333.6c.7.3.9 1.2.6 2-.5 1.4.8 1.9 2 .7.9-.8-1.2-3.3-2.7-3.2-.7 0-.7.2.1.5zM159 338.5c-.7.8-.9 1.5-.6 1.5.4 0 1.4-.7 2.2-1.5.9-.8 1.1-1.5.6-1.5-.5 0-1.5.7-2.2 1.5zM162.3 341c-.1 1.6.1 1.7 1.2.7.7-.6 1.1-1.5.8-2-.8-1.3-1.9-.7-2 1.3zM170 341.2c0 .5 1.1.8 2.5.8 1.5 0 2.5.6 2.5 1.4 0 1 .9 1.4 2.5 1.2 3.6-.4 4.3-1.6.9-1.6-2 0-2.5-.3-1.5-.9.9-.6 0-1-2.8-1.3-2.2-.2-4.1 0-4.1.4zM165 343c0 .5.5 1 1 1 .6 0 1-.5 1-1 0-.6-.4-1-1-1-.5 0-1 .4-1 1zM163.8 346.4c-1.3 1-1.5 1.5-.6 2.4 1.8 1.8 3.2 1.4 1.7-.5-1.2-1.5-1.2-1.6.3-1 1.2.4 1.5.2 1.1-.9-.6-1.7-.4-1.7-2.5 0zM146 348.9c0 .5.5 1.3 1 1.6.6.3 1 .2 1-.4 0-.5-.4-1.3-1-1.6-.5-.3-1-.2-1 .4zM182.4 350.5c-1.8 1.5-1.8 1.5.5 1.3 1.4-.2 2.6-.9 2.9-1.6.5-1.7-1-1.5-3.4.3zM167.5 351.9c-.3.5.1 1.5.8 2.3.7.7 2.3 2.9 3.5 4.9 2.6 4.3 5 6.5 5.9 5.5.4-.4-.8-2-2.6-3.6-1.7-1.6-3.8-4.6-4.7-6.5-1.5-3.7-1.9-4.1-2.9-2.6zM143.7 358.7c-.4.3-.7 2-.6 3.7l.1 3.1.9-3.4c1-3.3.8-4.7-.4-3.4zM161 360.1c0 .5.5.7 1 .4.6-.3 1-.8 1-1.1 0-.2-.4-.4-1-.4-.5 0-1 .5-1 1.1zM178 367.5c.6.8.9 1.8.6 2.3-.3.5.4 2.5 1.4 4.5 1.1 2.1 1.7 3.7 1.3 3.7-.4 0-.2.5.4 1.1.6.6.9 1.8.6 2.7-.4 1-.1 1.3.8 1 1.8-.6 1.3-4.5-1.1-7.8-.9-1.4-1.5-3-1.3-3.7.6-1.6-1.5-5.3-2.9-5.3-.7 0-.6.5.2 1.5zM143.1 369.6c0 1.1.3 1.4.6.6.3-.7.2-1.6-.1-1.9-.3-.4-.6.2-.5 1.3zM153 386c0 .5.5 1 1 1 .6 0 1-.5 1-1 0-.6-.4-1-1-1-.5 0-1 .4-1 1zM149.3 389c-.1 1.1.2 1.8.8 1.5 1.1-.7 1.2-3.5.1-3.5-.4 0-.8.9-.9 2zM133.8 390.7c.2 1.2.6 2.3.7 2.3.1 0 .5-1.1.7-2.3.3-1.4 0-2.4-.7-2.4s-1 1-.7 2.4zM153.3 391.2c.1 2.1.4 3.8.8 3.8 1.1 0 2-3.3 1.1-3.9-.5-.3-1.1-1.3-1.4-2.1-.3-.8-.5.2-.5 2.2zM148.7 395.1c.7.7 1.5 1 1.8.7.3-.3-.2-.9-1.2-1.2-1.4-.6-1.5-.5-.6.5zM133.9 397.3c.5.5.7 1.5.5 2.2-.3.7-.1 1.6.5 2 .7.4 1.1-.5 1.1-2.3 0-1.9-.5-2.9-1.5-2.9s-1.2.4-.6 1zM141.8 398.7c.7.3 1.6.2 1.9-.1.4-.3-.2-.6-1.3-.5-1.1 0-1.4.3-.6.6zM148.5 404.1c-.4.6-.5 1.3-.2 1.6.7.7 2.7-.6 2.7-1.8 0-1.2-1.7-1.2-2.5.2zM143.1 406.6c0 1.1.3 1.4.6.6.3-.7.2-1.6-.1-1.9-.3-.4-.6.2-.5 1.3zM150.8 405.6c-.4.3-.4 1.2-.1 2 .3.8 0 1.4-.6 1.4s-1.1.7-1.1 1.5.4 1.5.9 1.5.8.8.7 1.7c0 1.1.6 1.7 1.6 1.7 1-.1 1.5.2 1.2.7-.3.5.2.9 1 .9 2.3 0 2-1.3-.9-4.5-2.1-2.2-2.3-3-1.4-4.1 1.2-1.5-.1-4.1-1.3-2.8zM161.2 408.9c.7 1.1 1.5 1.8 1.9 1.5.4-.2 1.5.3 2.3 1.2.9.8 1.6 1.2 1.6.8 0-.3.8 0 1.7.7 1.5 1.2 1.6 1.2 1-.4-.5-1.5-.2-1.6 2.1-1.1 2.1.4 2.4.3 1.2-.5-.8-.6-2.9-1.1-4.6-1.1-1.6 0-3.9-.7-5-1.5-2.7-2-3.6-1.8-2.2.4zM180.7 410.5c-.4.8-.2 1.7.2 2 .5.2 1.1-.4 1.4-1.5.6-2.3-.8-2.7-1.6-.5zM173.5 414c-.4.6-1 .8-1.5.5-.5-.3-1.1-.1-1.4.4-.3.5.1 1.2.9 1.5.9.3 1.8-.1 2.1-.9.4-.8 1-1.2 1.5-.9.5.3.9 0 .9-.5 0-1.4-1.7-1.4-2.5-.1zM154 419.9c0 1 .7 2.4 1.5 3.1.8.7 1.5 1.9 1.5 2.7 0 .8.5 1.1 1.1.8.6-.4 1.6.1 2.3 1.1 1.7 2.2 3.8 2.8 10.4 2.6 6.6-.2 9.4-1.6 9-4.5-.3-1.9-.8-2.2-4.8-1.9-8 .4-9.2.2-12.9-2-2-1.2-3.7-2.6-3.9-3-.7-1.7-4.2-.8-4.2 1.1zm5 1.7c0-.4 1.2.4 2.7 1.8 2.1 2 3.6 2.5 7.3 2.3 5.6-.1 8.8 1.4 5 2.3-1.4.4-3 .3-3.6-.2-.7-.5-1.6-.2-2.4.7-1.1 1.3-1.5 1.3-4.1 0-1.6-.9-2.8-1.9-2.6-2.4.1-.5 0-.9-.3-.8-.8.1-6-4.9-6-5.8 0-.5.9 0 2 1s2 1.5 2 1.1zm20 4.4c0 .5-.7.7-1.5.4-.8-.4-1.5-.8-1.5-1 0-.2.7-.4 1.5-.4s1.5.4 1.5 1zM133.1 423.6c0 1.1.3 1.4.6.6.3-.7.2-1.6-.1-1.9-.3-.4-.6.2-.5 1.3zM148.3 424.6c-.6 1.3-.7 2.4-.3 2.4.9 0 2.5-3.9 1.8-4.5-.2-.2-.8.7-1.5 2.1zM148.8 427.7c-1 .2-1.8.9-1.8 1.5 0 .5.6.8 1.4.5.8-.3 1.7.1 2 .9.9 2.4.8 2.6-1.6 1.9-2.1-.7-2.2-.6-.7 1 1.1 1.1 2.4 1.5 3.8 1l2.1-.6-2-2.8c-1-1.6-1.7-3.1-1.3-3.5.3-.3.4-.5.2-.5-.2.1-1.2.3-2.1.6zM161.2 432.6c1 1 2 1.5 2.4 1.2.3-.4-.5-1.2-1.8-1.8-2.2-1.2-2.2-1.2-.6.6zM165 434c0 .6.7 1 1.5 1s1.5-.2 1.5-.4-.7-.6-1.5-1c-.8-.3-1.5-.1-1.5.4zM139.2 438.4c.7.8 1.5 1.2 1.7 1.1.5-.6-1-2.5-2-2.5-.5 0-.4.6.3 1.4zM176.5 440c.3.5.8 1 1.1 1 .2 0 .4-.5.4-1 0-.6-.5-1-1.1-1-.5 0-.7.4-.4 1zM173.5 448c-.3.5-.1 1 .4 1 .6 0 1.1-.5 1.1-1 0-.6-.2-1-.4-1-.3 0-.8.4-1.1 1zM146 450.9c0 1.1-.4 2.3-1 2.6-1.4.9-1.2 2.5.3 2.5.7 0 2-1.6 2.9-3.5 1.5-3.3 1.5-3.5-.3-3.5-1.2 0-1.9.7-1.9 1.9zM151 450.9c0 .5.5 1.3 1 1.6.6.3 1 .2 1-.4 0-.5-.4-1.3-1-1.6-.5-.3-1-.2-1 .4zM152.3 453.7c-5.3.5-5.7 2.3-.5 2.3 2 0 5.3.5 7.2 1 2.3.7 3.6.7 3.8 0 .2-.6 1-.6 2-.1s2.6.5 3.7 0c2-.9 2-.9 0-.7-1.1 0-2.7-.1-3.5-.5-.8-.3-2.4-.7-3.5-1-1.1-.3-2.7-.7-3.5-.9-.8-.2-3.4-.3-5.7-.1zM195 212.3c-1.4.7-2.6 1.9-2.8 2.7-.3 1.1.1 1.1 1.6-.3 1-.9 2.4-1.7 3-1.7.7 0 1.2-.5 1.2-1 0-.6-.1-1-.2-.9-.2 0-1.4.6-2.8 1.2zM275 219c.8.5 2 1 2.5 1 .6 0 .3-.5-.5-1s-1.9-1-2.5-1c-.5 0-.3.5.5 1zM304 229c-.9.6-1 1-.3 1 .6 0 1.5-.5 1.8-1 .8-1.2.4-1.2-1.5 0zM320.8 247.7c.7.3 1.6.2 1.9-.1.4-.3-.2-.6-1.3-.5-1.1 0-1.4.3-.6.6zM284.1 229.6c-1 2.2-.9 2.5.6 2.2 1-.2 1.7-1.2 1.7-2.1-.2-1.4.1-1.5 1.2-.6 1.2 1 1.3.9.8-.5-.9-2.4-2.9-2-4.3 1zM289 232.6c-.6 1.4-1 2.9-1 3.3 0 .5-.7 1.4-1.6 2.2-1.3 1.1-1.4.9-.9-1.7.6-2.6.5-2.7-.6-.9-.6 1.1-2.3 3.2-3.7 4.7-1.5 1.6-2.2 3.3-1.8 4.3.3.9.2 1.3-.4 1-.6-.3-1 .1-1 1 0 1.9 2 1.6 3.1-.6 1.2-2.3 2.2-5.4 2-6.2-.1-.4.4-.7 1.1-.6 2.9.4 3.7-.3 5.1-4.6 1.7-4.7 1.4-6.3-.3-1.9zM282 235c0 .5.5 1 1 1 .6 0 1-.5 1-1 0-.6-.4-1-1-1-.5 0-1 .4-1 1zM284.5 243c-.3.5-.2 1 .4 1 .5 0 1.3-.5 1.6-1 .3-.6.2-1-.4-1-.5 0-1.3.4-1.6 1zM276.9 250.2c-1 .6-.6.7 1.1.2 2.1-.6 2.3-.5 1.3.7-1 1.2-.8 1.5.9 1.6 1.1.1 1.8-.1 1.4-.4-.3-.3-.2-1.1.3-1.7 1.2-1.4-3.1-1.8-5-.4zM274.3 255.9c-.3.9-.8 2-1 2.4-.6 1 4.3.4 5.3-.6.4-.4.2-.7-.5-.7s-.9-.5-.6-1.1c.4-.6 1.4-.8 2.2-.5.8.3 1.2.2.9-.3-1-1.5-5.7-.9-6.3.8zM213.9 256.7c-1.1.2-1.8 1.7-2.1 3.9-.4 3.3.5 4.6 1.5 2.1.4-.9.6-.9.6.1.1.7-.5 2-1.3 2.7-.7.8-1.2 2.7-1 4.4.2 1.7 0 3.1-.5 3.1s-.7.9-.4 2c.3 1.1 1 2 1.5 2s.7-.9.3-1.9c-.4-1.3 0-2.3 1.2-3 1-.6 1.3-1.1.6-1.1-.7 0-1-.7-.7-1.5.4-.9 0-1.5-.7-1.6-.8 0-.4-.4.7-.9 2.5-1 3.1-6 .8-6-.8 0-1.4-.5-1.4-1.1 0-.6.7-.9 1.5-.5 1 .4 1.5-.1 1.5-1.4 0-1.1-.1-1.9-.2-1.9-.2.1-1 .3-1.9.6zM203.2 265c0 1.4.2 1.9.5 1.2.2-.6.2-1.8 0-2.5-.3-.6-.5-.1-.5 1.3zM204.1 267.9c-.7.5-1.5 2-1.6 3.5-.2 1.4-.6 4.4-1 6.6-.5 3.1-.4 4 .8 4 1.1 0 1.3-1.1 1.1-4.5-.2-3 .1-4.5.8-4.5.9 0 .9-.3 0-1.2-.9-.9-.8-1.6.5-3 1.8-2 1.6-2.3-.6-.9zM219.2 278.2c.6 1.8 2.8 2.1 2.8.4 0-.9-.7-1.6-1.6-1.6-.9 0-1.4.5-1.2 1.2zM210.3 280.2c-.1 1.1.3 1.8 1 1.5 1.7-.5 2.1-3.4.4-3.4-.7 0-1.4.9-1.4 1.9zM211 283.9c0 .6.4 1.2.8 1.5.5.3.9-.1.9-.9s-.4-1.5-.9-1.5c-.4 0-.8.4-.8.9zM201.1 291.5c0 7.1.1 7.4 2 6.2 1-.6 1.9-1.5 1.9-2 0-.4-.4-.5-1-.2-.5.3-1-.3-1-1.4 0-1-.3-2.6-.6-3.5-.4-1.1-.1-1.6 1-1.6 2.2 0 2-2.7-.3-4-1.9-1-2-.6-2 6.5zm2.9-4.5c0 .5-.4 1-1 1-.5 0-1-.5-1-1 0-.6.5-1 1-1 .6 0 1 .4 1 1zM247.5 286c.3.5.8 1 1.1 1 .2 0 .4-.5.4-1 0-.6-.5-1-1.1-1-.5 0-.7.4-.4 1zM218.3 288c-.1 1.6.1 1.7 1.2.7.7-.6 1.1-1.5.8-2-.8-1.3-1.9-.7-2 1.3zM210 288c0 .6.7 1 1.5 1s1.5-.2 1.5-.4-.7-.6-1.5-1c-.8-.3-1.5-.1-1.5.4zM217.6 293.9c-.4.5-.2 1.2.3 1.5.5.4 1.2.2 1.5-.3.4-.5.2-1.2-.3-1.5-.5-.4-1.2-.2-1.5.3zM235.5 293.9c-.3.5-.1 1.2.5 1.6.5.3 1-.1 1-.9 0-1.8-.6-2.1-1.5-.7zM209 294.6c0 .4.8 1.3 1.8 2.1s1.1 1.1.2.7c-1.3-.7-1.3-.6 0 1.1 1.4 1.7 1.5 1.7 1.8.1.2-.9-.2-2.3-.8-3.1-1.3-1.5-3-2-3-.9zM233.6 297.8c-.3.5.1.9.9.9s1.5-.4 1.5-.9c0-.4-.4-.8-.9-.8-.6 0-1.2.4-1.5.8zM200.2 301.1c.2.7 1 1.5 1.7 1.7.8.3 1.2-.1.9-.9-.2-.7-1-1.5-1.7-1.7-.8-.3-1.2.1-.9.9zM234 300.4c0 .4 1.4 1.2 3 1.7 2.2.8 3 1.7 3 3.5 0 1.3-.4 2.4-1 2.4-.5 0-1 .7-1 1.6 0 2.9 2.5.8 3.5-3 1-3.5 1.2-3.7 2.5-2 1.2 1.3 1.2 1.8.2 2.1-.6.3-1 .9-.6 1.4.3.5 0 .9-.7.9-1 0-1 .3-.1 1.2 1.5 1.5 2.2.8 2.9-3.6.5-3.1.3-3.7-2-4.5-3.6-1.4-9.7-2.4-9.7-1.7zM230.8 305.2c-.5 3.5.3 7.9 1.3 7.2 1.2-.7 1.2-9.4 0-9.4-.5 0-1.1 1-1.3 2.2zM202 305.7c0 1.5-.2 1.6-1 .3-.7-1.1-1-.8-.9 1.5 0 1.6.3 2.4.6 1.7.2-.6.9-1 1.4-.6.5.3.9-.6.9-2s-.2-2.6-.5-2.6-.5.8-.5 1.7z"/><path d="M235 306.5c.1 2.6.2 2.8 1.1 1.2.8-1.4.8-2.2 0-3-.8-.8-1.1-.3-1.1 1.8zM212 308.5c0 .8-.7 1.5-1.5 1.5-.9 0-1.2.6-.9 1.5.4.8 1.2 1.5 2 1.5s1.4-.7 1.4-1.5.4-1.5 1-1.5c.5 0 .7-.7.4-1.5-.4-.8-1-1.5-1.5-1.5s-.9.7-.9 1.5zM200 314.7c0 2.2.2 2.5 1 1.3 1.3-2 1.3-4 0-4-.5 0-1 1.2-1 2.7zM263.1 296.7c-.1.7-.8 1.3-1.7 1.3-1.2 0-1.5.6-1 2.2.3 1.3.6 2.8.6 3.5 0 .7.7 1 1.5.7.9-.4 1.5 0 1.5.9s.5 1.9 1.1 2.3c1.4.8.2-5.6-1.4-7.1-.7-.7-.8-.4-.4.8.4 1.1.3 1.6-.3 1.2-1.4-.8-1.3-3.2.2-3.7.6-.2.8-1.1.5-1.9-.3-.9-.6-1-.6-.2z"/><path d="M262 308.2c0 3.3 2.3 5.2 5.5 4.4 2.9-.7 3.2-1.8 1-3.6-1.3-1.1-1.4-1-.8.6.6 1.7.5 1.8-1.3.4-1-.7-2.5-2.1-3.1-2.9-1.1-1.3-1.3-1.1-1.3 1.1zm3.5 2.8c.3.5.1 1-.4 1-.6 0-1.1-.5-1.1-1 0-.6.2-1 .4-1 .3 0 .8.4 1.1 1zM272.1 286.6c0 1.1.3 1.4.6.6.3-.7.2-1.6-.1-1.9-.3-.4-.6.2-.5 1.3zM270.3 296.5c0 .8.4 1.5.9 1.5s.6.4.3 1c-.3.5-.2 1 .3 1 1.5 0 2.2-2.6.9-3.9-1.5-1.5-2.4-1.4-2.4.4zM273.6 301.6c-.8 2.1-.8 2.4.5 2.4.5 0 .8-.4.5-.9-.4-.5-.1-1.1.6-1.3.8-.3.9-.6.1-1.1-.6-.4-1.4 0-1.7.9zM200.7 330c-.3 1.1-.2 2.2.2 2.4.4.3.8-.6.9-2 .2-2.9-.4-3.1-1.1-.4zM199.6 356.5c-.3.8-.1 1.5.4 1.5.6 0 1-.7 1-1.5s-.2-1.5-.4-1.5-.6.7-1 1.5zM199.5 364c-.3.5-.1 1 .4 1 .6 0 1.1-.5 1.1-1 0-.6-.2-1-.4-1-.3 0-.8.4-1.1 1zM198.7 369.4c-.4 1-.5 2.1-.2 2.4.9.9 1.7-.6 1.3-2.5-.3-1.7-.4-1.7-1.1.1zM198 376c0 .5.5 1 1 1 .6 0 1-.5 1-1 0-.6-.4-1-1-1-.5 0-1 .4-1 1zM196 394.2c0 1.9.2 2 1 .8 1.3-1.9 1.3-3 0-3-.5 0-1 1-1 2.2zM192.3 417.2c-.1.7-.6 2.8-1.1 4.6-.6 1.8-.7 3-.3 2.7.5-.2 1.1-1.5 1.4-2.7.2-1.3.8-3.1 1.2-4.1.4-.9.3-1.7-.2-1.7s-1 .6-1 1.2zM190.5 427c-.3.5-.1 1 .4 1 .6 0 1.1-.5 1.1-1 0-.6-.2-1-.4-1-.3 0-.8.4-1.1 1zM194.6 446.6c-1.4 3.7.1 5 8.5 7.2 2.7.7 4 .6 5.5-.5 1.1-.9 1.3-1.3.4-1-.8.2-2.3 0-3.4-.5-1.4-.8-1.7-.7-1.1.3.6.9.3 1.1-.9.6-1-.4-2.1-.7-2.4-.7-.4 0 0-.5.8-1 1.3-.8 1.2-1-.2-1-1 0-1.8.6-1.8 1.2-.1.9-.5.8-1.3-.3-.7-.9-1.7-1.4-2.3-1.2-.7.2-1-.6-.7-2.2.6-2.8-.1-3.4-1.1-.9zM212.4 451.2c-.4.6-.3.8.4.4.5-.3 1.3 0 1.5.6.3.8.6.6.6-.5.1-1.9-1.4-2.3-2.5-.5zM193.8 456.2c-2.3 2.8-2.3 3.3.2 3.5 1.6.1 2-.4 2-2.8 0-3.5 0-3.5-2.2-.7zM208.2 455.1c.3.8 1.1 1.3 1.7 1.1.6-.1 1.1.4 1.1 1.1 0 .7.9 1.3 2 1.4 2.8.2 2.5-1.1-.7-2.7-1.6-.8-3.2-1.6-3.7-1.8-.5-.3-.6.1-.4.9zM214 455c0 .5.5 1 1 1 .6 0 1-.5 1-1 0-.6-.4-1-1-1-.5 0-1 .4-1 1zM232 323.9c0 .5.5 1.3 1 1.6.6.3 1 .2 1-.4 0-.5-.4-1.3-1-1.6-.5-.3-1-.2-1 .4zM240.7 330c.3 1.1.7 2 .9 2 .2 0 .4-.9.4-2s-.4-2-.9-2-.7.9-.4 2zM249 333.9c0 .5-1 .7-2.2.3-1.4-.3-1.9-.1-1.4.6.4.7 2.5 1.1 4.7 1 2.1-.1 3.8-.2 3.7-.3-1.6-1.3-4.8-2.4-4.8-1.6zM220.3 335.5c0 2.7.2 3.8.4 2.2.2-1.5.2-3.7 0-5-.2-1.2-.4 0-.4 2.8zM209 346.3c0 2 .5 3.9 1.1 4.2.7.5.8-.5.3-3.2-.9-5.1-1.4-5.4-1.4-1zM213.6 352.2c4 4.7 4 4.7 5.3 2.6 1.1-1.8 1.1-2-.3-1.5-1 .4-1.6.1-1.6-.9 0-.8-.4-1.2-1-.9-.5.3-1 .1-1-.4 0-.6-.7-1.1-1.7-1.1-1.4 0-1.4.3.3 2.2zM210.4 355.4c-.1 2.5.2 3.3 1.2 2.9.8-.3 1.2-1.4 1-2.6-.3-1.2-.5-2.5-.5-3-.1-.4-.4-.7-.8-.7-.5 0-.9 1.5-.9 3.4zM213.4 359.6c-.5 1.9-.9 2.2-1.5 1.3-.5-.9-.7-.3-.6 1.5.1 1.6.8 3.1 1.6 3.4.9.3 1.1-.2.7-1.6-.4-1.1-.2-2.3.4-2.7.6-.3.8-1.1.5-1.6-.4-.5-.1-.9.4-.9.6 0 1.1-.5 1.1-1 0-2.1-2-.9-2.6 1.6zM225.6 359.7c-.6 1.5-.8 1.5-1.6.3-.5-.8-1.2-1.1-1.7-.7-.4.5-.1 1.2.7 1.7.8.6 1.1 1 .6 1-.5 0-.3.7.5 1.6 1.1 1.3.8 2.1-2.4 5-3.5 3.3-4.8 5.2-2.8 4 .5-.4 1.2 0 1.4.6.3.8.6.6.6-.5.1-.9.8-1.7 1.7-1.7.8 0 1.2-.5.9-1-.3-.6.1-1 .9-1s1.8-.4 2.1-1c.4-.6-.1-.7-1.2-.4-1.1.4-.6-.4 1.2-2 2.7-2.3 2.5-3.2-.7-2.7-1.3.2-.9-1.1.9-3.1.9-1 1.1-1.8.6-1.8-.6 0-1.4.8-1.7 1.7zM217.5 360.1c-.9 1.4-.2 2 1.4 1 .8-.6.9-1.1.3-1.5-.6-.3-1.4-.1-1.7.5zM215 363.6c0 .8.5 1.2 1 .9.6-.4.8-1.1.5-1.6-.9-1.4-1.5-1.1-1.5.7z"/><path d="M220.4 364.9c.4.5 0 1.2-.6 1.4-.8.3-.6.6.5.6.9.1 1.7-.6 1.7-1.4 0-.8-.5-1.5-1.1-1.5-.5 0-.8.4-.5.9zM207.5 375c-.3.5-.1 1 .4 1 .6 0 1.1-.5 1.1-1 0-.6-.2-1-.4-1-.3 0-.8.4-1.1 1zM207.6 377.8c-.4.6-.2 2.1.4 3.2.9 1.6.8 2.2-.5 2.7s-1.4.7-.3 1.4c2.2 1.4 2.8 1 2.7-1.9-.1-3.8-1.4-6.9-2.3-5.4zM219.3 382.4c-.8 2.6-.7 3.3.3 3.3.8 0 1.4-.6 1.4-1.3 0-.7.6-1.4 1.2-1.6 1-.4.9-.9-.3-2.1-1.5-1.4-1.7-1.3-2.6 1.7zM211 382c0 .5.5 1 1.1 1 .5 0 .7-.5.4-1-.3-.6-.8-1-1.1-1-.2 0-.4.4-.4 1zM210.5 390.5c3.1 2.7 3.7 3.7 2.6 4.3-.9.7-1 1.2-.2 1.6.6.4 1.1.2 1.1-.5s1.1-1 3-.7c1.7.3 3 .1 3-.4s.5-.6 1.2-.2c.7.5.8.3.3-.6-.6-1-.4-1.2.8-.7 1.1.4 1.4.2 1.1-.8-.5-1.2-.9-1.2-2.9.1-2.2 1.4-2.6 1.4-4.5.1-2-1.4-2.1-1.5-.3-2 1.5-.4 1.5-.5-.3-.6-1.2 0-2.4-.8-2.8-1.6-.3-.8-1.8-1.5-3.3-1.5h-2.8l4 3.5zM215.8 397.7c.7.3 1.6.2 1.9-.1.4-.3-.2-.6-1.3-.5-1.1 0-1.4.3-.6.6zM229.9 395.2c-.7 2.4-.5 3.8.6 3.8.8 0 1.3-.9 1.2-2-.1-1.6-1.4-2.9-1.8-1.8zM228.7 404.7c-.4.3-.7 1.1-.7 1.7 0 .6.5.5 1.2-.2.6-.6.9-1.4.7-1.7-.3-.3-.9-.2-1.2.2zM228.3 409.8c.1 1.2.6 1.8 1.5 1.5.7-.3 1-.9.5-1.2-.4-.3-1.1-1-1.5-1.5-.4-.4-.6.1-.5 1.2zM229 413.5c-.7.8-1.5 3.5-1.8 6-.4 3.7-.2 4.4 1 4 .9-.4 1.3-1.6 1-3.4-.2-1.6.1-3.9.8-5.1 1.4-2.6.8-3.6-1-1.5zM226 426.1c0 .5.5.7 1 .4.6-.3 1-.8 1-1.1 0-.2-.4-.4-1-.4-.5 0-1 .5-1 1.1zM226 430.7c0 2.7 1.5 2.3 2.2-.5.3-1.1 0-1.9-.8-1.9s-1.4 1.1-1.4 2.4zM225.1 436.2c-.5 1.3-.6 2.7-.2 3.3.3.5.7-.2.9-1.7.2-2 .7-2.5 1.9-2.1 1.1.4 1.4.2.9-.5-1.1-1.9-2.6-1.4-3.5 1zM224 442.6c0 .8.5 1.2 1 .9.6-.3 1-1 1-1.6 0-.5-.4-.9-1-.9-.5 0-1 .7-1 1.6zM221.5 456.2c-1 2.4 0 3.5 5.5 6.3 6.4 3.2 7.3 3.2 2.4-.1-2.1-1.5-4-3-4.2-3.4-.1-.4-.9-1.6-1.7-2.6-1.2-1.7-1.4-1.8-2-.2zM202.3 405.5c-.3.9-.3 1.8-.1 2.1.9.9 3.5-.7 3.5-2.1 0-2-2.6-1.9-3.4 0zM205.2 410.6c-.1 1.3.3 2.4.8 2.4.6 0 1 .6 1 1.2.1 1.7 5 5.3 5 3.7 0-.6.8-.9 1.9-.6 1.6.4 3.1-.9 3.1-2.6 0-.2-2-.2-4.5-.1-4.3.2-4.6 0-5.2-2.7-.7-3.8-1.8-4.4-2.1-1.3zM217.8 415.2c-.6 1.6 1.6 6 2.5 5.1.4-.3-.1-1.5-1-2.6-1.7-1.9-1.7-2 .5-1.4 1.5.3 2.2.1 1.9-.6-.5-1.7-3.4-2-3.9-.5zM215 420c0 .5.5 1 1 1 .6 0 1-.5 1-1 0-.6-.4-1-1-1-.5 0-1 .4-1 1zM125 420c0 1.1.2 2 .4 2s.6-.9.9-2c.3-1.1.1-2-.4-2s-.9.9-.9 2zM123.7 423.9c.2 1-.3 2.3-1.1 3-1.3 1.1-1.3 1.5-.1 2.7 1.8 1.9 3.1 1.8 1.5-.1-.7-.8-.8-1.5-.2-1.5 1.5 0 2.1-4.8.7-5.4-.8-.3-1.1.2-.8 1.3zM119.6 434.8c-.3.5.1.9.9.9s1.2-.4.9-.9c-.3-.4-.7-.8-.9-.8-.2 0-.6.4-.9.8zM117.1 441.6c0 1.1.3 1.4.6.6.3-.7.2-1.6-.1-1.9-.3-.4-.6.2-.5 1.3zM199.3 423.8c0 1.2.5 2.2.9 2.2 1.1 0 1-1.2-.2-3-.7-1.2-.9-1-.7.8zM201.1 431c1.8 2.2 3.3 4 3.5 4 .6 0-3-6.6-4-7.2-2.7-1.8-2.4-.5.5 3.2z"/><path d="M200.7 435.4c-.4 1-.3 1.5.3 1.1.6-.3 1.3.1 1.6.9.3.9 1.3 1.6 2.1 1.6s1.1-.5.8-1c-.3-.6.3-1 1.4-1 1.2 0 2.1-.5 2.1-1 0-1.3-.6-1.3-3.1.1-1.6.8-2.3.7-3.3-.7-1.2-1.6-1.3-1.6-1.9 0zM235.6 450.8c-.3.5-.1 2.2.4 3.8.8 2.9.8 2.9.9-.9.1-3.6-.3-4.5-1.3-2.9zM130.1 460.6c0 1.1.3 1.4.6.6.3-.7.2-1.6-.1-1.9-.3-.4-.6.2-.5 1.3zM138.5 463c.3.5.8 1 1.1 1 .2 0 .4-.5.4-1 0-.6-.5-1-1.1-1-.5 0-.7.4-.4 1zM207.3 464.5c-.3.9-.3 1.9.1 2.2.3.4.6.1.6-.6s.4-1 .8-.7c.4.3.6 2.1.4 4.1-.3 2.6-.8 3.5-1.8 3.1-.9-.3-1.4.2-1.4 1.4 0 1.1.7 2 1.5 2s1.5.5 1.5 1.1c0 .6-.7.9-1.5.6-2-.8-2.8.8-1.1 2.2.8.7 1.3 2.3 1.1 3.6-.1 1.4.2 2.5.7 2.5.5 0 .4.9-.2 1.9-.5 1.1-1 3.8-1 6.1 0 3.7.1 4 1.6 2.6 1.1-1.2 1.5-3.5 1.3-9.5-.1-4.3.2-8.4.5-9 .4-.7.3-1.8-.4-2.6-.8-1-.8-1.5.1-2.1.7-.4.9-.3.5.4-.3.6.3 1.3 1.4 1.7 2.6.8 7.9 1.6 6.3.9-.7-.3-1.4-.4-1.5-.3-.7.7-5.8-5-5.8-6.5 0-1.8 2.5-2.2 3.5-.6.3.6 1.7.8 3.1.6 1.3-.3 2.4-.1 2.4.4 0 1.2 2.5 1.9 3.8 1.1.7-.4-.6-1.6-3.4-2.9-2.5-1.2-4.2-1.7-3.8-1.1.5.9.2 1-1.2.5-1-.5-2.5-.9-3.3-.9-.8 0-1.6-.9-1.9-1.9-.5-2.2-2.1-2.4-2.9-.3z"/><path d="M217 472.4c0 1.8 5 5 6 3.9.4-.4-.7-1.8-2.6-3-2.4-1.6-3.4-1.8-3.4-.9zM225.6 473.6c-1.1 2.8-.6 3.9.9 2 .8-1.1 1.5-2.3 1.5-2.8 0-1.4-1.8-.9-2.4.8zM229.1 475.7c-.6 1.6-1.3 3.9-1.6 5.2-.2 1.3-.9 3.8-1.4 5.5-1.4 4.8-2.1 10.5-1.2 11 .4.3 1.4-2.7 2.1-6.6.7-4 1.9-7.8 2.6-8.6.8-.7 1.2-1.7.9-2.1-.2-.5 0-2.2.5-4 1.1-3.8-.3-4.1-1.9-.4zM232.5 477c.3.5.8 1 1.1 1 .2 0 .4-.5.4-1 0-.6-.5-1-1.1-1-.5 0-.7.4-.4 1zM213.7 479.9c2.2 3.8 5.9 4.9 8.3 2.4 1.9-2.1.9-3.6-2.5-4.1-1.7-.2-1.6 0 .5 1.2 2.2 1.3 2.3 1.5.8 2.1-1.7.7-6.5-1.9-6-3.3.2-.4-.4-.8-1.2-1-1.4-.3-1.4.1.1 2.7zM222.2 489.5c.4 5.8 1.6 5.8 1.6 0 0-2.5-.4-4.5-.9-4.5s-.8 2-.7 4.5zM205.1 487.6c0 1.1.3 1.4.6.6.3-.7.2-1.6-.1-1.9-.3-.4-.6.2-.5 1.3zM212.3 488c.3 1.1.2 2-.3 2-1.4 0-.6 3.3 1.3 5.2 1 1 1.5 2.3 1.2 2.8-.3.5-.1 1.1.4 1.4.6.4.9-.9.8-2.9-.1-2.3-.6-3.4-1.4-3-.8.2-1.3-.4-1.3-1.5 0-2.1 2-2.8 2-.8 0 .7.5.5 1.1-.5.8-1.3.7-2.2-.1-3.3-1.9-2.2-4.3-1.8-3.7.6zM218 490.4c0 2.4-.3 5.9-.6 7.7-.5 2.3-.3 3.1.4 2.4 1.2-1.3 2.3-14.5 1.1-14.5-.5 0-.9 2-.9 4.4zM209.4 500.2c.3 1.8.8 5.9 1.1 9 .4 3.2 1.1 5.8 1.7 5.8.6 0 .8-1.1.4-2.8-.7-2.7-1.2-7.2-1.5-12.5 0-1.5-.6-2.7-1.1-2.7-.7 0-.9 1.3-.6 3.2zM220.6 499.8c.1 1.3.6 2.7 1 3 .4.4.4-.1.1-1-.3-1-.2-2 .3-2.3 1.4-.9 1.2-2.2-.3-2.2-.9 0-1.3 1-1.1 2.5zM223.8 500.5c-1.4 4.3-1.9 9.5-.9 9.5 1.4 0 2.3-3.9 1.9-8.1-.3-2.7-.5-3-1-1.4zM205.3 502.5c.2 3.2 3.7 5.1 3.7 2.1 0-1.9-1.9-2.2-2.1-.4-.1.7-.5-.1-.9-1.7l-.9-3 .2 3z"/><path d="M207 501c0 .5.5 1 1.1 1 .5 0 .7-.5.4-1-.3-.6-.8-1-1.1-1-.2 0-.4.4-.4 1zM216.6 505.1c-.3 1.7-.6 4.2-.6 5.6 0 1.4-.4 2.1-1 1.8-1.7-1.1-1.1 1.1.8 2.8 2 1.8 5.2 2.3 5.2.8 0-.5-1-1.1-2.2-1.4-1.6-.5-1.9-.9-1-1.9.6-.8.7-1.9.2-2.8-.5-.8-.3-2.7.5-4.7 1.2-2.7 1.2-3.3.1-3.3-.8 0-1.6 1.4-2 3.1zM208.2 510c0 1.4.2 1.9.5 1.2.2-.6.2-1.8 0-2.5-.3-.6-.5-.1-.5 1.3zM224 513.1c0 .6-.7 6-1.6 12-1.6 10.9-1.5 13.9.6 13.9.7 0 .8-.6.2-1.7-.6-1-.6-2.9-.1-4.7.5-1.6 1.1-6.5 1.4-10.9.2-4.3.7-8.2 1-8.8.4-.5.1-.9-.4-.9-.6 0-1.1.5-1.1 1.1zM208.5 515c-.3.5-.1 1 .4 1 .6 0 1.1-.5 1.1-1 0-.6-.2-1-.4-1-.3 0-.8.4-1.1 1zM225.5 518c-.3.5-.1 1 .4 1 .6 0 1.1-.5 1.1-1 0-.6-.2-1-.4-1-.3 0-.8.4-1.1 1zM211 519c0 .5.5 1 1.1 1 .5 0 .7-.5.4-1-.3-.6-.8-1-1.1-1-.2 0-.4.4-.4 1zM215.3 522.7c-1.4.5-1.8 2.4-.5 2.2.4-.1 1 0 1.5.1.9.3 2.5.7 3.4.9.4 0-.1.7-1 1.4-1.3.9-2 3.5-2.6 10.2-.4 5-.5 9.4 0 9.9.9 1 1.6-2.9 2.2-12.1.3-3.4.9-6.8 1.3-7.5 1.3-2 1.5-5 .4-4.3-.6.4-1.6.2-2.3-.3-.7-.5-1.8-.7-2.4-.5zM212 527c0 .5.5 1 1.1 1 .5 0 .7-.5.4-1-.3-.6-.8-1-1.1-1-.2 0-.4.4-.4 1zM213.1 538c-.1.3-.4 2.3-.6 4.5-.3 3.4-.2 3.6.6 1.5.6-1.3.8-3.3.6-4.5-.2-1.1-.5-1.8-.6-1.5zM220.7 540.7c-.4.3-.7 1.8-.7 3.3 0 1.4-.4 3-1 3.6-.6.6-.3 1.4 1 2.2 1.6 1 1.8.9 1.4-.3-.4-.9-.1-2.2.6-3.1 1-1 1-1.8.2-2.6-.6-.6-.8-1.7-.5-2.4.5-1.5.1-1.8-1-.7zM212 548.2c0 1.2.7 1.8 2.3 1.7 1.5 0 1.7-.2.7-.6-.8-.3-1.8-1.1-2.2-1.7-.5-.7-.8-.4-.8.6zM147 463c0 .5.4 1 .9 1 .6 0 1.3-.5 1.6-1 .3-.6-.1-1-.9-1-.9 0-1.6.4-1.6 1zM151.3 463.7c-.7.2-1.3 1.6-1.3 3.1 0 1.4-1 3.7-2.2 5-1.3 1.4-1.7 2.2-.9 1.7 1.1-.6 1.3-.4.8.9-.4 1-.3 1.5.3 1.1 1.5-.9 1 12.8-.4 13.7-.8.5-.7.8.2.8.8 0 1.2 2.3 1.3 7.7.1 4.3.5 8.9.9 10.3 1 3.3 1.1 2.4 1-9.3-.1-7.4.2-9.7 1.2-9.7.8 0 .6-.5-.5-1.1-1.5-.9-1.6-2-1.1-8.1.4-4.8.3-6.9-.4-6.4-.6.3-1.4.1-1.7-.5-.4-.6.2-1.3 1.3-1.6 2.2-.5 3.6-2.9 2.6-4.4-.3-.6 0-1.6.6-2.4 1.2-1.5.6-1.8-1.7-.8zM156.4 464.5c.5 3.2 8.5 6 10.1 3.5.4-.6-.7-1-2.6-1-1.9 0-4.2-.9-5.5-2.1-1.9-1.8-2.2-1.9-2-.4zM162 464c0 .6.7 1 1.5 1s1.5-.2 1.5-.4-.7-.6-1.5-1c-.8-.3-1.5-.1-1.5.4z"/><path d="M167.4 464.1c-.3.6-.4 1.1-.3 1.2 4 2.1 4.4 2.7 4.4 6 0 2.2-.6 3.9-1.4 4.2-1 .4-1.2-.1-.7-2 .5-1.8.2-2.5-.9-2.5-.9 0-1.5.9-1.6 2.2 0 1.3-.2 3-.4 3.8-.2.8-1.3 7-2.4 13.7-1.2 6.8-2.6 13.4-3.1 14.9-1.3 3.2-1.3 5.4-.1 5.4.5 0 1.7-3.4 2.6-7.5 1.3-5.8 2-7.3 2.9-6.5.9.7 1.3.6 1.3-.5 0-.7-.5-1.3-1.1-1.2-1.4.3-1.4-.1.3-10.1.7-4.5 1.7-8.2 2.2-8.2.5 0 .6.7.3 1.5-.4.8-.2 1.5.4 1.5 1.3 0 2.9-5.1 3.5-11.5.5-4.9.5-5-2.3-5.2-1.6-.1-3.2.2-3.6.8zM156.5 469c.3.5.8 1 1.1 1 .2 0 .4-.5.4-1 0-.6-.5-1-1.1-1-.5 0-.7.4-.4 1z"/><path d="M168 468.4c0 .2.7.9 1.5 1.6 1.2 1 1.5 1 1.5-.4 0-.9-.7-1.6-1.5-1.6s-1.5.2-1.5.4zM162.2 471.4c1.3 1 1.5 1.5.6 2.4-1.8 1.8-4.3 1.4-6.3-.8-1-1.1-2.2-2-2.7-2-1.5 0-.9 1.9 1.3 4.1 1.9 1.9 2 2.8 1.4 11.7-.3 5.4-.8 10.8-1 12.2-1.6 9.8-1.7 11-.6 11 .6 0 1.1-.8 1.2-1.8 0-.9.3-2.6.5-3.7.3-1.1.7-4.7 1-8 .2-3.3.7-8 .9-10.5.2-2.5.4-5.7.4-7.3.1-2 .6-2.7 2.1-2.7 1.1 0 2 .4 2 1 0 .5-.4 1-.9 1-.4 0-.7 1-.7 2.2.1 1.3-.1 3-.5 3.9-.4.8-.3 2.2.2 3 .7 1.2.9 1.2 1-.1.2-1.9.4-2.6 1.4-7.5.5-2.2.8-4.3.7-4.8-.1-.4.3-.7 1-.7.6 0 .3-.9-.7-2s-2.3-2-2.9-2c-.6 0-.3.6.6 1.4z"/><path d="M152 477.9c0 .5.9.7 2 .4 1.1-.3 2-.7 2-.9 0-.2-.9-.4-2-.4s-2 .4-2 .9zM153.1 482.4c-.8 1.3-1.1 3-.8 3.8.3.8.6.6.7-.7.1-2 .1-2 1 0 .7 1.6.9 1.3.9-1.8.1-4.3-.1-4.5-1.8-1.3zM169.2 483c0 1.4.2 1.9.5 1.2.2-.6.2-1.8 0-2.5-.3-.6-.5-.1-.5 1.3zM168.2 488c0 1.4.2 1.9.5 1.2.2-.6.2-1.8 0-2.5-.3-.6-.5-.1-.5 1.3zM153 490c-.9.6-1 1-.3 1 .6 0 1.5-.5 1.8-1 .8-1.2.4-1.2-1.5 0zM159.9 490.7c-.8.9-.9 1.4-.2 1 .7-.4 1.3 0 1.6 1 .3 1 .4.6.4-1-.2-3.2-.1-3.2-1.8-1zM159.2 496.9c.1 1.8.4 3.4.8 3.6.8.5.3-5.5-.4-6.3-.3-.2-.4 1-.4 2.7zM159 503c0 .5.5 1 1.1 1 .5 0 .7-.5.4-1-.3-.6-.8-1-1.1-1-.2 0-.4.4-.4 1zM163.7 510.9c-.5 2.4-1.1 3.2-2.2 2.7-.8-.3-1.5-.1-1.5.4 0 1.7-1.7 1.1-4.9-1.6-3.4-2.8-4-2.2-1.5 1.5 1.3 1.8 2.4 2.2 4.9 1.9 2.4-.3 3.2 0 3 1.1-.1.8-.7 1.7-1.3 1.9-.7.2-1.2 1.4-1.2 2.7 0 3.3-1.7 4-4.1 1.9-1.7-1.6-2.2-1.6-2.9-.4-.6.8-.9 1.9-.9 2.5 0 .5.3.4.6-.3.3-.8.9-1 1.6-.4 2.6 2 5.5 2 6 0 .3-1.1 1-1.7 1.6-1.4 1.4.9 2.4-1.1 2.6-5.3.1-2 .5-4.4.9-5.3.4-.9.6-2.5.4-3.5-.3-1.2-.6-.6-1.1 1.6z"/><path d="M149.6 519.5c-.4 1.2-.1 1.6 1.1 1.3 1.8-.3 2.1-2 .5-2.6-.5-.1-1.2.4-1.6 1.3zM160.5 526.9c-.3 1.1-1.2 2-1.8 1.8-.7-.1-1.3 1.1-1.4 2.8-.1 1.6.1 2.2.4 1.2.4-1.4.8-1.5 1.8-.7 1.1.9 1.5.4 2.1-2.5.7-4 0-5.9-1.1-2.6zM150.6 528.7c-.4.9-.2 2.1.4 2.7.7.7 1 .2 1-1.7 0-3.1-.5-3.4-1.4-1zM154.3 531.5c0 2.2.2 3 .4 1.7.2-1.2.2-3 0-4-.3-.9-.5.1-.4 2.3zM158.9 534.2c-.1.2-.3 1.6-.5 3.2-.1 1.5-1.1 3.7-2 4.7-1 1.1-1.2 1.9-.6 1.9.7 0 1.2.5 1.2 1.1 0 .5-.4.7-1 .4-.5-.3-.7 0-.4.8.3.8.1 1.8-.5 2.2-.7.3-1.1-.2-1.1-1.4s-.4-2.1-1-2.1c-.5 0-.8 1.3-.7 3 .2 2.3.7 3 2.4 3s2.3-.9 3.2-4.8c.6-2.6 1.2-6.1 1.3-7.7.1-1.7.7-3.3 1.3-3.7.6-.5.6-.8-.2-.8-.7 0-1.4.1-1.4.2zM152.6 539.1c-.8 4.4-.8 5.5.3 4.3 1.2-1.3 2.2-7.4 1.2-7.4-.5 0-1.1 1.4-1.5 3.1zM149.8 538.7c.7.3 1.6.2 1.9-.1.4-.3-.2-.6-1.3-.5-1.1 0-1.4.3-.6.6zM150.1 545.6c0 1.1.3 1.4.6.6.3-.7.2-1.6-.1-1.9-.3-.4-.6.2-.5 1.3zM215 566.1c0 .7-1.1.9-3 .5-3.6-.7-4.1 1.1-.5 2 1.5.4 3.2.1 4-.6 1.7-1.4 2-3 .5-3-.5 0-1 .5-1 1.1zM212.7 556.1c.7.7 1.5 1 1.8.7.3-.3-.2-.9-1.2-1.2-1.4-.6-1.5-.5-.6.5zM151.5 559c2.8 1.2 3.7 1.2 3 0-.3-.6-1.6-1-2.8-.9-2.1 0-2.1.1-.2.9zM142 575c0 .5.5 1 1 1 .6 0 1 .8 1.1 1.7 0 1.5.2 1.5.8-.2.5-1.1.7-2.3.4-2.8-.6-1.1-3.3-.9-3.3.3zM228.3 577.2c.3 1.8.3 2.7 0 2-.8-1.9-2.3-1.4-2.3.9 0 1.4.5 1.9 1.7 1.7 2.3-.4 3.7-7.8 1.5-7.8-1.1 0-1.3.8-.9 3.2zM235.5 576.7c.4 1 1 2.6 1.2 3.6.4 1.2 1.1 1.6 2.4 1.2 1.5-.5 1.9-.1 1.9 1.7.1 2.2.1 2.2 1.5.4 2.2-2.9 1.9-4.5-.7-3.8-1.7.4-2 .2-1.5-1.1.4-1 .2-1.7-.3-1.7-.6 0-1 .8-1 1.7-.1 1.3-.5 1-1.6-1-1.6-3-3-3.7-1.9-1zM246 581c0 .5.5 1 1.1 1 .5 0 .7-.5.4-1-.3-.6-.8-1-1.1-1-.2 0-.4.4-.4 1zM247 583.5c0 1.8 1.9 4 2.6 3.2.4-.4 0-1.5-.9-2.4-.9-1-1.7-1.3-1.7-.8zM209 579c-1.3.8-1.2 1 .4 1 1 0 2.5.8 3.2 1.7.7 1 1.6 1.5 2 1.1.7-.8-2.3-4.8-3.5-4.8-.3 0-1.3.5-2.1 1zM208 582.1c0 .3.9.9 1.9 1.2 1.3.3 1.8 0 1.5-.7-.5-1.3-3.4-1.8-3.4-.5zM212.3 96.9c-1 1.5-.8 2.2.8 3.7 1 .9 2.2 1.4 2.6 1.1.3-.4.1-.7-.5-.7-.7 0-1.2-.4-1.2-1 0-.5.8-.7 1.8-.4 1.3.5 1.4.4.3-.4-.8-.6-2.1-.7-3-.4-1.4.5-1.4.4-.2-1.1.8-1 1.2-1.9 1-2.2-.3-.2-1 .4-1.6 1.4zM197 98.2c0 .4.4.8.9.8.6 0 1.2-.4 1.5-.8.3-.5-.1-.9-.9-.9s-1.5.4-1.5.9zM208 97.9c-.8.5-2.7 1.4-4.2 2.2-3 1.3-3.7 4.6-1.6 6.7.7.7 2.9 1.2 5 1.2 3.1 0 3.9-.4 4.4-2.4.3-1.3 0-3.5-.7-4.8-.7-1.2-1.2-2.6-1.1-3.1.2-.8.1-.8-1.8.2zm1.4 4.4c.9 1.5.7 2.1-.9 3.3-2.7 2-4.9 1.4-5.3-1.5-.6-4.1 4-5.4 6.2-1.8zM192.3 100.5c-1.3 3 .1 4.4 1.6 1.6.6-1.1 1.1-2.4 1.1-3 0-1.9-1.5-1.1-2.7 1.4zM223.2 100.1c.2.6.7 1 1.1 1 .4-.1 1.5-.1 2.5-.1 1.4 0 1.5-.2.2-1-2-1.3-4.3-1.3-3.8.1zM229 100.5c0 .8.4 1.5 1 1.5.5 0 .7-.7.4-1.5-.4-.8-.8-1.5-1-1.5-.2 0-.4.7-.4 1.5zM196.5 101c.3.5.8 1 1.1 1 .2 0 .4-.5.4-1 0-.6-.5-1-1.1-1-.5 0-.7.4-.4 1zM178.4 105.1c-1.4 1.5-1.6 2.4-.8 3.7 1.7 2.6 5.9 2.7 7.8.1 3.3-4.7-3-8.2-7-3.8zm5.5.2c1.5 1.9-.9 5-3.2 4.1-2-.7-2.2-2.5-.5-4.2 1.5-1.5 2.3-1.5 3.7.1zM197.3 106.2c-.2 1.6.1 1.8 1 .9.7-.7.8-1.4.1-2.1-.6-.6-1-.2-1.1 1.2zM189.6 106.7c-.6 1.4-.5 1.5.5.6.7-.7 1-1.5.7-1.8-.3-.3-.9.2-1.2 1.2zM215.2 106.6c1 1 2 1.6 2.2 1.3.3-.3-.5-1.1-1.7-1.8-2.1-1.3-2.1-1.2-.5.5zM221.5 106c-.3.5-.1 1 .4 1 .6 0 1.1-.5 1.1-1 0-.6-.2-1-.4-1-.3 0-.8.4-1.1 1zM165.5 108c-.4 1.2-.5 2.4-.2 2.7.3.2.8-.5 1.2-1.7.4-1.2.5-2.4.2-2.7-.3-.2-.8.5-1.2 1.7zM226.5 108c-1.5 1.7-1.6 2.4-.7 4.6 1.5 3.1 5.7 3 7.8-.2 2.7-4.1-3.7-8.1-7.1-4.4zm6.2 1.6c.3.8-.2 2.3-1.1 3.2-1.5 1.5-1.7 1.5-3.2 0-2.1-2.1-1.1-4.8 1.6-4.8 1.1 0 2.3.7 2.7 1.6zM194.2 110.1c.2.7 1 1.5 1.7 1.7.8.3 1.2-.1.9-.9-.2-.7-1-1.5-1.7-1.7-.8-.3-1.2.1-.9.9zM190.3 111.5c-.3.9-.3 1.9.1 2.2.3.4.6.1.6-.6s.4-1 .8-.7c.5.3.9-.1.9-.9 0-2-1.6-1.9-2.4 0zM201.3 111.4c0 .8.6 1.2 1.4.9.7-.3 1-.9.7-1.4-.8-1.4-2.1-1.1-2.1.5zM212.8 110.7c-1 .2-1.8.8-1.8 1.3s1.4.4 3.1-.2c2.5-.9 3.2-.7 4.4.8 1.4 1.8 1.4 1.8 1.5-.4 0-1.8-.5-2.2-2.7-2.1-1.6.1-3.6.3-4.5.6zM162.5 112c.3.5.8 1 1.1 1 .2 0 .4-.5.4-1 0-.6-.5-1-1.1-1-.5 0-.7.4-.4 1zM173.7 113.1c.7.7 1.5 1 1.8.7.3-.3-.2-.9-1.2-1.2-1.4-.6-1.5-.5-.6.5zM198 113.5c-1.1 1.3-1 1.4.4.9.9-.3 1.6-1 1.6-1.5 0-1.3-.6-1.1-2 .6zM161.7 114.1c.7.7 1.5 1 1.8.7.3-.3-.2-.9-1.2-1.2-1.4-.6-1.5-.5-.6.5zM165 115.3c-1.4 1.4-1.9 3-1.5 4.4.3 1.2 0 2.3-.7 2.5-.9.3-.9.6 0 1.2.7.4 1.2.3 1.2-.3s1.2-.8 3-.5c1.9.4 3 .2 3-.5 0-.6-.9-1.1-1.9-1.1-2.4 0-3.9-3.9-2-5.1 2.3-1.4 2.8-1.1 4.9 3.1 2.2 4.4 2.7 4.8 2.7 2.5 0-.8-.4-1.5-.9-1.5-.4 0-.7-.3-.7-.8.4-2.4-.4-4-2.6-5-2.1-1-2.8-.8-4.5 1.1zM186.5 114c-.3.5-.1 1 .4 1 .6 0 1.1-.5 1.1-1 0-.6-.2-1-.4-1-.3 0-.8.4-1.1 1zM160 116c0 .5.5 1 1.1 1 .5 0 .7-.5.4-1-.3-.6-.8-1-1.1-1-.2 0-.4.4-.4 1zM191 116.5c0 .8.2 1.5.4 1.5s.6-.7 1-1.5c.3-.8.1-1.5-.4-1.5-.6 0-1 .7-1 1.5zM176.5 118c-1 1.1-1.3 2-.7 2 .6 0 1.4-.5 1.7-1 .4-.6 1.1-.8 1.6-.5.5.4.9.2.9-.4 0-2-1.8-2-3.5-.1zM158.3 119.4c.5 1.5 2.4 1.8 2.4.3 0-.8-.6-1.4-1.4-1.4-.7 0-1.2.5-1 1.1zM224 120.3c0 1.4 4.3 1.7 5.6.4 1.7-1.7 3.5-.7 2.9 1.5-.7 2.2-.6 2.2 1 .6 1-.9 1.4-2.1 1.1-2.7-1-1.5-5.3-1.4-5.9.1-.4 1-.7 1-1.8 0-1.7-1.6-2.9-1.5-2.9.1zM239.8 121.7c-3.9 1.1-2.6 7.3 1.6 7.3 3 0 4.8-2.2 4.4-5.2-.3-2.3-2.5-3.1-6-2.1zm4.5 3.3c-.8 3-2.4 3.6-4 1.5-1.9-2.8-1.6-3.5 1.6-3.5 2.4 0 2.8.3 2.4 2zM162.1 126.4c-1 1.2-.8 1.3.8.9 1.2-.3 2.1-.9 2.1-1.4 0-1.4-1.6-1.1-2.9.5zM157.9 131.9c-1.9 1.5-2.1 2.3-1.3 4.9.9 2.9 1 3 4.4 1.8 2.4-.7 3.6-1.8 3.8-3.4.2-1.2-.1-2.2-.7-2.2s-.8-.7-.5-1.5c.9-2.2-2.8-1.9-5.7.4zm4.9 2.9c.5 3-2.6 4.2-4.5 1.6-.9-1.2-1-2-.3-2.2.5-.2.7-.8.4-1.4-.4-.6.4-.8 1.7-.6 1.6.2 2.5 1.1 2.7 2.6zM245 134c0 .7-.7.9-1.7.5-1.4-.5-1.5-.3-.6.5.7.8 1.7.9 2.8.2 1.2-.6 1.4-1.1.6-1.6-.6-.4-1.1-.2-1.1.4zM237.9 137.2c.4 2.8.6 2.9.9.9.2-1.3 0-2.7-.5-3.2-.6-.6-.7.3-.4 2.3zM243 140.1c0 .5.5.7 1 .4.6-.3 1-.8 1-1.1 0-.2-.4-.4-1-.4-.5 0-1 .5-1 1.1zM157.7 141.7c-1.3 1.2-.7 2.5.6 1.4.8-.6 1.7-.8 2-.4.4.3.7.1.7-.5 0-1.3-2.2-1.6-3.3-.5zM239 141.7c-1.9.8-3 2.5-2.3 3.6.3.5 1.2-.1 2-1.3 1.2-1.7 1.8-1.9 2.9-.9 2 1.6 1.7 4-.5 4.6-1.1.3-2.2 1.1-2.5 1.8-.5 1.5 1.8 1 4.2-.8 1.7-1.4 1.5-6.4-.4-7.1-.9-.3-1.6-.6-1.7-.5-.1 0-.9.3-1.7.6zM158 146c0 .5.4 1 .9 1s.7 1.5.5 3.2c-.3 3-.3 3.1.6.9 1.1-2.6.5-6.1-1.1-6.1-.5 0-.9.4-.9 1zM162.3 149.5c0 .8.4 1.5.9 1.5.4 0 .8-.4.8-.9 0-.6-.4-1.2-.8-1.5-.5-.3-.9.1-.9.9zM235.3 149.7c-.3 1-.8 2.1-1 2.5-.2.5.2.8.9.8s1.3-1.1 1.3-2.5c0-2.9-.3-3.2-1.2-.8zM159.9 154.6c-.9 1.1-1 2-.2 3.2 1.2 2 5.3 2.9 5.3 1.2 0-.6-.4-.9-.9-.6-.4.3-1.7-.1-2.7-.9-1.8-1.3-1.8-1.4-.1-2 .9-.4 1.7-1.1 1.7-1.6 0-1.4-1.6-1-3.1.7zM164.8 153.7c.6.2 1.2 2.1 1.2 4 0 4.1 1.4 3.6 1.5-.5.1-2.7-1.1-4.2-3-4.1-.5 0-.4.3.3.6zM233 155.1c0 .4.7 1 1.6 1.3.8.3 1.3.2.9-.3-.3-.5.1-1.1.7-1.4.7-.3.3-.4-.9-.4-1.3.1-2.3.4-2.3.8zM236.5 157.9c-.3.5.2 1.6 1 2.4 2.6 2.7 1.4 6.7-2 6.7-1 0-1.3-3.5-.4-5.2.9-1.6.8-1.9-.3-1.6-.7.3-1.3 1.9-1.3 3.9 0 3.1.3 3.4 3.3 3.7 3.1.3 3.2.2 3.2-3.6 0-2.7-.5-4.2-1.6-4.6-.8-.3-1.2-1-.9-1.6.3-.5.4-1 .1-1-.3 0-.7.4-1.1.9zM168.2 168.6c-3.4 2.3-2.7 6.8 1 7.2 2.2.3 3-.2 4-2.3 1-2.2.9-2.9-.8-4.5-1.8-1.9-2.1-1.9-4.2-.4zm3.6 3.7c.3 2.1-.1 2.7-1.7 2.7-2.3 0-3.2-1.8-1.9-4.3 1.3-2.5 3.2-1.6 3.6 1.6zM175 177c0 .5.5 1 1 1 .6 0 1-.5 1-1 0-.6-.4-1-1-1-.5 0-1 .4-1 1z"/></svg>