<?xml version="1.0" standalone="no"?>
<!DOCTYPE svg PUBLIC "-//W3C//DTD SVG 20010904//EN"
 "http://www.w3.org/TR/2001/REC-SVG-20010904/DTD/svg10.dtd">
<svg version="1.0" xmlns="http://www.w3.org/2000/svg"
 width="450.000000pt" height="655.000000pt" viewBox="0 0 450.000000 655.000000"
 preserveAspectRatio="xMidYMid meet">
<metadata>
Created by potrace 1.10, written by Peter Selinger 2001-2011
</metadata>
<g transform="translate(0.000000,655.000000) scale(0.100000,-0.100000)"
fill="#000000" stroke="none">
<path d="M1920 5625 c-134 -22 -256 -79 -307 -143 -18 -23 -33 -44 -33 -48 0
-4 -7 -15 -15 -24 -9 -10 -18 -26 -20 -36 -3 -11 -13 -48 -23 -84 -31 -107 -8
-307 49 -420 29 -59 98 -145 107 -135 12 12 10 35 -3 35 -17 0 -58 86 -56 118
0 14 -3 21 -10 16 -11 -6 -9 -28 5 -69 4 -11 0 -7 -9 9 -9 15 -14 37 -12 48 3
10 -7 45 -23 77 -27 54 -31 101 -9 101 5 0 9 5 9 10 0 6 -9 10 -20 10 -18 0
-20 7 -20 85 0 47 4 85 8 85 5 0 8 10 8 22 -1 14 6 24 17 26 16 3 17 1 7 -18
-6 -11 -9 -26 -6 -33 2 -7 5 -3 5 8 1 17 3 18 12 5 8 -12 9 -9 4 9 -6 20 -4
23 10 17 13 -5 16 -2 11 10 -3 8 -6 17 -6 20 0 2 -6 1 -14 -2 -8 -3 -17 -1
-21 5 -7 13 15 81 27 81 4 0 8 6 8 14 0 7 11 25 25 40 13 14 21 26 18 26 -4 0
2 6 12 14 15 11 21 11 37 -3 10 -8 18 -21 18 -28 0 -7 5 -13 11 -13 6 0 8 7 5
16 -14 38 -17 62 -7 68 6 4 11 2 11 -3 0 -6 5 -11 11 -11 6 0 9 7 5 15 -6 17
9 21 19 5 9 -15 25 -12 19 4 -3 8 -1 17 5 21 6 3 11 2 11 -3 0 -5 17 -6 39 -2
25 4 44 3 51 -4 8 -8 9 -6 4 7 -5 13 -14 17 -31 14 -32 -6 -16 9 19 17 18 4
32 1 43 -11 16 -16 18 -16 32 3 12 16 26 19 107 19 107 -1 126 -10 126 -61 0
-28 -4 -34 -22 -34 -23 -1 -23 -1 2 -15 23 -12 26 -12 32 8 3 12 6 37 7 55 1
27 4 32 19 28 9 -3 30 -7 46 -10 38 -7 71 -36 54 -49 -9 -6 -5 -7 10 -4 24 6
65 -20 56 -35 -3 -4 2 -8 12 -8 13 0 15 -6 10 -32 -3 -17 -14 -40 -23 -50 -9
-10 -11 -18 -5 -18 6 0 18 12 25 26 17 32 24 24 49 -56 18 -56 25 -200 11
-214 -8 -8 -9 -13 -12 -73 -1 -24 -6 -33 -18 -33 -13 0 -14 -3 -5 -12 16 -16
15 -30 -9 -110 -13 -44 -24 -66 -31 -62 -7 4 -8 3 -4 -4 13 -21 -58 -145 -123
-214 -66 -71 -80 -78 -101 -52 -8 8 -30 23 -49 32 l-36 16 65 6 c80 8 89 12
117 53 25 38 31 68 38 202 3 55 8 125 10 155 4 55 37 162 58 190 11 13 10 13
-7 0 -18 -14 -19 -13 -13 3 4 11 3 16 -4 12 -6 -4 -13 2 -15 12 -7 27 -58 55
-99 55 -25 0 -36 5 -40 19 -4 10 -11 19 -16 19 -5 0 -9 9 -9 21 0 11 -4 17
-10 14 -5 -3 -26 -1 -46 4 -23 6 -43 7 -54 1 -11 -6 -21 -5 -28 2 -9 9 -12 9
-12 0 0 -7 -7 -12 -15 -12 -8 0 -20 -8 -26 -18 -9 -15 -22 -17 -73 -14 -61 4
-61 4 -93 -36 -19 -24 -43 -42 -61 -45 -68 -14 -103 -140 -67 -237 9 -25 22
-69 29 -98 8 -28 25 -70 39 -91 18 -28 23 -41 14 -44 -7 -3 -2 -6 10 -6 36 -2
37 -20 1 -35 -22 -10 -38 -11 -50 -5 -11 6 -18 6 -18 0 0 -5 6 -12 13 -14 7
-3 5 -6 -5 -6 -10 -1 -18 -5 -18 -10 0 -5 -12 -12 -27 -16 -72 -18 -283 -202
-354 -308 -21 -32 -39 -62 -39 -67 0 -5 -11 -29 -24 -52 -42 -77 -104 -248
-179 -493 -13 -43 -30 -125 -28 -140 0 -2 -6 -23 -14 -46 -8 -23 -15 -58 -15
-79 0 -20 -3 -40 -7 -44 -4 -3 -8 -14 -9 -24 -3 -14 -12 -65 -28 -147 -1 -5
-4 -14 -7 -20 -4 -5 -9 -22 -13 -37 -6 -26 -1 -32 24 -30 3 0 30 -8 60 -17 43
-14 55 -23 53 -37 -1 -11 -11 -66 -21 -124 -11 -58 -17 -107 -15 -110 3 -3 28
-9 56 -15 l51 -10 18 -74 c10 -41 36 -107 58 -148 l41 -74 -61 -192 c-94 -296
-112 -369 -113 -476 l-2 -95 35 -8 c51 -11 117 -20 180 -23 30 -1 65 -3 76 -4
20 -1 22 -8 27 -104 3 -56 13 -156 21 -222 15 -119 21 -399 10 -443 -6 -22
-44 -32 -44 -12 0 6 -7 10 -16 10 -13 0 -14 -6 -8 -32 10 -45 5 -138 -11 -201
-15 -58 -7 -84 28 -91 12 -3 68 -7 123 -9 123 -5 153 -19 274 -132 78 -74 104
-87 128 -63 18 18 14 79 -7 124 -23 47 -101 124 -191 188 -113 80 -105 68 -86
122 21 62 21 64 -10 64 -20 0 -24 4 -20 18 12 37 35 153 56 282 25 152 107
550 114 557 3 3 25 -4 49 -16 24 -11 53 -21 65 -21 11 0 44 -5 71 -11 l50 -11
-6 -126 c-5 -108 -2 -145 17 -242 13 -63 26 -117 29 -120 3 -3 6 -23 6 -45 1
-36 14 -214 18 -240 1 -5 -15 -9 -35 -9 -40 1 -47 -10 -28 -46 14 -26 20 -154
10 -215 -14 -90 5 -107 110 -93 30 4 87 8 127 9 68 2 76 -1 148 -41 41 -24 83
-51 93 -60 19 -17 87 -40 120 -40 35 0 52 25 42 63 -12 40 -89 113 -146 137
-23 10 -78 41 -122 68 -44 28 -90 53 -102 57 -15 5 -19 12 -15 23 11 28 24
106 19 114 -3 4 -18 6 -34 4 -24 -3 -28 0 -21 13 8 15 19 85 26 158 2 18 10
70 19 115 8 46 20 128 26 182 6 55 22 154 35 222 14 67 25 124 25 128 0 3 8 6
18 6 27 0 30 6 22 53 -5 23 -10 93 -13 154 -3 62 -8 116 -10 120 -8 13 -26
244 -32 408 -4 83 -10 197 -15 255 -11 123 -14 345 -6 359 4 6 19 3 39 -9 50
-29 163 -36 228 -15 102 34 160 84 179 154 22 82 22 145 1 246 -30 144 -37
164 -75 223 -31 48 -64 137 -55 146 6 6 112 -15 133 -26 12 -6 22 -6 29 1 6 6
8 11 4 11 -4 0 -1 13 8 30 8 16 15 31 14 32 -1 2 4 23 11 47 12 44 49 122 51
108 1 -4 2 -12 3 -18 2 -25 279 -114 384 -125 61 -6 75 -4 92 11 23 21 34 60
39 138 1 26 3 27 54 27 29 0 78 4 108 9 30 5 75 12 102 16 41 5 47 9 47 30 0
26 -42 47 -82 40 -59 -10 -508 -14 -508 -5 0 6 14 19 31 29 24 15 38 17 56 10
15 -6 31 -5 43 1 11 6 51 8 89 6 109 -7 173 21 140 60 -12 14 -37 16 -199 11
-176 -4 -189 -6 -275 -36 -81 -29 -98 -31 -169 -27 -43 3 -81 7 -83 10 -6 6
160 92 235 122 37 14 77 34 89 44 21 16 21 20 9 46 -8 16 -21 66 -29 111 l-14
83 41 -8 c52 -9 362 -8 398 1 18 5 29 16 32 30 3 12 10 50 17 84 13 71 4 65
157 99 76 17 94 32 71 60 -15 18 -33 16 -194 -16 -27 -5 -106 -16 -175 -25
-69 -8 -135 -18 -147 -21 -35 -10 -27 9 12 30 19 11 35 23 35 27 0 4 19 10 43
14 81 12 135 36 142 63 12 48 6 49 -180 10 -72 -15 -124 -42 -191 -98 -32 -28
-95 -75 -139 -105 -104 -72 -136 -96 -375 -283 -110 -86 -191 -135 -223 -135
-16 0 -56 19 -100 48 -39 27 -73 50 -75 51 -1 1 26 30 60 66 117 120 196 322
216 553 13 149 -21 290 -82 342 -14 13 -26 27 -26 32 0 12 -98 61 -123 61 -12
0 -42 6 -67 14 -56 16 -182 17 -280 1z m190 -238 c0 -2 -9 -22 -20 -45 -11
-22 -20 -46 -20 -52 0 -6 -4 -9 -9 -6 -4 3 -6 18 -3 32 3 19 1 25 -7 20 -22
-14 -9 -116 15 -116 10 0 14 13 14 40 0 45 35 124 50 115 6 -3 1 -19 -11 -34
-14 -20 -22 -45 -22 -79 -1 -28 -5 -49 -8 -46 -4 2 -9 -1 -11 -7 -2 -6 -13 -3
-28 9 -21 17 -24 28 -24 80 0 34 -4 58 -9 55 -10 -6 -4 -97 9 -128 7 -18 6
-18 -9 -6 -9 7 -17 24 -17 36 0 32 -10 56 -21 49 -5 -3 -9 3 -9 14 0 24 29 50
66 62 29 8 74 13 74 7z m55 -38 c4 -6 -2 -19 -14 -30 -20 -19 -26 -34 -34 -89
-3 -14 -5 -7 -6 18 -2 69 34 135 54 101z m-213 -15 c4 -3 5 -10 2 -17 -8 -22
24 -84 58 -111 26 -20 29 -26 14 -26 -26 0 -85 68 -92 108 -4 18 -10 30 -14
25 -16 -16 4 -67 41 -104 43 -43 28 -54 -19 -14 -29 24 -59 105 -47 126 4 5 1
9 -4 9 -15 0 -14 -55 3 -94 7 -18 26 -42 41 -54 30 -24 27 -37 -9 -44 -39 -8
-75 29 -90 92 -11 45 -14 49 -15 23 -1 -44 15 -84 45 -109 15 -12 22 -24 16
-28 -10 -6 -66 41 -68 58 0 6 -4 23 -9 39 -9 35 9 85 44 114 19 17 33 21 61
17 19 -3 38 -8 42 -10z m218 -41 c-12 -16 -20 -41 -20 -64 0 -22 -5 -39 -10
-39 -7 0 -9 15 -6 38 8 62 30 107 47 96 5 -3 0 -17 -11 -31z m133 -23 c31 -35
34 -50 10 -50 -17 -1 -17 -1 0 -11 20 -12 22 -37 2 -62 -13 -18 -14 -18 -25 2
-7 15 -8 37 -2 72 6 30 6 47 1 42 -5 -5 -12 -32 -16 -60 -5 -43 -8 -50 -24
-46 -11 3 -20 15 -20 29 -1 13 -2 30 -3 37 -1 6 5 22 12 35 8 12 12 25 9 28
-10 10 -37 -54 -37 -86 0 -18 -4 -29 -10 -25 -15 9 -12 63 6 93 l16 27 -21
-24 c-13 -14 -21 -37 -21 -58 0 -22 -4 -32 -11 -27 -16 10 -1 75 24 102 29 31
72 23 110 -18z m-518 -20 c-9 -30 11 -90 41 -122 22 -22 24 -28 11 -28 -24 0
-65 68 -72 123 -6 40 -5 47 10 47 12 0 15 -5 10 -20z m283 -11 c-3 -8 -7 -3
-11 10 -4 17 -3 21 5 13 5 -5 8 -16 6 -23z m-318 -23 c0 -48 31 -103 69 -122
12 -7 18 -15 13 -18 -40 -24 -121 103 -105 164 9 35 23 21 23 -24z m-35 -24
c-6 -6 22 -60 52 -101 24 -31 24 -32 4 -22 -40 22 -94 128 -65 128 8 0 12 -2
9 -5z m554 -66 c30 -16 32 -20 28 -63 -5 -68 -60 -96 -115 -57 -12 8 -22 12
-23 7 0 -4 -4 2 -9 14 -5 12 -7 45 -6 72 2 29 0 48 -5 45 -13 -8 -11 -85 5
-156 17 -76 27 -168 18 -168 -4 0 -13 9 -20 20 -10 16 -17 18 -31 11 -21 -12
-32 -5 -24 15 6 16 -13 19 -22 4 -11 -19 15 -40 41 -34 17 4 26 1 30 -10 3 -9
12 -16 19 -16 15 0 27 -37 15 -45 -5 -3 -20 -6 -34 -7 -20 -2 -26 -8 -26 -27
0 -24 1 -24 14 -5 12 15 17 17 27 7 19 -19 37 -16 49 8 9 16 8 23 -3 32 -9 8
-17 40 -21 92 -4 44 -9 94 -12 110 -5 25 -4 28 7 18 7 -7 22 -13 32 -13 16 0
17 -3 7 -15 -10 -12 -10 -15 4 -15 9 0 16 -4 16 -10 0 -15 17 -12 24 5 3 8 0
14 -6 12 -6 -1 -13 4 -15 11 -3 7 3 12 14 12 11 0 25 6 32 13 11 10 12 -9 6
-108 -7 -129 -27 -195 -63 -214 -31 -16 -136 -13 -184 5 -55 21 -108 78 -108
116 0 15 -4 28 -10 28 -27 0 5 -105 39 -129 14 -10 43 -24 64 -32 35 -12 37
-15 31 -44 -9 -45 -19 -50 -59 -27 -19 12 -46 22 -58 22 -28 -1 -137 17 -143
23 -2 2 3 20 11 40 14 33 14 37 0 37 -8 0 -15 -8 -15 -18 0 -10 -7 -27 -16
-38 -8 -10 -13 -14 -10 -7 4 6 -3 15 -15 18 -14 5 -19 13 -16 26 6 24 9 24
-48 -6 -66 -36 -135 -84 -135 -95 0 -6 -4 -10 -9 -10 -12 0 -101 -90 -101
-102 0 -5 -4 -7 -9 -3 -5 3 -13 0 -17 -6 -4 -8 -3 -9 4 -5 7 4 12 5 12 2 0 -9
-49 -55 -70 -66 -11 -6 -20 -16 -20 -23 0 -8 4 -7 10 3 5 8 12 11 17 7 9 -10
-18 -28 -30 -20 -5 3 -6 -5 -2 -18 4 -16 3 -20 -3 -11 -7 11 -10 11 -15 -3 -4
-9 -3 -13 3 -10 17 10 11 -7 -7 -22 -10 -8 -13 -12 -6 -9 7 4 9 -1 6 -13 -3
-11 -13 -21 -24 -24 -11 -3 -18 -13 -18 -24 1 -16 2 -16 6 0 2 9 9 17 15 17 5
0 8 -3 6 -8 -1 -4 -16 -41 -32 -82 -16 -41 -33 -79 -39 -85 -7 -7 -8 -4 -4 8
4 11 3 16 -4 11 -6 -3 -8 -17 -5 -30 6 -24 -11 -74 -26 -74 -5 0 -7 -8 -4 -18
8 -24 -38 -165 -49 -155 -5 5 -4 1 3 -8 16 -21 -2 -115 -24 -123 -8 -3 -14
-13 -14 -21 0 -9 5 -13 10 -10 6 4 8 11 5 16 -4 5 -1 9 4 9 13 0 13 -5 2 -50
-5 -19 -12 -53 -15 -75 -14 -114 -17 -122 -36 -110 -9 6 -9 10 1 16 11 7 10 9
-3 9 -22 0 -32 16 -23 38 5 14 7 14 15 2 8 -12 10 -10 10 8 0 13 4 20 10 17 6
-4 10 7 10 27 -1 30 -2 31 -14 15 -20 -25 -28 2 -10 34 7 13 13 35 14 49 0 37
83 339 124 450 40 112 132 300 147 300 5 0 13 8 16 18 7 19 144 157 187 187
15 11 44 33 64 49 32 25 122 71 175 89 20 7 22 -4 5 -22 -11 -10 -10 -12 2 -9
22 5 39 30 40 58 0 24 39 173 56 214 6 15 4 18 -8 13 -9 -3 -24 0 -33 6 -22
17 -7 57 32 82 54 37 189 89 204 79 5 -3 9 -1 9 5 0 11 115 -26 169 -53z
m-559 -5 c0 -5 12 -23 26 -40 19 -23 34 -31 57 -31 24 0 28 -3 17 -10 -12 -8
-12 -10 -1 -10 11 0 11 -3 1 -15 -23 -28 -110 1 -110 37 0 5 10 2 23 -6 31
-19 67 -29 67 -18 0 5 -12 12 -27 15 -16 3 -38 15 -50 27 -23 21 -31 60 -13
60 6 0 10 -4 10 -9z m1780 -39 c0 -21 -40 -42 -110 -58 -41 -10 -82 -26 -90
-35 -8 -9 -24 -18 -35 -20 -13 -3 -21 -14 -23 -29 -5 -50 -13 -71 -33 -91 -11
-11 -17 -24 -14 -30 10 -15 26 1 47 47 12 28 27 46 41 49 46 10 144 25 202 30
33 4 94 13 135 21 94 18 159 22 160 9 1 -5 -32 -16 -72 -23 -40 -7 -91 -18
-113 -24 -22 -7 -42 -12 -45 -13 -3 -1 -27 -5 -55 -9 -102 -15 -101 -15 -99
-44 1 -15 2 -28 4 -29 2 -3 3 -35 1 -80 l-1 -26 -142 6 c-79 3 -151 9 -161 12
-14 6 -17 18 -16 69 2 71 14 110 31 100 6 -4 9 -3 5 2 -7 12 10 32 58 70 55
43 90 59 166 78 81 20 98 20 105 1 4 -8 11 -15 16 -15 7 0 6 5 -1 13 -6 8 -8
17 -4 20 9 10 43 9 43 -1z m-1653 -89 c2 -6 -5 -14 -16 -18 -12 -3 -21 -11
-21 -16 0 -5 14 -2 31 6 34 18 48 15 25 -4 -8 -7 -12 -19 -9 -27 3 -8 0 -14
-6 -14 -6 0 -11 5 -11 11 0 5 -4 8 -9 5 -13 -8 -42 4 -35 15 4 8 -8 13 -27 11
-4 -1 -15 8 -24 18 -18 19 -17 20 22 14 26 -3 44 -1 48 6 8 13 27 9 32 -7z
m-62 -63 c22 -11 45 -20 52 -20 7 0 13 -4 13 -10 0 -14 -20 -12 -54 5 -39 20
-46 18 -17 -5 13 -11 32 -20 42 -20 13 0 19 -7 19 -22 0 -20 -1 -20 -18 -5
-10 10 -22 17 -27 17 -5 0 1 -9 13 -20 23 -22 29 -40 13 -40 -11 0 -65 87 -73
118 -4 12 -5 22 -4 22 1 0 19 -9 41 -20z m1775 -49 c0 -16 -11 -20 -62 -27
-85 -11 -82 -11 -86 9 -2 9 1 17 7 17 6 0 11 -6 11 -12 0 -9 3 -10 8 -2 6 9
73 29 110 33 6 0 12 -8 12 -18z m-498 -79 c-4 -39 -4 -69 0 -66 5 3 8 -7 8
-23 0 -50 4 -73 13 -73 4 0 6 -18 4 -40 -2 -21 0 -37 5 -34 4 3 8 2 8 -3 0 -4
3 -18 6 -30 5 -17 -1 -25 -25 -37 -35 -18 -33 -21 -36 59 0 28 -7 106 -15 174
l-13 124 24 18 c13 10 25 14 27 10 1 -4 -1 -40 -6 -79z m-58 -14 c4 -35 8 -70
8 -78 0 -8 4 -40 8 -70 5 -30 10 -82 12 -115 1 -49 -1 -61 -15 -63 -14 -3 -17
5 -16 55 0 32 -4 112 -10 178 -13 147 -13 155 -2 155 4 0 11 -28 15 -62z m546
42 c0 -17 -37 -30 -84 -30 -34 0 -46 4 -46 15 0 18 26 20 33 3 3 -8 6 -6 6 5
1 13 10 17 46 17 25 0 45 -4 45 -10z m-576 -143 c0 -63 4 -113 9 -110 4 2 7
-3 7 -11 0 -9 -4 -16 -10 -16 -5 0 -10 -5 -10 -11 0 -5 5 -7 10 -4 6 3 10 1
10 -4 0 -6 -4 -11 -9 -11 -6 0 -6 -12 0 -32 11 -41 11 -41 -1 -33 -5 3 -10 3
-10 -2 0 -4 -21 -20 -48 -34 -44 -25 -56 -27 -175 -27 -101 -1 -144 -5 -201
-22 -54 -16 -79 -20 -92 -12 -16 9 -13 12 20 26 92 38 152 47 291 41 137 -6
161 -3 148 18 -13 21 -11 57 4 57 7 0 13 5 13 11 0 5 -4 8 -10 4 -5 -3 -8 7
-7 25 1 16 4 30 8 30 3 0 6 18 7 40 2 23 7 52 12 66 6 14 10 31 10 38 0 14
-27 15 -48 2 -6 -4 -16 -4 -22 -1 -5 3 -10 2 -10 -4 0 -5 -14 -19 -30 -31 -26
-19 -33 -20 -48 -8 -15 11 -16 11 -4 -3 11 -15 9 -20 -14 -38 -15 -12 -34 -19
-41 -16 -8 2 -12 1 -9 -4 3 -5 -7 -14 -23 -21 -19 -7 -28 -17 -24 -26 3 -8 0
-14 -6 -14 -6 0 -11 6 -11 12 0 7 -7 2 -16 -10 -8 -12 -22 -22 -30 -22 -8 0
-14 -7 -14 -15 0 -8 4 -15 10 -15 18 0 85 51 92 71 4 10 13 19 19 19 8 0 8 -4
-1 -15 -34 -41 28 0 101 67 22 21 54 47 71 60 26 18 30 19 25 5 -3 -9 -2 -17
3 -17 12 0 -10 -52 -27 -63 -7 -4 -26 -20 -43 -35 -17 -16 -53 -36 -80 -46
-28 -10 -50 -23 -50 -28 0 -7 5 -6 14 1 8 6 27 13 44 14 16 1 28 5 26 8 -2 3
7 11 20 17 19 9 25 8 30 -4 3 -9 -8 -21 -32 -34 -25 -14 -29 -19 -12 -14 14 3
40 18 59 32 27 20 33 22 28 8 -4 -10 -7 -36 -7 -58 0 -36 -2 -39 -16 -27 -8 7
-25 13 -37 14 -12 1 -35 5 -51 10 -20 5 -27 5 -22 -3 3 -6 0 -13 -6 -16 -7 -3
-1 -4 15 -1 15 3 27 1 27 -3 0 -5 10 -8 23 -7 13 2 34 -4 48 -11 23 -14 22
-14 -17 -9 -23 4 -74 7 -113 7 -71 1 -72 1 -78 29 -3 16 -10 29 -15 29 -6 0
-8 -7 -4 -15 3 -8 2 -14 -2 -14 -22 4 -42 -2 -38 -10 3 -5 15 -7 25 -4 10 3
21 1 24 -4 3 -5 -4 -9 -16 -10 -12 -1 -32 -4 -44 -8 -15 -5 -23 -3 -23 4 0 6
-4 11 -10 11 -5 0 -6 -8 -3 -17 6 -16 5 -16 -11 -4 -17 14 -17 16 0 28 9 7 21
10 27 6 6 -3 7 -1 3 5 -5 8 1 12 15 12 18 0 19 2 9 15 -11 13 -14 14 -24 0
-18 -23 -129 -76 -139 -66 -5 5 -1 12 12 16 11 3 27 12 33 18 28 26 69 47 80
41 6 -4 8 -3 5 3 -4 6 30 39 76 74 45 35 93 74 107 86 14 13 28 23 32 23 3 0
13 6 20 13 43 42 153 116 161 108 5 -5 10 -61 11 -124z m567 81 c-6 -17 -19
-24 -50 -29 -33 -4 -41 -3 -36 9 3 7 5 17 5 22 0 8 26 14 72 19 14 1 16 -3 9
-21z m-93 -5 c-5 -25 -28 -28 -28 -4 0 12 6 21 16 21 9 0 14 -7 12 -17z
m-1256 -25 c-6 -6 -15 -8 -19 -4 -4 4 -1 11 7 16 19 12 27 3 12 -12z m-455
-79 c5 -16 8 -18 15 -7 8 10 9 10 5 -2 -2 -8 -12 -15 -23 -15 -69 0 -191 -120
-258 -253 -15 -29 -36 -62 -46 -72 -11 -11 -20 -23 -21 -27 -2 -23 -47 -102
-54 -95 -5 4 -5 2 -1 -5 4 -7 -1 -24 -10 -38 -9 -14 -13 -25 -10 -25 4 0 -1
-11 -10 -25 -9 -14 -13 -25 -9 -25 3 0 -1 -7 -9 -16 -9 -8 -16 -21 -16 -27 0
-7 4 -6 10 3 8 13 10 12 10 -2 0 -10 -9 -27 -20 -38 -20 -20 -27 -36 -12 -26
4 2 8 -4 9 -14 1 -11 -2 -22 -8 -25 -5 -4 -6 2 -2 12 4 13 3 15 -6 7 -6 -6
-12 -27 -13 -47 -1 -20 -5 -34 -11 -30 -5 3 -6 -4 -2 -17 5 -16 4 -20 -5 -15
-9 5 -10 1 -5 -15 4 -14 2 -25 -5 -30 -7 -4 -13 -22 -14 -39 0 -17 -5 -31 -10
-31 -4 0 -6 -9 -3 -20 3 -11 1 -20 -4 -20 -5 0 -7 -13 -5 -30 2 -16 0 -30 -4
-30 -4 0 -10 -9 -13 -20 -3 -12 0 -20 8 -20 7 0 15 -7 19 -15 3 -8 1 -15 -3
-15 -5 0 -11 6 -14 13 -7 18 -14 6 -21 -33 -3 -19 -13 -57 -21 -84 -8 -27 -15
-60 -15 -74 0 -20 3 -22 14 -13 20 17 25 4 22 -67 -1 -49 1 -61 12 -57 7 2 11
1 9 -3 -3 -4 1 -12 8 -18 9 -9 12 -6 13 17 0 16 -4 27 -9 24 -5 -4 -9 1 -9 10
0 9 5 13 11 9 7 -4 9 0 6 12 -20 74 -17 93 14 71 20 -15 33 -64 19 -72 -5 -3
-10 -11 -10 -16 0 -6 4 -7 10 -4 6 4 7 -11 3 -41 -4 -34 -3 -45 5 -40 7 4 12
14 12 22 0 8 4 14 9 14 9 0 6 48 -5 78 -7 23 6 33 23 17 20 -21 28 -12 13 15
-8 15 -18 20 -31 17 -10 -3 -19 -1 -19 4 0 12 -59 41 -70 34 -17 -11 -20 33
-5 90 18 72 25 80 22 27 -1 -23 -5 -42 -8 -42 -4 0 -9 -8 -12 -19 -6 -23 48
-60 56 -39 3 7 6 5 6 -6 1 -11 4 -16 8 -13 3 4 17 0 30 -8 18 -12 28 -13 41
-5 16 11 16 11 0 6 -19 -6 -36 13 -21 23 9 5 23 95 28 179 1 18 5 35 8 39 4 3
-1 12 -11 20 -15 13 -15 14 0 9 12 -3 20 4 27 26 12 34 2 64 -10 32 -7 -17 -8
-17 -8 4 -1 12 5 22 13 22 15 0 29 27 21 40 -3 5 -16 5 -28 1 -21 -8 -31 -35
-41 -106 -1 -11 -8 -37 -15 -58 -13 -38 -6 -101 9 -92 5 3 5 17 -1 32 -5 14
-8 26 -7 27 2 1 12 8 22 16 11 8 17 10 13 4 -3 -6 -9 -31 -12 -55 -8 -69 -16
-99 -26 -99 -11 0 -11 11 0 29 6 9 6 22 0 33 -16 31 -25 20 -25 -29 0 -39 -3
-48 -17 -47 -9 1 -17 -2 -17 -8 0 -5 -4 -7 -8 -4 -10 6 4 123 18 148 14 25 13
28 -10 28 -21 0 -27 15 -10 25 6 3 10 1 10 -4 0 -6 4 -11 10 -11 6 0 6 9 0 26
-10 26 -7 71 6 83 4 3 4 -11 0 -31 -4 -21 -4 -38 -1 -38 7 0 21 37 29 80 7 33
6 34 -9 15 -16 -19 -16 -19 -9 10 4 17 16 42 27 56 10 15 19 42 20 60 1 19 6
37 11 40 5 4 9 20 10 37 0 17 4 28 9 25 8 -5 9 5 9 57 -1 32 0 33 8 10 8 -25
8 -25 9 5 1 17 9 53 20 80 27 72 62 159 66 163 4 5 -5 -154 -11 -196 -3 -20
-9 -30 -16 -26 -7 4 -8 2 -4 -5 4 -6 3 -17 -3 -24 -5 -7 -12 -24 -14 -37 -3
-14 -10 -36 -15 -50 -6 -14 -17 -48 -26 -76 -8 -27 -18 -58 -22 -67 -4 -12 -1
-17 10 -17 9 0 16 8 16 19 0 36 11 53 26 40 11 -9 14 -7 14 10 0 12 -4 19 -10
16 -15 -9 -13 0 17 92 27 82 49 111 41 53 -3 -16 -1 -30 4 -30 4 0 8 -18 8
-39 0 -22 4 -41 9 -43 6 -1 12 -14 14 -28 3 -14 14 -50 25 -81 15 -42 17 -61
9 -75 -6 -10 -14 -38 -17 -60 -5 -33 -3 -44 11 -53 16 -10 17 -15 5 -48 -7
-21 -11 -53 -9 -72 3 -22 1 -31 -6 -26 -6 3 -11 -1 -11 -10 0 -9 9 -19 20 -22
11 -3 20 -13 20 -22 0 -16 -26 -106 -91 -321 -17 -58 -44 -148 -60 -200 -69
-233 -73 -245 -77 -222 -2 12 -7 22 -12 22 -9 0 -23 37 -23 62 0 10 -4 15 -8
12 -12 -7 -31 45 -24 64 3 9 1 18 -5 22 -14 9 -18 62 -5 67 6 2 18 -2 27 -9
19 -15 28 -47 13 -47 -5 0 -9 6 -7 14 1 7 -3 17 -9 21 -8 4 -9 3 -5 -4 4 -7 2
-12 -5 -12 -7 0 -2 -11 11 -25 16 -17 19 -25 9 -25 -12 0 -11 -2 1 -10 10 -6
11 -10 3 -10 -7 0 -13 -4 -13 -10 0 -5 6 -10 14 -10 17 0 27 34 21 78 -2 17 0
32 5 32 15 0 22 -19 22 -66 1 -24 5 -44 10 -44 8 0 12 31 8 59 -1 8 4 17 11
21 6 4 8 13 5 19 -4 6 -12 9 -17 5 -5 -3 -8 0 -7 7 2 8 -10 14 -31 16 -19 2
-44 9 -55 16 -12 7 -39 14 -61 16 -22 1 -41 6 -43 11 -2 6 -10 10 -18 10 -17
0 -11 83 12 168 13 48 17 52 37 46 12 -3 24 -8 25 -9 7 -6 -11 -205 -18 -205
-4 0 -12 12 -18 26 -7 14 -8 23 -2 19 6 -4 10 9 10 32 0 21 3 55 7 77 5 31 3
38 -8 34 -8 -3 -13 -13 -11 -23 2 -10 -1 -14 -7 -10 -8 4 -8 -2 -1 -20 7 -19
7 -24 -2 -19 -8 5 -9 -2 -5 -24 3 -17 2 -32 -2 -34 -15 -5 -17 -43 -3 -40 7 1
15 -5 18 -13 9 -22 39 -18 52 8 11 22 11 22 11 1 1 -18 28 -42 36 -32 19 24
25 57 19 111 l-6 62 29 -30 c24 -26 28 -35 22 -67 -3 -21 -11 -44 -18 -51 -6
-8 -8 -17 -4 -20 3 -4 -2 -7 -13 -7 -15 0 -16 -2 -5 -9 19 -12 50 27 58 74 8
52 23 32 23 -31 0 -34 -4 -53 -10 -49 -5 3 -10 1 -10 -4 0 -14 13 -14 28 1 9
9 12 9 12 -3 0 -8 -5 -20 -11 -26 -7 -7 -7 -13 -1 -17 6 -3 13 8 17 26 3 18
11 58 17 88 6 30 17 70 25 89 13 28 13 35 2 42 -11 7 -11 9 1 9 9 0 16 10 18
25 1 14 9 39 17 55 9 17 12 30 8 30 -11 -1 -44 -27 -44 -34 0 -3 -2 -20 -6
-36 -6 -35 -23 -50 -24 -23 0 10 -2 35 -3 56 -1 29 4 43 19 55 26 22 23 72 -6
72 -10 0 -19 -7 -19 -15 0 -8 7 -15 15 -15 8 0 15 -7 15 -15 0 -24 -17 -16
-58 28 -19 20 -40 23 -23 3 9 -10 8 -15 -2 -19 -10 -4 -14 -25 -13 -75 1 -39
4 -74 9 -78 4 -4 7 2 7 14 0 12 6 22 13 23 6 0 8 2 2 5 -5 2 -8 27 -7 54 3 42
6 49 18 39 17 -14 18 -49 2 -49 -8 0 -9 -3 -3 -8 6 -4 12 -22 13 -39 3 -26 0
-33 -14 -33 -25 0 -2 -23 28 -27 28 -4 49 -23 26 -23 -19 0 -30 -24 -22 -45 9
-21 -5 -67 -17 -60 -7 5 -7 11 0 19 8 9 -5 27 -49 68 -33 30 -62 53 -65 50 -3
-3 -5 3 -5 13 0 10 -3 16 -6 13 -3 -3 -16 5 -29 18 -15 15 -36 24 -55 24 -16
0 -30 5 -30 10 0 6 -8 10 -18 10 -25 0 -127 37 -115 41 13 5 48 136 52 193 1
15 4 16 16 6 8 -7 12 -16 9 -21 -3 -5 -2 -9 3 -8 20 3 30 -2 30 -16 0 -11 -6
-13 -21 -9 -16 5 -18 3 -10 -6 7 -7 10 -36 8 -73 -3 -34 -1 -67 3 -74 8 -11
63 -27 63 -18 0 2 3 10 6 18 3 9 -3 16 -18 20 -22 6 -22 5 -4 -8 14 -11 16
-15 5 -15 -8 0 -19 4 -25 8 -17 11 -26 49 -14 57 5 3 10 20 9 38 -1 27 11 90
25 132 1 6 6 26 9 45 21 117 38 221 43 260 10 76 82 291 166 490 23 56 63 127
87 154 54 60 158 166 164 166 3 0 32 18 64 39 68 47 73 48 80 20z m366 -62
c-3 -5 -1 -7 5 -4 9 6 148 -72 161 -91 10 -13 65 -47 74 -44 4 1 7 -4 7 -12 0
-8 7 -17 16 -20 14 -5 15 -4 4 9 -17 21 -8 19 44 -10 25 -14 47 -21 50 -16 8
12 66 32 66 23 0 -12 -91 -52 -103 -45 -6 3 -7 1 -3 -6 4 -6 0 -14 -9 -17 -11
-4 -28 5 -49 25 -17 17 -37 31 -43 31 -6 0 -13 3 -15 8 -5 11 -88 75 -88 67 0
-4 -27 16 -61 44 -33 28 -64 51 -68 51 -4 0 -7 9 -8 21 -2 17 1 18 12 9 8 -7
12 -17 8 -23z m-323 9 c0 -8 7 -16 15 -20 8 -3 15 -1 15 3 0 5 -6 12 -12 14
-8 4 -7 6 4 6 24 1 49 -10 43 -19 -3 -5 -1 -11 5 -15 18 -11 10 -41 -15 -55
-14 -7 -23 -15 -20 -18 2 -3 11 1 20 8 18 15 19 7 3 -23 -13 -26 -47 -57 -61
-57 -5 0 -15 -7 -22 -16 -6 -9 -24 -16 -38 -16 -15 0 -27 -4 -27 -9 0 -5 -7
-9 -15 -9 -8 0 -15 -4 -15 -10 0 -23 90 0 124 32 11 10 24 18 29 18 9 0 56 52
74 84 7 12 12 38 13 59 0 35 1 36 20 25 30 -19 26 -71 -10 -135 -36 -64 -69
-99 -90 -95 -13 2 -13 2 0 -7 12 -8 7 -13 -25 -27 -40 -16 -40 -17 -15 -26 14
-5 38 -7 53 -4 15 3 26 2 23 -3 -8 -13 48 0 59 14 6 6 22 15 37 18 33 9 90 55
82 68 -3 5 -1 9 5 9 32 0 43 84 17 122 -18 26 -20 38 -6 38 6 0 10 -8 10 -17
0 -9 7 -25 16 -34 9 -10 18 -29 19 -41 1 -13 3 -26 4 -30 0 -5 11 -8 24 -8 12
0 31 -7 41 -15 17 -13 18 -15 3 -15 -9 0 -17 6 -17 13 0 6 -5 4 -11 -6 -6 -9
-14 -15 -18 -13 -4 3 -8 -8 -9 -25 -1 -34 -19 -94 -37 -124 -7 -11 -16 -33
-19 -48 -6 -24 -9 -27 -21 -17 -8 7 -15 9 -15 5 0 -4 -6 -3 -12 2 -7 6 -24 9
-38 8 -14 -1 -33 2 -44 7 -13 7 -17 7 -14 -3 4 -12 83 -41 91 -33 2 3 17 -2
33 -11 16 -8 37 -15 47 -15 9 0 17 -4 17 -10 0 -5 7 -7 15 -4 13 6 87 -7 205
-36 201 -48 259 -55 267 -31 3 9 14 25 25 37 21 24 49 122 37 130 -5 3 -14
-15 -21 -40 -7 -26 -15 -46 -19 -46 -3 0 -14 -18 -24 -40 -23 -51 -26 -51
-230 0 -88 22 -168 40 -177 40 -24 0 -23 24 1 58 11 15 22 45 26 66 3 22 10
45 16 52 6 8 7 14 0 18 -11 7 -16 1 -25 -36 -3 -16 -11 -28 -16 -28 -6 0 -6 9
0 26 12 31 12 34 1 34 -12 0 -36 -71 -40 -115 -1 -5 -6 -3 -11 5 -5 8 -10 11
-10 5 0 -5 4 -16 9 -24 7 -11 10 -11 17 0 5 8 9 20 11 28 2 17 21 36 28 29 10
-9 -51 -108 -66 -108 -5 0 -9 10 -10 23 0 15 -2 17 -6 7 -7 -18 -24 -30 -34
-24 -4 2 11 45 32 96 21 51 39 103 39 116 0 27 19 28 53 1 21 -16 30 -18 47
-9 11 6 24 9 29 6 4 -3 41 -10 82 -16 113 -16 119 -18 112 -36 -3 -9 -12 -13
-22 -9 -9 4 -25 8 -36 11 -11 2 -32 6 -47 10 -16 3 -28 2 -28 -3 0 -5 6 -10
13 -11 21 -2 107 -23 107 -27 0 -13 -14 -34 -20 -30 -4 3 -25 7 -46 11 -22 3
-52 12 -68 20 -16 8 -36 14 -45 14 -14 1 -14 2 1 14 20 14 14 26 -13 26 -13 0
-16 -7 -14 -26 1 -14 6 -29 11 -33 14 -11 75 -29 127 -36 40 -5 46 -9 36 -21
-8 -10 -25 -12 -68 -8 -31 4 -63 10 -72 15 -17 9 -44 -4 -36 -18 3 -5 36 -10
72 -11 76 -2 91 -8 75 -27 -8 -9 -24 -12 -48 -9 -20 3 -50 6 -67 7 -34 2 -57
27 -50 54 3 10 0 8 -7 -5 -9 -19 -9 -25 3 -33 10 -8 8 -9 -8 -4 -13 3 -23 2
-23 -3 0 -13 58 -33 65 -22 3 4 24 -1 47 -12 23 -11 51 -21 63 -23 12 -1 28
-6 36 -11 8 -5 19 -9 24 -9 6 0 29 -4 52 -9 48 -9 83 -1 83 18 0 8 7 19 15 26
8 7 15 21 15 31 0 11 6 19 13 19 9 0 9 2 -1 9 -11 6 -11 13 0 37 7 16 17 32
22 35 5 4 5 12 1 19 -6 9 -14 2 -26 -21 -10 -19 -18 -40 -19 -48 0 -8 -8 -20
-17 -28 -17 -14 -17 -14 0 -9 9 3 17 1 17 -4 0 -5 -8 -14 -17 -19 -11 -6 -13
-11 -5 -11 8 0 6 -8 -7 -22 -19 -20 -24 -21 -72 -10 -28 7 -61 12 -75 12 -31
0 -30 5 5 45 16 18 39 60 52 94 13 34 30 61 36 61 16 0 17 5 -7 -58 -22 -58
-46 -100 -70 -120 -13 -12 -13 -13 4 -7 11 3 23 0 29 -7 7 -10 8 -9 4 3 -3 8
1 26 9 40 7 13 13 18 14 11 0 -18 17 -6 30 21 11 21 11 21 -4 3 -9 -11 -18
-17 -21 -14 -9 8 19 55 31 51 16 -5 38 23 24 32 -5 3 -10 -1 -10 -9 0 -9 -4
-16 -10 -16 -12 0 -13 12 -1 43 8 19 15 23 35 20 29 -6 30 -7 16 -34 -6 -11
-8 -25 -4 -31 5 -7 12 1 19 23 9 26 18 35 40 37 34 4 54 -13 37 -30 -15 -15
-16 -48 -2 -48 6 0 10 9 10 20 0 36 20 57 51 52 16 -2 29 -8 29 -12 0 -5 10
-6 23 -3 l22 6 -23 -23 c-13 -12 -21 -25 -17 -28 3 -3 17 7 30 23 47 60 38 15
-30 -140 -12 -27 -32 -78 -45 -113 -21 -58 -25 -63 -47 -57 -21 5 -23 3 -18
-22 3 -16 8 -44 11 -63 3 -19 13 -43 21 -52 23 -25 2 -22 -51 7 -25 14 -54 25
-65 25 -11 0 -23 5 -26 10 -3 6 -19 10 -34 10 -16 0 -48 7 -72 16 -24 8 -71
18 -104 21 -82 7 -117 26 -111 60 6 30 17 43 23 25 3 -6 8 -10 13 -7 7 4 300
-29 341 -39 9 -2 21 -1 26 3 15 10 51 92 64 146 6 28 16 55 21 62 13 17 48
116 43 121 -9 9 -36 -21 -31 -34 6 -14 -41 -124 -52 -124 -4 0 -8 -17 -8 -38
-1 -21 -11 -57 -22 -79 -18 -35 -25 -40 -49 -36 -15 2 -70 8 -121 13 -51 5
-96 11 -100 14 -4 2 -36 7 -72 10 -36 4 -123 16 -195 28 -71 12 -151 21 -177
22 -27 1 -48 4 -48 8 0 11 -61 21 -71 11 -5 -5 16 -15 51 -25 33 -9 57 -11 54
-6 -4 6 1 8 12 4 11 -3 41 -10 67 -15 26 -5 50 -11 53 -14 3 -3 -1 -18 -9 -34
-8 -15 -21 -61 -27 -101 -8 -49 -15 -70 -23 -66 -8 5 -7 2 1 -7 16 -18 15 -32
-2 -26 -11 4 -13 1 -9 -11 4 -9 11 -20 16 -23 6 -4 5 -14 -2 -25 -7 -13 -10
-14 -11 -5 0 8 -3 11 -6 8 -4 -4 -1 -13 6 -22 8 -10 9 -15 1 -15 -6 0 -11 -8
-11 -17 0 -15 2 -16 10 -3 8 12 10 11 10 -7 0 -13 -5 -23 -11 -23 -6 0 -8 -7
-5 -16 3 -8 2 -12 -4 -9 -6 3 -10 1 -10 -4 0 -6 6 -11 13 -11 9 0 9 -2 0 -8
-6 -4 -12 -25 -13 -47 -3 -55 0 -63 11 -40 7 16 8 14 3 -10 -3 -16 -9 -31 -12
-32 -4 -2 -6 -43 -5 -93 1 -49 -1 -90 -6 -90 -11 0 -13 23 -11 105 1 78 -7 84
-15 9 -3 -27 -8 -67 -12 -89 -4 -22 -6 -46 -4 -52 1 -7 -6 -13 -16 -13 -10 0
-28 -3 -41 -6 -17 -5 -21 -3 -17 9 4 9 14 13 26 10 13 -4 19 0 19 11 0 11 -4
14 -12 9 -7 -4 -23 -6 -35 -5 -17 3 -20 -1 -16 -17 7 -27 -14 -28 -22 -2 -3
11 -16 23 -28 26 -12 4 -39 18 -59 32 -31 21 -38 32 -38 58 0 32 -23 55 -35
35 -4 -6 -1 -10 4 -10 6 0 11 -5 11 -11 0 -6 -7 -9 -15 -5 -8 3 -15 2 -15 -3
0 -5 9 -11 20 -14 12 -3 20 -14 20 -26 0 -12 4 -21 9 -21 11 0 9 -19 -3 -38
-5 -9 -2 -20 10 -30 17 -16 17 -16 5 1 -10 12 -11 20 -2 30 6 8 7 17 3 22 -4
4 0 6 8 3 8 -3 15 -13 15 -23 0 -15 8 -20 39 -22 21 -1 43 -9 50 -17 14 -19
67 -27 85 -12 12 9 12 8 1 -11 -8 -12 -17 -20 -21 -17 -4 2 -10 0 -14 -6 -9
-14 -26 -13 -22 2 1 6 -7 14 -18 16 -16 3 -18 1 -7 -9 18 -20 15 -28 -10 -22
-21 4 -21 3 -5 -7 28 -18 82 6 135 59 25 25 42 37 37 26 -4 -11 -9 -40 -11
-65 -4 -57 -10 -93 -24 -154 -6 -26 -11 -77 -12 -112 -1 -35 -4 -64 -5 -64 -4
0 -30 63 -31 74 0 5 -8 14 -17 19 -16 8 -14 12 11 33 16 13 23 23 17 24 -7 0
-13 -4 -13 -8 0 -16 -48 -11 -54 6 -3 9 -9 23 -12 31 -5 10 -2 12 8 9 42 -17
118 65 118 127 l0 26 -27 -19 c-16 -10 -43 -25 -60 -33 -39 -16 -45 -33 -7
-19 36 14 39 13 19 -10 -10 -11 -13 -20 -8 -20 10 0 25 24 27 44 1 5 11 15 24
24 23 15 23 15 16 -14 -8 -35 -62 -94 -86 -94 -9 0 -29 5 -45 12 -15 6 -32 12
-38 13 -5 0 -9 7 -7 15 3 10 -2 9 -17 -4 -11 -10 -17 -24 -13 -30 3 -6 7 -13
8 -16 0 -3 4 -13 9 -23 6 -14 10 -15 15 -6 5 7 2 18 -6 26 -17 18 -18 36 -2
31 20 -7 105 -135 129 -197 13 -31 27 -59 32 -62 8 -6 6 -52 -8 -164 -3 -27
-7 -70 -10 -95 -5 -62 -15 -91 -29 -83 -6 3 -6 0 2 -8 22 -24 13 -48 -28 -75
-37 -25 -125 -51 -115 -34 3 5 -3 11 -12 15 -10 3 -19 1 -21 -4 -2 -6 -8 -11
-13 -11 -6 0 -7 6 -2 13 13 21 12 36 -3 30 -8 -3 -11 -9 -8 -15 3 -5 -3 -4
-15 4 -12 7 -21 16 -21 21 0 4 5 5 10 2 18 -11 10 12 -10 30 -16 14 -17 20 -8
27 10 6 9 8 -2 8 -9 0 -21 -5 -27 -11 -12 -12 -6 -49 8 -49 5 0 9 -6 9 -14 0
-25 58 -65 105 -72 47 -7 99 10 139 45 17 15 18 14 11 -40 -12 -98 -20 -124
-37 -124 -8 0 -22 -5 -29 -11 -23 -18 -48 -24 -55 -13 -4 6 -10 6 -19 -1 -8
-7 -24 -9 -37 -4 -29 9 -69 39 -62 47 3 3 -4 10 -15 17 -12 6 -21 19 -21 30 0
23 -16 35 -23 18 -5 -16 18 -76 39 -99 8 -9 12 -24 8 -33 -9 -23 -27 -20 -19
4 4 11 2 20 -4 20 -6 0 -11 -5 -11 -11 0 -6 -8 -9 -18 -7 -16 5 -17 2 -8 -18
6 -12 13 -21 15 -18 2 2 11 -5 20 -15 15 -16 92 -61 106 -61 3 0 3 5 0 10 -7
12 -3 12 19 4 9 -3 13 -11 9 -18 -4 -7 -1 -7 9 1 8 7 17 11 20 8 2 -3 5 1 5 9
0 11 -12 14 -48 11 -29 -2 -51 1 -55 7 -5 7 -1 9 9 5 10 -3 17 -3 17 1 0 4 29
8 65 7 36 0 65 1 65 3 0 2 -7 10 -15 19 -12 11 -19 12 -29 4 -16 -13 -96 -12
-113 1 -7 5 -17 7 -23 3 -6 -3 -10 3 -10 15 0 17 4 20 18 14 43 -19 99 -16
149 9 l51 24 5 -23 c2 -13 1 -24 -3 -24 -4 0 -11 -20 -14 -45 -4 -25 -11 -45
-15 -45 -5 0 -6 -11 -4 -24 6 -29 -10 -41 -30 -22 -8 8 -24 12 -35 9 -27 -7
-111 22 -158 53 -34 24 -73 26 -59 4 13 -21 155 -79 197 -81 38 -2 88 -29 88
-48 0 -7 -182 -5 -270 4 -36 3 -85 14 -110 24 -73 30 -182 53 -194 41 -7 -7
-4 -10 7 -10 15 0 17 -7 12 -47 -6 -51 -17 -69 -35 -58 -14 9 -3 122 16 152 8
13 25 25 39 29 14 3 25 10 25 15 0 5 6 9 14 9 8 0 13 -9 12 -24 -1 -19 -4 -22
-18 -15 -17 9 -58 -7 -58 -22 0 -8 88 1 115 12 19 7 19 8 -2 8 -22 1 -34 21
-12 21 5 0 7 5 4 11 -7 10 -8 364 -2 489 3 67 33 180 48 180 5 0 6 6 4 13 -6
14 27 153 39 164 4 5 5 -3 2 -17 -7 -28 -14 -149 -20 -327 -3 -68 -8 -128 -13
-135 -4 -7 -8 -57 -9 -110 -1 -53 -4 -100 -7 -105 -10 -19 -6 -161 6 -202 12
-40 29 -48 21 -11 -13 61 -15 94 -5 80 9 -13 11 -13 11 2 0 9 -4 19 -9 22 -5
3 -9 27 -8 53 0 26 2 42 5 35 2 -7 12 -17 22 -22 16 -9 18 -5 22 35 2 28 -1
45 -8 45 -6 0 -10 -16 -9 -35 0 -19 -3 -35 -7 -35 -8 0 -12 31 -9 58 1 6 -3
12 -9 12 -7 0 -8 6 -2 18 5 9 9 33 8 52 -1 19 2 41 7 47 6 9 4 15 -6 19 -14 5
-14 9 -3 27 14 22 29 160 27 247 0 25 5 48 12 52 9 6 9 8 0 8 -17 0 -8 223 13
305 1 6 16 52 33 103 17 52 31 100 31 107 0 7 7 16 15 19 9 3 15 16 14 28 -5
61 0 78 26 78 15 0 38 12 52 26 22 22 42 28 126 40 106 15 116 12 117 -28 0
-14 -8 -18 -37 -18 -43 0 -39 -11 6 -12 34 -1 32 -18 -2 -18 -12 0 -28 -4 -36
-9 -15 -10 -53 17 -45 31 3 5 12 4 20 -3 10 -8 14 -8 14 -1 0 19 -38 33 -72
27 -18 -3 -33 -7 -35 -8 -1 -1 13 -19 30 -40 20 -24 42 -39 57 -40 14 0 28 -6
33 -12 5 -6 11 -4 17 7 6 9 17 15 25 12 9 -4 18 1 22 12 3 11 17 30 30 43 13
14 23 36 23 53 0 17 4 27 10 23 6 -3 10 -2 10 3 0 13 -12 22 -22 16 -5 -3 -37
-7 -71 -10 -34 -2 -87 -6 -117 -10 -30 -3 -70 -6 -88 -5 -29 1 -32 -1 -26 -23
5 -21 1 -25 -27 -31 -40 -9 -59 12 -59 66 0 63 16 85 72 97 27 7 58 12 68 12
10 0 22 5 26 11 6 11 -40 7 -101 -7 -37 -9 59 69 146 118 70 40 85 45 92 33
11 -20 5 -66 -8 -63 -5 2 -9 10 -7 18 2 12 0 11 -11 -2 -7 -9 -22 -17 -33 -16
-26 1 -114 -39 -114 -51 0 -7 8 -7 23 -2 48 20 63 25 77 27 29 4 85 7 95 4 19
-5 35 0 35 11 0 8 -4 8 -14 0 -10 -9 -15 -8 -20 4 -5 15 3 18 47 18 12 0 17 8
17 28 0 15 5 31 12 35 15 10 -19 34 -49 34 -51 0 -228 -100 -312 -175 l-39
-36 -7 31 c-8 37 12 103 30 96 14 -5 35 12 35 29 0 5 -7 1 -15 -9 -8 -11 -15
-15 -15 -9 0 23 165 145 237 174 54 22 56 22 69 4 8 -10 17 -15 21 -12 4 4 1
13 -5 19 -19 19 -14 30 9 17 14 -7 19 -17 16 -30 -7 -26 12 -24 22 3 5 13 10
17 15 10 4 -6 13 -9 21 -6 8 4 13 9 10 14 -2 4 5 17 16 28 11 12 15 22 9 22
-5 0 -10 7 -10 15 0 18 16 20 23 3 3 -8 6 -6 6 5 1 16 -8 19 -59 19 -53 0 -73
-3 -66 -9 4 -4 24 -6 45 -4 32 2 39 -1 44 -18 3 -13 0 -21 -8 -21 -7 0 -18 -7
-25 -15 -15 -18 -45 -21 -34 -3 10 16 -53 4 -109 -21 -25 -12 -52 -21 -59 -20
-7 0 10 11 37 24 54 26 52 31 -8 14 -26 -7 -41 -18 -47 -35 -6 -14 -17 -24
-30 -24 -11 0 -20 -7 -20 -16 0 -8 -4 -13 -9 -9 -6 3 -14 -3 -20 -12 -6 -10
-11 -15 -11 -11 0 4 -20 -14 -44 -40 -33 -35 -48 -44 -56 -36 -12 12 -28 65
-37 122 -3 17 -9 32 -13 32 -4 0 -7 14 -8 30 -1 25 3 30 23 30 13 0 27 4 30
10 4 6 -6 8 -24 6 -26 -3 -30 0 -34 28 -2 17 -5 87 -6 156 -1 121 0 124 17
101 25 -37 77 -82 125 -109 116 -66 165 -89 175 -83 7 4 -24 26 -74 52 -48 24
-95 48 -105 54 -10 5 -20 18 -23 28 -3 14 -10 17 -26 12 -19 -6 -20 -3 -15 27
4 23 2 29 -4 18 -5 -8 -7 -19 -5 -25 3 -5 -6 4 -20 20 -14 17 -26 38 -26 48 0
43 121 239 138 223 2 -3 -11 -25 -30 -48 -36 -45 -53 -78 -39 -78 4 0 13 10
20 23 24 45 38 67 54 84 8 10 15 23 14 28 -2 12 99 65 125 65 10 0 18 -6 18
-14z m1116 -31 c-15 -23 -45 -37 -31 -15 3 6 0 10 -7 10 -7 0 1 11 17 24 34
28 45 17 21 -19z m-1012 10 c-4 -8 -11 -12 -16 -9 -6 4 -5 10 3 15 19 12 19
11 13 -6z m146 -54 c33 -63 -40 -177 -128 -200 -104 -27 -101 -29 -45 25 66
65 109 138 107 186 l-1 37 28 -15 c16 -8 33 -23 39 -33z m62 41 c3 -8 125
-100 208 -156 30 -21 57 -40 60 -43 9 -9 -85 9 -94 18 -6 5 -18 9 -29 9 -11 0
-15 4 -11 12 4 7 3 8 -5 4 -13 -9 -53 2 -47 13 3 4 -8 12 -22 19 -25 10 -73
72 -57 72 4 0 -1 7 -9 16 -17 17 -21 44 -7 44 5 0 11 -3 13 -8z m138 -186 c0
-3 -4 -8 -10 -11 -5 -3 -10 -1 -10 4 0 6 5 11 10 11 6 0 10 -2 10 -4z m482
-19 c6 -9 8 -9 8 1 0 8 19 12 61 12 l62 0 -38 -25 c-34 -24 -43 -25 -123 -21
-48 2 -99 5 -114 5 -51 2 -29 19 35 28 95 13 101 13 109 0z m756 -12 c6 -2 12
-12 12 -21 0 -13 -14 -16 -97 -15 -196 3 -197 2 -257 -65 -39 -45 -45 -72 -7
-38 18 17 43 19 315 22 204 2 296 -1 296 -8 0 -16 -31 -25 -40 -11 -5 10 -9 9
-13 -2 -7 -18 -103 -27 -279 -28 -70 0 -130 -4 -133 -10 -4 -5 26 -9 73 -9 71
0 80 -2 85 -20 7 -29 -6 -33 -79 -25 -86 9 -83 -9 4 -21 49 -7 67 -13 67 -24
0 -12 -11 -14 -50 -12 -27 2 -58 6 -67 8 -10 3 -18 1 -18 -4 0 -13 76 -31 102
-24 14 3 19 1 16 -9 -2 -7 -19 -17 -38 -22 -36 -9 -83 -1 -220 40 -139 42
-167 53 -194 78 -23 21 -24 27 -15 57 32 97 39 105 137 140 76 27 345 42 400
23z m37 -4 c3 -5 1 -12 -5 -16 -5 -3 -10 1 -10 9 0 18 6 21 15 7z m-588 -62
l32 2 -25 -68 c-14 -37 -43 -108 -63 -158 -21 -49 -42 -101 -46 -114 -5 -17
-10 -20 -18 -12 -6 6 -28 11 -49 11 -44 0 -46 6 -18 55 11 20 17 41 14 47 -4
7 -2 8 4 4 8 -5 12 1 12 16 0 14 6 33 14 43 8 11 12 25 9 32 -3 7 0 13 6 13 6
0 11 8 11 18 0 9 11 41 25 71 20 43 28 52 43 46 9 -4 31 -7 49 -6z m-828 -268
c9 -6 10 -11 2 -15 -6 -4 -11 -18 -11 -32 0 -14 -5 -34 -10 -44 -6 -12 -7 -21
0 -25 12 -7 11 -93 -1 -101 -5 -3 -9 -13 -8 -22 0 -14 2 -13 8 3 5 11 7 -19 5
-70 -3 -49 -5 -136 -5 -193 -1 -86 -4 -101 -15 -91 -19 16 -17 -1 3 -23 15
-17 15 -18 0 -18 -10 0 -17 -4 -17 -10 0 -16 301 -5 311 12 6 9 9 9 9 1 0 -9
21 -11 77 -9 46 3 86 0 98 -7 11 -6 23 -11 27 -12 3 0 10 -3 14 -7 16 -16 22
-7 11 17 -12 25 -27 34 -27 15 0 -5 -4 -10 -10 -10 -5 0 -7 7 -3 16 3 8 -4 28
-16 44 -23 31 -28 60 -10 60 6 0 8 -9 4 -20 -4 -13 -2 -20 5 -18 7 2 14 -5 15
-15 4 -22 13 -33 21 -25 3 4 -1 19 -9 35 -8 15 -22 62 -32 103 -22 98 -23 100
-33 100 -29 0 -63 -71 -37 -77 6 -2 10 5 10 14 0 27 21 25 34 -3 9 -20 9 -30
0 -40 -14 -17 -32 -18 -26 -1 2 6 10 11 16 9 13 -2 15 14 2 22 -5 3 -12 -1
-15 -10 -5 -12 -13 -14 -34 -10 -25 6 -25 6 7 -14 19 -12 43 -22 53 -23 17 -1
18 -2 3 -13 -11 -9 -15 -22 -12 -43 3 -17 1 -31 -4 -31 -5 0 -9 -6 -9 -14 0
-21 -71 -27 -92 -8 -15 13 -18 13 -19 1 0 -8 -4 -6 -9 6 -7 17 -9 17 -9 3 -1
-10 -7 -19 -13 -19 -7 -1 -22 -2 -33 -3 -11 -1 -33 -6 -49 -11 -19 -5 -36 -4
-48 4 -11 7 -18 7 -18 1 0 -5 -5 -10 -11 -10 -5 0 -8 4 -5 8 3 5 -16 8 -41 8
l-46 -1 1 105 c4 244 13 476 18 493 4 11 12 16 21 13 8 -3 28 -6 44 -6 26 0
29 -3 25 -27 -26 -164 -36 -227 -41 -281 -5 -46 -11 -62 -20 -58 -7 2 -16 -1
-18 -8 -4 -10 1 -12 14 -9 17 5 19 0 19 -40 0 -47 -16 -70 -31 -46 -7 11 -9
10 -9 -3 0 -10 5 -18 10 -18 6 0 10 -5 10 -11 0 -6 -7 -9 -15 -5 -11 4 -15 -1
-15 -19 0 -33 11 -31 35 8 32 50 50 42 50 -20 -1 -36 3 -53 12 -53 8 0 12 17
10 58 -2 52 0 57 19 58 20 2 21 -3 18 -67 -1 -38 1 -69 5 -69 10 0 21 59 21
109 0 33 1 33 35 28 23 -4 33 -2 29 4 -3 6 -40 9 -82 8 l-77 -2 3 129 c2 71 5
130 7 132 1 2 19 -4 38 -12 35 -14 36 -15 24 -48 -7 -18 -14 -35 -17 -38 -3
-3 -6 -30 -8 -60 -2 -35 -9 -59 -20 -67 -8 -7 -13 -16 -9 -19 4 -4 14 -1 24 7
11 9 14 10 9 2 -4 -8 -1 -13 9 -13 13 0 15 5 9 23 -11 30 -8 68 12 137 14 52
19 58 34 50 17 -9 18 -12 2 -42 -18 -36 -30 -157 -16 -159 5 0 19 -2 32 -3 26
-3 27 0 7 20 -13 14 -15 14 -15 -1 0 -9 -5 -13 -10 -10 -12 7 -6 51 16 133 10
37 19 52 32 52 33 0 41 -13 27 -40 -9 -15 -15 -19 -15 -10 0 11 -4 10 -12 -4
-9 -15 -8 -21 2 -24 7 -3 8 -7 3 -11 -17 -10 -26 -81 -11 -81 7 0 14 11 14 25
1 14 12 50 24 79 19 47 24 52 46 48 29 -5 29 -8 5 -48 -11 -18 -20 -49 -22
-70 -1 -22 -7 -45 -12 -51 -5 -7 -6 -13 -3 -13 16 0 33 27 38 61 9 54 35 109
52 109 8 0 26 -4 39 -9 24 -9 28 -20 42 -101 2 -14 8 -42 14 -63 5 -20 7 -46
4 -56 -3 -10 0 -22 6 -25 6 -4 11 -19 11 -33 0 -14 7 -40 16 -59 15 -31 15
-37 0 -69 -9 -19 -21 -35 -26 -35 -6 0 -10 -7 -10 -15 0 -9 9 -15 23 -14 21 0
21 1 2 9 -20 8 -18 11 8 14 6 0 19 22 28 49 18 53 29 52 29 -4 0 -32 -3 -37
-17 -32 -16 6 -16 5 -4 -10 12 -15 10 -18 -20 -29 -52 -19 -75 -17 -71 7 1 11
3 32 3 48 0 24 3 26 25 21 15 -4 24 -2 24 6 0 6 -5 8 -10 5 -6 -3 -13 0 -15 8
-8 19 -174 22 -325 6 -155 -16 -179 -15 -223 11 -54 32 -60 48 -48 138 5 42
12 120 16 172 11 167 48 360 70 360 5 0 16 -4 24 -9z m216 -121 c50 -10 128
-30 174 -44 47 -14 92 -26 100 -26 8 0 34 -9 57 -21 l42 -20 -3 -100 c-3 -124
6 -205 24 -201 7 1 15 -7 18 -18 6 -24 23 -27 23 -4 0 20 16 9 23 -16 4 -17 1
-19 -17 -14 -14 3 -27 -1 -35 -10 -12 -14 -10 -16 16 -16 16 0 34 -5 41 -12 9
-9 11 -3 8 29 -3 30 -1 40 8 37 14 -5 19 -91 6 -99 -8 -5 -113 13 -146 25 -15
6 -23 20 -27 47 -4 21 -16 79 -27 128 -12 50 -21 102 -20 118 1 34 -41 62
-108 72 -26 3 -54 8 -62 10 -8 2 -33 7 -55 11 -75 14 -150 49 -150 70 0 12 6
18 15 15 8 -1 24 -4 35 -6 11 -2 35 -8 53 -13 18 -6 32 -7 32 -2 0 5 -15 14
-32 19 -26 7 -28 9 -10 10 12 1 30 -7 41 -18 21 -21 65 -37 131 -45 25 -4 58
-13 74 -21 18 -9 33 -12 40 -6 14 11 59 -5 51 -19 -4 -7 -13 -6 -26 1 -12 6
-23 9 -25 6 -2 -2 7 -30 20 -63 13 -32 21 -60 17 -62 -11 -4 0 -62 11 -62 6 0
8 7 4 15 -3 8 -2 23 1 33 6 14 8 13 14 -8 5 -15 6 1 5 40 -2 60 -4 65 -24 64
-12 -1 -19 3 -16 7 3 5 11 9 19 9 7 0 16 7 19 16 8 21 8 34 -1 32 -5 0 -25 6
-45 15 -42 19 -62 22 -53 7 3 -6 -1 -7 -9 -4 -9 3 -14 10 -11 14 3 4 -6 10
-19 12 -19 4 -23 1 -19 -11 4 -10 -2 -8 -16 7 -26 27 -33 28 -24 5 6 -17 5
-17 -14 0 -12 10 -34 20 -51 22 -16 2 -47 11 -67 19 -31 13 -41 14 -53 4 -13
-11 -15 -10 -9 5 3 9 2 17 -3 17 -6 0 -10 -4 -10 -10 0 -5 -9 -10 -20 -10 -13
0 -20 7 -20 20 0 24 -8 24 105 0z m-1028 -72 c-3 -8 -6 -5 -6 6 -1 11 2 17 5
13 3 -3 4 -12 1 -19z m619 -43 c11 -27 -2 -37 -14 -11 -7 16 -8 26 -1 26 5 0
12 -7 15 -15z m-28 -33 c3 -34 -12 -45 -21 -14 -2 9 -8 25 -12 36 -6 14 -4 17
11 14 13 -2 20 -13 22 -36z m858 -15 c13 -7 55 -127 53 -151 -1 -6 -7 7 -13
28 -7 22 -18 42 -24 44 -7 2 -3 -17 9 -47 12 -28 26 -48 31 -45 5 3 6 -7 4
-22 -3 -15 -1 -35 4 -44 8 -15 6 -16 -18 -10 -66 18 -70 21 -75 63 -5 37 -2
224 4 237 1 3 4 -6 6 -20 3 -14 11 -29 19 -33z m-1366 19 c0 -2 -9 -6 -20 -9
-11 -3 -20 -1 -20 4 0 5 9 9 20 9 11 0 20 -2 20 -4z m-20 -81 c0 -12 -19 -12
-23 0 -4 9 -1 12 9 8 7 -3 14 -7 14 -8z m-30 -65 c-8 -5 -17 -7 -19 -4 -3 3 1
9 9 14 8 5 17 7 19 4 3 -3 -1 -9 -9 -14z m657 -62 c-3 -7 -5 -2 -5 12 0 14 2
19 5 13 2 -7 2 -19 0 -25z m-897 -8 c0 -5 -4 -10 -10 -10 -5 0 -10 5 -10 10 0
6 5 10 10 10 6 0 10 -4 10 -10z m819 -77 c0 -25 -1 -26 -9 -8 -12 27 -12 35 0
35 6 0 10 -12 9 -27z m642 -50 c6 -17 4 -20 -12 -16 -10 3 -16 9 -13 14 3 5 0
9 -6 9 -6 0 -8 5 -5 11 10 15 27 6 36 -18z m-1241 2 c0 -8 -7 -15 -15 -15 -9
0 -12 6 -9 15 4 8 10 15 15 15 5 0 9 -7 9 -15z m440 -5 c0 -5 -2 -10 -4 -10
-3 0 -8 5 -11 10 -3 6 -1 10 4 10 6 0 11 -4 11 -10z m265 -48 c17 -14 21 -22
13 -35 -6 -11 -5 -17 1 -17 5 0 11 6 13 12 4 10 10 10 31 1 15 -7 27 -17 27
-23 0 -6 -5 -8 -11 -5 -7 5 -8 -5 -4 -29 4 -21 3 -36 -2 -36 -5 0 -10 -17 -11
-37 -1 -20 -7 -40 -13 -44 -8 -5 -8 -8 0 -14 12 -7 13 -175 1 -175 -3 0 -6 -9
-7 -20 -1 -11 3 -20 8 -20 6 0 8 -4 5 -8 -9 -15 -18 -75 -21 -147 -3 -65 -11
-131 -21 -180 -2 -11 -9 -49 -14 -83 -6 -35 -12 -68 -15 -72 -3 -5 -8 -35 -11
-67 -3 -32 -12 -96 -20 -143 -9 -47 -19 -110 -25 -140 -13 -80 -28 -150 -34
-160 -7 -11 22 -33 34 -26 5 4 13 2 16 -4 4 -6 16 -8 27 -4 14 4 18 2 14 -5
-4 -6 0 -11 8 -11 20 0 20 14 1 34 -8 8 -15 19 -15 25 0 6 -5 11 -10 11 -6 0
-10 -7 -8 -16 2 -10 -3 -19 -10 -21 -8 -3 -10 1 -5 12 5 15 3 16 -15 6 -27
-14 -37 -14 -25 2 9 11 48 172 56 227 3 24 4 23 19 -10 20 -46 48 -70 93 -80
41 -9 101 4 128 28 16 14 17 13 11 -19 -3 -19 -13 -57 -21 -86 l-14 -52 -32
11 c-18 6 -36 14 -42 18 -14 10 -82 20 -89 13 -3 -3 4 -23 14 -44 11 -21 20
-49 20 -63 0 -23 -3 -24 -37 -19 -21 3 -49 11 -63 16 -14 6 -31 11 -39 11 -8
1 -23 17 -34 36 -10 19 -23 39 -28 45 -15 15 -10 -18 6 -39 21 -27 20 -53 0
-36 -8 7 -15 18 -15 25 0 7 -12 29 -26 50 -20 31 -24 43 -15 59 21 44 52 219
66 371 4 39 11 84 16 100 5 17 13 75 19 130 5 55 17 168 26 250 8 83 16 172
16 198 1 26 5 50 10 53 4 3 8 31 9 62 0 31 4 80 8 107 10 76 21 21 16 -84 -18
-433 -39 -663 -70 -791 -13 -52 -33 -156 -45 -230 -12 -74 -24 -142 -27 -150
-16 -44 -7 -80 13 -49 4 7 12 1 20 -17 l13 -29 -6 35 c-4 19 -9 37 -13 40 -12
8 18 174 33 185 18 13 32 55 18 55 -5 0 -12 -8 -14 -17 -16 -62 10 100 28 177
23 93 41 218 36 253 -1 9 3 17 8 17 6 0 11 -6 11 -14 0 -8 3 -17 8 -19 4 -3 7
7 7 23 1 20 -3 26 -14 22 -11 -4 -13 4 -8 49 3 30 8 106 11 169 2 63 5 120 7
125 1 6 -1 21 -5 34 -5 15 -4 21 2 17 5 -3 12 1 16 9 3 8 0 17 -6 21 -7 4 -6
9 3 15 10 6 11 9 2 9 -7 0 -13 7 -13 16 0 8 5 12 10 9 6 -3 10 1 10 10 0 9 5
13 10 10 6 -3 10 1 10 9 0 19 -11 21 -27 5 -9 -9 -11 -1 -9 29 2 22 7 45 11
52 5 7 4 11 -1 8 -5 -3 -16 16 -25 43 -8 27 -14 49 -11 49 2 0 14 -8 27 -18z
m705 -20 c0 -10 -7 -27 -16 -38 -15 -18 -15 -18 -10 6 3 14 6 31 6 38 0 6 5
12 10 12 6 0 10 -8 10 -18z m41 6 c2 -20 2 -21 -5 -48 -7 -24 -6 -24 8 -6 9
11 16 28 16 38 0 10 4 18 9 18 22 0 19 -20 -11 -65 -61 -92 -225 -140 -317
-92 -19 9 -39 17 -44 17 -6 0 -19 7 -29 17 -14 13 -18 13 -18 2 0 -16 -43 32
-66 75 -16 28 -16 29 10 24 14 -3 23 -1 20 3 -3 5 6 9 20 9 17 0 26 -6 26 -16
0 -8 5 -12 10 -9 6 3 10 -1 10 -9 0 -9 -4 -16 -10 -16 -5 0 -10 -6 -10 -12 0
-16 39 -67 40 -52 0 5 -5 15 -12 22 -8 8 -8 15 1 26 6 7 10 26 7 41 -4 21 -1
26 12 23 10 -2 18 -14 20 -31 2 -15 7 -27 11 -27 5 0 7 -17 5 -37 -2 -25 0
-32 7 -23 12 20 11 62 -1 94 -8 22 -7 26 9 26 15 0 20 -9 23 -45 2 -25 -1 -50
-5 -54 -5 -5 -5 -11 0 -14 5 -3 14 3 21 14 7 10 9 19 4 19 -4 0 -6 18 -4 40 3
27 9 40 19 40 12 0 14 -11 11 -49 -4 -60 11 -76 67 -75 42 1 96 28 94 48 0 7
-2 6 -6 -1 -6 -16 -23 -17 -23 -3 0 6 11 16 25 22 16 7 27 22 31 45 6 32 23
46 25 21z m-510 -110 c-2 -51 -6 -95 -11 -98 -4 -3 -10 -12 -13 -20 -3 -8 -6
36 -5 98 0 97 2 112 17 112 14 0 16 -12 12 -92z m-118 -5 c-4 -85 13 -164 37
-171 9 -2 11 0 5 5 -13 11 -19 60 -20 163 0 83 0 85 25 88 l25 3 0 -113 c0
-110 1 -113 22 -116 33 -5 45 36 41 136 -2 45 -1 82 2 82 3 0 16 -24 29 -52
18 -41 22 -61 16 -97 -3 -25 -7 -54 -8 -63 -1 -10 -5 -18 -9 -18 -4 0 -8 -5
-8 -12 0 -7 -17 -29 -37 -50 -20 -21 -35 -40 -32 -42 3 -3 21 0 42 6 30 9 35
14 27 29 -7 11 -7 20 0 24 5 3 10 -2 10 -11 0 -29 12 -7 15 28 2 18 6 44 10
58 4 14 8 41 10 60 2 19 3 39 4 44 1 6 4 6 10 0 6 -5 5 -33 0 -68 -6 -33 -8
-83 -5 -113 5 -48 2 -55 -22 -78 -15 -14 -22 -25 -16 -25 5 0 16 6 23 13 10
10 11 7 6 -15 -4 -15 -8 -39 -9 -52 0 -13 -4 -22 -8 -19 -5 2 -8 0 -8 -5 0 -6
-16 -20 -36 -32 -34 -19 -40 -20 -72 -7 l-35 14 21 21 c12 12 22 28 22 35 -1
8 -5 7 -13 -4 -7 -9 -18 -14 -25 -12 -7 3 -10 -1 -6 -11 3 -9 2 -16 -3 -16
-10 0 -53 96 -53 118 0 6 -6 11 -12 10 -8 -2 -14 9 -14 27 -2 29 -2 29 3 2 7
-41 23 -22 23 26 0 27 -3 37 -9 29 -5 -9 -10 0 -15 29 -4 23 -3 45 2 48 5 3
12 38 16 76 7 60 12 102 15 113 1 2 5 1 9 -2 5 -3 7 -40 5 -83z m-882 -158 c5
-83 0 -127 -12 -119 -6 3 -9 15 -6 25 3 10 2 18 -2 17 -16 -2 -22 3 -14 15 4
6 6 41 4 77 -2 58 -1 63 12 50 9 -8 17 -37 18 -65z m854 -177 c7 -41 53 -128
68 -128 5 0 6 4 3 8 -3 5 1 9 8 9 8 0 12 -6 9 -14 -7 -18 22 -17 37 2 7 8 16
13 20 10 4 -2 18 7 30 20 32 34 40 31 29 -7 -5 -18 -9 -49 -9 -70 0 -27 -6
-42 -26 -57 -14 -11 -32 -17 -40 -14 -8 3 -14 0 -14 -6 0 -13 52 -11 63 4 5 6
7 1 4 -12 -3 -13 -1 -26 4 -29 15 -9 1 -22 -44 -46 -41 -21 -101 -33 -92 -18
2 4 -8 16 -23 27 -49 36 -58 95 -53 336 1 49 17 40 26 -15z m254 -65 c0 -32 3
-86 7 -121 5 -54 4 -61 -10 -56 -9 3 -16 1 -16 -5 0 -6 7 -11 16 -11 14 0 16
-10 12 -64 -2 -36 -1 -63 2 -61 4 2 -1 -48 -12 -113 -10 -64 -20 -137 -23
-161 -8 -74 -17 -111 -25 -106 -5 3 -6 -4 -3 -15 9 -34 -7 -110 -23 -110 -8 0
-14 9 -14 20 0 11 5 20 10 20 7 0 6 8 -2 23 -11 21 -12 20 -20 -18 -6 -28 -5
-41 3 -44 6 -2 18 -12 27 -22 9 -10 19 -16 23 -13 4 2 16 -6 26 -18 10 -13 27
-28 38 -34 28 -16 30 -34 3 -35 -23 -1 -23 -1 2 -8 18 -5 27 -3 31 8 4 10 8
11 12 4 12 -19 -3 -40 -29 -40 -13 0 -27 4 -30 8 -3 5 -10 6 -16 3 -7 -4 -8
-2 -4 4 4 7 1 12 -8 12 -8 0 -39 10 -69 21 -50 19 -55 24 -52 48 2 14 8 37 13
51 10 26 28 132 37 213 3 27 7 52 9 56 2 3 6 35 7 70 1 35 8 93 15 129 7 37
10 70 8 74 -10 16 8 98 20 91 7 -5 7 -2 -1 8 -13 16 -9 103 7 145 6 14 10 43
10 65 0 21 4 39 9 39 5 0 9 -26 10 -57z m-269 -275 c1 -18 62 -69 76 -64 9 3
26 6 38 6 23 0 66 33 66 51 0 5 -12 2 -27 -7 l-28 -16 25 20 c35 29 50 11 43
-50 -4 -34 -10 -48 -24 -51 -11 -3 -19 -10 -19 -16 0 -6 7 -8 16 -4 13 5 15
-1 11 -37 -4 -41 -25 -70 -51 -70 -30 0 -89 24 -115 46 -45 38 -89 171 -62
188 4 3 12 29 16 58 l7 53 14 -50 c7 -27 13 -53 14 -57z m-776 -100 c-4 -111
-5 -170 -1 -237 2 -27 -3 -35 -22 -42 -23 -9 -23 -9 -7 16 22 34 20 43 -4 15
-11 -13 -20 -31 -20 -42 0 -10 -4 -18 -10 -18 -5 0 -10 -9 -10 -19 0 -17 4
-15 30 10 27 28 50 32 50 9 0 -12 -69 -44 -95 -45 -15 0 -21 -8 -23 -32 -2
-17 -10 -37 -18 -43 -16 -14 -19 -35 -4 -25 7 4 8 -10 5 -40 -5 -35 -2 -47 10
-51 8 -3 15 -10 15 -15 0 -6 -10 -4 -22 2 -13 7 -25 13 -28 13 -3 1 -4 10 -3
21 1 11 3 40 3 65 1 46 34 199 50 228 5 10 21 55 36 102 14 47 30 94 35 105 4
11 13 46 20 78 7 31 13 57 15 57 1 0 0 -51 -2 -112z m721 -58 c-2 -11 1 -23 7
-26 7 -4 8 -2 4 4 -4 7 -2 12 4 12 6 0 8 -10 4 -24 -4 -18 2 -29 26 -50 43
-36 74 -42 132 -23 46 15 49 15 42 -1 -3 -9 -6 -27 -5 -40 1 -27 -15 -62 -29
-62 -5 0 -7 7 -4 15 5 11 2 13 -10 9 -9 -3 -16 -9 -16 -13 0 -4 -12 -8 -27 -9
-35 -3 -36 -5 -13 -25 16 -13 20 -14 20 -3 0 18 30 30 43 17 5 -5 16 -7 24 -4
13 5 12 0 -2 -28 -24 -48 -54 -69 -87 -62 -17 3 -28 1 -28 -6 0 -6 -7 -11 -15
-11 -9 0 -12 6 -9 15 4 8 17 15 31 15 29 0 80 28 88 48 10 26 -1 23 -35 -8
-22 -21 -39 -29 -56 -26 -13 3 -24 0 -24 -6 0 -6 -10 -8 -25 -4 -20 5 -23 3
-19 -11 5 -15 4 -15 -4 -3 -8 10 -7 19 1 29 9 12 9 13 0 7 -7 -4 -21 -2 -30 3
-17 10 -17 10 1 11 17 0 16 3 -8 34 -14 20 -22 37 -16 41 6 4 6 15 0 31 -6 14
-7 31 -3 36 3 6 8 41 9 77 2 36 6 77 10 91 l7 25 8 -28 c4 -16 6 -37 4 -47z
m364 -180 c20 -131 25 -266 12 -274 -9 -6 -7 -12 6 -22 10 -7 13 -14 8 -14 -6
0 -23 14 -39 31 -16 17 -40 38 -53 46 -12 8 -20 19 -17 25 3 5 13 3 23 -6 31
-28 34 -17 6 20 -28 37 -28 58 0 30 26 -26 28 -19 6 18 -29 46 -27 65 4 36 13
-12 22 -26 20 -31 -3 -4 0 -11 6 -15 8 -4 9 -3 5 4 -4 7 -3 12 2 12 5 0 9 6 9
14 0 8 -5 12 -11 10 -6 -2 -19 8 -28 23 -14 25 -14 36 -2 103 7 41 14 93 15
115 l1 40 8 -45 c5 -25 13 -79 19 -120z m-744 -38 c-3 -3 -11 0 -18 7 -9 10
-8 11 6 5 10 -3 15 -9 12 -12z m-363 -222 c-1 -27 -9 -48 -20 -56 -27 -21 -36
-16 -18 11 9 13 16 41 16 60 0 25 4 35 13 32 8 -2 11 -19 9 -47z m68 -1 c0
-17 -5 -40 -11 -51 -9 -17 -13 -18 -21 -7 -7 11 -8 9 -6 -6 3 -17 12 -21 61
-23 48 -3 56 -1 51 12 -4 11 -16 14 -41 11 -24 -3 -33 -1 -30 8 2 7 9 11 14
10 6 -1 8 13 6 32 l-3 34 37 -13 c34 -11 39 -18 43 -52 9 -66 4 -75 -44 -69
-22 3 -79 8 -126 11 -122 7 -120 6 -120 27 0 11 4 15 12 11 16 -10 79 -16 103
-10 20 5 25 22 28 89 1 11 9 17 24 17 19 0 23 -5 23 -31z m830 -49 c50 -16
150 -66 145 -72 -3 -3 8 -4 25 -2 16 2 30 -1 30 -6 0 -6 -4 -10 -9 -10 -5 0
-7 -9 -4 -19 3 -11 -4 -59 -15 -108 -12 -48 -24 -116 -28 -150 -4 -35 -10 -63
-14 -63 -15 0 -19 14 -8 27 8 11 7 12 -6 7 -20 -8 -20 -18 -1 -38 19 -18 19
-61 0 -151 -14 -65 -36 -237 -36 -277 0 -15 -9 -18 -52 -18 -75 0 -80 6 -85
100 -3 60 -1 81 7 76 6 -4 8 -12 5 -18 -4 -6 -1 -9 7 -6 23 8 17 43 -6 41 -17
-2 -20 5 -23 45 -2 26 -14 90 -28 142 -33 125 -42 219 -23 231 12 7 12 9 0 9
-11 0 -12 13 -6 68 11 89 11 192 1 220 l-9 23 54 -21 c30 -12 65 -25 79 -30z
m-477 29 c79 -1 107 -5 107 -14 0 -7 -7 -15 -15 -19 -8 -3 -15 -12 -15 -21 0
-8 -11 -61 -25 -118 -22 -94 -95 -464 -134 -685 -13 -75 -19 -91 -31 -86 -8 4
-34 11 -58 16 -42 10 -43 11 -36 41 4 18 7 74 7 125 0 51 4 95 8 98 5 3 4 14
-1 24 -6 11 -9 23 -8 27 2 10 -11 162 -18 201 -3 15 -9 45 -14 67 -5 22 -7 96
-4 165 3 69 5 139 5 157 l-2 32 63 -4 c35 -2 111 -5 171 -6z m390 -925 c10 -3
13 -18 11 -48 l-4 -43 57 -2 c32 0 65 -4 75 -7 20 -6 25 4 31 51 2 19 10 31
22 34 15 2 17 -1 11 -20 -4 -13 -9 -33 -10 -43 -1 -11 -22 -37 -46 -58 -36
-32 -49 -38 -89 -38 -55 0 -67 7 -67 40 0 14 -4 51 -8 83 -8 59 -7 61 17 51z
m156 -10 c10 -9 -22 -32 -39 -29 -10 2 -31 -1 -47 -6 -22 -7 -17 -8 29 -6 43
3 55 0 51 -10 -3 -9 -24 -13 -63 -13 l-58 0 4 33 c1 17 3 35 3 39 1 6 112 -1
120 -8z m-781 -36 c-3 -37 0 -43 17 -44 11 0 41 -4 67 -8 l46 -8 -34 -30 c-32
-29 -36 -30 -48 -13 -7 9 -27 18 -46 19 l-33 2 -1 62 c-1 54 1 62 17 62 16 0
18 -7 15 -42z m186 34 c7 -12 -16 -82 -27 -82 -5 0 -7 14 -3 31 3 17 6 38 6
45 0 15 16 19 24 6z m-97 -16 c3 -3 14 -6 24 -6 9 0 19 -7 22 -14 4 -11 1 -13
-11 -9 -15 6 -16 5 -2 -12 14 -17 13 -18 -25 -11 -22 4 -49 9 -60 10 -11 2
-19 6 -17 9 1 4 2 15 2 26 0 15 6 18 30 16 17 -1 33 -5 37 -9z m61 -133 c-31
-34 -42 -67 -30 -89 7 -13 11 -10 16 19 4 19 16 46 27 61 17 22 23 24 44 14
29 -13 31 -21 11 -37 -8 -7 -17 -30 -21 -52 -6 -36 -9 -38 -32 -33 -14 4 -66
8 -117 9 -50 1 -95 3 -99 4 -8 1 -2 62 9 103 4 15 9 15 49 2 51 -18 62 -37 34
-63 -13 -12 -17 -21 -10 -26 6 -3 11 -2 11 3 0 5 10 12 22 15 12 4 19 9 15 13
-10 11 33 81 57 92 35 16 43 -5 14 -35z m669 16 c8 -8 6 -20 -9 -45 -11 -19
-15 -34 -9 -34 6 0 15 8 20 18 26 44 25 44 107 -1 95 -51 118 -67 123 -87 12
-46 12 -61 2 -74 -10 -12 -20 -9 -64 20 -28 19 -60 37 -70 40 -10 3 -16 11
-14 17 5 15 -20 67 -34 67 -5 0 -3 -13 6 -30 8 -16 15 -31 15 -35 0 -3 -27 -5
-60 -5 -46 0 -62 4 -67 16 -3 8 -1 20 6 27 14 14 14 40 0 31 -8 -4 -9 0 -4 15
4 14 2 21 -6 21 -7 0 -2 11 11 25 26 28 31 30 47 14z m-526 -70 c12 -16 28
-29 35 -29 20 0 27 -19 14 -35 -8 -9 -9 -29 -5 -55 8 -46 1 -49 -38 -15 -22
20 -26 29 -18 43 6 11 6 24 0 33 -5 7 -9 25 -9 38 0 14 -8 33 -17 43 -15 16
-15 18 -1 13 9 -4 26 -20 39 -36z m339 22 c0 -6 16 -7 35 -4 31 5 35 4 29 -13
-5 -15 -3 -14 10 4 10 12 22 22 28 22 6 0 5 -7 -3 -17 -10 -11 -10 -14 -1 -9
9 5 12 -5 12 -43 l0 -50 -45 -7 c-69 -10 -95 0 -95 37 0 17 4 28 8 25 4 -2 6
11 4 30 -3 21 0 34 7 34 6 0 11 -4 11 -9z m-374 -38 c-4 -13 -2 -31 3 -41 5
-10 6 -24 2 -31 -7 -10 -13 -10 -32 1 -13 7 -25 14 -27 15 -2 1 2 12 9 25 14
24 16 30 18 53 1 9 7 12 17 8 11 -4 14 -13 10 -30z m125 -57 c-1 -4 10 -18 24
-32 27 -27 31 -39 14 -50 -7 -4 -9 -21 -5 -46 6 -37 5 -38 -14 -28 -12 6 -24
18 -27 26 -3 8 -12 14 -20 14 -13 0 -13 3 -3 15 8 10 10 29 7 52 -4 21 -2 42
5 50 10 13 21 12 19 -1z m733 -61 c10 -41 46 -63 46 -29 0 10 -6 14 -14 11
-14 -6 -32 21 -21 31 11 11 63 -51 67 -79 4 -25 1 -29 -19 -29 -20 0 -23 4
-18 20 4 11 2 20 -4 20 -6 0 -11 -7 -11 -15 0 -20 -6 -19 -46 6 -35 21 -41 33
-24 44 13 8 13 62 0 70 -6 4 -8 11 -4 16 8 13 39 -29 48 -66z m-655 -79 c15
-40 6 -62 -19 -46 -12 8 -12 12 -2 18 10 7 10 11 -3 22 -18 15 -20 53 -3 48 7
-3 19 -21 27 -42z"/>
<path d="M2067 5373 c-4 -3 -7 -11 -7 -17 0 -6 5 -5 12 2 6 6 9 14 7 17 -3 3
-9 2 -12 -2z"/>
<path d="M1845 5310 c-10 -15 3 -78 21 -106 10 -14 30 -32 45 -40 36 -18 45
-18 29 1 -7 8 -18 15 -24 15 -19 0 -55 63 -58 103 -2 40 -4 42 -13 27z"/>
<path d="M2260 5269 c0 -5 5 -7 10 -4 6 3 10 8 10 11 0 2 -4 4 -10 4 -5 0 -10
-5 -10 -11z"/>
<path d="M2247 5223 c-11 -10 -8 -53 3 -53 6 0 10 14 10 30 0 31 -2 35 -13 23z"/>
<path d="M2302 5175 c0 -16 2 -22 5 -12 2 9 2 23 0 30 -3 6 -5 -1 -5 -18z"/>
<path d="M2082 5112 c1 -23 5 -39 9 -36 10 6 6 60 -4 71 -4 3 -6 -12 -5 -35z"/>
<path d="M2057 5127 c-4 -11 -15 -17 -25 -15 -21 3 -92 -47 -92 -64 0 -6 7 -4
18 4 28 26 89 47 100 36 14 -14 20 2 12 32 -5 22 -7 23 -13 7z"/>
<path d="M2158 5116 c-3 -15 -1 -23 5 -19 18 11 66 5 89 -11 21 -15 20 -16
-35 -10 -38 4 -57 3 -57 -5 0 -5 7 -8 15 -5 10 4 15 0 15 -15 0 -32 30 -39 51
-13 9 12 23 21 31 19 7 -2 10 -2 5 0 -4 3 -5 8 -2 13 7 11 -37 56 -62 62 -12
3 -24 1 -27 -6 -3 -8 -7 -7 -14 2 -7 11 -11 8 -14 -12z"/>
<path d="M1860 5056 c0 -16 28 -42 36 -33 3 3 -4 15 -15 26 -14 14 -21 17 -21
7z"/>
<path d="M2008 5046 c-36 -19 -74 -46 -65 -46 4 0 24 9 45 20 l37 20 14 -20
c18 -27 40 -25 51 6 6 14 14 22 20 19 5 -3 10 -1 10 4 0 16 -81 13 -112 -3z"/>
<path d="M1915 4979 c3 -36 9 -43 28 -32 13 7 12 12 -8 35 l-23 26 3 -29z"/>
<path d="M1973 4979 c11 -6 44 -13 76 -16 45 -4 59 -2 70 11 13 16 12 16 -12
5 -21 -10 -39 -10 -78 -1 -62 15 -80 15 -56 1z"/>
<path d="M1983 4940 c5 -31 17 -36 17 -7 0 15 -4 27 -10 27 -5 0 -9 -9 -7 -20z"/>
<path d="M2069 4919 c-8 -17 -8 -20 2 -17 7 2 13 12 15 21 3 23 -3 21 -17 -4z"/>
<path d="M1916 4921 c-4 -7 -5 -15 -2 -18 9 -9 19 4 14 18 -4 11 -6 11 -12 0z"/>
<path d="M1962 4891 c-11 -6 -9 -9 6 -13 15 -4 19 -2 15 8 -6 16 -4 16 -21 5z"/>
<path d="M2225 4892 c-12 -9 -18 -32 -7 -32 16 0 30 16 24 27 -4 7 -12 9 -17
5z"/>
<path d="M2221 4783 c-1 -12 4 -25 9 -28 12 -7 12 2 0 30 -8 19 -9 19 -9 -2z"/>
<path d="M2020 4780 c0 -5 5 -10 11 -10 5 0 7 5 4 10 -3 6 -8 10 -11 10 -2 0
-4 -4 -4 -10z"/>
<path d="M1760 4720 c-8 -5 -12 -11 -9 -14 2 -3 11 -1 19 4 8 5 12 11 9 14 -2
3 -11 1 -19 -4z"/>
<path d="M1766 4683 c-6 -14 -5 -15 5 -6 7 7 10 15 7 18 -3 3 -9 -2 -12 -12z"/>
<path d="M1246 4194 c-8 -21 -8 -24 3 -24 5 0 11 9 14 20 6 24 -8 27 -17 4z"/>
<path d="M1220 4119 c0 -5 5 -7 10 -4 6 3 10 8 10 11 0 2 -4 4 -10 4 -5 0 -10
-5 -10 -11z"/>
<path d="M3176 4958 c-8 -32 -7 -38 5 -38 5 0 7 5 4 11 -4 5 1 19 11 30 15 16
15 19 2 19 -9 0 -18 -10 -22 -22z"/>
<path d="M3145 4900 c-3 -5 1 -10 10 -10 9 0 13 5 10 10 -3 6 -8 10 -10 10 -2
0 -7 -4 -10 -10z"/>
<path d="M3290 4821 c0 -6 4 -13 10 -16 6 -3 7 1 4 9 -7 18 -14 21 -14 7z"/>
<path d="M3020 4820 c0 -5 5 -10 11 -10 5 0 7 5 4 10 -3 6 -8 10 -11 10 -2 0
-4 -4 -4 -10z"/>
<path d="M3051 4614 c0 -11 3 -14 6 -6 3 7 2 16 -1 19 -3 4 -6 -2 -5 -13z"/>
<path d="M3055 4539 c-4 -6 -4 -13 -1 -16 3 -4 6 -1 6 6 0 7 5 9 12 5 7 -4 8
-3 4 4 -9 15 -13 15 -21 1z"/>
<path d="M2910 4750 c19 -13 30 -13 30 0 0 6 -10 10 -22 10 -19 0 -20 -2 -8
-10z"/>
<path d="M2830 4709 c0 -5 5 -7 10 -4 6 3 10 8 10 11 0 2 -4 4 -10 4 -5 0 -10
-5 -10 -11z"/>
<path d="M2848 4662 c-21 -14 -36 -27 -34 -29 5 -5 86 45 86 52 0 9 -15 3 -52
-23z"/>
<path d="M2930 4509 c0 -5 5 -7 10 -4 6 3 10 8 10 11 0 2 -4 4 -10 4 -5 0 -10
-5 -10 -11z"/>
<path d="M2660 4490 c0 -5 7 -10 15 -10 8 0 15 5 15 10 0 6 -7 10 -15 10 -8 0
-15 -4 -15 -10z"/>
<path d="M2718 4483 c7 -3 16 -2 19 1 4 3 -2 6 -13 5 -11 0 -14 -3 -6 -6z"/>
<path d="M2695 4460 c3 -5 8 -10 11 -10 2 0 4 5 4 10 0 6 -5 10 -11 10 -5 0
-7 -4 -4 -10z"/>
<path d="M1397 3950 c-3 -11 -2 -22 3 -25 4 -3 10 6 12 20 6 30 -7 34 -15 5z"/>
<path d="M1417 3876 c4 -17 3 -18 -6 -6 -8 12 -10 10 -9 -10 3 -44 -2 -81 -9
-77 -5 3 -9 -5 -9 -16 -1 -12 -9 -51 -18 -87 -27 -103 -34 -150 -24 -150 5 0
2 -7 -7 -16 -15 -15 -15 -18 1 -35 9 -10 21 -16 25 -13 5 3 6 -2 2 -11 -5 -13
-7 -14 -14 -3 -6 9 -9 4 -9 -14 0 -16 5 -28 11 -28 6 0 7 -5 2 -12 -4 -7 -6
-22 -4 -32 2 -15 -2 -18 -18 -13 -12 3 -23 2 -26 -3 -3 -4 6 -10 19 -12 29 -6
50 26 51 75 0 18 4 38 9 46 6 10 3 19 -10 28 -10 8 -17 20 -16 26 2 7 4 28 4
47 -1 49 51 246 67 260 3 3 7 21 9 41 2 25 -2 36 -11 36 -9 0 -13 -8 -10 -21z"/>
<path d="M1350 3805 c0 -8 5 -15 10 -15 6 0 10 7 10 15 0 8 -4 15 -10 15 -5 0
-10 -7 -10 -15z"/>
<path d="M1432 3793 c-5 -10 -17 -54 -27 -98 -9 -44 -21 -88 -26 -97 -6 -12
-6 -18 1 -18 10 0 9 -35 -2 -46 -8 -7 24 -42 34 -37 4 2 9 -6 13 -17 3 -11 14
-20 23 -20 11 0 5 11 -21 38 -21 21 -35 41 -32 43 2 3 7 22 9 42 3 21 7 41 9
45 3 4 8 32 11 63 4 31 11 71 16 88 10 34 6 41 -8 14z"/>
<path d="M1250 3769 c0 -5 5 -7 10 -4 6 3 10 8 10 11 0 2 -4 4 -10 4 -5 0 -10
-5 -10 -11z"/>
<path d="M1452 3648 c-15 -15 -16 -31 0 -26 6 2 12 12 14 21 3 20 2 21 -14 5z"/>
<path d="M1440 3596 c0 -9 5 -16 10 -16 6 0 10 4 10 9 0 6 -4 13 -10 16 -5 3
-10 -1 -10 -9z"/>
<path d="M1445 3560 c-3 -5 -2 -10 4 -10 5 0 13 5 16 10 3 6 2 10 -4 10 -5 0
-13 -4 -16 -10z"/>
<path d="M1451 3532 c0 -4 4 -16 8 -26 7 -19 8 -19 13 1 4 14 0 24 -8 27 -8 3
-14 2 -13 -2z"/>
<path d="M1399 3474 c0 -5 -2 -19 -3 -31 -1 -12 1 -20 6 -17 4 3 8 -7 7 -23
-1 -15 -1 -46 0 -68 2 -36 3 -38 12 -16 5 13 8 43 6 67 -3 35 -1 41 10 32 18
-14 16 -77 -3 -123 -8 -20 -13 -39 -10 -42 9 -10 33 22 29 38 -3 9 0 20 6 23
6 4 11 17 11 30 0 12 5 27 12 34 9 9 0 22 -35 58 -26 26 -47 43 -48 38z"/>
<path d="M1021 3294 c0 -11 3 -14 6 -6 3 7 2 16 -1 19 -3 4 -6 -2 -5 -13z"/>
<path d="M1041 3254 c0 -11 3 -14 6 -6 3 7 2 16 -1 19 -3 4 -6 -2 -5 -13z"/>
<path d="M1260 3195 c-8 -33 31 -95 59 -95 7 0 -1 11 -18 25 -16 14 -32 38
-34 53 -2 15 -5 23 -7 17z"/>
<path d="M1336 3095 c-3 -9 0 -15 9 -15 9 0 12 6 9 15 -4 8 -7 15 -9 15 -2 0
-5 -7 -9 -15z"/>
<path d="M1262 3025 c0 -16 2 -22 5 -12 2 9 2 23 0 30 -3 6 -5 -1 -5 -18z"/>
<path d="M1295 2760 c3 -5 8 -10 11 -10 2 0 4 5 4 10 0 6 -5 10 -11 10 -5 0
-7 -4 -4 -10z"/>
<path d="M1260 2733 c1 -13 30 -48 30 -36 0 6 3 18 6 27 4 12 0 16 -15 16 -12
0 -21 -3 -21 -7z"/>
<path d="M2385 4400 c-3 -5 -1 -10 4 -10 6 0 11 5 11 10 0 6 -2 10 -4 10 -3 0
-8 -4 -11 -10z"/>
<path d="M1704 4568 c8 -42 -31 -131 -54 -125 -18 5 -34 -10 -38 -35 -4 -25 8
-22 50 12 71 59 108 180 56 180 -18 0 -20 -4 -14 -32z"/>
<path d="M1795 4539 c-11 -17 1 -21 15 -4 8 9 8 15 2 15 -6 0 -14 -5 -17 -11z"/>
<path d="M1666 4523 c-6 -14 -5 -15 5 -6 7 7 10 15 7 18 -3 3 -9 -2 -12 -12z"/>
<path d="M1760 4505 c-7 -9 -11 -17 -9 -20 3 -2 10 5 17 15 14 24 10 26 -8 5z"/>
<path d="M1640 4482 c0 -12 4 -22 9 -22 10 0 9 26 -2 36 -4 4 -7 -2 -7 -14z"/>
<path d="M1769 4473 c-13 -16 -12 -17 4 -4 16 13 21 21 13 21 -2 0 -10 -8 -17
-17z"/>
<path d="M1727 4446 c-19 -29 -14 -35 10 -11 8 8 13 20 11 26 -2 7 -12 0 -21
-15z"/>
<path d="M1532 4403 c9 -2 18 -10 20 -18 4 -18 91 -88 149 -119 56 -31 181
-78 188 -71 7 7 -31 34 -49 35 -8 0 -32 9 -53 20 -20 11 -42 20 -48 20 -15 0
-96 57 -146 102 -24 21 -51 37 -60 37 -16 -1 -16 -2 -1 -6z"/>
<path d="M2064 4365 c4 -18 3 -25 -2 -17 -7 10 -13 8 -27 -8 -10 -11 -14 -20
-9 -20 17 0 -91 -67 -119 -74 -25 -6 -30 -26 -6 -26 6 0 8 4 4 9 -3 6 15 13
39 16 51 8 109 55 100 80 -4 8 -1 15 5 15 6 0 11 -8 12 -17 1 -10 6 -3 12 15
8 25 7 36 -3 45 -10 10 -11 6 -6 -18z"/>
<path d="M1498 4353 c-2 -10 -1 -29 3 -43 7 -26 11 -19 13 30 1 33 -9 41 -16
13z"/>
<path d="M1525 4351 c-5 -10 54 -61 70 -61 5 0 -6 11 -25 25 -19 14 -28 25
-21 25 7 0 9 5 6 10 -8 13 -22 13 -30 1z"/>
<path d="M2170 4350 c0 -5 5 -10 10 -10 6 0 10 5 10 10 0 6 -4 10 -10 10 -5 0
-10 -4 -10 -10z"/>
<path d="M1725 4320 c-3 -5 -1 -10 4 -10 6 0 11 5 11 10 0 6 -2 10 -4 10 -3 0
-8 -4 -11 -10z"/>
<path d="M2687 4293 c-4 -3 -7 -11 -7 -17 0 -6 5 -5 12 2 6 6 9 14 7 17 -3 3
-9 2 -12 -2z"/>
<path d="M1556 4281 c-10 -15 -15 -11 69 -46 39 -15 95 -39 125 -53 30 -13 69
-30 85 -37 17 -7 73 -21 125 -30 52 -9 105 -18 117 -22 13 -3 23 -1 23 5 0 6
-19 14 -42 18 -50 9 -48 9 -71 18 -9 5 -23 6 -31 3 -8 -3 -17 1 -20 10 -5 12
-15 14 -41 10 -26 -4 -49 2 -97 26 -35 17 -66 30 -71 29 -4 -1 -34 11 -67 28
-33 16 -66 30 -74 30 -8 0 -16 5 -18 12 -3 9 -6 9 -12 -1z m361 -137 c-3 -3
-12 -4 -19 -1 -8 3 -5 6 6 6 11 1 17 -2 13 -5z"/>
<path d="M2213 4271 c1 -12 7 -21 14 -21 17 0 16 15 -1 30 -12 9 -15 8 -13 -9z"/>
<path d="M2040 4251 c0 -7 -5 -9 -12 -5 -7 5 -8 3 -3 -6 6 -10 1 -12 -21 -7
-25 5 -30 2 -31 -14 -1 -13 2 -17 10 -12 7 4 18 8 26 10 19 2 46 31 38 39 -4
4 -7 2 -7 -5z"/>
<path d="M2670 4249 c0 -5 5 -7 10 -4 6 3 10 8 10 11 0 2 -4 4 -10 4 -5 0 -10
-5 -10 -11z"/>
<path d="M2537 4237 c-11 -29 -9 -43 4 -30 6 6 9 19 7 29 -3 18 -4 18 -11 1z"/>
<path d="M1925 4220 c-3 -5 1 -10 10 -10 9 0 13 5 10 10 -3 6 -8 10 -10 10 -2
0 -7 -4 -10 -10z"/>
<path d="M2748 4213 c7 -3 16 -2 19 1 4 3 -2 6 -13 5 -11 0 -14 -3 -6 -6z"/>
<path d="M1483 4203 c-7 -2 -13 -9 -13 -14 0 -6 8 -6 19 1 26 13 34 -8 12 -34
-15 -18 -15 -18 9 -11 14 4 32 14 40 23 8 9 11 14 6 10 -4 -4 -17 2 -29 13
-22 20 -24 21 -44 12z"/>
<path d="M1650 4192 c0 -11 40 -33 50 -27 4 3 11 -1 13 -7 3 -8 6 -6 6 5 1 10
-6 17 -18 17 -11 0 -23 5 -26 10 -7 12 -25 13 -25 2z"/>
<path d="M2707 4148 c-13 -29 -20 -54 -15 -56 4 -2 3 -13 -4 -25 -10 -20 -10
-21 6 -8 9 8 15 20 12 27 -3 7 0 14 5 16 6 2 11 10 12 18 2 8 6 21 10 28 5 6
5 17 2 22 -3 6 -1 10 4 10 6 0 11 5 11 10 0 26 -21 5 -43 -42z"/>
<path d="M1830 4186 c0 -2 7 -7 16 -10 8 -3 12 -2 9 4 -6 10 -25 14 -25 6z"/>
<path d="M2507 4159 c-20 -36 -13 -55 9 -25 12 17 20 56 12 56 -2 0 -11 -14
-21 -31z"/>
<path d="M1470 4145 c0 -14 5 -25 11 -25 6 0 9 -6 6 -12 -2 -7 0 -21 4 -30 6
-10 5 -19 -1 -23 -14 -8 -13 -35 1 -35 6 0 9 7 6 14 -4 11 -1 13 10 9 13 -5
15 -2 10 18 -4 13 -7 34 -7 47 0 12 -5 21 -12 20 -8 -2 -13 7 -12 20 0 12 -3
22 -8 22 -4 0 -8 -11 -8 -25z"/>
<path d="M1734 4158 c1 -7 20 -23 42 -35 42 -24 59 -29 49 -13 -3 6 1 7 9 4 9
-3 16 -1 16 5 0 6 -16 11 -36 11 -21 0 -33 4 -29 10 3 6 -5 10 -19 10 -13 0
-27 5 -29 10 -3 6 -4 5 -3 -2z"/>
<path d="M1573 4136 c2 -6 11 -12 21 -14 9 -2 28 -15 43 -28 14 -13 44 -29 65
-36 22 -6 45 -19 51 -28 7 -9 28 -17 47 -18 27 -2 32 0 20 9 -12 9 -11 10 8 6
12 -3 20 -1 16 4 -7 12 -44 12 -44 -1 0 -5 -7 -7 -15 -4 -8 4 -15 12 -15 20 0
7 -9 18 -20 24 -15 8 -20 8 -20 -1 0 -8 -4 -8 -15 1 -8 7 -12 16 -9 21 3 5 -2
9 -11 9 -12 0 -15 -5 -11 -16 6 -15 4 -15 -11 -3 -33 26 -42 37 -36 43 4 3 -6
6 -21 6 -15 0 -25 4 -22 8 3 5 -2 9 -10 9 -8 0 -13 -5 -11 -11z"/>
<path d="M1549 4136 c-3 -4 -4 -46 -2 -94 3 -76 -5 -167 -23 -252 -10 -47 13
-6 32 55 23 80 24 84 14 109 -5 13 -3 37 6 61 11 33 11 44 -1 70 -7 16 -15 36
-17 43 -2 7 -6 11 -9 8z"/>
<path d="M1860 4102 c0 -15 20 -19 78 -16 30 1 50 -1 47 -7 -4 -5 -1 -9 4 -9
6 0 11 6 11 14 0 10 -10 14 -29 14 -15 -1 -33 2 -40 6 -6 4 -11 1 -11 -6 0 -8
-3 -9 -8 -3 -9 13 -52 19 -52 7z"/>
<path d="M2114 4092 c4 -6 23 -14 44 -17 20 -4 73 -15 117 -26 84 -20 188 -36
268 -42 39 -3 50 0 58 15 6 11 8 22 5 25 -3 3 -1 14 5 24 6 12 6 19 0 19 -5 0
-15 -16 -21 -36 l-12 -37 -74 7 c-40 4 -95 13 -121 21 -26 8 -65 15 -85 15
-20 0 -39 4 -42 9 -3 4 -26 11 -51 14 -25 4 -57 10 -71 13 -19 5 -25 3 -20 -4z"/>
<path d="M2015 4080 c3 -5 8 -10 11 -10 2 0 4 5 4 10 0 6 -5 10 -11 10 -5 0
-7 -4 -4 -10z"/>
<path d="M2043 4074 c3 -4 17 -8 29 -10 13 -2 37 -6 53 -9 l30 -5 -30 15 c-29
14 -94 21 -82 9z"/>
<path d="M1602 4044 c-10 -11 -9 -15 5 -23 32 -16 93 -17 93 -1 0 5 -14 7 -30
5 -17 -2 -28 0 -25 5 10 16 -29 29 -43 14z"/>
<path d="M2160 4050 c0 -12 37 -14 44 -2 2 4 -6 9 -20 10 -13 1 -24 -3 -24 -8z"/>
<path d="M2665 4030 c-3 -5 -2 -10 4 -10 5 0 13 5 16 10 3 6 2 10 -4 10 -5 0
-13 -4 -16 -10z"/>
<path d="M1580 4010 c0 -14 29 -32 48 -28 15 2 12 6 -14 19 -19 9 -34 13 -34
9z"/>
<path d="M1720 4011 c0 -6 -5 -11 -12 -11 -20 0 -79 -51 -72 -62 4 -6 3 -8 -3
-5 -6 4 -13 -2 -16 -12 -3 -12 1 -22 11 -26 18 -7 32 12 24 33 -3 10 -1 13 6
8 6 -3 14 -2 17 4 4 6 2 9 -3 8 -6 -2 -9 2 -8 7 0 6 7 9 14 9 6 -1 12 2 12 6
0 4 11 11 25 14 26 7 32 20 15 31 -5 3 -10 1 -10 -4z"/>
<path d="M1815 4003 c-11 -3 -24 -10 -30 -15 -7 -8 -4 -9 8 -4 10 3 33 6 50 6
24 0 28 3 17 10 -8 5 -17 9 -20 9 -3 -1 -14 -3 -25 -6z"/>
<path d="M2656 4001 c-4 -7 -5 -15 -2 -18 9 -9 19 4 14 18 -4 11 -6 11 -12 0z"/>
<path d="M1576 3967 c2 -7 14 -13 25 -14 21 -2 21 -1 3 12 -24 18 -35 19 -28
2z"/>
<path d="M2227 3965 c4 -11 18 -15 47 -14 42 1 178 -22 251 -44 22 -6 46 -11
53 -12 8 0 20 -9 28 -20 9 -12 18 -15 24 -9 6 6 -3 23 -26 47 -34 36 -59 52
-34 22 18 -21 6 -30 -14 -10 -27 27 -71 35 -90 17 -15 -15 -16 -15 -16 0 0 9
-11 18 -25 20 -13 3 -22 1 -19 -3 3 -5 -12 -6 -33 -2 -21 3 -59 7 -86 7 -26 1
-47 4 -47 9 0 4 -4 7 -10 7 -5 0 -7 -7 -3 -15z"/>
<path d="M1500 3945 c-1 -16 -3 -38 -5 -47 -2 -9 2 -19 9 -21 8 -3 11 7 8 32
-5 55 -9 69 -12 36z"/>
<path d="M1705 3959 c-11 -16 -1 -19 13 -3 7 8 8 14 3 14 -5 0 -13 -5 -16 -11z"/>
<path d="M2607 3919 c7 -7 15 -10 18 -7 3 3 -2 9 -12 12 -14 6 -15 5 -6 -5z"/>
<path d="M1816 3895 c5 -11 -1 -15 -20 -15 -27 0 -33 -14 -17 -39 7 -11 14 -9
36 12 27 24 30 57 6 57 -6 0 -8 -7 -5 -15z"/>
<path d="M1955 3889 c-4 -6 -4 -13 -1 -16 3 -4 6 -1 6 6 0 7 5 9 10 6 6 -3 10
-1 10 4 0 14 -17 14 -25 0z"/>
<path d="M1851 3873 c0 -11 3 -13 6 -5 2 6 10 9 15 6 7 -4 8 -2 4 4 -11 18
-26 14 -25 -5z"/>
<path d="M1887 3864 c-3 -5 1 -18 9 -29 8 -10 14 -15 14 -9 0 5 7 0 15 -10 8
-11 15 -16 16 -10 0 5 2 20 4 34 2 14 1 19 -1 13 -8 -18 -25 -16 -39 4 -7 9
-14 12 -18 7z"/>
<path d="M1726 3845 c-8 -8 -19 -15 -25 -15 -6 0 -11 -5 -11 -10 0 -7 6 -7 19
0 25 13 31 13 31 -1 0 -5 -4 -8 -9 -5 -4 3 -16 -1 -27 -8 -10 -8 -24 -11 -31
-9 -8 3 -23 -3 -34 -13 l-21 -19 24 -6 c39 -10 135 57 124 87 -7 18 -21 18
-40 -1z m-51 -64 c3 -6 -3 -9 -14 -8 -11 0 -17 5 -15 9 7 11 22 10 29 -1z"/>
<path d="M1927 3771 c-4 -17 -3 -21 5 -13 5 5 8 16 6 23 -3 8 -7 3 -11 -10z"/>
<path d="M1587 3753 c-11 -10 -8 -25 3 -18 6 3 10 4 10 2 0 -3 -15 -14 -34
-25 -39 -23 -66 -62 -41 -58 8 1 21 8 28 16 10 10 9 11 -2 5 -10 -6 -12 -4 -7
4 4 6 13 11 19 9 16 -3 87 42 87 55 0 5 -9 2 -20 -8 -19 -17 -26 -12 -21 18 1
9 -13 9 -22 0z"/>
<path d="M1889 3684 c-10 -12 -8 -19 9 -36 25 -25 27 -24 35 17 5 25 2 31 -13
32 -10 1 -24 -5 -31 -13z m31 -4 c0 -5 -4 -10 -10 -10 -5 0 -10 5 -10 10 0 6
5 10 10 10 6 0 10 -4 10 -10z"/>
<path d="M1743 3643 c-72 -5 -67 -22 5 -21 88 1 85 2 79 -37 -3 -19 -2 -35 3
-35 12 0 24 46 15 59 -3 6 -1 11 5 11 17 0 23 -27 10 -50 -10 -18 -9 -21 2
-18 7 3 14 17 16 31 2 15 8 27 13 27 12 0 12 -37 -1 -45 -15 -9 -12 -22 6 -29
8 -3 13 -2 10 3 -3 5 1 26 10 47 9 22 13 36 10 33 -4 -4 -29 2 -57 12 -27 11
-55 18 -62 17 -6 -1 -36 -3 -64 -5z"/>
<path d="M1675 3589 c-16 -4 -41 -10 -55 -13 -37 -9 -71 -41 -64 -60 6 -15 8
-14 23 2 21 25 77 42 129 40 23 -1 45 2 49 5 3 4 12 2 20 -4 11 -9 13 -7 10
12 -2 13 -10 24 -18 24 -8 0 -13 -6 -11 -12 3 -17 -35 -17 -45 0 -6 10 -17 12
-38 6z"/>
<path d="M1560 3474 c0 -8 5 -12 10 -9 6 3 10 10 10 16 0 5 -4 9 -10 9 -5 0
-10 -7 -10 -16z"/>
<path d="M1530 3470 c0 -5 5 -10 11 -10 5 0 7 5 4 10 -3 6 -8 10 -11 10 -2 0
-4 -4 -4 -10z"/>
<path d="M1565 3390 c-3 -5 -2 -10 4 -10 5 0 13 5 16 10 3 6 2 10 -4 10 -5 0
-13 -4 -16 -10z"/>
<path d="M1596 3352 c-4 -8 -5 -38 -1 -68 9 -73 41 -111 100 -119 24 -4 49 -5
55 -3 12 4 -85 62 -105 63 -5 1 -9 6 -7 13 1 7 -2 12 -7 12 -4 0 -7 11 -6 25
2 14 -1 25 -5 25 -5 0 -10 15 -12 33 -2 22 -6 28 -12 19z"/>
<path d="M1511 3270 c-1 -14 -5 -34 -7 -45 -3 -11 -9 -84 -14 -162 -5 -78 -14
-168 -20 -200 -16 -81 -18 -115 -20 -310 -1 -113 -5 -173 -12 -173 -6 0 -8 9
-5 19 2 10 1 25 -4 32 -6 9 -9 2 -9 -22 0 -22 6 -39 13 -42 14 -5 14 -11 2
-137 -3 -30 -6 -85 -8 -121 -1 -37 -8 -73 -14 -81 -10 -11 -8 -14 7 -15 15 -1
20 7 24 50 7 63 14 168 21 342 11 271 16 361 20 390 2 17 4 45 4 63 1 38 21
35 21 -3 0 -13 5 -27 11 -31 6 -3 9 -17 6 -30 -2 -13 1 -25 7 -28 7 -3 7 -5
-1 -5 -20 -1 -15 -29 7 -48 11 -10 20 -29 20 -43 0 -14 4 -32 10 -40 6 -10 0
-23 -23 -45 -18 -17 -40 -36 -49 -41 -15 -8 -14 -10 7 -20 18 -9 22 -9 19 1
-5 13 53 81 62 72 7 -6 -7 -37 -17 -37 -4 0 -13 -9 -19 -19 -9 -18 -7 -19 45
-17 63 3 73 9 55 31 -7 8 -9 15 -6 15 4 0 1 7 -6 15 -22 24 -34 40 -35 45 -1
3 -6 18 -12 33 -6 16 -11 32 -11 37 0 5 -6 10 -12 13 -10 4 -10 7 -1 18 18 18
21 13 36 -56 6 -27 30 -75 38 -75 12 0 12 2 -6 42 -8 20 -16 47 -19 62 -3 15
-10 33 -16 40 -5 7 -12 26 -14 42 -3 16 -7 38 -9 49 -17 70 -20 76 -30 66 -7
-7 -5 -17 5 -33 8 -13 15 -38 14 -56 -1 -17 2 -32 7 -32 4 0 7 -4 7 -10 0 -5
-4 -10 -9 -10 -5 0 -17 26 -26 58 -9 31 -22 63 -27 70 -8 9 -6 16 7 26 15 10
16 16 6 32 -11 18 -12 17 -6 -3 5 -16 2 -23 -8 -23 -12 0 -15 13 -14 61 1 52
3 58 14 43 7 -10 13 -23 13 -30 0 -7 8 -19 18 -26 9 -7 22 -26 27 -43 6 -16
20 -34 33 -40 12 -5 22 -13 22 -18 0 -4 -4 -5 -10 -2 -5 3 -10 2 -10 -3 0 -9
33 -98 51 -137 31 -65 56 -212 40 -228 -15 -15 -14 -27 4 -27 8 0 17 12 20 28
3 15 12 39 19 54 13 24 12 27 -5 31 -13 4 -17 10 -13 22 4 10 1 21 -7 26 -10
6 -10 9 -2 9 9 0 10 7 3 26 -13 32 -13 44 0 44 5 0 7 -7 4 -15 -4 -8 -1 -15 4
-15 11 0 12 -8 13 -62 1 -16 5 -28 9 -28 12 0 20 29 9 35 -5 4 -7 10 -4 15 6
10 -25 93 -33 86 -3 -3 -10 -1 -17 4 -8 7 -11 1 -8 -23 4 -31 3 -31 -12 8 -8
22 -17 53 -21 70 -3 16 -8 34 -13 40 -11 15 -12 67 -1 60 6 -3 10 -13 10 -21
0 -8 5 -12 11 -8 6 4 9 -1 7 -13 -2 -11 3 -27 11 -36 11 -14 11 -20 0 -34 -12
-15 -12 -16 3 -11 10 4 19 1 22 -9 4 -9 9 -13 12 -10 3 3 -2 21 -11 39 -9 18
-19 44 -21 58 -3 14 -11 30 -18 35 -7 6 -15 18 -19 28 -3 9 -12 17 -19 16 -10
0 -10 -2 0 -6 6 -2 10 -9 6 -14 -10 -17 -25 -9 -36 22 -6 16 -13 27 -16 24 -9
-8 -72 107 -65 118 3 6 1 7 -5 3 -9 -5 -12 7 -12 41 l1 48 32 -50 c58 -90 158
-216 167 -210 6 3 8 0 5 -7 -3 -7 6 -25 19 -39 14 -15 23 -29 20 -32 -2 -2 1
-17 7 -33 24 -62 40 -160 34 -214 -7 -61 -23 -110 -36 -110 -5 0 -9 -7 -9 -15
0 -8 3 -15 6 -15 11 0 33 28 27 34 -4 3 -1 6 5 6 7 0 12 9 12 21 0 11 3 18 8
16 4 -3 8 6 9 20 1 19 -1 22 -8 12 -14 -22 -10 -4 5 26 9 17 16 22 19 13 4
-10 6 -10 6 0 1 7 -5 15 -12 18 -9 3 -12 16 -9 35 9 58 -36 184 -95 271 -18
26 -33 51 -33 54 0 14 -83 104 -91 98 -5 -3 -9 0 -9 6 0 6 -15 32 -32 58 -26
37 -34 61 -39 112 -3 36 -7 54 -8 40z m39 -536 c0 -8 -4 -12 -10 -9 -5 3 -10
10 -10 16 0 5 5 9 10 9 6 0 10 -7 10 -16z m70 -154 c0 -5 -5 -10 -11 -10 -5 0
-7 5 -4 10 3 6 8 10 11 10 2 0 4 -4 4 -10z m-20 -29 c0 -12 -20 -25 -27 -18
-7 7 6 27 18 27 5 0 9 -4 9 -9z"/>
<path d="M1552 3256 c7 -8 15 -12 17 -11 5 6 -10 25 -20 25 -5 0 -4 -6 3 -14z"/>
<path d="M1680 3240 c0 -5 5 -10 11 -10 5 0 7 5 4 10 -3 6 -8 10 -11 10 -2 0
-4 -4 -4 -10z"/>
<path d="M1744 3242 c3 -6 -2 -12 -11 -14 -12 -2 -14 -6 -7 -11 7 -4 17 0 23
7 9 11 9 16 0 22 -7 4 -9 3 -5 -4z"/>
<path d="M1567 3214 c7 -3 9 -12 6 -20 -5 -14 8 -19 20 -7 9 8 -12 33 -27 32
-7 0 -7 -2 1 -5z"/>
<path d="M1590 3165 c-7 -8 -9 -15 -6 -15 4 0 14 7 22 15 9 8 11 15 6 15 -5 0
-15 -7 -22 -15z"/>
<path d="M1623 3140 c-1 -16 1 -17 12 -7 7 6 11 15 8 20 -8 13 -19 7 -20 -13z"/>
<path d="M1700 3138 c0 -5 11 -8 25 -8 15 0 25 -6 25 -14 0 -10 9 -14 25 -12
36 4 43 16 9 16 -20 0 -25 3 -15 9 9 6 0 10 -28 13 -22 2 -41 0 -41 -4z"/>
<path d="M1650 3120 c0 -5 5 -10 10 -10 6 0 10 5 10 10 0 6 -4 10 -10 10 -5 0
-10 -4 -10 -10z"/>
<path d="M1638 3086 c-13 -10 -15 -15 -6 -24 18 -18 32 -14 17 5 -12 15 -12
16 3 10 12 -4 15 -2 11 9 -6 17 -4 17 -25 0z"/>
<path d="M1460 3061 c0 -5 5 -13 10 -16 6 -3 10 -2 10 4 0 5 -4 13 -10 16 -5
3 -10 2 -10 -4z"/>
<path d="M1824 3045 c-18 -15 -18 -15 5 -13 14 2 26 9 29 16 5 17 -10 15 -34
-3z"/>
<path d="M1675 3031 c-3 -5 1 -15 8 -23 7 -7 23 -29 35 -49 26 -43 50 -65 59
-55 4 4 -8 20 -26 36 -17 16 -38 46 -47 65 -15 37 -19 41 -29 26z"/>
<path d="M1437 2963 c-4 -3 -7 -20 -6 -37 l1 -31 9 34 c10 33 8 47 -4 34z"/>
<path d="M1610 2949 c0 -5 5 -7 10 -4 6 3 10 8 10 11 0 2 -4 4 -10 4 -5 0 -10
-5 -10 -11z"/>
<path d="M1780 2875 c6 -8 9 -18 6 -23 -3 -5 4 -25 14 -45 11 -21 17 -37 13
-37 -4 0 -2 -5 4 -11 6 -6 9 -18 6 -27 -4 -10 -1 -13 8 -10 18 6 13 45 -11 78
-9 14 -15 30 -13 37 6 16 -15 53 -29 53 -7 0 -6 -5 2 -15z"/>
<path d="M1431 2854 c0 -11 3 -14 6 -6 3 7 2 16 -1 19 -3 4 -6 -2 -5 -13z"/>
<path d="M1530 2690 c0 -5 5 -10 10 -10 6 0 10 5 10 10 0 6 -4 10 -10 10 -5 0
-10 -4 -10 -10z"/>
<path d="M1493 2660 c-1 -11 2 -18 8 -15 11 7 12 35 1 35 -4 0 -8 -9 -9 -20z"/>
<path d="M1338 2643 c2 -12 6 -23 7 -23 1 0 5 11 7 23 3 14 0 24 -7 24 -7 0
-10 -10 -7 -24z"/>
<path d="M1533 2638 c1 -21 4 -38 8 -38 11 0 20 33 11 39 -5 3 -11 13 -14 21
-3 8 -5 -2 -5 -22z"/>
<path d="M1487 2599 c7 -7 15 -10 18 -7 3 3 -2 9 -12 12 -14 6 -15 5 -6 -5z"/>
<path d="M1339 2577 c5 -5 7 -15 5 -22 -3 -7 -1 -16 5 -20 7 -4 11 5 11 23 0
19 -5 29 -15 29 -10 0 -12 -4 -6 -10z"/>
<path d="M1418 2563 c7 -3 16 -2 19 1 4 3 -2 6 -13 5 -11 0 -14 -3 -6 -6z"/>
<path d="M1485 2509 c-4 -6 -5 -13 -2 -16 7 -7 27 6 27 18 0 12 -17 12 -25 -2z"/>
<path d="M1431 2484 c0 -11 3 -14 6 -6 3 7 2 16 -1 19 -3 4 -6 -2 -5 -13z"/>
<path d="M1508 2494 c-4 -3 -4 -12 -1 -20 3 -8 0 -14 -6 -14 -6 0 -11 -7 -11
-15 0 -8 4 -15 9 -15 5 0 8 -8 7 -17 0 -11 6 -17 16 -17 10 1 15 -2 12 -7 -3
-5 2 -9 10 -9 23 0 20 13 -9 45 -21 22 -23 30 -14 41 12 15 -1 41 -13 28z"/>
<path d="M1612 2461 c7 -11 15 -18 19 -15 4 2 15 -3 23 -12 9 -8 16 -12 16 -8
0 3 8 0 17 -7 15 -12 16 -12 10 4 -5 15 -2 16 21 11 21 -4 24 -3 12 5 -8 6
-29 11 -46 11 -16 0 -39 7 -50 15 -27 20 -36 18 -22 -4z"/>
<path d="M1807 2445 c-4 -8 -2 -17 2 -20 5 -2 11 4 14 15 6 23 -8 27 -16 5z"/>
<path d="M1735 2410 c-4 -6 -10 -8 -15 -5 -5 3 -11 1 -14 -4 -3 -5 1 -12 9
-15 9 -3 18 1 21 9 4 8 10 12 15 9 5 -3 9 0 9 5 0 14 -17 14 -25 1z"/>
<path d="M1540 2351 c0 -10 7 -24 15 -31 8 -7 15 -19 15 -27 0 -8 5 -11 11 -8
6 4 16 -1 23 -11 17 -22 38 -28 104 -26 66 2 94 16 90 45 -3 19 -8 22 -48 19
-80 -4 -92 -2 -129 20 -20 12 -37 26 -39 30 -7 17 -42 8 -42 -11z m50 -17 c0
4 12 -4 27 -18 21 -20 36 -25 73 -23 56 1 88 -14 50 -23 -14 -4 -30 -3 -36 2
-7 5 -16 2 -24 -7 -11 -13 -15 -13 -41 0 -16 9 -28 19 -26 24 1 5 0 9 -3 8 -8
-1 -60 49 -60 58 0 5 9 0 20 -10 11 -10 20 -15 20 -11z m200 -44 c0 -5 -7 -7
-15 -4 -8 4 -15 8 -15 10 0 2 7 4 15 4 8 0 15 -4 15 -10z"/>
<path d="M1331 2314 c0 -11 3 -14 6 -6 3 7 2 16 -1 19 -3 4 -6 -2 -5 -13z"/>
<path d="M1483 2304 c-6 -13 -7 -24 -3 -24 9 0 25 39 18 45 -2 2 -8 -7 -15
-21z"/>
<path d="M1488 2273 c-10 -2 -18 -9 -18 -15 0 -5 6 -8 14 -5 8 3 17 -1 20 -9
9 -24 8 -26 -16 -19 -21 7 -22 6 -7 -10 11 -11 24 -15 38 -10 l21 6 -20 28
c-10 16 -17 31 -13 35 3 3 4 5 2 5 -2 -1 -12 -3 -21 -6z"/>
<path d="M1612 2224 c10 -10 20 -15 24 -12 3 4 -5 12 -18 18 -22 12 -22 12 -6
-6z"/>
<path d="M1650 2210 c0 -6 7 -10 15 -10 8 0 15 2 15 4 0 2 -7 6 -15 10 -8 3
-15 1 -15 -4z"/>
<path d="M1392 2166 c7 -8 15 -12 17 -11 5 6 -10 25 -20 25 -5 0 -4 -6 3 -14z"/>
<path d="M1765 2150 c3 -5 8 -10 11 -10 2 0 4 5 4 10 0 6 -5 10 -11 10 -5 0
-7 -4 -4 -10z"/>
<path d="M1735 2070 c-3 -5 -1 -10 4 -10 6 0 11 5 11 10 0 6 -2 10 -4 10 -3 0
-8 -4 -11 -10z"/>
<path d="M1460 2041 c0 -11 -4 -23 -10 -26 -14 -9 -12 -25 3 -25 7 0 20 16 29
35 15 33 15 35 -3 35 -12 0 -19 -7 -19 -19z"/>
<path d="M1510 2041 c0 -5 5 -13 10 -16 6 -3 10 -2 10 4 0 5 -4 13 -10 16 -5
3 -10 2 -10 -4z"/>
<path d="M1523 2013 c-53 -5 -57 -23 -5 -23 20 0 53 -5 72 -10 23 -7 36 -7 38
0 2 6 10 6 20 1 10 -5 26 -5 37 0 20 9 20 9 0 7 -11 0 -27 1 -35 5 -8 3 -24 7
-35 10 -11 3 -27 7 -35 9 -8 2 -34 3 -57 1z"/>
<path d="M1950 4427 c-14 -7 -26 -19 -28 -27 -3 -11 1 -11 16 3 10 9 24 17 30
17 7 0 12 5 12 10 0 6 -1 10 -2 9 -2 0 -14 -6 -28 -12z"/>
<path d="M2750 4360 c8 -5 20 -10 25 -10 6 0 3 5 -5 10 -8 5 -19 10 -25 10 -5
0 -3 -5 5 -10z"/>
<path d="M3040 4260 c-9 -6 -10 -10 -3 -10 6 0 15 5 18 10 8 12 4 12 -15 0z"/>
<path d="M3208 4073 c7 -3 16 -2 19 1 4 3 -2 6 -13 5 -11 0 -14 -3 -6 -6z"/>
<path d="M2841 4254 c-10 -22 -9 -25 6 -22 10 2 17 12 17 21 -2 14 1 15 12 6
12 -10 13 -9 8 5 -9 24 -29 20 -43 -10z"/>
<path d="M2890 4224 c-6 -14 -10 -29 -10 -33 0 -5 -7 -14 -16 -22 -13 -11 -14
-9 -9 17 6 26 5 27 -6 9 -6 -11 -23 -32 -37 -47 -15 -16 -22 -33 -18 -43 3 -9
2 -13 -4 -10 -6 3 -10 -1 -10 -10 0 -19 20 -16 31 6 12 23 22 54 20 62 -1 4 4
7 11 6 29 -4 37 3 51 46 17 47 14 63 -3 19z"/>
<path d="M2820 4200 c0 -5 5 -10 10 -10 6 0 10 5 10 10 0 6 -4 10 -10 10 -5 0
-10 -4 -10 -10z"/>
<path d="M2845 4120 c-3 -5 -2 -10 4 -10 5 0 13 5 16 10 3 6 2 10 -4 10 -5 0
-13 -4 -16 -10z"/>
<path d="M2769 4048 c-10 -6 -6 -7 11 -2 21 6 23 5 13 -7 -10 -12 -8 -15 9
-16 11 -1 18 1 14 4 -3 3 -2 11 3 17 12 14 -31 18 -50 4z"/>
<path d="M2743 3991 c-3 -9 -8 -20 -10 -24 -6 -10 43 -4 53 6 4 4 2 7 -5 7 -7
0 -9 5 -6 11 4 6 14 8 22 5 8 -3 12 -2 9 3 -10 15 -57 9 -63 -8z"/>
<path d="M2139 3983 c-11 -2 -18 -17 -21 -39 -4 -33 5 -46 15 -21 4 9 6 9 6
-1 1 -7 -5 -20 -13 -27 -7 -8 -12 -27 -10 -44 2 -17 0 -31 -5 -31 -5 0 -7 -9
-4 -20 3 -11 10 -20 15 -20 5 0 7 9 3 19 -4 13 0 23 12 30 10 6 13 11 6 11 -7
0 -10 7 -7 15 4 9 0 15 -7 16 -8 0 -4 4 7 9 25 10 31 60 8 60 -8 0 -14 5 -14
11 0 6 7 9 15 5 10 -4 15 1 15 14 0 11 -1 19 -2 19 -2 -1 -10 -3 -19 -6z"/>
<path d="M2032 3900 c0 -14 2 -19 5 -12 2 6 2 18 0 25 -3 6 -5 1 -5 -13z"/>
<path d="M2041 3871 c-7 -5 -15 -20 -16 -35 -2 -14 -6 -44 -10 -66 -5 -31 -4
-40 8 -40 11 0 13 11 11 45 -2 30 1 45 8 45 9 0 9 3 0 12 -9 9 -8 16 5 30 18
20 16 23 -6 9z"/>
<path d="M2192 3768 c6 -18 28 -21 28 -4 0 9 -7 16 -16 16 -9 0 -14 -5 -12
-12z"/>
<path d="M2103 3748 c-1 -11 3 -18 10 -15 17 5 21 34 4 34 -7 0 -14 -9 -14
-19z"/>
<path d="M2110 3711 c0 -6 4 -12 8 -15 5 -3 9 1 9 9 0 8 -4 15 -9 15 -4 0 -8
-4 -8 -9z"/>
<path d="M2011 3635 c0 -71 1 -74 20 -62 10 6 19 15 19 20 0 4 -4 5 -10 2 -5
-3 -10 3 -10 14 0 10 -3 26 -6 35 -4 11 -1 16 10 16 22 0 20 27 -3 40 -19 10
-20 6 -20 -65z m29 45 c0 -5 -4 -10 -10 -10 -5 0 -10 5 -10 10 0 6 5 10 10 10
6 0 10 -4 10 -10z"/>
<path d="M2475 3690 c3 -5 8 -10 11 -10 2 0 4 5 4 10 0 6 -5 10 -11 10 -5 0
-7 -4 -4 -10z"/>
<path d="M2183 3670 c-1 -16 1 -17 12 -7 7 6 11 15 8 20 -8 13 -19 7 -20 -13z"/>
<path d="M2100 3670 c0 -6 7 -10 15 -10 8 0 15 2 15 4 0 2 -7 6 -15 10 -8 3
-15 1 -15 -4z"/>
<path d="M2176 3611 c-4 -5 -2 -12 3 -15 5 -4 12 -2 15 3 4 5 2 12 -3 15 -5 4
-12 2 -15 -3z"/>
<path d="M2355 3611 c-3 -5 -1 -12 5 -16 5 -3 10 1 10 9 0 18 -6 21 -15 7z"/>
<path d="M2090 3604 c0 -4 8 -13 18 -21 10 -8 11 -11 2 -7 -13 7 -13 6 0 -11
14 -17 15 -17 18 -1 2 9 -2 23 -8 31 -13 15 -30 20 -30 9z"/>
<path d="M2336 3572 c-3 -5 1 -9 9 -9 8 0 15 4 15 9 0 4 -4 8 -9 8 -6 0 -12
-4 -15 -8z"/>
<path d="M2002 3539 c2 -7 10 -15 17 -17 8 -3 12 1 9 9 -2 7 -10 15 -17 17 -8
3 -12 -1 -9 -9z"/>
<path d="M2340 3546 c0 -4 14 -12 30 -17 22 -8 30 -17 30 -35 0 -13 -4 -24
-10 -24 -5 0 -10 -7 -10 -16 0 -29 25 -8 35 30 10 35 12 37 25 20 12 -13 12
-18 2 -21 -6 -3 -10 -9 -6 -14 3 -5 0 -9 -7 -9 -10 0 -10 -3 -1 -12 15 -15 22
-8 29 36 5 31 3 37 -20 45 -36 14 -97 24 -97 17z"/>
<path d="M2308 3498 c-5 -35 3 -79 13 -72 12 7 12 94 0 94 -5 0 -11 -10 -13
-22z"/>
<path d="M2020 3493 c0 -15 -2 -16 -10 -3 -7 11 -10 8 -9 -15 0 -16 3 -24 6
-17 2 6 9 10 14 6 5 -3 9 6 9 20 0 14 -2 26 -5 26 -3 0 -5 -8 -5 -17z"/>
<path d="M2350 3485 c1 -26 2 -28 11 -12 8 14 8 22 0 30 -8 8 -11 3 -11 -18z"/>
<path d="M2120 3465 c0 -8 -7 -15 -15 -15 -9 0 -12 -6 -9 -15 4 -8 12 -15 20
-15 8 0 14 7 14 15 0 8 4 15 10 15 5 0 7 7 4 15 -4 8 -10 15 -15 15 -5 0 -9
-7 -9 -15z"/>
<path d="M2000 3403 c0 -22 2 -25 10 -13 13 20 13 40 0 40 -5 0 -10 -12 -10
-27z"/>
<path d="M2631 3583 c-1 -7 -8 -13 -17 -13 -12 0 -15 -6 -10 -22 3 -13 6 -28
6 -35 0 -7 7 -10 15 -7 9 4 15 0 15 -9 0 -9 5 -19 11 -23 14 -8 2 56 -14 71
-7 7 -8 4 -4 -8 4 -11 3 -16 -3 -12 -14 8 -13 32 2 37 6 2 8 11 5 19 -3 9 -6
10 -6 2z"/>
<path d="M2620 3468 c0 -33 23 -52 55 -44 29 7 32 18 10 36 -13 11 -14 10 -8
-6 6 -17 5 -18 -13 -4 -10 7 -25 21 -31 29 -11 13 -13 11 -13 -11z m35 -28 c3
-5 1 -10 -4 -10 -6 0 -11 5 -11 10 0 6 2 10 4 10 3 0 8 -4 11 -10z"/>
<path d="M2721 3684 c0 -11 3 -14 6 -6 3 7 2 16 -1 19 -3 4 -6 -2 -5 -13z"/>
<path d="M2703 3585 c0 -8 4 -15 9 -15 5 0 6 -4 3 -10 -3 -5 -2 -10 3 -10 15
0 22 26 9 39 -15 15 -24 14 -24 -4z"/>
<path d="M2736 3534 c-8 -21 -8 -24 5 -24 5 0 8 4 5 9 -4 5 -1 11 6 13 8 3 9
6 1 11 -6 4 -14 0 -17 -9z"/>
<path d="M2007 3250 c-3 -11 -2 -22 2 -24 4 -3 8 6 9 20 2 29 -4 31 -11 4z"/>
<path d="M1996 2985 c-3 -8 -1 -15 4 -15 6 0 10 7 10 15 0 8 -2 15 -4 15 -2 0
-6 -7 -10 -15z"/>
<path d="M1995 2910 c-3 -5 -1 -10 4 -10 6 0 11 5 11 10 0 6 -2 10 -4 10 -3 0
-8 -4 -11 -10z"/>
<path d="M1987 2856 c-4 -10 -5 -21 -2 -24 9 -9 17 6 13 25 -3 17 -4 17 -11
-1z"/>
<path d="M1980 2790 c0 -5 5 -10 10 -10 6 0 10 5 10 10 0 6 -4 10 -10 10 -5 0
-10 -4 -10 -10z"/>
<path d="M1960 2608 c0 -19 2 -20 10 -8 13 19 13 30 0 30 -5 0 -10 -10 -10
-22z"/>
<path d="M1923 2378 c-1 -7 -6 -28 -11 -46 -6 -18 -7 -30 -3 -27 5 2 11 15 14
27 2 13 8 31 12 41 4 9 3 17 -2 17 -5 0 -10 -6 -10 -12z"/>
<path d="M1905 2280 c-3 -5 -1 -10 4 -10 6 0 11 5 11 10 0 6 -2 10 -4 10 -3 0
-8 -4 -11 -10z"/>
<path d="M1946 2084 c-14 -37 1 -50 85 -72 27 -7 40 -6 55 5 11 9 13 13 4 10
-8 -2 -23 0 -34 5 -14 8 -17 7 -11 -3 6 -9 3 -11 -9 -6 -10 4 -21 7 -24 7 -4
0 0 5 8 10 13 8 12 10 -2 10 -10 0 -18 -6 -18 -12 -1 -9 -5 -8 -13 3 -7 9 -17
14 -23 12 -7 -2 -10 6 -7 22 6 28 -1 34 -11 9z"/>
<path d="M2124 2038 c-4 -6 -3 -8 4 -4 5 3 13 0 15 -6 3 -8 6 -6 6 5 1 19 -14
23 -25 5z"/>
<path d="M1938 1988 c-23 -28 -23 -33 2 -35 16 -1 20 4 20 28 0 35 0 35 -22 7z"/>
<path d="M2082 1999 c3 -8 11 -13 17 -11 6 1 11 -4 11 -11 0 -7 9 -13 20 -14
28 -2 25 11 -7 27 -16 8 -32 16 -37 18 -5 3 -6 -1 -4 -9z"/>
<path d="M2140 2000 c0 -5 5 -10 10 -10 6 0 10 5 10 10 0 6 -4 10 -10 10 -5 0
-10 -4 -10 -10z"/>
<path d="M2320 3311 c0 -5 5 -13 10 -16 6 -3 10 -2 10 4 0 5 -4 13 -10 16 -5
3 -10 2 -10 -4z"/>
<path d="M2407 3250 c3 -11 7 -20 9 -20 2 0 4 9 4 20 0 11 -4 20 -9 20 -5 0
-7 -9 -4 -20z"/>
<path d="M2490 3211 c0 -5 -10 -7 -22 -3 -14 3 -19 1 -14 -6 4 -7 25 -11 47
-10 21 1 38 2 37 3 -16 13 -48 24 -48 16z"/>
<path d="M2203 3195 c0 -27 2 -38 4 -22 2 15 2 37 0 50 -2 12 -4 0 -4 -28z"/>
<path d="M2090 3087 c0 -20 5 -39 11 -42 7 -5 8 5 3 32 -9 51 -14 54 -14 10z"/>
<path d="M2136 3028 c40 -47 40 -47 53 -26 11 18 11 20 -3 15 -10 -4 -16 -1
-16 9 0 8 -4 12 -10 9 -5 -3 -10 -1 -10 4 0 6 -7 11 -17 11 -14 0 -14 -3 3
-22z"/>
<path d="M2104 2996 c-1 -25 2 -33 12 -29 8 3 12 14 10 26 -3 12 -5 25 -5 30
-1 4 -4 7 -8 7 -5 0 -9 -15 -9 -34z"/>
<path d="M2134 2954 c-5 -19 -9 -22 -15 -13 -5 9 -7 3 -6 -15 1 -16 8 -31 16
-34 9 -3 11 2 7 16 -4 11 -2 23 4 27 6 3 8 11 5 16 -4 5 -1 9 4 9 6 0 11 5 11
10 0 21 -20 9 -26 -16z"/>
<path d="M2256 2953 c-6 -15 -8 -15 -16 -3 -5 8 -12 11 -17 7 -4 -5 -1 -12 7
-17 8 -6 11 -10 6 -10 -5 0 -3 -7 5 -16 11 -13 8 -21 -24 -50 -35 -33 -48 -52
-28 -40 5 4 12 0 14 -6 3 -8 6 -6 6 5 1 9 8 17 17 17 8 0 12 5 9 10 -3 6 1 10
9 10 8 0 18 4 21 10 4 6 -1 7 -12 4 -11 -4 -6 4 12 20 27 23 25 32 -7 27 -13
-2 -9 11 9 31 9 10 11 18 6 18 -6 0 -14 -8 -17 -17z"/>
<path d="M2175 2949 c-9 -14 -2 -20 14 -10 8 6 9 11 3 15 -6 3 -14 1 -17 -5z"/>
<path d="M2150 2914 c0 -8 5 -12 10 -9 6 4 8 11 5 16 -9 14 -15 11 -15 -7z"/>
<path d="M2204 2901 c4 -5 0 -12 -6 -14 -8 -3 -6 -6 5 -6 9 -1 17 6 17 14 0 8
-5 15 -11 15 -5 0 -8 -4 -5 -9z"/>
<path d="M2075 2800 c-3 -5 -1 -10 4 -10 6 0 11 5 11 10 0 6 -2 10 -4 10 -3 0
-8 -4 -11 -10z"/>
<path d="M2076 2772 c-4 -6 -2 -21 4 -32 9 -16 8 -22 -5 -27 -13 -5 -14 -7 -3
-14 22 -14 28 -10 27 19 -1 38 -14 69 -23 54z"/>
<path d="M2193 2726 c-8 -26 -7 -33 3 -33 8 0 14 6 14 13 0 7 6 14 12 16 10 4
9 9 -3 21 -15 14 -17 13 -26 -17z"/>
<path d="M2110 2730 c0 -5 5 -10 11 -10 5 0 7 5 4 10 -3 6 -8 10 -11 10 -2 0
-4 -4 -4 -10z"/>
<path d="M2105 2645 c31 -27 37 -37 26 -43 -9 -7 -10 -12 -2 -16 6 -4 11 -2
11 5 0 7 11 10 30 7 17 -3 30 -1 30 4 0 5 5 6 12 2 7 -5 8 -3 3 6 -6 10 -4 12
8 7 11 -4 14 -2 11 8 -5 12 -9 12 -29 -1 -22 -14 -26 -14 -45 -1 -20 14 -21
15 -3 20 15 4 15 5 -3 6 -12 0 -24 8 -28 16 -3 8 -18 15 -33 15 l-28 0 40 -35z"/>
<path d="M2158 2573 c7 -3 16 -2 19 1 4 3 -2 6 -13 5 -11 0 -14 -3 -6 -6z"/>
<path d="M2299 2598 c-7 -24 -5 -38 6 -38 8 0 13 9 12 20 -1 16 -14 29 -18 18z"/>
<path d="M2287 2503 c-4 -3 -7 -11 -7 -17 0 -6 5 -5 12 2 6 6 9 14 7 17 -3 3
-9 2 -12 -2z"/>
<path d="M2283 2452 c1 -12 6 -18 15 -15 7 3 10 9 5 12 -4 3 -11 10 -15 15 -4
4 -6 -1 -5 -12z"/>
<path d="M2290 2415 c-7 -8 -15 -35 -18 -60 -4 -37 -2 -44 10 -40 9 4 13 16
10 34 -2 16 1 39 8 51 14 26 8 36 -10 15z"/>
<path d="M2260 2289 c0 -5 5 -7 10 -4 6 3 10 8 10 11 0 2 -4 4 -10 4 -5 0 -10
-5 -10 -11z"/>
<path d="M2260 2243 c0 -27 15 -23 22 5 3 11 0 19 -8 19 -8 0 -14 -11 -14 -24z"/>
<path d="M2251 2188 c-5 -13 -6 -27 -2 -33 3 -5 7 2 9 17 2 20 7 25 19 21 11
-4 14 -2 9 5 -11 19 -26 14 -35 -10z"/>
<path d="M2240 2124 c0 -8 5 -12 10 -9 6 3 10 10 10 16 0 5 -4 9 -10 9 -5 0
-10 -7 -10 -16z"/>
<path d="M2215 1988 c-10 -24 0 -35 55 -63 64 -32 73 -32 24 1 -21 15 -40 30
-42 34 -1 4 -9 16 -17 26 -12 17 -14 18 -20 2z"/>
<path d="M2023 2495 c-3 -9 -3 -18 -1 -21 9 -9 35 7 35 21 0 20 -26 19 -34 0z"/>
<path d="M2052 2444 c-1 -13 3 -24 8 -24 6 0 10 -6 10 -12 1 -17 50 -53 50
-37 0 6 8 9 19 6 16 -4 31 9 31 26 0 2 -20 2 -45 1 -43 -2 -46 0 -52 27 -7 38
-18 44 -21 13z"/>
<path d="M2178 2398 c-6 -16 16 -60 25 -51 4 3 -1 15 -10 26 -17 19 -17 20 5
14 15 -3 22 -1 19 6 -5 17 -34 20 -39 5z"/>
<path d="M2150 2350 c0 -5 5 -10 10 -10 6 0 10 5 10 10 0 6 -4 10 -10 10 -5 0
-10 -4 -10 -10z"/>
<path d="M1250 2350 c0 -11 2 -20 4 -20 2 0 6 9 9 20 3 11 1 20 -4 20 -5 0 -9
-9 -9 -20z"/>
<path d="M1237 2311 c2 -10 -3 -23 -11 -30 -13 -11 -13 -15 -1 -27 18 -19 31
-18 15 1 -7 8 -8 15 -2 15 15 0 21 48 7 54 -8 3 -11 -2 -8 -13z"/>
<path d="M1196 2202 c-3 -5 1 -9 9 -9 8 0 12 4 9 9 -3 4 -7 8 -9 8 -2 0 -6 -4
-9 -8z"/>
<path d="M1171 2134 c0 -11 3 -14 6 -6 3 7 2 16 -1 19 -3 4 -6 -2 -5 -13z"/>
<path d="M1993 2312 c0 -12 5 -22 9 -22 11 0 10 12 -2 30 -7 12 -9 10 -7 -8z"/>
<path d="M2011 2240 c18 -22 33 -40 35 -40 6 0 -30 66 -40 72 -27 18 -24 5 5
-32z"/>
<path d="M2007 2196 c-4 -10 -3 -15 3 -11 6 3 13 -1 16 -9 3 -9 13 -16 21 -16
8 0 11 5 8 10 -3 6 3 10 14 10 12 0 21 5 21 10 0 13 -6 13 -31 -1 -16 -8 -23
-7 -33 7 -12 16 -13 16 -19 0z"/>
<path d="M2356 2042 c-3 -5 -1 -22 4 -38 8 -29 8 -29 9 9 1 36 -3 45 -13 29z"/>
<path d="M1301 1944 c0 -11 3 -14 6 -6 3 7 2 16 -1 19 -3 4 -6 -2 -5 -13z"/>
<path d="M1385 1920 c3 -5 8 -10 11 -10 2 0 4 5 4 10 0 6 -5 10 -11 10 -5 0
-7 -4 -4 -10z"/>
<path d="M2073 1905 c-3 -9 -3 -19 1 -22 3 -4 6 -1 6 6 0 7 4 10 8 7 4 -3 6
-21 4 -41 -3 -26 -8 -35 -18 -31 -9 3 -14 -2 -14 -14 0 -11 7 -20 15 -20 8 0
15 -5 15 -11 0 -6 -7 -9 -15 -6 -20 8 -28 -8 -11 -22 8 -7 13 -23 11 -36 -1
-14 2 -25 7 -25 5 0 4 -9 -2 -19 -5 -11 -10 -38 -10 -61 0 -37 1 -40 16 -26
11 12 15 35 13 95 -1 43 2 84 5 90 4 7 3 18 -4 26 -8 10 -8 15 1 21 7 4 9 3 5
-4 -3 -6 3 -13 14 -17 26 -8 79 -16 63 -9 -7 3 -14 4 -15 3 -7 -7 -58 50 -58
65 0 18 25 22 35 6 3 -6 17 -8 31 -6 13 3 24 1 24 -4 0 -12 25 -19 38 -11 7 4
-6 16 -34 29 -25 12 -42 17 -38 11 5 -9 2 -10 -12 -5 -10 5 -25 9 -33 9 -8 0
-16 9 -19 19 -5 22 -21 24 -29 3z"/>
<path d="M2170 1826 c0 -18 50 -50 60 -39 4 4 -7 18 -26 30 -24 16 -34 18 -34
9z"/>
<path d="M2256 1814 c-11 -28 -6 -39 9 -20 8 11 15 23 15 28 0 14 -18 9 -24
-8z"/>
<path d="M2291 1793 c-6 -16 -13 -39 -16 -52 -2 -13 -9 -38 -14 -55 -14 -48
-21 -105 -12 -110 4 -3 14 27 21 66 7 40 19 78 26 86 8 7 12 17 9 21 -2 5 0
22 5 40 11 38 -3 41 -19 4z"/>
<path d="M2325 1780 c3 -5 8 -10 11 -10 2 0 4 5 4 10 0 6 -5 10 -11 10 -5 0
-7 -4 -4 -10z"/>
<path d="M2137 1751 c22 -38 59 -49 83 -24 19 21 9 36 -25 41 -17 2 -16 0 5
-12 22 -13 23 -15 8 -21 -17 -7 -65 19 -60 33 2 4 -4 8 -12 10 -14 3 -14 -1 1
-27z"/>
<path d="M2222 1655 c4 -58 16 -58 16 0 0 25 -4 45 -9 45 -5 0 -8 -20 -7 -45z"/>
<path d="M2051 1674 c0 -11 3 -14 6 -6 3 7 2 16 -1 19 -3 4 -6 -2 -5 -13z"/>
<path d="M2123 1670 c3 -11 2 -20 -3 -20 -14 0 -6 -33 13 -52 10 -10 15 -23
12 -28 -3 -5 -1 -11 4 -14 6 -4 9 9 8 29 -1 23 -6 34 -14 30 -8 -2 -13 4 -13
15 0 21 20 28 20 8 0 -7 5 -5 11 5 8 13 7 22 -1 33 -19 22 -43 18 -37 -6z"/>
<path d="M2180 1646 c0 -24 -3 -59 -6 -77 -5 -23 -3 -31 4 -24 12 13 23 145
11 145 -5 0 -9 -20 -9 -44z"/>
<path d="M2094 1548 c3 -18 8 -59 11 -90 4 -32 11 -58 17 -58 6 0 8 11 4 28
-7 27 -12 72 -15 125 0 15 -6 27 -11 27 -7 0 -9 -13 -6 -32z"/>
<path d="M2206 1552 c1 -13 6 -27 10 -30 4 -4 4 1 1 10 -3 10 -2 20 3 23 14 9
12 22 -3 22 -9 0 -13 -10 -11 -25z"/>
<path d="M2238 1545 c-14 -43 -19 -95 -9 -95 14 0 23 39 19 81 -3 27 -5 30
-10 14z"/>
<path d="M2053 1525 c2 -32 37 -51 37 -21 0 19 -19 22 -21 4 -1 -7 -5 1 -9 17
l-9 30 2 -30z"/>
<path d="M2070 1540 c0 -5 5 -10 11 -10 5 0 7 5 4 10 -3 6 -8 10 -11 10 -2 0
-4 -4 -4 -10z"/>
<path d="M2166 1499 c-3 -17 -6 -42 -6 -56 0 -14 -4 -21 -10 -18 -17 11 -11
-11 8 -28 20 -18 52 -23 52 -8 0 5 -10 11 -22 14 -16 5 -19 9 -10 19 6 8 7 19
2 28 -5 8 -3 27 5 47 12 27 12 33 1 33 -8 0 -16 -14 -20 -31z"/>
<path d="M2082 1450 c0 -14 2 -19 5 -12 2 6 2 18 0 25 -3 6 -5 1 -5 -13z"/>
<path d="M2240 1419 c0 -6 -7 -60 -16 -120 -16 -109 -15 -139 6 -139 7 0 8 6
2 17 -6 10 -6 29 -1 47 5 16 11 65 14 109 2 43 7 82 10 88 4 5 1 9 -4 9 -6 0
-11 -5 -11 -11z"/>
<path d="M2085 1400 c-3 -5 -1 -10 4 -10 6 0 11 5 11 10 0 6 -2 10 -4 10 -3 0
-8 -4 -11 -10z"/>
<path d="M2255 1370 c-3 -5 -1 -10 4 -10 6 0 11 5 11 10 0 6 -2 10 -4 10 -3 0
-8 -4 -11 -10z"/>
<path d="M2110 1360 c0 -5 5 -10 11 -10 5 0 7 5 4 10 -3 6 -8 10 -11 10 -2 0
-4 -4 -4 -10z"/>
<path d="M2153 1323 c-14 -5 -18 -24 -5 -22 4 1 10 0 15 -1 9 -3 25 -7 34 -9
4 0 -1 -7 -10 -14 -13 -9 -20 -35 -26 -102 -4 -50 -5 -94 0 -99 9 -10 16 29
22 121 3 34 9 68 13 75 13 20 15 50 4 43 -6 -4 -16 -2 -23 3 -7 5 -18 7 -24 5z"/>
<path d="M2120 1280 c0 -5 5 -10 11 -10 5 0 7 5 4 10 -3 6 -8 10 -11 10 -2 0
-4 -4 -4 -10z"/>
<path d="M2131 1170 c-1 -3 -4 -23 -6 -45 -3 -34 -2 -36 6 -15 6 13 8 33 6 45
-2 11 -5 18 -6 15z"/>
<path d="M2207 1143 c-4 -3 -7 -18 -7 -33 0 -14 -4 -30 -10 -36 -6 -6 -3 -14
10 -22 16 -10 18 -9 14 3 -4 9 -1 22 6 31 10 10 10 18 2 26 -6 6 -8 17 -5 24
5 15 1 18 -10 7z"/>
<path d="M2120 1068 c0 -12 7 -18 23 -17 15 0 17 2 7 6 -8 3 -18 11 -22 17 -5
7 -8 4 -8 -6z"/>
<path d="M1470 1920 c0 -5 4 -10 9 -10 6 0 13 5 16 10 3 6 -1 10 -9 10 -9 0
-16 -4 -16 -10z"/>
<path d="M1513 1913 c-7 -2 -13 -16 -13 -31 0 -14 -10 -37 -22 -50 -13 -14
-17 -22 -9 -17 11 6 13 4 8 -9 -4 -10 -3 -15 3 -11 15 9 10 -128 -4 -137 -8
-5 -7 -8 2 -8 8 0 12 -23 13 -77 1 -43 5 -89 9 -103 10 -33 11 -24 10 93 -1
74 2 97 12 97 8 0 6 5 -5 11 -15 9 -16 20 -11 81 4 48 3 69 -4 64 -6 -3 -14
-1 -17 5 -4 6 2 13 13 16 22 5 36 29 26 44 -3 6 0 16 6 24 12 15 6 18 -17 8z"/>
<path d="M1564 1905 c5 -32 85 -60 101 -35 4 6 -7 10 -26 10 -19 0 -42 9 -55
21 -19 18 -22 19 -20 4z"/>
<path d="M1620 1910 c0 -6 7 -10 15 -10 8 0 15 2 15 4 0 2 -7 6 -15 10 -8 3
-15 1 -15 -4z"/>
<path d="M1674 1909 c-3 -6 -4 -11 -3 -12 40 -21 44 -27 44 -60 0 -22 -6 -39
-14 -42 -10 -4 -12 1 -7 20 5 18 2 25 -9 25 -9 0 -15 -9 -16 -22 0 -13 -2 -30
-4 -38 -2 -8 -13 -70 -24 -137 -12 -68 -26 -134 -31 -149 -13 -32 -13 -54 -1
-54 5 0 17 34 26 75 13 58 20 73 29 65 9 -7 13 -6 13 5 0 7 -5 13 -11 12 -14
-3 -14 1 3 101 7 45 17 82 22 82 5 0 6 -7 3 -15 -4 -8 -2 -15 4 -15 13 0 29
51 35 115 5 49 5 50 -23 52 -16 1 -32 -2 -36 -8z"/>
<path d="M1565 1860 c3 -5 8 -10 11 -10 2 0 4 5 4 10 0 6 -5 10 -11 10 -5 0
-7 -4 -4 -10z"/>
<path d="M1680 1866 c0 -2 7 -9 15 -16 12 -10 15 -10 15 4 0 9 -7 16 -15 16
-8 0 -15 -2 -15 -4z"/>
<path d="M1622 1836 c13 -10 15 -15 6 -24 -18 -18 -43 -14 -63 8 -10 11 -22
20 -27 20 -15 0 -9 -19 13 -41 19 -19 20 -28 14 -117 -3 -54 -8 -108 -10 -122
-16 -98 -17 -110 -6 -110 6 0 11 8 12 18 0 9 3 26 5 37 3 11 7 47 10 80 2 33
7 80 9 105 2 25 4 57 4 73 1 20 6 27 21 27 11 0 20 -4 20 -10 0 -5 -4 -10 -9
-10 -4 0 -7 -10 -7 -22 1 -13 -1 -30 -5 -39 -4 -8 -3 -22 2 -30 7 -12 9 -12
10 1 2 19 4 26 14 75 5 22 8 43 7 48 -1 4 3 7 10 7 6 0 3 9 -7 20 -10 11 -23
20 -29 20 -6 0 -3 -6 6 -14z"/>
<path d="M1520 1771 c0 -5 9 -7 20 -4 11 3 20 7 20 9 0 2 -9 4 -20 4 -11 0
-20 -4 -20 -9z"/>
<path d="M1531 1726 c-8 -13 -11 -30 -8 -38 3 -8 6 -6 7 7 1 20 1 20 10 0 7
-16 9 -13 9 18 1 43 -1 45 -18 13z"/>
<path d="M1692 1720 c0 -14 2 -19 5 -12 2 6 2 18 0 25 -3 6 -5 1 -5 -13z"/>
<path d="M1682 1670 c0 -14 2 -19 5 -12 2 6 2 18 0 25 -3 6 -5 1 -5 -13z"/>
<path d="M1530 1650 c-9 -6 -10 -10 -3 -10 6 0 15 5 18 10 8 12 4 12 -15 0z"/>
<path d="M1599 1643 c-8 -9 -9 -14 -2 -10 7 4 13 0 16 -10 3 -10 4 -6 4 10 -2
32 -1 32 -18 10z"/>
<path d="M1592 1581 c1 -18 4 -34 8 -36 8 -5 3 55 -4 63 -3 2 -4 -10 -4 -27z"/>
<path d="M1590 1520 c0 -5 5 -10 11 -10 5 0 7 5 4 10 -3 6 -8 10 -11 10 -2 0
-4 -4 -4 -10z"/>
<path d="M1637 1441 c-5 -24 -11 -32 -22 -27 -8 3 -15 1 -15 -4 0 -17 -17 -11
-49 16 -34 28 -40 22 -15 -15 13 -18 24 -22 49 -19 24 3 32 0 30 -11 -1 -8 -7
-17 -13 -19 -7 -2 -12 -14 -12 -27 0 -33 -17 -40 -41 -19 -17 16 -22 16 -29 4
-6 -8 -9 -19 -9 -25 0 -5 3 -4 6 3 3 8 9 10 16 4 26 -20 55 -20 60 0 3 11 10
17 16 14 14 -9 24 11 26 53 1 20 5 44 9 53 4 9 6 25 4 35 -3 12 -6 6 -11 -16z"/>
<path d="M1496 1355 c-4 -12 -1 -16 11 -13 18 3 21 20 5 26 -5 1 -12 -4 -16
-13z"/>
<path d="M1605 1281 c-3 -11 -12 -20 -18 -18 -7 1 -13 -11 -14 -28 -1 -16 1
-22 4 -12 4 14 8 15 18 7 11 -9 15 -4 21 25 7 40 0 59 -11 26z"/>
<path d="M1506 1263 c-4 -9 -2 -21 4 -27 7 -7 10 -2 10 17 0 31 -5 34 -14 10z"/>
<path d="M1543 1235 c0 -22 2 -30 4 -17 2 12 2 30 0 40 -3 9 -5 -1 -4 -23z"/>
<path d="M1589 1208 c-1 -2 -3 -16 -5 -32 -1 -15 -11 -37 -20 -47 -10 -11 -12
-19 -6 -19 7 0 12 -5 12 -11 0 -5 -4 -7 -10 -4 -5 3 -7 0 -4 -8 3 -8 1 -18 -5
-22 -7 -3 -11 2 -11 14 0 12 -4 21 -10 21 -5 0 -8 -13 -7 -30 2 -23 7 -30 24
-30 17 0 23 9 32 48 6 26 12 61 13 77 1 17 7 33 13 37 6 5 6 8 -2 8 -7 0 -14
-1 -14 -2z"/>
<path d="M1526 1159 c-8 -44 -8 -55 3 -43 12 13 22 74 12 74 -5 0 -11 -14 -15
-31z"/>
<path d="M1498 1163 c7 -3 16 -2 19 1 4 3 -2 6 -13 5 -11 0 -14 -3 -6 -6z"/>
<path d="M1501 1094 c0 -11 3 -14 6 -6 3 7 2 16 -1 19 -3 4 -6 -2 -5 -13z"/>
<path d="M2150 889 c0 -7 -11 -9 -30 -5 -36 7 -41 -11 -5 -20 15 -4 32 -1 40
6 17 14 20 30 5 30 -5 0 -10 -5 -10 -11z"/>
<path d="M2127 989 c7 -7 15 -10 18 -7 3 3 -2 9 -12 12 -14 6 -15 5 -6 -5z"/>
<path d="M1515 960 c28 -12 37 -12 30 0 -3 6 -16 10 -28 9 -21 0 -21 -1 -2 -9z"/>
<path d="M1420 800 c0 -5 5 -10 10 -10 6 0 10 -8 11 -17 0 -15 2 -15 8 2 5 11
7 23 4 28 -6 11 -33 9 -33 -3z"/>
<path d="M2283 778 c3 -18 3 -27 0 -20 -8 19 -23 14 -23 -9 0 -14 5 -19 17
-17 23 4 37 78 15 78 -11 0 -13 -8 -9 -32z"/>
<path d="M2355 783 c4 -10 10 -26 12 -36 4 -12 11 -16 24 -12 15 5 19 1 19
-17 1 -22 1 -22 15 -4 22 29 19 45 -7 38 -17 -4 -20 -2 -15 11 4 10 2 17 -3
17 -6 0 -10 -8 -10 -17 -1 -13 -5 -10 -16 10 -16 30 -30 37 -19 10z"/>
<path d="M2460 740 c0 -5 5 -10 11 -10 5 0 7 5 4 10 -3 6 -8 10 -11 10 -2 0
-4 -4 -4 -10z"/>
<path d="M2470 715 c0 -18 19 -40 26 -32 4 4 0 15 -9 24 -9 10 -17 13 -17 8z"/>
<path d="M2090 760 c-13 -8 -12 -10 4 -10 10 0 25 -8 32 -17 7 -10 16 -15 20
-11 7 8 -23 48 -35 48 -3 0 -13 -5 -21 -10z"/>
<path d="M2080 729 c0 -3 9 -9 19 -12 13 -3 18 0 15 7 -5 13 -34 18 -34 5z"/>
<path d="M2123 5581 c-10 -15 -8 -22 8 -37 10 -9 22 -14 26 -11 3 4 1 7 -5 7
-7 0 -12 4 -12 10 0 5 8 7 18 4 13 -5 14 -4 3 4 -8 6 -21 7 -30 4 -14 -5 -14
-4 -2 11 8 10 12 19 10 22 -3 2 -10 -4 -16 -14z"/>
<path d="M1970 5568 c0 -4 4 -8 9 -8 6 0 12 4 15 8 3 5 -1 9 -9 9 -8 0 -15 -4
-15 -9z"/>
<path d="M2080 5571 c-8 -5 -27 -14 -42 -22 -30 -13 -37 -46 -16 -67 7 -7 29
-12 50 -12 31 0 39 4 44 24 3 13 0 35 -7 48 -7 12 -12 26 -11 31 2 8 1 8 -18
-2z m14 -44 c9 -15 7 -21 -9 -33 -27 -20 -49 -14 -53 15 -6 41 40 54 62 18z"/>
<path d="M1923 5545 c-13 -30 1 -44 16 -16 6 11 11 24 11 30 0 19 -15 11 -27
-14z"/>
<path d="M2232 5549 c2 -6 7 -10 11 -10 4 1 15 1 25 1 14 0 15 2 2 10 -20 13
-43 13 -38 -1z"/>
<path d="M2290 5545 c0 -8 4 -15 10 -15 5 0 7 7 4 15 -4 8 -8 15 -10 15 -2 0
-4 -7 -4 -15z"/>
<path d="M1965 5540 c3 -5 8 -10 11 -10 2 0 4 5 4 10 0 6 -5 10 -11 10 -5 0
-7 -4 -4 -10z"/>
<path d="M1784 5499 c-14 -15 -16 -24 -8 -37 17 -26 59 -27 78 -1 33 47 -30
82 -70 38z m55 -2 c15 -19 -9 -50 -32 -41 -20 7 -22 25 -5 42 15 15 23 15 37
-1z"/>
<path d="M1973 5488 c-2 -16 1 -18 10 -9 7 7 8 14 1 21 -6 6 -10 2 -11 -12z"/>
<path d="M1896 5483 c-6 -14 -5 -15 5 -6 7 7 10 15 7 18 -3 3 -9 -2 -12 -12z"/>
<path d="M2152 5484 c10 -10 20 -16 22 -13 3 3 -5 11 -17 18 -21 13 -21 12 -5
-5z"/>
<path d="M2215 5490 c-3 -5 -1 -10 4 -10 6 0 11 5 11 10 0 6 -2 10 -4 10 -3 0
-8 -4 -11 -10z"/>
<path d="M1655 5470 c-4 -12 -5 -24 -2 -27 3 -2 8 5 12 17 4 12 5 24 2 27 -3
2 -8 -5 -12 -17z"/>
<path d="M2265 5470 c-15 -17 -16 -24 -7 -46 15 -31 57 -30 78 2 27 41 -37 81
-71 44z m62 -16 c3 -8 -2 -23 -11 -32 -15 -15 -17 -15 -32 0 -21 21 -11 48 16
48 11 0 23 -7 27 -16z"/>
<path d="M1942 5449 c2 -7 10 -15 17 -17 8 -3 12 1 9 9 -2 7 -10 15 -17 17 -8
3 -12 -1 -9 -9z"/>
<path d="M1903 5435 c-3 -9 -3 -19 1 -22 3 -4 6 -1 6 6 0 7 4 10 8 7 5 -3 9 1
9 9 0 20 -16 19 -24 0z"/>
<path d="M2013 5436 c0 -8 6 -12 14 -9 7 3 10 9 7 14 -8 14 -21 11 -21 -5z"/>
<path d="M2128 5443 c-10 -2 -18 -8 -18 -13 0 -5 14 -4 31 2 25 9 32 7 44 -8
14 -18 14 -18 15 4 0 18 -5 22 -27 21 -16 -1 -36 -3 -45 -6z"/>
<path d="M1625 5430 c3 -5 8 -10 11 -10 2 0 4 5 4 10 0 6 -5 10 -11 10 -5 0
-7 -4 -4 -10z"/>
<path d="M1737 5419 c7 -7 15 -10 18 -7 3 3 -2 9 -12 12 -14 6 -15 5 -6 -5z"/>
<path d="M1980 5415 c-11 -13 -10 -14 4 -9 9 3 16 10 16 15 0 13 -6 11 -20 -6z"/>
<path d="M1617 5409 c7 -7 15 -10 18 -7 3 3 -2 9 -12 12 -14 6 -15 5 -6 -5z"/>
<path d="M1650 5397 c-14 -14 -19 -30 -15 -44 3 -12 0 -23 -7 -25 -9 -3 -9 -6
0 -12 7 -4 12 -3 12 3 0 6 12 8 30 5 19 -4 30 -2 30 5 0 6 -9 11 -19 11 -24 0
-39 39 -20 51 23 14 28 11 49 -31 22 -44 27 -48 27 -25 0 8 -4 15 -9 15 -4 0
-7 3 -7 8 4 24 -4 40 -26 50 -21 10 -28 8 -45 -11z"/>
<path d="M1865 5410 c-3 -5 -1 -10 4 -10 6 0 11 5 11 10 0 6 -2 10 -4 10 -3 0
-8 -4 -11 -10z"/>
<path d="M1600 5390 c0 -5 5 -10 11 -10 5 0 7 5 4 10 -3 6 -8 10 -11 10 -2 0
-4 -4 -4 -10z"/>
<path d="M1910 5385 c0 -8 2 -15 4 -15 2 0 6 7 10 15 3 8 1 15 -4 15 -6 0 -10
-7 -10 -15z"/>
<path d="M1765 5370 c-10 -11 -13 -20 -7 -20 6 0 14 5 17 10 4 6 11 8 16 5 5
-4 9 -2 9 4 0 20 -18 20 -35 1z"/>
<path d="M1583 5356 c5 -15 24 -18 24 -3 0 8 -6 14 -14 14 -7 0 -12 -5 -10
-11z"/>
<path d="M2240 5347 c0 -14 43 -17 56 -4 17 17 35 7 29 -15 -7 -22 -6 -22 10
-6 10 9 14 21 11 27 -10 15 -53 14 -59 -1 -4 -10 -7 -10 -18 0 -17 16 -29 15
-29 -1z"/>
<path d="M2398 5333 c-39 -11 -26 -73 16 -73 30 0 48 22 44 52 -3 23 -25 31
-60 21z m45 -33 c-8 -30 -24 -36 -40 -15 -19 28 -16 35 16 35 24 0 28 -3 24
-20z"/>
<path d="M1621 5286 c-10 -12 -8 -13 8 -9 12 3 21 9 21 14 0 14 -16 11 -29 -5z"/>
<path d="M1579 5231 c-19 -15 -21 -23 -13 -49 9 -29 10 -30 44 -18 24 7 36 18
38 34 2 12 -1 22 -7 22 -6 0 -8 7 -5 15 9 22 -28 19 -57 -4z m49 -29 c5 -30
-26 -42 -45 -16 -9 12 -10 20 -3 22 5 2 7 8 4 14 -4 6 4 8 17 6 16 -2 25 -11
27 -26z"/>
<path d="M2450 5210 c0 -7 -7 -9 -17 -5 -14 5 -15 3 -6 -5 7 -8 17 -9 28 -2
12 6 14 11 6 16 -6 4 -11 2 -11 -4z"/>
<path d="M2379 5178 c4 -28 6 -29 9 -9 2 13 0 27 -5 32 -6 6 -7 -3 -4 -23z"/>
<path d="M2430 5149 c0 -5 5 -7 10 -4 6 3 10 8 10 11 0 2 -4 4 -10 4 -5 0 -10
-5 -10 -11z"/>
<path d="M1577 5133 c-13 -12 -7 -25 6 -14 8 6 17 8 20 4 4 -3 7 -1 7 5 0 13
-22 16 -33 5z"/>
<path d="M2390 5133 c-19 -8 -30 -25 -23 -36 3 -5 12 1 20 13 12 17 18 19 29
9 20 -16 17 -40 -5 -46 -11 -3 -22 -11 -25 -18 -5 -15 18 -10 42 8 17 14 15
64 -4 71 -9 3 -16 6 -17 5 -1 0 -9 -3 -17 -6z"/>
<path d="M1580 5090 c0 -5 4 -10 9 -10 5 0 7 -15 5 -32 -3 -30 -3 -31 6 -9 11
26 5 61 -11 61 -5 0 -9 -4 -9 -10z"/>
<path d="M1623 5055 c0 -8 4 -15 9 -15 4 0 8 4 8 9 0 6 -4 12 -8 15 -5 3 -9
-1 -9 -9z"/>
<path d="M2353 5053 c-3 -10 -8 -21 -10 -25 -2 -5 2 -8 9 -8 7 0 13 11 13 25
0 29 -3 32 -12 8z"/>
<path d="M1599 5004 c-9 -11 -10 -20 -2 -32 12 -20 53 -29 53 -12 0 6 -4 9 -9
6 -4 -3 -17 1 -27 9 -18 13 -18 14 -1 20 9 4 17 11 17 16 0 14 -16 10 -31 -7z"/>
<path d="M1648 5013 c6 -2 12 -21 12 -40 0 -41 14 -36 15 5 1 27 -11 42 -30
41 -5 0 -4 -3 3 -6z"/>
<path d="M2330 4999 c0 -4 7 -10 16 -13 8 -3 13 -2 9 3 -3 5 1 11 7 14 7 3 3
4 -9 4 -13 -1 -23 -4 -23 -8z"/>
<path d="M2365 4971 c-3 -5 2 -16 10 -24 26 -27 14 -67 -20 -67 -10 0 -13 35
-4 52 9 16 8 19 -3 16 -7 -3 -13 -19 -13 -39 0 -31 3 -34 33 -37 31 -3 32 -2
32 36 0 27 -5 42 -16 46 -8 3 -12 10 -9 16 3 5 4 10 1 10 -3 0 -7 -4 -11 -9z"/>
<path d="M1682 4864 c-34 -23 -27 -68 10 -72 22 -3 30 2 40 23 10 22 9 29 -8
45 -18 19 -21 19 -42 4z m36 -37 c3 -21 -1 -27 -17 -27 -23 0 -32 18 -19 43
13 25 32 16 36 -16z"/>
<path d="M1750 4780 c0 -5 5 -10 10 -10 6 0 10 5 10 10 0 6 -4 10 -10 10 -5 0
-10 -4 -10 -10z"/>
</g>
</svg>
