<svg xmlns="http://www.w3.org/2000/svg" viewBox="0 0 1350 1194"><path d="M1061 14l-7 2-6 1-11 2-12 1-12 2c-9 0-27 3-30 4l-19 2a262 262 0 00-56 6l-10 1-6 1-13 2a136 136 0 01-21 3l-20 4-10 3-7 1a1170 1170 0 00-55 6l-41 5-4-1 1-3c3-4-1-7-4-4-2 2-2 2-1 3l2 3c0 2 9 2-88 2a435 435 0 00-67 3 1505 1505 0 00-108 4 467 467 0 00-90 14l-17 8-6 3-12 10c-8 8-11 12-11 16l-1 4c-3 4-4 14-4 22 0 9 1 14 6 24 2 5 10 12 16 14 7 3 30 3 35 0 4-1 7-1 7 3l6 12 1 5 1 5 2 4 1 5 2 4 1 5 2 5 1 5 2 4 1 5 2 7 1 4 2 6c1 3 1 4-1 5l-2 2c0 1-2 2-3 1-3 0-2-3 0-3 3-1 3-3 0-3l-5-4-5-3-2-1-2-2-5-3-5-3-7-4-7-5-1-1-5-3-8-5-5-3-3-1-3-2-2-1-3-2-5-3-6-3-3-1-6-5-6-5-2-1-9-5-1-1-5-3-6-3-3-1-3-2-10-6-9-6-5-3-6-3-1-1-8-5-7-4-8-5c-1 0-7-3-10-6l-5-3c-3 0-6-2-13-8l-14-8-11-6-4-2-4-2c-2-3-2-3-1-6l3-7c1-4 1-4-1-7-5-5-10-5-16 2l-3 5-5-2-11-5-8-5-8-5-4-1-2-1-11-5-2-2-3-1-2-1-3-2-4-2-3-1-9-4c-7-3-13-4-13-2l4 5 13 11a184 184 0 0042 30l9 7 5 5-3 4-2 7c0 2 5 8 10 10l4 2 4-5 5-6h8l3 2 5 3 8 4 4 4 2 1 8 5a153 153 0 0022 13l6 3 8 5 9 6 10 5 5 3 5 3 6 3 3 2 8 5a462 462 0 0022 13l11 6 7 4 2 2 18 10 7 5 5 3 4 3 5 3a112 112 0 0019 12 93 93 0 0010 6l6 3 2 2 3 1 4 3 4 3c6 3 15 10 15 12l4 19 1 6 2 9c1 6 0 8-1 10l-1 3 5 1 7 2 5 1c5 0 3 6-4 13l-6 5-3 1c-2 2-10 3-17 2h-12c-5 1-6 1-9-1s-5-2-11-2c-8 0-8 0-10 3l-3 6c-1 2-1 3-6 3a19 19 0 00-17 25c1 1 1 4-2 7-2 2-2 4-2 12l1 11 2 8c0 5 0 5 3 5s3 0 2-1l-1-3 2 2 1 2v3l2-2c2-1 2-2 1-3v-3c1-2 1-2-1-3-1-1-1-1 1-3 4-3 7-4 7-2 1 2 0 3-2 3l-2 1c0 2 3 4 5 4 3 0 3 5 0 6-4 2-6 4-6 6 1 1 3 2 4 0 0-2 5-5 7-5l-3 6c-3 4-4 4-10 4s-6-1-7-3c0-3-4-7-5-6-3 1 0 10 5 14 3 2 14 0 19-5l4-3 9 1 14 3 17 2 15 1c11 1 25-7 27-16l2-5 1-5c0-5 0-4 9-6 5-1 8-2 9-1s1 5-2 7l-1 5c0 2-1 3-2 3l-1 4-1 3-3 3c-1 5-8 19-13 24l-4 7c0 2-3 1-6-1s-6-2-8 1v4c3 3 3 5 0 7l-4 4-2 1-3 2c-2 2-5 1-7-1-2-4-4-4-7-2-2 1-2 2-2 5 1 4 1 4-2 6l-23 5h-5l-2-4c-1-4-2-5-4-5-3 0-3 0-3 4l-1 5-4-1c-9 0-19-3-25-7-3-2-3-3-3-5 1-4 0-7-3-7l-3 3-3 3c-1 0-4-2-6-5l-11-11c-9-9-16-21-12-24 2-2 1-5-2-8-6-4-9-15-8-28 0-7 1-8 3-9 4-1 4-5 0-8-2-3-2-3 0-10 2-5 4-7 6-7 5 0 8-8 4-11l-1-3c0-2 6-10 13-17s10-8 11-5c2 4 9-2 8-7-1-2 0-3 5-6a74 74 0 0112-5l6-1c4 0 4 0 5 2 0 2 2 3 4 3 4 1 8 0 8-2-1-3 0-4 7-4l7 1 3 4c3 5 5 5 8 0 2-3 4-4 5-3l4 1c7 1 8 1 7 2l-4 1c-4 0-5 7-2 10s5 3 8-1c2-3 3-5 1-6l-1-2h6c5 0 5 0 5-2 0-1-2-2-5-2l-6-2-5-1-4-2-10-1-15-2h-19c-15 2-23 5-31 11l-8 5a80 80 0 00-25 25l-1 2-2 4-6 12-3 10c-2 2-5 30-3 33l2 9 1 9 5 13a76 76 0 0023 31l1 2c0 1-5 2-6 0l-6-3-6-4-2-1-5-1-12-5-16-8-5-1-4-1-6-2-6-2-4-1-8-1c-5-2-20-3-28-3a108 108 0 00-33 5l-3 2c-7 1-28 13-33 18-11 12-15 17-18 23l-7 13-3 7-1 2-2 6-2 7-1 4-1 4-3 10-3 15c-3 7-4 17-5 26l-1 10-2 8-2 11-1 13-1 11-3 14c-2 19-3 22-4 23l-1 9-1 10a381 381 0 00-5 53l-3 33a502 502 0 01-7 71l-1 26-2 27-2 25-1 24-2 22-1 28-1 20-2 17-1 11-1 14-3 12-1 5-2 8-1 8-4 18-2 8-1 4-2 15c-3 5-4 10-4 12h2l3-2 4-5 4-5 2-3 3-4 3-4 5-8 4-7 1-4 4-8 3-8 1-4 1-4c2-4 9-26 11-38a478 478 0 008-48 364 364 0 01-2 87 103 103 0 01-3 30l-2 9v6c1 2 5-1 6-5l10-19 1-3 1-4 2-3 1-5 2-7 2-4 1-5 2-7c2-6 4-22 5-35l2-21 2-18c1-10 2-14 3-12 1 1 2 9 2 19l2 30a1729 1729 0 016 88c0 3 3 3 3-1l2-6 3-6 1-11 3-13 2-7 1-9 1-10 2-16a1711 1711 0 017-57l2 13 4 42 2 30c0 20 0 24 2 24l1-3 1-5 2-4 1-4 6-21a548 548 0 006-88l1-23c0-3 0-4 2-4 1 0 2 1 2 5l2 17a447 447 0 004 39l1 10 4 32c0 6 1 8 2 8l3-4c4-15 5-34 6-89a700 700 0 015-94 275 275 0 016-65l1-15 2-12 1-11 2-10 1-7a179 179 0 007-32l4-22 1-10 2-13 1-10a274 274 0 007-36l2-8 4-20 4-6 5-1 8-2c9-1 18-7 23-13l4-8c0-2-3-4-4-3-1 2-7 4-11 4-14-3-13-3-21-7-7-5-9-12-8-22 2-9 6-15 14-19 5-2 7-2 17-2 11 0 18 1 26 5l16 4 5 2 4 1 6 2 11 2 10 1 22 1c21 0 24 0 36-7 22-10 31-17 47-37l7-9 6-8 6-7a94 94 0 0012-18l8-16 2-1c2 0 4 2 17 12a184 184 0 0024 19c3 1 3 1 2 5l-1 5c-2 1-5 14-7 24l-3 7-1 5-2 5-1 5-2 4-1 4-2 4-1 5-2 5-1 4-2 4-1 5-2 3-1 3-2 3-1 4-1 4c-2 2-4 8-5 14l-2 6-1 3-2 4-1 4-2 3-1 3-1 3-5 11-2 3-1 3-2 4-1 4-2 3-1 3-2 3v7c3 2 2 3-1 6l-7 9-4 6-3 6-3 5-1 1-2 5-2 6-1 4-2 21-2 26c0 6 0 7 2 8 5 2 7 1 10-2 4-3 4-4 4-9l1-6c1-1 2-6 2-15 0-14 1-15 3-18l3-7c0-3 2-8 4-10l1-2a7442 7442 0 006 114c1 2 3 3 8 3l1 2c0 2 3 6 6 6 2 0 6-3 7-6l4-3c3 0 6-3 7-6l5-4 6-5c2-4 3-19 4-49 0-31-2-58-5-67-2-6-1-8 2-7l7 2a207 207 0 0025 6l4 1 5 2 5 1 2 1 5 2 7 2c6 3 9-3 9-22l1-13 2-9 2-11 1-7 1-5 2-4 1-4 2-6 1-7 2-6 7-17 5-12 3-8 3-6 5-11 1-2 3-7 6-13 5-10 1-3 1-4 2-3 3-6 3-8 2-3 1-3 1-4c3-3 3-18 0-27l-3-9c-2-4-2-9 0-9l4 3 11 8 15 9 10 6 5 3 6 5 6 4c5 0 20 9 22 12 0 2 3 3 7 4 3 1 6 3 7 5l7 4 9 6 8 5 5 2 3 1 5 2 4 1 5 4 6 3c2 0 4 1 7 4l5 4 27 13 8 5 3 1 3 2 5 3 6 3 7 5c4 4 8 5 8 3l-3-4c-3-4-3-7 1-7 2 0 2-1 2-3s2-3 3-1l3 2c2 0 2 0 0 1-3 0-3 1-3 8-1 7 1 10 7 13a248 248 0 0146 27l4 2 2 1 1 1c0 3 2 3 5 1h3v2c-1 1-1 1 1 3l5 3 2 2 2 1 8 4a225 225 0 0023 15 75 75 0 0015 11l7 4 11 6 7 5 6 3 7 6 12 9c5 3 6 4 6 6s-1 3-4 4c-3 2-4 3-2 6 1 4 6 1 6-3 0-3 3-6 4-6 2 0 5 4 5 6l-1 1c-2 0-3 5-3 7 1 3 4 4 6 1 1-1 1-2-1-4v-5c3-2 3-1 7 2l12 9c3 1 2 5 0 5-5 2-1 7 5 7l10 4a701 701 0 0026 14c2 0 9 8 14 16l7 10 2 3 5 8 6 7a138 138 0 0047 37 212 212 0 0024 14l2 1 3 1 6 4 8 5 2 2 4 2 12 7c8 4 14 8 16 11l12 7 15 13c7 8 14 14 14 13 2-1 1-5-4-10l-6-9-4-6-3-4-4-6-7-9-11-16-15-18a716 716 0 00-30-41c-6-8-9-12-22-24a84 84 0 00-32-23c-6-3-10-4-13-4l-7-1-9-2c-9-1-14-3-17-5a387 387 0 01-36-37l-3 3c-2 5-3 5-6 2l-4-2-1-1-7-5-6-5 7-7c4-4 5-5 2-8h-4l-1 3-2 4-2 5c-1 3-4 3-7 0-2-2-2-3-1-5l5-6c4-4 5-7 3-8-3-2-5 0-7 5l-2 7-2 3-4-3-6-2-3-2-8-7a284 284 0 01-26-18l-3-2c-2-2-4-2-6-2-3 1-3 1-3-1s-1-3-3-4l-8-7c-5-5-7-6-11-8l-8-1-3-1-9-5-11-6-11-7-5-3c-1-2-3-4-7-5l-4-3-3-3-5-3-4-3-5-3c-2-2-4-2-7-2h-3c3 0 2-4-1-3l-3-2c-1-3-14-11-17-11l-5-3-5-3-2-1-2-2-4-2-3-2-8-5-4-3-10-5-2-1-3-2-2-1-2-2-3-1c-2 0-13-6-14-8l-2-1-3-2-3-1-6-3-21-11-10-6-6-4-4-2c0-2-3-4-5-4l-4-1-5-4-13-8-6-3-9-5a337 337 0 00-28-17l-7-4-3-3-11-6c-3 0-12-8-13-11 0-2-1-2-3-2-3 1-3 1-5-2l-1-6-3-21-1-3c0-2 1-3 5-2h9c16-1 49 0 53 1l54 1a281 281 0 0172 5c2 2 5 3 7 3l5 2 2 2 5 1 12 5 4 1c1 2 7 4 13 5l5 2 6 1 6 1 13 2 14 2h44a670 670 0 0162-2c2 3 3 3 12 3h12l2-4c1-5 4-7 11-8l8 1c4 2 5 2 9 1h6l9 1 11 2 7 1c4 0 13 3 14 5l4 1a119 119 0 0123 9l14 5 5 1 5 3 5 3c2 0 19 20 27 33a100 100 0 0010 12l8 10 7 9c0 2 1 3 2 3l1 1 2 5 2 3 3-3c4-4 5-8 3-10l-1-4-4-10-4-4-2-4-1-1-4-7-3-6-3-6c-2-4-3-5-3-20 0-16 0-18-6-21l-12-1-10-1 1-14c0-10 1-15 2-17l1-9 1-9 2-9 1-12c2-5 4-19 4-24v-8-8l-4-23-1-7-1-10-2-6-3-9-3-9-2-6c-2-3-1-6 2-5l7 5a129 129 0 0025 12l3 1 4 1c0 2 7 3 7 1l-3-2c-3-1-4-2-3-6 0-2 0-3-2-4s-3 1-2 4c1 2-1 4-3 1l-3-1-3-2-3-1-7-3-10-5c-4-2-5-3-2-4l1-3c0-2-1-3-3-3-3 0-3 0-3 2v4c-2 1-5-1-7-7l-3-5-2-2c-1-2 0-7 3-7l10-8c6-5 9-5 12 2l4 5c2 1 1 7-1 9l-6 1-4 1c0 1 1 2 5 2s5 0 6-3 2-3 5 1 2 8-2 10l-4 2 3 2c2 2 3 2 5 1l3-3c0-3 2-3 3 0v3c-1 1-1 1 2 1l5 2c1 2 17 11 20 11l12 6 2 2c1 2 1 2-1 4s-2 2-4 1v-4l-1-2-2 2c0 3-2 2-3-1 0-5-1-6-3-3l-2 2-1-2c-1-3-1-3-3-3-3 1-5 4-5 5l17 9 3 1c3 3 6 2 7-2l1-5-1-4c0-2-5-7-7-7l-3-1-7-3c-6-3-14-8-19-13-7-7-9-9-12-17l-5-11c-2-5-8-9-13-9-3 0-6 2-13 10-6 5-7 5-11 1l-4-5c0-1 0-2-5-7l-3-3-6 5-10 8-8 4c-5 4-17 9-21 9l-5 1c-2 2-5 2-18 1a87 87 0 01-23-2l-8-2-11-5-4-3c0-1-1-2-3-2-3 0-12 3-13 5l-3 1-4 1-6 2-6 1-8 3-9 3-11 2-10 2c-4 2-12 3-19 4l-11 2-15 4-4 1c-3 3-14 3-18 1l-5-2-4-1-7-2-9-2-7-1-6-2-11-1-12-2c-8-2-9-1-5 4s4 6-2 7l-6-2h-3-4l-3 1 1 3 6 1c6 1 7 1 6 3-2 3 0 8 2 8s2-1 2-5c0-5 0-5 3-6s5 0 6 3l1 1c1-2 8-3 9-1l3 3 3 3 5 3c3 1 4 1 3 3l1 2c1 0 7 5 7 7l-2 1h-3c0 1 2 2 5 1l2 1 3 3 1 3 2 3v4l1 6c1 3 2 4 1 8-2 11-6 16-14 18l-5 3c0 2 0 3-4 3l-5 1c-1 2-22 2-24 0h-5c-5 2-9 2-15 1h-19l5-4c4-3 6-5 7-8l5-8 4-7 1-2c2 0 0-18-2-23l-3-8-5-7-3-4c0-2-3-5-5-5l-1 2c0 2-1 3-5 3-6 0-5 3 1 3 3 0 5 2 3 3l-1 2c0 3 3 5 5 4 2 0 2 1 1 3l-1 3 1 2 2-2 2-2 1 3 2 6 1 8c0 4 0 5-2 6-2 2-2 2 0 3 3 2 2 3-1 6-2 3-3 4-2 6 0 1 0 2-2 3l-3 3c0 1-1 2-3 2-4 0-9 2-9 3 0 4-8 6-11 4l-3-1c-3-1-3-2 0-3 3 0 3-1 2-3h-3c-2 3-5 2-7 0s-5-2-5 0l4 3 3 2-2 1c-4 1-17 0-17-1l-1-1c-2 1-4-1-4-2l2-1c2 0 3-1 3-3s0-2-2-1c-2 2-3 2-12 0-4-1-5 0-6 1-2 2-1 2 6 2 6 0 6 0 6 3s-2 4-8 2l-11-2-8-1-8-2-5-1 5-2 6-2 2-1 3-1 3-2 4-2 2-1 4-1c3-1 13-10 14-13 0-2 1-3 2-3 2 0 7-17 5-18l-1-7c-1-7-2-10-5-11l-2-3-1-2-1 2c3 8 2 13-1 13l-4 1v2c1 1 3 1 4-1 3-2 5-1 6 2l-2 4c-2 0-2 2-3 6l-1 7-1 2c1 1-6 8-9 10l-2 2c0 2-5 6-7 6l-5 2-9 2-5 1-3 2-4 2c-3 2-4 3-6 2l-6 1c-3 2-4 2-5 1-1-2-3-2-6-1-6 1-15-1-15-3 0-3-2-2-2 0-1 2-2 3-5 3-6 1-7 0-8-4l-2-3v2l-1 5c1 2-1 3-11 3-8 0-11-1-7-3 4-1 11-10 10-12l2-3c2-1 6-11 6-17 0-3 0-4 2-4 3-1 3-2 0-3-2 0-3-2-3-3 0-3-3-8-4-8l-1-3c0-2-1-3-3-4l-3-3c0-1-2-4-8-7l-8-5c-4 0-12-4-13-5l-3-2-2-1 2-1 5-2 7-2 3-1 2-1 3-1c2-2 9-1 8 1l1 2v4l1 4c3 0 3-3 2-5v-1l5-2 7-2 6-2h2c1 3 6 2 7-1s2-3 5 1c1 2 2 3 4 2l5 2c3 3 5 3 5-1l-3-3c-2-1-3-3-1-3 5-1 9 0 10 2 2 1 2 2 1 6-1 5-1 6 2 4 4-2 7 0 7 4l1 8c0 3 0 5-2 6l-1 4c0 3-2 6-5 7s-2 3 1 4c6 0 10-3 10-8l1-5c2-1 1-13 0-15l-3-7-2-8v-1l1 1 1 1 6 3 4 3 2-3c2-3 3-3 3 2l1 5 1-3c0-3 0-3 2-3l1 3 1 3 1-1c0-3 2-4 3-2s3 2 5 1c3 0 3 0 3 2-1 2 0 3 1 3l4 1c2 1 3 2 2 3 0 2 0 2 3 2h4l2 1 1-5c0-5 0-5 2-6l5 1 4 2 4 2c4 2 6 3 4 0-2-1 0-4 3-5l2-2c0-2 2-3 5-1 2 0 3 2 4 5 2 5 2 5 5 5 2 0 4 0 5 2s4 1 6-2c1-3 2-3 5-3l6-1 5 1 4 1c2 0 2-3 1-4-2-1 1-2 7-1l9 2h3l1-4c-1-1-2-2-8-2l-8-1c-2-2-26-2-31-1-4 1-4 1-1 1l5 1v3l-4 1c-3 0-3-1-5-4-2-5-6-6-24-6-14 1-15 1-17-1l-6-2-7-1h-23a372 372 0 00-109 5l-8 4-6-7c0-2-5-6-8-7l-3-2-4-1-6-2c-4-2-24-2-32 0l-7 1-6 2-8 4a106 106 0 00-23 13 282 282 0 00-32 22 105 105 0 00-15 17l-3 4c-2 3-6 12-8 13l-3 2-1-14c0-10 0-15-2-18l-1-13-1-17c-1-9 0-24 3-29 4-8 11-12 21-12s16 4 22 16c2 5 3 7 3 13l-2 10v2c2 3 12-3 19-13l6-7h8l11-1 15-2 17-2a1109 1109 0 00238-1c49-2 45-2 74-5l13-1 36-3a378 378 0 0082-12c6-3 9-6 9-8-1-3-4-2-8 1-5 4-11 5-16 3l-9-2-6-2a863 863 0 00-98-2c-7-1-4-2 4-2l12-2 8-1 7-1 14-2 18-1 38-5c15-1 20-3 34-10 11-5 12-5 10-8-1-1-3-1-9 2l-11 2-15 1h-11c-6-2-40-2-57-1-12 1-20 0-22-1-1-2 3-3 9-3l11-1 10-2 11-2 18-1a236 236 0 0078-14c3-2 3-2 2-4h-9l-12 2h-27l-19-3-20-1-27-1-21-1c-3-1-1-2 5-2l7-2 8-1 14-2 18-1 15-2 15-1 15-2 9-1 6-1 11-3c12-4 24-10 35-16 4-3 1-6-4-3-5 2-13 4-22 5l-19 2a547 547 0 01-81-5c3 0 13-2 19-5l7-1 8-2 7-1 4-2 5-1 5-2 6-1 6-2 4-1 9-3 10-3 6-3 7-3 7-3 7-3 22-11 2-3c-1-3-4-2-7 0zm-23 11l-4 2-4 2-4 1-3 1-2 2-6 2c-14 6-31 11-34 11l-2-2c-1-2-3-2-6-1-4 1-3 3 1 3l4 1h-13l-5 1h4l4 2h-7c-14-1-20-1-20 1h8l7 1c0 1-1 2-6 3h-7-1c-1 2-10 5-17 6l-7 2-11 1c-15 1-27 3-31 5l-9 1-11 1-12 3-15 2-10 2-6 1-7 1-11 2-16 3a608 608 0 01-116 7l-49 1a3020 3020 0 01-105 3l-56 3a216 216 0 00-77 17c-6 4-9 5-12 4-7-1-18 6-21 13s-2 18 3 22l9 4 4-1c2-1 6-5 6-7s-2-2-5 0c-5 5-13 3-13-2l-1-4-1-5c-1-6 1-9 9-13 3-2 6-2 12-3 6 0 8 0 11 2 4 3 8 8 8 10l2 6c2 3 2 5 2 11l-2 7-1 3c0 2-7 12-9 12l-1 1-5 2c-7 2-18 2-23 0l-6-1c-4 1-11-3-14-7l-3-4-1-1-2-5c-2-4-2-6-2-17 0-13 0-13 3-20l4-9 6-7c11-11 25-19 38-21l9-3c9-3 11-3 14-3l12-2 14-2 5-1 11-1 14-1c9-2 47-4 79-5l45-1 81-2a1383 1383 0 00118-4c3-1 4 0 2 3-1 2 2 6 4 6s3 1 3 2c1 1 1 1 3-1l3-4c0-1-5-5-9-6-1-1 1-2 7-2l10-2 12-1 11-2 6-1 9-1 9-3 15-2c12-3 25-4 26-3l-1 1c-3 2-3 4 0 6 2 2 3 2 4 0 2-1 2-1 3 1h2c1-2-1-5-3-6-2 0-4-3-2-4l9-1 9-1-1 4c-1 6-2 10-5 11-5 2-2 4 6 3 5-1 8-3 4-3s-5-2-3-5c2-2 2-4 2-9-1-2 0-2 7-2h7v4c0 4 3 5 5 1 1-2 2-2 2 1s2 2 3-2c0-2 0-3-2-3l-2-1 1-1 4-1c4-2 18-3 20-1 3 2 2 3 0 3-3-1-3-1 1 4 3 4 5 5 5 2l1-4-2-4c-3-3-1-4 15-5 9 0 16-1 16-2l9-2 10-1h14c0 2 6 1 9-1 2-2 7-3 7-1zM782 66l-1 1c-2 0-2-1-1-2s2-1 2 1zm135 5a219 219 0 0018 1h5c2-1 3-1 4 1l3 6c1 5-1 6-11 6-7 0-9 1-11 2-2 2-4 3-10 3l-9 2-7 2a217 217 0 00-42 6l-11 1-14 2-5 1-7 1-10 3-9 1-7 1-10 2-10 1-9 1-14 3-16 1c-8 0-9 1-10 2 0 2 4 7 7 7l3 3 1 2c2-1 1-4-1-5l-1-3c1-1 2-2 9-2l12-2 14-2 13-2 8-1 5-1 3-1c2 1 18-1 20-3l19-3 38-5h12a538 538 0 0054 3c1 1 6 2 15 2 19 0 18 0 18 1l-6 2c-6 0-8 1-4 2l2 1-2 2c-2 1-5 2-19 2l-20 1c-4 2-13 4-24 5l-14 2a196 196 0 01-30 6l-11 2-12 1-10 1-14 2a363 363 0 01-54 6l-8 1c-10 0-13 0-18 2l-19 2-19 2c-7 1-15 1-18-1-2-1-4 0-2 2l1 2-29 1-28 1-26 2a259 259 0 00-39 3l-24 2c-11 1-16 1-16-1l3-2 6-1 19-1c13-1 16-1 18-3 3-2 4-6 3-12-1-4-2-3-3 3l-2 7c-2 2-4 2-17 2h-14v-5c0-5 0-6-2-8l-3-1 1 1 1 6c0 4 0 5-3 7-1 2-4 3-5 3l-5 2c-4 2-4 2-4-1-1-3-12-15-18-18l-4-3 10-1 10-1 17-2 20-1a599 599 0 0164-4l5-1 39 2 33-3c2-1 9-2 19-2l19-1 1-4c0-2 1-5 3-7l2-3-2-2-3-4c-2-5-3-4-3 2l-2 6-1 3-1 4c-2 1-17 3-27 3l-11 1c-1 2-6 2-60 2a293 293 0 00-60 2 272 272 0 00-44 3l-22 2a315 315 0 01-74 0l-3 2-2 1-6 2c-4 2-4 2-6 0l-2-4-2-2c-1 1 0 3 2 7s3 6 3 11c0 9-4 23-8 25v12l2 7 2 6 1 4 1 6c2 3 3 10 5 18l2 4c1 0 2 10 0 11l-1-2-2-6-2-7-2-5-1-5-1-3-1-5c-2-8-9-26-11-27-2 0-1-3 3-8 6-9 7-12 7-21l-1-11c-5-13-8-17-12-17-2 0-3-1-3-3 1-2 11-6 14-6l6-2 8-3 8-2 14-2 13-1 25-2 28-1a479 479 0 0172-3 6123 6123 0 01186-3l2 5 1 4c2-1 2-7 1-8l-1-3a466 466 0 0073-13l8-1 12-2a358 358 0 0136-6c4-1 19-3 23-2l12 1zm104 3l-14 3h-6c-2-2-3-1-4 2-1 2-16 4-29 4-10 0-12 1-14 2-2 2-6 3-7 1-1-1 0-2 2-4 3-3 4-4 2-6l-2-2h72zM105 99c-1 1-4 1-4-1l2-2 3 1-1 2zm5 2l-1 2-2-2h3zm45 0c3 0 2 2 0 2-3 0-4 1-3 4 0 2 1 2 3 2 2-1 2-1 2 1l-1 3-1 4c0 4-10 18-13 19-1 1-3 0-5-1-3-2-7-3-7-1l6 5 1 1c0 2-2 2-4 1-3-1-8-7-6-8l1-2c0-2 1-4 3-5l4-6 7-8 4-7c0-2 1-2 2-2l1-1 4-2 2 1zm-30 6l-2 2-1 1c0 3-2 3-4 2-1-2-1-4 1-4l2-1 3-2c2 0 2 0 1 2zm861 6l-5 1c-6 0-8-1-6-2 1-1 9 0 10 1zm-828 19l-1 2h-1l-1-2 1-2 2 2zm13 2c4 4 5 7 3 7l-4-2-5-2c-2 0-3-1-2-4 2-4 4-4 8 1zm248 0l-1 1-2 2c0 2 0 2 8 1l22 1c1 1 9 0 13-2h5l8 2c4 0 6 1 9 3l5 3 13 15 4 6-1 12v14l-2-1c-2-1-2-1-2 2 0 4-1 6-5 6l-4 3c-2 4-3 3-4-3l-2-7-1-3-1-2-1-3v-4l-2-2-2-3c-15-8-29-6-40 5l-2 3-1 2-3 5-2 3v-5c0-3 1-5 5-10l11-9c5-2 7-3 13-3 5 0 8 0 9 2 4 2 6 0 2-3-2-2-4-2-12-2-6 0-9 0-10 2l-3 1-2-1 1-2c2 0 1-5-1-7s-4-2-6-2c-4 0-4 2-1 3s4 4 3 6v4c2 1 1 2-5 7-6 6-7 7-7 11l-1 7-2 12-1 11v2l1 5c1 6 3 3 3-6l1-20 1 6 1 13 1 20 2 16 2 14 2 13c2 1 2 2 1 5-1 5-1 5 2 7l2 4c-1 3 1 3 3 1l2-1 2 1 2 1 3 2 3 1 3 2c1 0 2-1 1-2l-1-1-3-2-3-1-3-1c-1-2-4-4-7-4-1 0-2-1-2-3 0-3 3-10 5-10l1-1 3-1c3 1 3 1 3-1-1-3 2-4 3-2 2 3 4 1 4-1-1-2-1-2 1-2l4-2c1-2 8-2 11 0 2 1 4 2 6 1 3 0 4 0 8 4 5 4 8 7 10 13l2 5 1 4c-1 3-1 3 2 2s3-8 1-11l-2-4-3-7-3-5 7-3 7-3 4-1c3 0 12-10 12-14 1-12 1-13-2-17-3-8-4-9-7-12s-3-3-2-4l13-6c11-4 15-5 21-2l11 11c1 3 1 9-2 15-2 4-3 5-6 5s-5 2-2 2c4 0 3 3-5 11a180 180 0 00-22 24l-3 4-4 9-5 8-2 3c-2 2-3 2-4 0-2-1-2-1-2 1 2 6 2 7-2 13l-5 8c-1 1-2 1-5-1l-4-3-3-1-5-3-6-4c-3-2-3-2-4 0h-5l-5-2c-4 0-4 0-4 3l-2 3c-2 1-8-3-8-5s1-2 5-2c3 0 4 0 3-1l-2-1c-2 1-5-1-5-3s-1-3-2-3c-2 0-2 0-1 4 0 3 0 4-2 4l-4-3-4-3c-3 0-8-3-7-4l3-1c4 1 5 0 2-3l-2-3-4-1c-4 0-4 0-5-2l-1-7-4 3c-4 4-4 4-6 1 0-2-2-3-3-3-2 0-7-3-7-5l3-1 3-1-1-2-1-1 2-1 1 1 2 1 2 2c1 2 6 5 7 4 1-2-3-6-6-7l-4-2v-7l-2-8c-1-3-2-5-1-8 0-2 0-2 2-1l1 5 1 3 1 6c0 5 2 8 3 4l-2-13-1-5-1-3-2-5c-1-8-5-22-8-27l-1-6-1-5-1-6-2-8c-2-3-2-8-1-9 2-1 6-10 5-13l2-4 1-9c-1-6 1-10 3-9 1 1 3 0 4-1 1-2 4-3 5-3l4-2h2zm463 0a572 572 0 0074 3c3 1-1 2-13 2l-14 2-1 3 1 3h-11l-19 3-10 1-6 1-9 2-12 2-16 1-14 1-8 2a370 370 0 00-44 6l-10 1-12 2a735 735 0 00-64 8c-8 1-12 1-16-1-6-1-9-1-5 2 2 2 2 2-9 3l-18-1-12-1-10-1c-4 0-4-1-5-3l-4-8c-2 0-1 4 1 6 2 3 3 5 1 6s0 2 3 2l5 1c2 1-16 2-29 1-5 0-6 0-6 2l-4 1c-4-2-5-3-3-6 1-3 1-6-2-9s-4-1-2 2c2 2 2 3 1 6-1 2-1 3-6 3l-9 3h-9c-8-2-8-2-8-4 1-3 0-7-2-7l-1 5c0 4 0 5-2 6-3 0-2 2 2 2l3 1c0 2-23 2-24 0h-6l-3 1-4 2c-5 2-6 0-3-6v-8l-1-7v-4h22l23-1 17-2 17-1 14-1 19-1c14-3 24-3 33-2h13c13-3 32-5 45-6l31-3h19c0-2 0-3 15-4a332 332 0 0052-6 205 205 0 0037-5h18zm83 4v3c-1 1-1 1-3-1l-2-2h5zm17 2l-6 1-7-1c0-2 10-2 13 0zm-44 3l-1 2c-2 0-4-2-3-3 0-1 4-1 4 1zm-744 3l-5 8c-2 0-1-5 1-7 3-2 3-2 4-1zm31 17l-1 1c-2 2-7-2-6-4 1-1 7 1 7 3zm650 1l7 3c2 2 3 3 3 5-1 4 0 4 3 2 2-1 3-4 0-5-5-2 5-5 18-5 10 0 16 2 15 5s0 4 2 2l1-4v-3h10a124 124 0 0136 5l2 1-5 1c-4-1-5-1-5 1 1 2-5 3-25 3l-18 1-15 1c-9 0-15 1-17 2l-19 1-18 2-26 2a476 476 0 00-72 4l-39 3-27 1c-20 1-29 1-32-1l-21-1-22-1c-3-1 2-2 11-2a82 82 0 0019-2h8a322 322 0 0042-3c4 0 4 0 4 2 0 3 1 5 4 4 2-1 3-3 1-4-2-2 0-3 4-3l11-1a277 277 0 0140-7l9-1 12-2 11-1c3 1 9 0 14-1l14-2 11-1c5-2 44-3 49-1zm-640 6l-3 3c-3 1-4 1-2-3 1-2 4-3 5 0zm743 0c1 1 1 1-1 1l-3-1h4zm-730 11l-1 5-1-1-1-4 1-3c2 0 2 1 2 3zm15 7c0 1-1 2-3 1v-1h3zm340 0c2 1 2 1-2 1-3 0-5 0-4-1h6zm-329 4l-2 1c-2 1-3 0-1-1h3zm902 6l3 4 3 4c1 2-1 7-4 7s-9-4-9-7l-1-1c-1 0-1-3 1-6 1-3 4-4 7-1zm-885 4c4 1 10 7 8 8-2 2-6 0-10-5-4-4-5-7-2-5l4 2zm281 2l-2 1c-2 1-2 1-1 2h10l4-1c1 1 1 1-1 2-3 1-2 2 2 5h5c1-1 2-1 4 1l1 2c-2 0-1 3 2 5l2 4 2 2 3 3c1 4 1 4 2 1l2-4 1 2c-1 2 1 3 3 2l3-1-1 2c-2 1-1 2 3 2h3l4 2 4 4 2 2 12 7-1 1c-1 2-1 2 1 2s3 1 4 3l2 5v3c0 3 1 5 2 2 1-2 4-1 4 1l-1 2c-2 0-4 5-3 6 2 2 0 4-4 4h-3l2 1c2 1 3 2 3 4l-3 1c-3 0-3 0-2 1l2 3c0 3-7 11-9 11l-3 3-2 2-4 3c-2 2-3 2-7 3l-6 1-5 2-13 5-4 1c-2 0-1-3 1-3 2-1 3-3 1-4-3-1-5 2-5 5s-1 3-6 4l-6 2-3 2-3 1-3 2c-2 0-2-1-2-4 0-4 5-9 7-8l5-3 4-3-4-1h-7c-1-1 1-5 3-5 1 0 2-1 2-3l4-4 3-3 1-2 5-4c4-3 5-6 7-10l3-7 2-4c2-7 2-9 4-10l4-19-2-3c-2 0-4 7-4 15l-1 6-2 4c0 3-4 8-7 8-2 0-3-1-3-2l-4-1-4-2c0-2-12-2-12 0l5 2 6 1 5 2c2 0 3 1 2 3l1 2 1-1 2-1c2 0 3 4 1 5l-2 1c0 2-5 8-7 8l-8-3-3-1c-1 1 2 4 5 5 2 0 3 2 3 3 1 2 1 2-2 2-3-1-3-1-2 3s0 4-3 4-4 1-3 3l-2 4c-3 2-4 1-9-3l-6-4-4 4c-3 4-4 5-5 2 0-3 0-3-2-2-1 1-3 1-3-2 0-2 4-3 5-2 2 1 6 0 6-1l-2-2-1-2c0-2 4-5 6-5s2-1 1-2l3-7 3-9 1-5c2-1 2-3 2-6v-6h11l11-1 5-4c4-3 6-5 7-8 2-5 1-11-1-11l-1 3c0 3-1 4-5 8-4 3-8 4-16 6l-10 2-5-1-4-1 5-7c7-7 9-12 7-19-1-5-3-8-9-12-3-2-3-4 1-4h13zm596 6c5 5 5 9 1 13-6 5-11 4-14-4-2-5-2-8 1-12 3-3 8-2 12 3zm-115 0c3 3 3 7 0 7l-4-1-2-1c-2 1-2 2-1 5s0 4-1 4c-3 0-5-1-5-3h-5l2 2c3 1 3 2 3 7 0 4 0 5-2 5s-3 3 0 3l1 4c1 4 2 7 4 6 1-1 0-11-1-13-2-3 0-7 3-7s5 2 5 5c0 2 0 3-2 3s-2 1-1 5c0 6 3 9 5 8 2-2 3 0 3 4l-2 6v3c1 1 1 2-2 5-1 2-3 4-5 4l-3 1c-1 1-5 0-6-3h-5l-4-1 1-3v-6l-1-6c1-5 0-6-1-6-2 0-2 0-2 7 1 5 1 8-1 10-1 3-1 3 1 5l3 1 3 1c1 1 2 2 4 1 2 0 2 0 1 2-1 3-3 5-5 5s-3 2-3 6l-1 3v6c0 5 0 6-3 9l-6 4c-3 0-10-6-11-10h-2v3c4 4 3 12 0 13s-2 3 1 4c2 0 9-3 10-5l5-1h4c1-2 3 1 3 4l1 3c1 1 1 0 1-2l2-5v-16l1-10c0-4 1-5 2-6l3-2 5 10 1 1h2l1-3 1-4 1-5c0-3 0-4 2-4s4 2 4 6l4 7 1-25c0-8-2-18-4-20l-1-4c0-3 0-3 2-3l4 1 6 2c7 2 12 7 8 9-1 0-2 3-2 13s-1 15-2 17l-1 4-3 8-3 7c1 1 5-4 6-7l1-5c4-7 5-14 5-24s0-11 2-11l1 3 2 3 3 2-1 1c-2 2 0 6 2 6l2 2-2 1-2 2-1 4c-1 2-1 2 1 2l2-2 1-2v17l-5 2c-4 0-7 6-3 6l2 1c2 2-1 4-4 4s-5 3-4 6l-1 1-1 2-1 2c-3 0-3-2-2-4 2 0 2-1 1-1s-6 4-5 5l-2 1c-2-1-3 0-3 4 0 3 0 3 3 3 5 0 16-4 19-6 5-3 9-9 12-16l2-17c0-12-1-18-5-23l-2-3-4-6-4-6 11 1 17 2c7 1 7 1 7 3l2 3 7 6 6 4c2 0 2 0 1 1-2 2-1 3 2 4l5 3c2 2 2 2 0 3-2 2-1 2 3 3 2 0 2 1 2 2 0 2 1 4 3 5 3 3 2 5-1 6-4 0-4 1 0 1l4 1 2 5c1 2 0 3-1 4v2l2 9c0 7 0 8-2 8l-1 2c1 1 0 2-2 4l-2 4c0 2-1 3-3 4l-2 2c0 2-7 8-9 8l-1 2c0 2 0 2-3 1-2-1-4 0-8 2-7 5-12 5-19 2-5-2-6-2-19-2l-16 2h-4c-2-2-2-2-2 2v5l3-1 4 1c0 2 0 2 1 0l4-1h9c1-1 1-1 3 1l2 1c0-2 3-2 4 0h7l3 1c3 1 4 3 1 4l-2 2c2 2 3 1 5-2 1-3 4-4 4-1l3 1c1-1 2 0 3 1l3 2 5 3 6 5 3 4 1 1 2 2 1 2 3 2 1 2v3c-1 2-1 2 2 4l3 2c3 0 4 2 3 5-1 5 0 9 4 9 2 0 2 1 2 2-1 2-6 3-11 1-3 0-4-1-5-5-1-6-3-8-7-8-3 0-4-1-5-5-1-1-2-2-3-1v1c1 2 1 6-1 8v2l1-1c2-2 4-1 4 2 0 1 0 2-2 2l-3-1-3-1c-14 0-20-1-17-4 2-1 2-2 1-4-2-3-3-3-3 1 0 2 0 3-2 3s-2 0-1-4c0-4 2-7 3-7l7 7c0 1 2 2 3 0l2-1 2-1 4-3c2-1 3-4 0-6s-16-6-21-6l-6-1-6-2-6-1-9-2h-8v3c0 2 1 3 3 5 3 2 3 5 0 5-2 0-5-3-4-5h-3l-6-1c-2-2-2-2-2 3v4h5c6 0 8 1 8 6l2 5 2 3c3 0 2 2-1 4-3 1-3 1-6-1l-3-3-2 2-2 2v-2l-4-2c-2 0-2 0-2-4 0-3 0-4-3-5-3-2-3-2-3 0l-1 4-2 6c0 5-1 6-3 7-5 1-7-3-3-8l2-4 2-1v-1h-2-5c-1-3-5-1-6 3s-5 6-8 4h-1l-3 3c-2 0-4 2-5 3-1 3-6 5-7 3l2-4c5-4 6-10 5-20l-1-9-1-2-1-4-2-5c0-2-7-10-11-11l-2-4-6-4-7-4-3-2-5-1c-4-2-4-2-7 1-2 3-2 4-1 4h2c1-2 5-2 6 0l3 1c2-1 3-1 6 2l5 4v2c0 2 2 3 6 3 2 0 3 1 3 3 0 1 1 2 3 2l2 3 2 6c3 6 4 10 4 17 0 6-1 7-2 8l-2 4c0 2-1 4-3 5-2 2-3 2-6 2h-4c0 3-3 4-4 2s-2-2-4 0c-5 2-6 0-4-5 2-4 2-4 0-5-3-1-3-1-3 2-1 3-4 6-8 8-4 1-5 1-5-3 0-3-2-3-4 1-3 4-4 5-5 3l-3-1-2 1 2 1c3 0 0 2-4 2-6 1-6 0-1-5 8-7 9-9 9-20l-2-11-4-5c-6-10-7-12-18-16l-5-4-4-2-5-2c-1-2-3-3-5-3-3 0-3-2 0-3h6c4 1 9 0 11-2l11-1 9-1c0-1 4-1 5 1l2 1 1-1c1-3 3-2 3 0l1 2 1-1 2-1 2-1c1-1-2-5-4-5-4-1-9-7-9-10 0-2 0-2-1-1v5c0 3-2 6-6 8-4 0-10-4-11-8-1-3-2-1-2 4 0 3 0 4-3 5l-5 2c-2 1-6-1-9-6-2-2-2-4-1-8 1-6 3-9 7-9 3 0 5 1 7 3 3 2 3 3 4 1l3-4c1-2 2-3 4-3 3 0 9 3 9 5l3-3c3-5 8-8 11-8l5 2c4 3 6 3 7-2 0-4 4-6 10-6 4 0 5 0 7 2 3 3 4 3 4-2l1-5c3-2 9-3 13-3 3 1 4 1 4-1 2-3 7-7 11-8l4 1c3 2 5 0 4-2s-1-2 1-4l3-2 1-2c0-2-1-1-6 1l-7 3-3 1-3 2c-2 0-2-1-2-3 1-5-1-17-4-23-2-5-8-12-17-20-4-3-4-3-3-4l11-3c8-1 10-1 11-4 2-2 3-2 7-1l4-1 2-3c4-2 5 0 4 5-2 6-1 14 0 14l2-1c0-1 7-9 9-9 2-1 2-1-1-3-3-1-4-2-4-4s1-3 3-2l3-2c3-2 5-3 6 0l2 1c3-1 2-3-1-4s-2-3 3-5c6-2 6-2 9 0zm15 4c3 1 4 2 5 5 0 3 2 5 3 3 4-7 12-5 15 2 1 3 3 3 5-1 2-3 3-3 7-3s5 1 7 3 3 3 2 8c0 6-2 9-8 9-3 0-4-1-6-3-3-4-5-4-7-1s-9 3-12 0l-3-4c-1-3-4-4-6-2s-4 2-8 0c-7-4-8-7-5-13 2-5 5-6 11-3zm119 1l2 5 2 4 1 4 2 4 1 3 1 5c2 4 4 15 4 22 1 4 0 6-1 8-2 1-2 2-1 4v4l-2 4-3 5-4 4c-2 2-9 4-12 4l-3 1-1 1v-3h-3l-4-1-3-1c-2 0-3-1-5-3l-1-5-2-3-1-2c0-2-10-14-15-18a194 194 0 01-16-13l-4-3c0-2 5-4 8-4 6 0 22-3 28-6 10-4 13-6 16-10l5-5 5-4c4-4 4-4 6 0zm-436 0c7 2 8 3 5 5l-1 2 1 3c0 2-3 1-6-2s-4-3-8-3l-6-1 2-3c2-2 5-3 13-1zm400 3c3 3 3 4 3 8 1 6-2 9-8 9-5 0-9-1-10-5-1-2-3-2-3 1 0 4-2 6-7 7s-8 0-8-2l-2-4c-2-1-2-3-1-5 1-6 2-7 7-7 4 0 5 0 7 2 3 4 4 4 5 0 0-3 3-6 6-7 4-2 7-1 11 3zm-638 2l2 3 2 3c4 2 4 4 2 6-1 2-1 3 2 3 2 0 3 3 1 4-2 0-2 1-1 2s1 3-1 7l-3 5-4 2c-2 3-2 3-5 2h-4l-3 2c-2 0-3 3-1 4 4 2-7 3-12 1-8-5-17-6-22-3h-7c0 2-4 5-5 5-3 0-2-2 8-12a96 96 0 0125-20 917 917 0 0123-16l3 2zm-197 5c1 2 0 2-3 0v-1l2 1zm11 0l-3 4-2 1-2 1 1-2 1-2 1-2h4zm552 5c2 0 3 1 3 2 0 3 3 4 5 2 1-2 1-2 3-1l6 1 4 1 7 2c5 0 6 1 9 4s4 4 7 4l3 1 8 4c3 0 3 2 0 3-3 2-2 3 5 3 6 1 7-1 3-5l-4-4c-3-2-2-3 2-3 5 1 6-1 2-3-5-3-4-5 3-5l9-1c3-2 6-3 6-1l-5 3c-5 2-6 5-1 5 2 0 3 0 3-2 0-1 1-2 3-2s2 0 2-2c-1-3 1-5 2-2l3 1c4 0 8 2 9 5 1 4 3 4 3 1l1-2c2 0 5 4 5 5v1c2 0 8 4 8 5l2 3 4 9 1 3 1 3v8h-1v5 2c1 1 1 2-1 3l-4 2-8 2c-21 11-21 11-19 1v-8l-1-4-3-7-4-5-3-4-4-4-3-2h-4c-2 2-1 4 1 5l3 3 2 3 2 2 4 7c3 4 4 7 4 9-1 1 0 2 1 2l1 2c0 2-3 4-5 3h-2c-1 0-1 1 1 1s4 1 4 3c0 3-2 5-9 6l-9 3c-8 3-11 4-17 4-5 0-6 0-6-2 0-1 2-2 5-2h5v-5c0-3 0-5-1-4l-1 1c0 2-4 6-8 7-3 0-3 1-3 5-1 2-1 3-5 3-3 0-14 2-18 4l2 2c5 3 6 6 5 14 0 5 0 6-3 7-4 2-10 0-13-4l-3-3-2 3c-2 3-3 4-8 4h-5l-3-5c-3-6-3-8 1-13 1-2 3-3 5-3 3 0 9 3 9 4l1 4c1 3 3 3 3 0 0-4 4-9 7-9 2 0 3-1 1-3l1-3c9-6 12-8 13-11l1-3 1-4c3-4 4-14 2-19-3-7-5-10-9-15-6-7-24-25-28-27-4-3-5-5-1-5l7 2zm-526 15c1 1 0 5-1 6l-6-4c0-4 5-5 7-2zm207 7c0 3-2 7-4 7-2 1-2 1-1 2l1 3c0 4-7 20-9 20l-2 3c0 2-1 4-5 7-3 2-5 5-5 6-1 1-2 2-3 1l-5 3-5 4-2 2c-2 2-2 2-5 0-2-2-3-3-2-5l2-4 1-4c0-2 3-5 5-5 3 0 3-1 2-4s-1-3 2-7l3-5 2-1 3 1c0 1 4 1 5-1l3-1c1 0 3-5 1-6h-3c-2 2-3 2-3 0 0-1 6-8 8-8l4-2c1-1 3-2 4-1 2 0 2 0 2-3-1-3-1-3 2-3l4 1zm-196 4c0 2 0 3-4 0l-1-2c3-1 5-1 5 2zm145 4l-2 1-2-1 1-1 2 1zm-132 3l3 1c2-1 2-1 1 1 0 2-3 3-4 1 0-1-1-2-3-2s-3-1-1-2c1-2 4-1 4 1zm19 9c-1 2-4 2-4 1l2-2 2 1zm812 7l1 9v4h-1l-1-2v9c1 1 0 2-2 7l-3 7-6 6-4 2c-4 1-6 1-6-1s0-2-3 0c-3 3-7 3-8 0 0-3-5-5-6-4v4l2 6-2 6c0 9-1 12-5 16l-1 3c0 1-5 7-7 7l-4 3-8 3c-4 0-5 0-7-3l-2-3v2c0 2 1 4 4 6s5 3 10 3c4 0 6 0 8-2l4-2 2-2 2-4c3-2 7-8 7-11l2-6c1-3 1-10-1-14 0-3 3-3 6-2l6 2c2 0 4 4 5 8 0 2 3 1 5-1v-4c-2-1-2-1 2-4l4-4c1 0 7-10 7-14 2-7 3-2 3 12l-2 18-2 3c0 3-2 7-5 9-1 2-2 3-1 4 3 3-13 25-17 23l-2 1v2l-9 2c-7 1-7 1-11-1s-4-2-6-1c-5 4 3 8 15 10l8 1c2 0 3 0 5-2l3-2 6-7 8-10 3-3v6c0 5 0 6-2 7-1 0-2 1-2 4l-2 4-2 3-1 2c-2 0-8 7-7 8 2 2 5 1 8-3 4-5 5-6 5-3l-3 15c-1 1-9-1-9-3l-2-3h-6c-3 2-7 1-9-1-1-2-3-3-5-3-3-1-3-1-3 1 0 3 2 4 5 4 2 0 3 1 4 3 2 3 1 4-1 6-2 1-2 1-1 2h7c2 1 3 0 5-4 1-4 5-4 7 0l5 3 3 2c1 3 0 8-3 10l-3 2-2-3c-3-2-4-3-8-3-5 0-10-1-15-5-3-2-4-6-3-7 2-1 1-2-2-4-4-2-5-2-4 1 1 2 1 2-1 3-1 1-2 0-3-3-3-5-2-6 1-6 4-1 5-4 2-5-6-4-11-8-14-14l-5-9-2-2c0-2-10-11-16-15l-5-4 8-3c8-1 19-5 19-7l1-1c3 0 11-9 15-18 2-4 2-7 2-17l1-13 3 2 8 5c4 2 6 2 10 1 7-1 11-3 14-7l3-4 4-10 3-10c1-3 1 0 2 7zm-792 8c3 0 2 2 0 2h-2c-2-3-1-4 2-2zm5 13l8 4 5 4 4 3-1 14-2 15c-1 4-4 4-6 1-1-2-2-2-4-2-3 1-4 0-5-12l-3-15-1-7-1-5c-2-2-2-5 0-5l6 5zm134 4c1 1 1 1-1 3-1 1-2 1-2-1-1-1 0-4 1-4l2 2zm-12 4l13 8s2 1 2 3c2 2 2 9 0 13l-1 4-1 5-2 9c-3 12-4 13-7 20s-5 9-8 6l-3-1c-1 1-2 0-3-1-1-2 0-8 2-9l1-3 2-4 1-4 2-5 1-5 2-3c1 0 2-4 0-4-1-1-5 4-5 7l-1 5-5 12c0 3-1 4-5 9-2 2-4 2-4-1 0-2-1-2-3-2s-3 0-3-2l-1-2c-1-1-2 1-2 4 0 2-3 4-6 4-2 0-3 0-3-2l2-4 1-4 2-7c2-5 1-8-2-6h-4c-1-2-3 0-1 1 2 2 1 6 0 8-2 2-2 2 0 3 1 1 2 4 0 4l-2 3-2 2-2 1 3 10c1 1 6-3 6-5h10c6 1 7 1 7 3l2 3 1 2 1 1v-2c-1-4 2-5 7-1l6 3 4 3c2 2 3 3 3 6l1 4c1 0 2 2 2 6l1 8v4l-1 4-2 4-3 2 3 3 3 4 3-6c3-8 3-22 1-24l-2-4-1-4-2-5c0-3 0-3-3-4-4 0-4-5-1-6 2-1 3-1 2-3l1-3 2 1c0 3 3 5 6 4h3l-2-3-4-2c-3-1-2-3 1-6 2-3 3-5 1-6-1 0 1-3 3-3s1-2-1-5c-3-4-3-9 1-14 4-4 5-5 9-2 2 1 3 1 3-5 0-2 1-3 5-5 5-2 10-3 11 0 1 1 1 1 3-1l4-5c2-3 7-3 10 0 2 3 3 2 4-1s6-7 8-7l4 1 3 1 2 3c0 4 1 6 2 5l1-4c0-4 3-9 5-10 2 0 6 1 9 4l3 3 4-4c3-3 4-3 7-3 6 1 8 3 8 10 0 6 0 7-3 10l-2 4h5c5 0 5 0 6 3l3 3 6 1c2 1 3-1 1-3s-1-2 6-3c4 0 6 0 8 2l5 2 4 1c4 3 12 2 13 0s11-3 19-2l7 1h13l19 2c6 1 8 2 11 4 6 4 9 4 9 1 0-2 1-3 4-2h15c12 0 18 1 18 2l-4 1c-6 2-7 2-6 4 0 2-3 4-4 2 0-2-2-1-2 0 0 2 11 3 13 1h5c2 0 3 0 4-3l1-3c-2 0-1-3 1-3 2-1 3 0 3 1 0 2 4 3 11 3 2 0 4 2 6 4l6 4c2 0 3 1 3 2l9 5c2 2 3 3 2 4l2 3c4 2 3 10-1 12-2 0-2 1-1 1 4 2 0 8-5 8l-4 2c-1 2-5 3-6 1l-3-1c-2 1-3 0-4-2 0-2-9-7-13-7l-5-2-4-2c-2 1-8-2-9-4 0-2-7-3-10-1l-2 3c0 2-3 3-7 3-2-1-3-3-1-5 2-1 1-2-1-3s-3-2-3-4c0-4-1-7-2-7l-1 2c1 5 0 9-2 9l-2 3c-1 2-2 2-6 2-5 0-6 0-6-2 0-3-1-5-4-7-3-1-4-1-4 4-1 3-1 3-7 4l-6-1v-1h-2c-1 2-2 1-2-3l-1-5c-1 0-5 6-5 8 0 3-3 6-5 6l-3-2v-2l-1 2c-1 2-2 2-5 2l-4-1 1-1c3 0 9-10 9-14 0-6-10-21-15-21-2 0-4 2-4 3l4 3c6 2 7 4 5 5-2 2-2 2 0 2 2 1 3 4 1 5v2c2 3 1 5-3 8l-4 3c1 1-2 2-6 2l-7-1 2-3v-2c-4 0-6 1-6 3l-1 3c-2 0-5-2-5-4v-3l-3 2c-2 3-3 3-5 2s-3-1-3 2c0 2-1 2-3 2-7 0-11-1-11-3l1-3v-8l-2-4c-1-4-12-15-17-17-4-2-4-2-6-1-1 2-1 4 2 4l3 1c0 1 1 2 3 2 2 1 2 1 1 3 0 2 0 3 2 2 2 0 2 1 4 4l2 6c1 1 1 2-1 4-1 2-2 4-1 5 1 2-3 2-4 0l-4-1c-2 1-3 3 0 4v1c0 1-8 1-12-1l-7-1-6-2c-4-2-16-4-16-2 0 1 7 6 8 5l1-2c0-2 3-1 3 2l2 2c2 0 2 8 0 10l-2 3-1 3c-2 2-2 2-4 1-4-2-5-1-2 2l2 3 3 1h6c2 1 2 2 2 4l1 5c1 1 1 1-1 2-2 0-3 1-3 2 0 2 1 4 3 4 4-1 6 0 9 3l5 3 2 2 1 2c3 0 5 4 4 5s0 3 1 5c2 3 2 4 1 4-2 0-7-5-8-8-1-2-1-2-5-2-6 1-7 2-5 4s2 2 4 1l3-1c1 1 1 2-2 4l-4 4c-2 0-2 1-2 9-1 6-1 8-4 8l-3 1c0 1-1 2-3 2l-2 2-3 1h-7c-2-1-2-1-3 1l-1 3-1-2c-1-2-2-2-3-2l-4-1c-1-2-7-2-7-1l1 2c1 3 7 6 15 7 10 2 13 1 16-2l7-5 4-3c2-2 2-2 3-1l1 7c-1 10-2 12-4 15l-2 4-2 3-2 4c1 2 0 5-1 5l-4-2c-2-3-2-3-3 2-1 3 1 4 3 2 2-3 1 1-1 4l-3 3 3 1c4 1 3 2-2 5-4 2-5 3-3 5s3 5 1 5c-1 1-5-4-5-6l-1-1 1 11 2 3c0 1-8 9-10 9s-5 3-5 4l4 1h3c0 2-6 8-9 9l-3 2-4 1c-3 0-4 1-4 3v2l8-4 3-1c3 1 3 3 0 3-1 0-2 1-2 4v6l-1 2-1 5-2 7-2 5-2 4-2 4-1 2-2 3-1 3-2-2-3-4c0-3-1-2-4 0s-2 5 1 5l4 2 3 2c3 0 2 3 0 4-2 0-4 0-5-2l-6-1c-4 1-7 0-13-4-2-1-4-2-5-1h-4c-1-1-1-1 1-2 1-2 1-2-1-2-3-1-5-5-5-8h-7l3 3c2 1 3 6 0 5l-3-1-2-2-2-5-2-2-1 2h-3c-2-3-8-7-9-5-1 3-3 4-6 3-4-2-4-3 0-4 3-1 3-2 2-4l-3-4c-4 0-5 1-4 3l1 3c0 2-3 1-4-1v-11-2c-3-2-1-4 2-4 4 1 5-1 2-3-3-1-5-5-3-7 2-3 4-2 8 1l3 3 3-3 12-12c3-3 5-9 4-11l-3-1c-2 0-2 1-2 5 0 5 0 6-3 8l-3 4-2 1-4 2c-1 2-2 2-4 1l-2-3-1-1v-1c2 0 6-2 6-4 0 0 1-2 3-2 3-2 4-5 0-4l-4 1h-2c-1 0-1-8 1-9 2 0 4-6 4-9l1-3 4-1 4 4 3 6c0 2 1 3 3 1 0-1 5 0 8 2 2 2 3 2 6 0 5-4 3-7-4-7-6-1-10-4-13-10-2-4-2-4-3-2 0 2-3 3-5 1-3-2-2-5 1-5l1-2c0-3 3-7 4-5l1 2c0 2 1 3 3 2v-4c-2-4 0-5 4-2 4 4 6 4 6-2-1-5-1-6-5-4l-5 2-3 1-3 2-2 2h-2c-3-2-1-5 3-8 5-3 6-5 6-8s3-3 6-1 6 3 6 1l-3-2c-2-1-2-1-1-3 3-2 2-3 0-3-2-1-3 0-4 1l-4 1-3 1-1 1 1-3v-4l-2-3-2-2-3-2-4-1c-2 0-2 0 0 2 1 2 2 3 4 3 3 0 3 2 0 3-2 0-3 1-3 2-1 2-7-3-7-6l-2-2-6-3c-5-3-5-5 0-6 2 0 4 0 5 2 2 2 3 3 4 2l3-1c3 0 7-2 7-4l-4-1c-3 1-16-3-21-5-3-2-4-1-3 2 2 4 0 5-5 1-6-4-6-5-2-5 4 1 4-1 0-3l-4-2-4-1-2-1-3-2-5-3c-2-2-2-2 3-1 4 2 5 2 6 1 1-2 1-2-3-4l-6-2-8-2c-5-3-6-4-2-9 1-2 1-2-1-4l-3-3-1-3-1-3c1-2 14-4 17-2 2 2 6 1 7-1 2-3 3-4 7-4 2 0 3-1 5-4s3-5 3-10l-1-6-5 6c0 2-2 8-5 11-1 2-3 2-7 2l-6 1c-1 2-4 1-5-2-1-1-2-3-4-3s-3 2-1 4-1 1-4-1c-2-1-3-2-3-5l1-3 6-6c0-1 3-5 6-6 1-1 2-2 2-5l2-9 4-10 2-5 1-4 1-3h7c1 3 6 3 6 1l3-4 4-3 3-1 1 5c-1 4-1 4 1 4s2 0 2-4c-1-4 0-5 2-9l3-5 14-19c2-2 7-3 8-1zm21 2c3 3 3 3 2 5s-2 1-3 0l-3-2c-2 0-3-1-2-4 0-3 3-3 6 1zm116-2l4 2c2 1 2 2 2 9 0 9-2 12-9 12-5 0-7-2-9-6-1-4 0-12 3-15s5-4 9-2zm23 2c4 1 5 5 5 11-2 10-2 10-6 10-10 2-13-2-13-12 0-6 0-6 3-8 4-2 6-2 11-1zm23 2l4 5 2 3 3-4c2-2 4-3 7-3s4 0 7 4l3 6c1 1 1 1 2-3 2-3 3-4 6-5 4-1 10 0 13 3 2 3 1 10-1 14-2 3-7 6-10 6l-8-8-3-3-2 3c-1 3-3 4-5 4-5 2-9 0-10-3l-3-4c-2-1-2-1-3 1-2 3-8 6-10 6-2-1-2-1-2 1s-1 2-3 2l-3-1 1-1 3-1c1 0 1-1-1-3-3-2-3-4-3-9 0-6 2-12 5-12 3-1 9 0 11 2zm-252 0l1 2 1 1-6-4c0-2 3-1 4 1zm-27 3l2 1 6 3 5 3 1 1 5 3 8 5 9 6c3 1 4 4 3 8l-3 5-1 3-2 3c-3 2-4 1-4-1s-10-11-15-13h-8l-5 1-6 4-4 3c-2-1-1-7 2-11l3-4 7-3 4-1c2-1 2-1 1-2h-7l-7 4c-1 0-2-20-1-21l6 3zm68 0l2 3-2-1h-5c-1 1 0 2 1 3v1l-2-1-1-1c-3 0-2 2 1 5 2 3 2 3 1 4l-4 1-2 1c0 1 1 2 5 1l4 1c0 2-5 3-7 2l-5-2c-5-3-6-5-3-7l2-4 3-2c2-1 3-2 3-4 2-4 2-4 5-3l4 3zm277 3l2 3 2 2h3l2-3c2-2 12-3 14-1 3 2 4 12 2 14-6 7-6 8-13 7-2 0-3-1-5-4l-2-5c0-3-2-2-3 0-1 4-6 7-10 7s-4 0-6-4-3-10-1-12l3-3c1-3 2-3 5-3l7 2zm45 3c3 2 3 18 1 18l-7 1c-8 1-10-1-10-9l1-9c2-3 2-3 8-3 4 0 6 1 7 2zm22 1l1 8c0 7-2 10-9 10-3 0-4 0-6-3-4-5-4-11-1-15 2-3 3-3 7-3 5 0 6 1 8 3zm-371-1l3 1c2 1 2 1 1 3l-2 3-1 4c-2 2-3 3-4 2-3 0-3-1 0-6l1-6c-1 0-1-2 1-2l1 1zm29 4l-1 2c-1 1-3-1-2-3s3-1 3 1zm-17 16l-1 1-2-1 2-1 1 1zm294 1l-2 1c-3 0-4-1-2-2s3-1 4 1zm80 1l15 2 6 3 4 2 3 1c1 0 3 1 3 3 1 2 2 2 5 2s4 0 4 2 8 7 13 9c3 0 4 3 2 3l-2 1 5 2c3 0 4 2 2 4-2 1-3 4-1 4l2-2c3-2 4 0 4 7s-1 9-4 9h-2l-1 2c0 2 0 2 2 2 3 0 2 3-1 4l-4 2-4 2-5 3h-9v-1c2-1 1-6 0-7h-3l-3-1c-2-1-7-1-7 1s3 4 6 4l3 1-6 1c-6 0-6-1-5-5 1-2 1-2-1-2l-2 2c0 2-1 2-4 2l-4-1 4-4 2-2 2-2c2 0 5-3 4-4l-5 2-5 3-4 2c-4 3-4 2-1-2l6-11c5-11 4-15-8-28l-8-6-5-1-11-4-3-1c-1-1 0-2 4-3h18zm-412 6l5 4 3 1c2-1 2 0 3 3l2 4c4 1 4 1 2 5-4 10-6 12-8 13l-2-1-9-5-6 4-4 4-5-5-6-7c-2-6 2-17 7-17l3 1 1 1v-1c-2-2 0-4 4-5 5-1 5-1 10 1zm-36 21c-3 2-4 3-4 1s4-4 5-3l-1 2zm-46 3c4 2 5 5 3 5l-2 1h-3c-2-1-2-1-4 1-2 3-1 4 3 4 2 0 3-1 3-2 0-2 1-1 3 1l4 2 1 1c0 1-18 2-21 1v-3l-1-2-1 3-1 1-1 2c-1 2-1 2-3 2-3-1-4 0-1 3s1 4-1 4l-3-1c0-3-2-5-6-6l-4 1 2 1c4 1 6 2 6 5l2 3c1 0 2 3 0 4l-3-2c-2-2-3-2-9-2h-7v-4c0-3 1-4 2-5l1-3c0-4 4-7 5-4l7-2c7-3 11-6 11-9l2-2c2-3 11-2 16 2zm19-2c2 1 5 1 6 3l5 4c2 2 2 2 1 5-2 4-6 5-8 2-2-2-2-2-1-3v-3l-1-2-1-3c-1-1-1 0-1 1l1 4c2 1 1 3-1 3l-2 1-3 1c-2 0-3-1-3-2l-1-5-2-4c0-2 3-3 6-2h5zm21 2c-1 2-1 3 1 4v1l-2-1-3-1c-3 0-4-1-4-3s1-3 6-3c2 0 2 0 2 3zm362 3h-2c-1-2 0-2 1-2l1 1zm-339 6a48 48 0 0111 13l4 6v11l-1 11-9 1-7 1-4-7-8-9-12-9-2-1-3-2c-3 0-4-2-1-4l4-2 5-3 6-3 4-3c4-3 6-5 8-5l5 4zm22-1c3 1 2 6-1 9-4 5-5 5-7 2-2-1-3-7-1-10 0-2 6-3 9-1zm626 1c5 2 5 3 1 4-3 0-3 0-3 11l-1 5-5-1-7-1h-2l-3 2-7-13c0-3 4-5 8-5 4 1 5 1 5 4 0 4 0 4 2 3 2 0 6-7 6-9s1-3 6 0zm-690 9l-3 3c-4 2-1 3 4 3 4-1 4-1 5 1 0 2 3 4 5 5l7 6 6 8 4 7 1 2c3 2-1 17-4 19l-1 3c0 3-6 5-19 6-11 0-22-1-24-3l2-4c2-3 2-4 2-8l-2-5c-2-2-1-4 0-4l3 1 5 2 5 2 4 2c3 0 3 0 2 1-3 2-2 4 0 4 4 0 4-2 3-5-2-4-7-7-13-8l-6-1-3-1-5-2-6-1c-3 0-4-1-5-2-1-4-6 1-7 8 0 4 1 14 3 13l1-8c0-7 1-10 3-9v11c0 8 1 9 2 10 5 1 7-9 3-11-2-1-2-3-2-5 1-4 3-5 6-2 2 2 3 4 3 12v10h-7c-12 0-13-1-15-7s-3-22-1-25l2-7 1-8 2-4 1-1 3-4c3-5 5-5 6-2l1 1c0-3 2-3 4-2 2 2 2 2 3 1 0-1 1-2 3-2l6-1 8-2c4 0 4 0 4 2zm-49 15c3 0 2 2-1 2-4 1-5 3-2 4 2 0 3 2 0 5v2c2 3 1 8-1 7l-7 4c-4 3-4 3-7 1-2-1-2-2-2-6l2-7 1-3 1-2 1-3c-1-1 0-3 2-5l3-3 4 2 6 2zm673 0c0 2-1 3-3 2-2 0-2-1-1-2h4zm-560 16l-1 2c-2 0-3-1-2-3 1-3 3-2 3 1zm758 2l5 2-3 15c-2 1-5 1-6-1-3-2-2-3 0-4 2 0 3-2 3-2 0-2-3-5-5-5l-2 1-3 7c0 3 5 8 9 8 3 0 4 1 5 5 2 5 0 8-3 8l-3 1 2 2 5 3c3 0 5 3 10 11a155 155 0 0013 19l2 2 1 6-1 5c-2 0-2-2-1-4 2-1-1-4-4-4s-3 0-3-4c0-3-1-4-2-5l-5-2c-2-1-2-2-2-5 1-3 0-5-3-5-1 1-2 0-3-1l-4-5a59 59 0 01-9-12l-4-6-3-4c-3-3-4-4-3-5l1-3c-1-3-4-4-5-2l-2 1v-5l2-5c0-5 1-7 2-5 2 2 4 1 4-1v-3c0-2 11 0 15 1zm-752 11l15 13c2 1 1 5-1 7-3 3-6 9-6 10l-9 13-5 7c-2 4-7 9-10 12l-21 25a75 75 0 01-21 16l-14 8-4 2-4 1-8 1a110 110 0 01-44-1 60 60 0 01-18-3l-10-3-9-2-7-2-5-2-4-2c-4-2-26-4-29-2l-6 1-3 2-2 1c-3 0-13 10-14 14l-2 5v13l2 5c2 6 14 16 21 16l7 1c2 1 5 2 6 1 2 0 4 1 2 3h-10c-8 0-9 1-9 2s1 1 6 1l7 1-10 5-6 1-18 1c-5-1-12-5-17-9-5-5-10-13-10-17 0-2-1-3-2-3v-6-16l-2 6c0 9-2 7-3-2 0-9-1-11-2-9v18l2 6 1 6 1 2c0 2 5 11 9 15l1 6-2 5-4 14-2 5-1 7-2 6-1 10c0 11-3 33-5 38l-4 27-2 13-1 7-1 8-3 13a527 527 0 01-3 28 2262 2262 0 01-11 112l-2 19-2 34a663 663 0 01-5 74 173 173 0 01-4 52c0 7-1 9-3 5l-1-11-2-15a237 237 0 01-4-33l-1-11-2-8-1-6c1-2 0-6-1-10l-1-19a529 529 0 015-60c1-14 1-20 4-36a311 311 0 005-39l2-28a434 434 0 005-35l1-10 1-5 2-11 2-14 1-7 2-17 1-18 1-12a300 300 0 016-42l2-12c2-4 3-12 4-25a54 54 0 014-17l2-1c2 0 2-1 2-8l-1-7-1 4c0 3-1 4-3 6l-3 5-1 4-2 6-1 9a187 187 0 00-5 30l-2 9-4 28-2 14-1 19-2 18-1 10-2 13-2 12-1 6-4 29-1 11a508 508 0 00-8 71l-2 14-1 16-2 14v7l-1 16-3 28a1185 1185 0 01-8 96l-1-23-1-22h-1a875 875 0 000 50c2 1 3 8 1 22-1 12-2 8-3-7l-1-12c-2 0-3 15-1 29v4l-2 1c-1 0-2-1-2-4-1-5-2-36-1-37 2-1 1-6-1-8s-2-5-3-17l-1-16c-1-1 0-3 1-4 3-4 3-5 0-5-3 1-2 1-5-17v-19a835 835 0 004-41c1 0 2 5 2 11 0 2 0 3 2 3l3 2c2 3 5 3 8-1l4-3v11l1 10 1-9a994 994 0 010-40c-2 2-2 5-2 12v10l-4 4-3 4-4-2c-4-2-4-2-4-7l2-9c0-3 0-3-2-3s-3-2-2-8 2-6 2-1l1 6c2 2 1-8 0-12-2-2-2-5-1-13 1-14 3-17 4-5v5l1-6v-13c-2-12-2-21-1-31a736 736 0 006-48l1-12 2-12 1-15 4-23 2-11 2-13 1-11c3-3 6-11 6-13l-2-1c-3 0-4-9-2-16l2-12 2-7 2-13a323 323 0 017-47l1-10c0-10 0-10 10-14 5-1 7-2 10-6l4-6 2-3 1-16c0-15-1-18-8-25-5-5-10-8-20-9-9-1-11-1-11 1l-3 4c-5 6-7 13-7 22 0 7 8 17 13 17 3-1 4-4 1-5l-6-4c-3-3-3-3-3-10-1-8 1-14 7-18 4-3 5-3 10-3 5 1 11 4 15 7l5 7c4 6 4 6 4 16 0 9 0 11-2 16-3 5-9 11-12 11l-3 1c-1 2-17 3-24 2s-14-5-18-11c-5-7-6-9-5-14 0-4 0-4-2-3-2 0-2 0-2-2 0-3 2-6 4-6l5-2c3-2 3-2 2-3h-5c-3 2-4 1-4-3-1-6-3-7-3-1 1 6 0 7-3 5-1-2-1-2 1-6l2-7 2-3 1-3c0-2 4-7 6-7v1l-1 2c-1 0-2 1-2 3l-1 3c-2 1-3 6-1 6l2-3c0-2 2-3 4-1 0 1 1 1 2-1 1-1 1-1 3 1 3 3 6 2 4-1-1-4-2-5-5-5-5-1-1-6 5-8l2-3 2-3 2-1 2-1 10-9-1-1-2-1 1-1 3 1 3 1c4 0 7 3 7 6 0 4-2 5-2 2-1-2-3-3-4-1-2 2 0 5 3 5h4c1 0 2-1 2-3 0-3 0-5-2-7-4-3-3-4 1-5 4 0 14-4 14-5 0-2-10-1-10 0-1 2-9 3-9 1l5-2 5-1 7-3h38l-4 1c-5 0-10 2-6 2l4 2c2 3 2 4 2 8l-2 8c0 2 0 2 2 1 3-2 3-4 3-10l-1-6c-3-1 0-3 4-3l10-1 8 1-2 1-3 1h11l7 1a195 195 0 0015 6l2 1 3 1 4 2 12 5 4 1c1 0 5 1 7 3l7 3 3 1c0 2 8 3 8 1l2-1c1 0 2 2 0 3-2 0 1 2 4 2l2 1 3 2 3 1 4 2 4 3 3 1 3 2c2 1 3 2 6 1 4-1 6 0 6 1l-2 1-2 1 2 2c2 2 2 4-1 5v6c1 1 1 0 2-1l1-4 1-5 1-3 16-1 17 1c2 2 7 1 7-1l3-2 5-2 4-2 2-1 4-1 9-4c6-3 8-4 21-17 4-4 7-7 8-6l-1 2c-1 1-2 2-1 3h2l2-2c2 0 1-4-1-4v-2h2c1 2 2 1 2-1s1-3 2-3l3-1c3-3 7-2 9 1 1 4 1 7-1 10-1 2-6 3-6 1 0-1-5-2-7-1-1 1-1 1 3 2 3 0 4 1 4 3l-1 3-4 4-4 4-3 3c0 2-4 7-6 7s-9-6-9-7l4-5c2-3-1-2-4 1l-4 2-3 3c-3 2-3 2-2 3l3-1c2-3 5-2 8 3l3 5-5 4-7 6-6 4-4 2-5 1-4 1c-2 2-18 8-22 8l-2 1-7 1-5 1-4-5c-3-5-3-7 1-10 2-2 2-2 1-3l-5 1c-2 0-2 1-3 6l1 5 2 5c-1 2-11 1-12 0-1-2-3-2-11-2l-9-1c-1-1-14-5-19-5l-7-2h-9c-1 1 0 1 4 2l6 1 18 5 8 2 10 1 10 1c4 3 26 3 28 1l7-2 6-1 5-1 6-3 4-3 5-1 6-2 5-2 3-2 15-14 7-7 1-1 19-22 4-6 7-11c7-10 9-15 9-17-1-3-3-1-3 1 0 3-3 2-4-1-2-5-4-6-9-6-3 0-4 1-4 3 0 3 3 4 5 2 1-2 1-2 5 1 3 4 4 7 2 10s-7 3-7 0c-1-1-1-2-4-1-3 0-3 0-3-4 0-3 0-3-1-1l-3 3c-3 2-1 4 4 4l6 2c2 0 1 5-1 8s-3 3-3 0c-1-3-1-3-6-3-4 0-5 0-5-2l1-1c2 1 2-2 1-5-1-2-1-3 1-4l1-3 2-4 1-3 2-4 2-4 3-8 6 4zm204 3l2 4 1 3c2 2-1 4-4 4-4 0-6-2-4-6l1-4c-1-3 1-4 4-1zm27 23c0 1-3 2-4 1l-1-1h5zm16 5l1 4c1 2 1 3-1 5-2 3-4 3-4-1 0-3-1-3-3-4-3-1-4-4-1-4h8zm-571 11l-3 1-1-1 2-1c1 0 2 0 1 1zm593 5c0 4 0 4-4 4l-4 1 1-5c1-3 2-4 4-4 2 1 3 1 3 4zm-605 1l-3 3-2 1-4 3-4 3c-1-2 10-11 13-11l-1 1zm623 4v5l1 5c2 0 1 4 0 4-2 1-4-1-4-3l-1-2v-9h4zm-10 8l-2 1-2-1v-1c2-2 4-1 4 1zm33 8l-1 1c-2 0-3-2-1-3 1-1 2 0 2 2zm-4 4l-2 2c-2 2-2 2-4 1-2-3 0-5 3-4l3 1zm15 2c0 1-1 2-3 2l-3 2 2 1c1-1 2 0 3 1h3c2 0 2 0 1 2-2 4-5 4-7 1l-3-2c-4-1-5-3-3-7 1-3 2-3 5-3 4 0 5 1 5 3zm27 15l-8 8c-2 0-1-3 2-6s4-4 6-2zm-720 6l2 8 1 5 1 2c0 3 9 18 12 20s3 2 2 4l-1 5-2 6-2 8-1 8-2 10a225 225 0 01-8 49l-1 9a513 513 0 00-7 51l-4 33-2 14-1 7-2 10-1 10-1 9-3 33a904 904 0 01-14 140 724 724 0 01-12 105l-3 12-3 9-3 9-2 8-2 4c-1 4-3 3-3-2 0-4-2-10-3-10l-3-2c-1-1-1-3 1-9 0-3 3-2 3 1l1 6 2 4 1 3 1-3c1-2-1-10-4-14-3-6-4-9-2-13l2-23c0-9 0-10 3-8 1 2 2-11 0-14v-6c2-1 2-12 1-13l-1-18c0-21 0-20 1-18l1 16 1 17c1 0 2-8 1-16v-5h6c4 1 6 0 8-1 3-3 3-6-1-10-2-2-5-2-6 0 0 2 0 2 3 2 4-1 5 1 2 4-4 3-5 3-8-1-4-4-4-7-5-29 0-16 0-18 1-17s2 3 2 8c0 4 0 5 1 3 0-3 1-4 5-1 4 2 7 1 8-2 2-4 3-1 3 4l1 6 1-7v-8-8c-1-1-1-1-1 1l-2 4-2 2c0 2-4 5-5 4l-5-3c-3-2-3-3-3-9l1-6 1-2 1-9c1-8 0-17-1-13l-1 6-1 5v-18c0-2 1-2 1-1 0 3 2 0 2-4 1-3 1-6-1-8l-1-14 2-11c1-2 2 2 1 6v10l1 6 1-4c2-3 1-13-1-29-1-8 0-19 2-20l1-5 1-6c2 0 2-2 1-2-2 1-3-6-2-19 0-11 1-13 2-13 1-1 2-2 1-8 0-7 0-12 2-12 1 1 2-13 1-16s0-9 2-10c1 0 2-2 2-17-1-14 0-17 1-19l2-8 4-30 4-27 2-13 2-14 4-21 4-20 2-12c3-8 5-15 5-20l3-8c1 0 2 1 2 3zm733-1l2 2c0 2-3 2-6 0l-2-2-3 2-2 4c0 2-2 1-3-1l1-2 2-3c0-2 1-2 5-1l6 1zm4 12c2 0 4 2 3 4s-5 1-7-2l-3-4-1-3c1-1 2-1 4 2l4 3zm8-5c1 1 0 2-2 1v-1h2zm10 6l-2 3-3 4-3 2c-2 0-2-3 0-5l2-4c1-2 5-3 6 0zm-227 0l-2 1-2-1 3-1 1 1zm239 7l-1 1-2-1c-1-1 0-1 1-1l2 1zm-247 15l-1 2-1-3 1-1 1 2zm-487 9l8 1h5v12a220 220 0 00-4 20l-2 10-2 17a431 431 0 00-7 45 413 413 0 01-8 69l-1 13-2 12-1 10c-1 3-3 13-5 34l-2 16-2 22c0 21-1 28-4 44l-1 16-1 15-2 11-2 12-1 13-1 11-1 14-2 18-2 17a314 314 0 01-4 30 271 271 0 01-15 69h-2l1-5 2-10 1-7c2-1 2-2 2-7 0-10-2-8-3 3l-2 3c-1 0-2-2-1-5l1-29a213 213 0 00-1-44l-1-12-2-13c0-10 0-13 4-35a1037 1037 0 0010-92l2-30a404 404 0 0111-101l1-14 2-18 2-14 1-10 2-13a275 275 0 006-32l1-12a50 50 0 013-17 270 270 0 016-30c1-9 0-9 6-9l7 2zm770 1c2 0 3 3 0 3s-4 2-1 4v1l-5-3c-3-3-3-4-2-6l3-1 5 2zm9 2l-1 1-2-1 2-2 1 2zm-3 3l-1 2c-1 1-2-1-1-2h2zm10 4c0 2-2 0-3-3 0-2 0-2 1-1l2 4zm11 6c1 2 0 4-2 4l-1-3c0-3 1-4 3-1zm-415 3c1 2 2 3 5 3 6-1 8 0 10 3 2 4 2 4 4 3 5-3 12 1 12 7 0 3 1 3 4 0 2-3 3-3 5-2l4 4c2 3 5 4 5 2 0-1 4-1 7 1l3 4v4l2-3c2-3 7-3 11 2 2 3 2 3 4 1l3-2c2 0 6 5 4 6l-1 4-3 4c-4 0-6 0-6-4l-1-3-3 3c-3 3-5 3-9-2-2-2-4-3-6-1h-4c-3-1-4-1-4-4l-1-4-2 2c-2 2-4 2-7 2-4-1-4-1-5-4s-2-4-3-3l-6 1c-6 1-8-1-7-9 0-2-4-1-5 1-2 2-6 3-8 1l-1-5-1-4c0-2 0-2-2 0l-5 3c-3 0-5-2-6-6-2-8 8-11 13-5zm411 3h-2c-3 0-4-2-1-2l3 2zm-388 2h-2l1-1c2-1 3 0 1 1zm-323 9l2 1 4 2 6 2c5 1 5 1 4 5l-1 6-1 3-1-2-1-3c-1-3-2 0-2 3 0 2-1 3-4 5-5 3-6 4-10 2-3-2-4-1-2 3 1 2 1 2 5 2l6-1c4-2 6 21 3 26l-2 8-1 8-2 9-1 7-1-5-1-6c-1-1-1-1-2 1l2 11a178 178 0 01-5 44c0 5-1 8-3 7v-10c1-3-1-5-2-3v28c-3 2-7 28-7 40l-1 12-2 11-1 8-1 8-1 9c-2 3-2 8-1 28 0 20 0 23-1 22s-2-4-1-11l-1-10-1 2-2 3-2 4c-1 1-1 2-3 2-4-2-6-2-6 0s4 5 6 5l3-1c3-4 4-2 4 8a1428 1428 0 00-1 31c0-9-3-14-7-11h-2l-3-1c-2 0-2 1-2 4v31l1-13 1-14 3-1 4-1c1-2 2 0 2 10l2 22c1 19 0 38-1 39s-1 0-1-4l-1-8-2-37-1-8-2 20 1 13c1 1-1 3-4 3-1 0-2-2-2-5l-2-6c-2-2-5-30-4-38l2-16 2-17 1-16c0-12 1-23 5-45a399 399 0 004-40 688 688 0 007-54l2-13 2-9 1-8 1-12 2-10 2-9a186 186 0 015-37l2-12 1-8 2-4c1-3 1-3 2-2 2 2 3 1 3-1l-1-2-1-3c0-2 1-3 2-3l3 2zm299 4l3 2 2 2 4 2 2 1 6 3c4 3 5 3 9 3 3 0 5 0 6 2l3 2 3 2 2 2 1 4 1 4v12l-2 5c0 1-1 3-4 4l-4 3 3 6c3 0 7-4 9-8l4-5c1-1 1-14-1-18l-2-5c-4-4-2-6 4-3l6 2c4 0 5 1 5 4 0 4 1 4 5 1 3-3 6-2 6 2l1 4c1 2 1 3-1 7s-3 5-3 2-3-7-5-6l1 4 2 4 2 3c2 1 2 2 2 6 0 5-2 11-5 11l-3 2-5 2c-3 0-3 0-4-3s-1-3-4-3c-10 1-12 0-15-3-2-2-3-3-5-2l-5-1c-2-1-3-2-4-1-1 2-13-1-15-4-2-2-4-2-10-1l-7-1 6-4c4-2 6-5 8-7l4-7c2-5 2-9-1-15-3-7-8-14-9-13s2 9 4 11l1 9c0 6 0 6-3 9l-3 4-2 2c-2 0-4 2-9 6-2 2-2 2-2 0-1-2-2-2-5-2-5 0-6-1-4-3l1-3c0-2 1-3 3-5l3-4 8-16 1-5c0-5 1-5 3-4l4-1c0-2 0-2 4-1zm451 6c3 1 4 4 3 4-2 0-7-3-7-5l1-1 3 2zm31 10c3 2 5 3 4 4 0 5-3 7-6 3l-4-2c-2-1-3-4-2-6 2-3 3-2 8 1zm-18 2c0 2-2 1-2-1v-1l2 2zm-751 3c1 3 0 9-1 9-2-1-2-8-2-11 1-2 3-1 3 2zm756 0c2 3 1 4-3 2v-3c2-1 3-1 3 1zm31 12c-1 5 2 11 5 11l1 2c0 3-2 3-5-1l-5-3c-2-1-3-3 0-4l1-4c0-4 1-5 2-5l1 4zm20 9l3 6-1 1-2-1-1 1c-2 3-5 5-5 4l1-3 1-5c-1-3 1-5 4-3zm-546 9c1 2 2 2 3 1 4-3 13 0 14 6 0 4 0 4-4 6s-4 2-8 0c-3-1-4-3-5-6 0-2-1-3-1-1 0 3-5 6-8 5l-4-2c-2-2-1-8 2-11s8-2 11 2zm31 7c1 4 0 8-3 10-4 2-5 1-8-1s-3-3-2-5c1-6 2-7 7-7 5 1 5 1 6 3zm529-1c2 2 0 3-2 0l-1-2 3 2zm-514 4l3 3c0 2 1 3 3 1 2-3 7-2 10 2 3 3 3 3 5 2 3-3 11-1 13 3 2 3 4 4 6 2 1-1 9 1 12 3 3 3 3 5 0 8-2 2-3 2-7 1-6-1-9-3-9-6s-1-4-3-1c-3 3-8 3-12-1l-3-4c-1-1-1-1-3 1l-2 2-4-2c-3-1-5-3-6-5-1-4-2-4-3-1s-2 3-5 3c-4 0-7-2-7-4-1-5 0-8 2-8 2-1 8 0 10 1zm529 2l-1 4-3 4c-1 3-1 3-2 2v-5l2-5c1-4 3-3 4 0zm-573 5l20 4 5 1 3 29 2 18v35l-1 19c0 18-1 25-4 24l-1-47c0-36-1-47-2-48h-1l-1 49c-1 48-1 52-5 56h-3v-20-10-7-11-10l3-48c-1-2-4-3-4-1a529 529 0 00-2 39l-1 37c-1 38-1 39-6 39l-2-1v-23l1-26v-67h-3c-2 0-2 1-1 9v58l-2 43c-4 3-6-3-6-13v-47c-1-12-2-55-1-57l6-3c4-2 10-6 9-8-1-1-3-1-5 1l-4 1c-3 0-12 6-15 10l-5 6c-2 3-3 5-2 7l-1 5c-4 4-5 8-5 21a83 83 0 01-3 21c0 6-1 8-5 8l-3-1 1-1 1-20a104 104 0 017-41l1-1 2-3 1-3a209 209 0 0016-23c1-2 2-2 8-2l8 2zm578 2c2 5-1 7-4 4-3-2-2-3 0-5 3-3 4-2 4 1zm6 5c4 3 2 10-3 9-1-1-2-2 0-8 0-4 1-4 3-1zm13 8l2 4c1 1 2 1 3-2l4-2c2 1 1 6-1 9l-2 2-1-2c-1-3-1-3-3-3-4 2-7 3-8 2l-2-3c-2-3-2-4 0-4l2-3 1-2c1-2 5 2 5 4zm25 5c2 10 3 11 15 19 5 4 6 7 4 10-3 2-4 3-6 0l-5-3-6-4c-1-2-3-2-6-2-4 0-5-1-6-3-2-2-2-2-1-4l2-2 4-5 3-6c0-4 2-4 2 0zm-14 10c0 3-2 3-3 1v-2c1-1 3 0 3 1zm2 11l-2 1-2-1 1-1 3 1zm43 10l-1 2c-2 2-3 4 0 5l1 3-1 2-2-1-2-1c-3 0-5-2-2-3v-6c-1-1 0-2 3-2l4 1zm8 4c2 2 3 3 4 2l4 2c1 2 3 3 5 3l4 1 3 2 1 2c0 2 1 2 4 2 2 0 3 0 3-2l1-2 2 2c0 2 2 4 6 6l2 2 7 1c11 1 10 1 9 4l-2 5c-2 2-1 4 1 4l4 1 2 1c1 0 1-1-1-2-2-2-2-4-2-5l2-3 6 5 3 4 6 8 7 8 2 2 4 5 5 6 7 7 8 9 2 2 6 7 4 5 1 1 1 2c2 0 11 10 12 13l2 6c4 3 5 8 3 9-3 1-7-2-8-5l-3-3c-2 1-4-1-4-3l-2-2c-2 0-4-1-5-3l-6-7c-3-3-4-3-5-1h-1l1-2c1-1-1-3-4-3v3c1 4-3 3-9-2-4-2-7-5-7-6l-4-1-3-2-2-2-6-4-6-3c-2 0-4-1-8-5l-2-2-2-1-6-4-15-12-7-6-5-5-2-3-2-4c0-2-1-3-2-3l-1-9c0-6-1-9-2-10-3-4-4-1-1 4 2 5 0 6-5 1-4-4-5-5-3-5s3-2 1-3l-3 1-3 2c-2-1-3-5-1-7 1-1 0-5-2-5-1 0-2-3 0-4 1-2 5-1 7 1zm144 127c0 1 1 2 3 2l1 2c-1 2-3 1-6-2l-3-3h2l3 1zM47 889l-1 4-1-4 1-5 1 5zm130 93l2 10c1 4 0 30-1 30l-1-8-2-13-2-25c1-2 3 0 4 6zm7 41l-1 7-1 6-1 9-1 3v-3c-1-10 0-14 1-18l1-8 1-4c1-2 2 2 1 8zm-114 86l-1 4v-5c0-5 0-6 1-5v6zm47-4l-1 3-1 4-1 3v-11c1-2 3-2 3 1zm-86 2c2 3 1 5-1 8l-3 2v-5l1-6c1-1 2-1 3 1zm4 11l1 6c1 4 1 4-1 4l-2 2-1 4c-1 2-2 3-1 4l-7 11-1-3-2-6 1-3 1 3 1 2c1-1 2-2 1-5 0-3 1-4 2-3l1-3 2-7 2-6c0-3 3-3 3 0zm-9 5c-1 7-2 7-2 1 0-5 0-6 2-6s1 1 0 5z"/><path d="M1010 30l-4 1-4 1-7 2-7 2c-3 1-6 2-13 2l-10 1 5 1 9 1 5 2 6-3 7-3 3-1 5-2c4 0 14-4 13-5 0-1-6-1-8 1zM866 50l1 4 2 3 2 1 1-4-1-4-2-1-3 1zm69 1l-10 1c-6 0-8 1-9 2l10 1c10-1 12-2 12-4 0-1-2-2-3 0zm-91 3l-2 2c0 2 3 5 4 5 3 0 3-2 1-3-1-2-1-2 1-2h2l1 4c1 2 1 2 3 1 2-3 1-6-2-7-4-2-6-2-8 0zm-29 4c-2 2-3 3-1 3l2 3c0 3 5 4 7 2 1-3 1-5-1-7-1-2-3-2-7-1zm16 2l1 2c1 2-1 4-5 5-6 1-5 3 1 3s11-2 9-3l-1-4c0-3-2-5-4-5l-1 2zm45 0l-6 1c-2-1-3 0-5 1-1 1-3 2-7 2l-19 2a99 99 0 0027-2 486 486 0 0129-5c0-2-15-1-19 1zm-79 4v3c2 1 2 2 0 4l-5 2-6 2-7 2-4 1h-9l2-2c1-2 1-3-1-6-2-4-3-3-3 3 0 5 0 5-5 7-3 2-6 2-13 2s-9 1-9 2c0 2 16 1 22-1l11-2c9-1 14-2 17-4l6-1 5-1 10-2 9-1 3-1-3-1h-8c-5 1-5 0-6-1-1-5-5-7-6-5z"/><path d="M745 66c-2 0-3 2-3 7 0 2 1 3 3 3 1 0 2 0 2-3-1-4 1-4 2 0 0 3 1 4 3 1s1-6-2-7l-3-2-2 1zm-96 5c0 1 2 3 3 2h3c2 1 3 2 3 4l2 3c3 0 3-5 0-8s-10-4-11-2zm-52 0c-2 1-1 4 2 7 4 5 4 5 7 2s3-6 0-8c-2-2-8-3-9-1zm6 4h-3c-1-1-1-1 1-1l2 1z"/><path d="M621 71c-1 2 2 3 5 2 2 0 3 1 2 4l-1 1c-1-2-4-3-4-1l2 2c2 1 0 3-4 3-3 0-5-2-3-3 1-1-1-6-3-6l-1 4c0 7-2 8-16 8-11 0-14 0-14 2s22 1 28-1l19-1h13v-6c0-4-1-5-2-6-3-2-4 0-2 3v4c-2 2-9 3-10 1l1-2c4-2-1-9-6-9l-4 1zm61 1c-2 2-2 4-1 4l4 4c2 3 4 3 4 0l1-4c2-3 1-6-3-6l-5 2zM710 71l2 2c1 0 2 1 1 2l-2 4c-2 1-1 4 1 4l2 1h-15l1-2v-7c-3-2-4-1-3 2s1 3-2 6l-7 2a875 875 0 0045 1l1-5c0-4 0-5-2-5-3-1-5 0-3 3v4c-1 2-2 3-6 2-5 0-9-3-7-6l3-1c2 0 3-4 0-6-2-2-8-2-9-1zm-224 4c-2 2-3 4-1 4 1 0 2 1 2 3 1 4 4 4 4 0l-2-4v-2c3 0 5 2 5 6s3 4 4 1c1-4-1-7-4-8-4-2-6-2-8 0zm37 0c-2 2-2 2 1 5s7 4 10 2c2-2 2-2 1-4l-2-3c-1-3-8-3-11 0zm33-1c-1 1 0 1 1 2 3 2 4 3 4 6s4 3 6-1c2-3 2-4 0-5l-4-2h-3-4zm97 2c-1 2 0 4 2 4s2-1 2-2c-1-3-2-4-4-2zm16 0l-1 2-2 5c-4 3-4 4 1 4h4v-5c1-6 0-9-2-6zm-90 1l-1 5-2 3c-4 1-4 3 0 4 5 0 6 0 6-4l1-2v-6l-2-1-2 1zm-148 2l2 5c0 3 0 4 2 4 5 0 4-7-1-9-4-3-6-2-3 0zm20-1c-1 1-2 2-2 5 0 4 3 4 3 1 1-4 2-3 3 1l1 3c2 0 4-5 3-6-1-3-5-5-8-4zm57 0v8l-7 2c-3 1-4 1-2 2h13V79l-3-2c-2 0-2 0-1 1zm37 2l-1 3c0 4-2 5-13 6l-7 1h22c3 0 3 0 3-5-1-6-3-9-4-5z"/><path d="M473 80l-1 3-2 5c-3 3-3 3-17 3a600 600 0 00-36 5h7l8-1 17-1c15 0 24-1 24-4l2-2 1-5c0-3-2-5-3-3zm-61 3c0 2 2 3 4 2s3-1 5 1c2 3 4 3 4 0l-2-3c-3-3-10-3-11 0zm242 1c-1 2 0 3 3 3 1-1 1-1-1-2-1-2-2-2-2-1zm-256 2l1 2 1 4c0 2 2 3 4 2 2-2-1-9-5-9l-1 1zm-16 4c-3 2-3 7 0 7 2 0 2-1 2-2s1-3 2-3c2 0 3 3 1 5-2 1-2 2-1 2h2l3-2c2 0 1-5-1-7s-6-2-8 0zm31 0l2 1c2 0 3-1 3-2l-3-1c-1 0-2 0-2 2zm78-1l-5 1-7 2c-2 1-2 1 3 1l6 1c2 0 7-4 6-5h-3zm65 0l-4 1c1 1 15 0 15-1h-11zm-186 4l3 5c1 4 3 5 4 1 0-4-3-7-6-7-2 0-2 0-1 1zm-16 6c-2 2-3 4 0 5 1 0 2 1 2 3s0 2 4 2c4-1 4-1 5-3 1-4 0-6-3-7-4-2-5-2-8 0zm7 3l-2 1-2-2c0-1 3-1 4 1zm45-3l-7 2-4 1c-1 2 0 2 5 1l8-1 4-2 3-2c0-1-6-1-9 1zm-21 5l-3 1-3 1-5 2-4 2-1 1c0 1 7 1 8-1l4-2 4-1 4-1 3-2h-7zm-45 3c-1 1-1 1 1 1l3-1h-4zm6 0l6 7c2 0 1-3-1-6-2-2-5-3-5-1zm-11 6c-2 2-1 5 1 5l2 2h12l-2-4c-3-4-10-5-13-3zm9 4c0 2 0 2-2 2l-2-1-1-1c0-1 1-2 3-2l2 2zm22-4c-1 1 0 2 1 1v-2l-2 1zm-40 15c-2 3-2 5 0 5 1 1 8-4 7-6-2-2-6-1-7 1zm35 3l-1 3c0 2 0 2-3 2-4 0-7 3-7 6s2 4 3 1c2-4 4-4 3 1 0 4 1 4 4-1 2-2 2-3 1-4-2 0-1-2 1-5 2-1 3-3 2-3h-3zm15 8l-1 3-2 1c0 2 2 2 5 0s3-7 0-7c-2 0-2 1-2 3zm-8 0l1 2h1l1-2-2-2-1 2zm-40 0c-2 0-3 4-2 7 1 2 2 2 5 2 4-1 5-4 1-4h-3l5-3v-2h-6zm52 11c0 2-2 4-3 5v2c1 2 4 0 6-3v-5c-2-1-2-1-3 1zm-54 3c-3 2-2 3 0 5 2 3 4 2 3-1l2-3 2-2h-2c-3-1-3-1-5 1zm43 2c0 1 3 3 4 2l-1-2h-3zm-35 4c-3 4-3 6 0 8s3 2 6 1c2-2 3-3 1-5l-2-3c1-3-3-4-5-1zm12 5c-2 2-2 4 1 7 2 3 5 2 5 0l-1-2-1-3c0-4-1-5-4-2zm15 1c-1 3 0 6 4 6 3 0 3 0 2-2-2-1-2-2-1-3 1-2 1-4-2-4l-3 3zm11 1c-1 2-1 3 2 3 2 0 3-1 3-2 0-3-4-4-5-1zm519-90c-2 0-1 2 1 3 3 1 3 1 2 3-1 3 1 4 3 1 2-1 3-6 2-6l-3-1h-5zm15 0v6c1 1 4-4 4-6h-4zm15 1c-1 1 2 5 4 5s1-5-1-5h-4zm-46 1l2 3v4l-1 4c0 2 2 1 4-3v-6c-1-3-5-4-5-2zm54 0v4c1 1 1 1 2-1v-3h-2zm12 2c1 2 3 3 3 0l-2-2-1 2zm-26 0l1 2 1-1c0-2-1-2-2-1zm-55 3c-3 2-3 3-2 6 0 5 2 5 2 1 0-3 1-4 3-2s4 1 4-3c-1-5-4-6-8-2zm27 1l1 1 1-2-1-1-1 2zm-43 2l-2 6-2 5 3-1c1 0 2-1 2-3l2-3c2-1 1-6-1-7-2 0-2 1-2 3zm-14 0v2c2 0 3 3 2 4l-2-1-2 1c0 2 1 2 3 1 5-1 7-4 3-7h-4zm59 2l-2 2h4c5 0 5 0 3-2s-2-2-5 0zm-74 1l1 3 1 3 2 2c2-1 3-6 0-8h-4zm-17 3c-1 2 0 3 2 3s3 1 1 3v2c4 1 7-5 4-8h-7zm-15 5l1 6c0 1 4-3 4-5s-4-6-5-6v5zm68-2c-2 1-2 1 1 1s4-1 2-1h-4zm-86 3l1 3 1 3 2 2c2-1 4-5 2-7s-6-3-6-1zm50 1l-3 1-2 2c1 1 9 0 9-1s-2-3-4-2zm16 0h4l-2-1c-2 0-3 0-2 1zm-135 2c-1 1 0 2 2 2l3 2 1 1 1-1-1-2-3-1c-1-2-2-2-3-1zm-45 1l2 4 4 7h1c2-3 1-5-2-9-3-3-5-4-5-2zm32 0l2 3 2 5c0 2 0 2 1 1 2-2 1-5-1-8-2-2-4-3-4-1zm48 1l-2 3-1 2c1 2 3 1 3 0 0-2 1-2 3 0h3c2-2 1-5-1-6-3-1-4-1-5 1zm64 1v2l5-2h-5zm-227 2c-2 2-2 3 1 3 2 0 3 1 1 4s-1 4 2 2c4-3 5-7 2-9-3-3-4-3-6 0zm52-1l3 5c0 4 0 5-3 7l-3 3h6c6 0 6 0 5-2-2-1-2-2-2-6s0-5-2-6l-2-1-2-1h-3l3 1zm14 1l2 3 1 3c0 4 2 5 4 3l1-5c-2-5-8-8-8-4zm34-1l2 3c1 1 2 3 1 6l1 3c2-1 4-6 4-8-1-3-8-7-8-4zm-65 1c-3 1-2 3 1 3s5 2 2 6c-1 3-1 4 1 4l3-3c2-5 2-5 0-8s-4-3-7-2zm90 0c-2 0-1 3 0 3 3 1 5 0 5-2s-2-2-5-1zm86 1c-1 1-1 1 3 1s3 0 2-1l-2-2-3 2zm-249 1l1 1 2 1v4l-1 3c2 3 7-1 7-5l-2-4c-2-2-7-3-7 0zm57-1v4c0 4-1 7-3 7l-2 1 3 1c2 0 8-5 8-8 0-2-6-8-6-5zm161 2c-4 2-3 3 7 2 4 0 5-1 2-1s-4-1-5-2c-2-2-2-2-4 1zm118-1c-3 2-3 3-2 3l2 4 1 2c2-1 2-5 1-6-3 0-2-2 0-2 3 0 6 3 5 7 0 3 1 3 3-1 3-3 2-4-2-7-4-2-5-2-8 0zm35-1l-1 4c-1 4-1 4 1 4l1-2v-2l2-2c3 0 4 2 1 4v2l4-2c3-3 4-3 1-5-1-2-8-3-9-1zm-422 1l1 1 3 2c1 2 1 3-1 8-3 5-3 5-7 5-5 0-8 1-8 2l27-1v-1h-10c-2-1-2-1 1-4 4-3 4-7 0-10s-6-4-6-2zm36 0l1 3v6c-1 3-2 4-5 4-4 1-5 2-2 3 2 2 8-1 8-3l2-3c3-1 3-6 0-9-3-2-4-3-4-1zm34 0l1 1 3 3c1 3 1 3-1 6-1 2-2 3-7 4-6 1-6 1 5 1h16l-3-1h-5v-5c0-4-1-5-3-7-4-3-6-4-6-2zm216 1c-1 2-1 2 1 2l1-1c0-3-2-3-2-1zm-266 0v6c0 3 0 3 2 3l3-2c2-3 2-3 0-5-1-3-4-4-6-2zm165 1v2c2 0 4-1 4-3h-4zm218 1l1 3c2-1 2-5 1-5-2-1-2 0-2 2zm-320-1c0 1 1 3 3 3l1-3c0-1-3-2-4 0zm284 0v7c0 5 0 6-2 7-3 1-1 3 2 2 2 0 3-1 2-2s-1-2 1-3l2-5c0-2-4-8-5-6zm71 0c1 1 3 2 10 2l14 1c5 2 6 1 3-2-1-1-3-2-14-2l-13 1zm-470 1l1 1c2 0 0 5-2 10-3 5-5 6-14 6l-6 1h21l-1-2v-2c2 0 6-5 6-9l-2-4c-2-2-3-2-3-1zm18 1l1 5c0 3 2 4 4 1 3-2 3-5 0-7-2-2-5-1-5 1zm486-1v2l3-2h-3zm-457 2c-1 2 2 4 3 2l1-2c-1-2-3-2-4-1z"/><path d="M528 112c-2 1-1 3 1 3l2-1-3-2zm428 1l2 2 1-2-2-2c-2 0-2 0-1 2zm-495 1c-1 2 1 6 3 5l1-4c0-2 0-3-2-3l-2 2zm364 1c-2 1-2 3 1 3l1-1c0-2 5-2 5 0l1 4c0 3 2 2 4-1 0-3 0-4-2-5-3-2-7-3-10 0zm-393 0c-2 0-4 3-4 4s1 2 3 2c3 2 7 1 7-2 0-4-2-6-6-4zm-18 4l5 6c3 3 3 1 1-4-2-4-4-5-7-5-2 0-2 0 1 3zm240-2l-5 2h-3l2 1c4 1 7 0 7-3h-1zm157 2c1 3 1 6-2 12 0 2 2 1 4-1l2-6c0-4 0-5-2-6-4-3-4-2-2 1zm-410 0c-2 1-1 2 1 2 3 0 2 5-1 5-2 0-2 1-2 2 0 3 3 3 6 0s3-6 0-8-3-2-4-1zm391 3c-2 3-2 6 1 6l1-4c-1-2-1-3 1-3l2 4c0 3 1 4 4 1s3-3 0-6c-4-3-6-3-9 2zm89-3c-2 1-1 1 2 1s4 0 3-1h-5zm-285 1h4c1-1 0-1-2-1s-3 0-2 1z"/><path d="M827 121c0 2 1 3 2 3l1-2c-1-3-3-4-3-1zm-296 1c-1 1 0 1 2 1 3 0 3 0 2-1h-4zm337 0c-2 1-2 1 1 1l3-1h-4zm-348 1h4c1-1 0-1-2-1s-3 0-2 1zm257 4c0 3-2 6-3 7v1c2 2 5 0 5-2l2-3 1-4c0-3 0-4-2-4-1 0-2 1-3 5zm-323-2c-2 1-2 1-1 2l11-1c0-2-8-2-10-1zm296 0l-1 3-3 7c-2 2-2 3-1 3l3-1v-2l2-2c1 0 3-4 2-6 0-2-1-3-2-2zm9 0l-1 2-1 2c-2 1 0 4 2 4s2 0 2-3l1-2c2 0 2 0 2 2 0 4 2 4 3 0 2-3 0-6-4-6l-4 1zm94 1h4c1-1 0-1-2-1s-3 0-2 1zm-32 2l-1 1h7v-1h-6zm-122 2c-1 1-2 2-1 3l-1 4v2c2 2 5 1 7-2 4-3 4-5 0-7h-5zm29 1c0 2 2 5 3 4l-2-6-1 2zm-12 2c0 1-1 4-3 5-2 2-2 3-1 3h3c2 0 5-9 4-10-1-2-2-1-3 2zm-112 2c-2 2-2 2-1 3l2 3c0 3 2 3 3 1 1-1 2-1 2 1 1 2 3 3 4 1v-4c0-3-1-4-3-5-4-2-4-2-7 0zm49-1v4l-1 7c-2 2-2 4 1 4l3-4c0-6 0-11-2-12l-1 1zm14 3c-1 4 0 5 4 5 2-1 2-1 3-5 0-4 0-4-3-4-2 0-3 1-4 4zm16 0c1 4 2 6 3 4s0-7-2-8l-1 4zm-50-1l1 5h4c1-1 2-1 3 1h2c3-1-3-8-7-8-2 0-3 0-3 2zm129-1l-3 2c-2 1-1 1 4 1s5 0 3-1l-2-2h-2zm21 0h4c1-1 0-1-2-1s-3 0-2 1zm-216 3c-2 2-2 4-1 4l3 2c2 2 2 2 3 1s1-1-1-3c-3-2-3-3 1-3 3 0 3 0 3 4 0 5 1 5 4 3 3-3 3-5-1-7-3-3-9-4-11-1z"/><path d="M591 137l-1 4-2 7c-2 3-2 3-9 3-8 0-15 1-13 2h16c13 0 14 0 11-2-3-1-3-1-2-3 3-3 2-14 0-11zm32 2c0 4-3 9-6 10-2 0-3 0-2 1 1 2 6 0 7-2 0-2 2-3 2-3 3-1 3-9 1-9-1 0-2 1-2 3zm-115 2l-2 3-1 1-2 2c0 3 3 3 3 0l2-3c3-2 3-2 4 1 2 2 2 2 1 4-1 1-1 1 1 1 3 0 4-3 2-6-3-5-6-6-8-3zm36-1c-1 1 0 3 2 3l1 2c0 3 1 4 3 3s3-4 0-7c-1-2-5-3-7-1zm184 0c-2 1-1 1 2 1 2 0 4 0 3-1h-5zm-32 3c-1 1 0 1 1 1l3-1-2-1-2 1zm-154 2c-1 2 0 4 3 4v-3c-1-2-2-2-3-1zm138 0c-1 2 0 3 5 2l3-1-3-1h-5zm-47 2c0 1 3 3 5 2l1-2c-1-2-6-3-6-1zm341-70c-6 0-8 2-3 2l3 1h3l10-2 4-1h-17zm-826 35c-2 0-1 3 1 3 2 1 3 0 3-2-1-2-2-2-4-1zm-4 8l-2 2 1 2c0 1 2 0 3-2 2-1 2-3 1-3l-3 1zm-8 8l2 2 2 1 2 1c2 0 1-4-1-5-3-1-5-1-5 1zm309 14c-6 3-1 5 6 3l3-2-3-1-3-1-3 1zm-39 3v7c1 3 5 2 7 0 1-3 1-5-2-8-2-3-4-2-5 1zm3 3l-1 2-1-1 1-2 1 2zm26-3c-5 2-5 3-1 3 3 0 7-3 7-4-1-1-2-1-6 1zm25 4l1 3c1 2 1 2-1 4s-3 5-1 5 8-4 8-7c1-3-2-7-5-7l-2 2zm-36 2l-5 3-2 1c-1 2-7 5-10 5-2 0-4 2-2 3 1 1 3 0 7-2l10-4 1-1 2-2c2 0 5-3 5-5s-4-1-7 2zm31 1c-1 1 0 2 2 2l1-1c0-2-2-3-3-1zm30 0l2 2 1-1-2-2-1 1zm-1 6l1 3c1 3 0 5-4 5-3 0-3 2-1 3 4 1 8 1 8-2l2-3v-3l-1-2c-1-2-5-3-5-1zm-55 2c-2 1-1 3 1 3 3 0 4-1 3-3h-4z"/><path d="M479 162l2 1 1-1-1-2-2 2zm-72 9c-3 2-2 3 1 7s4 5 6 2c3-3 2-6-1-9-4-2-4-2-6 0zm82 9l1 1 2-1c1-1 0-1-1-1l-2 1zm5 4c-2 2-3 2-5 2-3-1-4 0-2 3 2 4 10 0 10-5 0-3-2-3-3 0zm-92 1l-1 3c0 2 3 3 5 0l4-1 2-1c-1-2-8-2-10-1zm6 9c-1 0 0 2 2 3l3 3c0 2-4 5-7 5s-3 2 0 3c4 2 10-2 10-7s-7-10-8-7z"/><path d="M404 201l3 1 2-1-2-2-3 1zm134 10c-2 2-2 2 0 4 3 2 5 2 2-1v-3l2-1c0-2-3-1-4 1zm-128 3l-3 5c1 3 4 2 6-1l3-4c3 0 2-2-1-3l-5 3zm113 1l4 4c2 2 3 3 3 5l2 5c2 2 2 16 0 22-2 5-2 6-1 6 2 0 4-7 5-13 1-9 0-14-2-16v-2c2-1 2-2-1-4l-3-5c0-2-1-3-4-3l-3 1zm18 4c-3 2-3 4 1 4 2 0 3-1 3-2 1-4 0-5-4-2zm14 0c0 2 3 5 4 4l-2-3-2-1zm-139 10c-1 0-6 8-6 11l4 1c4-1 5-1 5-3l-1-3c-1-1-2-1-1-2s4-1 5 1c0 1 4 2 4 0l1-3h-4c-1-2-4-3-7-2zm138 1c-1 1 0 2 2 2l1-1c0-2-2-3-3-1zm-135 19c-2 2-2 5-1 5l7-6c0-2-5-1-6 1zm2 9l-2 5c0 2 4 5 6 4 2 0 3-4 1-4l-1 1-1 1-1-2c0-3 3-5 5-3 1 2 3 3 3 1s-4-5-6-5l-4 2zm102 5c-5 6-8 8-14 9-5 0-6 1-5 3h4l6-1c2 1 3 0 6-3l9-11c0-2-2-1-6 3zm-59 8l2 2c1 0 1-2-1-3l-1 1zm-6 9c-6 1-12 4-11 5l3 2c3 0 4 0 5-2 1-1 2-2 3-1h7l5 1 4 1 8 5 6 5 1 2 3 1c2 0 2 0 1 1-3 2-2 3 2 7l4 4-2-5-1-4-1-4c-2-4-14-15-16-15l-4-1c-3-2-11-3-18-2zm406-142l2 1c2-1 6 1 6 3l-3 4c-2 2-2 2-3 0 0-3-2-2-2 1 0 2 0 2 3 2l6-1c2-1 3-1 2-4 0-5-3-8-8-8-2 0-3 1-3 2zm49 3h-7l-4 1h-9c-8 0-8 0-10 2l-3 3h4l10-1 19-2 13-1v-1c-1-2-10-3-13-1zm-67 4v4c-1 2-1 2 1 2 4 0 4-1 3-5s-4-5-4-1zm-19-1l2 2 1 3c-1 3-5 4-6 1-2-2-3-1-3 2 1 2 5 3 11 2l4-2-2-3c0-2-4-6-6-6l-1 1zm-24 3l1 3v5c-1 1-1 1 2 1 2 0 3 0 3-2 0-3-3-8-5-8l-1 1zm-17 2c-1 0-1 1 1 2 3 2 3 4 0 6l-2 3c1 1 13-2 11-2h-2c-3 1-3-2-1-4v-4c-2-2-4-2-7-1zm70 1h4c1-1 0-1-2-1s-3 0-2 1zm-113 3c-2 3-3 5-1 5l3-2c2-2 2-2 3-1 2 2 2 6-1 8-2 2 0 3 5 2 4 0 4-1 2-1-2-1-2-1-1-5 0-3 0-4-2-6-3-3-5-3-8 0zm19 2l-1 5c-3 3-2 3 5 2 5 0 5 0 3-1l-5-2v-2-4c-2-3-3-2-2 2zm17-1v4c1 3 3 2 4-1 0-2-2-4-4-3zm35 1c-2 1-2 1 2 1 2 0 3 0 2-1h-4zm-92 8c1 6 1 6 4 6 1-1 2-2 1-5 0-3-3-7-4-7l-1 6zm-17-4l3 3 2 4h3c1-2 1-4-1-6s-7-3-7-1z"/><path d="M740 161l2 3 2-1v-2c-2-2-3-2-4-1zm-69 2l-2 3-2 2 2 3 3 2 3-2c3-4 3-6 0-8s-3-2-4 0zm12 0l1 3c2 2 2 4 0 6s0 3 3 3c2-1 3-1 2-6 0-3-1-5-3-6-2-2-2-2-3-1zm17 1c0 1 1 3 3 3 2-2 1-5-1-5l-2 2zm-104 1l-3 3c0 2 2 2 5 1 2-2 2-2 4 0 1 2 0 5-3 3-1-1-4 0-4 1s2 2 5 2c3 1 4 0 6-1l2-3c0-2-3-5-5-5l-2-1c0-2 0-2-5 0zm37-1c-2 1-1 2 2 2l4 2c0 2 3 3 4 1l-2-3c-1-2-2-3-4-3l-4 1zm17 5l-1 7c-2 2 1 2 6 1 2 0 3-1 1-1s-4-3-2-4c2 0 1-5-1-6-3-3-4-2-3 3zm84-2c-2 1-2 1 1 1l3-1h-4zm-103 2c-1 2 2 4 4 3v-2c-1-2-3-2-4-1zm76 1c-1 1-1 1 5 1s6-1-1-2h-4zm-148 1c-2 2-3 6-2 6l4 1c4 1 4 1 5-2 3-5-3-10-7-5zm3 3c1 2-1 1-2-1l1-1 2 2zm-34-2c3 2 3 12 0 13-2 1 0 2 3 1l2-2 1-5c2-2 2-3 0-5-1-2-4-4-6-4v2zm165 1c-1 1 0 1 1 2 1 0 3 0 2-2h-3z"/><path d="M524 175l-1 3 1 3c3 1 4-1 3-4s-3-4-3-2zm-8 6l-1 3c1 1 2-1 2-3l-1-2v2zm416-14l3 3c3 1 22 2 21 0l-6-1-6-1-12-1zm-89 2l-4 2-8 1c-5 0-6 1-6 2l6 1 8-2h11l-1 3c-2 2 0 3 3 2s3-5 0-8c-3-2-4-2-9-1zm61 0c-6 0-7 1-7 3s0 2 2 1l10-1c6 0 8-1 8-2l-1-1h-12zm-92 2l4 8 2-1c2-2 1-5-1-6-3-2-5-3-5-1zm58 0l-5 1-3 1c0 3 3 3 7 2 3-1 5-2 6-1h6c0-1-5-4-8-4l-4 1zm-79 4c0 1 1 2 5 2l8 2c3 0 4 0 5-2 1-3-1-3-8-2-6 1-7 1-8-1-2-1-2-1-2 1z"/><path d="M842 175c-1 1 0 3 2 3l1-2c-1-2-3-2-3-1zm-68 1v2l2 2c1 2 1 2 4 1 3-2 3-5-1-6l-5 1zm-37 4l2 1c1 0 2 4 0 4v1l2-1c2-2 2-2 0-4-2-3-4-4-4-2zm16-1c-2 0-2 1-1 3h11l5 1c2 1 3 0 3-2-1-2-1-3-9-3l-9 1zm-25 4l-6 1-15 2h12c9 0 12-1 14-2 1-2 1-2-2-2l-3 1zm-59 5c-2 1 1 2 8 2 5 0 8-2 3-2h-11zm18 0c-2 1-1 2 1 2l2-1c-1-2-2-2-3-1zm485 14c-2 2-2 2-1 3 2 2 5 1 5-2-1-2-2-2-4-1zm-596 18c-1 6 0 8 1 6v-11l-1 5zm8 1l-1 6-2 3-1 2-4 2c-2 1-2 2-1 3 1 2 7-4 10-10 2-4 3-10 1-10s-2 1-2 4zm-14 17c-2 2-2 4 0 2l2-2c2-3-1-3-2 0zm22 17v1l2-1v-1l-2 1zm19 3c-3 4-2 8 0 5l3-1c1 1 3 0 3-1 1-2 1-3-1-4-3-3-3-3-5 1zm-23-1l-1 2 3-2h-2zm54 7l2 1 1-1-2-1-1 1zm-76 6l1 2h2c3-2 2-3-1-3l-2 1zm37 1c-2 2-2 2-1 3l1 3v1l2-2c0-2 1-3 2-3v-2c-2-2-2-2-4 0zm39 1l3 1c2 0 2 0 0-1h-3zm-62 2c-2 1-2 2-1 2l4-2c2-3 0-3-3 0zm-18 11l2 1 2-1-3-1-2 1zm63 7l-3 4c0 2 2 1 4-2l4-3 1-1c0-2-2-1-6 2zm-12 0c0 1 1 2 2 1l1-2-1-1-2 2zm-51 1l2 2 1-1-2-2-1 1zm25 5c-3 3-3 3-1 3 3 0 9-3 9-4 0-3-5-2-8 1zm573-85c-2 2-2 3-1 4 2 3 4 2 4-1 0-5-1-6-3-3zm-163 25l2 2c2 0 1-3-1-3-3-2-3-1-1 1zm34 2l2 1 1-1-1-1-2 1zm-25 6c-1 1 0 3 2 3s2 0 1-2-2-2-3-1zm97 5l3 2c1 0 2 1 2 4l-1 5-1 2 1 1 5 4c3 3 3 3 2 5v3l1 5 1 5-2 6v8c1 3-1 5-9 12-7 7-9 8-13 6-3-2-4 0-2 2l1 2-8 1a44 44 0 00-13 4l-3 1c-5 2-2 3 8 2l25-5c7-2 16-11 19-19 3-9 3-24 1-29l-2-7-1-6-2-3-1-3-2-3c0-2-5-6-7-6l-2 1zm9 13l-1 1-2-2c0-1 2-1 3 1zm-62-11l-1 2c0 3-3 3-6 0-2-2-4-3-4-1s5 6 7 6c3 0 6-3 6-5s-1-3-2-2zm30 26l3 1 2-1-2-1-3 1zm-26 11c-2 4-4 5-9 5-4 0-5 1-2 3 4 2 4 4 0 8-4 5-5 8-3 11 1 3 1 3 3 2 6-4 10-9 7-12-2-2 0-3 3-1 4 2 5 2 5-3s1-6 2-6l2-1-2-1c-4 0-6-2-4-3l2-2c0-3-2-3-4 0z"/><path d="M1109 291l1 1 1-1-1-2-1 2zm-95 4c-2 1-1 3 1 3l2-1c0-2-2-3-3-2zm114 8c0 2 0 2 1 1v-2c-1-1-1-1-1 1zm-134 1c-1 2 0 3 2 3l2-1c1-1 0-4-2-4l-2 2zm107 2c0 2 0 2 2 1 3 0 2-2 0-3s-2-1-2 2zm-115 2l1 3c1 2 2 0 2-3h-3zm-12 5v3c2 1 4 0 4-2-1-3-4-4-4-1z"/><path d="M962 315l2 5c1 2 2 7 0 9l-4 2-4 2h12l4-1 6-2h5c3 1 4 1 7-1 2-2 2-2 5 0 2 2 4 2 7 2l5 1 2 2 5 2 2 2 4 3c2 2 2 3 2 9-1 4 0 8 1 10l1 3v-3l2-7c1-5 1-6-3-12-4-8-9-12-15-13l-5-2c-2-2-6-3-8-1-1 2-3 1-3-1s7-5 9-4 2 1 1-2l-4-2-6-2c-2-2-3-2-3-1-1 6-4 9-6 9l-3 1-3 3c-5 2-11-3-12-10-1-5-3-5-3-1zm-10 3c-2 1-1 4 1 4 2 1 3 0 3-3l-2-2-2 1zm100 1l1 3 2 2c0 1-5 2-8 1h-4l-6 1c-5-1-5-1-5 1s0 2 2 2c1-1 2 0 3 1 2 3 3 2 5-1 2-5 10-2 10 4l2 4c2 1 3 2 3 4l2 3 1-5 1-6c2-1 1-3-2-3h-3l1-5c0-4 0-5-2-6h-3zm-122 6c-2 1-1 3 1 3s2 0 2-2c0-1-2-2-3-1zm-18 2l-1 2c0 2 1 2 3 2s2 0 2-2-3-4-4-2zm210 2v2c1 1 3-1 2-2h-2zm7 6c-1 1-1 1 1 1 3 0 4 0 2-1h-3zm-208 10l4 3 3 2 1-3 2-3h-5l-5 1zm129 1l-4 2-7 1c-3 0-4 1-4 4-2 5-1 5 3 4h5c3 3 3 2 6 0l5-3v-8h-4zm-107 13v2l2 3 2 3c2 2 2 2 3 0 2-1 1-2-1-3-2 0-3-1-3-3 0-3-1-3-3-2zm111 1l-4 1c-2 0-3 2 0 5 2 2 2 2 5 1 4-1 7-5 6-7s-4-2-7 0zm-21 3c-1 2-2 3-1 5v5l1 3 1 7c0 5 1 6 2 6l3-4c1-5 1-6-1-6s-2-1-2-5c-1-6 0-8 3-8 2-1 2-1 0-1l-2-1-1-3c-2-1-2-1-3 2zm58-1l2 1 1-1-2-1-1 1zm-42 10l2 1c2-1 3-3 0-3l-2 2zm69 0l1 1 1-1-1-2-1 1zm3 5l-1 1 2-1c2-2 1-2-1 0zm-150 1l1 1 1-1-1-2-1 2zm20 14c-1 1-1 1 1 1l2-1h-3zm71-171l2 3 2 2 1-2 1-3h-6zm19 7l2 4c2 0 4-3 3-5-1-1-4-1-5 1zm20 1v3c1 2 4 2 4-1 1-3-2-4-4-2zm80-5l-1 10-2 11-2 6-3 2-5 4c-3 3-4 3-7 2h-14c-1 2 3 5 5 5l5 2 7 1 5 2c2 2 3 1 3-1l6-6c5-5 6-7 6-19l1-11v-8c-2-4-3-4-4 0z"/><path d="M1166 250c-1 2 2 4 3 2l1-3c0-2-3-1-4 1zm23 9l-2 4c-3 4-1 8 3 5v-6c2 0 3-5 1-5l-2 2zm-49-34c-2 2 0 4 2 4 3-1 4-6 1-6l-3 2zm-19 4c-1 1-1 3 1 3 2 1 4 0 4-2 0-1-4-3-5-1zm-625 3l-3 2-2 1-3 2-6 3-4 3c0 2 4 1 5 0l2-2c4 0 6 0 7-3 2-4 8-4 8 1 0 2 0 2 3 2s3 0 3-4c0-6-2-7-10-5z"/><path d="M492 243l-3 3c0 1 3 2 5 1l2-6-4 2zm-17 3c-1 2 1 7 4 7 3 1 4-2 1-4l-2-3h-3zm-6 5l-4 2-1 2c0 2 2 1 5-2 4-3 4-5 0-2zm423-12c-1 1 0 2 2 2l6 3c5 3 7 3 5-1-1-2-2-2-3-1-2 0-3 0-5-2-1-2-4-3-5-1zm35 27l1 1 2 2c1 3 3 3 3 0l-2-2-3-2-1 1zm46 4l2 3c0 3 2 2 2 0l-2-4c-2-2-2-2-2 0zm4 8l1 3h2l-1-3h-2zm-34 17l-1 4c0 2 3 1 6-1l3-2-3-2c-3-2-3-2-5 1zm-72 34l-1 2c0 2 1 2 2 2 2 0 2-1 2-2 1-2-1-3-3-2zm21 0c-1 1 1 4 2 4 2 0 3-3 2-4h-4zm-346-67v5l2 1c2 0 2 0 2-2s-3-5-4-4zm-18 25c-2 0-1 1 2 3 4 1 5 1 3-2-2-2-2-2-5-1zm-9 20l1 1 1-1-1-2-1 2zm686 16l1 3h2l-1-3h-2zm-24 24l1 7c1 2 1 2 1-4 0-7-1-8-2-3zm6 22v2c1 1 3-1 3-3 0-1-2-1-3 1zm-768-60v3h3l4-2c4 0 4-2 0-2-5-1-6-1-7 1zm4 7v3h2c2-1 3-4 1-4l-3 1zm1 9c-2 1-3 3-1 4h4v5c-1 1-2 2-1 3 0 1 1 1 3-1l2-5 1-4c1 0 1-1-1-2h-7zm118-5l-6 2c-2 0-9 8-9 10l-1 5c-5 10-8 17-8 20s2 2 3-1l2-3 1-4 1-4 2-4 1-4 2-3c0-2 5-8 9-8 4-1 9-4 9-6-1-2-2-2-7 0zm113-1c-1 2 0 3 2 3l2-2c0-2-3-3-4-1zm-8 2c0 5-5 10-10 10-3 0-4 0-5-2s-4-3-6 0l-3 2c-6 3-1 5 15 4 5 0 6 0 8 2 3 3 8 5 10 5 3-1 2-3-1-5-2-1-2-1-1-2 3-1 2-3-1-6-2-1-3-4-3-6-1-4-3-5-3-2z"/><path d="M635 322c0 2 1 3 3 2 2-2 1-4-1-4l-2 2zm-18 1l1 2c1 1 3-1 2-2-1-2-3-1-3 0zm-9 2l2 4v-4h-2zm-10 4c-1 1 2 3 4 3l1-2c-1-2-5-2-5-1zm-62 2l-6 17-1 3-2 4-1 3-1 6 2-2 3-8 3-7 1-2 5-11-1-4-2 1zm55 0v3c1 1 1 1 1-1 0-3 0-4-1-2zm20 1l-3 4-4 3h7c1-2 3-1 3 2l3 4c3 1 3 2 3 4-1 1 0 2 1 3 3 1 3 5 0 6l-3 5-3 5c-2 1-2 4 1 4l1-2c0-2 2-3 4-1 1 1 1 1 1-1l2-5c1-2 2-4 2-9 0-8-2-12-6-14-3-1-3-1-2-3 1-1 0-2-2-4-3-3-5-4-5-2zm-32 3v2c1 2 4 1 4-1 1-2-3-3-4-1zm10 7c-5 5-8 5-13 1l-3-1a45 45 0 01-2 8c0 2 0 2 4 2l6-2 3-1 3-1c1-2 8-4 13-5 4-1 5-2 1-3l-4-2c-2-2-3-1-8 4zm-40-2l-1 2-1 4-2 5-1 5-3 6c-2 4-2 8-1 8l2-3 2-5 1-4c0-2 1-2 2-3l1-5 2-4 1-4c0-2-1-3-2-2zm170 2c1 2 3 2 3 1l-2-2-1 1zm-157 2c-1 1 1 4 3 4 1 0 2-3 1-4h-4zm37 4c-1 1 2 2 3 2l1-2h-4zm165 1c-2 1 2 8 4 6 2 0 1-4-1-5-2-2-2-2-3-1zm-174 2l-5 4-5 1-6 1-6 3c-6 2-7 3-2 4l4 1 2 1 2-1-1-1-2-1c0-2 3-2 4-1h4l5-2 1-2c0-2 1-2 3-2 3 0 8-4 8-6 0-1-1-1-6 1zm206-1l3 2c1 0 3 1 3 3l2 2c1 0 3 6 2 7-1 2-1 2 2 6 4 5 5 3 4-5 0-6-1-8-4-11s-4-4-8-5l-4 1zm-230 3c-2 1-1 2 1 2l2-1c0-2-2-2-3-1zm-72 3l-2 4-3 3 3-2 4-3c1-1 2-1 1-2h-3zm275 11c-1 4 0 8 2 8 2 1 3-3 2-7s-3-4-4-1zm-79 3l-1 2c0 2 3 3 3 0 1-2-1-4-2-2zm-87 3v3l2-4c0-2-2-1-2 1z"/><path d="M590 374c-1 1 0 2 2 2l5 3c3 3 8 4 10 2l4-2c3 0 5-2 3-3s-6-2-6-1c0 2-1 3-5 2l-3-2c-1-2-9-3-10-1zm-20 0c-1 1-1 1 1 2 2 2 4 2 4-1 0-2-3-3-5-1zm276 0c0 2 3 4 5 4s1-3-1-4h-4zm-278 8c0 3 3 4 4 3v-3h-4zm16 0l-3 2c-3 0-4 3-3 5l3 4c1 4 4 5 3 1l2-4c3-3 4-4 1-7-1-2-2-2-3-1zm18 5l1 3h3c2-3 1-4-1-4l-3 1zm-36 11c0 3 3 3 4-1 0-1 0-2-2-2s-2 1-2 3zm38 6c-2 2-2 2 0 4 3 3 3 3 6 2 3-2 4-6 1-6l-4-1-3 1zm-30 1l-1 2c1 2 1 2 4 0l3-2h-6zm49 2l-3 3c-4 1-4 3-1 5h10l1 4 1 1 1 2 2 2 1-2v-4c-1-3-1-4-4-4-3-1-4-5-1-5l2-1c1-1-2-2-3-1-2 2-3 1-3-1 0-3-2-2-3 1zm-30 0l3 4 3 6 2 3 1 3c0 3 2 6 4 4v-4l-5-11-1-3c0-2-1-3-4-3l-3 1z"/><path d="M622 420c1 3 3 4 3 1 1-1 0-2-1-3-2-1-2-1-2 2zm-4-1l2 1 1-1-1-1-2 1zm-141 3c1 1 4 2 4 0l-4-2v2zm41-1l-1 2c1 2 4 1 4 0 0-2-1-3-3-2zm91 2l2 1 2-1-3-1-2 1zm36 0l-1 3c-1 2-1 3 2 4 3 2 3 2 4 0 2-3 1-6-2-7h-3zm-108 5c-2 0-2 1-1 2 2 1 7 0 7-1l-3-2-3 1zm90 2c-3 2-2 3 1 3l4 2c1 2 4 1 3-2-1-2-4-5-6-5l-2 2zm-130 4c-2 2-2 2 0 4l5 2 4 2c2 2 16 0 14-3l-2-1c-1 1-3 0-4-1-2-1-4-2-6-1-4 1-8-1-9-3s-1-2-3 1zm33 0l-3 4-2 4 10-1v-5c-2-4-5-5-5-2zm31-1v3l1-3h-1zm-17 1l-3 1c-3 0-2 3 1 4 2 0 7-4 7-5h-5zm60 3c-1 1-2 2-2 5l-2 6-6 8c-3 4-3 6-2 7v2h-2c-1-3-2-2-3 1l-3 3c-2 1-1 3 1 3l4-1c2 0 6-3 6-5l3-4 9-23c0-4 0-5-3-2zm-38 6c-1 1 0 5 1 5l2-1v-3c-2-2-3-2-3-1zm10 7v2c1 1 4-1 4-3 0-1-3-1-4 1zm-21 6l1 1c2-1 2-3 1-3l-2 2zm-16 2c-1 1-1 1 1 1s3 0 2-1h-3zm20 3c-3 2-2 4 1 4h6c2 1 3 1 3-1 1-3-1-5-2-3s-4 2-4 0h-4zm19 2l2 2 1-1c-1-2-3-2-3-1zm-6 1l2 1 1-1-1-1-2 1zm5 11c-4 3-4 3 0 3l4-2c2-4 0-5-4-1zm7 3c-2 2 0 3 5 2 4 0 4-3 0-3l-5 1zm-21 2l-3 3c0 4 1 5 3 3l3-2 4-2 3-3h-4l-6 1zm36 3l-3 1-2 2c0 2 1 2 2 2 1-1 3 0 5 2l3 2-2-4-2-3 1-2h-2zm22 2c-1 1-1 2 1 2l1-1c0-2-1-2-2-1zm-66 6l2 7c3 6 3 6 6 6l4-1c1-3 0-4-2-4-3 0-4-1-5-4-2-4-4-6-5-4zm28 4c-3 2-3 2-2 5 2 2 2 2 3 1 0-1 1-2 3-2 3 0 4-1 2-3l-3-2c0-2-1-2-3 1zm35 2l2 3 1 2c0 1 1 1 1-1 1-3 1-5-2-5-1-1-2 0-2 1zm-14 0c1 2 4 2 4 1l-2-2-2 1zm22 0l1 2c1 1 1 1 1-1s0-3-2-1zm-17 8l-1 2c0 2-1 3-3 4l-3 3c0 2 2 4 4 3l6-1 5-1v3l-1 3-2 2 1 2 4-5 2-3c1-2 1-2-2-5l-3-4s-1-2-3-2c-3-2-3-2-4-1zm-61 2l2 4c1 2 3 3 3 1l-1-1c-1 0-2-1-2-3l-1-3-1 2zm24 2l-2 3c0 1 1 1 3-1 3-2 1-4-2-2zm9 1l1 1 1-1-1-2-1 2zm16 0l-2 4c0 3 3 3 4 0l1-2 1-2c0-2-1-2-4 0zm-36 1c0 2 3 4 4 3s1-2-2-3c-2-2-2-2-2 0zm29 3l1 2c1 2 3 0 3-2h-4zm-19 4c-2 1-2 2 0 3 3 3 5 2 5-1-1-3-3-4-5-2zm-17 4l2 1 1-1-2-1-1 1zm51 9h-12c-3-1-3-1-3 1-1 2-1 2-2 1-2-2-4-2-4 0l-2 3c-4 4-3 5 4 5l12-1 5-1 5-2 4-2 3-1c0-1 1-2 3-2 4-2 1-3-5-3-5 0-7 0-8 2zm-26 1c-2 1-1 3 1 3l1-1c0-2-1-3-2-2zm-24 16l-1 2c0 1 0 2 2 2s3-2 3-4l-2-1-2 1zm17 0l2 1 1-1-1-1-2 1zm-6 3c2 3 2 4 4 2s0-5-3-5c-2 0-2 0-1 3zm28-2v4h2c1-2-1-6-2-4zm-17 6c-2 2-2 3-1 4s1 2-1 2v5c1 5 3 5 3 1l3-4c1-1 2-2 2-6 0-5-1-5-6-2zm-28 3c-3 2-2 4 2 4 2 0 2 0 2-2 0-3-2-4-4-2zm7 7c2 1 4 1 2-1l-2-1v2zm34 0c-1 1-1 2 1 2l1-1c0-2-1-2-2-1zm-55 2l-4 2c-2 0-3 1-2 5s2 4 4 0l4-4c2 0 3-1 3-3 0-3-2-3-5 0zm13 0l3 2c1 2 3 1 2-1l-4-2c-1 0-2 0-1 1zm22 5c-1 1 0 1 1 2l2 1c1 1 1 1 1-1l-2-2h-3zm-12 3v5l1 6 2 3c1 1 2 1 3-1l4-5c3-3 3-3 1-5l-3-1-2-1c-1-2-5-2-6-1zm24 2v2l6 4v-3l-6-3zm15 0c-3 0-3 1-4 3v4c-1 1 3 6 4 6l1-5 2-7c2-1 1-2-3-1zm-57 5l3 2c2-1 1-3-1-3h-2zm24 11c0 3 1 4 4 2l2-1-2-1h-4zm110-273c0 2 0 2 2 2s3-1 3-3 0-2-2-2-3 1-3 3zm21 0l2 4c2 0 4-3 4-4-1-2-5-2-6 0zm21 3c-1 2 2 4 4 2 2-1 2-3-1-4l-3 1zm24 2c0 3 1 4 3 3s1-4-1-5c-2 0-2 0-2 2zm22 0c-1 1-1 4 1 4 3 0 4-2 4-3-1-2-3-2-5-1zm23 3c0 3 0 3 2 3l1-3c1-2 0-3-1-3-2 0-2 0-2 3zm21 0c-1 1 0 5 1 5l3-2c2-1 2-2 1-3h-5zm22 1c-2 3 0 6 3 4 3 0 3-5 0-5l-3 1zm22 0v2c1 2 4 0 4-2-1-2-2-2-4 0zm59 49l1 1 1-1-1-2-1 2zm5 25c-1 2 1 4 3 4 3 0 4-1 3-4-1-2-5-3-6 0zm-462-43l-3 1c-2 0-8 5-8 7s2 1 5-2c2-2 3-2 6-1 2 2 3 1 3-3l-1-3-2 1zm8 4l2 3c0 1 4 1 5-1 1 0-4-4-6-4s-2 0-1 2zm-93 9l-2 1 2 1c4 0 5-1 3-2h-3zm17 23c3 11 3 21-1 22-2 1-1 3 1 3s4-1 5-3c5-7 3-24-3-24-2 0-2 0-2 2zm-17 6c-2 5-2 8-1 9 1 0 5-8 5-11 0-4-2-3-4 2zm8 1l-2 7c0 6 1 7 5 5s4-9 0-12c-3-2-3-2-3 0zm30 11c-2 2-2 3-1 5 2 2 6-2 6-4-1-3-3-4-5-2zm11 3l1 2 2-2-2-2-1 2zm-6 3l-3 3c-2 1-3 3-3 5s1 2 4 2c2 0 2 1 2 2 0 3 0 3 2 2l3-1c2 0 2-3 1-7 0-3-2-3-3 1s-3 3-3-1l1-3c2 0 3-3 2-4 0-2-3-1-3 0zm9 6c-1 2 0 3 1 4l2 4c0 3 2 3 3 0 0-3-2-10-4-10l-2 2zm-9 15c1 2 3 2 3 0l-2-2-1 2zm-75-20l1 2 1-2-1-2-1 2zm129 17l1 2c1 1 1 0 1-1l-1-2-1 1zm3 17v2c1 1 3 0 3-1 0-3-2-3-3-1zm-298 16c-1 2 1 3 6 1l4-2c-1-2-9-1-10 1zm13-1l1 1c2 0 3 9 2 14v6c1 2 1 2 3 0l1-11-2-10-3-1-2 1zm-9 6l3 2c2 1 3 2 3 5 0 4-1 4-4 0-2-2-3-2-4-1-2 2-1 4 2 5l3 1c0 3 2 3 3 1l2-3c1-2 1-7-1-9s-7-3-7-1zm54 3c0 3 0 4-2 6-4 5-2 9 3 5l2-8c0-3 0-4 2-5 2 0 2 0 0-1l-4-1c-2 0-2 0-1 4zm225-1c0 2 1 3 3 3 1-1 0-4-1-4l-2 1zm-291 3l2 6c0 4 2 5 3 3 1-1 1-3-1-6l-1-4c-1-3-3-2-3 1zm49 0c-3 3-3 9 1 15l3 4 3-5c3-6 2-8-2-8-2 1-3 0-3-2s0-3 2-4l2-2c-2-2-4-1-6 2zm27-2l1 1c2 2 1 7-1 10l-3 5c0 2 4 1 6-2 3-3 4-13 3-14h-6zm9 3l-1 1h6c-1-2-3-2-5-1zm6 3c0 1 1 2 3 1v-1h-3zm-114 4c-3 3 3 12 8 12 2 0 2-1-1-4l-4-7c0-2-2-3-3-1zm122 0l2 1 1-1-1-1-2 1zm6 3l3 2c3 0 3 0 3-2s-1-2-3-2c-3 0-3 0-3 2zm167 1c-2 2-2 2 2 2l4 2c3 3 4 2 4 0s-1-3-3-4c-2 0-3-1-3-2 0-2-1-1-4 1zm-183 2c-3 2-2 3 0 3 4 0 5 3 4 8l1 4 2-3 2-4c1-3 0-6-4-8l-3-2-2 2zm25-1l2 2c5 3 5 7 1 11l-5 5c-2 1-2 1 0 2h4c3-2 7-8 7-12l1-4-2-2c-5-2-6-3-8-2zm-9 7c-3 4-4 5-3 6 1 2 5-1 7-6 2-4 2-6 0-6l-4 5zm-107-1l-1 1 4 1 2-1c0-2-2-2-5-1zm275 0c-1 1 0 4 2 4s2-3 1-4l-2-1-1 1zm-255 4l-3 3-1 1c-2 0-2 3-1 5h2c3-4 7-8 10-8 4 0 4-2 0-3-3-1-4-1-7 2z"/><path d="M247 503l1 2c2 1 1 3 0 3-3 0-3 3-1 5 3 4 7 1 5-3-1-2-2-4-1-5 0-2 0-3-2-3l-2 1zm49 0c-2 1 1 2 4 1 1-1 1-1-1-1h-3zm9 7l-1 6c-3 2-2 6 0 6 3-1 5-5 4-11 0-3-1-5-2-5l-1 4zm-81-2c-2 1-1 3 2 4h4v-4c0-1-5-2-6 0zm-34 3c-2 2-3 2 3 4l1 5c0 5 2 6 4 2 3-5 2-10-4-13-1-1-2-1-4 1zm28 2c-3 6 1 11 6 8l5-1c2 0 4-4 3-5l-4 1c-5 1-6 1-6-1l-1-3c-2-1-2-1-3 1zm69 1c-3 4-4 6-1 10 3 5 5 6 7 3l3-1v-5l-4-1c-4 1-5-2-1-2 5-2 5-2 4-4-2-3-4-3-8 0zm-24 0c0 2 1 2 2 2l1-2c0-2-2-2-3 0zm54 0l-3 5c-2 3-2 3-1 4 2 1 3 1 5-1l1-7c-1-3-1-3-2-1zm93 0c-2 3-1 9 3 9 2 0 4-2 2-2l-2-4c0-3-1-5-3-3zm-267 2c0 1 6 2 11 0 2-1 2-1-1-1-6-1-10-1-10 1zm252-1c-1 1 0 7 2 8 1 0 3-4 2-6 0-2-2-3-4-2zm22 0c-1 1 1 4 2 4 2 0 2-3 1-4h-4zm-303 2c-1 0-1 3 1 3 3 2 4 1 4-1s-2-3-5-2zm71 3c1 3 3 4 3 0 1-2 0-3-1-3-2 0-2 0-2 3zm48 1l1 2c1 2 8 0 8-1 0-3-8-4-9-1zm91-1c-2 1-1 3 1 3s3 1 4 4c2 3 4 4 5 2 2-2-3-9-5-9h-5zm-188 1v1l4 3c2 2 2 2 3 1 1-3 0-5-4-6l-4 1zm212-1v9c1 1 2 0 2-5 1-2 0-3-1-3l-1-1zm22 1c-2 0-2 0-1 6 2 4 6 9 8 7l-1-3c-2-2-3-7-1-8l1-2h-6zm14 2c-1 2 0 3 2 3l3 2c2 3 3 2 3-1 0-2-1-3-3-4h-5zm-231 2l-2 4c1 3 3 4 4 1s5-4 6-1c0 1 3 2 4 0 0-2-5-6-8-6l-4 2zm97 0h-5c-2-1-2-1-2 1l-2 3-5 3c-3 2-6 3-6 1l-1-1-2 1 2 2c2 1 1 2-2 7-3 4-3 8-1 7l5-6a35 35 0 0114-12l6-3c3-2 10-2 15-1 10 2 11 2 11 1l-3-3-5-1c-5-2-16-1-19 1zm-104 2l-2 4-1 5c0 3 3 3 4 0l1-4c2-2 1-7 0-7l-2 2zm34 2c0 3 1 4 1 2v-4l-1 2zm-46 1c0 3 1 5 3 3l-2-6-1 3zm34-2v7c-1 6-1 7-4 11l-3 5-2 4c-3 4-4 6-2 6 1 0 8-7 10-13 3-6 3-6 2-14l-1-6zm153 0c-2 1-1 4 1 4 2 1 3 2 3 4 0 3 2 4 5 0 2-3 3-5 1-5l-2 1c-1 2-3 1-3-1s-4-5-5-3zm-42 2c-1 1 0 1 2 1 3 0 3 0 2-1h-4zm104 1c-1 2-1 4 2 4 1 0 2-1 1-4 0-2-2-3-3 0zm-226 3c0 2 1 3 2 3l2-3c0-1 0-2-2-2s-2 1-2 2zm53 1l-4 5c0 2 4 1 5-1 2-3 5-2 8 2s5 4 5 1-6-10-9-10l-5 3zm152-1c-2 1-1 4 0 5 3 1 5-2 4-4s-3-3-4-1zm-182 3c0 2 0 3 1 2v-4c-1-1-1 0-1 2zm6-1c-2 1-2 2-1 7l1 6c1 1 2-3 2-6 0-4 1-5 6-5 3 0 4-2 1-3-2-1-8-1-9 1zm-70 3c0 2 4 5 5 5l1-4c0-2 0-2-2-2l-4 1zm33 3c0 2 2 3 5 2 4-1 3-2-1-3l-4 1zm31 6l1 5v-8c-1-2-1-1-1 3zm29-2c-2 3 1 6 4 5s2-4-1-6c-2-1-2-1-3 1zm-84 1c-2 2-5 3-7 1h-5l2 3c4 4 13 2 13-4 0-2-2-3-3 0zm57 8l1 2c1 1 1 0 1-1l-1-2-1 1zm30 1c-2 0-3 2-4 3-2 2-2 2-1 3s2 1 5-1l6-2c3 0 3-3 0-3h-6zm-89 1v4l5-4h-5zm16 1c0 2 1 8 3 9l3-1v-3l-2-4c0-3-3-4-4-1zm8 2c0 2 1 2 3 2s2 0 2-2 0-3-2-3-3 1-3 3zm30-1l-2 5c-2 5-3 9-1 9l2-2 1-4c2-3 2-10 1-10l-1 2zm43 6v5c1 3-3 10-5 10l-3-3c-1-3-1-3-3-2-1 3-1 4 1 6 3 3 6 2 10-2s5-6 5-11c0-4-3-5-5-3z"/><path d="M212 568c-2 2 0 5 3 5 2 0 2 0 1-3s-3-4-4-2zm-41 7c0 3-1 4-4 7l-6 4c-3 0-6-4-7-7s-1-3-1 1c0 5 2 9 6 10 2 0 3 0 5-2l5-3c3-2 5-8 3-10l-1-1z"/><path d="M161 577l-1 3 2 2c2 0 2-1 2-2 0-3-1-4-3-3zm63 6c-3 3-4 4-4 7 0 6 3 5 5 0 0-3 2-5 3-6l3-4c0-2-3-1-7 3zm-39 5c1 3 5 4 5 1 1-2 0-3-2-3-3 0-3 0-3 2zm50 1c-1 0-2 1-2 3l-1 3c-1 2 3 7 5 7l5-3c3-3 3-3 1-4s-2-1-4 1-4 0-1-4l1-3h-4zm-68 5l-1 7c1 1 0 2-1 3s-2 13 0 14l2-10 2-8v-8c-1-2-1-2-2 2zm24 0h-3l-3 1c-2 4 5 6 7 2l2-3h-3zm-42 5l1 8c0 4 0 4 1-1 1-7 0-11-1-11l-1 4zm34 13c0 2 3 5 5 5l2-1c1 0 0-3-2-4-2-3-5-2-5 0zm-36 10c0 2 0 3 1 2v-4c-1-1-1 0-1 2zm7 2c-2 3-1 4 2 4l1-3c1-3-1-4-3-1zm25 1c0 3 3 6 6 6l3-1 2-1 2-3-2-1-2 1c0 2-3 1-5-1h-4zm-17 2v14c1 1 2-5 1-11l-1-3zm-13 4c-2 3 4 8 7 7s3-5 0-5l-4-1c-1-2-3-2-3-1zm34 10c-2 1-1 5 1 6 2 0 2 0 0 1l-4-1c-2-2-4-1-4 1 0 3 2 5 5 5s5-1 5-3l1-3c2-1 1-6-2-7l-2 1zm-23 4c-2 1-2 3-2 13l1 13 2-13v-15l-1 2zm-19 16c0 6 0 6 1 2v-6c-1-2-1 0-1 4zm38 3l2 4c3 0 3-2 2-4s-3-3-4 0zm-5 4c-2 1-1 4 2 6 4 2 8 2 7 0l-9-6zm-29 5c-3 2-2 3 2 3 2 0 3 0 3-2-1-2-3-2-5-1zm-7 5c0 1 7 7 9 7 2-1 5-6 4-7h-2c-1 2-8 1-10 0l-1-1zm18 4v8c1 3 1 2 1-5v-8l-1 5zm19 2c-3 2-3 4 1 4 3 0 3 0 3-2 0-4-1-4-4-2zm-5 7c0 3 3 6 5 6s6-4 6-6h-7c-2-3-4-2-4 0zm-17 8v17l2-8-1-10c-1-1-1 0-2 1zm18 6c-1 3 0 6 2 6 3-1 4-4 1-6h-3zm-36 7c0 3 0 4 1 3v-7c-1-1-1 1-1 4zm33 4c-1 2 1 4 3 4l2-2c0-2 0-3-2-3l-4 1zm-28 3c-1 2 0 4 4 2 3-1 2-3-1-4-2 0-3 1-3 2z"/><path d="M136 726c2 5 5 6 9 2 4-3 5-2 5 5-1 7 0 8 1 1 1-4-1-11-2-11l-4 2c-3 1-3 1-6-1-3-3-4-2-3 2zm32 6c-2 3-1 4 2 3 3-2 4-3 3-5 0-2-3-1-5 1zm5 6c-1 1-2 2-3 1l-3 1c-1 1 1 5 3 5s6-4 6-7-2-3-3 0zm-41 3l-1 6c1 2 0 4-1 5l-1 4c1 2 1 2 2-1 2-3 4-18 3-18l-2 4zm15 5v9 6l1-3 1-9-1-7-1 4zm17 12c0 3 5 4 6 2 0-2-2-5-4-5s-2 1-2 3zm-31 7c-3 3-3 6 0 8 2 2 3 2 6 0s3-2 5-1c1 2 1 2 1-2v-5l-2 2c-2 2-7 3-7 1l2-2v-3c-2-1-3-1-5 2zm-8 9c1 10 2 12 2 3l1-9-1-2c-2 0-2 1-2 8zm36-6c0 2 2 5 4 5s7-3 7-5h-1c-2 1-6 1-7-1 0-1-3-1-3 1zm-20 16l-1 12c0 7 0 8-4 13-3 4-3 5-5 4l-3-1c0-2-3-1-3 0 0 2 4 6 6 6l4-2h2v13l1 12c1 0 3-22 1-25l1-4c3-8 5-31 2-32l-1 4zm22-3c-3 2-2 3 2 3 3 0 4-1 3-3h-5zm4 7h-3c-4 0-4 0-4 2l3 3c2 1 2 1 5-1 2-3 3-5 0-5l-1 1zm-44 1v17l1-6 1-7c0-3-2-5-2-4zm37 13c-1 1-1 2 1 3 1 2 1 2 3 1 1-2 1-5-1-5l-3 1z"/><path d="M130 805c-2 1-2 2-1 3 1 2 5 1 5-2 0-2-2-3-4-1zm25 8c0 2 4 5 7 4 1-1 1-1-1-3-4-3-6-4-6-1zm2 10c-3 1-2 3 2 3l3-1-3-3-2 1zm-37 6v19h1v-22l-1 3zm42 0l-4 1c-4-1-5 1-3 4s7 1 8-2c1-2 0-5-1-3zm-8 15v3c3 1 6 0 4-3h-4zm-20 2v3c1 3-3 10-6 10-2 0-3-1-3-2-1-2-3 0-3 2s3 6 6 6l3-2 3-3c1 0 2-2 2-10v-6l-2 2z"/><path d="M126 850v5c2 0 5-4 5-5h-5zm24 2c0 2 3 4 5 3 3-1 2-2-1-4-4-1-4-1-4 1zm-33 6v5l1-4v-5c-1-1-1 1-1 4zm36 5l-1 3-1 1-2 3c0 5 8 6 11 1v-6c-2-3-5-4-7-2zm4 6l-2 1c-3 0-4-1-2-2 3-1 4-1 4 1zm-41-2l1 2c1 1 1 1 1-1 0-3-1-4-2-1zm16 8v18l1-5v-12c1-8 0-9-1-1zm19 3c0 2 2 3 3 2s0-3-1-3l-2 1zm-4 6c-1 2 1 5 3 5s3-2 1-3l-3-2h-2zm9 0c-1 2 0 3 1 1v-1h-2zm-8 11c-2 0-1 3 1 3 3 1 4 0 4-2-1-2-2-2-5-1zm-29 5c0 2 1 2 3 2 3 0 3 0 3-2l-3-2c-3 0-3 0-3 2zm9 1c-2 2-2 2-1 4l1 6c0 2 0 3 1 2l1-7c0-6-1-6-2-5zm24 1h-2c-2-2-4-1-4 2 0 2 1 3 3 3 3 0 6-2 6-5 0-2-3-3-3 0zm-37 3c0 3 3 5 7 5 2 0 3 0 3-2l-3-2-3-2c-1-2-4-1-4 1zm33 9c0 3 1 5 3 5 1 0 2-2 1-4 0-2-4-2-4-1zm-4 6c-2 3-1 6 2 5h5l4-1-4-1c-3 0-4-1-5-2l-2-1zm1 11c-3 1-2 3 1 3l3-1-2-3-2 1zm-29 6l-1 2c0 1 2 2 4 1l1-2c0-1-2-2-4-1zm33 1c0 1-1 2-3 2l-3 1c-1 2 1 5 3 5 3 0 6-3 6-6 0-2-2-4-3-2zm-3 15c-1 1 1 5 3 5 3 0 3-1 1-4-2-2-4-3-4-1zm-5 4c-2 1-1 4 1 5 1 2 3 2 6 2 5 0 6-2 2-3l-6-2c-1-2-3-3-3-2zm-29 16l-3 2c-3 0-2 3 0 6 4 3 10 2 10-1 0-1-1-2-3-2l-4-1 1-1c2 0 4-3 4-5s-3-1-5 1zm33-1c-2 3-2 4 2 4 2 0 2 0 2-3 0-4-2-4-4-1zm-24 3l1 3v10l1 8c1 0 2-21 0-21h-2zm28 5c-1 2-1 2-3 1-3-1-3-1-2 2 0 2 4 4 7 3l1-4c0-4-1-5-3-2zm-41 16v8c1 2 1 0 1-5 0-9-1-10-1-3zm38 18c0 21 1 27 3 28v-5-15c0-24 0-27-2-27l-1 19zm-32-4c-2 23-2 26 1 26l1-18-1-18-1 10zm35 46c0 5 2 9 3 6l-2-11-1 5zM99 546c-3 5 0 15 5 17 3 2 3-2-1-5-2-2-2-3-2-8s-1-7-2-4zm-4 21l-1 2c0 2 0 2 2 2 3 0 4-1 3-3s-4-3-4-1z"/><path d="M101 572c-1 2-4 3-6 1-3-4-6-1-4 3l6 2c5 0 11-7 6-8l-2 2zm7 7l-2 7 1 1c2 0 3-2 3-9 0-6-2-5-2 1zm-13 6l-3 20 1 2c3 0 5-7 5-16 0-7-1-9-3-6zm7 20l-1 5c0 3 0 3 1 2l1-5-1-2zm-11 8c-3 2-2 3 1 3 4 0 5-1 3-3h-4zm-6 8c1 4 2 4 5 4l4-1 3-2c2 0 2 1 2 4s0 4 1 3l-2-12-4 2-3 2-2-2c-4-3-5-3-4 2zm-2 16c-1 9 0 12 2 12s3-4 2-10v-8l-2-3c-1 0-2 1-2 9zm12-1v6l-1 6c-1 2-2 4-1 6v4l2-6 2-10c1-4 1-7-1-7l-1 1zm-13 21c-1 2-1 3 1 3 2 1 3 1 3-2 0-4-2-4-4-1z"/><path d="M78 661c-2 1-1 5 2 7l3 2c2 0 10-7 10-9s-4-1-6 1l-4 2-3-2c0-2-1-2-2-1zm12 16v10c1 3 2-8 1-13-1-4-1-4-2 3zm-13-4c-1 3 0 27 2 27s3-25 1-27h-3zm10 24c0 8-1 9-5 13-5 5-7 5-8 1s-2-3-3 1c0 3 0 4 2 6 3 1 6 0 11-4 3-3 5-9 5-17 0-4-2-4-2 0z"/><path d="M76 707l1 2c2 2 3 1 3-1 0-3-3-4-4-1zm8 15a66 66 0 001 15l1-10-1-6-1 1zm-9 3c-1 2-3 16-2 18l2 2c2 0 2-1 2-10s-1-13-2-10zm6 22v4l-2 3-3 2c-1 4-4 5-6 2-5-5-7 0-2 5 4 4 4 9 1 14l-1 12-1 10c-1 2 0 4 3 4 2 0 1 3-1 4l-5-2c-4-5-8-3-4 1l3 3c1 2 7 2 10 0l2-5c1-3 1-3-1-3-2 1-5-5-3-8 1-1 2-5 2-22 0-6 1-7 2-8l2-2 2-2c3 0 5-12 3-14l-1 2z"/><path d="M70 752l1 2c1 2 6 0 6-2h-7zm-10 16c0 2 0 3 1 1v-4c-1-1-1 0-1 3zm-3 19l1 3 1-3-1-2c-1-1-1 0-1 2zm8 32l-1 7-2 10c0 8 0 8 2 8 2-1 4-9 4-21 0-6 0-8-2-8l-1 4zm-9 8l-1 3 2 2c2 0 2 0 2-3 0-2-2-4-3-2zm16 10v6c1 2 1 2 1-1v-6l-1-3v4zm-10 12c0 2 1 2 5 1 3 0 1-3-2-3-2 0-3 1-3 2zm7 3l-3 3h-5c-3-3-4-3-4 1 0 3 2 6 5 6 2 0 7-4 7-6l2-1 1-2-1-2-2 1zm-10 21c-1 7 0 16 2 16l2-7c-1-1 0-4 1-7 1-5 1-7-2-7-1 0-2 1-3 5z"/><path d="M69 882l-3 11-1 2c0 2-4 5-6 5-3-1-2-4 1-5 3 0 3-3-1-4-2 0-6 5-6 8 0 2 2 5 5 6 4 0 10-5 11-10 1-4 2-21 1-22l-1 9zm-3 32v10c1 2 1 2 2-9 0-11-2-11-2-1zm-9-4l-1 12c-1 9-1 10 1 9 3-2 4-22 1-22l-2 1zm-3 25l-1 3c0 4 4 2 5-1 0-3-2-4-4-2zm-5 24c-2 6-3 17 0 17 2 0 3-3 3-12 1-9 0-11-3-5zm11 6v11l1-5c1-6 0-10-1-6zm-3 30v6l1-3c0-4 0-4-1-3zm-7 15l-1 8-2 6-2 9c-2 4-1 23 1 25l2 6-1-18c0-8 0-9 2-11 1-2 2-4 1-9 0-5 0-6 2-6l1 10 1 7c2 0 1-29-1-32-2-5-3-3-3 5z"/><path d="M51 1041v8c1 1 2-1 2-6 0-4-1-5-2-2zm-9 20c-2 3-1 12 1 15l2 5c0 2 0 2 1 1v-9l-2-8c0-5-1-7-2-4zm-3 16l-1 5c0 4 1 5 2 6l1 4c0 3 2 5 3 2l-2-6-1-6c0-5-1-7-2-5zm89-500l-1 2h5c0-1-2-3-4-2zm-4 7c-1 1-1 1 1 3 3 3 4 3 7 2s2-2-2-4l-4-2-2 1zm1 11c-2 1-5 6-5 7l3 4c2 1 3 2 5 1 3 0 6-4 6-7s-1-3-5 1c-2 3-3 3-4 2 0-2 0-3 2-4 2-2 3-4 0-4h-2zm-5 21c0 2 4 4 5 2l-3-4-2 2zm-4 6c0 3 4 6 7 6 2 0 6-3 6-4l-4-1-6-1c-2-2-3-2-3 0zm1 13c-1 1 2 5 4 5l2-5h-6zm5 6c0 2-4 3-5 2-2-1-5-1-5 1 0 3 3 5 6 5s6-2 8-6c1-3 1-3-2-3l-2 1zm-9 17c1 3 3 4 5 2 2-1-1-5-3-5s-2 1-2 3zm6 8h-8c-2-1-2-1-2 1 0 4 4 5 9 3 3-1 5-4 3-5l-2 1zm-6 11v2h4v-2l-2-2-2 2zM108 680c-1 2 2 8 5 8 4 0 11-6 8-8h-2c-1 2-6 3-8 0h-3zm0 15s0 2 2 3c1 1 2 1 3-1 2-1 2-1 0-3-2-1-4-1-5 1zm-2 8c-2 2 0 3 4 3s5-2 2-3h-6zm1 9c1 1 0 2-1 3v4c1 5 8 3 11-3 1-3 1-3-1-4s-4 1-4 3l-1 2c-2 0-2-2 0-4 1-3 1-4-2-4-2 0-2 0-2 2zm-6 18c2 3 4 2 3 0l-3-2h-2l2 2zm5 5l1 3 2 1c2 0 3-1 3-3 0-3 0-3-3-3s-3 0-3 2zm-7 5l2 4c1 4 2 4 5 4l5-1c1-1-1-4-3-4l-5-2c-2-2-4-3-4-1zm4 17c-2 1-1 3 2 4 2 1 2 1 1 2-3 1-7-1-8-3 0-2-1-3-2-2-2 1-1 5 2 8 4 4 8 4 12-1 3-3 3-6 1-6l-3-1c-1-2-4-2-5-1zm7 23l1 2c1 1 1 1 1-1 0-3-1-4-2-1zm-11 1c-2 1-1 4 2 6 4 1 4 3 1 4l-4-1c-2-2-3-2-3 0 0 3 3 5 5 5l5-3c3-3 3-3 1-5l-2-4-1-2h-4zm-2 20c-3 2-2 5 1 5s3 0 3-3c-1-4-2-5-4-2zm4 8c-1 2-1 2-3 1l-4-2c-3 0-2 4 0 7l2 2 4-2c3-1 4-3 4-5 0-4-2-4-3-1zm-4 17c-1 1 1 4 3 4 1 0 2-2 1-4h-5zm-5 9c-2 3 2 5 7 3 3-2 3-3-1-3l-3-1c-1-1-3-1-3 1zm3 11c-1 2 0 4 2 4l1 1-5 1c-3 0-4 1-4 2 0 2 4 5 6 5s7-4 7-7l-2-2-2-3c0-3-3-4-3-1zm-1 22c-2 2-2 2 0 3s4 1 4-2c0-2-2-3-4-1zm-7 9c-1 1 1 4 3 4l2-1c2-2 2-2-1-3-4-2-4-2-4 0zm4 9c-3 0-2 3 0 3 4 0 5 2 3 4-2 1-2 1-4-1-3-2-4-2-4 2 0 5 6 6 10 2 2-2 2-5 0-9-1-2-2-2-5-1zm-4 20c-1 2 0 4 2 4s3-1 2-3c0-2-4-2-4-1zm-4 9l2 3 1 3c0 2 1 2 3 1 3 0 3-3 0-4 0 0-2-1-2-3-1-3-4-3-4 0zm7 12h-5c-5 0-5 1-2 4 4 4 12 0 12-5 0-2-3-1-5 0zm-4 15c-1 3 1 6 4 4 2-1 2-1 0-3-2-4-4-4-4-1zm-6 10c-1 3 1 5 3 6 4 0 5-2 2-4-3-3-4-4-5-2zm3 10c-1 1 0 3 2 3l1-2c0-2-2-3-3-1zm2 6h-4c-4-2-5-1-3 3 3 5 11 3 11-3 0-2-2-3-4 0zm-5 55a175 175 0 01-3 52c-1 11-1 11 1 10 1-2 2-4 2-11l2-11c1-2 2-9 2-36 0-33 0-38-3-38l-1 34zm426-428l2 2c1 0 1-2-1-3l-1 1zm29 13v2c2 0 4-1 2-2h-2zm16 6v2h2c1-3-1-4-2-2zm40 12v1c2 2 3 0 1-1h-1zm-377-4c-2 1 0 4 2 4s3-2 2-4h-4zm5 22l-1 7-1 8-2 8c0 5 0 5-2 5l-4 2c-2 1-2 1-3-1s-4-3-4 0c0 2 3 6 5 6 3 0 9-4 10-6l1-7 1-8c2-1 2-4 2-8 0-6-1-8-2-6zm-18 15v5l1 4v-4c1-4 0-7-1-5z"/><path d="M208 666v2l4-2c0-2-4-2-4 0zm-10 20c0 6 0 6 1 2v-6c-1-2-1 0-1 4zm11 10v12c1 1 2 0 2-6 1-7 0-10-2-6zm-14 4c0 2 0 3 1 2v-4c-1-1-1 0-1 2zm2 14c0 2 4 4 5 2l1-2c-1-2-6-2-6 0zm7 5c-3 3-5 4-7 2l-3-1c-2 1-1 4 1 6 5 3 13-1 13-7v-4l-4 4zm-15 22c0 2 0 4 1 3v-6c-1-1-1 0-1 3zm1 14c0 2 3 5 5 5l1-3c0-2-1-3-3-3l-3 1zm5 9h-4c-3 0-4 0-1 3 2 3 6 3 7 0l1-2 1-1h-4zm-9 10c0 3 1 4 1 2v-6l-1 4zm-3 25c-1 8-1 10 4 10 4 0 6-1 6-4l-2-1c-2 1-6-1-6-3s0-2 2-2h4c1-2 0-3-3-3l-4-2-1 5zm0 14v6l1-4c0-4 0-5-1-2zm-3 16c-1 7-1 8 3 5 2-3 3-5 0-6l-1-2c0-4-2-2-2 3zm5 9c0 2-2 3-4 0h-2c-2 3-1 6 2 7 4 0 9-7 6-9l-2 2zm-7 10c-1 2-2 12-1 13l1-1v-12zm-4 24c0 7 1 8 5 8s4-3 0-4c-3 0-3-1-3-4l-1-5-1 5zm-3 24v19l4 1h4c2-2 0-4-4-4h-3v-8c0-8 0-10-1-8zm357-238v2c2 0 3-2 3-4 0-1-3 0-3 2zm47 9c-3 5-2 5 1 2 3-2 4-5 2-5l-3 3zm-99-1c1 2 4 2 4 0 1-1-1-2-2-2-2 0-2 0-2 2zm18 3c0 3 2 2 3 0l-1-2-2 2zm16 3c-1 1 0 3 2 3l1-2c-1-2-2-2-3-1zm32 8c-1 1 1 2 2 1l-1-2-1 1zm15 5c-1 2 2 4 3 2 1-1 1-3-1-3l-2 1zm19 6c-2 1-1 3 1 3s4-2 2-3h-3zm530 18l-1 3 1 2c2 0 3-5 1-6-1-1-1-1-1 1zm47 31v2l3-1c1-2 1-2-1-2l-2 1zm10 23l2 3 2 1 3 3c2 3 5 5 11 6l3 1 1 1 3 2 2 2c2-1 4 1 4 3 0 3 2 4 5 3s3-2-1-4l-3-3-3-3-5-4-2-1-5-3c-6-5-13-9-17-9v2zm31 1l1 1v-2l-1 1zm6 6c0 2 1 2 2 2l1-2c1-1 0-2-1-2-2 0-2 1-2 2zm12 2c1 3 2 4 2 1l-2-3v2zm-8 17l-2 4c0 2 0 2 2 1 3 0 4-1 3-4 0-2-1-2-3-1zm27 9c1 3 0 4-2 1h-2c-1 1-1 3 2 3l1 1 2 1c2-1 6 1 6 2l1 1c3 0 2-1-1-3l-4-5-2-3c-1-1-1-1-1 2zm-5 15c0 1 2 3 4 3s3-1 1-3h-5zm18 1c-1 2-1 2 1 2l2-2c-1-2-3-2-3 0zm7 3l2 2c2 0 3-2 0-3-2-1-2-1-2 1zm-11 4v2l3 3 3 3c4 0 4-1-1-5-4-4-5-4-5-3zm25 9c-1 1 2 2 3 1v-1h-3zm7 8l2 1c2-1 0-3-2-3s-2 0-1 2zM38 58c0 1 9 11 11 11l1-2c0-3 1-4 6-6 4-1 3-2-3-3l-10-2-5 1zm1169 148l-1 5c0 5 0 5 1 4l4-2c3 0 3 0 3-2l-2-4c-3-2-3-2-5-1zm-13 6c-2 1-1 4 1 5 2 0 4-2 4-4l-2-2-3 1zm-346 4l2 1 2-1-3-1-2 1zm-171 5v6l2 8c0 2 1 3 2 3 2 0 2-1 2-4l-2-6-1-5c1-2-1-3-3-2zm-17 1v3c0 3 2 3 2 0l1-3v-1l-3 1zm-13 9l2 1 1-1-1-2-2 2zm18 0l2 4 2 2v-3c0-3 0-4-2-4l-2 1zm65 2l-1 1c0 1 4 1 4-1h-3zm56 1l6 8c2 0 1-6-1-7l-3-1h-2zm-122 2c-2 5-2 7-1 7 2-1 3-7 2-8l-1 1zm57 1v2c1 1 4-2 3-3 0-2-2-1-3 0zm-31 3l1 3c2 0 1 4 0 5-3 2-2 2 2 1 4-2 5-5 2-6 0 0-2-1-2-3-1-3-3-3-3 0zm146 0l2 1 2-1c1-1 0-2-2-2l-2 1zm-54 0l1 2c1 1 1 1 1-1l-1-2-1 1zm-48 4l1 3 1-2-1-3-1 2zm67 10v2l-1 3v2l3 2 2 2 3-2 3-3h-3c-3 0-4 0-4-2s-2-6-3-4zm-88 7l-2 4 7-4-2-2c-1-2-2-2-3 2zm136-1c-2 3 0 6 2 5 3 0 2-2 0-5-1-2-2-2-2-1zm14 1v2c2-1 3-4 1-4l-1 2zm-177 1c0 2-1 2-4 1-2-1-3-1-4 1l-5 1h-5c-3 2-2 3 0 3h4c3 2 14 2 18 0 3-1 3-1 1-4-1-4-4-5-5-2zm10 0v2h2c0-3 0-3-2-2zm81 2l1 2 1-3-1-1-1 2zm95-1c-2 2 0 5 3 5s3-1 0-4c-1-2-2-2-3-1zm-164 5l1 2 1-3-1-1-1 2zm-9 3c-2 1-1 3 1 3s3-1 3-2c0-2-3-2-4-1zm119 7c-1 1 0 1 1 1l2-1-2-1-1 1zm-153 4l-1 1c1 1 5-1 5-2s-3-1-4 1zm229-1c-1 1 1 4 2 4 2 0 2 0 1-2-1-3-2-3-3-2zm-30 1c-1 1 0 1 1 2l3 1c3 1 3 1 3-1s0-2-2-2h-3-3zm-204 6c0 1 2 3 4 3s1-1-1-3h-3zm17 5c-3 4-2 5 1 4 4-2 4-4 3-5-2-3-3-2-4 1zm172-1v2h2l-1-3c0-1-1-1-1 1zm-50 0c-2 0-1 2 2 2l2-1c-1-2-2-2-4-1zm-97 3l2 2v-2c-1-3-2-2-2 0zm189-1h3c1-1 1-1-1-1l-2 1zm-32 4l-3 2h4c3 0 3 0 3 3 0 2 0 2 2 1l1-4c-1-4-4-5-7-2zm18 4l-1 2 6-2h-5zm-103 6l1 1 1-1-1-2-1 2zm-444 35c-2 1-2 2-2 5 0 5 1 7 4 7 5 0 8-5 6-10-1-3-3-4-8-2zm31 2c-1 1-2 3-2 7 0 5 0 6 2 6l5-2c3-2 3-8 0-10-2-2-3-2-5-1zm53 2c-3 3 1 12 5 10 1-1 3-2 3-4 2-2 2-3 0-5-1-2-6-3-8-1zm-115 17c-3 2-3 3-3 7 1 4 1 4 4 5 5 0 8-3 8-7l-2-6c-3-3-4-3-7 1zm25 12v6c3 6 8 3 8-5 0-4 0-4-3-4s-4 1-5 3zm-24 25c-2 1-2 2-2 5l1 5 2 2c2 1 3 1 5-1 3-2 3-7 0-10s-4-4-7-1zm16 25c-3 2-2 5 0 8 5 7 10 1 7-7-2-3-5-4-7-1zm-31 1c-2 2-1 8 1 10 2 3 3 3 7-1 4-3 4-4 0-7-2-3-6-4-8-2zm160 11c-2 3-2 6 1 9 2 1 2 1 4-1 3-2 3-8 0-9s-2-1-5 1zm-144 10c-2 1-2 2-1 6 2 7 6 9 10 5 5-5-3-15-9-11zm71 15c-3 3-2 8 2 10 4 3 5 3 7-1 2-2 2-2 1-6-2-2-6-5-8-5l-2 2zm52 2c-1 3 0 6 3 8h5c2-2 3-7 1-9l-5-1-4 2zm-80 5c0 4 3 8 5 8s7-3 7-5-6-7-9-7-3 0-3 4zm55 4c-3 4-3 8-1 11 2 2 3 2 6 1 3-2 4-3 4-7 0-3-3-7-6-7l-4 2zm-88 3c-2 5 0 10 4 10 3 0 5-2 5-5 0-6-7-9-9-5zm61 15c-2 3-2 6 0 10 2 3 3 4 6 2s4-5 3-8c-4-6-7-8-9-4zm-35 8c-1 4 1 8 4 8s6-3 6-5-5-7-7-7l-3 4z"/></svg>