<svg xmlns="http://www.w3.org/2000/svg">
  <symbol id="1" viewBox="0 0 300 347">
  	<path d="M57 1c-3.6.5-8.1 1.3-9.9 1.9-4.564503.45556-8.734218 2.99462-12.7 5.3-14.028902 9.28249-11.72029 10.00143-13.9 21-.5 2.3.7 13 2 17.8.4 1.4.8 3.2.9 4 1.9 10.7 3.3 15 4.7 15 .5 0 .9.6.9 1.4 0 .7 1.1 2.6 2.5 4.2 5.4 6.2 5.4 6.3 2.5 8.4-1.1.8-2 2-2 2.6 0 .7-.4 1.4-.9 1.6-.4.1-1.8 2.5-2.9 5.1-3.339191 3.67196-5.818189 9.44922-8.1 12.6-1.7 2.1-3.1 4.4-3.1 5 0 .6-.4 1.1-1 1.1-.5 0-1 .7-1 1.6 0 .8-.7 2.2-1.5 3-.8.9-1.5 2.4-1.5 3.5s-1.4 4.8-3.1 8.2c-2.4 4.9-3.2 7.9-3.6 14.2-.9 13.5 2.2 19.6 12.1 24.4 4 2 6.6 5.6 4.6 6.3-.5.2-1.1 2.3-1.4 4.7-.3 2.4-.8 4.6-1.2 5-.564049-1.23813-2.290453 2.15284-2.1 3.5-.285166.28517-.547743.90916-.787732 1.92567-.264956 1.12227-.502379 2.72296-.712268 4.87433-.890181 3.2874-2.447025 9.60998-2.5 10.3.301698 2.03002-.834651 10.7128-.232065 10.55083.9-.4 2.200206 1.56251 3.632065-5.05083-.1-2.1-.5-3.6-.9-3.4-.5.3-.8-.4-.8-1.5s.4-2.3 1-2.6c.5-.3 1-2.6 1-5s.5-4.7 1-5c.7-.4.9.2.4 1.9-.4 1.6-.2 2.6.5 2.6 1.3 0 1.4-3.9.2-5.8-.4-.7-.6-2.5-.3-4 .5-2.4.6-2.5 1.3-.7.7 2 .8 1.9.8-.1.1-3 4.2-14.4 5.1-14.4.5 0 .7 1.7.5 3.7l-.4 3.8 1.1-3.8c.9-3 1.6-3.7 3.7-3.7h2.6l-2.3 1.8c-1.7 1.3-2.4 2.9-2.5 5.5-.1 2.5-.4 3.4-1.1 2.7-.5-.5-1.5-1-2.1-1-.6 0-.5.3.2.8.6.4 1.7 5.4 2.3 11.2.6 5.8 1.7 10.9 2.3 11.3.9.6.9 1 .1 1.3-1.7.7-.7 8.4 1.2 9.9 1.2.8 1.5 2.2 1.2 5.1-.5 4.1 1.8 13 3.9 15.2.7.7 1.3 2.1 1.3 3.1 0 .9.5 2.2 1.2 2.9.6.6.8 1.5.4 1.9-.4.5-1.3.1-1.9-.8-.7-.9-2.3-2.1-3.6-2.8-3-1.6-11.1-9.1-11.1-10.2 0-.5.7-.6 1.5-.3 2.1.8 1.8-.6-.6-3.6-2-2.4-2-2.4-1.4-.3.4 1.3.2 2.3-.3 2.3-3.017395 2.57467.661097 5.09774 2.2 6.6 1.8 1.9 3.8 3.4 4.3 3.4.6 0 1.3.6 1.6 1.4.3.8 2.3 2.5 4.4 3.7l3.9 2.2-1.9 3.9c-1.2 2.5-2.3 3.5-2.7 2.8-.5-.8-.9-.7-1.3.5-.4.9-.3 1.3.3 1 1.7-1.1 1.1 1.1-1.5 4.9-1.4 2-2.5 4.1-2.5 4.6 0 .6-.4 1-1 1-.5 0-1 .7-1 1.6 0 2.2-4.5 9.5-7.5 12.4-1.4 1.3-2.5 2.9-2.5 3.6 0 .6-2.3 3.1-5.2 5.5-9.7 8.2-10.7 9.4-10.4 12.5.2 1.6.4 3.5.5 4.2 0 .7.5 1 1.1.7.5-.3 1 .1 1 .9 0 1.7 1.8 3.1 2.7 2.2.4-.3-.1-1.4-.9-2.3-.8-1-1.8-3-2.2-4.6-.5-2.2-.1-3.3 2.4-5.7 1.7-1.7 3.4-3 3.9-3s1.4-.7 2.1-1.5c1.3-1.5 5.3-1.2 7.6.7.6.4 1.8.7 2.5.5.8-.2 1.1-.2.6 0-.4.3-.4.9-.1 1.4.4.6 1 .6 1.8-.1 1-.8 2 .2 4 4.2 3.1 5.9 2.8 10.2-.7 13-1.7 1.4-1.8 1.8-.6 1.8.8 0 2.5-1.1 3.7-2.5 2.5-2.8 4.2-3.2 4.2-1 0 .9.7 1.8 1.5 2.1.8.4 1.5 1 1.5 1.6 0 .5-.5.6-1 .3-.6-.3-1.3.2-1.7 1.2-.4 1-1.1 2.1-1.7 2.5-.6.4-.8 1-.4 1.3.3.4 1.6-.3 2.7-1.4 2.1-2.1 4.7-2.9 3.6-1.1-.3.5-.2 1 .4 1 .5 0 1.2-.6 1.5-1.3.3-.6.3-.1 0 1.2s-.1 2.7.5 3c.7.5.4 1.5-1 3-2.3 2.4-2.1 3.5.4 2.6.8-.4 1.8-1.6 2.1-2.8.3-1.2.8-1.8 1.1-1.5 1.1 1.1 1.3 8.3.3 9.5-.8 1-.3 1.2 2.3.7 1.9-.4 3.1-.3 2.7.1-.4.4.6 2.1 2.2 3.7 1.7 1.5 3 3.3 3 3.8 0 .6.8 1.8 1.8 2.8 1 1 1.6 2.6 1.3 3.5-.5 1.5-1 1.4-4.9-.3-2.5-1.1-4.6-2.8-4.9-4-.3-1.1-.9-2-1.4-2-.5 0-.9-.7-.9-1.6 0-2-17-19-23-23.1-4.7-3.1-9-4.7-9-3.3 0 .5 2 1.9 4.5 3.1 5.892602 5.374883 17.68093 10.172445 26.9 27.3.5 2.7 1.4 3.6 4.9 5.1 2.3.9 5 2.1 5.9 2.6 2.6 1.3 2.6 1.2 3.3-2.4.5-2.7 0-4.4-2.5-8.6-1.8-2.9-3.6-4.8-4.3-4.4-.7.4-.8 0-.3-1.2.4-1.3-.3-3-2.4-5.6-1.6-2.1-3-4.1-3-4.4 0-.8-3.8-6.1-7.8-10.9-1.7-2.2-3.2-4.6-3.2-5.3 0-.7-.4-1.3-1-1.3-.5 0-1-.5-1-1 0-.6-1.1-2.8-2.5-5s-2.3-4-2.1-4c3.1 0 16.5 3.4 19.8 5 4.1 2 14 5 18.3 5.5 1.1.2 3.8.8 6 1.3 2.2.6 6.1 1.4 8.7 1.7 2.6.3 5 .9 5.2 1.4.3.4 2.4.8 4.8.9 2.4.2 6.9 1.2 10.1 2.2 3.1 1.1 6.7 2 8 2 1.3 0 3.1.6 4 1.2 1.5 1.2 1.4 1.9-.3 9.3-1.1 4.4-2 9.1-2 10.3.41896 4.828274 2.59203 5.89936 7.72545 6.14748 6.768.327125 17.11007-1.167401 19.77455-1.24748 3.5-.1 7.8.9 12.2 2.9 1.7.8 3.4 1.4 3.8 1.4.3 0 2.5.8 4.8 1.9 2.3 1 5.1 2.1 6.2 2.5 2.67429 3.66076134 12.76884 3.91745884 15.5.4.3-.4 1.5-.9 2.5-1.1 1.1-.1 2.5-.5 3-.8 1.30243-.4500761 1.84899-2.1674531 2.2-3.5.38803-1.1474814-5.28259-3.197772-5.3-3.2-1.4-.1-3.5-.7-4.7-1.4-1.2-.7-2.4-1.3-2.7-1.3-1.5-.2-19.7-9.8-21.2-11.1-.9-.9-2.3-1.4-3-1.2-.7.3-2.4-.6-3.7-1.8-1.4-1.3-3.8-2.8-5.3-3.5-2.59727-1.260365-6.75815-1.979782-6.5-6.8-3.55156-7.377055 1.21663-13.216341-1.6-13.4-.4.2-1-.3-1.3-1.1-.6-1.6-2.4-1.2-2.4.5 0 .6.5.7 1 .4.7-.4 1 .7.9 3.2-.1 2.1.1 6.1.5 8.9l.7 5-10.3-1.8c-5.7-1-11.9-2.1-13.8-2.5-1.9-.3-4.7-1.2-6.1-1.9-1.5-.7-2.9-1-3.3-.7-.3.4-.6.1-.6-.5 0-.8-1.8-1.2-4.8-1.2-2.6 0-7.4-.7-10.5-1.5-3.2-.8-7-1.5-8.4-1.5-2.6 0-7.4-1.3-12.3-3.3-1.4-.5-3.8-.9-5.5-.8-2.8.1-6.5-1.3-5.5-2.2.3-.2 3.6-.2 7.4.1 4.3.3 6.3.8 5.5 1.3-1.1.7-1.1.9.3.9.9 0 1.8-.4 2-1 .2-.5 4.8-1.4 10.3-1.9 5.5-.6 11-1.3 12.3-1.6 1.2-.3 3.2-.7 4.3-1 2.7-.5 3.5-1.3 2.5-2.2-.4-.4-1-.3-1.4.2-.4.6-1.6 1.1-2.7 1.3-1.1.1-3.6.5-5.5.8-15.7 2.2-24 2.8-24 1.6 0-.6.7-.9 1.5-.6.8.4 1.5.2 1.5-.2 0-.5 3.3-1 7.3-1.2 9-.3 29.4-6.9 27.4-8.9-.2-.2-2.9.8-6.1 2.2-6.4 2.8-6.6 2.9-6.6 1.5 0-.6.7-1 1.5-1s1.5-.5 1.5-1c0-1.2-1.7-1.3-2.4-.1-.8 1.2-16.2 5.8-22.4 6.6-3.1.4-5.6 1.3-5.9 2.1-.6 1.6-3.9 1.9-4.8.4-.4-.6-1.6-.8-2.7-.4-2.4.7-8.8-.4-8.8-1.6 0-.5 1.2-1.1 2.8-1.3 2.2-.3 2-.4-1-.6-2.1 0-3.8.3-3.8.8 0 .9-2 .7-11.2-1.1-3.2-.6-5.8-1.5-5.8-2.1 0-.5 1-.6 2.3-.2 5 1.6 12.6 2 19.2.8 6.8-1.1 22-6 31.8-10.2 5.8-2.5 6.3-2.6 4.7-.6-1.6 1.9-1.2 1.9 3-.3 13.6-7 19.6-11.2 16-11.2-.5 0-1-.4-1-1 0-.5.7-.7 1.5-.4.8.4 1.5.1 1.5-.4 0-.6-1.6-1-3.5-.9-3.9.2-4.4 1.3-1.7 3.3 1 .8 1.2 1.3.4 1.4-.7 0-3.1 1.4-5.4 3-2.8 2.1-4.4 2.7-4.9 1.9-.5-.8-1.5-.7-3.5.4-1.6.8-6.8 3.1-11.6 5.1-9.9 3.9-10.2 3.8-10.7-3.8-.2-2.2-.7-5-1.2-6.3-1.5-3.9-1.1-4.3 3.9-4.1 6.8.3 13.3-.8 21.5-3.8 3.9-1.4 7.9-2.6 8.9-2.7 1-.1 2.1-1.7 2.8-4.2.7-2.2 3.1-6.7 5.4-10 4.5-6.6 5.7-11.7 3.2-15-1.4-1.8-1.5-1.6-.9 3.1.5 4.4.2 5.6-2.3 9.5-1.6 2.4-3.5 5-4.1 5.7-.7.7-1.3 2-1.3 2.7 0 3.2-6.9 8.4-13.7 10.4-11.2 3.3-19 3.7-26.4 1.3-3.5-1.1-7.9-2.4-9.7-2.7-1.8-.4-5.1-2.4-7.3-4.4-3-2.9-4.2-3.6-5.2-2.7-1.8 1.5-5.7 8.4-5.7 10.1 0 1.3-2.9 2.9-3.8 2-.3-.2.7-2.2 2.2-4.3 1.4-2.1 2.6-4.3 2.6-5 0-.7.4-1.2 1-1.2.5 0 1.6-2.1 2.3-4.7 1.3-4.5 1.4-4.6 2.9-2.5.8 1.2 1.7 1.9 2 1.6.4-.3.9.3 1.2 1.3.7 2.1 7 6.6 9.2 6.6.7 0 1.4.4 1.4.9 0 .4.7.8 1.6.8.8 0 1.2-.4.9-1-.3-.5-.1-1 .4-1 .6 0 1.1.7 1.1 1.5s.1 1.5.3 1.6c.1 0 2.2.2 4.7.5l4.5.4-3-1.5-3-1.4 3 .4c1.7.2 4.1.4 5.5.5l2.5.2-2.5.8c-3.1.9 8.8.5 14.1-.5 3.5-.7 8.9-4.4 8.9-6.1 0-.4-.5-.3-1.2.4-2.2 2.2-2.8 1.3-2.8-3.8 0-6.4 2.1-12.4 7.6-21.7 4.7-8 5.3-10.3 2.8-10.3-.8 0-1.2.5-.9 1 .6.9-3 8.7-4.6 10-.3.3-1.3 2.2-2.3 4.3-.9 2-2.3 5.3-3.2 7.4-1 2.1-1.6 6.3-1.6 9.9v6.3l-5.3.6c-8 1-27.4-1.3-30.4-3.6-1.3-1-3-1.9-3.7-1.9-.7 0-1.6-.5-2-1.1-.8-1.3.3-1.1 10.1 1.5 3.2.9 6.8 1.5 8 1.3 1.5-.3 1.3-.5-.7-.6-1.6 0-2.8-.5-2.8-1 0-1.4 4.9-1 6.1.5.7.9 2.1 1.1 3.7.7 3-.7 11.2-5.3 9.6-5.3-2.1 0-7.9 2.3-9.8 3.9-1.8 1.5-1.9 1.5-1.3-.2.4-1 .3-1.6-.1-1.4-.4.3-2.7.1-5.2-.3-4.1-.7-4.2-.8-1.1-.9 5.9-.2 2.6-1.2-4.8-1.4-3.8-.2-6.5.1-5.8.5.7.4 2.4.8 3.8.8 1.5 0 3 .7 3.3 1.6.5 1.2.2 1.5-1.1.9-1-.4-2.8-.9-4-1-1.1-.2-3-.6-4.2-1-1.8-.5-1.9-.8-.7-2 1.9-1.9 17.6-1.7 17.6.2 0 1.4 2.6 1.1 7.8-.9 1.3-.4 2.9-.5 3.4-.2.7.5.9-.1.6-1.4-.4-1.2-.2-2.2.4-2.2.5 0 .6-.5.3-1-.3-.6-1.3-1-2.1-1s-1.2.5-.9 1c.8 1.2-2.3 4.5-3.3 3.5-.4-.3 0-1.2.9-1.8 1.4-1.1 1.5-1.8.2-6.2-3.1-11.6-2.9-14 2.2-21.4 2-2.8 3.2-5.1 2.8-5.1-1.3 0-5.8 6.2-7.3 9.9-1.6 3.9-1.7 13-.3 14 .6.3 1.2 1.9 1.5 3.5.4 2.2 0 3.4-1.7 5-1.9 1.8-3.2 2-8.9 1.8-6.5-.4-6.6-.4-6-2.9.4-1.4.1-4.9-.6-7.9-1.3-5.3-.8-10.2 1.6-16.9.6-1.6.4-1.8-.6-.8-.7.7-1.9 3.9-2.6 7.3-1 4.9-1 6.8.1 10.5 2.3 7.4.7 11.3-3.9 9.5-3.9-1.4-5.4-1.2-3.2.5 1.1.8 1.7 1.7 1.4 2.1-.8.7-4.8-1.4-4.8-2.4 0-.5-.8-1.7-1.8-2.8-.9-1-1.8-2.8-1.9-3.9 0-1.1-1-4.7-2.1-8-3.4-10.1-5.7-24.5-4.1-24.5.5 0 .9-.7.9-1.5s.6-1.2 1.4-.9c.8.3 2.6-.2 4-1.1 2.4-1.6 2.6-1.6 2.6-.1 0 .9.5 1.6 1.1 1.6.6 0 .8-.9.4-2-.8-2.5 1-2.7 2.4-.3.5 1 1.3 1.4 1.7 1 .4-.4.2-1.3-.4-1.9-2-2-1.4-3.2 2.1-4.7 1.7-.8 4.5-2.4 6.2-3.5 4.2-3 8.7-5.6 10.8-6.2 1.9-.7 2.4-2.4.6-2.4-.5 0-.7-.5-.4-1 .3-.5 1.1-1 1.6-1 .6 0 .7.4.4 1-1.2 2 1.2.9 8-3.8 3.9-2.7 7.6-6.1 8.4-7.8 1.4-2.9 1.8-3.6 4.7-8.7.8-1.6 1.4-3.1 1.1-3.3-.6-.6-5.9 7.5-6.1 9.4-.2.9-2 2.5-4.1 3.6l-3.7 1.9-2-2.4c-3.6-4.6-4-5.9-2.1-5.9 2.1 0 7.9-2 10.8-3.7 3.2-1.9 1-2.6-2.5-.8-4.7 2.4-4.8 1.1-.1-1.6 2.3-1.2 4.1-2.6 4.1-3.1 0-1.2-.5-1-6.2 2.3-7.4 4.4-13.5 6.9-16.8 6.9-1.6 0-3.2.4-3.5 1-.7 1.2-4.5 1.3-4.5.2 0-.5 3.5-1.9 7.8-3.2 9.4-2.8 15.1-5.2 13.5-5.7-.6-.2-2.5.3-4.2 1.2-4 2-4 1.3-.1-1.5 2.4-1.7 3.4-1.9 4.5-1 1 .8 1.9.8 3.4 0 2.4-1.2 2.7-2.6.9-3.3-1-.4-.9-.8.2-1.6 1.2-.9 1.1-1.1-.7-1.1-1.2 0-2.4.4-2.8.9-.7 1.3-13.4 10.2-15.5 10.9-1.9.7 3.3-4.4 6-5.8 2.4-1.3 2.5-2.4.4-4.5-2-2-3.2-1.1-1.4 1.1.9.9 1 1.8.4 2.2-.5.4-3.5 2.6-6.6 4.9-3.2 2.4-6.1 4.3-6.5 4.3-.4 0-1.9.9-3.3 1.9l-2.4 1.9h4.9c2.7 0 5.4-.2 5.9-.6.5-.3 3.1-.5 5.8-.5 3.8.1 5.2.7 7.3 2.9 1.4 1.5 2.5 3.2 2.5 3.9 0 .7-3.2 3.4-7.1 6l-7.2 4.8-1.8-2.4c-1-1.3-1.9-3.2-1.9-4.2 0-.9-.4-1.7-1-1.7-.5 0-1-.8-1-1.9 0-1.3-1.1-2.1-4-2.9-4.8-1.2-5.2-.3-.7 1.8 2.3 1.1 3.5 2.5 4.2 5.2 1.2 4.4 4.2 7.5 7 7 1.8-.2 1.9-.2.2.8-.9.6-2.2.8-2.7.5-.5-.3-3.4 1-6.5 3-6.1 3.9-7.5 4.2-7.5 2 0-.8-.7-1.5-1.6-1.5-.9 0-3.2-1.6-5.1-3.6-3.7-3.9-5.3-3.9-3.5.1.7 1.5 2.8 3.2 5.2 4.1 4.8 1.9 5.1 3.9 1 6.2-1.6.9-3 2.1-3 2.6 0 .4 1.1.1 2.5-.8 2.7-1.8 3.5-2 3.5-.8 0 .7-5.7 3.2-7.4 3.2-.4 0-.4-.6-.1-1.3.4-.6-.2-.1-1.3 1.2l-1.9 2.4-.8-4.9c-.4-2.7-.8-9.1-.9-14.2-.1-8.2.1-9.5 1.9-11.1 1.1-1 2.9-2.1 4-2.4 7.8-2.2 14.8-6.2 20-11.4 2.4-2.4 6.3-12.6 7.1-18.3.3-1.9.9-4.7 1.4-6.2.6-1.8.5-3-.2-3.4-.7-.4-.7-.9.1-1.4.7-.4 1.4-5.9 1.9-14.2.4-7.5.5-13.5.2-13.3-.3.2-.5-2.6-.6-6.1 0-3.5.1-6.4.3-6.4.2 0 1.6.6 3.2 1.4 2.8 1.5 3.8 3.9 6 14.1.5 2.7 1.3 7.4 1.5 10.4.3 2.9 1.1 6 1.7 6.7.8 1 .8 1.4 0 1.4-.6 0-1.1.9-1.1 2 0 1.8-.4 2-3.5 1.4-2.3-.4-3.5-.2-3.5.5 0 .6 1.5 1.1 3.4 1.1 2.9 0 3.4.3 3.4 2.5 0 1.4-.4 2.5-.9 2.5s-.9-.4-.9-.9-1.1-.9-2.5-.9-2.5.4-2.5.9.9.9 2.1.9c1.1 0 1.7.5 1.4 1-.4.6-1.1.8-1.6.5-.5-.4-.9-.1-.9.4 0 1.5 2.3 1.4 3.8-.1s2.7-.4 1.9 1.6c-.5 1.1-1.5 1.4-3.9 1.1-2.8-.5-3-.4-1.1.4 1.5.7 2.1 1.6 1.7 2.6-.4 1-.1 1.5 1.2 1.3 3.9-.3 5.3.2 4.8 1.7-.4 1 0 1.5 1.1 1.5 1.2 0 1.6-.8 1.4-2.8-.1-1.5-.1-4-.1-5.5l.2-2.8 3 1.8c3.5 2 3.7 2.9 1 3.8-3 .9-2.4 2.4.8 2.1 3-.4 3-.7 1.9-15.1-.5-5.8-.5-5.9.5-1.8.6 2.4 1.5 4.3 2 4.3s.7-.8.4-1.8c-.3-.9-1-3.7-1.6-6.1-.6-2.4-1.8-5.4-2.6-6.7-.8-1.2-1.7-3.5-2-5-.7-4.5-1.3-5.6-2.5-4.8-.7.4-.9.3-.6-.3.4-.6-.2-1.8-1.3-2.8-2.6-2.4-2.5-.9.5 5.9 1.4 3.1 2.5 6.8 2.5 8.1 0 1.5.6 2.5 1.4 2.5.8 0 1.8.4 2.1 1 .3.6-.1.7-1 .4-1-.4-1.4-.2-1 .7 1 2.8 2.2 14 1.4 14.4-.4.3-.9-.2-1.3-1-.3-.8-1.2-1.2-2.1-.9-1 .4-1.5 0-1.6-1.2-.1-1.1-.3-4.3-.5-7.3-.1-3-.7-6.6-1.3-8-1.6-4.1-4.2-18.1-3.6-19.2 1-1.5 2.2-1.1 4.7 1.4 5.2 5.4 7.5 8.5 9.5 13.2 1.2 2.7 2.7 4.9 3.4 4.7 1.9-.5 3.8 1.8 5.1 5.9.6 2.2 1.5 3.9 2 3.9 1.2 0 .3-2.8-3.3-10.4-1.6-3.4-2.9-6.8-3-7.6 0-1-.3-.8-.8.5-.5 1.1-.6 2.4-.3 3 1 1.6 1.1 3.6.2 3-1.4-.9-3-6.4-1.9-7 .5-.4.9-1.4.9-2.3-.1-1.5-.2-1.5-1.4.1-1.4 1.8-3.3.7-2.1-1.3.6-1 7-3 9.5-3 1.3 0 1.3.1 0 1.1-1 .7-1.1 1.2-.4 1.5.7.3 1 1.3.7 2.2-.2 1 1.4 4.5 3.6 7.9 3.8 5.9 4.5 9.2 2.7 12.2-.4.7-.5 1.5-.2 1.8.8.9 1.5 0 1.9-2.3.2-1 .9-2.9 1.6-4.2 1.1-2 1-2.7-.6-4.4-1.8-2-1.8-2.1.7-1.4l2.5.7-2.2-1.8c-1.4-1.1-2.8-4.1-3.7-7.8-1.3-5.5-1.4-5.7-1.5-2.2-.1 2.1.6 5.1 1.4 6.7 1.4 2.6 1.4 2.9 0 2.4-.8-.3-1.3-.9-1-1.3.2-.4-.5-1.5-1.6-2.4-2.2-1.9-2.7-8.5-.6-9.2 3-1.2 9-.9 9.5.4.3.8 0 1.1-.7.7-.7-.4-1.1.1-1.1 1.3 0 1.1.4 2.2.9 2.5.4.3.6 1.7.3 3.1-.3 1.6 0 2.5.8 2.5.7 0 1-.7.7-1.4-.4-1-.1-1.3.9-.9 1.7.6 1.7 1.3-.1 3.7-.8 1.1-1.5 3-1.5 4.1 0 5.8-6.7 21-15.1 34.2-6 9.4-7 12.3-4.4 12.3.8 0 1.5-.5 1.5-1 0-.6-.5-1-1.2-1-.6 0-.4-.7.5-1.8 1-1 1.7-2.3 1.7-2.9 0-.6.3-1.3.8-1.5 1-.4 5.2-6.5 5.2-7.6 0-.5.9-1.7 1.9-2.6 1.1-1 2.3-3.1 2.6-4.7.4-1.6 1.1-3.1 1.6-3.5 1.2-.7 3.9-7.2 3.9-9.4 0-1 .6-2.3 1.4-2.9.8-.7 1.3-2.1 1.1-3.1-.2-1.1 0-2.2.5-2.5.5-.3.7-1.2.3-2-.3-.8-.1-1.5.5-1.5.5 0 1.2-1 1.6-2.3l.6-2.2c8.50241 3.77632 9.86954 3.41461 11.33319 3.52514 3.57931-.21098 5.48453-.61173 8.16681-.62514 6.5 0 5.9-1.6 5.6 16.8-.60897 10.31824-.17234 13.75994-.4 21.3-.1 5.2-.5 9.5-.9 9.5-.3 0-.4.9-.1 2.1.4 1.2 0 2.5-.8 2.9-2.2 1.4 3.3 2.9 10.8 3 5.4 0 15.6-.4 23.8-1 .6-.1 6.2.1 12.4.4 9.6.3 11.7.7 12.8 2.3.9 1.1 1 1.9.3 2.1-1.31037 1.65042.84038 8.9015.4 12.5-.27904 5.58353-.13656 34.6336-.27866 36.10017-.2 2.1-.15221.55965 1.54779-.44035.5-.4.03087-28.35982.03087-29.45982 0-1.1.2-4.9.3-8.5l.2-6.6c2.86534.0626 9.41667.7333 2.6-.8-2.3-.5-2.8-1.2-2.8-3.6 0-2.5.4-2.9 2.3-2.8 1.2.1 3.2-.2 4.4-.6l2.2-.7-.4 12.3c-.9 24.4-1.6 35.8-2.1 37.2-.3.8.5 2.3 1.7 3.5 1.8 1.7 3.6 2.1 8.3 2.1h6.1l.3-12.3c.2-6.7.5-13 .8-14 .3-1 0-1.7-.9-1.7-1 0-1.4 1.3-1.4 4.7.2 12.7-.7 22.1-1.9 21.6-1.4-.5-2.5-6.1-1.3-6.9.4-.2.6-1.9.4-3.7-.2-1.7-.6-6.7-.9-11-.3-4.3-.8-8.2-1.1-8.7-.3-.5 2.2-.9 5.5-.9 4.5.1 6 .4 6 1.5 0 .8-.3 1.4-.7 1.4-.5 0-.9 2.3-1 5-.2 5.5 1.3 6.9 2.1 1.7 1.6-10.4 1.6-11.9.4-11.5-3.63729.04494-4.40478 1.12598-10.2-.1-4.3-1.7-4.6-1.4-4 3.6.2 2.7.5 6.7.5 9.1.1 2.3.4 4.4.8 4.6.3.2.5 4 .3 8.5-.4 8.6-1 9.4-5.3 7.1-1.8-1-1.9-2.1-1.5-20 .3-10.5.7-19.4.8-19.8.2-.4.4-4.4.3-9 0-4.5.2-8.2.5-8.2 1 0 .5-6.5-.5-7.2-.5-.4-5.9-.8-12-.8-6-.1-13.3-.2-16.2-.4-6-.4-14.3.4-14.3 1.3 0 .4 4.8.7 10.8.6 8 0 10.6.3 10.4 1.2-.2 1.5 1.4 1.7 2.3.3.3-.6 1.4-1 2.5-1 1.5 0 1.9.9 2.2 5 .1 2.8 0 5-.3 5-1 0-3.6-2.5-5.3-5-1.5-2.2-1.6-2.3-1.6-.4 0 1.1.5 2.5 1.1 3.1.8.8-3.8 1.1-16.8.9-16.7-.1-17.8-.2-17.5-1.9.2-1-.4-2.9-1.2-4.3l-1.6-2.3 4.2.1c7.1.2 9.8-.1 9.8-1.2 0-.6-1.1-1-2.4-1-2.02611.43824-3.9602.87542-7.3.7l-3.8-.2-.3-14.9c-.2-11.3-.50761-17.01163 1-15.8 1-.6-.60761-1.21163-1.50761-1.21163-2.5 0-1.79239 4.61163-1.69239 15.71163.2 16.2.3 15.7-1.7 15.1-1.4-.4-1.3-.1.4 1.3 3 2.5 5.2 7 4.6 9.4-.7 2.7-3.2 2.4-4.3-.5-.5-1.3-1.4-2.7-1.9-3.1-.8-.4-.8.2-.1 1.9.5 1.4.6 2.7.2 2.7-3.5.7-5.8.5-6.4-.5-.4-.6-.8-3.7-.8-7 0-5.7 0-5.8 2.5-5.2 1.4.4 2.5.2 2.5-.4 0-.5-1-1-2.3-1h-2.3l.3-17.8c.1-9.7.8-20.1 1.4-23 1.3-5.8.3-5.3 12.2-5.4 5.2 0 6.2 1 3.6 3.7-1 1-1.4 1.1-9.6 1.3-3.1.1-5.3.7-5.3 1.3 0 .7 1.5 1 3.8.7l3.9-.3-.5 4.7c-.3 3.2-.1 4.8.7 4.8.6 0 1.1-1.6 1.1-3.8 0-4.9.8-5.8 5.3-6.6 3.4-.6 3.7-.9 3.7-4.1 0-2.4.5-3.5 1.4-3.5.8 0 1.7-1.3 2-3 .3-1.7.9-4.3 1.2-6 .3-1.8.1-3-.5-3-1.6 0-1.3-2.6.4-4 .9-.8 1.3-2.1.9-3.6-.4-1.7-.2-2.4.9-2.4 1.6 0 2.9-3.4 2-5.6-.5-1.3-3.4-2-5.8-1.4-.5.2-2.3.2-4 .1-1.6-.2-4.6-.4-6.5-.4-2.6-.2-3.4-.6-3.2-1.8.1-.9-.4-1.9-1.1-2.2-1-.4-1.4.3-1.3 2.1.1 2.6-.2 2.7-5.1 3l-5.1.3-.4-5.6c-.1-3 0-5.5.3-5.5.7 0 1.6-10.4 2.5-29.5.3-6 .6-11 .7-11.1.1-.1 2.1-.4 4.4-.7 3.7-.4 4.2-.3 3.4 1.1-1 2.1-.7 35.1.3 37.5.5.9.4 2.3-.2 3-.7.8-.6 1.8.4 3.2 1.3 1.8 1.5.9 1.3-8.8-.1-7.3-.5-10.7-1.3-10.7-.7 0-.7-.3-.1-.8.6-.4 1.1-4.8 1.1-9.7.1-10.9.9-18.6 2.2-21.1 1.4-2.8-.4-7.9-3.4-9.9-3.6-2.3-9.4-1.5-13.9 2-3.8 2.9-4.6 6.5-2 9.9.8 1 1.2 2.3.9 2.7-.3.5.7.9 2.3 1 1.5 0 2.2.3 1.6.6-1 .3-1 1-.2 2.4.7 1.5.7 2.4-.2 3.5-1 1.2-.9 1.3.6.7 1.7-.6 1.8-.5.3 1.6-1.1 1.5-1.4 3.2-.9 5.4.4 1.8.6 4.8.4 6.7-.3 3.6-1.1 16.1-1.2 19.3-.1 1-.5 1.6-1 1.3-.5-.4-.6.5-.2 2 .3 1.4.5 4.2.3 6.3-.3 3.2-.9 4.1-3.8 5.4-3.06345 1.002-3.71343 2.74181-8.9 5.9-4.85656 2.87321-8.5848 6.81026-12.3 11.2-.7.4-1.6.4-2.2.1-.5-.3-1-.1-1 .4 0 .6-1 1.1-2.2 1-3.2 0-9.7 1-13.2 2.2-1.6.5-3.7.9-4.6.9-1.7 0-11.2-5.8-11.8-7.2-.2-.5-.8-.8-1.4-.8-.6 0-1.7-.8-2.4-1.8-1.1-1.5-.6-2.3 3.9-6.8 5.5-5.4 10.6-12.1 12.5-16.7 7.522212-11.35686 9.37651-17.66162 8.7-31.9 0-2.1-.3-3.8-.7-3.8-.4 0-.7-.8-.7-1.8.1-3.3-.7-4.9-4.4-9.2-2-2.4-3.7-4.7-3.7-5.2 0-.4-.6-.8-1.3-.8-.7 0-3.1-1.5-5.3-3.4-2.1-1.8-5.2-3.6-6.9-3.9C67.845423 3.22831 68.783036 1.513 57 1zm15.5 4.6C89.8 11 97.6 20.1 98.2 35.7c.2 4.6.2 8.3-.1 8.3-.4 0-.7 1.3-.8 2.9-.1 1.6-1.1 4.9-2.1 7.3-1.1 2.3-2.2 5.1-2.6 6-.7 2.2-2.6 2.4-2.6.3 0-1-.8-1.4-2.2-1.1-2.8.4-4 5.6-1.3 5.6 1.2 0 1.5-.6 1-2-.3-1.1-.2-2 .3-2s1.2 1 1.5 2.2c.6 2.1-1.9 6.4-6 10.6-.7.7-1.6 1.9-2 2.5-.5.7-2.9 3-5.5 5.1-4.4 3.5-4.8 3.6-7.3 2.4L66 82.4l4.4-3.1c3.1-2.2 5.5-5.1 7.8-9.5 3.4-6.5 7-18.6 6-20.2-.3-.5-.1-.6.5-.3.5.3 1-.8 1-2.6s.3-6.1.8-9.7c.6-5.8.5-6.8-1.4-9.1-2.4-3.1-8.9-4.8-10.2-2.7-.6.8-.9.9-.9.1 0-1.1-10.4-2.8-15-2.4-4.4.4-11.8 3.2-12.4 4.6-.3.9-1.2 1.2-2.2.8-1.2-.4-1.5-.3-1 .6.6.8.2 1.1-1 .9-1.2-.2-1.8.2-1.6 1.1.1.7-.5 1.9-1.3 2.5-1.6 1.1-2.6 5.1-2.6 10.6v12c0 5.2-.1 11.1-.2 13-.2 2.7.3 3.7 2.3 4.7 2.1 1 2.2 1.3.7 1.9-1.2.4-2.4-.2-4-2.2-3.8-4.8-7.8-12.7-8.7-17.4-.5-2.5-1.6-7.7-2.4-11.5-2.9-13.3-1.8-23.5 3.1-29.2C30.8 11.8 43 5 46.3 5c1.2 0 2.9-.5 3.7-1 2.9-1.9 14.2-1.1 22.5 1.6zm79.3 2c2.9 2 2.9 7.2.1 10.8-2.2 2.9-5.2 3.3-9.6 1.4-1.5-.7-2.9-1.2-3-1.3 0 0-.4-1.6-.8-3.6-.5-2.7-.2-4 1-5.2 1.9-2 4-2.3 2.9-.5-.5.7.5.3 2-1 3.4-2.6 4.4-2.7 7.4-.6zM70 26.5c1.1.3 2 1.1 2 1.6 0 .6.9.5 2.1-.2 1.5-.8 1.9-.8 1.5 0-.4.6-.3 1.1.3 1.1.5 0 1.2-.6 1.4-1.3.3-.6.6-.3.6.9.1 1.8-.4 2-6.5 1.8-3.6-.2-6.9-.5-7.2-.8-.3-.3 0-.6.6-.6.7 0 1.2-.4 1.2-.9s-1.7-.1-3.7.9c-2.1 1-4.7 2-5.8 2.2-1 .1-2.7 1.1-3.7 2-2 2-3.8 2.3-3.8.8 0-.6-.5-1-1.1-1-.8 0-.8.4 0 1.4 1 1.2.8 1.7-.8 2.6-1.2.6-2.1 2-2.1 3 0 2.2-2 2.6-3.8.8-.7-.7-1.2-.8-1.2-.2 0 .5.8 1.4 1.9 2.1 1.8 1.1 2.1 4.8.6 7.2-.3.6-.1 1.1.5 1.1s.9.4.5 1c-1 1.6-3.7-.1-3.2-2.1.3-1.1 0-1.9-.6-1.9s-.7-.3-.4-.6c.3-.4.2-1.4-.3-2.4-.6-1.1-.4-2.6.6-4.4.7-1.6 1.1-3.2.8-3.7-.3-.6 0-1.7.7-2.6 1.2-1.4 1.4-1.3 2 .8.7 2.3.7 2.3.8-.4.1-1.5.6-2.7 1.2-2.7.5 0 .7-.5.4-1-.3-.6-.3-1 .2-1.1 3.1-.3 4.8-1 5.5-2.3.5-.9 1.6-1.6 2.4-1.6 1 0 1.2.5.8 1.2-.6 1-.5 1 .7.1 2.6-2 9.7-2.4 14.9-.8zM82.5 30c.8 1.6 1.5 3.8 1.5 4.9 0 1.8-.3 1.9-3 1-1.6-.6-2.7-1.5-2.4-2 .3-.5.1-.9-.5-.9-.5 0-.3-1.4.5-3 .9-1.7 1.7-3 1.9-3 .3 0 1.1 1.3 2 3zm-12.1 3.1c-.2.3 2.4 1.6 5.7 2.8 5.9 2.2 7.5 3.7 6.7 6.3-.3.8-1.6.1-3.5-2-2.9-3.2-3.3-3.3-6.7-2.4-3.1.9-3.6.8-3.6-.6 0-1.1-.3-1.3-1-.6-1.6 1.6-1.8 29.3-.2 28.7.7-.3 1.2-2.6 1.2-6.2v-5.6l4.4.3c2.4.2 5.3-.1 6.5-.7 1.8-1 2.1-.9 2.1.8 0 1.1-.4 2.3-1 2.6-.5.3-1 1.7-1 3.1 0 1.4-1.1 4.6-2.4 7.3-5.4 10.5-11.3 14.7-19.3 13.5-2.5-.4-5.4-1.5-6.5-2.6-2.3-2.3-3.4-1.8-1.9 1 1 1.9 5 3.2 9.5 3.2 3.1 0 5.1 2.9 5.4 8.2.3 4.1.1 4.7-1.9 5.3-4.9 1.6-22.6-.6-21.4-2.5 1.2-1.9 3.4-20.9 4-33 .3-7.4.8-15 1.2-16.8.7-4 5.9-8.1 13.3-10.5 2.2-.8 10.9-.4 10.4.4zM75 33c0 .5-.2 1-.4 1-.3 0-.8-.5-1.1-1-.3-.6-.1-1 .4-1 .6 0 1.1.4 1.1 1zm2.7 8.5c2.9 1.4 5.3 3 5.3 3.6 0 .5-1.4.2-3.2-.7-1.8-.9-4.9-1.7-7-1.8-3.5-.1-4.8-1.3-3.1-2.9 1.1-1.1 2.3-.8 8 1.8zm-3.4 4.6c-1 3.6 3.3 5.2 6.2 2.3 1.8-1.8 3-1.3 2.2 1-.9 2.3-7.6 4-10.9 2.7-2.3-.9-2.8-1.7-2.8-4.6 0-3.2.2-3.5 2.9-3.5 2.5 0 2.8.3 2.4 2.1zM42.5 54c.3.6-.1 1.7-.9 2.6-.9.9-1.3 2-1 2.6.4.6 1 .5 1.5-.3.6-.9.9.1.9 2.8 0 3.6-.3 4.3-1.9 4.3-1.1 0-2.3-.5-2.7-1.2-.5-.8-.2-.9.9-.5 2.3.9 3-.8 1.2-2.6-2-2-2-8.7-.1-8.7.8 0 1.8.5 2.1 1zm.5 15.1c0 1.9-2.7 4.5-3.7 3.5-.3-.3-.1-.6.5-.6.7 0 1.2-1 1.2-2.3-.1-2.1-.1-2.1-1.5-.3-.8 1.1-1.8 1.6-2.2 1.1-.5-.4-.2-1 .5-1.2.6-.3 1-.9.7-1.4-.4-.5.5-.8 1.9-.7 1.7.2 2.6.8 2.6 1.9zm122.3 7.6c.4.7 1.5 1.3 2.2 1.3.8 0 1.5.4 1.5 1 0 .8-6.9 1.6-10.1 1.2-2.4-.3-13.5 2.2-15.4 3.4-1.5.9-3.3 1.3-4.5.9-1.5-.5-2-.3-1.9.7.4 1.9-2.5 7-5 8.8-1.2.8-2.1 1.8-2.1 2.2 0 1.7 2.1.6 5.3-2.7 1.9-1.9 3.9-3.5 4.4-3.5.7 0 .9 2.7.6 7.7-.3 4.3-.5 8.6-.5 9.6.1 1.6-.8 1.8-7.8 1.6-12.5-.3-18-3.7-18-11.3 0-2.5 6.1-8.6 14.5-14.4 2.7-1.9 5.2-3.8 5.5-4.2 1.4-2 25.1-5.3 29-4.1.8.2 1.9 1 2.3 1.8zm5.7-.5c0 1.3-4.3.6-4.7-.8-.2-.7.6-1 2.2-.7 1.4.3 2.5 1 2.5 1.5zm-128.6 4c-.4 2.4-1.2 6.5-1.9 9.1-1.5 5.7-1.4 5.8 9.2 8 4.7 1 8.5 1.2 10.8.7 1.9-.4 3.7-.5 3.9-.1.8 1.4.6 15.8-.5 23.9-.6 4.8-1.3 10.4-1.5 12.4-.3 2-1.1 5.3-2 7.3-.8 2-1.3 3.9-1 4.3.3.5.1 1.4-.5 2.2-.7 1.2-.9.9-.9-1s-.3-2.1-.9-1.1c-.6.9-.6 2.4 0 3.8.5 1.4.5 2.2 0 1.9-.9-.6-2.6 2.2-2.3 3.6.1.5-.4.8-1.2.8-.7 0-1.9.7-2.6 1.5-.7.8-1.6 1.2-2.1.9-.5-.3-.9.2-.9 1 0 1.1-1.2 1.4-5.5 1.1-3.1-.2-5.3.1-4.9.6.3.5 1.7.9 3.2 1 2.6.1 2.6.1-.7 1.5-4.6 2-6.9 1.3-13-4.2-2.9-2.6-5.4-4.4-5.7-4.1-.6.6 5.4 6.8 8.1 8.3 3.1 1.8 1.1 2.6-3.4 1.4-6.1-1.6-16.2-8.5-17.7-12-1-2.3-2-18.9-1.2-18.4.5.3.8-1.1.8-3.1 0-2.2.6-3.8 1.4-4.1.8-.3 1.7-1.2 2-2 .3-.9.1-1.2-.4-.9-.6.3-1 .1-1-.4 0-.6.5-1.1 1-1.1.6 0 1-.4 1-1 0-1.8 9.8-20.9 12-23.2 1.1-1.2 2.8-3.9 3.7-5.9 1.1-2.5 2.1-3.5 3-3.2 1.2.5 1.2.7.2 1.4-1 .6-.9 1.6.4 4.9 1.2 3 1.3 4.8.6 6.7-1.5 4-2.3 23.9-1.1 28.6.6 2.3 1.3 5.4 1.7 6.9.6 3.3 2 3.6 2.8.8.3-1.1.9-2 1.4-1.9 1.2.4 6.3-2.3 6.3-3.3 0-1.2-1.3-1-3.8.8-1.3.9-3 1.3-4 .9-1.4-.5-1-.9 1.7-2.1 2.8-1.2 3.1-1.6 2.1-2.9-.7-.8-2.2-1.4-3.4-1.4-2 .2-2 .2.2.6 1.2.2 2.2.9 2.2 1.4 0 1.2-4.7 1.2-5.5-.1-.8-1.3-.8-20.1.1-25.6.4-2.8 1.1-4.4 2-4.4.8 0 1.4-.5 1.4-1 0-.6-.6-1-1.4-1-2 0-2.9-11.6-1-14.9 2.6-4.9 5.7-7.7 8.7-8 .4-.1.4 1.8.1 4.1zM65 83c0 .5-.2 1-.4 1-.3 0-.8-.5-1.1-1-.3-.6-.1-1 .4-1 .6 0 1.1.4 1.1 1zm102.4-.1c1.2 1.8-.6 3.9-3.7 4.5-1.8.3-6.4.8-10.3 1.2-6.8.6-7.1.5-7.7-1.7-.3-1.3-.4-2.5-.1-2.8 1.6-1.6 20.9-2.7 21.8-1.2zm-22.8 4.2c.3.6.2 1.5-.2 1.9-1.2 1.2-3.8-.5-3-1.9.9-1.4 2.3-1.4 3.2 0zm21.4 4.8c0 2.6-.4 2.9-4.2 3.4-12.5 1.6-21.4.1-19.4-3.1 1-1.7 2.6-1.5 2.6.3 0 .8.5 1.5 1 1.5.6 0 1-.6 1-1.4 0-1.4 1.2-1.7 11.5-2.9 7.3-.9 7.5-.9 7.5 2.2zm.9 7c-.8.2-1.6.8-1.9 1.2-.3.5-4.4 1.2-9.2 1.5-8.3.7-8.5.6-8.4-1.5.1-2 .7-2.2 8.5-2.6 4.6-.2 8.6-.6 8.9-.9.3-.3 1.2 0 2 .6 1.2 1 1.2 1.3.1 1.7zm-21.4.6c0 1-.6 2-1.2 2.2-.8.3-1.3-.5-1.3-2.2 0-1.7.5-2.5 1.3-2.3.6.3 1.2 1.3 1.2 2.3zm-.2 5.8c.3.8.1 2-.4 2.8-.7 1.2-1.1 1.1-2.5-.3-1.7-1.7-1.2-3.8 1.1-3.8.7 0 1.5.6 1.8 1.3zm-58.6 7.9c-.3.8-.6.5-.6-.6-.1-1.1.2-1.7.5-1.3.3.3.4 1.2.1 1.9zM81 130.1c0 4.3-.3 7.9-.8 7.9-.4 0-.7-3.8-.7-8.4 0-4.6.3-8.2.8-7.9.4.2.7 4 .7 8.4zM78 150c0 .5-.4 1-1 1-.5 0-1-.5-1-1 0-.6.5-1 1-1 .6 0 1 .4 1 1zm133.8 9.4c-.3 3.4-.7 4.2-3 5-1.8.7-3.5.6-5.3-.2-2.1-1-2.5-1.8-2.5-5.1 0-3.7.2-4 3.3-4.3 1.7-.2 4.2-.1 5.5.1 2 .3 2.3.8 2 4.5zM75.5 159c-.3.5-1.1 1-1.6 1-.6 0-.7-.5-.4-1 .3-.6 1.1-1 1.6-1 .6 0 .7.4.4 1zm1.5 13c-3.3 2.6-4.8 2.6-2.5 0 1-1.1 2.5-2 3.4-2 1.2 0 .9.6-.9 2zm-23.5 14.6c-2.6 2-5.5 3.6-5.5 3 0-.5 6.3-4.6 7-4.6.3.1-.4.8-1.5 1.6zm-7.6 5.1c-.6.7-1.5 1.3-2 1.3s-.6-.6-.3-1.3c.3-.8 1.1-1.4 1.9-1.4 1.1 0 1.2.4.4 1.4zM43.5 243c.3.6-.1.7-.9.4-1.8-.7-2.1-1.4-.7-1.4.6 0 1.3.4 1.6 1zm-2 9.2c1.2 1.3 3.5 3.3 5 4.6 2.4 2 2.6 2.7 2.1 6.5-.7 5.5-1.2 9-1.6 10.2-.1.5-.2 2.6-.1 4.6.1 2.8.7 3.8 2.6 4.7 1.4.6 2.5.8 2.5.3s-.7-1.1-1.4-1.4c-2.2-.9-2.9-6.8-1.6-11.8.7-2.4 1.2-6.1 1.1-8.2-.1-3.8-.1-3.9 3.2-3.2 7 1.5 9.1 4.5 10.1 13.7.3 3.1.9 6.4 1.2 7.2.4 1.1 0 1.6-1.4 1.6-1.2 0-2.3.4-2.6.8-1 1.7-12.3 3.7-19.6 3.5-11.2-.4-15.8-.9-17.2-2-2.3-1.9-5.8-2.5-5.8-1.2 0 .9-.3 1-1.1.2-1.2-1.2 4-9.7 6.6-10.7.8-.3 1.5-1.2 1.5-1.9 0-2.3 4-6.7 6.1-6.7 1 0 1.9.4 1.9 1 0 .5 1.1 1.2 2.4 1.6 1.7.4 2.2 1.1 1.9 2.5-.3 1-.1 1.9.5 1.9s1.3-.8 1.5-1.8c.2-.9.3-.7.2.5-.1 1.2.3 2.4.8 2.6.7.2.2 2.1-1.1 4.7-2.6 5.3-2.1 6.5.7 1.9 1.2-1.9 2.1-5.1 2.1-7.3 0-3.3-.7-4.5-4-7.7-3.9-3.7-5-5.9-3.1-5.9.5 0 1.5-1.6 2.2-3.5.7-1.9 1.5-3.5 1.7-3.5.3 0 1.5 1 2.7 2.2zm-4 11.8c.4.6-.2.7-1.6.1-1.3-.4-2.5-1.4-2.7-2-.3-1 0-1 1.6-.2 1.2.6 2.4 1.6 2.7 2.1zm-16 19.8c-.3.3-1.1 0-1.8-.7-.9-1-.8-1.1.6-.5 1 .3 1.5.9 1.2 1.2zm64.1 3.8c-2.2.8-4.5 1.3-5 1-1.5-.5 2.8-2.1 6.2-2.3 2.2-.1 2 .1-1.2 1.3zm43.4 24.8c4.1.7 9.9 2.5 12.8 4 5 2.5 5.2 2.8 5.2 6.6 0 2.7-.5 4.3-1.5 4.6-.8.4-1.5 1-1.5 1.5 0 .6.9.5 2-.1s2-2.1 2-3.3c0-3.9 1.3-4.9 4.3-3.4 3 1.4 4.2 4.9 2.7 7.7-.6 1.1-.7 2-.2 2 1.4 0 3.3-2.6 3-4-.5-2 1.8-2.2 3.7-.4.9.9 1.4 2.5 1.2 3.5-.3 1.2 0 1.9.9 1.9.8 0 1.4-.6 1.2-1.3-.3-1.2.3-1.7 2.2-1.7 1.8 0 3.2 5.1 1.9 6.6-.9 1.1-.9 1.4 0 1.4.6 0 1.7-1.1 2.3-2.5 1.2-2.8 1.9-3 3.5-1.4.8.8.8 2 .3 3.5-.7 1.8-.6 2.2.5 1.7.8-.3 1.5-1.2 1.5-2 0-1.6 2-1.4 7.5.7 2.5 1 2.6 3 .2 3-.7 0-2.4.6-3.9 1.4-3.4 1.8-10 3.2-7.8 1.7 1.3-.9 1.3-1.1-.2-1.1-1 0-1.9.1-2.1.2-.2.2-1.1-.5-2.1-1.4-1-1-2.3-1.8-3-1.8-.7 0-2.7-.7-4.4-1.6-1.8-.8-3.6-1.3-4.1-1-.4.3-1.6-.3-2.6-1.4-1.1-1.2-3.1-2-5.1-2-1.8 0-3.6-.5-3.9-1.1-.4-.5-1.9-.9-3.3-.7-2.5.3-2.7 0-2.8-3.7-.1-2.2-.2-4.5-.3-5.2-.2-1.8-3-4.3-4.8-4.3-.9 0-1.4.3-1 .6.3.3.9.5 1.3.4.4-.1 1.3 1.2 2 2.9.9 2.2 1 3.9.2 6.4-.9 3-1.6 3.6-4.7 4-4.7.6-5.6-.1-3.6-2.3.9-1 1.4-2.4 1-3-.5-.8-1.4-.1-2.5 1.8-2.1 3.4-4.1 4.3-8.5 3.8l-3-.4.3-7.8c.2-4.4.7-8.3 1.3-8.9.5-.5.9-1.9.9-3.2 0-2.7.6-2.8 11-.9zM49.5 322c.3.5.1 1-.4 1-.6 0-1.1-.5-1.1-1 0-.6.2-1 .4-1 .3 0 .8.4 1.1 1z"/><path d="M47.6 9.7c-.6 1.4-.5 1.5.5.6.7-.7 1-1.5.7-1.8-.3-.3-.9.2-1.2 1.2zm2.9-.7c-.3.5-.1 1 .4 1 .6 0 1.1-.5 1.1-1 0-.6-.2-1-.4-1-.3 0-.8.4-1.1 1zm3.5.1c0 .5.5.7 1 .4.6-.3 1-.8 1-1.1 0-.2-.4-.4-1-.4-.5 0-1 .5-1 1.1zm3.5 1.9c-.3.5-.1 2 .6 3.2l1.2 2.2 1.8-2.3c1.1-1.3 1.9-2.7 1.9-3.2 0-1.2-4.7-1.1-5.5.1zm14.7 1.6c-.7.8-.8 1.4-.3 1.4 1 0 2.5-1.9 2-2.5-.2-.1-1 .3-1.7 1.1zm6.6.8c-1 .7-1.8 1.8-1.8 2.4 0 1.4 3.5 3.4 4.4 2.5 1.1-1.2.6-2.3-1.1-2.4-1.2 0-1.3-.2-.5-.6.7-.3 2.2.3 3.4 1.3 2 1.9 2 1.9 1.7 0-.2-1-1.3-2.4-2.4-3.2-1.6-1-2.3-1-3.7 0zM45 15c0 .5.5 1 1 1 .6 0 1-.5 1-1 0-.6-.4-1-1-1-.5 0-1 .4-1 1zm23-.1c0 .6.4 1.3 1 1.6.6.3.7-.1.4-.9-.7-1.8-1.4-2.1-1.4-.7zm-31.3 1.8c-1.2 1.2-.7 4.4.8 4.9 1.7.7 4.5-1.8 4.5-4 0-1.6-4-2.3-5.3-.9zM40 19c0 .5-.4 1-1 1-.5 0-1-.5-1-1 0-.6.5-1 1-1 .6 0 1 .4 1 1zm23 .1c0 .5.5.7 1 .4.6-.3 1-.8 1-1.1 0-.2-.4-.4-1-.4-.5 0-1 .5-1 1.1zm-20 2.8c0 .5-.3 1.6-.6 2.5-.4 1-.1 1.6.7 1.6.7 0 .9-.3.6-.6-.3-.4-.2-1.5.4-2.5.6-1.3.6-1.9-.1-1.9-.5 0-1 .4-1 .9zm-15.1 13c-2 1.6-2.1 2.1-1 3.5.7.9 1.9 1.6 2.6 1.6 2 0 4.6-3.6 3.9-5.4-.8-2.1-2.6-2-5.5.3zM32 37c0 .5-.7 1-1.6 1-.8 0-1.2-.5-.9-1 .3-.6 1-1 1.6-1 .5 0 .9.4.9 1zm58.4 2.5c-1 2.5.4 4.5 3 4.5 2.4 0 3.7-2.2 2.9-4.8-.6-1.7-5.2-1.5-5.9.3zm4.4 1.7c-.6 1.8-2.8 2.1-2.8.4 0-.9.7-1.6 1.6-1.6.9 0 1.4.5 1.2 1.2zM31 55l-2.4 2.4 2.8.9c3.4 1.1 4 .5 2.9-2.9l-.9-2.8L31 55zm2 1c0 .5-.4 1-1 1-.5 0-1-.5-1-1 0-.6.5-1 1-1 .6 0 1 .4 1 1zm113-44.5c-1 1.2-1 1.9-.2 2.7 1.7 1.7 4.1.2 3.5-2.1-.6-2.5-1.6-2.6-3.3-.6zM42.5 39c-.3.5-.1 1 .4 1 .6 0 1.1-.5 1.1-1 0-.6-.2-1-.4-1-.3 0-.8.4-1.1 1zM40 43.9c0 .6.4 1.3 1 1.6.6.3.7-.1.4-.9-.7-1.8-1.4-2.1-1.4-.7zm40.3-11.6c0 .8.6 1.4 1.3 1.4.7 0 1-.6.7-1.4-.3-.7-.8-1.3-1.2-1.3-.4 0-.8.6-.8 1.3zM62 36.4c0 .8.5 1.8 1 2.1.6.3 1-.3 1-1.4 0-1.2-.4-2.1-1-2.1-.5 0-1 .6-1 1.4zm-10.3 3.2c-4.4 2.9-4.4 4.2-.1 1.9 3.9-2 6.7-1.9 8.9.5 1 1.1 2.2 1.7 2.6 1.4 1.3-.8 1.1-2.4-.4-2.4-.7 0-1.8-.9-2.5-2-1.6-2.7-4-2.5-8.5.6zm-.4 5.6c-1.3.6-2.3 1.5-2.3 2 0 1.3 1.6.9 3-.7 1.9-2.3 3.8-1.8 4.2 1.2.3 2.4.7 2.8 3.1 2.6 1.5-.1 3.4-.9 4.2-1.7 1.4-1.4 1.2-1.7-1.4-3.1-3.4-1.7-7.6-1.8-10.8-.3zM49 52c0 1 6.3 3 9.6 3 1.1 0 2.9-.7 4-1.5 2.3-1.7.2-2-2.6-.3-1.5 1-2.6.9-5.5-.5-4-1.9-5.5-2.1-5.5-.7zm5.1 5.4c-.9 1.1-.8 1.7.7 2.8 1 .7 2.1 2.1 2.5 3 .4 1.1 1.7 1.8 3.2 1.8 2 0 2.5.5 2.5 2.6 0 2.3-.3 2.5-2.5 2-1.4-.4-2.5-.2-2.5.3 0 .6-.6.8-1.2.6-.7-.3-1.8.6-2.5 2-1.2 2.8-.3 3.4 1.7 1 1.5-1.8 12-2.1 13.8-.3.6.6 1.5.9 1.8.5.4-.3-.1-1.3-1-2.2-.9-.9-1.6-1.3-1.6-.9s-.7-.1-1.5-1.2c-1.3-1.8-1.4-1.8-1.5-.1 0 1-.5 1.5-1 1.2-.6-.4-.8-1.5-.5-2.5.7-2.2-.4-7-1.6-7-.5 0-.9.7-.9 1.5s-.7 1.5-1.6 1.5c-1.2 0-1.5-.7-1.2-2.5.4-2 .1-2.4-1.6-2.2-1.5.1-2-.3-1.8-1.6.3-2.1-.2-2.2-1.7-.3zM74 61c0 .5.5 1 1 1 .6 0 1-.5 1-1 0-.6-.4-1-1-1-.5 0-1 .4-1 1zm-25.5 2c-.3.5-.1 1 .4 1 .6 0 1.1-.5 1.1-1 0-.6-.2-1-.4-1-.3 0-.8.4-1.1 1z"/><path d="M60.4 74.5c-.4.9-.4 1.8-.2 2.1.9.8 3.9-.8 3.5-1.9-.6-1.8-2.7-2-3.3-.2zm-13.8 9.4c-.4.7-.5 1.5-.2 1.8.9.9 1.9-.4 1.4-1.8-.4-1.1-.6-1.1-1.2 0zm7.1 3.2c.7.7 1.5 1 1.8.7.3-.3-.2-.9-1.2-1.2-1.4-.6-1.5-.5-.6.5zm-4.7.3c0 .2.7.7 1.6 1 .8.3 1.2.2.9-.4-.6-1-2.5-1.4-2.5-.6zm6 3.6c0 .5.5 1 1 1 .6 0 1-.5 1-1 0-.6-.4-1-1-1-.5 0-1 .4-1 1zm68.7 2c-.3 1.1-.1 2.3.4 2.6.5.3.9-.6.9-2 0-3.1-.6-3.4-1.3-.6zm2.4.6c0 1.1.3 1.4.6.6.3-.7.2-1.6-.1-1.9-.3-.4-.6.2-.5 1.3zm-6 2c0 1.1.3 1.4.6.6.3-.7.2-1.6-.1-1.9-.3-.4-.6.2-.5 1.3zm14.9 7.3c0 .5.5 1.3 1 1.6.6.3 1 .2 1-.4 0-.5-.4-1.3-1-1.6-.5-.3-1-.2-1 .4zm-6 1.1c0 .5.5 1 1 1 .6 0 1-.5 1-1 0-.6-.4-1-1-1-.5 0-1 .4-1 1zM38 82.1c-.7 1.1-.9 2.7-.6 3.5.3.8.2 1.3-.3 1-.5-.3-1.1.3-1.4 1.4-.6 2.2.5 2.6 2 .7 1.1-1.3 2.7-8.7 1.9-8.7-.3 0-1 .9-1.6 2.1zm-3 11.3c0 2.3 2.5 5.4 3.6 4.3.3-.3 0-1.6-.7-2.9-.7-1.2-1.2-2.6-1.1-3.1.1-.4-.2-.7-.8-.7-.5 0-1 1.1-1 2.4zm-8.4 8.8c-.8 4-2.2 12.7-3.1 19.3-.8 6.6-1.8 13.9-2.1 16.2-.4 3.6-.3 4.2 1 3.7 1.1-.4 1.5-1.9 1.5-5.3-.1-2.5.1-6.9.5-9.6 1.8-14.1 3.7-25.5 4.6-27.9 1.2-3.3 1.2-3.6.1-3.6-.5 0-1.6 3.3-2.5 7.2zM37 99.9c0 .6.8.9 1.8.9 1.6-.1 11.2 1.7 15.7 2.9 1.6.4 1.7.3.8-.7-.6-.7-2.9-1.4-5-1.7-2.1-.2-5.4-.8-7.3-1.3-4.4-1.2-6-1.2-6-.1zm22 1.6c3.2 1.8 3.7 1.8 3.7 0 0-1-1-1.5-3.1-1.5l-3.1.1 2.5 1.4zm-37.3 2.7c-.9 3.1-.2 3.3 1.1.3.6-1.4.8-2.5.3-2.5s-1.1 1-1.4 2.2zm12.9 2.4c-.3.9-.6 2.3-.6 3.2 0 1.3.3 1.2 1.5-.4 1.6-2.1 1.9-4.4.6-4.4-.5 0-1.2.7-1.5 1.6zm13.9-.6c.3.5 1.3 1 2.1 1s1.2-.5.9-1c-.3-.6-1.3-1-2.1-1s-1.2.4-.9 1zm6.1 6.2c1.5 4 2.4 14.2 2.6 26.8 0 4.5.2 5 .9 2.7.4-1.6.5-7.2.3-12.5-.3-5.3-.5-10.4-.5-11.2 0-2.5-3-10-3.9-10-.5 0-.2 1.9.6 4.2zm-35.7-.5c-1.4 3.5-1.9 5.8-2.5 10.8-.4 3-.3 3.6.5 2.5.6-.8 1.1-2.3 1.1-3.3s.9-4.2 1.9-7.2c1.9-5.5 1-8-1-2.8zm26.2-1.3c-.1 1.1-.8 2.8-1.8 3.8-1.8 2-.4 2.5 1.5.6s1.4.3-.5 2.5c-1.8 1.9-1.7 2 .9 1.3 2.6-.6 2.7-.4 3.9 5.1 1.5 6.9 1.7 20.6.5 28.3-.4 3-.5 5.2 0 4.8.8-.9 1.1-2.6 2.3-14.8.4-4.7.9-7.7 1-6.8 0 1 .6 1.8 1.1 1.8.7 0 .7-.6.2-1.8-.6-.9-1.9-5.3-3-9.7-2.2-8.9-6-18.1-6.1-15.1zm-10.3 3.3c0 .5-.2 1.9-.3 3.3-.2 1.4-.4 2.9-.5 3.5-.5 1.9 0 3.5 1 3.5.6 0 1-2.3.9-5.5-.2-4.9-.6-6.9-1.1-4.8zm15.7.4c-1.1 1.7.1 2.1 1.5.4.8-.9.8-1.5.2-1.5-.6 0-1.4.5-1.7 1.1zM60 116c0 .5.5 1 1.1 1 .5 0 .7-.5.4-1-.3-.6-.8-1-1.1-1-.2 0-.4.4-.4 1zm-21.7 3.1c-.2 2.3.3 2.5 1 .4.4-.8.3-1.6-.1-1.9-.4-.3-.9.4-.9 1.5zm13.3-.4c-.6 1.4-.5 1.5.5.6.7-.7 1-1.5.7-1.8-.3-.3-.9.2-1.2 1.2zM19 121.9c0 .5.5 1.3 1 1.6.6.3 1 .2 1-.4 0-.5-.4-1.3-1-1.6-.5-.3-1-.2-1 .4z"/><path d="M45 123c0 1.1.4 2 .8 2s.8-.9.8-2-.4-2-.8-2-.8.9-.8 2zm16-.9c0 .5.5.7 1 .4.6-.3 1-.8 1-1.1 0-.2-.4-.4-1-.4-.5 0-1 .5-1 1.1zm-35 3c0 1.1.4 1.8 1 1.4.5-.3.7-1.2.3-2-.7-2.1-1.3-1.9-1.3.6zm8.5.9c-1.8.8-1.7.9.8.9 1.5.1 2.7-.4 2.7-.9 0-1.2-.8-1.2-3.5 0zm-16 2.7c-1.9 7.8-1.2 19.9 1 16.3.3-.5.2-1-.2-1-.5 0-.7-1.7-.5-3.8.6-9 .9-14.2.7-14.2-.2 0-.6 1.2-1 2.7zm26.8-1.1c-.3.8-.1 2.9.5 4.7.9 3.1 1 3 .8-1.5-.1-5.1-.3-5.7-1.3-3.2zm-4.8 1.4c-.3.5-.2 1 .4 1 .5 0 1.3-.5 1.6-1 .3-.6.2-1-.4-1-.5 0-1.3.4-1.6 1zm-26.7 3.4c-.5 4.3-.1 4.6 1.3.9.6-1.6.6-3 .1-3.5-.6-.6-1.1.4-1.4 2.6zm12.2.6c0 2.9.4 4 1.5 4 .8 0 1.5-.5 1.5-1 0-.6-.4-1-1-1-.5 0-.7-1.3-.3-3 .3-1.9.1-3-.6-3-.6 0-1.1 1.7-1.1 4z"/><path d="M10.6 134.7c-.8 2.8-.5 10.3.5 10.9.5.3.9 1.8.9 3.4 0 3.1 6.5 11 9.1 11 .9-.1.4-.9-1.3-2.5-3.3-2.9-6.8-8.8-6.8-11.5 0-1.1-.4-2-1-2-.5 0-1-.5-1-1 0-.6.7-1 1.5-1s1.5-.4 1.5-.9.3-1.6.6-2.5c.3-.9.1-1.6-.5-1.6s-1.1.9-1.1 2-.5 2-1 2c-.7 0-.9-1.6-.6-4 .5-4.2.1-5.3-.8-2.3zm42.4 5.2c0 .6.4 1.3 1 1.6.6.3.7-.1.4-.9-.7-1.8-1.4-2.1-1.4-.7zm-26 .9c0 .5.6 1.6 1.3 2.7 1.6 2 3.1.7 2.1-1.9-.6-1.6-3.4-2.3-3.4-.8zm26.6 3.9c-.6 1.4-.5 1.5.5.6.7-.7 1-1.5.7-1.8-.3-.3-.9.2-1.2 1.2zm-9 4.9c-.3 2.5-.3 5 0 5.5.7 1.2 2.4 1.1 2.4-.2 0-.5-.4-.8-1-.4-.5.3-.7-1.4-.3-4.5.7-6.3-.2-6.7-1.1-.4zm-16-1.8c-.5.8 2.8 5.2 3.9 5.2.2 0-.3-1.4-1.1-3-1.7-3.2-2-3.5-2.8-2.2zm24.4.3c0 .5.5.7 1 .4.6-.3 1-.8 1-1.1 0-.2-.4-.4-1-.4-.5 0-1 .5-1 1.1zm-26.4 2.7c-1 1.6 2.9 6.9 6.5 8.7 3.9 2.1 3.7 1.1-.7-2.7-2-1.8-3.9-4.1-4.3-5.2-.5-1.3-1-1.6-1.5-.8zm14.9 5.1c-.3.6-1 .9-1.4.7-.4-.3-.8.1-.8.9s.2 1.5.4 1.5c.9 0 3.5-3.1 3-3.6-.3-.3-.8 0-1.2.5zm-7.5.5c0 .9 3 1.4 3.5.6.4-.6-.3-1-1.4-1-1.2 0-2.1.2-2.1.4zm10 1.7c0 .5.5.7 1 .4.6-.3 1-.8 1-1.1 0-.2-.4-.4-1-.4-.5 0-1 .5-1 1.1zm165.5-1.1c.3.5.8 1 1.1 1 .2 0 .4-.5.4-1 0-.6-.5-1-1.1-1-.5 0-.7.4-.4 1zm-3.5 1.8c0 .5.7 1.3 1.6 1.6 1 .4 1.4.1 1.2-.6-.5-1.5-2.8-2.3-2.8-1zM37 259c0 .5.5 1 1.1 1 .5 0 .7-.5.4-1-.3-.6-.8-1-1.1-1-.2 0-.4.4-.4 1zm15 2c0 .5.5 1 1.1 1 .5 0 .7-.5.4-1-.3-.6-.8-1-1.1-1-.2 0-.4.4-.4 1zm-1 10.5c0 1.5.6 2.5 1.4 2.5 2 0 2.9-1.7 1.4-2.3-.8-.4-.7-.6.4-.6.9-.1 1.8.5 2.1 1.1.2.7.8.9 1.3.5 1.1-1.1-2.3-3.7-4.8-3.7-1.3 0-1.8.8-1.8 2.5zm-25 .3c0 1.1.7 2.5 1.6 3.3 1 .8 1.4 2.3 1.2 4.1-.6 3.7 1.8 3.8 2.5.1.7-3.5-.7-6.9-3.3-8.3-1.7-.9-2-.8-2 .8zm3 2.3c0 .6-.4.7-1 .4-.5-.3-1-1.1-1-1.6 0-.6.5-.7 1-.4.6.3 1 1.1 1 1.6zm8.1-.7c-1.3 3.3-.9 4.3.8 2.2.7-.8 1.1-2.3.8-3.3-.3-1.4-.6-1.2-1.6 1.1zm22.9 4.7c0 .5.5.7 1 .4.6-.3 1-.8 1-1.1 0-.2-.4-.4-1-.4-.5 0-1 .5-1 1.1zm-37 .8c0 .6.4 1.3 1 1.6.6.3.7-.1.4-.9-.7-1.8-1.4-2.1-1.4-.7zm99.2 44.7c-.9 1.9-.9 2.4 0 1.8.8-.5.9-.2.5.9-.3 1-.2 1.7.3 1.7.6 0 1-1.2 1-2.6v-2.6l3.6 2.3 3.6 2.2-1.2-2.4c-2.5-4.6-6.1-5.3-7.8-1.3zm-3.7 6.4c.3.5.8 1 1.1 1 .2 0 .4-.5.4-1 0-.6-.5-1-1.1-1-.5 0-.7.4-.4 1zm27.9-303.6c-.3.8-.4 3.8-.2 6.6.3 2.8.1 5.3-.3 5.5-.9.6-.8 11.5.1 11.5 1 0 1.7-6.8 1.6-13.8-.1-2.8.2-5.2.5-5.2s.6-1.4.7-3c.1-3.1-1.4-4.1-2.4-1.6z"/><path d="M228.4 41c0 1.1.3 2 .7 2 .6 0 .3 4.1-.7 8.5-1.4 7-2.3 13.9-2.3 20.2-.1 4-.3 7.3-.6 7.3-4.561-1.167-7.92-4.856-11.5-6.5-2.2-1-4-2.2-4-2.7-3.925-.721-5.33-3.212-8-3.4-1.6-.1-3.7-.7-4.6-1.5-.9-.7-2.8-1.5-4.2-1.7-4.5-.6-.8 2.2 7 5.4 7.7 3 16.5 7.5 20.9 10.5 1.4 1 2.8 1.6 3.1 1.4.2-.3 1.4 1.3 2.7 3.5 1.8 3.3 2 4.2.9 6-3.5 5.6-14.4-.1-28.9-15.2-3-3.2-6.1-5.8-6.7-5.8-.6 0-.9-.7-.6-1.5.4-.8.1-1.5-.5-1.5s-1.1-.9-1.1-1.9c0-1-.7-2.1-1.5-2.5-1.9-.7-1.9-.2.1 4 1.7 3.5 16.5 19.1 20.9 22 2 1.3 2.3 1.9 1.3 2.6-1 .7-.8.8.5.4 1.9-.6 4.7.2 4.7 1.3 0 .4-1 .7-2.2.6-1.268.021-2.328.336-3.9.6-5.767 1.121-16.248 4.711-23.2 8.5-1.595.94-2.849 1.331-3.7 2.3 0 .9-11 6.1-12.9 6.1-.6 0-1.1.5-1.1 1 0 1.3 5 .2 7-1.6 1-.9 2-1 3.3-.3 1.3.8 1.7.6 1.7-.6 0-.8.4-1.5 1-1.5.5 0 1.8-.7 2.9-1.6 4.2-3.6 24.8-10.3 33.8-11l6.8-.6 2.1 3.9 2 3.9-6 1.7c-9.6 2.6-16.5 3.7-24.7 4-4.2.1-7.5.5-7.3.9.2.4-1.6.4-4.1.2-2.8-.3-4.5-.1-4.5.5 0 1.7 7 1.7 21.5 0 5-.5 10.3-1.4 11.8-1.9 2.7-.9 2.7-.8-1.3 3.8-2.3 2.6-5.4 6.7-6.8 9.2-6.275 8.689-9.11 19.721-16.6 27.3-2.3 2.2-3.2 3.7-2.4 3.9.7.3 2.1-.5 3.3-1.7 10.612-5.496 14.5-7.531 25.5-16.7 1.4-1.3 4.2-3.8 6.3-5.6 2.931-1.823 3.376-5.543 7-6.2.5 0 .5.4.2 1-.5.8.4 7.5 1.9 13.5.5 2 4.6 9.4 5.6 10 .5.3 1 1.3 1 2.2 0 2 3.5 6.4 4.5 5.5.5-.4.5.1.2 1-.3 1 .1 3.4.9 5.3.8 2 1.2 4 .9 4.5-.3.5-.1 1.1.4 1.4 1.6 1.1 2-2.3.7-6.1-.7-2.1-1.2-5.9-1.1-8.6.2-5.2-1.2-6.6-1.7-1.6l-.3 3.1-1.9-3.3c-1-1.7-1.4-2.9-.7-2.5.6.4 1.1.1 1.1-.8 0-.8-.9-2-2.1-2.6-4.1-2.2-8.3-16.3-8.1-27 .3-11.1.9-13.5 4.2-14.7 2.6-1 2.9-.8 3.9 1.6 1.4 3.3 5.1 22.7 5.3 27.7.1 2.2-.1 6.3-.6 9.1-.6 4.4-.5 5.3.7 5.3.9 0 1.7-1.4 2.1-3.8.8-5.1.8-13.7-.1-14.6-1-1-1.4-9.6-.5-9.6.4 0 2.5 1.7 4.7 3.7 4 3.6 18.9 11.3 21.9 11.3.9 0 1.6.4 1.6.8 4.036 3.11 3.335 2.952 5.6 2.4.3-1.8-4.4-4.5-11.1-6.3-1.9-.5-4.1-1.6-4.8-2.4-.8-.8-1.7-1.1-2.1-.8-.3.4-.6.2-.6-.4 0-.6-1.1-1.4-2.4-1.7-1.3-.3-3.8-2-5.7-3.7-1.8-1.6-4.2-3.8-5.5-4.8-1.2-.9-3.3-4.5-4.7-7.9l-2.5-6.2 4.2.7c4 .6 13.5 5.3 16.7 8.3.9.8 3.6 3.1 6 5 2.3 1.9 5 4.3 5.8 5.2 1.6 1.9 4.1 2.4 4.1.9-3.558-4.054-8.639-7.593-10.1-9-2.4-2.4-6.4-5.5-8.9-6.9l-4.5-2.7 7.5-.7c6.853-.734 19.582-5.185 24.376-7.117 1.545-.623 8.648-.012 12.071.345.713.074.377-1.18-1.158-1.633-5.159-.487-6.22-.267-9.397-.165-.347-.543-1.737-1.659-2.592-1.83-10.147-3.741-12.174-5.027-21.1-6.1-4.2 0-7.7-.5-7.8-1 6.316-10.575 9.889-21.813 12.03-34.222.114-.66.317-3.673.423-4.341-.72.536-1.539 3.467-2.267 4.085-5.07 4.309-10.214 10.392-13.886 14.978-3.4 4.3-7.4 9.5-8.7 11.7l-2.5 4-.3-3c-2.257-7.335-4.096-18.22-8.8-24.8-1.4-1.5-2.5-3.8-2.5-5-.1-4.1-1-8.7-1.7-8.7-.4 0-.8.9-.8 2zm5.6 16.5c0 .9.6 2.8 1.4 4.3 2.2 4.5 4.7 16.4 4.4 21.3l-.3 4.6-4.3.1c-4 0-4.5-.2-5.8-3.4-1.7-4.1-1.9-18.6-.2-26.4 1.1-5.5 1.2-5.6 3-3.8 1 1 1.8 2.5 1.8 3.3zm33.5-3.8c-.4 1-.8 2.5-1 3.3-1.7 6.9-4 13.7-4.9 14.5-.7.5-2 2.8-3 5-1.1 2.2-2.2 4.2-2.5 4.5-.3.3-1.2 1.7-2 3.2-.9 1.8-2.9 3.2-6.2 4.2-2.6.9-5.1 1.6-5.5 1.6-1 0 .3-8.2 1.3-8.9.5-.3 2.8-3.3 5-6.6 2.3-3.3 6.4-8.6 9.3-11.9 2.8-3.2 5.8-6.9 6.7-8.2 1.8-2.8 3.8-3.2 2.8-.7zm7.5 35.8c3.6.9 7.5 1.9 8.8 2.2 3.7.9 2.6 1.9-5.3 4.7-6.7 2.4-21.6 4.7-25.5 4-.8-.1-3.1-.3-5-.3-4.8-.2-5.8-1.1-5.3-4.8.4-2.7 1.2-3.5 4.9-4.9 9.7-3.7 15.4-3.9 27.4-.9zm-36.4.3c1.1.6 1.8 3.9 1.5 7-.1.7-1.8 2-3.8 2.9-3.6 1.5-3.8 1.4-5.9-1-1.8-2.1-2-3.4-1.5-7.9.2-1.3 8-2.2 9.7-1zm-7.2 17.9c-.3 3.2-.7 6.9-1 8.2-.8 3.8-13.1 16.1-22 21.8-1 .7-3.6 2.4-5.8 3.8-4.2 2.8-5.9 2.6-3.3-.3 1-1 1.7-2.1 1.7-2.5 0-.3 1.4-2.6 3-5 1.7-2.5 3-5 3-5.6 0-1 4.9-9.5 7.5-13 3.5-4.8 10.5-11.1 12.3-11.1 1.1 0 2.4-.5 2.7-1 1.5-2.5 2.3-.5 1.9 4.7zm10.1 37.1c-.3.3-1.1 0-1.8-.7-.9-1-.8-1.1.6-.5 1 .3 1.5.9 1.2 1.2z"/><path d="M231.8 61.5c-1 1.7.6 22.3 1.9 23.6.9.9 1.1-1 .7-8.2-.5-10.2-1.6-17-2.6-15.4zm24.4 5.8c-1.2 1.3-2.2 2.6-2.2 2.9 0 .3-1.8 3.7-3.9 7.7-2.2 3.9-3.6 7.1-3.1 7.1 1.2 0 2.8-2.3 5.8-8.2 1.6-2.9 3.6-6.6 4.6-8.1 2.4-3.5 1.6-4.4-1.2-1.4zM269 93c-2.5.5-8.4.9-13.2 1-5 .1-8.8.6-8.8 1.2 0 1.1 24.4.4 27.3-.8 1.6-.6 1.4-2.6-.1-2.3-.4.1-2.7.5-5.2.9zm-35.3.7c-1.4 1.3-.6 3.3 1.3 3.3 1.3 0 2-.7 2-2 0-1.9-2-2.7-3.3-1.3zm-11.8 21.5c-1.8 2.9-4.8 7.2-6.7 9.6-1.8 2.3-3.2 4.8-3 5.4.3.7 1.9-.8 3.7-3.2 9.9-13.7 12-17 10.7-17-.8 0-2.9 2.4-4.7 5.2zm-77-59.2c-.2 6.7-.2 6.1.7 8.4.6 1.5.4 1.7-.6 1.1-.8-.5-1.1-.4-.6.3.4.6 1.2.9 1.9.6 1.6-.6 1.5-13-.1-14.6-.9-.9-1.2 0-1.3 4.2zm36.6 2c1.5 2.9 3.5 4 3.5 2 0-1-3.6-5-4.5-5-.3 0 .1 1.3 1 3zm-37.4 11.3c-.6.8-.8 1.7-.4 2 1.1 1.2 2.1.7 2.6-1.3.6-2.3-.5-2.6-2.2-.7zm64.9 11c6.5 6.2 12.6 10.7 13.4 10 1.2-1.2.6-2.1-2.4-3.3-1.7-.7-3.7-2.5-4.5-4-1.4-2.7-7.5-7-9.8-7-.7 0 .8 1.9 3.3 4.3zm-141.4 11c.3 1 .9 1.5 1.2 1.2.3-.3 0-1.1-.7-1.8-1-.9-1.1-.8-.5.6zm143.9 7.8c-7.5 1.2-13.5 3-13.5 4.1 0 .5.9.7 1.9.3 2.6-.8 5.3-1.3 13.6-2.6 8.1-1.3 11.9-2.9 6.5-2.8-1.9.1-5.7.5-8.5 1zm25.8 10.8c.4 1.8.7 4 .7 4.7 0 .8.4 1.4.8 1.4 1.5 0 1-6.9-.6-8.2-1.4-1.2-1.5-.9-.9 2.1zm13.7-1.7c0 2 3.9 6 9.2 9.3.9.5 4.3 3.2 7.7 5.8 3.4 2.7 6.1 4.4 6.1 3.9 0-.5-.7-1.5-1.5-2.2-2.3-1.9-1-2.4 1.7-.6 1.6 1 2.8 1.2 3.8.6 1.3-.8 1.2-1-.3-1-1.9 0-9.3-3.5-11.7-5.5-.8-.7-2.5-1.6-3.8-2-1.3-.3-4.3-2.8-6.7-5.3-3.1-3.2-4.5-4.1-4.5-3zm-103.1 10.2c-.1 3.1-.1 6.8-.2 8.3-.1 1.5.4 2.8 1.1 3.1.8.2 1.2-1 1.3-3.5 0-2.1.1-5.8.2-8.2.1-2.8-.3-4.6-1-4.8-.9-.3-1.3 1.1-1.4 5.1zm-52.9-3c0 .2.7 1.7 1.5 3.2.8 1.6 1.5 3.6 1.5 4.4 0 .9.6 2.2 1.3 2.9 1 1.1.8 1.2-1 .6-1.4-.4-2.3-.2-2.3.4 0 .6.7 1.1 1.5 1.1s1.5.4 1.5 1c0 .5.7 1 1.6 1 1.1 0 1.4-.5 1-1.6-.3-.9-.9-2.8-1.2-4.2-.4-1.5-1.1-3.3-1.7-4-.5-.6-.6-1.2-.3-1.2.4 0 .2-.9-.4-2-.9-1.7-3-2.8-3-1.6zm143.5 2.8c-.6 1.6-.1 4.5.8 5.4.4.4.7 1.5.7 2.4 0 1 .7 2.3 1.5 3 1.9 1.6 2-.1.4-3.3-.7-1.2-1.2-3.4-1.1-4.9.1-3-1.5-4.8-2.3-2.6zm41.5 5c0 .9.5 2 1 2.3.6.4.8 1.5.5 2.5-.3 1-.1 2.1.4 2.5.7.3.8 0 .5-.9-.3-.9-.1-1.6.5-1.6 1.6 0 1.3-1.1-.9-4-1.5-2-2-2.1-2-.8z"/><path d="M102.6 126.2c.4 1.3.7 2.8.7 3.4 0 1.2-6.3 14.5-7.3 15.4-1.3 1.2-4.9 8-4.2 8 1 0 10.2-14.6 10.2-16.2 0-.7.9-2.8 2-4.6 2.4-3.9 2.5-4.9.6-6.8-2.1-2-2.8-1.7-2 .8zm-11.2 2c-.4.6-.2 1.4.4 1.6.7.2 1 .8.6 1.3-.9 1.4.7 10.2 1.7 9.2 1.1-1.1 0-13.3-1.2-13.3-.4 0-1.1.5-1.5 1.2zm192.6 1.6c0 .4 1.3 2.3 3 4.2 1.6 1.9 2.9 4.1 3 4.7 0 .7 2.0514 4.83112 3.2514 4.83112 1.8 0 .4486-4.13112-3.1514-8.13112-2.3-2.6-4.1-5.1-4.1-5.5 0-.5-.4-.9-1-.9-.5 0-1 .4-1 .8zm-45 1.4c0 3 1.2 4.8 3.1 4.8 1.4 0 1.9-.7 1.8-2.8 0-2.2-.2-2.4-.8-.8-.7 1.8-.8 1.8-2.4-.5-1.3-1.7-1.7-1.9-1.7-.7zm-90.6 1.2c-1.5 1.6-1.5 6.8 0 6.3.6-.2 1.2-2 1.4-4 .3-4.1.2-4.2-1.4-2.3z"/><path d="M279.45237 135.08664c.3.5 13.64763 8.61336 14.84763 9.21336 2.2 1.2 2.63364-1.04221-7.7-7.2-1.9-2.1-8.34763-3.91336-7.14763-2.01336zM147.2 142.5c.3 2.9 2.1 3.5 2.6.9.3-1.1 0-1.4-1-.8-1 .6-1 .5.1-.9 1.2-1.5 1.1-1.7-.3-1.7-1.3 0-1.6.7-1.4 2.5zM71 143.6c0 .8.4 1.2 1 .9.6-.3.7.1.4 1-.5 1.2-.9 1.3-2 .4-1.8-1.5-2.7-.7-1.8 1.5.7 2 4.4 2.2 4.4.2 0-.8.7-1.7 1.7-2 1.4-.6 1.4-.8-.3-2.1-2.5-1.9-3.4-1.9-3.4.1z"/><path d="M294.3 144.3c2.7 2.9 5.8 4.2 5 2.1-.3-.7-1.1-1.4-1.8-1.4s-1.5-.7-1.9-1.5c-.3-.8-1.2-1.5-2-1.5-1.1 0-.9.6.7 2.3zm-144 11.9c1.3 1.3 2.9 3.2 3.5 4.3.6 1.1 1.2 1.4 1.2.7 0-1.9-4.2-7.2-5.7-7.2-.9 0-.5.9 1 2.2zm-5.3-.2c0 .5.7 1 1.6 1 .8 0 1.2-.5.9-1-.3-.6-1-1-1.6-1-.5 0-.9.4-.9 1zm34.2 1.9c-.8.5 1.2.7 4.8.6 3.3-.2 6.4-.5 6.7-.9 1-.9-10-.7-11.5.3zm-17.2 1.4c0 2.2 1.1 2.6 3.6 1.5 3.3-1.5 3-2.8-.6-2.8-1.8 0-3 .5-3 1.3zm8.8-.6c.6.2 1.8.2 2.5 0 .6-.3.1-.5-1.3-.5-1.4 0-1.9.2-1.2.5zm-24.3 2.3c.3.5 1.1 1 1.6 1 .6 0 .7-.5.4-1-.3-.6-1.1-1-1.6-1-.6 0-.7.4-.4 1zm-57.5.9c0 .5-.3 1.7-.7 2.6-.5 1.5-.3 1.6 1.5.6 1.3-.7 1.9-1.7 1.6-2.6-.7-1.6-2.4-2.1-2.4-.6zm.8 4.8c-2.8.3-3.7.9-4.2 2.8-.4 1.4-1 2.4-1.4 2.3-2.3-.7-19.2 12.5-32.6 25.5-4.9 4.8-9.3 8.4-9.9 8-.5-.3-.4.4.2 1.6l1.2 2.1 2.4-2.6c1.9-2.1 2.7-2.4 4.4-1.5 2.6 1.4 3.4 1.4 2.9-.2-.3-.6-1.1-1.2-1.8-1.2s-1.5-.5-1.7-1c-.6-2 31.1-29.5 32.4-28.1.8.7-2.6 4.6-4.1 4.6-1.4 0-16.9 17.5-17.9 20.3-.8 2.1-.9 2.1-2.1.4-.7-.9-1.8-1.7-2.5-1.7-.6 0-.2.9.9 2s2.6 1.7 3.5 1.4c2.1-.8 1.9-.2-.7 2.9-2.2 2.5-7.4 5.2-9.1 4.8-.5-.1-1.1.8-1.4 1.9-.3 1.1-1.2 2-2 2s-1.1.4-.8 1c.3.5-.5 1.5-1.8 2.1-2.4 1.1-7.7 8.9-6 8.9.4-.1 2-1.9 3.5-4 1.5-2.2 3.3-4 4-4 .7 0 2.4-1.6 3.7-3.5 1.3-1.9 3-3.5 3.7-3.5.8 0 2.3-.6 3.4-1.2 1.6-1 2.4-1 3.9-.1 1.5 1 2.2.9 3.1-.2.7-.8 2-1.5 2.9-1.5 1.4-.1 1.3-.3-.3-1.5-1-.8-2.4-1.6-2.9-1.8-.6-.2.2-2 1.7-4 3.5-4.5 4.8-4.1 1.5.4-1.9 2.8-2 3.2-.5 2.6 1-.4 2.1-.7 2.6-.7.4 0 .6-.8.3-1.9-.2-1 .2-2.4.9-3.2 2.3-2.2 5.4-7.4 4.1-6.6-2.5 1.5-1.2-.4 5.7-8.9 3.9-4.8 7-9 7-9.5s.5-.9 1.1-.9c.5 0 .7.6.3 1.2-.4.8-.3.9.2.5.5-.5.9-1.6.9-2.5 0-1.1.7-1.6 2-1.5 4.4.4 12.2 2.4 16 4 4.2 1.8 14.5 11.6 14.5 13.8 0 .7.7 1.8 1.5 2.5s1.3 1.6 1 2c-.7 1.1 1.5 8 2.5 8 .6 0 1 1.7 1 3.8 0 3.3 3 13.6 4.5 15 .8.8.6-.7-1.4-9.3-1.2-5.5-1.5-8.7-.8-10.1.6-1.5.4-3-.6-5l-1.6-2.9.6 4.4c.4 3 .3 4.2-.5 3.7-.6-.3-1-1.4-1-2.4.2-3.6-2.3-9.9-6-15.1-3.9-5.7-11.1-10.3-19.7-12.7-2.2-.6-4.7-1.3-5.5-1.6-.8-.2-3.1-.3-5.2-.1zM78 180.8c0 .4-1.2 2-2.7 3.7-4.1 4.3-12.1 14.4-12.6 15.8-.2.7-.8.9-1.2.5-.9-.8 3.6-7.2 10.8-15 5.4-6 5.7-6.3 5.7-5zM70.5 194c-1 1.1-2 1.8-2.3 1.5-.3-.3.3-1.4 1.3-2.5s2-1.8 2.3-1.5c.3.3-.3 1.4-1.3 2.5zm-7 13.1c-.8 1.1-1.6 1.1-3.4 0-2.2-1.4-.4-3.3 2-2.1 1.1.6 1.7 1.5 1.4 2.1zm-.2-38.4c-1.9.7-1.6 2.1.8 3.3 2.3 1.3 4.9-.2 4.9-2.6 0-1.4-3.2-1.8-5.7-.7zM68 170c0 .5-.9 1-2.1 1-1.1 0-1.7-.5-1.4-1 .3-.6 1.3-1 2.1-1s1.4.4 1.4 1zm137.5-1c.3.5 1.3 1 2.1 1s1.2-.5.9-1c-.3-.6-1.3-1-2.1-1s-1.2.4-.9 1z"/><path d="M92.5 174.6l-3 1.4 3.5-.5c1.9-.3 3.9-1 4.4-1.5 1.5-1.5-1.4-1.2-4.9.6zm-8.2 2.1c-1 1.6-3.5 4.9-5.7 7.6-2.1 2.6-3.7 4.9-3.5 5.2.5.5 9.1-10 10.8-13.3 1.7-3.1.5-2.8-1.6.5zm17.2-1.5c1.7.6 4.1 1.9 5.4 2.9 3.2 2.5 5 2.4 2.3-.1-2.4-2.3-6.5-4-9-3.9-.9 0-.3.5 1.3 1.1zm-58.3 2c-1.9 1.9-1.4 3.8 1.1 3.8 2.9 0 5.3-3.5 3.1-4.4-2.2-.8-2.8-.8-4.2.6zm163.8 4c-.1 12.3-1 29-1.5 29.8-.4.6.1 1 1 1 1.2 0 1.5-.9 1.4-3.8-.1-2 .1-4.6.5-5.7.6-1.6.6-1.7-.3-.5-.6.8-1.1 1-1.1.4s.3-1.4.7-1.7c1-1 1.2-24.7.2-24.7-.5 0-.9 2.4-.9 5.2zm-182.6-1.4c-3.4 2.2.1 30.6 5.5 45.5 2.1 5.6 6.1 11.5 6.1 8.9 0-.7-.9-2.1-2.1-3.3-1.1-1.1-1.9-2.3-1.6-2.5.3-.3-.4-2.7-1.4-5.4-2.8-7.3-6.2-29.4-5.7-37.2.2-3.8.4-6.8.3-6.8 0 0-.5.4-1.1.8zm88.1 2.3c1 3.2 4.7 9.9 5.5 9.9.4 0 .7.6.7 1.2 0 .7 1.2 3.8 2.5 6.8 3.1 6.8 5.4 13.9 6.7 20.5.5 3.1 1 4 1.1 2.5.4-4.9-.2-8.5-2.2-12.5-1.2-2.2-2-4.1-1.9-4.3v-1c-.1-.4-.1-1.5 0-2.5.1-.9-.2-1.7-.7-1.7-.5 0-.9-.6-.9-1.3 0-2.5-4.3-10.8-5.3-10.2-.6.4-1-.5-1-2 0-1.4-.7-2.8-1.5-3.1-.8-.4-1.5-1.2-1.5-1.9 0-.8-.5-1.7-1.1-2.1-.8-.4-.9.1-.4 1.7zm-13.5.8c0 .5.9 1.1 2.1 1.4 1.3.4 1.9 1.2 1.8 2.4-.2 1 1.5 4.9 3.8 8.8 2.2 3.8 6.5 11.6 9.4 17.2 3 5.7 5.8 10.3 6.2 10.3.4 0 .2-1-.5-2.3-.6-1.2-1.3-2.7-1.4-3.4-.3-1.9-7.4-16.1-9.9-19.8-2.3-3.4-2.3-3.4-.4-4 1.1-.4 2.2-.5 2.3-.3.5.6 4 8.3 4.1 8.8 0 .3 1.1 3.2 2.4 6.5 1.2 3.3 2.9 7.6 3.6 9.5.7 1.9 2.5 6.5 3.9 10.3 2.8 7.3 3.5 13.3 1.4 12.1-1-.6-1-.4 0 .7 1.5 1.6 1.7 11.8.2 10.3-.6-.6-1.3-3.4-1.7-6.3-.3-2.8-1-5.4-1.4-5.7-.5-.3-.6.2-.3 1 .3.9.2 1.6-.4 1.6-.6 0-1.6-1.7-2.3-3.7-1.2-3.9-5.2-12.5-7.2-15.8-3.6-6-8.2-13.1-8.7-13.5-.4-.3-1-1.4-1.4-2.5-.6-1.6-.9-1.7-1.6-.5-.9 1.4-1.4.7-1.1-1.3.3-1.9-2.1-4.8-3.7-4.3-1 .4-2.9-.6-4.9-2.4l-3.2-3-1.1 3.6c-.8 2.3-1.7 3.4-2.5 3-.9-.3-1.2 0-.8 1 .8 2.1 2.2 1.7 3.5-1.1 1.3-2.8 2.8-3.3 2.8-.9 0 1 .5 1.4 1.5 1 2.4-.9 3.1 2.3 1.2 5.6-2.1 3.7-.4 3.6 2.2-.1 1.2-1.7 1.9-3.7 1.5-4.8-.5-1.7-.4-1.6 1 .1 1.1 1.4 1.3 2.2.5 2.7-.6.4-.8 1.2-.5 1.8.4.6 0 1.4-.8 1.7-1.3.5-1.3.8-.1 2 2 2.1 3.7 1.7 3-.6-1.3-4 1.4-1.9 4 3.2 3.5 6.7 5 8.9 5.7 8.2.3-.3.9.7 1.2 2.2.4 1.5 2.3 5.1 4.2 8 1.8 3 3.4 6 3.4 6.7 0 .7 1.1 2.9 2.5 4.9 1.4 2 2.5 4.1 2.5 4.6s.9 2.9 1.9 5.3c1.1 2.5 2.2 7.9 2.5 12.4.6 8.6 1.1 12 2.1 13.4.3.5.1 1.2-.5 1.6-.5.3-1 1.6-1 2.8 0 1.2-.7 3.4-1.4 5-1.7 3.1-1.1 3.5 1.6 1 1.9-1.7 2.4-.8.9 1.6-.6.9-1.8 1.1-3.5.7-1.4-.3-2.6-.2-2.6.3 0 1.5-6.9 3.4-10.2 2.7-2.6-.5-2.9-.4-1.9.8 1 1.2.8 1.5-1.1 1.9-2 .4-2 .4.5.6 1.5 0 2.7-.4 2.7-.9 0-.6.5-1 1.1-1 .5 0 .7.6.3 1.2-.5.9-.2.9.9-.1.9-.7 1.7-1.1 1.7-.7 0 .3 2.4-.3 5.3-1.4 7-2.7 7-2.6 1 1.5-2.9 1.9-5.7 3.5-6.3 3.5-.5 0-1 .4-1 .9 0 2.1 6.4-1.4 10.9-5.9 5.6-5.6 6.6-8.5 4.9-14.3-.6-2.3-1.3-5.6-1.4-7.2-1.1-11.1-2.2-30.2-2.3-38.8-.1-4.3-.6-6.2-2.1-7.7-1.1-1.1-2-2.8-2-3.8 0-.9-.7-3-1.5-4.6-.8-1.5-1.5-3.4-1.5-4.1 0-1.4-3.3-9-8.6-20.2-1.9-3.9-3.4-7.9-3.4-8.7 0-2.2-2.3-2-4.6.5-1.8 2-1.8 2 1.1 1.4l3-.6-2.5 2.1-2.5 2.2-1-3.3c-.5-1.9-1.4-4-1.8-4.7-.9-1.4-3.7-1.7-3.7-.3zm12 8c0 1.1-3.1 2.4-3.9 1.6-.3-.3.1-1 .9-1.5 1.9-1.2 3-1.2 3-.1zm21.6 94.6c-.9.9-1.6 1.3-1.6.8 0-1.2 2.2-3.4 2.8-2.8.2.2-.3 1.1-1.2 2zm-44-100.6c-1.2 1.3-1.4 2.1-.6 2.6 1.9 1.1 4-.3 3.3-2.2-.5-1.5-.3-1.5 1.1.2 1.7 2 1.7 2 1.4 0-.4-2.7-3-3-5.2-.6zm192.86538.53887c-3.79952 1.16043-8.74744 1.82058-13.16538.66113l-3.3-1 .5 3.7c.26001 9.00074-.2813 16.71575.7 24.2l.4 4-3.8.1c-2.1.1-5.2.2-7 .3-2.6.1-3.3-.3-3.9-2.7-.4-1.5-.3-2.7.2-2.7s.5-1 0-2.3c-.6-1.5-.1-5.2 1.5-11.7 3.3-13.1 3.3-13-1.8-11.8-2.3.5-5.3.6-6.6.3-1.6-.4-2.1-.2-1.7.6.5.7 2.6 1 5.7.7 4-.4 4.8-.2 4.4.9-.4.8-.6 1.9-.6 2.4 0 .6-.5.7-1.2.3-.7-.5-.9-.2-.6.7.3.8 0 4.1-.6 7.4-.7 3.3-1.1 7.8-.9 10 .4 6.3-.3 8.2-3.4 8.7l-2.8.4v-14.3c-.1-9.2-.5-14.7-1.2-15.4-.6-.6-.9-1.7-.7-2.4.3-.7.1-1.5-.4-1.9-.5-.3-.8 2.7-.8 6.8-.10945 7.49265 1.97475 16.85229 1 23.3-.3 1.6-1.3 2.3-4.4 2.8-4.6.8-5.6.7-5.2-.6.1-.5-.4-.8-1-.7-1.5.3-4.2 2.7-3.7 3.3.8.7 7.5.9 8.7.1.6-.4 1.8-.4 2.4.1 1.3.7 5.4.6 9.3-.4 1.1-.3 2.9-.5 4-.5 9.1 0 14.3.1 16 .3 1.1.1 3.7.1 5.8.1 2.6 0 3.7.4 3.7 1.4 0 1.1.3 1.2 1.3.3 1.4-1.4 1.9-16.9.5-16.9-.5 0-.8.6-.7 1.2.1.7-.1 3.9-.5 7.1l-.8 5.8-4.1-.3c-3.8-.3-4.2-.6-4.8-3.6-.4-1.7-.3-3.2.2-3.2s.9-.5.9-1.1c0-.5-.5-.7-1.1-.3-.9.5-1-.1-.4-2.2 1.1-3.6 1.1-12.8.1-17.2-.8-3.2-.7-3.2 2-2.1 1.6.5 4.4.9 6.4.7 3.8-.3 3.8-.4 2.9 8.6-.2 2.2.1 4.1.7 4.3.5.2 1.1-1.3 1.3-3.4.2069-7.24666 1.22961-8.54106.56538-12.86113zM19.5 185c.3.5.8 1 1.1 1 .2 0 .4-.5.4-1 0-.6-.5-1-1.1-1-.5 0-.7.4-.4 1zm64.8 4.4c.3.8.2 1.7-.4 2-.5.2-.4.3.3.2 1.7-.3 2.3-3.6.8-3.6-.7 0-1 .6-.7 1.4z"/><path d="M97.8 190.1c-2.4 2.6-2.3 3.1.7 2.3 1.5-.4 2.5-.2 2.5.5 0 .6-.9 1.1-1.9 1.1-1.1 0-2.1.7-2.3 1.5-.2 1-1.6.3-4.6-2.6-2.4-2.3-4.5-3.9-4.8-3.6-.4.3 1.6 2.6 4.2 5.1 2.7 2.4 5.1 4.1 5.4 3.7.9-1.4 5.2-3.3 5.8-2.5.4.4.1.9-.5 1.1-2 .7-1.5 2.2.5 1.7 1.2-.4 2.5.9 4.5 4.3 1.5 2.6 3.2 5.5 3.7 6.3 2.1 3.3 8.7 17.8 10.5 23.2 1 3.1 2.2 5.5 2.6 5.3 1.5-1-6.3-19.6-13.1-31-1.6-2.8-3.3-5.9-3.9-7-.5-1.1-2.1-3.7-3.5-5.8-1.4-2.1-2.6-4.2-2.6-4.7 0-1.5-1.3-1-3.2 1.1zm149.7 3.1c-.7 2.4-1.2 22.9-.5 22.1.9-.9 2.2-23.3 1.4-23.3-.2 0-.6.6-.9 1.2zm25 .7c-.3.5-.1 1.2.5 1.6.6.4.8 3.7.4 8.6-.3 4.4-.2 7.9.3 7.9.9 0 1.1-1.4 1.7-12.8.2-4.5 0-6.2-1-6.2-.7 0-1.5.4-1.9.9zM18.2 199c0 1.9.2 2.7.5 1.7.2-.9.2-2.5 0-3.5-.3-.9-.5-.1-.5 1.8zm59.7-1.4c-1.1 1.4-1 1.8.5 2.9 2.5 1.8 4.6.8 4.4-2.1-.3-2.8-2.9-3.2-4.9-.8zM81 199c0 .5-.2 1-.4 1-.3 0-.8-.5-1.1-1-.3-.6-.1-1 .4-1 .6 0 1.1.4 1.1 1zm-30 1.8c0 .4.9 1.3 2 2 2.2 1.3 2.7.3.8-1.6-1.4-1.4-2.8-1.6-2.8-.4zm178.2 7.3c0 3.8.4 6.9.9 6.9s.9-1 1-2.3c.1-1.2.2-4.1.3-6.4.1-2.6-.3-4.4-1-4.7-1-.4-1.3 1.3-1.2 6.5zm-140-4.1c-2.8 2.3-2.8 3-.1 2.3 1.9-.5 2-.4.9 1.6-1.9 3.7-.4 3.5 1.9-.2 1.1-1.9 2.1-3.7 2.1-4 0-1.4-2.8-1.3-4.8.3zM19 207.1c.5 1.7.8 3.5.7 3.9-.1.4.2.7.8.6.5 0 .9-.7.7-1.4-.2-.6.2-1.2.8-1.2.5 0 1 .5 1 1.2 0 .6.2.9.5.6 1.1-1-.7-3.7-2.1-3.1-.9.3-1.4-.2-1.4-1.6 0-1.2-.4-2.1-.9-2.1-.6 0-.6 1.2-.1 3.1zm1.421526 12.92663s-5.847716-8.45378-5.580224-13.24203c-5.4678624 4.59137 2.399609 12.7325 5.580224 13.24203z"/><path d="M16.5 210.9c-.3.5-.1 1.2.5 1.6.5.3 1-.1 1-.9 0-1.8-.6-2.1-1.5-.7zm42.5.5c0 .9.5 1.6 1 1.6.6 0 1-.4 1-.9 0-.6-.4-1.3-1-1.6-.5-.3-1 .1-1 .9zm5-.4c0 .5.5 1 1 1 .6 0 1-.5 1-1 0-.6-.4-1-1-1-.5 0-1 .4-1 1zm25 2c.8.5 2 1 2.5 1 .6 0 .3-.5-.5-1s-1.9-1-2.5-1c-.5 0-.3.5.5 1zm4.2 1.6c-.7.8-.8 1.4-.3 1.4 1 0 2.5-1.9 2-2.5-.2-.1-1 .3-1.7 1.1zm-72.5 1.5c.7.7 1.5 1 1.8.7.3-.3-.2-.9-1.2-1.2-1.4-.6-1.5-.5-.6.5zm55 0c.7.7 1.5 1 1.8.7.3-.3-.2-.9-1.2-1.2-1.4-.6-1.5-.5-.6.5zm196.3 0c0 .5.5.7 1 .4.6-.3 1-.8 1-1.1 0-.2-.4-.4-1-.4-.5 0-1 .5-1 1.1zM37 217c0 .5.5 1 1.1 1 .5 0 .7-.5.4-1-.3-.6-.8-1-1.1-1-.2 0-.4.4-.4 1zm163.8 4c-.4 10.4-.4 10.5 1.2 10.1 2-.5 2.2-.5 12 .4 11.4.9 29.7.9 28.8-.1-.3-.3-7.7-.8-16.4-1-8.8-.3-16.5-.6-17.2-.6-.8-.1-1.8-1.2-2.3-2.5-.5-1.3-1.4-2.3-2.1-2.3-.9 0-.9.3 0 1.2 1.8 1.8 1.5 2.8-.9 2.8-1.9 0-2-.4-1.4-6.5.5-4.5.4-6.5-.4-6.5-.6 0-1.2 2.1-1.3 5zm-122-2.3c-2 .5-2.5 2.3-.7 2.3.8 0 .8.5-.1 1.5-1.1 1.3-.9 1.5 1.3 1.5 2.9 0 5.2-2.3 4.3-4.5-.5-1.5-1.6-1.7-4.8-.8zm3.2 1.9c0 .8-.4 1.2-1 .9-.5-.3-1-1-1-1.6 0-.5.5-.9 1-.9.6 0 1 .7 1 1.6zm20.1-1c0 1.1.3 1.4.6.6.3-.7.2-1.6-.1-1.9-.3-.4-.6.2-.5 1.3zm-83.1.9c0 .8.5 1.5 1 1.5.6 0 1-.7 1-1.5s-.4-1.5-1-1.5c-.5 0-1 .7-1 1.5zm40.3-.1c-1.8 2.1-.2 2.8 1.9.9 1.9-1.7 1.9-1.6 1.3 1-.4 1.6-.3 2.7.3 2.7 1.1 0 2.4-3.9 1.6-5.2-.8-1.2-3.8-.9-5.1.6z"/><path d="M209.3 219.8c-.9.6-.6 1.5 1.2 3.6 1.4 1.6 2.2 3.3 1.9 3.7-.3.5 0 .9.6.9s.9-.8.6-1.8c-.3-.9-.8-2.9-1.2-4.5-.7-2.8-1.1-3.2-3.1-1.9zm-165.7 1.1c-1.5 2.4 3.1 6 5.6 4.5 1.7-1.1.7-4.2-1.4-4.8-3.1-.8-3.6-.8-4.2.3zm5.4 2.6c0 .3-.9.5-2 .5s-2-.7-2-1.5c0-1.3.4-1.4 2-.5 1.1.6 2 1.3 2 1.5zm208-2.5c0 .5.5 1 1.1 1 .7 0 .9 1 .7 2.5-.6 3 .8 3.4 1.7.5.4-1.2.1-2.7-.5-3.5-1.4-1.7-3-2-3-.5zm9.3 3.8c-.2 3.5-.1 3.6 1.3 1.7 1.6-2.1 1.5-4.6-.1-5.2-.5-.1-1.1 1.4-1.2 3.5zm-47.3-1.2c0 2.2 2.6 3.5 5.1 2.5 2.1-.9 2.2-1 .4-1.1-1.5 0-1.7-.2-.6-.9.9-.6.4-1-1.8-1.3-2-.3-3.1 0-3.1.8zm16-1.2c0 .2 1.1.6 2.5.8 1.4.3 2.5.1 2.5-.3 0-.5-1.1-.9-2.5-.9s-2.5.2-2.5.4zm-146.3 1.3c-.4.3-.7 1.1-.7 1.7 0 .6.5.5 1.2-.2.6-.6.9-1.4.7-1.7-.3-.3-.9-.2-1.2.2zm155.1 0c.7.3 1.6.2 1.9-.1.4-.3-.2-.6-1.3-.5-1.1 0-1.4.3-.6.6zm4.2 0c.8.3 1.9 1.3 2.4 2.1.7 1.2 1 1.2 1.7.1 1.1-1.9.1-2.9-2.9-2.8-1.6 0-2.1.3-1.2.6z"/><path d="M277 225.8c0 3.9-.8 4.2-15 4-11.8-.1-18 .7-18 2.3 0 .5 1.2.4 2.7-.2 8.95646-.15205 17.99943-.06674 26.7-.7 6.2-.3 6.6-.6 5.6-4.3-1.3-4.4-2-4.8-2-1.1zm-45.2-1c-2.7.2-4.8.7-4.8 1.2 0 .9 8.8.5 9.8-.4.9-1-.1-1.1-5-.8zm6.7 1.2c.3.5 1.5 1 2.6 1 1 0 1.9-.5 1.9-1 0-.6-1.2-1-2.6-1-1.4 0-2.3.4-1.9 1zm7.3-.3c.6.2 1.8.2 2.5 0 .6-.3.1-.5-1.3-.5-1.4 0-1.9.2-1.2.5zM56 227.1c0 .5.5.7 1 .4.6-.3 1-.8 1-1.1 0-.2-.4-.4-1-.4-.5 0-1 .5-1 1.1zm7 1.9c0 1.9.3 2.1 1.2 1.2.9-.9.9-1.5 0-2.4-.9-.9-1.2-.7-1.2 1.2zm24.3-1.2c-.7.4-.9 1.3-.4 2.1.6.9 1 .7 1.4-.8.3-1.2.4-2.1.4-2.1-.1 0-.7.4-1.4.8zm9.7 2.6c0 .9-.5 1.6-1 1.6-.7 0-.7.6 0 2 1.1 2.1 5.4 2.8 6.5 1 .9-1.5-.5-5.1-1.6-4.4-.6.3-1.6 0-2.4-.6-1.2-1-1.5-.9-1.5.4zm4 3.3c0 .8-.5 1.3-1.2 1.1-1.8-.6-2.1-2.5-.3-2.5.8 0 1.5.7 1.5 1.4zm-38.3.9c.2.7 1.1 1 1.9.7 1.9-.7 1.8-1-.5-1.6-1.3-.3-1.8-.1-1.4.9zm20.4 5c0 1.1.3 1.4.6.6.3-.7.2-1.6-.1-1.9-.3-.4-.6.2-.5 1.3zm13 2c0 1.1.3 1.4.6.6.3-.7.2-1.6-.1-1.9-.3-.4-.6.2-.5 1.3zm5.5.1c-.6 1.4-.5 1.5.5.6.7-.7 1-1.5.7-1.8-.3-.3-.9.2-1.2 1.2zm7.4-.7c-1.3.8-1.2 1 .3 1 .9 0 1.7-.5 1.7-1 0-1.2-.1-1.2-2 0zm8.6.5c1.6 3.8.8 10-2.1 14.8-3.1 5.4-4.4 6.5-5.5 4.7-.5-.9-.9-.9-1.4-.1-.4.6-.2 1.1.5 1.1.8 0 .8.4-.1 1.5-1.9 2.3-.1 1.8 3.5-1 1.8-1.3 3.6-2.1 4-1.7.5.4.5.2.2-.4-.4-.7.4-3.6 1.8-6.6 2.2-4.8 2.4-5.9 1.4-8.9-.7-1.9-1.6-3.9-2.2-4.4-.7-.7-.7-.3-.1 1zM80.5 246c-.3.5-1.5 1-2.6 1s-1.7.4-1.4 1c.9 1.4 1.6 1.2 4.5-1 1.4-1.1 2-2 1.3-2-.6 0-1.5.4-1.8 1z"/><path d="M107.8 248.1c-2.3 1.3-1.3 3.6 1.8 4.2 3 .5 3.8-.6 2.4-3.3-1.2-2.2-1.8-2.4-4.2-.9zm2.7 1.9c.3.5.2 1-.4 1-.5 0-1.3-.5-1.6-1-.3-.6-.2-1 .4-1 .5 0 1.3.4 1.6 1zm-14.4-1.1c-.7.5-1.2 1.4-1 2 .2.6 1 .2 1.7-.9 1.4-2.2 1.3-2.3-.7-1.1zM110 256c0 .5.5 1 1 1 .6 0 1-.5 1-1 0-.6-.4-1-1-1-.5 0-1 .4-1 1zm-9 .4c0 .2.8 1 1.8 1.7 1.5 1.3 1.6 1.2.3-.4s-2.1-2.1-2.1-1.3zm18.6 3.9c.3 1 .9 1.5 1.2 1.2.3-.3 0-1.1-.7-1.8-1-.9-1.1-.8-.5.6zM96 263.9c0 .5-.9 1.3-2 1.6-1.1.3-2 1.3-2 2.1 0 2 2 1.7 2.1-.4 0-1 .3-1.2.6-.5.2.7.9 1.3 1.4 1.3.4 0 .5-.7.2-1.7-.4-1.1-.3-1.4.5-.9.7.4 1.2.3 1.2-.3 0-.5-.4-1.3-1-1.6-.5-.3-1-.2-1 .4zm-19 1.6c.7.8 1.7 1.5 2.2 1.5.5 0 .3-.7-.6-1.5-.8-.8-1.8-1.5-2.2-1.5-.3 0-.1.7.6 1.5zm9-.5c0 1.3 1.8 2.2 2.4 1.1.3-.5-.1-1.1-.9-1.5-.8-.3-1.5-.1-1.5.4zm33.3.6c-.3.8.2 2.3 1.1 3.2 1.6 1.6 1.8 1.6 3.1-.2.8-1 1.6-2.4 1.9-3 .3-.7.8-.6 1.5.4.7.9 1.1 1 1.1.3 0-.6-.4-1.4-.9-1.7-1.4-.9-4.1.4-4.1 2 0 .8-.5 1.4-1.1 1.4-.6 0-.8-.9-.4-2 .8-2.4-1.3-2.8-2.2-.4zm-50.2.7c-.9 1.2-.7 1.7 1.1 2.9C73 271 75 270.5 75 268c0-2.3-1.6-3.5-2.3-1.8-.4 1-.7 1-1.5 0-.7-1-1.1-1-2.1.1zm36 1.6c-1.7 1.3-2.2 2.3-1.6 3.9.3 1.2.2 2.2-.3 2.2-.6 0-.8.8-.5 1.8.3 1.5-.6 2.3-4.4 3.7-2.6 1.1-4.1 2.1-3.3 2.2.8.2 4-1 7-2.7 3-1.6 6.7-3.5 8.3-4.1 3.4-1.4 3.5-3.9.2-6.7-3-2.6-2.5-2.6-5.4-.3zm3.9 1.6c0 .8.5 1.5 1.2 1.5.9 0 .9.3 0 1.2-1 1-1.5 1-2.1-.1-.5-.7-1.4-1-2-.7-.6.4-1.1.1-1.1-.8 0-1.3 1.3-2.3 3.3-2.5.4-.1.7.6.7 1.4zm-2 4.4c0 1.2-2 2.5-2.7 1.8-.7-.7.6-2.7 1.8-2.7.5 0 .9.4.9.9z"/><path d="M99.3 271.5c-9 6.3-35.7 17.3-42.8 17.6l-3 .1 3 .7c1.7.4 3.4.4 3.9-.1.6-.4 1.7-.8 2.6-.8.9 0 4.3-.9 7.6-2 3.2-1.2 6.4-2.2 7-2.3.6-.2 2.2-1 3.5-1.8 1.3-.8 4.4-2.3 6.9-3.4 2.5-1 5.7-2.7 7.2-3.7 1.4-1 3-1.8 3.6-1.8 1.2 0 3.7-2.9 3-3.5-.2-.3-1.3.2-2.5 1zm15.2 3.1c-1.1.9-4 2.5-6.5 3.7-2.5 1.1-4 2.2-3.3 2.4 1.3.5 8.8-3 12.3-5.7 1.6-1.3 2-2 1-1.9-.8 0-2.4.7-3.5 1.5z"/><path d="M74.5 279.6c-3.3 1.4-9.8 3.7-14.5 5.1-4.7 1.5-7.8 2.9-6.9 3.1 1.9.3 17.4-4.7 24.9-8.2 7-3.2 4.4-3.2-3.5 0zm41.5.1c0 2.5-1.5 3.9-2.5 2.3-.9-1.5-2.5-1.2-2.5.5 0 .8-.4 1.5-1 1.5-.5 0-1-.5-1-1.2 0-.6-.3-.9-.6-.6-.3.4-.6 1-.6 1.5 0 .4-.4 1.4-1 2-.8 1-.5 1.3 1.1 1.3 1.1 0 2.1-.5 2.1-1 0-.6 1-1 2.3-1 1.2 0 3.3-.9 4.7-2 2.4-1.8 2.4-2 .8-3.7-1.7-1.6-1.8-1.6-1.8.4zm8.2 2.4c-2.3 1.7-4.2 3.4-4.2 3.7 0 .8-3.5 2.4-9.5 4.3-5.3 1.7-7 3.3-2.5 2.4 5-1 12.9-5 17.5-8.9 5.2-4.4 4.1-5.5-1.3-1.5zm-24.2 6.1c0 .4.4.8.9.8.6 0 1.2-.4 1.5-.8.3-.5-.1-.9-.9-.9s-1.5.4-1.5.9zm35 1.9c0 1.1.4 1.8 1 1.4.5-.3.7-1.2.3-2-.7-2.1-1.3-1.9-1.3.6zM11 292c0 .5.9 1.2 2.1 1.5 1.7.6 1.9 1.2 1.4 3.3-.8 3.3-3.5 6.4-5 5.8-.6-.2-1.8.2-2.7.8-1.3 1-1 1.2 2.3 1.3 2.7.1 3.9-.2 3.9-1.2 0-.8.6-1.8 1.4-2.2 1.6-1 2.9-6.4 1.8-7.9-.9-1.4-5.2-2.5-5.2-1.4z"/><path d="M7.7 292.7c-2.3 2.2.7 6.8 3.7 5.7 2.2-.8 1.6-3.9-.8-3.7-1.1 0-1.5-.4-1.2-1.3.6-1.4-.6-1.9-1.7-.7zm13.8 4c0 2.7-.5 5.7-.9 6.8-.9 2-.9 2 1.2.1 1.7-1.5 2.2-3 2.2-6.8 0-3.2-.4-4.8-1.3-4.8-.8 0-1.2 1.6-1.2 4.7zm75-2.6c-2.2.4-8.9.9-15 1-8.1.1-10.2.4-8 1 1.7.5 4.8.8 7 .7 2.2-.1 6.7.4 10 1.2 3.3.8 6.4 1.3 6.8 1.2 1.7-.5 12.7 2.1 12.7 2.9 0 1 12.1 4.6 17.8 5.2 2.3.2 4.2 0 4.2-.4 0-.5-1.7-.9-3.7-1-3.5-.1-9.5-1.5-8.3-1.9.3-.1 1.8-.4 3.5-.6 1.6-.3 3.5-1 4.1-1.5.8-.7 1.4-.6 1.7.3.2.8.8.9 1.3.4s.4-1.1-.3-1.3c-.9-.3-.8-1.1.4-3.1l1.6-2.7-2.7 2.8c-1.5 1.5-4.1 3-5.7 3.4-1.6.3-3.2.9-3.4 1.3-.5.8-5-.4-13-3.4-2.2-.8-6.4-1.5-9.2-1.6-2.9 0-5.3-.4-5.3-.9s2.6-1.6 5.8-2.4c6.1-1.6 4.4-2-2.3-.6z"/><path d="M105 295.4c0 .3.9 1 2 1.6 1.1.6 2 .8 2 .6 0-.3-.9-1-2-1.6-1.1-.6-2-.8-2-.6zM51.5 332c.3.5 1.1 1 1.6 1 .6 0 .7-.5.4-1-.3-.6-1.1-1-1.6-1-.6 0-.7.4-.4 1zm-1.5 3.1c0 .5.5.7 1 .4.6-.3 1-.8 1-1.1 0-.2-.4-.4-1-.4-.5 0-1 .5-1 1.1z"/>
  </symbol>
</svg>
